<?xml version="1.0" encoding="utf-8"?>
<!-- Generator: Adobe Illustrator 17.1.0, SVG Export Plug-In . SVG Version: 6.00 Build 0)  -->
<!DOCTYPE svg PUBLIC "-//W3C//DTD SVG 1.1//EN" "http://www.w3.org/Graphics/SVG/1.1/DTD/svg11.dtd">
<svg version="1.1" id="Layer_1" xmlns="http://www.w3.org/2000/svg" xmlns:xlink="http://www.w3.org/1999/xlink" x="0px" y="0px"
	 width="1024px" height="550px" viewBox="0 0 1024 550" enable-background="new 0 0 1024 550" xml:space="preserve">
<g id="charts">
	<g enable-background="new    ">
		<path fill="#060E9F" d="M3.8,17.2L3.8,17.2c0-5.3,3.9-9.6,9.3-9.6c3.4,0,5.4,1.2,7.2,2.9l-1.4,1.5c-1.6-1.5-3.3-2.5-5.8-2.5
			C9,9.5,6,12.9,6,17.1v0.1c0,4.3,3.1,7.6,7.2,7.6c2.5,0,4.2-1,6-2.7l1.4,1.3c-1.9,2-4,3.2-7.4,3.2C7.7,26.7,3.8,22.5,3.8,17.2z"/>
		<path fill="#060E9F" d="M22.6,19.6L22.6,19.6c0-3.9,3-7.2,7.1-7.2c4.1,0,7.1,3.2,7.1,7.1v0.1c0,3.9-3,7.1-7.2,7.1
			C25.6,26.7,22.6,23.5,22.6,19.6z M34.8,19.6L34.8,19.6c0-3-2.2-5.4-5.1-5.4c-3,0-5,2.4-5,5.3v0.1c0,2.9,2.2,5.3,5,5.3
			C32.7,24.9,34.8,22.5,34.8,19.6z"/>
		<path fill="#060E9F" d="M40.5,12.7h2V15c0.9-1.3,2.1-2.6,4.4-2.6c2.2,0,3.6,1.2,4.4,2.7c1-1.5,2.4-2.7,4.8-2.7
			c3.1,0,5.1,2.1,5.1,5.5v8.4h-2v-8c0-2.6-1.3-4.1-3.5-4.1c-2.1,0-3.7,1.5-3.7,4.2v7.9h-2v-8c0-2.6-1.3-4.1-3.5-4.1
			s-3.8,1.8-3.8,4.3v7.8h-2V12.7z"/>
		<path fill="#060E9F" d="M65.6,12.7h2v2.7c1.1-1.6,2.7-3,5.2-3c3.3,0,6.5,2.6,6.5,7.1v0.1c0,4.5-3.2,7.1-6.5,7.1
			c-2.5,0-4.2-1.4-5.2-2.9v6.8h-2V12.7z M77.3,19.6L77.3,19.6c0-3.3-2.2-5.3-4.8-5.3c-2.5,0-4.9,2.1-4.9,5.3v0.1
			c0,3.2,2.4,5.3,4.9,5.3C75.2,24.9,77.3,22.9,77.3,19.6z"/>
		<path fill="#060E9F" d="M82.1,22.4L82.1,22.4c0-2.9,2.4-4.5,5.8-4.5c1.7,0,3,0.2,4.2,0.6v-0.5c0-2.5-1.5-3.7-4.1-3.7
			c-1.6,0-2.9,0.4-4.1,1l-0.6-1.7c1.5-0.7,3-1.1,5-1.1c1.9,0,3.4,0.5,4.4,1.5c0.9,0.9,1.4,2.2,1.4,4v8.3h-2v-2.1
			c-1,1.2-2.5,2.3-4.9,2.3C84.7,26.7,82.1,25.2,82.1,22.4z M92.2,21.4v-1.3c-1-0.3-2.3-0.6-4-0.6c-2.6,0-4,1.1-4,2.8v0.1
			c0,1.7,1.6,2.7,3.4,2.7C90.1,25.1,92.2,23.5,92.2,21.4z"/>
		<path fill="#060E9F" d="M98.4,12.7h2v3.6c1-2.3,3-3.9,5.6-3.8v2.2h-0.2c-3,0-5.4,2.1-5.4,6.3v5.4h-2V12.7z"/>
		<path fill="#060E9F" d="M107.4,22.4L107.4,22.4c0-2.9,2.4-4.5,5.8-4.5c1.7,0,3,0.2,4.2,0.6v-0.5c0-2.5-1.5-3.7-4.1-3.7
			c-1.6,0-2.9,0.4-4.1,1l-0.6-1.7c1.5-0.7,3-1.1,5-1.1c1.9,0,3.4,0.5,4.4,1.5c0.9,0.9,1.4,2.2,1.4,4v8.3h-2v-2.1
			c-1,1.2-2.5,2.3-4.9,2.3C110,26.7,107.4,25.2,107.4,22.4z M117.5,21.4v-1.3c-1-0.3-2.3-0.6-4-0.6c-2.6,0-4,1.1-4,2.8v0.1
			c0,1.7,1.6,2.7,3.4,2.7C115.4,25.1,117.5,23.5,117.5,21.4z"/>
		<path fill="#060E9F" d="M124.3,22.8v-8.2h-1.9v-1.8h1.9V8.6h2v4.1h4.3v1.8h-4.3v8c0,1.7,0.9,2.3,2.3,2.3c0.7,0,1.3-0.1,2-0.5V26
			c-0.7,0.4-1.5,0.6-2.5,0.6C126,26.6,124.3,25.5,124.3,22.8z"/>
		<path fill="#060E9F" d="M134.3,7.5h2.3v2.2h-2.3V7.5z M134.5,12.7h2v13.6h-2V12.7z"/>
		<path fill="#060E9F" d="M139.9,12.7h2.2l4.6,11.3l4.6-11.3h2.2l-5.9,13.8h-1.8L139.9,12.7z"/>
		<path fill="#060E9F" d="M155.1,19.6L155.1,19.6c0-4,2.8-7.2,6.5-7.2c4,0,6.4,3.2,6.4,7.2c0,0.3,0,0.4,0,0.7h-10.8
			c0.3,3,2.4,4.6,4.8,4.6c1.9,0,3.2-0.8,4.3-1.9l1.3,1.1c-1.4,1.5-3,2.6-5.6,2.6C158.1,26.7,155.1,23.8,155.1,19.6z M165.9,18.8
			c-0.2-2.5-1.6-4.6-4.4-4.6c-2.4,0-4.2,2-4.4,4.6H165.9z"/>
		<path fill="#060E9F" d="M178.6,19.6L178.6,19.6c0-4,2.8-7.2,6.5-7.2c4,0,6.4,3.2,6.4,7.2c0,0.3,0,0.4,0,0.7h-10.8
			c0.3,3,2.4,4.6,4.8,4.6c1.9,0,3.2-0.8,4.3-1.9l1.3,1.1c-1.4,1.5-3,2.6-5.6,2.6C181.7,26.7,178.6,23.8,178.6,19.6z M189.5,18.8
			c-0.2-2.5-1.6-4.6-4.4-4.6c-2.4,0-4.2,2-4.4,4.6H189.5z"/>
		<path fill="#060E9F" d="M193.1,12.7h2.2l4.6,11.3l4.6-11.3h2.2l-5.9,13.8H199L193.1,12.7z"/>
		<path fill="#060E9F" d="M208.2,22.4L208.2,22.4c0-2.9,2.4-4.5,5.8-4.5c1.7,0,3,0.2,4.2,0.6v-0.5c0-2.5-1.5-3.7-4.1-3.7
			c-1.6,0-2.9,0.4-4.1,1l-0.6-1.7c1.5-0.7,3-1.1,5-1.1c1.9,0,3.4,0.5,4.4,1.5c0.9,0.9,1.4,2.2,1.4,4v8.3h-2v-2.1
			c-1,1.2-2.5,2.3-4.9,2.3C210.8,26.7,208.2,25.2,208.2,22.4z M218.3,21.4v-1.3c-1-0.3-2.3-0.6-4-0.6c-2.6,0-4,1.1-4,2.8v0.1
			c0,1.7,1.6,2.7,3.4,2.7C216.2,25.1,218.3,23.5,218.3,21.4z"/>
		<path fill="#060E9F" d="M224.7,7.1h2v19.3h-2V7.1z"/>
		<path fill="#060E9F" d="M231.3,21.2v-8.5h2v8c0,2.5,1.4,4.1,3.8,4.1c2.3,0,4.1-1.7,4.1-4.3v-7.8h2v13.6h-2V24
			c-0.9,1.5-2.3,2.7-4.7,2.7C233.2,26.7,231.3,24.5,231.3,21.2z"/>
		<path fill="#060E9F" d="M246.7,22.4L246.7,22.4c0-2.9,2.4-4.5,5.8-4.5c1.7,0,3,0.2,4.2,0.6v-0.5c0-2.5-1.5-3.7-4.1-3.7
			c-1.6,0-2.9,0.4-4.1,1l-0.6-1.7c1.5-0.7,3-1.1,5-1.1c1.9,0,3.4,0.5,4.4,1.5c0.9,0.9,1.4,2.2,1.4,4v8.3h-2v-2.1
			c-1,1.2-2.5,2.3-4.9,2.3C249.3,26.7,246.7,25.2,246.7,22.4z M256.8,21.4v-1.3c-1-0.3-2.3-0.6-4-0.6c-2.6,0-4,1.1-4,2.8v0.1
			c0,1.7,1.6,2.7,3.4,2.7C254.7,25.1,256.8,23.5,256.8,21.4z"/>
		<path fill="#060E9F" d="M263.6,22.8v-8.2h-1.9v-1.8h1.9V8.6h2v4.1h4.3v1.8h-4.3v8c0,1.7,0.9,2.3,2.3,2.3c0.7,0,1.3-0.1,2-0.5V26
			c-0.7,0.4-1.5,0.6-2.5,0.6C265.3,26.6,263.6,25.5,263.6,22.8z"/>
		<path fill="#060E9F" d="M273.6,7.5h2.3v2.2h-2.3V7.5z M273.7,12.7h2v13.6h-2V12.7z"/>
		<path fill="#060E9F" d="M279.6,19.6L279.6,19.6c0-3.9,3-7.2,7.1-7.2c4.1,0,7.1,3.2,7.1,7.1v0.1c0,3.9-3,7.1-7.2,7.1
			C282.6,26.7,279.6,23.5,279.6,19.6z M291.8,19.6L291.8,19.6c0-3-2.2-5.4-5.1-5.4c-3,0-5,2.4-5,5.3v0.1c0,2.9,2.2,5.3,5,5.3
			C289.7,24.9,291.8,22.5,291.8,19.6z"/>
		<path fill="#060E9F" d="M297.5,12.7h2v2.4c0.9-1.5,2.3-2.7,4.7-2.7c3.3,0,5.2,2.2,5.2,5.5v8.5h-2v-8c0-2.5-1.4-4.1-3.8-4.1
			c-2.3,0-4.1,1.7-4.1,4.3v7.8h-2V12.7z"/>
		<path fill="#060E9F" d="M320.9,19.6L320.9,19.6c0-3.9,3-7.2,7.1-7.2c4.1,0,7.1,3.2,7.1,7.1v0.1c0,3.9-3,7.1-7.2,7.1
			C323.9,26.7,320.9,23.5,320.9,19.6z M333,19.6L333,19.6c0-3-2.2-5.4-5.1-5.4c-3,0-5,2.4-5,5.3v0.1c0,2.9,2.2,5.3,5,5.3
			C331,24.9,333,22.5,333,19.6z"/>
		<path fill="#060E9F" d="M339.5,14.5h-1.9v-1.8h1.9v-1.2c0-1.6,0.4-2.7,1.2-3.5c0.7-0.7,1.7-1.1,2.9-1.1c1,0,1.6,0.1,2.2,0.3v1.8
			c-0.7-0.2-1.3-0.3-2-0.3c-1.6,0-2.4,1-2.4,2.9v1.1h4.3v1.7h-4.3v11.9h-2V14.5z"/>
		<path fill="#060E9F" d="M355.2,24.7l1-1.5c1.5,1.1,3.1,1.7,4.7,1.7c1.6,0,2.8-0.8,2.8-2.2v-0.1c0-1.4-1.6-1.9-3.4-2.4
			c-2.1-0.6-4.5-1.3-4.5-3.9v-0.1c0-2.3,2-3.9,4.6-3.9c1.7,0,3.5,0.6,4.9,1.5l-0.9,1.5c-1.3-0.8-2.7-1.3-4-1.3c-1.6,0-2.6,0.8-2.6,2
			v0.1c0,1.3,1.7,1.8,3.5,2.3c2.1,0.6,4.4,1.5,4.4,3.9v0.1c0,2.6-2.1,4.1-4.9,4.1C358.9,26.7,356.8,25.9,355.2,24.7z"/>
		<path fill="#060E9F" d="M369.5,7.1h2v13.3l7.4-7.7h2.5l-5.7,5.9l5.9,7.8h-2.4l-4.9-6.4l-2.8,2.8v3.6h-2V7.1z"/>
		<path fill="#060E9F" d="M384.6,7.5h2.3v2.2h-2.3V7.5z M384.7,12.7h2v13.6h-2V12.7z"/>
		<path fill="#060E9F" d="M391.5,12.7h2v2.4c0.9-1.5,2.3-2.7,4.7-2.7c3.3,0,5.2,2.2,5.2,5.5v8.5h-2v-8c0-2.5-1.4-4.1-3.8-4.1
			c-2.3,0-4.1,1.7-4.1,4.3v7.8h-2V12.7z"/>
		<path fill="#060E9F" d="M415.6,7.1h2v8c0.9-1.5,2.3-2.7,4.7-2.7c3.3,0,5.2,2.2,5.2,5.5v8.5h-2v-8c0-2.5-1.4-4.1-3.8-4.1
			c-2.3,0-4.1,1.7-4.1,4.3v7.8h-2V7.1z"/>
		<path fill="#060E9F" d="M441.7,12.7h2.2l-5.7,14.1c-1.2,2.8-2.5,3.9-4.5,3.9c-1.1,0-2-0.2-2.9-0.7l0.7-1.6
			c0.7,0.3,1.3,0.5,2.1,0.5c1.2,0,2-0.6,2.8-2.6l-6.2-13.6h2.2l5,11.4L441.7,12.7z"/>
		<path fill="#060E9F" d="M445.7,19.6L445.7,19.6c0-4.5,3.2-7.2,6.5-7.2c2.5,0,4.2,1.4,5.2,2.9V7.1h2v19.3h-2v-2.7
			c-1.1,1.6-2.7,3-5.2,3C448.9,26.7,445.7,24.1,445.7,19.6z M457.5,19.6L457.5,19.6c0-3.2-2.4-5.3-4.9-5.3c-2.6,0-4.8,2-4.8,5.3v0.1
			c0,3.2,2.2,5.3,4.8,5.3C455.1,24.9,457.5,22.7,457.5,19.6z"/>
		<path fill="#060E9F" d="M464,12.7h2v3.6c1-2.3,3-3.9,5.6-3.8v2.2h-0.2c-3,0-5.4,2.1-5.4,6.3v5.4h-2V12.7z"/>
		<path fill="#060E9F" d="M473,22.4L473,22.4c0-2.9,2.4-4.5,5.8-4.5c1.7,0,3,0.2,4.2,0.6v-0.5c0-2.5-1.5-3.7-4.1-3.7
			c-1.6,0-2.9,0.4-4.1,1l-0.6-1.7c1.5-0.7,3-1.1,5-1.1c1.9,0,3.4,0.5,4.4,1.5c0.9,0.9,1.4,2.2,1.4,4v8.3h-2v-2.1
			c-1,1.2-2.5,2.3-4.9,2.3C475.5,26.7,473,25.2,473,22.4z M483,21.4v-1.3c-1-0.3-2.3-0.6-4-0.6c-2.6,0-4,1.1-4,2.8v0.1
			c0,1.7,1.6,2.7,3.4,2.7C481,25.1,483,23.5,483,21.4z"/>
		<path fill="#060E9F" d="M489.9,22.8v-8.2H488v-1.8h1.9V8.6h2v4.1h4.3v1.8h-4.3v8c0,1.7,0.9,2.3,2.3,2.3c0.7,0,1.3-0.1,2-0.5V26
			c-0.7,0.4-1.5,0.6-2.5,0.6C491.5,26.6,489.9,25.5,489.9,22.8z"/>
		<path fill="#060E9F" d="M499.9,7.5h2.3v2.2h-2.3V7.5z M500,12.7h2v13.6h-2V12.7z"/>
		<path fill="#060E9F" d="M505.9,19.6L505.9,19.6c0-3.9,3-7.2,7.1-7.2c4.1,0,7.1,3.2,7.1,7.1v0.1c0,3.9-3,7.1-7.2,7.1
			C508.9,26.7,505.9,23.5,505.9,19.6z M518,19.6L518,19.6c0-3-2.2-5.4-5.1-5.4c-3,0-5,2.4-5,5.3v0.1c0,2.9,2.2,5.3,5,5.3
			C516,24.9,518,22.5,518,19.6z"/>
		<path fill="#060E9F" d="M523.8,12.7h2v2.4c0.9-1.5,2.3-2.7,4.7-2.7c3.3,0,5.2,2.2,5.2,5.5v8.5h-2v-8c0-2.5-1.4-4.1-3.8-4.1
			c-2.3,0-4.1,1.7-4.1,4.3v7.8h-2V12.7z"/>
	</g>
	<g enable-background="new    ">
		<path fill="#060E9F" d="M545.7,8l-2,0.6l-0.3-1l2.6-0.9h0.9v10.8h-1.2V8z"/>
	</g>
	<path fill="#0075C9" d="M748.7,199.3c0,2.4-1.8,4.3-4.3,4.3h-4.9c-2.4,0-4.3-1.8-4.3-4.3v-4.9c0-2.4,1.8-4.3,4.3-4.3h4.9
		c2.4,0,4.3,1.8,4.3,4.3V199.3z"/>
	<path fill="#0075C9" d="M135.8,267.7c0-1.2,1-2.2,2.2-2.2h3.2c1.2,0,2.2,1,2.2,2.2v3.2c0,1.2-1,2.2-2.2,2.2H138
		c-1.2,0-2.2-1-2.2-2.2V267.7z"/>
	<path fill="#0075C9" d="M263.1,262.4c0-1.2,1-2.2,2.2-2.2h3.2c1.2,0,2.2,1,2.2,2.2v3.2c0,1.2-1,2.2-2.2,2.2h-3.2
		c-1.2,0-2.2-1-2.2-2.2V262.4z"/>
	<path fill="#0075C9" d="M390.2,338.6c0-1.2,1-2.2,2.2-2.2h3.2c1.2,0,2.2,1,2.2,2.2v3.2c0,1.2-1,2.2-2.2,2.2h-3.2
		c-1.2,0-2.2-1-2.2-2.2V338.6z"/>
	<path fill="#0075C9" d="M643.5,338.8c0-1.2,1-2.2,2.2-2.2h3.2c1.2,0,2.2,1,2.2,2.2v3.2c0,1.2-1,2.2-2.2,2.2h-3.2
		c-1.2,0-2.2-1-2.2-2.2V338.8z"/>
	<path fill="#0075C9" d="M517.1,339c0-1.2,1-2.2,2.2-2.2h3.2c1.2,0,2.2,1,2.2,2.2v3.2c0,1.2-1,2.2-2.2,2.2h-3.2
		c-1.2,0-2.2-1-2.2-2.2V339L517.1,339z"/>
	<polyline fill="none" stroke="#0075C9" stroke-width="1.772" points="139.6,269.3 265.9,264.1 393.4,340.4 519.9,340.4 
		647.4,340.4 	"/>
	<path fill="#82BC00" d="M135.8,275.6c0-1.2,1-2.2,2.2-2.2h3.2c1.2,0,2.2,1,2.2,2.2v3.2c0,1.2-1,2.2-2.2,2.2H138
		c-1.2,0-2.2-1-2.2-2.2V275.6z"/>
	<polyline fill="none" stroke="#82BC00" stroke-width="1.772" points="139.6,277.3 265.9,113.4 393.4,159.3 519.9,213.3 
		647.4,170.7 	"/>
	<path fill="#82BC00" d="M748.7,161.7c0,2.4-1.8,4.3-4.3,4.3h-4.9c-2.4,0-4.3-1.8-4.3-4.3v-4.9c0-2.4,1.8-4.3,4.3-4.3h4.9
		c2.4,0,4.3,1.8,4.3,4.3V161.7z"/>
	<g enable-background="new    ">
		<path fill="#060E9F" d="M758.8,152.8h4.4c4,0,6.7,2.7,6.7,6.3v0c0,3.5-2.7,6.3-6.7,6.3h-4.4V152.8z M760.2,154.1v10h3
			c3.2,0,5.2-2.2,5.2-5v0c0-2.8-2-5-5.2-5H760.2z"/>
		<path fill="#060E9F" d="M771.9,162.7L771.9,162.7c0-2,1.6-3,4-3c1.2,0,2,0.2,2.9,0.4v-0.3c0-1.7-1-2.5-2.8-2.5
			c-1.1,0-2,0.3-2.8,0.7l-0.4-1.1c1-0.5,2-0.8,3.4-0.8c1.3,0,2.3,0.3,3,1c0.6,0.6,1,1.5,1,2.7v5.7h-1.3V164
			c-0.6,0.8-1.7,1.6-3.4,1.6C773.6,165.6,771.9,164.6,771.9,162.7z M778.8,162v-0.9c-0.7-0.2-1.6-0.4-2.7-0.4
			c-1.7,0-2.7,0.8-2.7,1.9v0c0,1.2,1.1,1.9,2.3,1.9C777.4,164.5,778.8,163.5,778.8,162z"/>
		<path fill="#060E9F" d="M783.1,152.6h1.6v1.5h-1.6V152.6z M783.1,156.1h1.4v9.3h-1.4V156.1z"/>
		<path fill="#060E9F" d="M787.9,152.3h1.4v13.1h-1.4V152.3z"/>
		<path fill="#060E9F" d="M799.5,156.1h1.5l-3.9,9.6c-0.8,1.9-1.7,2.6-3.1,2.6c-0.8,0-1.3-0.2-2-0.5l0.5-1.1
			c0.5,0.2,0.9,0.3,1.5,0.3c0.8,0,1.4-0.4,1.9-1.7l-4.2-9.3h1.5l3.4,7.8L799.5,156.1z"/>
	</g>
	<g enable-background="new    ">
		<path fill="#060E9F" d="M809.5,152.8h9.1v1.3h-7.6v4.5h6.8v1.3h-6.8v5.5h-1.4V152.8z"/>
	</g>
	<g enable-background="new    ">
		<path fill="#060E9F" d="M819.7,162.7L819.7,162.7c0-2,1.6-3,4-3c1.2,0,2,0.2,2.9,0.4v-0.3c0-1.7-1-2.5-2.8-2.5
			c-1.1,0-2,0.3-2.8,0.7l-0.4-1.1c1-0.5,2-0.8,3.4-0.8c1.3,0,2.3,0.3,3,1c0.6,0.6,1,1.5,1,2.7v5.7h-1.3V164
			c-0.6,0.8-1.7,1.6-3.4,1.6C821.5,165.6,819.7,164.6,819.7,162.7z M826.6,162v-0.9c-0.7-0.2-1.6-0.4-2.7-0.4
			c-1.7,0-2.7,0.8-2.7,1.9v0c0,1.2,1.1,1.9,2.3,1.9C825.2,164.5,826.6,163.5,826.6,162z"/>
		<path fill="#060E9F" d="M830.3,160.8L830.3,160.8c0-2.7,2.1-4.9,4.8-4.9c1.8,0,2.9,0.7,3.7,1.7l-0.9,1c-0.7-0.8-1.6-1.4-2.8-1.4
			c-1.9,0-3.3,1.6-3.3,3.6v0c0,2,1.5,3.6,3.4,3.6c1.2,0,2.1-0.6,2.8-1.4l0.9,0.8c-0.9,1-2.1,1.8-3.8,1.8
			C832.3,165.6,830.3,163.4,830.3,160.8z"/>
		<path fill="#060E9F" d="M841.2,152.6h1.6v1.5h-1.6V152.6z M841.3,156.1h1.4v9.3h-1.4V156.1z"/>
		<path fill="#060E9F" d="M845.2,162.7L845.2,162.7c0-2,1.6-3,4-3c1.2,0,2,0.2,2.9,0.4v-0.3c0-1.7-1-2.5-2.8-2.5
			c-1.1,0-2,0.3-2.8,0.7l-0.4-1.1c1-0.5,2-0.8,3.4-0.8c1.3,0,2.3,0.3,3,1c0.6,0.6,1,1.5,1,2.7v5.7H852V164c-0.6,0.8-1.7,1.6-3.4,1.6
			C846.9,165.6,845.2,164.6,845.2,162.7z M852,162v-0.9c-0.7-0.2-1.6-0.4-2.7-0.4c-1.7,0-2.7,0.8-2.7,1.9v0c0,1.2,1.1,1.9,2.3,1.9
			C850.6,164.5,852,163.5,852,162z"/>
		<path fill="#060E9F" d="M856.4,152.3h1.4v13.1h-1.4V152.3z"/>
		<path fill="#060E9F" d="M866.7,152.8h1.4l4.6,6.9l4.6-6.9h1.4v12.6h-1.4v-10.2l-4.6,6.8h-0.1l-4.6-6.7v10.2h-1.4V152.8z"/>
		<path fill="#060E9F" d="M881.5,160.8L881.5,160.8c0-2.7,2.1-4.9,4.9-4.9c2.8,0,4.8,2.2,4.8,4.8v0c0,2.6-2.1,4.9-4.9,4.9
			C883.5,165.6,881.5,163.4,881.5,160.8z M889.8,160.8L889.8,160.8c0-2-1.5-3.7-3.5-3.7c-2,0-3.4,1.6-3.4,3.6v0c0,2,1.5,3.6,3.4,3.6
			C888.4,164.4,889.8,162.8,889.8,160.8z"/>
		<path fill="#060E9F" d="M893.7,152.6h1.6v1.5h-1.6V152.6z M893.8,156.1h1.4v9.3h-1.4V156.1z"/>
		<path fill="#060E9F" d="M897.6,164.2l0.7-1c1,0.8,2.1,1.2,3.2,1.2c1.1,0,1.9-0.6,1.9-1.5v0c0-0.9-1.1-1.3-2.3-1.6
			c-1.5-0.4-3.1-0.9-3.1-2.6v0c0-1.6,1.3-2.7,3.2-2.7c1.1,0,2.4,0.4,3.3,1l-0.6,1c-0.9-0.6-1.9-0.9-2.8-0.9c-1.1,0-1.8,0.6-1.8,1.4
			v0c0,0.9,1.2,1.2,2.4,1.6c1.4,0.4,3,1,3,2.7v0c0,1.8-1.5,2.8-3.3,2.8C900.2,165.6,898.7,165.1,897.6,164.2z"/>
		<path fill="#060E9F" d="M907.7,163v-5.6h-1.3v-1.2h1.3v-2.8h1.4v2.8h3v1.2h-3v5.4c0,1.1,0.6,1.5,1.6,1.5c0.5,0,0.9-0.1,1.4-0.3
			v1.2c-0.5,0.3-1,0.4-1.7,0.4C908.8,165.6,907.7,164.9,907.7,163z"/>
		<path fill="#060E9F" d="M914.3,161.9v-5.8h1.4v5.4c0,1.7,0.9,2.8,2.6,2.8c1.6,0,2.8-1.2,2.8-2.9v-5.3h1.4v9.3h-1.4v-1.6
			c-0.6,1-1.6,1.8-3.2,1.8C915.6,165.6,914.3,164.1,914.3,161.9z"/>
		<path fill="#060E9F" d="M925.6,156.1h1.4v2.4c0.7-1.5,2-2.7,3.8-2.6v1.5h-0.1c-2,0-3.7,1.5-3.7,4.3v3.7h-1.4V156.1z"/>
		<path fill="#060E9F" d="M932.9,152.6h1.6v1.5h-1.6V152.6z M933,156.1h1.4v9.3H933V156.1z"/>
		<path fill="#060E9F" d="M937,164.5l6.2-7.3h-6v-1.2h7.9v0.9l-6.2,7.3h6.2v1.2H937V164.5z"/>
		<path fill="#060E9F" d="M946.8,160.8L946.8,160.8c0-2.7,1.9-4.9,4.5-4.9c2.8,0,4.3,2.2,4.3,4.9c0,0.2,0,0.3,0,0.5h-7.4
			c0.2,2,1.6,3.2,3.3,3.2c1.3,0,2.2-0.5,2.9-1.3l0.9,0.8c-0.9,1-2.1,1.7-3.8,1.7C948.8,165.6,946.8,163.7,946.8,160.8z M954.2,160.3
			c-0.1-1.7-1.1-3.2-3-3.2c-1.6,0-2.8,1.4-3,3.2H954.2z"/>
		<path fill="#060E9F" d="M958,156.1h1.4v2.4c0.7-1.5,2-2.7,3.8-2.6v1.5h-0.1c-2,0-3.7,1.5-3.7,4.3v3.7H958V156.1z"/>
		<path fill="#060E9F" d="M970.1,163.6l0.9-1c1.3,1.2,2.6,1.8,4.3,1.8c1.7,0,2.8-0.9,2.8-2.1v0c0-1.2-0.6-1.8-3.3-2.4
			c-2.9-0.6-4.2-1.6-4.2-3.6v0c0-2,1.7-3.4,4.1-3.4c1.8,0,3.2,0.5,4.4,1.5l-0.8,1.1c-1.2-1-2.3-1.4-3.6-1.4c-1.6,0-2.7,0.9-2.7,2v0
			c0,1.2,0.6,1.9,3.4,2.4c2.8,0.6,4.1,1.6,4.1,3.6v0c0,2.2-1.8,3.6-4.3,3.6C973.2,165.6,971.6,164.9,970.1,163.6z"/>
		<path fill="#060E9F" d="M982.4,152.8h4.7c2.8,0,4.7,1.5,4.7,4v0c0,2.7-2.3,4.1-5,4.1h-3.1v4.4h-1.4V152.8z M987,159.7
			c2.1,0,3.5-1.1,3.5-2.8v0c0-1.8-1.4-2.7-3.4-2.7h-3.2v5.5H987z"/>
		<path fill="#060E9F" d="M994.5,152.8h9.1v1.3h-7.6v4.5h6.8v1.3h-6.8v5.5h-1.4V152.8z"/>
		<path fill="#060E9F" d="M1007.7,154.2l-2.4,0.7l-0.3-1.2l3.1-1.1h1v12.7h-1.4V154.2z"/>
		<path fill="#060E9F" d="M1011.9,163.6l0.9-1c1.1,1.1,2.3,1.7,3.6,1.7c1.8,0,3-1.2,3-2.8v0c0-1.6-1.3-2.6-3.1-2.6
			c-1.1,0-1.9,0.3-2.6,0.7l-1-0.6l0.4-6.1h7.3v1.3h-6l-0.3,4c0.7-0.3,1.4-0.6,2.5-0.6c2.4,0,4.4,1.4,4.4,3.9v0
			c0,2.5-1.9,4.1-4.5,4.1C1014.6,165.6,1013,164.8,1011.9,163.6z"/>
	</g>
	<g enable-background="new    ">
		<path fill="#060E9F" d="M758.6,197.7v-7.3h1.4v7.2c0,2.7,1.5,4.2,3.9,4.2c2.3,0,3.8-1.4,3.8-4.2v-7.3h1.4v7.2
			c0,3.7-2.1,5.6-5.3,5.6C760.7,203.2,758.6,201.3,758.6,197.7z"/>
		<path fill="#060E9F" d="M772.2,193.7h1.4v1.6c0.6-1,1.6-1.8,3.2-1.8c2.3,0,3.6,1.5,3.6,3.7v5.8h-1.4v-5.4c0-1.7-0.9-2.8-2.6-2.8
			c-1.6,0-2.8,1.2-2.8,2.9v5.3h-1.4V193.7z"/>
		<path fill="#060E9F" d="M783.8,200.5v-5.6h-1.3v-1.2h1.3v-2.8h1.4v2.8h3v1.2h-3v5.4c0,1.1,0.6,1.5,1.6,1.5c0.5,0,0.9-0.1,1.4-0.3
			v1.2c-0.5,0.3-1,0.4-1.7,0.4C784.9,203.2,783.8,202.4,783.8,200.5z"/>
		<path fill="#060E9F" d="M790.5,193.7h1.4v2.4c0.7-1.5,2-2.7,3.8-2.6v1.5h-0.1c-2,0-3.7,1.5-3.7,4.3v3.7h-1.4V193.7z"/>
		<path fill="#060E9F" d="M796.9,198.4L796.9,198.4c0-2.7,1.9-4.9,4.5-4.9c2.8,0,4.3,2.2,4.3,4.9c0,0.2,0,0.3,0,0.5h-7.4
			c0.2,2,1.6,3.2,3.3,3.2c1.3,0,2.2-0.5,2.9-1.3l0.9,0.8c-0.9,1-2.1,1.7-3.8,1.7C799,203.2,796.9,201.3,796.9,198.4z M804.3,197.8
			c-0.1-1.7-1.1-3.2-3-3.2c-1.6,0-2.8,1.4-3,3.2H804.3z"/>
		<path fill="#060E9F" d="M807.4,200.3L807.4,200.3c0-2,1.6-3,4-3c1.2,0,2,0.2,2.9,0.4v-0.3c0-1.7-1-2.5-2.8-2.5
			c-1.1,0-2,0.3-2.8,0.7l-0.4-1.1c1-0.5,2-0.8,3.4-0.8c1.3,0,2.3,0.3,3,1c0.6,0.6,1,1.5,1,2.7v5.7h-1.3v-1.4
			c-0.6,0.8-1.7,1.6-3.4,1.6C809.1,203.2,807.4,202.2,807.4,200.3z M814.3,199.6v-0.9c-0.7-0.2-1.6-0.4-2.7-0.4
			c-1.7,0-2.7,0.8-2.7,1.9v0c0,1.2,1.1,1.9,2.3,1.9C812.9,202.1,814.3,201.1,814.3,199.6z"/>
		<path fill="#060E9F" d="M818.9,200.5v-5.6h-1.3v-1.2h1.3v-2.8h1.4v2.8h3v1.2h-3v5.4c0,1.1,0.6,1.5,1.6,1.5c0.5,0,0.9-0.1,1.4-0.3
			v1.2c-0.5,0.3-1,0.4-1.7,0.4C820,203.2,818.9,202.4,818.9,200.5z"/>
		<path fill="#060E9F" d="M824.9,198.4L824.9,198.4c0-2.7,1.9-4.9,4.5-4.9c2.8,0,4.3,2.2,4.3,4.9c0,0.2,0,0.3,0,0.5h-7.4
			c0.2,2,1.6,3.2,3.3,3.2c1.3,0,2.2-0.5,2.9-1.3l0.9,0.8c-0.9,1-2.1,1.7-3.8,1.7C826.9,203.2,824.9,201.3,824.9,198.4z M832.3,197.8
			c-0.1-1.7-1.1-3.2-3-3.2c-1.6,0-2.8,1.4-3,3.2H832.3z"/>
		<path fill="#060E9F" d="M835.5,198.4L835.5,198.4c0-3.1,2.2-4.9,4.4-4.9c1.7,0,2.8,0.9,3.6,2v-5.6h1.4V203h-1.4v-1.9
			c-0.8,1.1-1.9,2.1-3.6,2.1C837.8,203.2,835.5,201.4,835.5,198.4z M843.6,198.4L843.6,198.4c0-2.2-1.6-3.6-3.4-3.6
			c-1.8,0-3.3,1.3-3.3,3.6v0c0,2.2,1.5,3.6,3.3,3.6C842,202,843.6,200.5,843.6,198.4z"/>
	</g>
	<g enable-background="new    ">
		<path fill="#060E9F" d="M122.1,428.3h6.5c1.7,0,3,0.5,3.8,1.3c0.6,0.6,1,1.4,1,2.4v0c0,1.7-1,2.7-2.1,3.2c1.7,0.6,2.9,1.6,2.9,3.5
			v0c0,2.6-2.1,4-5.4,4h-6.7V428.3z M130.9,432.5c0-1.1-0.9-1.8-2.6-1.8h-3.7v3.9h3.5C129.8,434.5,130.9,433.8,130.9,432.5
			L130.9,432.5z M128.7,436.6h-4v4h4.2c1.7,0,2.8-0.7,2.8-2v0C131.7,437.3,130.7,436.6,128.7,436.6z"/>
		<path fill="#060E9F" d="M136.1,439.7L136.1,439.7c0-2.4,1.8-3.6,4.5-3.6c1.2,0,2.1,0.2,2.9,0.5v-0.3c0-1.6-1-2.4-2.7-2.4
			c-1.2,0-2.1,0.3-3.1,0.7l-0.7-2c1.2-0.5,2.4-0.9,4.1-0.9c1.6,0,2.9,0.4,3.6,1.2c0.8,0.8,1.2,1.9,1.2,3.4v6.5h-2.4v-1.4
			c-0.7,0.9-1.9,1.6-3.6,1.6C137.9,443.1,136.1,441.9,136.1,439.7z M143.6,438.9v-0.7c-0.6-0.2-1.5-0.4-2.5-0.4
			c-1.6,0-2.6,0.7-2.6,1.8v0c0,1.1,0.9,1.7,2.1,1.7C142.3,441.3,143.6,440.3,143.6,438.9z"/>
		<path fill="#060E9F" d="M148.1,441.4l1.1-1.7c1.2,0.9,2.5,1.3,3.6,1.3c1.1,0,1.7-0.5,1.7-1.2v0c0-0.9-1.2-1.1-2.4-1.5
			c-1.6-0.5-3.4-1.1-3.4-3.2v0c0-2.1,1.7-3.3,3.9-3.3c1.4,0,2.9,0.5,4,1.2l-1,1.8c-1.1-0.6-2.2-1-3.1-1c-1,0-1.5,0.5-1.5,1.1v0
			c0,0.8,1.2,1.1,2.5,1.6c1.6,0.5,3.4,1.2,3.4,3.2v0c0,2.3-1.8,3.4-4.1,3.4C151.2,443.1,149.5,442.5,148.1,441.4z"/>
		<path fill="#060E9F" d="M158.8,437.4L158.8,437.4c0-3.2,2.2-5.7,5.4-5.7c3.5,0,5.2,2.7,5.2,5.9c0,0.2,0,0.5,0,0.7h-8
			c0.3,1.8,1.5,2.8,3.2,2.8c1.2,0,2.1-0.5,3-1.3l1.5,1.3c-1,1.2-2.5,2.1-4.5,2.1C161.2,443.1,158.8,440.8,158.8,437.4z M166.9,436.6
			c-0.2-1.6-1.1-2.9-2.8-2.9c-1.5,0-2.6,1.2-2.8,2.9H166.9z"/>
	</g>
	<line fill="none" stroke="#060E9F" stroke-width="0.5907" x1="203.4" y1="419.6" x2="203.4" y2="428.5"/>
	<g enable-background="new    ">
		<path fill="#060E9F" d="M265.6,430.8l-2.6,0.7l-0.5-2.1l3.9-1.2h1.8v14.6h-2.5V430.8z"/>
	</g>
	<line fill="none" stroke="#060E9F" stroke-width="0.5907" x1="330.3" y1="419.6" x2="330.3" y2="428.5"/>
	<g enable-background="new    ">
		<path fill="#060E9F" d="M389.9,440.9l5-4.3c2-1.7,2.7-2.6,2.7-3.9c0-1.4-1-2.3-2.3-2.3s-2.2,0.7-3.3,2.2l-1.8-1.4
			c1.4-1.9,2.8-3,5.4-3c2.8,0,4.8,1.7,4.8,4.3v0c0,2.3-1.2,3.5-3.8,5.6l-3,2.5h6.9v2.2h-10.5V440.9z"/>
	</g>
	<line fill="none" stroke="#060E9F" stroke-width="0.5907" x1="457.4" y1="419.6" x2="457.4" y2="428.5"/>
	<g enable-background="new    ">
		<path fill="#060E9F" d="M524.4,439.6h-7.3l-0.5-1.8l8.1-9.5h2.2v9.3h2.1v2.1h-2.1v3.3h-2.4V439.6z M524.4,437.5v-5.7l-4.8,5.7
			H524.4z"/>
	</g>
	<line fill="none" stroke="#060E9F" stroke-width="0.5907" x1="584.5" y1="419.6" x2="584.5" y2="428.5"/>
	<g enable-background="new    ">
		<path fill="#060E9F" d="M643.9,438.9L643.9,438.9c0-1.8,1-2.9,2.6-3.6c-1.2-0.6-2.1-1.6-2.1-3.2v0c0-2.2,2.1-3.9,5-3.9
			s5,1.7,5,3.9v0c0,1.6-0.9,2.6-2.1,3.2c1.6,0.7,2.6,1.8,2.6,3.5v0c0,2.6-2.4,4.2-5.5,4.2S643.9,441.4,643.9,438.9z M652.5,438.8
			L652.5,438.8c0-1.4-1.3-2.2-3-2.2c-1.7,0-3,0.9-3,2.2v0c0,1.2,1.1,2.2,3,2.2C651.4,440.9,652.5,440,652.5,438.8z M652,432.4
			L652,432.4c0-1.2-1-2.1-2.6-2.1s-2.6,0.9-2.6,2v0c0,1.3,1.1,2.2,2.6,2.2S652,433.6,652,432.4z"/>
	</g>
	<g enable-background="new    ">
		<path fill="#060E9F" d="M722.3,427.7h2.5v5.9c0.7-1,1.7-1.9,3.4-1.9c2.5,0,3.9,1.7,3.9,4.2v7h-2.5v-6.2c0-1.7-0.9-2.7-2.3-2.7
			c-1.5,0-2.5,1-2.5,2.7v6.2h-2.5V427.7z"/>
		<path fill="#060E9F" d="M734.6,437.5L734.6,437.5c0-3.2,2.5-5.8,5.8-5.8s5.8,2.5,5.8,5.7v0c0,3.1-2.5,5.7-5.9,5.7
			C737,443.1,734.6,440.6,734.6,437.5z M743.7,437.5L743.7,437.5c0-2-1.4-3.6-3.4-3.6c-2,0-3.3,1.6-3.3,3.5v0c0,1.9,1.4,3.5,3.3,3.5
			C742.5,440.9,743.7,439.3,743.7,437.5z"/>
		<path fill="#060E9F" d="M748.7,438.9v-7h2.5v6.2c0,1.7,0.8,2.7,2.3,2.7c1.5,0,2.5-1,2.5-2.7v-6.2h2.5v10.9H756v-1.7
			c-0.7,1-1.7,1.9-3.4,1.9C750.1,443.1,748.7,441.4,748.7,438.9z"/>
		<path fill="#060E9F" d="M761.7,431.9h2.5v2.5c0.7-1.6,1.9-2.8,3.9-2.7v2.7h-0.1c-2.2,0-3.7,1.4-3.7,4.3v4.2h-2.5V431.9z"/>
		<path fill="#060E9F" d="M769.3,441.4l1.1-1.7c1.2,0.9,2.5,1.3,3.6,1.3c1.1,0,1.7-0.5,1.7-1.2v0c0-0.9-1.2-1.1-2.4-1.5
			c-1.6-0.5-3.4-1.1-3.4-3.2v0c0-2.1,1.7-3.3,3.9-3.3c1.4,0,2.9,0.5,4,1.2l-1,1.8c-1.1-0.6-2.2-1-3.1-1c-1,0-1.5,0.5-1.5,1.1v0
			c0,0.8,1.2,1.1,2.5,1.6c1.6,0.5,3.4,1.2,3.4,3.2v0c0,2.3-1.8,3.4-4.1,3.4C772.4,443.1,770.7,442.5,769.3,441.4z"/>
	</g>
	<line fill="none" stroke="#060E9F" stroke-width="0.5907" x1="711.3" y1="419.6" x2="711.3" y2="428.5"/>
	
		<line fill="none" stroke="#060E9F" stroke-width="0.3548" stroke-dasharray="9.4476,7.086" x1="76.3" y1="329" x2="711.3" y2="329"/>
	<line fill="none" stroke="#060E9F" stroke-width="0.5907" x1="711.3" y1="419.8" x2="76.3" y2="419.8"/>
	<line fill="none" stroke="#060E9F" stroke-width="0.5907" x1="76.1" y1="82.6" x2="76.1" y2="419.8"/>
	<g enable-background="new    ">
		<path fill="#060E9F" d="M46.9,417.2L46.9,417.2c0-4.2,2.5-7.5,6.3-7.5c3.8,0,6.3,3.3,6.3,7.5v0c0,4.1-2.5,7.5-6.3,7.5
			S46.9,421.3,46.9,417.2z M57,417.2L57,417.2c0-2.9-1.5-5.2-3.7-5.2c-2.2,0-3.7,2.3-3.7,5.2v0c0,2.9,1.5,5.2,3.7,5.2
			S57,420,57,417.2z"/>
	</g>
	<g enable-background="new    ">
		<path fill="#060E9F" d="M40.7,332.3l5-4.3c2-1.7,2.7-2.6,2.7-3.9c0-1.4-1-2.3-2.3-2.3s-2.2,0.7-3.3,2.2l-1.8-1.4
			c1.4-1.9,2.8-3,5.4-3c2.8,0,4.8,1.7,4.8,4.3v0c0,2.3-1.2,3.5-3.8,5.6l-3,2.5h6.9v2.2H40.7V332.3z"/>
		<path fill="#060E9F" d="M53.4,332.4l1.6-1.8c1.2,1.1,2.4,1.7,3.7,1.7c1.7,0,2.9-1,2.9-2.5v0c0-1.5-1.2-2.4-3-2.4
			c-1,0-1.9,0.3-2.7,0.6l-1.5-1l0.4-7.1h8.7v2.3h-6.5l-0.2,3.4c0.7-0.2,1.3-0.4,2.3-0.4c2.8,0,5.1,1.5,5.1,4.6v0
			c0,3-2.2,4.9-5.4,4.9C56.5,334.6,54.7,333.7,53.4,332.4z"/>
	</g>
	
		<line fill="none" stroke="#060E9F" stroke-width="0.3548" stroke-dasharray="9.4476,7.086" x1="76.3" y1="238.5" x2="711.3" y2="238.5"/>
	<g enable-background="new    ">
		<path fill="#060E9F" d="M40.6,241.5l1.8-1.7c1,1.2,2.2,1.9,3.8,1.9c1.4,0,2.5-0.9,2.5-2.2v0c0-1.4-1.3-2.2-3.3-2.2h-1.2l-0.4-1.6
			l3.9-4.2h-6.3v-2.2H51v1.9l-4,4.1c2.2,0.3,4.3,1.4,4.3,4.1v0c0,2.7-2.1,4.6-5.1,4.6C43.6,244,41.8,243,40.6,241.5z"/>
		<path fill="#060E9F" d="M53.7,236.6L53.7,236.6c0-4.2,2.5-7.5,6.3-7.5c3.8,0,6.3,3.3,6.3,7.5v0c0,4.1-2.5,7.5-6.3,7.5
			S53.7,240.7,53.7,236.6z M63.7,236.6L63.7,236.6c0-2.9-1.5-5.2-3.7-5.2c-2.2,0-3.7,2.3-3.7,5.2v0c0,2.9,1.5,5.2,3.7,5.2
			S63.7,239.4,63.7,236.6z"/>
	</g>
	
		<line fill="none" stroke="#060E9F" stroke-width="0.3548" stroke-dasharray="9.4476,7.086" x1="76.3" y1="147.9" x2="711.3" y2="147.9"/>
	<g enable-background="new    ">
		<path fill="#060E9F" d="M40.6,150.9l1.8-1.7c1,1.2,2.2,1.9,3.8,1.9c1.4,0,2.5-0.9,2.5-2.2v0c0-1.4-1.3-2.2-3.3-2.2h-1.2l-0.4-1.6
			l3.9-4.2h-6.3v-2.2H51v1.9l-4,4.1c2.2,0.3,4.3,1.4,4.3,4.1v0c0,2.7-2.1,4.6-5.1,4.6C43.6,153.4,41.8,152.4,40.6,150.9z"/>
		<path fill="#060E9F" d="M53.4,151.2l1.6-1.8c1.2,1.1,2.4,1.7,3.7,1.7c1.7,0,2.9-1,2.9-2.5v0c0-1.5-1.2-2.4-3-2.4
			c-1,0-1.9,0.3-2.7,0.6l-1.5-1l0.4-7.1h8.7v2.3h-6.5l-0.2,3.4c0.7-0.2,1.3-0.4,2.3-0.4c2.8,0,5.1,1.5,5.1,4.6v0
			c0,3-2.2,4.9-5.4,4.9C56.5,153.4,54.7,152.6,53.4,151.2z"/>
	</g>
	<polyline fill="none" stroke="#060E9F" stroke-width="1.1993" points="786.7,56 4,56 4,109.2 	"/>
	<g enable-background="new    ">
		<path fill="#82BC00" d="M2.9,524.6h1.6l3.8,11.1l3.6-11.1h1.2l3.6,11.1l3.8-11.1h1.6L17.4,538h-1.3l-3.6-10.8L8.9,538H7.6
			L2.9,524.6z"/>
		<path fill="#82BC00" d="M24.4,524.3h1.7v1.6h-1.7V524.3z M24.5,528.1H26v9.8h-1.5V528.1z"/>
		<path fill="#82BC00" d="M29.9,535.3v-5.9h-1.4v-1.3h1.4v-3h1.5v3h3.1v1.3h-3.1v5.7c0,1.2,0.7,1.6,1.7,1.6c0.5,0,0.9-0.1,1.4-0.3
			v1.3c-0.5,0.3-1.1,0.4-1.8,0.4C31.1,538.1,29.9,537.3,29.9,535.3z"/>
		<path fill="#82BC00" d="M37.1,524h1.5v5.8c0.6-1.1,1.7-1.9,3.4-1.9c2.4,0,3.8,1.6,3.8,3.9v6.1h-1.5v-5.7c0-1.8-1-3-2.7-3
			c-1.7,0-2.9,1.2-2.9,3.1v5.6h-1.5V524z"/>
		<path fill="#82BC00" d="M54.7,524.6h4.6c4.2,0,7.1,2.9,7.1,6.6v0c0,3.7-2.9,6.6-7.1,6.6h-4.6V524.6z M56.2,526v10.5h3.1
			c3.4,0,5.5-2.3,5.5-5.2v0c0-2.9-2.1-5.3-5.5-5.3H56.2z"/>
		<path fill="#82BC00" d="M68.6,535L68.6,535c0-2.1,1.7-3.2,4.2-3.2c1.3,0,2.1,0.2,3,0.4v-0.3c0-1.8-1.1-2.7-2.9-2.7
			c-1.2,0-2.1,0.3-3,0.7l-0.4-1.2c1.1-0.5,2.1-0.8,3.6-0.8c1.4,0,2.5,0.4,3.2,1.1c0.7,0.7,1,1.6,1,2.9v6h-1.4v-1.5
			c-0.7,0.9-1.8,1.7-3.6,1.7C70.4,538.1,68.6,537.1,68.6,535z M75.8,534.3v-1c-0.7-0.2-1.7-0.4-2.9-0.4c-1.8,0-2.9,0.8-2.9,2v0
			c0,1.2,1.1,2,2.5,2C74.3,536.9,75.8,535.8,75.8,534.3z"/>
		<path fill="#82BC00" d="M80.4,524.3H82v1.6h-1.7V524.3z M80.4,528.1h1.5v9.8h-1.5V528.1z"/>
		<path fill="#82BC00" d="M85.4,524h1.5v13.9h-1.5V524z"/>
		<path fill="#82BC00" d="M97.7,528.1h1.6l-4.1,10.1c-0.8,2-1.8,2.8-3.3,2.8c-0.8,0-1.4-0.2-2.1-0.5l0.5-1.2
			c0.5,0.2,0.9,0.4,1.5,0.4c0.9,0,1.4-0.5,2-1.8l-4.5-9.8h1.6l3.6,8.2L97.7,528.1z"/>
		<path fill="#82BC00" d="M107.5,524.6h9.6v1.4H109v4.7h7.2v1.4H109v5.8h-1.5V524.6z"/>
		<path fill="#82BC00" d="M118.5,535L118.5,535c0-2.1,1.7-3.2,4.2-3.2c1.3,0,2.1,0.2,3,0.4v-0.3c0-1.8-1.1-2.7-2.9-2.7
			c-1.2,0-2.1,0.3-3,0.7l-0.4-1.2c1.1-0.5,2.1-0.8,3.6-0.8c1.4,0,2.5,0.4,3.2,1.1c0.7,0.7,1,1.6,1,2.9v6h-1.4v-1.5
			c-0.7,0.9-1.8,1.7-3.6,1.7C120.3,538.1,118.5,537.1,118.5,535z M125.7,534.3v-1c-0.7-0.2-1.7-0.4-2.9-0.4c-1.8,0-2.9,0.8-2.9,2v0
			c0,1.2,1.1,2,2.5,2C124.2,536.9,125.7,535.8,125.7,534.3z"/>
		<path fill="#82BC00" d="M129.6,533L129.6,533c0-2.8,2.2-5.2,5-5.2c1.9,0,3,0.8,3.9,1.7l-1,1c-0.8-0.8-1.7-1.5-3-1.5
			c-2,0-3.5,1.7-3.5,3.8v0c0,2.1,1.6,3.8,3.6,3.8c1.3,0,2.2-0.6,3-1.5l0.9,0.9c-1,1.1-2.2,1.9-4,1.9
			C131.8,538.1,129.6,535.8,129.6,533z"/>
		<path fill="#82BC00" d="M141.1,524.3h1.7v1.6h-1.7V524.3z M141.2,528.1h1.5v9.8h-1.5V528.1z"/>
		<path fill="#82BC00" d="M145.3,535L145.3,535c0-2.1,1.7-3.2,4.2-3.2c1.3,0,2.1,0.2,3,0.4v-0.3c0-1.8-1.1-2.7-2.9-2.7
			c-1.2,0-2.1,0.3-3,0.7l-0.4-1.2c1.1-0.5,2.1-0.8,3.6-0.8c1.4,0,2.5,0.4,3.2,1.1c0.7,0.7,1,1.6,1,2.9v6h-1.4v-1.5
			c-0.7,0.9-1.8,1.7-3.6,1.7C147.2,538.1,145.3,537.1,145.3,535z M152.6,534.3v-1c-0.7-0.2-1.7-0.4-2.9-0.4c-1.8,0-2.9,0.8-2.9,2v0
			c0,1.2,1.1,2,2.5,2C151.1,536.9,152.6,535.8,152.6,534.3z"/>
		<path fill="#82BC00" d="M157.2,524h1.5v13.9h-1.5V524z"/>
		<path fill="#82BC00" d="M168,524.6h1.5l4.8,7.3l4.8-7.3h1.5v13.3h-1.5v-10.8l-4.8,7.1h-0.1l-4.8-7.1v10.8H168V524.6z"/>
		<path fill="#82BC00" d="M183.7,533L183.7,533c0-2.8,2.2-5.2,5.1-5.2c2.9,0,5.1,2.3,5.1,5.1v0c0,2.8-2.2,5.1-5.1,5.1
			C185.8,538.1,183.7,535.8,183.7,533z M192.4,533L192.4,533c0-2.1-1.6-3.9-3.6-3.9c-2.1,0-3.6,1.7-3.6,3.8v0c0,2.1,1.6,3.8,3.6,3.8
			C190.9,536.8,192.4,535.1,192.4,533z"/>
		<path fill="#82BC00" d="M196.6,524.3h1.7v1.6h-1.7V524.3z M196.7,528.1h1.5v9.8h-1.5V528.1z"/>
		<path fill="#82BC00" d="M200.7,536.6l0.7-1c1.1,0.8,2.2,1.3,3.4,1.3c1.2,0,2-0.6,2-1.6v0c0-1-1.2-1.4-2.5-1.7
			c-1.5-0.4-3.2-1-3.2-2.8v0c0-1.7,1.4-2.8,3.3-2.8c1.2,0,2.5,0.4,3.5,1.1l-0.7,1.1c-0.9-0.6-2-1-2.9-1c-1.2,0-1.9,0.6-1.9,1.4v0
			c0,0.9,1.2,1.3,2.5,1.7c1.5,0.5,3.2,1,3.2,2.8v0c0,1.9-1.5,2.9-3.5,2.9C203.4,538.1,201.8,537.5,200.7,536.6z"/>
		<path fill="#82BC00" d="M211.3,535.3v-5.9H210v-1.3h1.4v-3h1.5v3h3.1v1.3h-3.1v5.7c0,1.2,0.7,1.6,1.7,1.6c0.5,0,0.9-0.1,1.4-0.3
			v1.3c-0.5,0.3-1.1,0.4-1.8,0.4C212.5,538.1,211.3,537.3,211.3,535.3z"/>
		<path fill="#82BC00" d="M218.3,534.2v-6.1h1.5v5.7c0,1.8,1,3,2.7,3c1.7,0,2.9-1.2,2.9-3.1v-5.6h1.4v9.8h-1.4v-1.7
			c-0.7,1.1-1.7,1.9-3.4,1.9C219.7,538.1,218.3,536.5,218.3,534.2z"/>
		<path fill="#82BC00" d="M230.2,528.1h1.5v2.6c0.7-1.6,2.1-2.8,4-2.7v1.6h-0.1c-2.1,0-3.9,1.5-3.9,4.5v3.9h-1.5V528.1z"/>
		<path fill="#82BC00" d="M237.9,524.3h1.7v1.6h-1.7V524.3z M238,528.1h1.5v9.8H238V528.1z"/>
		<path fill="#82BC00" d="M242.3,537l6.5-7.7h-6.3v-1.2h8.3v0.9l-6.5,7.7h6.5v1.2h-8.5V537z"/>
		<path fill="#82BC00" d="M252.5,533L252.5,533c0-2.9,2-5.1,4.7-5.1c2.9,0,4.6,2.3,4.6,5.2c0,0.2,0,0.3,0,0.5H254
			c0.2,2.1,1.7,3.3,3.5,3.3c1.3,0,2.3-0.6,3.1-1.4l0.9,0.8c-1,1.1-2.2,1.8-4,1.8C254.8,538.1,252.5,536.1,252.5,533z M260.4,532.4
			c-0.2-1.8-1.2-3.3-3.1-3.3c-1.7,0-3,1.4-3.2,3.3H260.4z"/>
		<path fill="#82BC00" d="M264.4,528.1h1.5v2.6c0.7-1.6,2.1-2.8,4-2.7v1.6h-0.1c-2.1,0-3.9,1.5-3.9,4.5v3.9h-1.5V528.1z"/>
		<path fill="#82BC00" d="M277.2,536l0.9-1.1c1.4,1.3,2.7,1.9,4.6,1.9c1.8,0,3-0.9,3-2.3v0c0-1.2-0.7-1.9-3.5-2.5
			c-3.1-0.7-4.5-1.7-4.5-3.8v0c0-2.1,1.8-3.6,4.4-3.6c1.9,0,3.3,0.6,4.7,1.6l-0.9,1.2c-1.2-1-2.5-1.4-3.8-1.4c-1.7,0-2.8,1-2.8,2.1
			v0c0,1.3,0.7,2,3.6,2.6c3,0.6,4.3,1.7,4.3,3.8v0c0,2.3-1.9,3.8-4.5,3.8C280.5,538.1,278.8,537.4,277.2,536z"/>
		<path fill="#82BC00" d="M290.2,524.6h5c3,0,5,1.6,5,4.2v0c0,2.9-2.4,4.4-5.2,4.4h-3.2v4.7h-1.5V524.6z M295,531.8
			c2.2,0,3.6-1.2,3.6-2.9v0c0-1.9-1.4-2.9-3.6-2.9h-3.4v5.9H295z"/>
		<path fill="#82BC00" d="M302.9,524.6h9.6v1.4h-8.1v4.7h7.2v1.4h-7.2v5.8h-1.5V524.6z"/>
		<path fill="#82BC00" d="M322.6,526.1l-2.5,0.8l-0.4-1.2l3.2-1.1h1.1v13.4h-1.5V526.1z"/>
		<path fill="#82BC00" d="M327,536l1-1.1c1.2,1.1,2.4,1.8,3.8,1.8c1.9,0,3.2-1.3,3.2-2.9v0c0-1.7-1.4-2.8-3.3-2.8
			c-1.1,0-2,0.3-2.8,0.8l-1-0.7l0.4-6.5h7.7v1.4h-6.3l-0.3,4.3c0.8-0.3,1.5-0.6,2.6-0.6c2.6,0,4.6,1.5,4.6,4.1v0
			c0,2.6-2,4.4-4.7,4.4C329.8,538.1,328.2,537.2,327,536z"/>
		<path fill="#82BC00" d="M338.5,539.5c0.9-0.3,1.3-0.8,1.3-1.7h-0.7v-2h1.7v1.7c0,1.5-0.7,2.3-2.1,2.6L338.5,539.5z"/>
		<path fill="#82BC00" d="M350.1,535.3v-5.9h-1.4v-1.3h1.4v-3h1.5v3h3.1v1.3h-3.1v5.7c0,1.2,0.7,1.6,1.7,1.6c0.5,0,0.9-0.1,1.4-0.3
			v1.3c-0.5,0.3-1.1,0.4-1.8,0.4C351.3,538.1,350.1,537.3,350.1,535.3z"/>
		<path fill="#82BC00" d="M357.3,524h1.5v5.8c0.6-1.1,1.7-1.9,3.4-1.9c2.4,0,3.8,1.6,3.8,3.9v6.1h-1.5v-5.7c0-1.8-1-3-2.7-3
			c-1.7,0-2.9,1.2-2.9,3.1v5.6h-1.5V524z"/>
		<path fill="#82BC00" d="M368.4,533L368.4,533c0-2.9,2-5.1,4.7-5.1c2.9,0,4.6,2.3,4.6,5.2c0,0.2,0,0.3,0,0.5h-7.8
			c0.2,2.1,1.7,3.3,3.5,3.3c1.3,0,2.3-0.6,3.1-1.4l0.9,0.8c-1,1.1-2.2,1.8-4,1.8C370.6,538.1,368.4,536.1,368.4,533z M376.2,532.4
			c-0.2-1.8-1.2-3.3-3.1-3.3c-1.7,0-3,1.4-3.2,3.3H376.2z"/>
		<path fill="#82BC00" d="M385.3,533L385.3,533c0-2.9,2-5.1,4.7-5.1c2.9,0,4.6,2.3,4.6,5.2c0,0.2,0,0.3,0,0.5h-7.8
			c0.2,2.1,1.7,3.3,3.5,3.3c1.3,0,2.3-0.6,3.1-1.4l0.9,0.8c-1,1.1-2.2,1.8-4,1.8C387.5,538.1,385.3,536.1,385.3,533z M393.1,532.4
			c-0.2-1.8-1.2-3.3-3.1-3.3c-1.7,0-3,1.4-3.2,3.3H393.1z"/>
		<path fill="#82BC00" d="M397.7,529.4h-1.3v-1.3h1.3v-0.9c0-1.1,0.3-2,0.9-2.5c0.5-0.5,1.2-0.8,2.1-0.8c0.7,0,1.1,0.1,1.6,0.2v1.3
			c-0.5-0.2-0.9-0.2-1.4-0.2c-1.1,0-1.7,0.7-1.7,2.1v0.8h3.1v1.3h-3.1v8.5h-1.5V529.4z M404.7,529.4h-1.3v-1.3h1.3v-0.9
			c0-1.1,0.3-2,0.8-2.5c0.5-0.5,1.2-0.8,2.1-0.8c0.7,0,1.2,0.1,1.6,0.2v1.3c-0.5-0.2-0.9-0.2-1.4-0.2c-1.2,0-1.7,0.7-1.7,2.1v0.8
			h3.1v1.3h-3.1v8.5h-1.4V529.4z"/>
		<path fill="#82BC00" d="M410.3,533L410.3,533c0-2.9,2-5.1,4.7-5.1c2.9,0,4.6,2.3,4.6,5.2c0,0.2,0,0.3,0,0.5h-7.8
			c0.2,2.1,1.7,3.3,3.5,3.3c1.3,0,2.3-0.6,3.1-1.4l0.9,0.8c-1,1.1-2.2,1.8-4,1.8C412.5,538.1,410.3,536.1,410.3,533z M418.1,532.4
			c-0.2-1.8-1.2-3.3-3.1-3.3c-1.7,0-3,1.4-3.2,3.3H418.1z"/>
		<path fill="#82BC00" d="M421.6,533L421.6,533c0-2.8,2.2-5.2,5-5.2c1.9,0,3,0.8,3.9,1.7l-1,1c-0.8-0.8-1.7-1.5-3-1.5
			c-2,0-3.5,1.7-3.5,3.8v0c0,2.1,1.6,3.8,3.6,3.8c1.3,0,2.2-0.6,3-1.5l0.9,0.9c-1,1.1-2.2,1.9-4,1.9
			C423.8,538.1,421.6,535.8,421.6,533z"/>
		<path fill="#82BC00" d="M433.6,535.3v-5.9h-1.4v-1.3h1.4v-3h1.5v3h3.1v1.3H435v5.7c0,1.2,0.7,1.6,1.7,1.6c0.5,0,0.9-0.1,1.4-0.3
			v1.3c-0.5,0.3-1.1,0.4-1.8,0.4C434.8,538.1,433.6,537.3,433.6,535.3z"/>
		<path fill="#82BC00" d="M439.9,536.6l0.7-1c1.1,0.8,2.2,1.3,3.4,1.3c1.2,0,2-0.6,2-1.6v0c0-1-1.2-1.4-2.5-1.7
			c-1.5-0.4-3.2-1-3.2-2.8v0c0-1.7,1.4-2.8,3.3-2.8c1.2,0,2.5,0.4,3.5,1.1l-0.7,1.1c-0.9-0.6-2-1-2.9-1c-1.2,0-1.9,0.6-1.9,1.4v0
			c0,0.9,1.2,1.3,2.5,1.7c1.5,0.5,3.2,1,3.2,2.8v0c0,1.9-1.5,2.9-3.5,2.9C442.6,538.1,441,537.5,439.9,536.6z"/>
		<path fill="#82BC00" d="M455.3,533L455.3,533c0-2.8,2.2-5.2,5.1-5.2c2.9,0,5.1,2.3,5.1,5.1v0c0,2.8-2.2,5.1-5.1,5.1
			C457.4,538.1,455.3,535.8,455.3,533z M464,533L464,533c0-2.1-1.6-3.9-3.6-3.9c-2.1,0-3.6,1.7-3.6,3.8v0c0,2.1,1.6,3.8,3.6,3.8
			C462.5,536.8,464,535.1,464,533z"/>
		<path fill="#82BC00" d="M468.7,529.4h-1.3v-1.3h1.3v-0.9c0-1.1,0.3-2,0.9-2.5c0.5-0.5,1.2-0.8,2.1-0.8c0.7,0,1.1,0.1,1.6,0.2v1.3
			c-0.5-0.2-0.9-0.2-1.4-0.2c-1.1,0-1.7,0.7-1.7,2.1v0.8h3.1v1.3h-3.1v8.5h-1.5V529.4z"/>
		<path fill="#82BC00" d="M480.8,528.1h1.5v1.7c0.6-1,1.5-1.9,3.2-1.9c1.6,0,2.6,0.9,3.2,2c0.7-1.1,1.7-2,3.5-2c2.3,0,3.6,1.5,3.6,4
			v6.1h-1.5v-5.7c0-1.9-1-3-2.5-3c-1.5,0-2.7,1.1-2.7,3v5.7h-1.5v-5.8c0-1.8-1-2.9-2.5-2.9c-1.6,0-2.7,1.3-2.7,3.1v5.6h-1.5V528.1z"
			/>
		<path fill="#82BC00" d="M498.3,533L498.3,533c0-2.8,2.2-5.2,5.1-5.2c2.9,0,5.1,2.3,5.1,5.1v0c0,2.8-2.2,5.1-5.1,5.1
			C500.4,538.1,498.3,535.8,498.3,533z M507,533L507,533c0-2.1-1.6-3.9-3.6-3.9c-2.1,0-3.6,1.7-3.6,3.8v0c0,2.1,1.6,3.8,3.6,3.8
			C505.5,536.8,507,535.1,507,533z"/>
		<path fill="#82BC00" d="M511.2,524.3h1.7v1.6h-1.7V524.3z M511.3,528.1h1.5v9.8h-1.5V528.1z"/>
		<path fill="#82BC00" d="M515.4,536.6l0.7-1c1.1,0.8,2.2,1.3,3.4,1.3c1.2,0,2-0.6,2-1.6v0c0-1-1.2-1.4-2.5-1.7
			c-1.5-0.4-3.2-1-3.2-2.8v0c0-1.7,1.4-2.8,3.3-2.8c1.2,0,2.5,0.4,3.5,1.1l-0.7,1.1c-0.9-0.6-2-1-2.9-1c-1.2,0-1.9,0.6-1.9,1.4v0
			c0,0.9,1.2,1.3,2.5,1.7c1.5,0.5,3.2,1,3.2,2.8v0c0,1.9-1.5,2.9-3.5,2.9C518,538.1,516.5,537.5,515.4,536.6z"/>
		<path fill="#82BC00" d="M526,535.3v-5.9h-1.4v-1.3h1.4v-3h1.5v3h3.1v1.3h-3.1v5.7c0,1.2,0.7,1.6,1.7,1.6c0.5,0,0.9-0.1,1.4-0.3
			v1.3c-0.5,0.3-1.1,0.4-1.8,0.4C527.2,538.1,526,537.3,526,535.3z"/>
		<path fill="#82BC00" d="M533,534.2v-6.1h1.5v5.7c0,1.8,1,3,2.7,3c1.7,0,2.9-1.2,2.9-3.1v-5.6h1.4v9.8h-1.4v-1.7
			c-0.7,1.1-1.7,1.9-3.4,1.9C534.4,538.1,533,536.5,533,534.2z"/>
		<path fill="#82BC00" d="M544.8,528.1h1.5v2.6c0.7-1.6,2.1-2.8,4-2.7v1.6h-0.1c-2.1,0-3.9,1.5-3.9,4.5v3.9h-1.5V528.1z"/>
		<path fill="#82BC00" d="M552.6,524.3h1.7v1.6h-1.7V524.3z M552.6,528.1h1.5v9.8h-1.5V528.1z"/>
		<path fill="#82BC00" d="M556.9,537l6.5-7.7h-6.3v-1.2h8.3v0.9l-6.5,7.7h6.5v1.2h-8.5V537z"/>
		<path fill="#82BC00" d="M568.1,524.3h1.7v1.6h-1.7V524.3z M568.2,528.1h1.5v9.8h-1.5V528.1z"/>
		<path fill="#82BC00" d="M573.1,528.1h1.5v1.7c0.6-1.1,1.7-1.9,3.4-1.9c2.4,0,3.8,1.6,3.8,3.9v6.1h-1.5v-5.7c0-1.8-1-3-2.7-3
			c-1.7,0-2.9,1.2-2.9,3.1v5.6h-1.5V528.1z"/>
		<path fill="#82BC00" d="M584.7,539.6l0.7-1.1c1.1,0.8,2.4,1.3,3.8,1.3c2.2,0,3.6-1.2,3.6-3.5v-1.2c-0.9,1.1-2.1,2.1-3.9,2.1
			c-2.4,0-4.6-1.8-4.6-4.6v0c0-2.9,2.3-4.6,4.6-4.6c1.8,0,3,0.9,3.8,2v-1.8h1.5v8.1c0,1.5-0.5,2.7-1.3,3.5c-0.9,0.9-2.2,1.3-3.7,1.3
			C587.5,541,586,540.5,584.7,539.6z M592.7,532.5L592.7,532.5c0-2.1-1.7-3.4-3.6-3.4c-1.9,0-3.4,1.3-3.4,3.3v0c0,2,1.6,3.3,3.4,3.3
			C591,535.8,592.7,534.5,592.7,532.5z"/>
		<path fill="#82BC00" d="M602.3,528.1h1.6l2.6,7.9l2.6-7.9h1.2l2.7,7.9l2.6-7.9h1.5l-3.5,9.9h-1.3l-2.6-7.8L607,538h-1.3
			L602.3,528.1z"/>
		<path fill="#82BC00" d="M618.4,533L618.4,533c0-2.9,2-5.1,4.7-5.1c2.9,0,4.6,2.3,4.6,5.2c0,0.2,0,0.3,0,0.5h-7.8
			c0.2,2.1,1.7,3.3,3.5,3.3c1.3,0,2.3-0.6,3.1-1.4l0.9,0.8c-1,1.1-2.2,1.8-4,1.8C620.6,538.1,618.4,536.1,618.4,533z M626.2,532.4
			c-0.2-1.8-1.2-3.3-3.1-3.3c-1.7,0-3,1.4-3.2,3.3H626.2z"/>
		<path fill="#82BC00" d="M630.2,528.1h1.5v2.6c0.7-1.6,2.1-2.8,4-2.7v1.6h-0.1c-2.1,0-3.9,1.5-3.9,4.5v3.9h-1.5V528.1z"/>
		<path fill="#82BC00" d="M636.9,533L636.9,533c0-2.9,2-5.1,4.7-5.1c2.9,0,4.6,2.3,4.6,5.2c0,0.2,0,0.3,0,0.5h-7.8
			c0.2,2.1,1.7,3.3,3.5,3.3c1.3,0,2.3-0.6,3.1-1.4l0.9,0.8c-1,1.1-2.2,1.8-4,1.8C639.1,538.1,636.9,536.1,636.9,533z M644.7,532.4
			c-0.2-1.8-1.2-3.3-3.1-3.3c-1.7,0-3,1.4-3.2,3.3H644.7z"/>
		<path fill="#82BC00" d="M654.4,528.1h1.5v1.7c0.6-1,1.5-1.9,3.2-1.9c1.6,0,2.6,0.9,3.2,2c0.7-1.1,1.7-2,3.5-2c2.3,0,3.6,1.5,3.6,4
			v6.1h-1.5v-5.7c0-1.9-0.9-3-2.5-3c-1.5,0-2.7,1.1-2.7,3v5.7h-1.5v-5.8c0-1.8-1-2.9-2.5-2.9s-2.7,1.3-2.7,3.1v5.6h-1.5V528.1z"/>
		<path fill="#82BC00" d="M671.8,535L671.8,535c0-2.1,1.7-3.2,4.2-3.2c1.3,0,2.1,0.2,3,0.4v-0.3c0-1.8-1.1-2.7-2.9-2.7
			c-1.2,0-2.1,0.3-3,0.7l-0.4-1.2c1.1-0.5,2.1-0.8,3.6-0.8c1.4,0,2.5,0.4,3.2,1.1c0.7,0.7,1,1.6,1,2.9v6H679v-1.5
			c-0.7,0.9-1.8,1.7-3.6,1.7C673.6,538.1,671.8,537.1,671.8,535z M679,534.3v-1c-0.7-0.2-1.7-0.4-2.9-0.4c-1.8,0-2.9,0.8-2.9,2v0
			c0,1.2,1.1,2,2.5,2C677.5,536.9,679,535.8,679,534.3z"/>
		<path fill="#82BC00" d="M683.6,524.3h1.7v1.6h-1.7V524.3z M683.7,528.1h1.5v9.8h-1.5V528.1z"/>
		<path fill="#82BC00" d="M688.5,528.1h1.5v1.7c0.6-1.1,1.7-1.9,3.4-1.9c2.4,0,3.8,1.6,3.8,3.9v6.1h-1.5v-5.7c0-1.8-1-3-2.7-3
			c-1.7,0-2.9,1.2-2.9,3.1v5.6h-1.5V528.1z"/>
		<path fill="#82BC00" d="M700.7,535.3v-5.9h-1.4v-1.3h1.4v-3h1.5v3h3.1v1.3h-3.1v5.7c0,1.2,0.7,1.6,1.7,1.6c0.5,0,0.9-0.1,1.4-0.3
			v1.3c-0.5,0.3-1.1,0.4-1.8,0.4C701.9,538.1,700.7,537.3,700.7,535.3z"/>
		<path fill="#82BC00" d="M707.2,535L707.2,535c0-2.1,1.7-3.2,4.2-3.2c1.3,0,2.1,0.2,3,0.4v-0.3c0-1.8-1.1-2.7-2.9-2.7
			c-1.2,0-2.1,0.3-3,0.7l-0.4-1.2c1.1-0.5,2.1-0.8,3.6-0.8c1.4,0,2.5,0.4,3.2,1.1c0.7,0.7,1,1.6,1,2.9v6h-1.4v-1.5
			c-0.7,0.9-1.8,1.7-3.6,1.7C709,538.1,707.2,537.1,707.2,535z M714.4,534.3v-1c-0.7-0.2-1.7-0.4-2.9-0.4c-1.8,0-2.9,0.8-2.9,2v0
			c0,1.2,1.1,2,2.5,2C712.9,536.9,714.4,535.8,714.4,534.3z"/>
		<path fill="#82BC00" d="M718.9,524.3h1.7v1.6h-1.7V524.3z M719,528.1h1.5v9.8H719V528.1z"/>
		<path fill="#82BC00" d="M723.9,528.1h1.5v1.7c0.6-1.1,1.7-1.9,3.4-1.9c2.4,0,3.8,1.6,3.8,3.9v6.1H731v-5.7c0-1.8-1-3-2.7-3
			c-1.7,0-2.9,1.2-2.9,3.1v5.6h-1.5V528.1z"/>
		<path fill="#82BC00" d="M735,533L735,533c0-2.9,2-5.1,4.7-5.1c2.9,0,4.6,2.3,4.6,5.2c0,0.2,0,0.3,0,0.5h-7.8
			c0.2,2.1,1.7,3.3,3.5,3.3c1.3,0,2.3-0.6,3.1-1.4l0.9,0.8c-1,1.1-2.2,1.8-4,1.8C737.2,538.1,735,536.1,735,533z M742.8,532.4
			c-0.2-1.8-1.2-3.3-3.1-3.3c-1.7,0-3,1.4-3.2,3.3H742.8z"/>
		<path fill="#82BC00" d="M746.3,533L746.3,533c0-3.2,2.3-5.1,4.7-5.1c1.8,0,3,1,3.8,2.1V524h1.5v13.9h-1.5v-2
			c-0.8,1.2-2,2.2-3.8,2.2C748.6,538.1,746.3,536.2,746.3,533z M754.8,533L754.8,533c0-2.3-1.7-3.8-3.6-3.8c-1.9,0-3.5,1.4-3.5,3.8
			v0c0,2.3,1.6,3.8,3.5,3.8C753.1,536.8,754.8,535.3,754.8,533z"/>
		<path fill="#82BC00" d="M764.6,533L764.6,533c0-2.8,2.2-5.2,5.1-5.2c2.9,0,5.1,2.3,5.1,5.1v0c0,2.8-2.2,5.1-5.1,5.1
			C766.7,538.1,764.6,535.8,764.6,533z M773.3,533L773.3,533c0-2.1-1.6-3.9-3.6-3.9c-2.1,0-3.6,1.7-3.6,3.8v0c0,2.1,1.6,3.8,3.6,3.8
			C771.8,536.8,773.3,535.1,773.3,533z"/>
		<path fill="#82BC00" d="M775.9,528.1h1.6l3.3,8.1l3.3-8.1h1.6l-4.3,9.9h-1.3L775.9,528.1z"/>
		<path fill="#82BC00" d="M786.8,533L786.8,533c0-2.9,2-5.1,4.7-5.1c2.9,0,4.6,2.3,4.6,5.2c0,0.2,0,0.3,0,0.5h-7.8
			c0.2,2.1,1.7,3.3,3.5,3.3c1.3,0,2.3-0.6,3.1-1.4l0.9,0.8c-1,1.1-2.2,1.8-4,1.8C789,538.1,786.8,536.1,786.8,533z M794.6,532.4
			c-0.2-1.8-1.2-3.3-3.1-3.3c-1.7,0-3,1.4-3.2,3.3H794.6z"/>
		<path fill="#82BC00" d="M798.7,528.1h1.5v2.6c0.7-1.6,2.1-2.8,4-2.7v1.6h-0.1c-2.1,0-3.9,1.5-3.9,4.5v3.9h-1.5V528.1z"/>
		<path fill="#82BC00" d="M811.4,534.3L811.4,534.3c0-1.6,1.1-2.7,2.7-3.3c-1.2-0.6-2.3-1.5-2.3-3.1v0c0-2.1,2.1-3.5,4.5-3.5
			s4.5,1.5,4.5,3.5v0c0,1.5-1,2.5-2.3,3.1c1.6,0.6,2.7,1.7,2.7,3.2v0c0,2.3-2.2,3.8-5,3.8C813.6,538.1,811.4,536.5,811.4,534.3z
			 M819.9,534.3L819.9,534.3c0-1.5-1.5-2.6-3.5-2.6s-3.5,1-3.5,2.5v0c0,1.3,1.3,2.5,3.5,2.5S819.9,535.6,819.9,534.3z M819.5,528.1
			L819.5,528.1c0-1.3-1.3-2.3-3-2.3s-3,1-3,2.3v0c0,1.4,1.3,2.4,3,2.4C818.1,530.5,819.5,529.5,819.5,528.1z"/>
		<path fill="#82BC00" d="M829.8,524h1.5v5.8c0.6-1.1,1.7-1.9,3.4-1.9c2.4,0,3.8,1.6,3.8,3.9v6.1h-1.5v-5.7c0-1.8-1-3-2.7-3
			c-1.7,0-2.9,1.2-2.9,3.1v5.6h-1.5V524z"/>
		<path fill="#82BC00" d="M840.9,533L840.9,533c0-2.8,2.2-5.2,5.1-5.2c2.9,0,5.1,2.3,5.1,5.1v0c0,2.8-2.2,5.1-5.1,5.1
			C843,538.1,840.9,535.8,840.9,533z M849.6,533L849.6,533c0-2.1-1.6-3.9-3.6-3.9c-2.1,0-3.6,1.7-3.6,3.8v0c0,2.1,1.6,3.8,3.6,3.8
			C848.1,536.8,849.6,535.1,849.6,533z"/>
		<path fill="#82BC00" d="M853.6,534.2v-6.1h1.5v5.7c0,1.8,1,3,2.7,3c1.7,0,2.9-1.2,2.9-3.1v-5.6h1.4v9.8h-1.4v-1.7
			c-0.7,1.1-1.7,1.9-3.4,1.9C855,538.1,853.6,536.5,853.6,534.2z"/>
		<path fill="#82BC00" d="M865.4,528.1h1.5v2.6c0.7-1.6,2.1-2.8,4-2.7v1.6h-0.1c-2.1,0-3.9,1.5-3.9,4.5v3.9h-1.5V528.1z"/>
		<path fill="#82BC00" d="M872.3,536.6l0.7-1c1.1,0.8,2.2,1.3,3.4,1.3c1.2,0,2-0.6,2-1.6v0c0-1-1.2-1.4-2.5-1.7
			c-1.5-0.4-3.2-1-3.2-2.8v0c0-1.7,1.4-2.8,3.3-2.8c1.2,0,2.5,0.4,3.5,1.1l-0.7,1.1c-0.9-0.6-2-1-2.9-1c-1.2,0-1.9,0.6-1.9,1.4v0
			c0,0.9,1.2,1.3,2.5,1.7c1.5,0.5,3.2,1,3.2,2.8v0c0,1.9-1.5,2.9-3.5,2.9C875,538.1,873.4,537.5,872.3,536.6z"/>
		<path fill="#82BC00" d="M882.4,535.9h1.7v2h-1.7V535.9z"/>
	</g>
	<g enable-background="new    ">
		<path fill="#82BC00" d="M7.4,466.1H2.9v-1.4h10.4v1.4H8.9V478H7.4V466.1z"/>
		<path fill="#82BC00" d="M13.5,468.1h1.6l2.6,7.9l2.6-7.9h1.2l2.7,7.9l2.6-7.9h1.5l-3.5,9.9h-1.3l-2.6-7.8l-2.7,7.8H17L13.5,468.1z
			"/>
		<path fill="#82BC00" d="M29.6,473.1L29.6,473.1c0-2.9,2-5.1,4.7-5.1c2.9,0,4.6,2.3,4.6,5.2c0,0.2,0,0.3,0,0.5h-7.8
			c0.2,2.1,1.7,3.3,3.5,3.3c1.3,0,2.3-0.6,3.1-1.4l0.9,0.8c-1,1.1-2.2,1.8-4,1.8C31.8,478.2,29.6,476.1,29.6,473.1z M37.4,472.5
			c-0.2-1.8-1.2-3.3-3.1-3.3c-1.7,0-3,1.4-3.2,3.3H37.4z"/>
		<path fill="#82BC00" d="M41.5,468.1h1.5v1.7c0.6-1.1,1.7-1.9,3.4-1.9c2.4,0,3.8,1.6,3.8,3.9v6.1h-1.5v-5.7c0-1.8-1-3-2.7-3
			c-1.7,0-2.9,1.2-2.9,3.1v5.6h-1.5V468.1z"/>
		<path fill="#82BC00" d="M53.7,475.4v-5.9h-1.4v-1.3h1.4v-3h1.5v3h3.1v1.3h-3.1v5.7c0,1.2,0.7,1.6,1.7,1.6c0.5,0,0.9-0.1,1.4-0.3
			v1.3c-0.5,0.3-1.1,0.4-1.8,0.4C54.9,478.1,53.7,477.4,53.7,475.4z"/>
		<path fill="#82BC00" d="M68.2,468.1h1.6l-4.1,10.1c-0.8,2-1.8,2.8-3.3,2.8c-0.8,0-1.4-0.2-2.1-0.5l0.5-1.2
			c0.5,0.2,0.9,0.4,1.5,0.4c0.9,0,1.4-0.5,2-1.8l-4.5-9.8h1.6l3.6,8.2L68.2,468.1z"/>
		<path fill="#82BC00" d="M77,468.1h1.6l2.6,7.9l2.6-7.9H85l2.7,7.9l2.6-7.9h1.5l-3.5,9.9H87l-2.6-7.8l-2.7,7.8h-1.3L77,468.1z"/>
		<path fill="#82BC00" d="M93.1,473.1L93.1,473.1c0-2.8,2.2-5.2,5.1-5.2c2.9,0,5.1,2.3,5.1,5.1v0c0,2.8-2.2,5.1-5.1,5.1
			C95.2,478.2,93.1,475.9,93.1,473.1z M101.8,473.1L101.8,473.1c0-2.1-1.6-3.9-3.6-3.9c-2.1,0-3.6,1.7-3.6,3.8v0
			c0,2.1,1.6,3.8,3.6,3.8C100.3,476.9,101.8,475.2,101.8,473.1z"/>
		<path fill="#82BC00" d="M105.9,468.1h1.5v1.7c0.6-1,1.5-1.9,3.2-1.9c1.6,0,2.6,0.9,3.2,2c0.7-1.1,1.7-2,3.5-2c2.3,0,3.6,1.5,3.6,4
			v6.1h-1.5v-5.7c0-1.9-1-3-2.5-3c-1.5,0-2.7,1.1-2.7,3v5.7h-1.5v-5.8c0-1.8-1-2.9-2.5-2.9c-1.6,0-2.7,1.3-2.7,3.1v5.6h-1.5V468.1z"
			/>
		<path fill="#82BC00" d="M123.4,473.1L123.4,473.1c0-2.9,2-5.1,4.7-5.1c2.9,0,4.6,2.3,4.6,5.2c0,0.2,0,0.3,0,0.5h-7.8
			c0.2,2.1,1.7,3.3,3.5,3.3c1.3,0,2.3-0.6,3.1-1.4l0.9,0.8c-1,1.1-2.2,1.8-4,1.8C125.6,478.2,123.4,476.1,123.4,473.1z M131.2,472.5
			c-0.2-1.8-1.2-3.3-3.1-3.3c-1.7,0-3,1.4-3.2,3.3H131.2z"/>
		<path fill="#82BC00" d="M135.3,468.1h1.5v1.7c0.6-1.1,1.7-1.9,3.4-1.9c2.4,0,3.8,1.6,3.8,3.9v6.1h-1.5v-5.7c0-1.8-1-3-2.7-3
			c-1.7,0-2.9,1.2-2.9,3.1v5.6h-1.5V468.1z"/>
		<path fill="#82BC00" d="M151.9,475.1L151.9,475.1c0-2.1,1.7-3.2,4.2-3.2c1.3,0,2.1,0.2,3,0.4V472c0-1.8-1.1-2.7-2.9-2.7
			c-1.2,0-2.1,0.3-3,0.7l-0.4-1.2c1.1-0.5,2.1-0.8,3.6-0.8c1.4,0,2.5,0.4,3.2,1.1c0.7,0.7,1,1.6,1,2.9v6h-1.4v-1.5
			c-0.7,0.9-1.8,1.7-3.6,1.7C153.8,478.2,151.9,477.1,151.9,475.1z M159.2,474.4v-1c-0.7-0.2-1.7-0.4-2.9-0.4c-1.8,0-2.9,0.8-2.9,2
			v0c0,1.2,1.1,2,2.5,2C157.7,477,159.2,475.9,159.2,474.4z"/>
		<path fill="#82BC00" d="M163.6,479.7l0.7-1.1c1.1,0.8,2.4,1.3,3.8,1.3c2.2,0,3.6-1.2,3.6-3.5v-1.2c-0.9,1.1-2.1,2.1-3.9,2.1
			c-2.4,0-4.6-1.8-4.6-4.6v0c0-2.9,2.3-4.6,4.6-4.6c1.8,0,3,0.9,3.8,2v-1.8h1.5v8.1c0,1.5-0.5,2.7-1.3,3.5c-0.9,0.9-2.2,1.3-3.7,1.3
			C166.4,481,164.9,480.6,163.6,479.7z M171.6,472.6L171.6,472.6c0-2.1-1.7-3.4-3.6-3.4c-1.9,0-3.4,1.3-3.4,3.3v0
			c0,2,1.6,3.3,3.4,3.3C169.9,475.9,171.6,474.6,171.6,472.6z"/>
		<path fill="#82BC00" d="M175.7,473.1L175.7,473.1c0-2.9,2-5.1,4.7-5.1c2.9,0,4.6,2.3,4.6,5.2c0,0.2,0,0.3,0,0.5h-7.8
			c0.2,2.1,1.7,3.3,3.5,3.3c1.3,0,2.3-0.6,3.1-1.4l0.9,0.8c-1,1.1-2.2,1.8-4,1.8C177.9,478.2,175.7,476.1,175.7,473.1z M183.5,472.5
			c-0.2-1.8-1.2-3.3-3.1-3.3c-1.7,0-3,1.4-3.2,3.3H183.5z"/>
		<path fill="#82BC00" d="M187,473.1L187,473.1c0-3.2,2.3-5.1,4.7-5.1c1.8,0,3,1,3.8,2.1v-5.9h1.5V478h-1.5v-2
			c-0.8,1.2-2,2.2-3.8,2.2C189.3,478.2,187,476.3,187,473.1z M195.5,473.1L195.5,473.1c0-2.3-1.7-3.8-3.6-3.8
			c-1.9,0-3.5,1.4-3.5,3.8v0c0,2.3,1.6,3.8,3.5,3.8C193.7,476.9,195.5,475.3,195.5,473.1z"/>
		<path fill="#82BC00" d="M205.2,475.8l1.1-1c1,1.3,2.2,2,3.9,2c1.6,0,2.9-1,2.9-2.6v0c0-1.7-1.5-2.6-3.7-2.6h-0.9l-0.3-0.9l4.2-4.7
			h-6.5v-1.3h8.5v1.1l-4.2,4.6c2.3,0.2,4.4,1.3,4.4,3.7v0c0,2.4-2,4-4.4,4C207.9,478.2,206.2,477.2,205.2,475.8z"/>
		<path fill="#82BC00" d="M216.8,476.8l4.8-4.3c2-1.8,2.8-2.8,2.8-4.2c0-1.6-1.2-2.5-2.7-2.5c-1.5,0-2.5,0.8-3.6,2.3l-1.1-0.8
			c1.2-1.8,2.5-2.8,4.8-2.8c2.4,0,4.1,1.6,4.1,3.8v0c0,1.9-1,3.1-3.4,5.2l-3.6,3.2h7v1.4h-9.3V476.8z"/>
		<path fill="#82BC00" d="M241.9,468.1h1.6l-4.1,10.1c-0.8,2-1.8,2.8-3.3,2.8c-0.8,0-1.4-0.2-2.1-0.5l0.5-1.2
			c0.5,0.2,0.9,0.4,1.5,0.4c0.9,0,1.4-0.5,2-1.8l-4.5-9.8h1.6l3.6,8.2L241.9,468.1z"/>
		<path fill="#82BC00" d="M252,475.4v-5.9h-1.4v-1.3h1.4v-3h1.5v3h3.1v1.3h-3.1v5.7c0,1.2,0.7,1.6,1.7,1.6c0.5,0,0.9-0.1,1.4-0.3
			v1.3c-0.5,0.3-1.1,0.4-1.8,0.4C253.2,478.1,252,477.4,252,475.4z"/>
		<path fill="#82BC00" d="M258.3,473.1L258.3,473.1c0-2.8,2.2-5.2,5.1-5.2c2.9,0,5.1,2.3,5.1,5.1v0c0,2.8-2.2,5.1-5.1,5.1
			C260.4,478.2,258.3,475.9,258.3,473.1z M267,473.1L267,473.1c0-2.1-1.6-3.9-3.6-3.9c-2.1,0-3.6,1.7-3.6,3.8v0
			c0,2.1,1.6,3.8,3.6,3.8C265.5,476.9,267,475.2,267,473.1z"/>
		<path fill="#82BC00" d="M276.2,476.1l1-1.1c1.2,1.1,2.4,1.8,3.8,1.8c1.9,0,3.2-1.3,3.2-2.9v0c0-1.7-1.4-2.8-3.3-2.8
			c-1.1,0-2,0.3-2.8,0.8l-1-0.7l0.4-6.5h7.7v1.4h-6.3l-0.3,4.3c0.8-0.3,1.5-0.6,2.6-0.6c2.6,0,4.6,1.5,4.6,4.1v0
			c0,2.6-2,4.4-4.7,4.4C279.1,478.2,277.4,477.3,276.2,476.1z"/>
		<path fill="#82BC00" d="M287.9,476.1l1-1.1c1.2,1.1,2.4,1.8,3.8,1.8c1.9,0,3.2-1.3,3.2-2.9v0c0-1.7-1.4-2.8-3.3-2.8
			c-1.1,0-2,0.3-2.8,0.8l-1-0.7l0.4-6.5h7.7v1.4h-6.3l-0.3,4.3c0.8-0.3,1.5-0.6,2.6-0.6c2.6,0,4.6,1.5,4.6,4.1v0
			c0,2.6-2,4.4-4.7,4.4C290.7,478.2,289.1,477.3,287.9,476.1z"/>
		<path fill="#82BC00" d="M313.2,468.1h1.6l-4.1,10.1c-0.8,2-1.8,2.8-3.3,2.8c-0.8,0-1.4-0.2-2.1-0.5l0.5-1.2
			c0.5,0.2,0.9,0.4,1.5,0.4c0.9,0,1.4-0.5,2-1.8l-4.5-9.8h1.6l3.6,8.2L313.2,468.1z"/>
		<path fill="#82BC00" d="M321.9,468.1h1.6l2.6,7.9l2.6-7.9h1.2l2.7,7.9l2.6-7.9h1.5l-3.5,9.9h-1.3l-2.6-7.8l-2.7,7.8h-1.3
			L321.9,468.1z"/>
		<path fill="#82BC00" d="M339.1,464.4h1.7v1.6h-1.7V464.4z M339.2,468.1h1.5v9.8h-1.5V468.1z"/>
		<path fill="#82BC00" d="M344.6,475.4v-5.9h-1.4v-1.3h1.4v-3h1.5v3h3.1v1.3h-3.1v5.7c0,1.2,0.7,1.6,1.7,1.6c0.5,0,0.9-0.1,1.4-0.3
			v1.3c-0.5,0.3-1.1,0.4-1.8,0.4C345.8,478.1,344.6,477.4,344.6,475.4z"/>
		<path fill="#82BC00" d="M351.8,464.1h1.5v5.8c0.6-1.1,1.7-1.9,3.4-1.9c2.4,0,3.8,1.6,3.8,3.9v6.1h-1.5v-5.7c0-1.8-1-3-2.7-3
			c-1.7,0-2.9,1.2-2.9,3.1v5.6h-1.5V464.1z"/>
		<path fill="#82BC00" d="M368.6,473.1L368.6,473.1c0-3.2,2.3-5.1,4.7-5.1c1.8,0,3,1,3.8,2.1v-5.9h1.5V478h-1.5v-2
			c-0.8,1.2-2,2.2-3.8,2.2C371,478.2,368.6,476.3,368.6,473.1z M377.1,473.1L377.1,473.1c0-2.3-1.7-3.8-3.6-3.8
			c-1.9,0-3.5,1.4-3.5,3.8v0c0,2.3,1.6,3.8,3.5,3.8C375.4,476.9,377.1,475.3,377.1,473.1z"/>
		<path fill="#82BC00" d="M381.8,468.1h1.5v2.6c0.7-1.6,2.1-2.8,4-2.7v1.6h-0.1c-2.1,0-3.9,1.5-3.9,4.5v3.9h-1.5V468.1z"/>
		<path fill="#82BC00" d="M396.9,468.1h1.6l-4.1,10.1c-0.8,2-1.8,2.8-3.3,2.8c-0.8,0-1.4-0.2-2.1-0.5l0.5-1.2
			c0.5,0.2,0.9,0.4,1.5,0.4c0.9,0,1.4-0.5,2-1.8l-4.5-9.8h1.6l3.6,8.2L396.9,468.1z"/>
		<path fill="#82BC00" d="M405.6,476.7l0.7-1c1.1,0.8,2.2,1.3,3.4,1.3c1.2,0,2-0.6,2-1.6v0c0-1-1.2-1.4-2.5-1.7
			c-1.5-0.4-3.2-1-3.2-2.8v0c0-1.7,1.4-2.8,3.3-2.8c1.2,0,2.5,0.4,3.5,1.1l-0.7,1.1c-0.9-0.6-2-1-2.9-1c-1.2,0-1.9,0.6-1.9,1.4v0
			c0,0.9,1.2,1.3,2.5,1.7c1.5,0.5,3.2,1,3.2,2.8v0c0,1.9-1.5,2.9-3.5,2.9C408.3,478.2,406.7,477.6,405.6,476.7z"/>
		<path fill="#82BC00" d="M415.9,464.1h1.5v9.6l5.3-5.5h1.8l-4.1,4.2l4.3,5.6h-1.7l-3.5-4.6l-2,2v2.6h-1.5V464.1z"/>
		<path fill="#82BC00" d="M426.7,464.4h1.7v1.6h-1.7V464.4z M426.8,468.1h1.5v9.8h-1.5V468.1z"/>
		<path fill="#82BC00" d="M431.7,468.1h1.5v1.7c0.6-1.1,1.7-1.9,3.4-1.9c2.4,0,3.8,1.6,3.8,3.9v6.1h-1.5v-5.7c0-1.8-1-3-2.7-3
			c-1.7,0-2.9,1.2-2.9,3.1v5.6h-1.5V468.1z"/>
		<path fill="#82BC00" d="M448.4,475.1L448.4,475.1c0-2.1,1.7-3.2,4.2-3.2c1.3,0,2.1,0.2,3,0.4V472c0-1.8-1.1-2.7-2.9-2.7
			c-1.2,0-2.1,0.3-3,0.7l-0.4-1.2c1.1-0.5,2.1-0.8,3.6-0.8c1.4,0,2.5,0.4,3.2,1.1c0.7,0.7,1,1.6,1,2.9v6h-1.4v-1.5
			c-0.7,0.9-1.8,1.7-3.6,1.7C450.2,478.2,448.4,477.1,448.4,475.1z M455.6,474.4v-1c-0.7-0.2-1.7-0.4-2.9-0.4c-1.8,0-2.9,0.8-2.9,2
			v0c0,1.2,1.1,2,2.5,2C454.1,477,455.6,475.9,455.6,474.4z"/>
		<path fill="#82BC00" d="M460.1,468.1h1.5v2c0.8-1.2,2-2.2,3.8-2.2c2.4,0,4.7,1.9,4.7,5.1v0c0,3.2-2.3,5.1-4.7,5.1
			c-1.8,0-3-1-3.8-2.1v4.9h-1.5V468.1z M468.5,473.1L468.5,473.1c0-2.4-1.6-3.8-3.5-3.8c-1.8,0-3.6,1.5-3.6,3.8v0
			c0,2.3,1.7,3.8,3.6,3.8C467,476.9,468.5,475.5,468.5,473.1z"/>
		<path fill="#82BC00" d="M472.7,468.1h1.5v2c0.8-1.2,2-2.2,3.8-2.2c2.4,0,4.7,1.9,4.7,5.1v0c0,3.2-2.3,5.1-4.7,5.1
			c-1.8,0-3-1-3.8-2.1v4.9h-1.5V468.1z M481.1,473.1L481.1,473.1c0-2.4-1.6-3.8-3.5-3.8c-1.8,0-3.6,1.5-3.6,3.8v0
			c0,2.3,1.7,3.8,3.6,3.8C479.6,476.9,481.1,475.5,481.1,473.1z"/>
		<path fill="#82BC00" d="M485.5,464.1h1.5V478h-1.5V464.1z"/>
		<path fill="#82BC00" d="M490.4,464.4h1.7v1.6h-1.7V464.4z M490.5,468.1h1.5v9.8h-1.5V468.1z"/>
		<path fill="#82BC00" d="M494.7,473.1L494.7,473.1c0-2.9,2-5.1,4.7-5.1c2.9,0,4.6,2.3,4.6,5.2c0,0.2,0,0.3,0,0.5h-7.8
			c0.2,2.1,1.7,3.3,3.5,3.3c1.3,0,2.3-0.6,3.1-1.4l0.9,0.8c-1,1.1-2.2,1.8-4,1.8C496.9,478.2,494.7,476.1,494.7,473.1z M502.5,472.5
			c-0.2-1.8-1.2-3.3-3.1-3.3c-1.7,0-3,1.4-3.2,3.3H502.5z"/>
		<path fill="#82BC00" d="M506,473.1L506,473.1c0-3.2,2.3-5.1,4.7-5.1c1.8,0,3,1,3.8,2.1v-5.9h1.5V478h-1.5v-2
			c-0.8,1.2-2,2.2-3.8,2.2C508.3,478.2,506,476.3,506,473.1z M514.5,473.1L514.5,473.1c0-2.3-1.7-3.8-3.6-3.8
			c-1.9,0-3.5,1.4-3.5,3.8v0c0,2.3,1.6,3.8,3.5,3.8C512.8,476.9,514.5,475.3,514.5,473.1z"/>
		<path fill="#82BC00" d="M524.5,471.4L524.5,471.4c0-3.8,2.8-6.9,6.7-6.9c2.4,0,3.9,0.9,5.2,2.1l-1,1.1c-1.1-1.1-2.4-1.8-4.2-1.8
			c-2.9,0-5.1,2.4-5.1,5.5v0c0,3.1,2.2,5.5,5.1,5.5c1.8,0,3-0.7,4.3-1.9l1,1c-1.4,1.4-2.9,2.3-5.3,2.3
			C527.4,478.2,524.5,475.2,524.5,471.4z"/>
		<path fill="#82BC00" d="M538.1,473.1L538.1,473.1c0-2.9,2-5.1,4.7-5.1c2.9,0,4.6,2.3,4.6,5.2c0,0.2,0,0.3,0,0.5h-7.8
			c0.2,2.1,1.7,3.3,3.5,3.3c1.3,0,2.3-0.6,3.1-1.4l0.9,0.8c-1,1.1-2.2,1.8-4,1.8C540.3,478.2,538.1,476.1,538.1,473.1z M545.9,472.5
			c-0.2-1.8-1.2-3.3-3.1-3.3c-1.7,0-3,1.4-3.2,3.3H545.9z"/>
		<path fill="#82BC00" d="M550.5,475.4v-5.9h-1.4v-1.3h1.4v-3h1.5v3h3.1v1.3h-3.1v5.7c0,1.2,0.7,1.6,1.7,1.6c0.5,0,0.9-0.1,1.4-0.3
			v1.3c-0.5,0.3-1.1,0.4-1.8,0.4C551.7,478.1,550.5,477.4,550.5,475.4z"/>
		<path fill="#82BC00" d="M556.9,475.1L556.9,475.1c0-2.1,1.7-3.2,4.2-3.2c1.3,0,2.1,0.2,3,0.4V472c0-1.8-1.1-2.7-2.9-2.7
			c-1.2,0-2.1,0.3-3,0.7l-0.4-1.2c1.1-0.5,2.1-0.8,3.6-0.8c1.4,0,2.5,0.4,3.2,1.1c0.7,0.7,1,1.6,1,2.9v6h-1.4v-1.5
			c-0.7,0.9-1.8,1.7-3.6,1.7C558.7,478.2,556.9,477.1,556.9,475.1z M564.1,474.4v-1c-0.7-0.2-1.7-0.4-2.9-0.4c-1.8,0-2.9,0.8-2.9,2
			v0c0,1.2,1.1,2,2.5,2C562.7,477,564.1,475.9,564.1,474.4z"/>
		<path fill="#82BC00" d="M568.6,468.1h1.5v2c0.8-1.2,2-2.2,3.8-2.2c2.4,0,4.7,1.9,4.7,5.1v0c0,3.2-2.3,5.1-4.7,5.1
			c-1.8,0-3-1-3.8-2.1v4.9h-1.5V468.1z M577.1,473.1L577.1,473.1c0-2.4-1.6-3.8-3.5-3.8c-1.8,0-3.6,1.5-3.6,3.8v0
			c0,2.3,1.7,3.8,3.6,3.8C575.5,476.9,577.1,475.5,577.1,473.1z"/>
		<path fill="#82BC00" d="M581.3,464.1h1.5v5.8c0.6-1.1,1.7-1.9,3.4-1.9c2.4,0,3.8,1.6,3.8,3.9v6.1h-1.5v-5.7c0-1.8-1-3-2.7-3
			c-1.7,0-2.9,1.2-2.9,3.1v5.6h-1.5V464.1z"/>
		<path fill="#82BC00" d="M593,464.4h1.7v1.6H593V464.4z M593.1,468.1h1.5v9.8h-1.5V468.1z"/>
		<path fill="#82BC00" d="M598.1,464.1h1.5V478h-1.5V464.1z"/>
		<path fill="#82BC00" d="M601.9,467.8L601.9,467.8c0-1.8,1.5-3.3,3.3-3.3c1.9,0,3.3,1.5,3.3,3.3v0c0,1.8-1.5,3.3-3.3,3.3
			C603.3,471.1,601.9,469.6,601.9,467.8z M608.1,467.8L608.1,467.8c0-1.6-1.3-3-2.9-3c-1.7,0-2.9,1.3-2.9,3v0c0,1.6,1.3,2.9,2.9,2.9
			C606.8,470.8,608.1,469.4,608.1,467.8z M603.9,466.1h1.5c0.7,0,1.3,0.4,1.3,1.1c0,0.6-0.3,0.9-0.8,1l0.9,1.3H606l-0.8-1.2h-0.7
			v1.2h-0.6V466.1z M605.3,467.7c0.4,0,0.7-0.2,0.7-0.6c0-0.4-0.2-0.6-0.7-0.6h-0.8v1.1H605.3z"/>
		<path fill="#82BC00" d="M616.6,464.7h4.6c4.2,0,7.1,2.9,7.1,6.6v0c0,3.7-2.9,6.6-7.1,6.6h-4.6V464.7z M618.1,466.1v10.5h3.1
			c3.4,0,5.5-2.3,5.5-5.2v0c0-2.9-2.1-5.3-5.5-5.3H618.1z"/>
		<path fill="#82BC00" d="M630.4,475.1L630.4,475.1c0-2.1,1.7-3.2,4.2-3.2c1.3,0,2.1,0.2,3,0.4V472c0-1.8-1.1-2.7-2.9-2.7
			c-1.2,0-2.1,0.3-3,0.7l-0.4-1.2c1.1-0.5,2.1-0.8,3.6-0.8c1.4,0,2.5,0.4,3.2,1.1c0.7,0.7,1,1.6,1,2.9v6h-1.4v-1.5
			c-0.7,0.9-1.8,1.7-3.6,1.7C632.3,478.2,630.4,477.1,630.4,475.1z M637.7,474.4v-1c-0.7-0.2-1.7-0.4-2.9-0.4c-1.8,0-2.9,0.8-2.9,2
			v0c0,1.2,1.1,2,2.5,2C636.2,477,637.7,475.9,637.7,474.4z"/>
		<path fill="#82BC00" d="M642.2,464.4h1.7v1.6h-1.7V464.4z M642.3,468.1h1.5v9.8h-1.5V468.1z"/>
		<path fill="#82BC00" d="M647.3,464.1h1.5V478h-1.5V464.1z"/>
		<path fill="#82BC00" d="M659.5,468.1h1.6l-4.1,10.1c-0.8,2-1.8,2.8-3.3,2.8c-0.8,0-1.4-0.2-2.1-0.5l0.5-1.2
			c0.5,0.2,0.9,0.4,1.5,0.4c0.9,0,1.4-0.5,2-1.8l-4.5-9.8h1.6l3.6,8.2L659.5,468.1z"/>
		<path fill="#82BC00" d="M669.3,464.7h9.6v1.4h-8.1v4.7h7.2v1.4h-7.2v5.8h-1.5V464.7z"/>
		<path fill="#82BC00" d="M680.3,475.1L680.3,475.1c0-2.1,1.7-3.2,4.2-3.2c1.3,0,2.1,0.2,3,0.4V472c0-1.8-1.1-2.7-2.9-2.7
			c-1.2,0-2.1,0.3-3,0.7l-0.4-1.2c1.1-0.5,2.1-0.8,3.6-0.8c1.4,0,2.5,0.4,3.2,1.1c0.7,0.7,1,1.6,1,2.9v6h-1.4v-1.5
			c-0.7,0.9-1.8,1.7-3.6,1.7C682.2,478.2,680.3,477.1,680.3,475.1z M687.6,474.4v-1c-0.7-0.2-1.7-0.4-2.9-0.4c-1.8,0-2.9,0.8-2.9,2
			v0c0,1.2,1.1,2,2.5,2C686.1,477,687.6,475.9,687.6,474.4z"/>
		<path fill="#82BC00" d="M691.5,473.1L691.5,473.1c0-2.8,2.2-5.2,5-5.2c1.9,0,3,0.8,3.9,1.7l-1,1c-0.8-0.8-1.7-1.5-3-1.5
			c-2,0-3.5,1.7-3.5,3.8v0c0,2.1,1.6,3.8,3.6,3.8c1.3,0,2.2-0.6,3-1.5l0.9,0.9c-1,1.1-2.2,1.9-4,1.9
			C693.6,478.2,691.5,475.9,691.5,473.1z"/>
		<path fill="#82BC00" d="M703,464.4h1.7v1.6H703V464.4z M703.1,468.1h1.5v9.8h-1.5V468.1z"/>
		<path fill="#82BC00" d="M707.2,475.1L707.2,475.1c0-2.1,1.7-3.2,4.2-3.2c1.3,0,2.1,0.2,3,0.4V472c0-1.8-1.1-2.7-2.9-2.7
			c-1.2,0-2.1,0.3-3,0.7l-0.4-1.2c1.1-0.5,2.1-0.8,3.6-0.8c1.4,0,2.5,0.4,3.2,1.1c0.7,0.7,1,1.6,1,2.9v6h-1.4v-1.5
			c-0.7,0.9-1.8,1.7-3.6,1.7C709,478.2,707.2,477.1,707.2,475.1z M714.4,474.4v-1c-0.7-0.2-1.7-0.4-2.9-0.4c-1.8,0-2.9,0.8-2.9,2v0
			c0,1.2,1.1,2,2.5,2C712.9,477,714.4,475.9,714.4,474.4z"/>
		<path fill="#82BC00" d="M719.1,464.1h1.5V478h-1.5V464.1z"/>
		<path fill="#82BC00" d="M729.9,464.7h1.5l4.8,7.3l4.8-7.3h1.5V478h-1.5v-10.8l-4.8,7.1h-0.1l-4.8-7.1V478h-1.5V464.7z"/>
		<path fill="#82BC00" d="M745.5,473.1L745.5,473.1c0-2.8,2.2-5.2,5.1-5.2c2.9,0,5.1,2.3,5.1,5.1v0c0,2.8-2.2,5.1-5.1,5.1
			C747.7,478.2,745.5,475.9,745.5,473.1z M754.3,473.1L754.3,473.1c0-2.1-1.6-3.9-3.6-3.9c-2.1,0-3.6,1.7-3.6,3.8v0
			c0,2.1,1.6,3.8,3.6,3.8C752.8,476.9,754.3,475.2,754.3,473.1z"/>
		<path fill="#82BC00" d="M758.4,464.4h1.7v1.6h-1.7V464.4z M758.5,468.1h1.5v9.8h-1.5V468.1z"/>
		<path fill="#82BC00" d="M762.6,476.7l0.7-1c1.1,0.8,2.2,1.3,3.4,1.3c1.2,0,2-0.6,2-1.6v0c0-1-1.2-1.4-2.5-1.7
			c-1.5-0.4-3.2-1-3.2-2.8v0c0-1.7,1.4-2.8,3.3-2.8c1.2,0,2.5,0.4,3.5,1.1l-0.7,1.1c-0.9-0.6-2-1-2.9-1c-1.2,0-1.9,0.6-1.9,1.4v0
			c0,0.9,1.2,1.3,2.5,1.7c1.5,0.5,3.2,1,3.2,2.8v0c0,1.9-1.5,2.9-3.5,2.9C765.2,478.2,763.7,477.6,762.6,476.7z"/>
		<path fill="#82BC00" d="M773.2,475.4v-5.9h-1.4v-1.3h1.4v-3h1.5v3h3.1v1.3h-3.1v5.7c0,1.2,0.7,1.6,1.7,1.6c0.5,0,0.9-0.1,1.4-0.3
			v1.3c-0.5,0.3-1.1,0.4-1.8,0.4C774.4,478.1,773.2,477.4,773.2,475.4z"/>
		<path fill="#82BC00" d="M780.2,474.2v-6.1h1.5v5.7c0,1.8,1,3,2.7,3c1.7,0,2.9-1.2,2.9-3.1v-5.6h1.4v9.8h-1.4v-1.7
			c-0.7,1.1-1.7,1.9-3.4,1.9C781.6,478.2,780.2,476.6,780.2,474.2z"/>
		<path fill="#82BC00" d="M792,468.1h1.5v2.6c0.7-1.6,2.1-2.8,4-2.7v1.6h-0.1c-2.1,0-3.9,1.5-3.9,4.5v3.9H792V468.1z"/>
		<path fill="#82BC00" d="M799.8,464.4h1.7v1.6h-1.7V464.4z M799.9,468.1h1.5v9.8h-1.5V468.1z"/>
		<path fill="#82BC00" d="M804.2,477l6.5-7.7h-6.3v-1.2h8.3v0.9l-6.5,7.7h6.5v1.2h-8.5V477z"/>
		<path fill="#82BC00" d="M814.4,473.1L814.4,473.1c0-2.9,2-5.1,4.7-5.1c2.9,0,4.6,2.3,4.6,5.2c0,0.2,0,0.3,0,0.5h-7.8
			c0.2,2.1,1.7,3.3,3.5,3.3c1.3,0,2.3-0.6,3.1-1.4l0.9,0.8c-1,1.1-2.2,1.8-4,1.8C816.6,478.2,814.4,476.1,814.4,473.1z M822.2,472.5
			c-0.2-1.8-1.2-3.3-3.1-3.3c-1.7,0-3,1.4-3.2,3.3H822.2z"/>
		<path fill="#82BC00" d="M826.3,468.1h1.5v2.6c0.7-1.6,2.1-2.8,4-2.7v1.6h-0.1c-2.1,0-3.9,1.5-3.9,4.5v3.9h-1.5V468.1z"/>
		<path fill="#82BC00" d="M839,476l0.9-1.1c1.4,1.3,2.7,1.9,4.6,1.9c1.8,0,3-0.9,3-2.3v0c0-1.2-0.7-1.9-3.5-2.5
			c-3.1-0.7-4.5-1.7-4.5-3.8v0c0-2.1,1.8-3.6,4.4-3.6c1.9,0,3.3,0.6,4.7,1.6l-0.9,1.2c-1.2-1-2.5-1.4-3.8-1.4c-1.7,0-2.8,1-2.8,2.1
			v0c0,1.3,0.7,2,3.6,2.6c3,0.6,4.3,1.7,4.3,3.8v0c0,2.3-1.9,3.8-4.5,3.8C842.4,478.2,840.6,477.5,839,476z"/>
		<path fill="#82BC00" d="M852.1,464.7h5c3,0,5,1.6,5,4.2v0c0,2.9-2.4,4.4-5.2,4.4h-3.2v4.7h-1.5V464.7z M856.9,471.9
			c2.2,0,3.6-1.2,3.6-2.9v0c0-1.9-1.4-2.9-3.6-2.9h-3.4v5.9H856.9z"/>
		<path fill="#82BC00" d="M864.8,464.7h9.6v1.4h-8.1v4.7h7.2v1.4h-7.2v5.8h-1.5V464.7z"/>
		<path fill="#82BC00" d="M884.4,466.1l-2.5,0.8l-0.4-1.2l3.2-1.1h1.1V478h-1.5V466.1z"/>
		<path fill="#82BC00" d="M888.8,476.1l1-1.1c1.2,1.1,2.4,1.8,3.8,1.8c1.9,0,3.2-1.3,3.2-2.9v0c0-1.7-1.4-2.8-3.3-2.8
			c-1.1,0-2,0.3-2.8,0.8l-1-0.7l0.4-6.5h7.7v1.4h-6.3l-0.3,4.3c0.8-0.3,1.5-0.6,2.6-0.6c2.6,0,4.6,1.5,4.6,4.1v0
			c0,2.6-2,4.4-4.8,4.4C891.7,478.2,890,477.3,888.8,476.1z"/>
		<path fill="#82BC00" d="M907.3,475.4v-5.9h-1.4v-1.3h1.4v-3h1.5v3h3.1v1.3h-3.1v5.7c0,1.2,0.7,1.6,1.7,1.6c0.5,0,0.9-0.1,1.4-0.3
			v1.3c-0.5,0.3-1.1,0.4-1.8,0.4C908.5,478.1,907.3,477.4,907.3,475.4z"/>
		<path fill="#82BC00" d="M913.6,473.1L913.6,473.1c0-2.8,2.2-5.2,5.1-5.2c2.9,0,5.1,2.3,5.1,5.1v0c0,2.8-2.2,5.1-5.1,5.1
			C915.7,478.2,913.6,475.9,913.6,473.1z M922.3,473.1L922.3,473.1c0-2.1-1.6-3.9-3.6-3.9c-2.1,0-3.6,1.7-3.6,3.8v0
			c0,2.1,1.6,3.8,3.6,3.8C920.8,476.9,922.3,475.2,922.3,473.1z"/>
		<path fill="#82BC00" d="M932.7,475.4v-5.9h-1.4v-1.3h1.4v-3h1.5v3h3.1v1.3h-3.1v5.7c0,1.2,0.7,1.6,1.7,1.6c0.5,0,0.9-0.1,1.4-0.3
			v1.3c-0.5,0.3-1.1,0.4-1.8,0.4C933.9,478.1,932.7,477.4,932.7,475.4z"/>
		<path fill="#82BC00" d="M939.8,464.1h1.5v5.8c0.6-1.1,1.7-1.9,3.4-1.9c2.4,0,3.8,1.6,3.8,3.9v6.1H947v-5.7c0-1.8-1-3-2.7-3
			c-1.7,0-2.9,1.2-2.9,3.1v5.6h-1.5V464.1z"/>
		<path fill="#82BC00" d="M950.9,473.1L950.9,473.1c0-2.9,2-5.1,4.7-5.1c2.9,0,4.6,2.3,4.6,5.2c0,0.2,0,0.3,0,0.5h-7.8
			c0.2,2.1,1.7,3.3,3.5,3.3c1.3,0,2.3-0.6,3.1-1.4l0.9,0.8c-1,1.1-2.2,1.8-4,1.8C953.1,478.2,950.9,476.1,950.9,473.1z M958.7,472.5
			c-0.2-1.8-1.2-3.3-3.1-3.3c-1.7,0-3,1.4-3.2,3.3H958.7z"/>
		<path fill="#82BC00" d="M962.8,464.4h1.7v1.6h-1.7V464.4z M962.9,468.1h1.5v9.8h-1.5V468.1z"/>
		<path fill="#82BC00" d="M967.8,468.1h1.5v2.6c0.7-1.6,2.1-2.8,4-2.7v1.6h-0.1c-2.1,0-3.9,1.5-3.9,4.5v3.9h-1.5V468.1z"/>
	</g>
	<g enable-background="new    ">
		<path fill="#82BC00" d="M4.2,492.2H2.8V491h1.3v-0.9c0-1.1,0.3-2,0.9-2.5c0.5-0.5,1.2-0.8,2.1-0.8c0.7,0,1.1,0.1,1.6,0.2v1.3
			c-0.5-0.2-0.9-0.2-1.4-0.2c-1.1,0-1.7,0.7-1.7,2.1v0.8h3.1v1.3H5.6v8.5H4.2V492.2z"/>
		<path fill="#82BC00" d="M9.8,495.9L9.8,495.9c0-2.8,2.2-5.2,5.1-5.2c2.9,0,5.1,2.3,5.1,5.1v0c0,2.8-2.2,5.1-5.1,5.1
			C12,501,9.8,498.7,9.8,495.9z M18.5,495.9L18.5,495.9c0-2.1-1.6-3.9-3.6-3.9c-2.1,0-3.6,1.7-3.6,3.8v0c0,2.1,1.6,3.8,3.6,3.8
			C17.1,499.7,18.5,498,18.5,495.9z"/>
		<path fill="#82BC00" d="M22.7,490.9h1.5v2.6c0.7-1.6,2.1-2.8,4-2.7v1.6H28c-2.1,0-3.9,1.5-3.9,4.5v3.9h-1.5V490.9z"/>
		<path fill="#82BC00" d="M29.4,495.9L29.4,495.9c0-2.9,2-5.1,4.7-5.1c2.9,0,4.6,2.3,4.6,5.2c0,0.2,0,0.3,0,0.5h-7.8
			c0.2,2.1,1.7,3.3,3.5,3.3c1.3,0,2.3-0.6,3.1-1.4l0.9,0.8c-1,1.1-2.2,1.8-4,1.8C31.6,501,29.4,498.9,29.4,495.9z M37.2,495.3
			C37,493.5,36,492,34,492c-1.7,0-3,1.4-3.2,3.3H37.2z"/>
		<path fill="#82BC00" d="M40.5,497.9L40.5,497.9c0-2.1,1.7-3.2,4.2-3.2c1.3,0,2.1,0.2,3,0.4v-0.3c0-1.8-1.1-2.7-2.9-2.7
			c-1.2,0-2.1,0.3-3,0.7l-0.4-1.2c1.1-0.5,2.1-0.8,3.6-0.8c1.4,0,2.5,0.4,3.2,1.1c0.7,0.7,1,1.6,1,2.9v6h-1.4v-1.5
			c-0.7,0.9-1.8,1.7-3.6,1.7C42.3,501,40.5,499.9,40.5,497.9z M47.7,497.2v-1c-0.7-0.2-1.7-0.4-2.9-0.4c-1.8,0-2.9,0.8-2.9,2v0
			c0,1.2,1.1,2,2.5,2C46.2,499.8,47.7,498.7,47.7,497.2z"/>
		<path fill="#82BC00" d="M52.2,490.9h1.5v2.6c0.7-1.6,2.1-2.8,4-2.7v1.6h-0.1c-2.1,0-3.9,1.5-3.9,4.5v3.9h-1.5V490.9z"/>
		<path fill="#82BC00" d="M59.9,490.9h1.5v1.7c0.6-1,1.5-1.9,3.2-1.9c1.6,0,2.6,0.9,3.2,2c0.7-1.1,1.7-2,3.5-2c2.3,0,3.6,1.5,3.6,4
			v6.1h-1.5V495c0-1.9-1-3-2.5-3c-1.5,0-2.7,1.1-2.7,3v5.7h-1.5V495c0-1.8-1-2.9-2.5-2.9c-1.6,0-2.7,1.3-2.7,3.1v5.6h-1.5V490.9z"/>
		<path fill="#82BC00" d="M77.8,498.8h1.7v2h-1.7V498.8z"/>
		<path fill="#82BC00" d="M88,494.2L88,494.2c0-3.8,2.8-6.9,6.7-6.9c2.4,0,3.9,0.9,5.2,2.1l-1,1.1c-1.1-1.1-2.4-1.8-4.2-1.8
			c-2.9,0-5.1,2.4-5.1,5.5v0c0,3.1,2.2,5.5,5.1,5.5c1.8,0,3-0.7,4.3-1.9l1,1c-1.4,1.4-2.9,2.3-5.3,2.3C90.8,501,88,498,88,494.2z"/>
		<path fill="#82BC00" d="M101.6,495.9L101.6,495.9c0-2.8,2.2-5.2,5.1-5.2c2.9,0,5.1,2.3,5.1,5.1v0c0,2.8-2.2,5.1-5.1,5.1
			C103.7,501,101.6,498.7,101.6,495.9z M110.3,495.9L110.3,495.9c0-2.1-1.6-3.9-3.6-3.9c-2.1,0-3.6,1.7-3.6,3.8v0
			c0,2.1,1.6,3.8,3.6,3.8C108.8,499.7,110.3,498,110.3,495.9z"/>
		<path fill="#82BC00" d="M114.4,490.9h1.5v2.6c0.7-1.6,2.1-2.8,4-2.7v1.6h-0.1c-2.1,0-3.9,1.5-3.9,4.5v3.9h-1.5V490.9z"/>
		<path fill="#82BC00" d="M122.1,490.9h1.5v1.7c0.6-1.1,1.7-1.9,3.4-1.9c2.4,0,3.8,1.6,3.8,3.9v6.1h-1.5V495c0-1.8-1-3-2.7-3
			c-1.7,0-2.9,1.2-2.9,3.1v5.6h-1.5V490.9z"/>
		<path fill="#82BC00" d="M133.2,495.9L133.2,495.9c0-2.9,2-5.1,4.7-5.1c2.9,0,4.6,2.3,4.6,5.2c0,0.2,0,0.3,0,0.5h-7.8
			c0.2,2.1,1.7,3.3,3.5,3.3c1.3,0,2.3-0.6,3.1-1.4l0.9,0.8c-1,1.1-2.2,1.8-4,1.8C135.4,501,133.2,498.9,133.2,495.9z M141,495.3
			c-0.2-1.8-1.2-3.3-3.1-3.3c-1.7,0-3,1.4-3.2,3.3H141z"/>
		<path fill="#82BC00" d="M144.5,495.9L144.5,495.9c0-2.8,2.2-5.2,5.1-5.2c2.9,0,5.1,2.3,5.1,5.1v0c0,2.8-2.2,5.1-5.1,5.1
			C146.6,501,144.5,498.7,144.5,495.9z M153.2,495.9L153.2,495.9c0-2.1-1.6-3.9-3.6-3.9c-2.1,0-3.6,1.7-3.6,3.8v0
			c0,2.1,1.6,3.8,3.6,3.8C151.7,499.7,153.2,498,153.2,495.9z"/>
		<path fill="#82BC00" d="M157.4,490.9h1.5v1.7c0.6-1,1.5-1.9,3.2-1.9c1.6,0,2.6,0.9,3.2,2c0.7-1.1,1.7-2,3.5-2c2.3,0,3.6,1.5,3.6,4
			v6.1h-1.5V495c0-1.9-1-3-2.5-3c-1.5,0-2.7,1.1-2.7,3v5.7h-1.5V495c0-1.8-1-2.9-2.5-2.9c-1.6,0-2.7,1.3-2.7,3.1v5.6h-1.5V490.9z"/>
		<path fill="#82BC00" d="M174.8,495.9L174.8,495.9c0-2.9,2-5.1,4.7-5.1c2.9,0,4.6,2.3,4.6,5.2c0,0.2,0,0.3,0,0.5h-7.8
			c0.2,2.1,1.7,3.3,3.5,3.3c1.3,0,2.3-0.6,3.1-1.4l0.9,0.8c-1,1.1-2.2,1.8-4,1.8C177,501,174.8,498.9,174.8,495.9z M182.6,495.3
			c-0.2-1.8-1.2-3.3-3.1-3.3c-1.7,0-3,1.4-3.2,3.3H182.6z"/>
		<path fill="#82BC00" d="M187.2,498.2v-5.9h-1.4v-1.3h1.4v-3h1.5v3h3.1v1.3h-3.1v5.7c0,1.2,0.7,1.6,1.7,1.6c0.5,0,0.9-0.1,1.4-0.3
			v1.3c-0.5,0.3-1.1,0.4-1.8,0.4C188.4,500.9,187.2,500.2,187.2,498.2z"/>
		<path fill="#82BC00" d="M194.4,490.9h1.5v2.6c0.7-1.6,2.1-2.8,4-2.7v1.6h-0.1c-2.1,0-3.9,1.5-3.9,4.5v3.9h-1.5V490.9z"/>
		<path fill="#82BC00" d="M209.4,490.9h1.6l-4.1,10.1c-0.8,2-1.8,2.8-3.3,2.8c-0.8,0-1.4-0.2-2.1-0.5l0.5-1.2
			c0.5,0.2,0.9,0.4,1.5,0.4c0.9,0,1.4-0.5,2-1.8l-4.5-9.8h1.6l3.6,8.2L209.4,490.9z"/>
		<path fill="#82BC00" d="M219,490.9h1.5v1.7c0.6-1,1.5-1.9,3.2-1.9c1.6,0,2.6,0.9,3.2,2c0.7-1.1,1.7-2,3.5-2c2.3,0,3.6,1.5,3.6,4
			v6.1h-1.5V495c0-1.9-1-3-2.5-3c-1.5,0-2.7,1.1-2.7,3v5.7h-1.5V495c0-1.8-1-2.9-2.5-2.9c-1.6,0-2.7,1.3-2.7,3.1v5.6H219V490.9z"/>
		<path fill="#82BC00" d="M236.4,495.9L236.4,495.9c0-2.9,2-5.1,4.7-5.1c2.9,0,4.6,2.3,4.6,5.2c0,0.2,0,0.3,0,0.5h-7.8
			c0.2,2.1,1.7,3.3,3.5,3.3c1.3,0,2.3-0.6,3.1-1.4l0.9,0.8c-1,1.1-2.2,1.8-4,1.8C238.6,501,236.4,498.9,236.4,495.9z M244.2,495.3
			c-0.2-1.8-1.2-3.3-3.1-3.3c-1.7,0-3,1.4-3.2,3.3H244.2z"/>
		<path fill="#82BC00" d="M247.6,497.9L247.6,497.9c0-2.1,1.7-3.2,4.2-3.2c1.3,0,2.1,0.2,3,0.4v-0.3c0-1.8-1.1-2.7-2.9-2.7
			c-1.2,0-2.1,0.3-3,0.7l-0.4-1.2c1.1-0.5,2.1-0.8,3.6-0.8c1.4,0,2.5,0.4,3.2,1.1c0.7,0.7,1,1.6,1,2.9v6h-1.4v-1.5
			c-0.7,0.9-1.8,1.7-3.6,1.7C249.4,501,247.6,499.9,247.6,497.9z M254.8,497.2v-1c-0.7-0.2-1.7-0.4-2.9-0.4c-1.8,0-2.9,0.8-2.9,2v0
			c0,1.2,1.1,2,2.5,2C253.3,499.8,254.8,498.7,254.8,497.2z"/>
		<path fill="#82BC00" d="M258.5,499.5l0.7-1c1.1,0.8,2.2,1.3,3.4,1.3c1.2,0,2-0.6,2-1.6v0c0-1-1.2-1.4-2.5-1.7
			c-1.5-0.4-3.2-1-3.2-2.8v0c0-1.7,1.4-2.8,3.3-2.8c1.2,0,2.5,0.4,3.5,1.1l-0.7,1.1c-0.9-0.6-2-1-2.9-1c-1.2,0-1.9,0.6-1.9,1.4v0
			c0,0.9,1.2,1.3,2.5,1.7c1.5,0.5,3.2,1,3.2,2.8v0c0,1.9-1.5,2.9-3.5,2.9C261.1,501,259.6,500.4,258.5,499.5z"/>
		<path fill="#82BC00" d="M268.6,497v-6.1h1.5v5.7c0,1.8,1,3,2.7,3c1.7,0,2.9-1.2,2.9-3.1v-5.6h1.4v9.8h-1.4v-1.7
			c-0.7,1.1-1.7,1.9-3.4,1.9C270,501,268.6,499.4,268.6,497z"/>
		<path fill="#82BC00" d="M280.5,490.9h1.5v2.6c0.7-1.6,2.1-2.8,4-2.7v1.6h-0.1c-2.1,0-3.9,1.5-3.9,4.5v3.9h-1.5V490.9z"/>
		<path fill="#82BC00" d="M287.1,495.9L287.1,495.9c0-2.9,2-5.1,4.7-5.1c2.9,0,4.6,2.3,4.6,5.2c0,0.2,0,0.3,0,0.5h-7.8
			c0.2,2.1,1.7,3.3,3.5,3.3c1.3,0,2.3-0.6,3.1-1.4l0.9,0.8c-1,1.1-2.2,1.8-4,1.8C289.3,501,287.1,498.9,287.1,495.9z M294.9,495.3
			c-0.2-1.8-1.2-3.3-3.1-3.3c-1.7,0-3,1.4-3.2,3.3H294.9z"/>
		<path fill="#82BC00" d="M299,490.9h1.5v1.7c0.6-1,1.5-1.9,3.2-1.9c1.6,0,2.6,0.9,3.2,2c0.7-1.1,1.7-2,3.5-2c2.3,0,3.6,1.5,3.6,4
			v6.1h-1.5V495c0-1.9-1-3-2.5-3c-1.5,0-2.7,1.1-2.7,3v5.7h-1.5V495c0-1.8-1-2.9-2.5-2.9c-1.6,0-2.7,1.3-2.7,3.1v5.6H299V490.9z"/>
		<path fill="#82BC00" d="M316.4,495.9L316.4,495.9c0-2.9,2-5.1,4.7-5.1c2.9,0,4.6,2.3,4.6,5.2c0,0.2,0,0.3,0,0.5h-7.8
			c0.2,2.1,1.7,3.3,3.5,3.3c1.3,0,2.3-0.6,3.1-1.4l0.9,0.8c-1,1.1-2.2,1.8-4,1.8C318.6,501,316.4,498.9,316.4,495.9z M324.3,495.3
			c-0.2-1.8-1.2-3.3-3.1-3.3c-1.7,0-3,1.4-3.2,3.3H324.3z"/>
		<path fill="#82BC00" d="M328.3,490.9h1.5v1.7c0.6-1.1,1.7-1.9,3.4-1.9c2.4,0,3.8,1.6,3.8,3.9v6.1h-1.5V495c0-1.8-1-3-2.7-3
			c-1.7,0-2.9,1.2-2.9,3.1v5.6h-1.5V490.9z"/>
		<path fill="#82BC00" d="M340.5,498.2v-5.9h-1.4v-1.3h1.4v-3h1.5v3h3.1v1.3H342v5.7c0,1.2,0.7,1.6,1.7,1.6c0.5,0,0.9-0.1,1.4-0.3
			v1.3c-0.5,0.3-1.1,0.4-1.8,0.4C341.7,500.9,340.5,500.2,340.5,498.2z"/>
		<path fill="#82BC00" d="M346.9,499.5l0.7-1c1.1,0.8,2.2,1.3,3.4,1.3c1.2,0,2-0.6,2-1.6v0c0-1-1.2-1.4-2.5-1.7
			c-1.5-0.4-3.2-1-3.2-2.8v0c0-1.7,1.4-2.8,3.3-2.8c1.2,0,2.5,0.4,3.5,1.1l-0.7,1.1c-0.9-0.6-2-1-2.9-1c-1.2,0-1.9,0.6-1.9,1.4v0
			c0,0.9,1.2,1.3,2.5,1.7c1.5,0.5,3.2,1,3.2,2.8v0c0,1.9-1.5,2.9-3.5,2.9C349.5,501,348,500.4,346.9,499.5z"/>
		<path fill="#82BC00" d="M362,490.9h1.6l2.6,7.9l2.6-7.9h1.2l2.7,7.9l2.6-7.9h1.5l-3.5,9.9H372l-2.6-7.8l-2.7,7.8h-1.3L362,490.9z"
			/>
		<path fill="#82BC00" d="M378.1,495.9L378.1,495.9c0-2.9,2-5.1,4.7-5.1c2.9,0,4.6,2.3,4.6,5.2c0,0.2,0,0.3,0,0.5h-7.8
			c0.2,2.1,1.7,3.3,3.5,3.3c1.3,0,2.3-0.6,3.1-1.4l0.9,0.8c-1,1.1-2.2,1.8-4,1.8C380.3,501,378.1,498.9,378.1,495.9z M385.9,495.3
			c-0.2-1.8-1.2-3.3-3.1-3.3c-1.7,0-3,1.4-3.2,3.3H385.9z"/>
		<path fill="#82BC00" d="M390,490.9h1.5v2.6c0.7-1.6,2.1-2.8,4-2.7v1.6h-0.1c-2.1,0-3.9,1.5-3.9,4.5v3.9H390V490.9z"/>
		<path fill="#82BC00" d="M396.6,495.9L396.6,495.9c0-2.9,2-5.1,4.7-5.1c2.9,0,4.6,2.3,4.6,5.2c0,0.2,0,0.3,0,0.5h-7.8
			c0.2,2.1,1.7,3.3,3.5,3.3c1.3,0,2.3-0.6,3.1-1.4l0.9,0.8c-1,1.1-2.2,1.8-4,1.8C398.8,501,396.6,498.9,396.6,495.9z M404.5,495.3
			c-0.2-1.8-1.2-3.3-3.1-3.3c-1.7,0-3,1.4-3.2,3.3H404.5z"/>
		<path fill="#82BC00" d="M414.7,498.2v-5.9h-1.4v-1.3h1.4v-3h1.5v3h3.1v1.3h-3.1v5.7c0,1.2,0.7,1.6,1.7,1.6c0.5,0,0.9-0.1,1.4-0.3
			v1.3c-0.5,0.3-1.1,0.4-1.8,0.4C415.9,500.9,414.7,500.2,414.7,498.2z"/>
		<path fill="#82BC00" d="M421.1,497.9L421.1,497.9c0-2.1,1.7-3.2,4.2-3.2c1.3,0,2.1,0.2,3,0.4v-0.3c0-1.8-1.1-2.7-2.9-2.7
			c-1.2,0-2.1,0.3-3,0.7l-0.4-1.2c1.1-0.5,2.1-0.8,3.6-0.8c1.4,0,2.5,0.4,3.2,1.1c0.7,0.7,1,1.6,1,2.9v6h-1.4v-1.5
			c-0.7,0.9-1.8,1.7-3.6,1.7C423,501,421.1,499.9,421.1,497.9z M428.4,497.2v-1c-0.7-0.2-1.7-0.4-2.9-0.4c-1.8,0-2.9,0.8-2.9,2v0
			c0,1.2,1.1,2,2.5,2C426.9,499.8,428.4,498.7,428.4,497.2z"/>
		<path fill="#82BC00" d="M432.9,486.9h1.5v9.6l5.3-5.5h1.8l-4.1,4.2l4.3,5.6h-1.7l-3.5-4.6l-2,2v2.6h-1.5V486.9z"/>
		<path fill="#82BC00" d="M442.6,495.9L442.6,495.9c0-2.9,2-5.1,4.7-5.1c2.9,0,4.6,2.3,4.6,5.2c0,0.2,0,0.3,0,0.5h-7.8
			c0.2,2.1,1.7,3.3,3.5,3.3c1.3,0,2.3-0.6,3.1-1.4l0.9,0.8c-1,1.1-2.2,1.8-4,1.8C444.8,501,442.6,498.9,442.6,495.9z M450.4,495.3
			c-0.2-1.8-1.2-3.3-3.1-3.3c-1.7,0-3,1.4-3.2,3.3H450.4z"/>
		<path fill="#82BC00" d="M454.5,490.9h1.5v1.7c0.6-1.1,1.7-1.9,3.4-1.9c2.4,0,3.8,1.6,3.8,3.9v6.1h-1.5V495c0-1.8-1-3-2.7-3
			c-1.7,0-2.9,1.2-2.9,3.1v5.6h-1.5V490.9z"/>
		<path fill="#82BC00" d="M471.1,497.9L471.1,497.9c0-2.1,1.7-3.2,4.2-3.2c1.3,0,2.1,0.2,3,0.4v-0.3c0-1.8-1.1-2.7-2.9-2.7
			c-1.2,0-2.1,0.3-3,0.7l-0.4-1.2c1.1-0.5,2.1-0.8,3.6-0.8c1.4,0,2.5,0.4,3.2,1.1c0.7,0.7,1,1.6,1,2.9v6h-1.4v-1.5
			c-0.7,0.9-1.8,1.7-3.6,1.7C473,501,471.1,499.9,471.1,497.9z M478.4,497.2v-1c-0.7-0.2-1.7-0.4-2.9-0.4c-1.8,0-2.9,0.8-2.9,2v0
			c0,1.2,1.1,2,2.5,2C476.9,499.8,478.4,498.7,478.4,497.2z"/>
		<path fill="#82BC00" d="M483.3,498.2v-5.9h-1.4v-1.3h1.4v-3h1.5v3h3.1v1.3h-3.1v5.7c0,1.2,0.7,1.6,1.7,1.6c0.5,0,0.9-0.1,1.4-0.3
			v1.3c-0.5,0.3-1.1,0.4-1.8,0.4C484.5,500.9,483.3,500.2,483.3,498.2z"/>
		<path fill="#82BC00" d="M497.6,498.9v1.9h-1.5v-13.9h1.5v6c0.8-1.2,2-2.2,3.8-2.2c2.4,0,4.7,1.9,4.7,5.1v0c0,3.2-2.3,5.1-4.7,5.1
			C499.5,501,498.4,500,497.6,498.9z M504.6,495.9L504.6,495.9c0-2.4-1.6-3.8-3.5-3.8c-1.8,0-3.6,1.5-3.6,3.8v0
			c0,2.3,1.7,3.8,3.6,3.8C503,499.7,504.6,498.3,504.6,495.9z"/>
		<path fill="#82BC00" d="M508,497.9L508,497.9c0-2.1,1.7-3.2,4.2-3.2c1.3,0,2.1,0.2,3,0.4v-0.3c0-1.8-1.1-2.7-2.9-2.7
			c-1.2,0-2.1,0.3-3,0.7l-0.4-1.2c1.1-0.5,2.1-0.8,3.6-0.8c1.4,0,2.5,0.4,3.2,1.1c0.7,0.7,1,1.6,1,2.9v6h-1.4v-1.5
			c-0.7,0.9-1.8,1.7-3.6,1.7C509.9,501,508,499.9,508,497.9z M515.3,497.2v-1c-0.7-0.2-1.7-0.4-2.9-0.4c-1.8,0-2.9,0.8-2.9,2v0
			c0,1.2,1.1,2,2.5,2C513.8,499.8,515.3,498.7,515.3,497.2z"/>
		<path fill="#82BC00" d="M518.9,499.5l0.7-1c1.1,0.8,2.2,1.3,3.4,1.3c1.2,0,2-0.6,2-1.6v0c0-1-1.2-1.4-2.5-1.7
			c-1.5-0.4-3.2-1-3.2-2.8v0c0-1.7,1.4-2.8,3.3-2.8c1.2,0,2.5,0.4,3.5,1.1l-0.7,1.1c-0.9-0.6-2-1-2.9-1c-1.2,0-1.9,0.6-1.9,1.4v0
			c0,0.9,1.2,1.3,2.5,1.7c1.5,0.5,3.2,1,3.2,2.8v0c0,1.9-1.5,2.9-3.5,2.9C521.6,501,520,500.4,518.9,499.5z"/>
		<path fill="#82BC00" d="M528.6,495.9L528.6,495.9c0-2.9,2-5.1,4.7-5.1c2.9,0,4.6,2.3,4.6,5.2c0,0.2,0,0.3,0,0.5h-7.8
			c0.2,2.1,1.7,3.3,3.5,3.3c1.3,0,2.3-0.6,3.1-1.4l0.9,0.8c-1,1.1-2.2,1.8-4,1.8C530.8,501,528.6,498.9,528.6,495.9z M536.4,495.3
			c-0.2-1.8-1.2-3.3-3.1-3.3c-1.7,0-3,1.4-3.2,3.3H536.4z"/>
		<path fill="#82BC00" d="M540.6,486.9h1.5v13.9h-1.5V486.9z"/>
		<path fill="#82BC00" d="M545.5,487.2h1.7v1.6h-1.7V487.2z M545.6,490.9h1.5v9.8h-1.5V490.9z"/>
		<path fill="#82BC00" d="M550.5,490.9h1.5v1.7c0.6-1.1,1.7-1.9,3.4-1.9c2.4,0,3.8,1.6,3.8,3.9v6.1h-1.5V495c0-1.8-1-3-2.7-3
			c-1.7,0-2.9,1.2-2.9,3.1v5.6h-1.5V490.9z"/>
		<path fill="#82BC00" d="M561.6,495.9L561.6,495.9c0-2.9,2-5.1,4.7-5.1c2.9,0,4.6,2.3,4.6,5.2c0,0.2,0,0.3,0,0.5H563
			c0.2,2.1,1.7,3.3,3.5,3.3c1.3,0,2.3-0.6,3.1-1.4l0.9,0.8c-1,1.1-2.2,1.8-4,1.8C563.8,501,561.6,498.9,561.6,495.9z M569.4,495.3
			c-0.2-1.8-1.2-3.3-3.1-3.3c-1.7,0-3,1.4-3.2,3.3H569.4z"/>
		<path fill="#82BC00" d="M578.4,497.9L578.4,497.9c0-2.1,1.7-3.2,4.2-3.2c1.3,0,2.1,0.2,3,0.4v-0.3c0-1.8-1.1-2.7-2.9-2.7
			c-1.2,0-2.1,0.3-3,0.7l-0.4-1.2c1.1-0.5,2.1-0.8,3.6-0.8c1.4,0,2.5,0.4,3.2,1.1c0.7,0.7,1,1.6,1,2.9v6h-1.4v-1.5
			c-0.7,0.9-1.8,1.7-3.6,1.7C580.2,501,578.4,499.9,578.4,497.9z M585.6,497.2v-1c-0.7-0.2-1.7-0.4-2.9-0.4c-1.8,0-2.9,0.8-2.9,2v0
			c0,1.2,1.1,2,2.5,2C584.1,499.8,585.6,498.7,585.6,497.2z"/>
		<path fill="#82BC00" d="M590.1,490.9h1.5v1.7c0.6-1.1,1.7-1.9,3.4-1.9c2.4,0,3.8,1.6,3.8,3.9v6.1h-1.5V495c0-1.8-1-3-2.7-3
			c-1.7,0-2.9,1.2-2.9,3.1v5.6h-1.5V490.9z"/>
		<path fill="#82BC00" d="M601.3,495.9L601.3,495.9c0-3.2,2.3-5.1,4.7-5.1c1.8,0,3,1,3.8,2.1v-5.9h1.5v13.9h-1.5v-2
			c-0.8,1.2-2,2.2-3.8,2.2C603.6,501,601.3,499.1,601.3,495.9z M609.8,495.9L609.8,495.9c0-2.3-1.7-3.8-3.6-3.8
			c-1.9,0-3.5,1.4-3.5,3.8v0c0,2.3,1.6,3.8,3.5,3.8C608,499.7,609.8,498.1,609.8,495.9z"/>
		<path fill="#82BC00" d="M620.1,486.9h1.5v5.8c0.6-1.1,1.7-1.9,3.4-1.9c2.4,0,3.8,1.6,3.8,3.9v6.1h-1.5V495c0-1.8-1-3-2.7-3
			c-1.7,0-2.9,1.2-2.9,3.1v5.6h-1.5V486.9z"/>
		<path fill="#82BC00" d="M631.2,495.9L631.2,495.9c0-2.8,2.2-5.2,5.1-5.2c2.9,0,5.1,2.3,5.1,5.1v0c0,2.8-2.2,5.1-5.1,5.1
			C633.4,501,631.2,498.7,631.2,495.9z M640,495.9L640,495.9c0-2.1-1.6-3.9-3.6-3.9c-2.1,0-3.6,1.7-3.6,3.8v0c0,2.1,1.6,3.8,3.6,3.8
			C638.5,499.7,640,498,640,495.9z"/>
		<path fill="#82BC00" d="M644,497v-6.1h1.5v5.7c0,1.8,1,3,2.7,3c1.7,0,2.9-1.2,2.9-3.1v-5.6h1.4v9.8h-1.4v-1.7
			c-0.7,1.1-1.7,1.9-3.4,1.9C645.3,501,644,499.4,644,497z"/>
		<path fill="#82BC00" d="M655.8,490.9h1.5v2.6c0.7-1.6,2.1-2.8,4-2.7v1.6h-0.1c-2.1,0-3.9,1.5-3.9,4.5v3.9h-1.5V490.9z"/>
		<path fill="#82BC00" d="M662.7,499.5l0.7-1c1.1,0.8,2.2,1.3,3.4,1.3c1.2,0,2-0.6,2-1.6v0c0-1-1.2-1.4-2.5-1.7
			c-1.5-0.4-3.2-1-3.2-2.8v0c0-1.7,1.4-2.8,3.3-2.8c1.2,0,2.5,0.4,3.5,1.1l-0.7,1.1c-0.9-0.6-2-1-2.9-1c-1.2,0-1.9,0.6-1.9,1.4v0
			c0,0.9,1.2,1.3,2.5,1.7c1.5,0.5,3.2,1,3.2,2.8v0c0,1.9-1.5,2.9-3.5,2.9C665.4,501,663.8,500.4,662.7,499.5z"/>
		<path fill="#82BC00" d="M680.4,488.9l-2.5,0.8l-0.4-1.2l3.2-1.1h1.1v13.4h-1.5V488.9z"/>
		<path fill="#82BC00" d="M684.7,502.4c0.9-0.3,1.3-0.8,1.3-1.7h-0.7v-2h1.7v1.7c0,1.5-0.7,2.3-2.1,2.6L684.7,502.4z"/>
		<path fill="#82BC00" d="M695.1,499.6l4.8-4.3c2-1.8,2.8-2.8,2.8-4.2c0-1.6-1.2-2.5-2.7-2.5c-1.5,0-2.5,0.8-3.6,2.3l-1.1-0.8
			c1.2-1.8,2.5-2.8,4.8-2.8c2.4,0,4.1,1.6,4.1,3.8v0c0,1.9-1,3.1-3.4,5.2l-3.6,3.2h7v1.4h-9.3V499.6z"/>
		<path fill="#82BC00" d="M706.5,502.4c1-0.3,1.3-0.8,1.3-1.7H707v-2h1.7v1.7c0,1.5-0.7,2.3-2.1,2.6L706.5,502.4z"/>
		<path fill="#82BC00" d="M724.1,497.6h-7l-0.4-1.1l7.5-9.1h1.3v9h2.1v1.3h-2.1v3.2h-1.5V497.6z M724.1,496.4v-6.9l-5.6,6.9H724.1z"
			/>
		<path fill="#82BC00" d="M729.6,502.4c1-0.3,1.3-0.8,1.3-1.7h-0.7v-2h1.7v1.7c0,1.5-0.7,2.3-2.1,2.6L729.6,502.4z"/>
		<path fill="#82BC00" d="M739.9,497.9L739.9,497.9c0-2.1,1.7-3.2,4.2-3.2c1.3,0,2.1,0.2,3,0.4v-0.3c0-1.8-1.1-2.7-2.9-2.7
			c-1.2,0-2.1,0.3-3,0.7l-0.4-1.2c1.1-0.5,2.1-0.8,3.6-0.8c1.4,0,2.5,0.4,3.2,1.1c0.7,0.7,1,1.6,1,2.9v6h-1.4v-1.5
			c-0.7,0.9-1.8,1.7-3.6,1.7C741.8,501,739.9,499.9,739.9,497.9z M747.2,497.2v-1c-0.7-0.2-1.7-0.4-2.9-0.4c-1.8,0-2.9,0.8-2.9,2v0
			c0,1.2,1.1,2,2.5,2C745.7,499.8,747.2,498.7,747.2,497.2z"/>
		<path fill="#82BC00" d="M751.7,490.9h1.5v1.7c0.6-1.1,1.7-1.9,3.4-1.9c2.4,0,3.8,1.6,3.8,3.9v6.1h-1.5V495c0-1.8-1-3-2.7-3
			c-1.7,0-2.9,1.2-2.9,3.1v5.6h-1.5V490.9z"/>
		<path fill="#82BC00" d="M762.8,495.9L762.8,495.9c0-3.2,2.3-5.1,4.7-5.1c1.8,0,3,1,3.8,2.1v-5.9h1.5v13.9h-1.5v-2
			c-0.8,1.2-2,2.2-3.8,2.2C765.1,501,762.8,499.1,762.8,495.9z M771.3,495.9L771.3,495.9c0-2.3-1.7-3.8-3.6-3.8
			c-1.9,0-3.5,1.4-3.5,3.8v0c0,2.3,1.6,3.8,3.5,3.8C769.6,499.7,771.3,498.1,771.3,495.9z"/>
		<path fill="#82BC00" d="M781,497.2L781,497.2c0-1.6,1.1-2.7,2.7-3.3c-1.2-0.6-2.3-1.5-2.3-3.1v0c0-2.1,2.1-3.5,4.5-3.5
			s4.5,1.5,4.5,3.5v0c0,1.5-1,2.5-2.3,3.1c1.6,0.6,2.7,1.7,2.7,3.2v0c0,2.3-2.2,3.8-5,3.8C783.2,501,781,499.4,781,497.2z
			 M789.5,497.2L789.5,497.2c0-1.5-1.5-2.6-3.5-2.6s-3.5,1-3.5,2.5v0c0,1.3,1.3,2.5,3.5,2.5S789.5,498.5,789.5,497.2z M789.1,490.9
			L789.1,490.9c0-1.3-1.3-2.3-3-2.3s-3,1-3,2.3v0c0,1.4,1.3,2.4,3,2.4C787.7,493.4,789.1,492.4,789.1,490.9z"/>
		<path fill="#82BC00" d="M793.5,498.8h1.7v2h-1.7V498.8z"/>
	</g>
	<g>
		<g enable-background="new    ">
			<path fill="#060E9F" d="M7.1,377.7v-1.3l6.2-4.1l-6.2-4.1v-1.3h11.4v1.3H9.2l6.1,4.1v0.1l-6.1,4.1h9.2v1.2H7.1z"/>
			<path fill="#060E9F" d="M14.3,364.3L14.3,364.3c-2.5,0-4.4-1.7-4.4-4c0-2.5,2-3.9,4.4-3.9c0.2,0,0.3,0,0.4,0v6.7
				c1.8-0.2,2.8-1.5,2.8-3c0-1.2-0.5-2-1.2-2.6l0.7-0.8c0.9,0.8,1.6,1.9,1.6,3.5C18.6,362.5,16.9,364.3,14.3,364.3z M13.8,357.7
				c-1.5,0.1-2.9,1-2.9,2.7c0,1.5,1.2,2.6,2.9,2.7V357.7z"/>
			<path fill="#060E9F" d="M16,354.8L16,354.8c-1.8,0-2.7-1.5-2.7-3.6c0-1.1,0.1-1.8,0.4-2.6h-0.3c-1.5,0-2.3,0.9-2.3,2.5
				c0,1,0.3,1.8,0.6,2.5l-1,0.4c-0.4-0.9-0.7-1.8-0.7-3.1c0-1.2,0.3-2.1,0.9-2.7c0.6-0.6,1.4-0.9,2.5-0.9h5.1v1.2h-1.3
				c0.8,0.6,1.4,1.6,1.4,3C18.6,353.3,17.7,354.8,16,354.8z M15.4,348.6h-0.8c-0.2,0.6-0.4,1.4-0.4,2.5c0,1.6,0.7,2.5,1.7,2.5h0
				c1.1,0,1.7-1,1.7-2.1C17.6,349.9,16.7,348.6,15.4,348.6z"/>
			<path fill="#060E9F" d="M10.1,344.8v-1.2h1.5c-0.9-0.6-1.6-1.4-1.6-2.9c0-2,1.4-3.2,3.4-3.2h5.2v1.2h-4.9c-1.6,0-2.5,0.8-2.5,2.3
				c0,1.4,1.1,2.5,2.6,2.5h4.8v1.2H10.1z"/>
			<path fill="#060E9F" d="M12.8,330.2L12.8,330.2c-3.2,0-5.9-2.4-5.9-5.7c0-2.1,0.7-3.3,1.8-4.4l0.9,0.9c-0.9,1-1.6,2-1.6,3.6
				c0,2.5,2,4.4,4.7,4.4h0c2.6,0,4.7-1.9,4.7-4.4c0-1.6-0.6-2.6-1.6-3.7l0.8-0.8c1.2,1.2,2,2.5,2,4.5
				C18.6,327.8,16.1,330.2,12.8,330.2z"/>
			<path fill="#060E9F" d="M14.3,318.6L14.3,318.6c-2.4,0-4.4-1.9-4.4-4.4c0-2.5,2-4.4,4.4-4.4h0c2.4,0,4.4,1.9,4.4,4.4
				C18.6,316.8,16.7,318.6,14.3,318.6z M14.3,311.1L14.3,311.1c-1.8,0-3.3,1.3-3.3,3.1c0,1.8,1.5,3.1,3.2,3.1h0
				c1.8,0,3.3-1.3,3.3-3.1C17.5,312.4,16.1,311.1,14.3,311.1z"/>
			<path fill="#060E9F" d="M10.1,307.6v-1.2h2.2c-1.4-0.6-2.4-1.8-2.3-3.4h1.3v0.1c0,1.8,1.3,3.3,3.8,3.3h3.3v1.2H10.1z"/>
			<path fill="#060E9F" d="M10.1,301v-1.2h1.5c-0.9-0.6-1.6-1.4-1.6-2.9c0-2,1.4-3.2,3.4-3.2h5.2v1.2h-4.9c-1.6,0-2.5,0.8-2.5,2.3
				c0,1.4,1.1,2.5,2.6,2.5h4.8v1.2H10.1z"/>
			<path fill="#060E9F" d="M14.3,291.5L14.3,291.5c-2.5,0-4.4-1.7-4.4-4c0-2.5,2-3.9,4.4-3.9c0.2,0,0.3,0,0.4,0v6.7
				c1.8-0.2,2.8-1.5,2.8-3c0-1.2-0.5-2-1.2-2.6l0.7-0.8c0.9,0.8,1.6,1.9,1.6,3.5C18.6,289.7,16.9,291.5,14.3,291.5z M13.8,284.9
				c-1.5,0.1-2.9,1-2.9,2.7c0,1.5,1.2,2.6,2.9,2.7V284.9z"/>
			<path fill="#060E9F" d="M14.3,281.9L14.3,281.9c-2.4,0-4.4-1.9-4.4-4.4c0-2.5,2-4.4,4.4-4.4h0c2.4,0,4.4,1.9,4.4,4.4
				C18.6,280.1,16.7,281.9,14.3,281.9z M14.3,274.5L14.3,274.5c-1.8,0-3.3,1.3-3.3,3.1c0,1.8,1.5,3.1,3.2,3.1h0
				c1.8,0,3.3-1.3,3.3-3.1C17.5,275.7,16.1,274.5,14.3,274.5z"/>
			<path fill="#060E9F" d="M10.1,270.9v-1.2h1.4c-0.8-0.6-1.6-1.3-1.6-2.7c0-1.4,0.7-2.2,1.7-2.7c-0.9-0.6-1.7-1.5-1.7-3
				c0-1.9,1.3-3.1,3.4-3.1h5.2v1.3h-4.9c-1.6,0-2.5,0.8-2.5,2.2c0,1.3,0.9,2.3,2.6,2.3h4.8v1.2h-4.9c-1.6,0-2.5,0.8-2.5,2.2
				c0,1.3,1.1,2.3,2.6,2.3h4.8v1.2H10.1z"/>
			<path fill="#060E9F" d="M14.3,256L14.3,256c-2.5,0-4.4-1.7-4.4-4c0-2.5,2-3.9,4.4-3.9c0.2,0,0.3,0,0.4,0v6.7
				c1.8-0.2,2.8-1.5,2.8-3c0-1.2-0.5-2-1.2-2.6l0.7-0.8c0.9,0.8,1.6,1.9,1.6,3.5C18.6,254.1,16.9,256,14.3,256z M13.8,249.3
				c-1.5,0.1-2.9,1-2.9,2.7c0,1.5,1.2,2.6,2.9,2.7V249.3z"/>
			<path fill="#060E9F" d="M16.2,245.4h-5.1v1.2h-1.1v-1.2H7.5v-1.3h2.5v-2.7h1.1v2.7h4.9c1,0,1.4-0.6,1.4-1.4
				c0-0.4-0.1-0.8-0.3-1.2h1.1c0.2,0.4,0.4,0.9,0.4,1.5C18.6,244.4,17.9,245.4,16.2,245.4z"/>
			<path fill="#060E9F" d="M10.1,239.3V238h2.2c-1.4-0.6-2.4-1.8-2.3-3.4h1.3v0.1c0,1.8,1.3,3.3,3.8,3.3h3.3v1.2H10.1z"/>
			<path fill="#060E9F" d="M10.1,226.4v-1.3l8.7,3.5c1.7,0.7,2.4,1.5,2.4,2.8c0,0.7-0.1,1.2-0.4,1.8l-1-0.4c0.2-0.4,0.3-0.8,0.3-1.3
				c0-0.7-0.4-1.2-1.6-1.7l-8.4,3.8v-1.4l7-3.1L10.1,226.4z"/>
			<path fill="#060E9F" d="M10.1,219.1v-1.4l7-2.8l-7-2.8v-1.3l8.5,3.7v1.1L10.1,219.1z"/>
			<path fill="#060E9F" d="M16,209.7L16,209.7c-1.8,0-2.7-1.5-2.7-3.6c0-1.1,0.1-1.8,0.4-2.6h-0.3c-1.5,0-2.3,0.9-2.3,2.5
				c0,1,0.3,1.8,0.6,2.5l-1,0.4c-0.4-0.9-0.7-1.8-0.7-3.1c0-1.2,0.3-2.1,0.9-2.7c0.6-0.6,1.4-0.9,2.5-0.9h5.1v1.2h-1.3
				c0.8,0.6,1.4,1.6,1.4,3C18.6,208.2,17.7,209.7,16,209.7z M15.4,203.6h-0.8c-0.2,0.6-0.4,1.4-0.4,2.5c0,1.6,0.7,2.5,1.7,2.5h0
				c1.1,0,1.7-1,1.7-2.1C17.6,204.8,16.7,203.6,15.4,203.6z"/>
			<path fill="#060E9F" d="M6.6,199.6v-1.3h11.9v1.3H6.6z"/>
			<path fill="#060E9F" d="M15.3,195.6h-5.2v-1.3H15c1.6,0,2.5-0.8,2.5-2.3c0-1.4-1.1-2.5-2.6-2.5h-4.8v-1.2h8.4v1.2H17
				c0.9,0.6,1.6,1.4,1.6,2.9C18.6,194.4,17.3,195.6,15.3,195.6z"/>
			<path fill="#060E9F" d="M14.3,186L14.3,186c-2.5,0-4.4-1.7-4.4-4c0-2.5,2-3.9,4.4-3.9c0.2,0,0.3,0,0.4,0v6.7
				c1.8-0.2,2.8-1.5,2.8-3c0-1.2-0.5-2-1.2-2.6l0.7-0.8c0.9,0.8,1.6,1.9,1.6,3.5C18.6,184.1,16.9,186,14.3,186z M13.8,179.3
				c-1.5,0.1-2.9,1-2.9,2.7c0,1.5,1.2,2.6,2.9,2.7V179.3z"/>
		</g>
	</g>
	<g enable-background="new    ">
		<path fill="#060E9F" d="M269.5,96.6l-1.8,2.4v0l2.9-0.4v1.3l-2.9-0.3v0l1.8,2.3l-1.2,0.7l-1.2-2.7h0l-1.3,2.7l-1.1-0.7l1.8-2.3v0
			l-2.8,0.4v-1.3l2.8,0.4v0l-1.8-2.3L266,96l1.2,2.7h0l1.2-2.7L269.5,96.6z"/>
	</g>
	<g enable-background="new    ">
		<path fill="#060E9F" d="M395.3,142.7l-1.8,2.4v0l2.9-0.4v1.3l-2.9-0.3v0l1.8,2.3l-1.2,0.7l-1.2-2.7h0l-1.3,2.7l-1.1-0.7l1.8-2.3v0
			l-2.8,0.4v-1.3l2.8,0.4v0l-1.8-2.3l1.2-0.7l1.2,2.7h0l1.2-2.7L395.3,142.7z"/>
	</g>
	<g enable-background="new    ">
		<path fill="#060E9F" d="M523.5,196.5l-1.8,2.4v0l2.9-0.4v1.3l-2.9-0.3v0l1.8,2.3l-1.2,0.7l-1.2-2.7h0l-1.3,2.7l-1.1-0.7l1.8-2.3v0
			l-2.8,0.4v-1.3l2.8,0.4v0l-1.8-2.3l1.2-0.7l1.2,2.7h0l1.2-2.7L523.5,196.5z"/>
	</g>
	<g enable-background="new    ">
		<path fill="#060E9F" d="M649.3,154.3l-1.8,2.4v0l2.9-0.4v1.3l-2.9-0.3v0l1.8,2.3l-1.2,0.7l-1.2-2.7h0l-1.2,2.7l-1.1-0.7l1.8-2.3v0
			l-2.8,0.4v-1.3l2.8,0.4v0l-1.8-2.3l1.2-0.7l1.2,2.7h0l1.2-2.7L649.3,154.3z"/>
	</g>
	<g enable-background="new    ">
		<path fill="#060E9F" d="M612.5,211.1l-1.9,2.1v0l2.6-0.3L613,214l-2.4-0.3v0l1.4,2.1l-1.1,0.6L610,214h0l-1.3,2.4l-0.9-0.6
			l1.8-2.1v0l-2.5,0.3l0.2-1.2l2.4,0.3v0l-1.4-2.1l1.1-0.6l0.8,2.4h0l1.3-2.4L612.5,211.1z"/>
		<path fill="#060E9F" d="M615.7,225.5l1.6-8.7c0.2-1,0.3-2.1,0.5-2.9h1.3l-0.2,1.5h0c0.7-1.1,1.8-1.7,3-1.7c1.8,0,2.5,1.5,2.5,3
			c0,2.9-2.1,5.6-4.8,5.6c-0.9,0-1.5-0.2-1.8-0.4h0l-0.7,3.6H615.7z M618,220.8c0.4,0.3,0.9,0.5,1.6,0.5c1.8,0,3.3-2.3,3.3-4.4
			c0-0.9-0.4-1.9-1.6-1.9c-1.1,0-2.5,1.3-2.9,3.6L618,220.8z"/>
	</g>
	<g enable-background="new    ">
		<path fill="#060E9F" d="M626,217.2l7.9-4.1v1.2l-6.6,3.3v0l6.6,3.3v1.2l-7.9-4.1V217.2z"/>
		<path fill="#060E9F" d="M635.9,221.3c0-0.6,0.4-1.1,1-1.1s1,0.4,1,1.1c0,0.6-0.4,1.1-1,1.1C636.3,222.3,635.9,221.9,635.9,221.3z"
			/>
		<path fill="#060E9F" d="M646.6,216.5c0,3.8-1.4,5.8-3.8,5.8c-2.2,0-3.6-2-3.7-5.7c0-3.7,1.6-5.7,3.8-5.7
			C645.3,210.9,646.6,213,646.6,216.5z M640.6,216.7c0,2.9,0.9,4.5,2.2,4.5c1.5,0,2.3-1.8,2.3-4.6c0-2.7-0.7-4.5-2.2-4.5
			C641.6,212.1,640.6,213.7,640.6,216.7z"/>
		<path fill="#060E9F" d="M654.6,212.3h-4.2l-0.4,2.8c0.3,0,0.5-0.1,0.9-0.1c0.9,0,1.7,0.2,2.4,0.6c0.9,0.5,1.6,1.4,1.6,2.8
			c0,2.2-1.7,3.8-4.1,3.8c-1.2,0-2.2-0.3-2.8-0.7l0.4-1.1c0.5,0.3,1.4,0.6,2.4,0.6c1.4,0,2.6-0.9,2.6-2.4c0-1.4-1-2.4-3.2-2.4
			c-0.6,0-1.1,0.1-1.5,0.1l0.7-5.3h5.3V212.3z"/>
	</g>
</g>
<g id="Toggle_Button">
</g>
</svg>
