<?xml version="1.0" encoding="utf-8"?>
<!-- Generator: Adobe Illustrator 17.1.0, SVG Export Plug-In . SVG Version: 6.00 Build 0)  -->
<!DOCTYPE svg PUBLIC "-//W3C//DTD SVG 1.0//EN" "http://www.w3.org/TR/2001/REC-SVG-20010904/DTD/svg10.dtd">
<svg version="1.0" id="Layer_1" xmlns="http://www.w3.org/2000/svg" xmlns:xlink="http://www.w3.org/1999/xlink" x="0px" y="0px"
	 width="30px" height="30px" viewBox="0 0 30 30" enable-background="new 0 0 30 30" xml:space="preserve">
<g>
	<path fill="#060E9F" d="M15,0C6.7,0,0,6.7,0,15s6.7,15,15,15s15-6.7,15-15S23.3,0,15,0z M15,27.1C8.3,27.1,2.9,21.7,2.9,15
		S8.3,2.9,15,2.9S27.1,8.3,27.1,15S21.7,27.1,15,27.1z"/>
	<polygon fill="#060E9F" points="19.4,8.6 15,13 10.6,8.6 8.6,10.6 13,15 8.6,19.4 10.6,21.4 15,17 19.4,21.4 21.4,19.4 17,15 
		21.4,10.6 	"/>
</g>
</svg>
