<?xml version="1.0" encoding="utf-8"?>
<!-- Generator: Adobe Illustrator 17.1.0, SVG Export Plug-In . SVG Version: 6.00 Build 0)  -->
<!DOCTYPE svg PUBLIC "-//W3C//DTD SVG 1.1//EN" "http://www.w3.org/Graphics/SVG/1.1/DTD/svg11.dtd">
<svg version="1.1" id="Layer_1" xmlns="http://www.w3.org/2000/svg" xmlns:xlink="http://www.w3.org/1999/xlink" x="0px" y="0px"
	 width="1024px" height="553px" viewBox="0 0 1024 553" enable-background="new 0 0 1024 553" xml:space="preserve">
<g id="background">
</g>
<g id="Wire_Frame_Template">
</g>
<g id="Modal_Popup_state_1_-_SPF_30">
</g>
<g id="Modal_Popup_state_2_-_SPF_30">
</g>
<g id="Charts">
	<rect x="1.1" y="436.5" fill="none" width="1022.9" height="49.8"/>
	<g enable-background="new    ">
		<path fill="#762264" d="M2.8,437.1h9.1v1.3H4.3v4.5h6.9v1.3H4.3v5.5H2.8V437.1z"/>
		<path fill="#762264" d="M13.6,445.1L13.6,445.1c0-2.7,2.1-4.9,4.9-4.9s4.9,2.2,4.9,4.8l0,0c0,2.6-2.1,4.9-4.9,4.9
			C15.7,450,13.6,447.8,13.6,445.1z M21.9,445.1L21.9,445.1c0-2-1.5-3.7-3.5-3.7S15,443,15,445l0,0c0,2,1.5,3.6,3.5,3.6
			C20.5,448.7,21.9,447.1,21.9,445.1z"/>
		<path fill="#762264" d="M25.9,440.4h1.4v2.4c0.7-1.6,2-2.7,3.8-2.6v1.5H31c-2,0-3.7,1.5-3.7,4.3v3.7h-1.4V440.4z"/>
		<path fill="#762264" d="M33.7,447.3v-5.6h-1.3v-1.2h1.3v-2.8h1.4v2.8h3v1.2h-3v5.5c0,1.1,0.6,1.6,1.6,1.6c0.5,0,0.9-0.1,1.4-0.3
			v1.2c-0.5,0.3-1,0.4-1.7,0.4C34.9,449.9,33.7,449.2,33.7,447.3z"/>
		<path fill="#762264" d="M47.5,440.4H49l-3.9,9.7c-0.8,1.9-1.7,2.6-3.1,2.6c-0.8,0-1.4-0.2-2-0.5l0.5-1.1c0.5,0.2,0.9,0.3,1.5,0.3
			c0.8,0,1.4-0.4,1.9-1.8l-4.3-9.3h1.5l3.4,7.8L47.5,440.4z"/>
		<path fill="#762264" d="M50.6,443.6h5v1.5h-5V443.6z"/>
		<path fill="#762264" d="M58.9,441.6h-1.3v-1.2h1.3v-0.8c0-1.1,0.3-1.9,0.8-2.4s1.2-0.7,2-0.7c0.7,0,1.1,0.1,1.5,0.2v1.2
			c-0.5-0.1-0.9-0.2-1.4-0.2c-1.1,0-1.6,0.7-1.6,2v0.8h3v1.2h-2.9v8.1h-1.4C58.9,449.8,58.9,441.6,58.9,441.6z M65,436.8h1.6v1.5H65
			V436.8z M65.1,440.4h1.4v9.4h-1.4V440.4z"/>
		<path fill="#762264" d="M68.9,440.4h1.5l3.1,7.8l3.2-7.8h1.5l-4.1,9.4h-1.2L68.9,440.4z"/>
		<path fill="#762264" d="M79.3,445.1L79.3,445.1c0-2.7,1.9-4.9,4.5-4.9c2.8,0,4.4,2.2,4.4,4.9c0,0.2,0,0.3,0,0.5h-7.4
			c0.2,2,1.6,3.2,3.3,3.2c1.3,0,2.2-0.5,2.9-1.3l0.9,0.8c-0.9,1-2.1,1.8-3.9,1.8C81.4,450,79.3,448,79.3,445.1z M86.7,444.6
			c-0.1-1.7-1.1-3.2-3-3.2c-1.6,0-2.9,1.4-3,3.2H86.7z"/>
		<path fill="#762264" d="M95.2,448.6l0.7-1c1,0.8,2.1,1.2,3.2,1.2s1.9-0.6,1.9-1.5l0,0c0-0.9-1.1-1.3-2.3-1.6
			c-1.5-0.4-3.1-0.9-3.1-2.6l0,0c0-1.6,1.3-2.7,3.2-2.7c1.1,0,2.4,0.4,3.4,1l-0.6,1c-0.9-0.6-1.9-0.9-2.8-0.9
			c-1.1,0-1.8,0.6-1.8,1.4l0,0c0,0.9,1.2,1.2,2.4,1.6c1.4,0.4,3,1,3,2.7l0,0c0,1.8-1.5,2.8-3.3,2.8
			C97.8,449.9,96.3,449.4,95.2,448.6z"/>
		<path fill="#762264" d="M104.9,446.2v-5.8h1.4v5.5c0,1.7,0.9,2.8,2.6,2.8c1.6,0,2.8-1.2,2.8-2.9v-5.4h1.4v9.4h-1.4v-1.6
			c-0.6,1-1.6,1.8-3.2,1.8C106.2,450,104.9,448.4,104.9,446.2z"/>
		<path fill="#762264" d="M117.6,448v1.8h-1.4v-13.2h1.4v5.7c0.8-1.1,1.9-2.1,3.6-2.1c2.2,0,4.5,1.8,4.5,4.8l0,0
			c0,3.1-2.2,4.9-4.5,4.9C119.4,450,118.3,449,117.6,448z M124.2,445.1L124.2,445.1c0-2.2-1.5-3.7-3.3-3.7c-1.7,0-3.4,1.5-3.4,3.6
			l0,0c0,2.2,1.6,3.6,3.4,3.6C122.7,448.7,124.2,447.4,124.2,445.1z"/>
		<path fill="#762264" d="M126.6,452.6v-1.1c0.2,0,0.5,0.1,0.7,0.1c0.6,0,1.1-0.4,1.1-1.2v-9.9h1.4v9.9c0,1.6-0.9,2.4-2.3,2.4
			C127.1,452.7,126.9,452.7,126.6,452.6z M128.2,436.8h1.6v1.5h-1.6V436.8z"/>
		<path fill="#762264" d="M132.4,445.1L132.4,445.1c0-2.7,1.9-4.9,4.5-4.9c2.8,0,4.4,2.2,4.4,4.9c0,0.2,0,0.3,0,0.5h-7.4
			c0.2,2,1.6,3.2,3.3,3.2c1.3,0,2.2-0.5,2.9-1.3l0.9,0.8c-0.9,1-2.1,1.8-3.9,1.8C134.5,450,132.4,448,132.4,445.1z M139.8,444.6
			c-0.1-1.7-1.1-3.2-3-3.2c-1.6,0-2.9,1.4-3,3.2H139.8z"/>
		<path fill="#762264" d="M143.1,445.1L143.1,445.1c0-2.7,2.1-4.9,4.8-4.9c1.8,0,2.9,0.7,3.7,1.7l-0.9,1c-0.7-0.8-1.6-1.4-2.8-1.4
			c-1.9,0-3.3,1.6-3.3,3.6l0,0c0,2,1.5,3.6,3.4,3.6c1.2,0,2.1-0.6,2.9-1.4l0.9,0.8c-0.9,1-2.1,1.8-3.8,1.8
			C145.2,450,143.1,447.8,143.1,445.1z"/>
		<path fill="#762264" d="M154.5,447.3v-5.6h-1.3v-1.2h1.3v-2.8h1.4v2.8h3v1.2h-3v5.5c0,1.1,0.6,1.6,1.6,1.6c0.5,0,0.9-0.1,1.4-0.3
			v1.2c-0.5,0.3-1,0.4-1.7,0.4C155.6,449.9,154.5,449.2,154.5,447.3z"/>
		<path fill="#762264" d="M160.6,448.6l0.7-1c1,0.8,2.1,1.2,3.2,1.2c1.1,0,1.9-0.6,1.9-1.5l0,0c0-0.9-1.1-1.3-2.3-1.6
			c-1.5-0.4-3.1-0.9-3.1-2.6l0,0c0-1.6,1.3-2.7,3.2-2.7c1.1,0,2.4,0.4,3.4,1l-0.6,1c-0.9-0.6-1.9-0.9-2.8-0.9
			c-1.1,0-1.8,0.6-1.8,1.4l0,0c0,0.9,1.2,1.2,2.4,1.6c1.4,0.4,3,1,3,2.7l0,0c0,1.8-1.5,2.8-3.3,2.8
			C163.1,449.9,161.6,449.4,160.6,448.6z"/>
		<path fill="#762264" d="M175.1,447L175.1,447c0-2,1.6-3.1,4-3.1c1.2,0,2,0.2,2.9,0.4V444c0-1.7-1-2.6-2.8-2.6
			c-1.1,0-2,0.3-2.8,0.7L176,441c1-0.5,2-0.8,3.4-0.8c1.3,0,2.3,0.3,3,1c0.6,0.6,1,1.5,1,2.7v5.7h-1.3v-1.4
			c-0.7,0.9-1.7,1.6-3.4,1.6C176.8,450,175.1,449,175.1,447z M182,446.3v-0.9c-0.7-0.2-1.6-0.4-2.8-0.4c-1.8,0-2.7,0.8-2.7,1.9l0,0
			c0,1.2,1.1,1.9,2.4,1.9C180.6,448.9,182,447.8,182,446.3z"/>
		<path fill="#762264" d="M186.2,451.4l0.6-1.1c1.1,0.8,2.3,1.2,3.6,1.2c2.1,0,3.4-1.1,3.4-3.3v-1.1c-0.8,1.1-2,2-3.7,2
			c-2.2,0-4.4-1.7-4.4-4.4l0,0c0-2.7,2.2-4.4,4.4-4.4c1.8,0,2.9,0.9,3.7,1.9v-1.7h1.4v7.7c0,1.4-0.4,2.6-1.2,3.3
			c-0.8,0.8-2.1,1.2-3.6,1.2C188.8,452.7,187.4,452.3,186.2,451.4z M193.8,444.6L193.8,444.6c0-2-1.7-3.2-3.4-3.2s-3.2,1.2-3.2,3.1
			l0,0c0,1.9,1.5,3.2,3.2,3.2C192.2,447.8,193.8,446.5,193.8,444.6z"/>
		<path fill="#762264" d="M197.7,445.1L197.7,445.1c0-2.7,1.9-4.9,4.5-4.9c2.8,0,4.4,2.2,4.4,4.9c0,0.2,0,0.3,0,0.5h-7.4
			c0.2,2,1.6,3.2,3.3,3.2c1.3,0,2.2-0.5,2.9-1.3l0.9,0.8c-0.9,1-2.1,1.8-3.9,1.8C199.8,450,197.7,448,197.7,445.1z M205.1,444.6
			c-0.1-1.7-1.1-3.2-3-3.2c-1.6,0-2.9,1.4-3,3.2H205.1z"/>
		<path fill="#762264" d="M208.5,445.1L208.5,445.1c0-3.1,2.2-4.9,4.5-4.9c1.7,0,2.9,0.9,3.6,2v-5.6h1.4v13.2h-1.4v-1.9
			c-0.8,1.1-1.9,2.1-3.6,2.1C210.7,450,208.5,448.2,208.5,445.1z M216.6,445.1L216.6,445.1c0-2.2-1.6-3.6-3.4-3.6
			c-1.8,0-3.3,1.3-3.3,3.6l0,0c0,2.2,1.5,3.6,3.3,3.6C214.9,448.7,216.6,447.2,216.6,445.1z"/>
		<path fill="#762264" d="M228.1,438.5l-2.4,0.7l-0.3-1.2l3.1-1.1h1v12.8h-1.4L228.1,438.5L228.1,438.5z"/>
		<path fill="#762264" d="M232.2,448.7l4.6-4.1c1.9-1.7,2.6-2.7,2.6-4c0-1.5-1.2-2.4-2.6-2.4c-1.4,0-2.4,0.8-3.4,2.2l-1-0.8
			c1.1-1.7,2.3-2.7,4.6-2.7s3.9,1.5,3.9,3.6l0,0c0,1.8-1,3-3.2,4.9l-3.4,3h6.7v1.3h-8.8L232.2,448.7L232.2,448.7z"/>
		<path fill="#762264" d="M256.2,440.4h1.5l-3.9,9.7c-0.8,1.9-1.7,2.6-3.1,2.6c-0.8,0-1.4-0.2-2-0.5l0.5-1.1
			c0.5,0.2,0.9,0.3,1.5,0.3c0.8,0,1.4-0.4,1.9-1.8l-4.3-9.3h1.5l3.4,7.8L256.2,440.4z"/>
		<path fill="#762264" d="M265.8,447.3v-5.6h-1.3v-1.2h1.3v-2.8h1.4v2.8h3v1.2h-3v5.5c0,1.1,0.6,1.6,1.6,1.6c0.5,0,0.9-0.1,1.4-0.3
			v1.2c-0.5,0.3-1,0.4-1.7,0.4C267,449.9,265.8,449.2,265.8,447.3z"/>
		<path fill="#762264" d="M271.8,445.1L271.8,445.1c0-2.7,2.1-4.9,4.9-4.9s4.9,2.2,4.9,4.8l0,0c0,2.6-2.1,4.9-4.9,4.9
			C273.8,450,271.8,447.8,271.8,445.1z M280.1,445.1L280.1,445.1c0-2-1.5-3.7-3.5-3.7s-3.4,1.6-3.4,3.6l0,0c0,2,1.5,3.6,3.5,3.6
			C278.7,448.7,280.1,447.1,280.1,445.1z"/>
		<path fill="#762264" d="M295.8,446.8h-6.7l-0.4-1l7.2-8.7h1.3v8.6h2v1.2h-2v3h-1.4V446.8z M295.8,445.6V439l-5.3,6.5h5.3V445.6z"
			/>
		<path fill="#762264" d="M301.1,448l0.9-1c1.1,1.1,2.3,1.7,3.6,1.7c1.8,0,3.1-1.2,3.1-2.8l0,0c0-1.6-1.3-2.7-3.1-2.7
			c-1.1,0-1.9,0.3-2.7,0.7l-1-0.6l0.4-6.2h7.3v1.3h-6l-0.3,4.1c0.7-0.3,1.4-0.6,2.5-0.6c2.5,0,4.4,1.4,4.4,3.9l0,0
			c0,2.5-1.9,4.2-4.5,4.2C303.8,450,302.2,449.1,301.1,448z"/>
		<path fill="#762264" d="M325.2,440.4h1.5l-3.9,9.7c-0.8,1.9-1.7,2.6-3.1,2.6c-0.8,0-1.4-0.2-2-0.5l0.5-1.1
			c0.5,0.2,0.9,0.3,1.5,0.3c0.8,0,1.4-0.4,1.9-1.8l-4.3-9.3h1.5l3.4,7.8L325.2,440.4z"/>
		<path fill="#762264" d="M333.7,445.1L333.7,445.1c0-2.7,2.1-4.9,4.8-4.9c1.8,0,2.9,0.7,3.7,1.7l-0.9,1c-0.7-0.8-1.6-1.4-2.8-1.4
			c-1.9,0-3.3,1.6-3.3,3.6l0,0c0,2,1.5,3.6,3.4,3.6c1.2,0,2.1-0.6,2.9-1.4l0.9,0.8c-0.9,1-2.1,1.8-3.8,1.8
			C335.8,450,333.7,447.8,333.7,445.1z"/>
		<path fill="#762264" d="M344.5,446.2v-5.8h1.4v5.5c0,1.7,0.9,2.8,2.6,2.8c1.6,0,2.8-1.2,2.8-2.9v-5.4h1.4v9.4h-1.4v-1.6
			c-0.6,1-1.6,1.8-3.2,1.8C345.8,450,344.5,448.4,344.5,446.2z"/>
		<path fill="#762264" d="M355.8,440.4h1.4v2.4c0.7-1.6,2-2.7,3.8-2.6v1.5h-0.1c-2,0-3.7,1.5-3.7,4.3v3.7h-1.4L355.8,440.4
			L355.8,440.4z"/>
		<path fill="#762264" d="M363.1,440.4h1.4v2.4c0.7-1.6,2-2.7,3.8-2.6v1.5h-0.1c-2,0-3.7,1.5-3.7,4.3v3.7h-1.4L363.1,440.4
			L363.1,440.4z"/>
		<path fill="#762264" d="M369.5,445.1L369.5,445.1c0-2.7,1.9-4.9,4.5-4.9c2.8,0,4.4,2.2,4.4,4.9c0,0.2,0,0.3,0,0.5H371
			c0.2,2,1.6,3.2,3.3,3.2c1.3,0,2.2-0.5,2.9-1.3l0.9,0.8c-0.9,1-2.1,1.8-3.9,1.8C371.6,450,369.5,448,369.5,445.1z M376.9,444.6
			c-0.1-1.7-1.1-3.2-3-3.2c-1.6,0-2.9,1.4-3,3.2H376.9z"/>
		<path fill="#762264" d="M380.8,440.4h1.4v1.6c0.6-1,1.6-1.8,3.2-1.8c2.3,0,3.6,1.5,3.6,3.7v5.8h-1.4v-5.5c0-1.7-0.9-2.8-2.6-2.8
			c-1.6,0-2.8,1.2-2.8,2.9v5.4h-1.4L380.8,440.4L380.8,440.4z"/>
		<path fill="#762264" d="M392.4,447.3v-5.6h-1.3v-1.2h1.3v-2.8h1.4v2.8h3v1.2h-3v5.5c0,1.1,0.6,1.6,1.6,1.6c0.5,0,0.9-0.1,1.4-0.3
			v1.2c-0.5,0.3-1,0.4-1.7,0.4C393.5,449.9,392.4,449.2,392.4,447.3z"/>
		<path fill="#762264" d="M399.4,436.5h1.4v13.2h-1.4V436.5z"/>
		<path fill="#762264" d="M411,440.4h1.5l-3.9,9.7c-0.8,1.9-1.7,2.6-3.1,2.6c-0.8,0-1.4-0.2-2-0.5l0.5-1.1c0.5,0.2,0.9,0.3,1.5,0.3
			c0.8,0,1.4-0.4,1.9-1.8l-4.3-9.3h1.5l3.4,7.8L411,440.4z"/>
		<path fill="#762264" d="M420.1,440.4h1.4v2.4c0.7-1.6,2-2.7,3.8-2.6v1.5h-0.1c-2,0-3.7,1.5-3.7,4.3v3.7h-1.4L420.1,440.4
			L420.1,440.4z"/>
		<path fill="#762264" d="M426.5,445.1L426.5,445.1c0-2.7,1.9-4.9,4.5-4.9c2.8,0,4.4,2.2,4.4,4.9c0,0.2,0,0.3,0,0.5H428
			c0.2,2,1.6,3.2,3.3,3.2c1.3,0,2.2-0.5,2.9-1.3l0.9,0.8c-0.9,1-2.1,1.8-3.9,1.8C428.6,450,426.5,448,426.5,445.1z M433.9,444.6
			c-0.1-1.7-1.1-3.2-3-3.2c-1.6,0-2.9,1.4-3,3.2H433.9z"/>
		<path fill="#762264" d="M437.2,445.1L437.2,445.1c0-2.7,2.1-4.9,4.8-4.9c1.8,0,2.9,0.7,3.7,1.7l-0.9,1c-0.7-0.8-1.6-1.4-2.8-1.4
			c-1.9,0-3.3,1.6-3.3,3.6l0,0c0,2,1.5,3.6,3.4,3.6c1.2,0,2.1-0.6,2.9-1.4l0.9,0.8c-0.9,1-2.1,1.8-3.8,1.8
			C439.3,450,437.2,447.8,437.2,445.1z"/>
		<path fill="#762264" d="M447.3,445.1L447.3,445.1c0-2.7,1.9-4.9,4.5-4.9c2.8,0,4.4,2.2,4.4,4.9c0,0.2,0,0.3,0,0.5h-7.4
			c0.2,2,1.6,3.2,3.3,3.2c1.3,0,2.2-0.5,2.9-1.3l0.9,0.8c-0.9,1-2.1,1.8-3.9,1.8C449.4,450,447.3,448,447.3,445.1z M454.7,444.6
			c-0.1-1.7-1.1-3.2-3-3.2c-1.6,0-2.9,1.4-3,3.2H454.7z"/>
		<path fill="#762264" d="M458.6,436.8h1.6v1.5h-1.6V436.8z M458.7,440.4h1.4v9.4h-1.4V440.4z"/>
		<path fill="#762264" d="M462.4,440.4h1.5l3.1,7.8l3.2-7.8h1.5l-4.1,9.4h-1.2L462.4,440.4z"/>
		<path fill="#762264" d="M474,436.8h1.6v1.5H474V436.8z M474.1,440.4h1.4v9.4h-1.4V440.4z"/>
		<path fill="#762264" d="M478.7,440.4h1.4v1.6c0.6-1,1.6-1.8,3.2-1.8c2.3,0,3.6,1.5,3.6,3.7v5.8h-1.4v-5.5c0-1.7-0.9-2.8-2.6-2.8
			c-1.6,0-2.8,1.2-2.8,2.9v5.4h-1.4L478.7,440.4L478.7,440.4z"/>
		<path fill="#762264" d="M489.7,451.4l0.6-1.1c1.1,0.8,2.3,1.2,3.6,1.2c2.1,0,3.4-1.1,3.4-3.3v-1.1c-0.8,1.1-2,2-3.7,2
			c-2.2,0-4.4-1.7-4.4-4.4l0,0c0-2.7,2.2-4.4,4.4-4.4c1.8,0,2.9,0.9,3.7,1.9v-1.7h1.4v7.7c0,1.4-0.4,2.6-1.2,3.3
			c-0.8,0.8-2.1,1.2-3.6,1.2S491,452.3,489.7,451.4z M497.4,444.6L497.4,444.6c0-2-1.7-3.2-3.4-3.2c-1.8,0-3.2,1.2-3.2,3.1l0,0
			c0,1.9,1.5,3.2,3.2,3.2C495.8,447.8,497.4,446.5,497.4,444.6z"/>
		<path fill="#762264" d="M506.6,447L506.6,447c0-2,1.6-3.1,4-3.1c1.2,0,2,0.2,2.9,0.4V444c0-1.7-1-2.6-2.8-2.6
			c-1.1,0-2,0.3-2.8,0.7l-0.4-1.1c1-0.5,2-0.8,3.4-0.8c1.3,0,2.3,0.3,3,1c0.6,0.6,1,1.5,1,2.7v5.7h-1.3v-1.4
			c-0.7,0.9-1.7,1.6-3.4,1.6C508.4,450,506.6,449,506.6,447z M513.5,446.3v-0.9c-0.7-0.2-1.6-0.4-2.8-0.4c-1.8,0-2.7,0.8-2.7,1.9
			l0,0c0,1.2,1.1,1.9,2.4,1.9C512.1,448.9,513.5,447.8,513.5,446.3z"/>
		<path fill="#762264" d="M517.2,445.1L517.2,445.1c0-2.7,2.1-4.9,4.8-4.9c1.8,0,2.9,0.7,3.7,1.7l-0.9,1c-0.7-0.8-1.6-1.4-2.8-1.4
			c-1.9,0-3.3,1.6-3.3,3.6l0,0c0,2,1.5,3.6,3.4,3.6c1.2,0,2.1-0.6,2.9-1.4l0.9,0.8c-0.9,1-2.1,1.8-3.8,1.8
			C519.3,450,517.2,447.8,517.2,445.1z"/>
		<path fill="#762264" d="M528.1,440.4h1.4v1.6c0.6-1,1.6-1.8,3.2-1.8c2.3,0,3.6,1.5,3.6,3.7v5.8h-1.4v-5.5c0-1.7-0.9-2.8-2.6-2.8
			c-1.6,0-2.8,1.2-2.8,2.9v5.4h-1.4V440.4z"/>
		<path fill="#762264" d="M538.7,445.1L538.7,445.1c0-2.7,1.9-4.9,4.5-4.9c2.8,0,4.4,2.2,4.4,4.9c0,0.2,0,0.3,0,0.5h-7.4
			c0.2,2,1.6,3.2,3.3,3.2c1.3,0,2.2-0.5,2.9-1.3l0.9,0.8c-0.9,1-2.1,1.8-3.9,1.8C540.8,450,538.7,448,538.7,445.1z M546.1,444.6
			c-0.1-1.7-1.1-3.2-3-3.2c-1.6,0-2.9,1.4-3,3.2H546.1z"/>
		<path fill="#762264" d="M555.9,447.3v-5.6h-1.3v-1.2h1.3v-2.8h1.4v2.8h3v1.2h-3v5.5c0,1.1,0.6,1.6,1.6,1.6c0.5,0,0.9-0.1,1.4-0.3
			v1.2c-0.5,0.3-1,0.4-1.7,0.4C557.1,449.9,555.9,449.2,555.9,447.3z"/>
		<path fill="#762264" d="M562.7,440.4h1.4v2.4c0.7-1.6,2-2.7,3.8-2.6v1.5h-0.1c-2,0-3.7,1.5-3.7,4.3v3.7h-1.4V440.4z"/>
		<path fill="#762264" d="M569.1,445.1L569.1,445.1c0-2.7,1.9-4.9,4.5-4.9c2.8,0,4.4,2.2,4.4,4.9c0,0.2,0,0.3,0,0.5h-7.4
			c0.2,2,1.6,3.2,3.3,3.2c1.3,0,2.2-0.5,2.9-1.3l0.9,0.8c-0.9,1-2.1,1.8-3.9,1.8C571.2,450,569.1,448,569.1,445.1z M576.5,444.6
			c-0.1-1.7-1.1-3.2-3-3.2c-1.6,0-2.9,1.4-3,3.2H576.5z"/>
		<path fill="#762264" d="M579.7,447L579.7,447c0-2,1.6-3.1,4-3.1c1.2,0,2,0.2,2.9,0.4V444c0-1.7-1-2.6-2.8-2.6
			c-1.1,0-2,0.3-2.8,0.7l-0.4-1.1c1-0.5,2-0.8,3.4-0.8c1.3,0,2.3,0.3,3,1c0.6,0.6,1,1.5,1,2.7v5.7h-1.3v-1.4
			c-0.7,0.9-1.7,1.6-3.4,1.6C581.4,450,579.7,449,579.7,447z M586.6,446.3v-0.9c-0.7-0.2-1.6-0.4-2.8-0.4c-1.8,0-2.7,0.8-2.7,1.9
			l0,0c0,1.2,1.1,1.9,2.4,1.9C585.2,448.9,586.6,447.8,586.6,446.3z"/>
		<path fill="#762264" d="M591.3,447.3v-5.6H590v-1.2h1.3v-2.8h1.4v2.8h3v1.2h-3v5.5c0,1.1,0.6,1.6,1.6,1.6c0.5,0,0.9-0.1,1.4-0.3
			v1.2c-0.5,0.3-1,0.4-1.7,0.4C592.4,449.9,591.3,449.2,591.3,447.3z"/>
		<path fill="#762264" d="M598.1,440.4h1.4v1.6c0.6-0.9,1.4-1.8,3-1.8c1.5,0,2.5,0.8,3,1.9c0.7-1,1.7-1.9,3.3-1.9
			c2.2,0,3.5,1.4,3.5,3.8v5.8h-1.4v-5.5c0-1.8-0.9-2.8-2.4-2.8c-1.4,0-2.6,1-2.6,2.9v5.4h-1.4v-5.5c0-1.8-0.9-2.8-2.4-2.8
			s-2.6,1.2-2.6,2.9v5.3h-1.4L598.1,440.4L598.1,440.4z"/>
		<path fill="#762264" d="M614.7,445.1L614.7,445.1c0-2.7,1.9-4.9,4.5-4.9c2.8,0,4.4,2.2,4.4,4.9c0,0.2,0,0.3,0,0.5h-7.4
			c0.2,2,1.6,3.2,3.3,3.2c1.3,0,2.2-0.5,2.9-1.3l0.9,0.8c-0.9,1-2.1,1.8-3.9,1.8C616.8,450,614.7,448,614.7,445.1z M622.2,444.6
			c-0.1-1.7-1.1-3.2-3-3.2c-1.6,0-2.9,1.4-3,3.2H622.2z"/>
		<path fill="#762264" d="M626,440.4h1.4v1.6c0.6-1,1.6-1.8,3.2-1.8c2.3,0,3.6,1.5,3.6,3.7v5.8h-1.4v-5.5c0-1.7-0.9-2.8-2.6-2.8
			c-1.6,0-2.8,1.2-2.8,2.9v5.4H626V440.4z"/>
		<path fill="#762264" d="M637.7,447.3v-5.6h-1.3v-1.2h1.3v-2.8h1.4v2.8h3v1.2h-3v5.5c0,1.1,0.6,1.6,1.6,1.6c0.5,0,0.9-0.1,1.4-0.3
			v1.2c-0.5,0.3-1,0.4-1.7,0.4C638.8,449.9,637.7,449.2,637.7,447.3z"/>
		<path fill="#762264" d="M649.8,446.2v-5.8h1.4v5.5c0,1.7,0.9,2.8,2.6,2.8c1.6,0,2.8-1.2,2.8-2.9v-5.4h1.4v9.4h-1.4v-1.6
			c-0.6,1-1.6,1.8-3.2,1.8C651.1,450,649.8,448.4,649.8,446.2z"/>
		<path fill="#762264" d="M660.3,448.6l0.7-1c1,0.8,2.1,1.2,3.2,1.2c1.1,0,1.9-0.6,1.9-1.5l0,0c0-0.9-1.1-1.3-2.3-1.6
			c-1.5-0.4-3.1-0.9-3.1-2.6l0,0c0-1.6,1.3-2.7,3.2-2.7c1.1,0,2.4,0.4,3.4,1l-0.6,1c-0.9-0.6-1.9-0.9-2.8-0.9
			c-1.1,0-1.8,0.6-1.8,1.4l0,0c0,0.9,1.2,1.2,2.4,1.6c1.4,0.4,3,1,3,2.7l0,0c0,1.8-1.5,2.8-3.3,2.8
			C662.8,449.9,661.4,449.4,660.3,448.6z"/>
		<path fill="#762264" d="M669.5,445.1L669.5,445.1c0-2.7,1.9-4.9,4.5-4.9c2.8,0,4.4,2.2,4.4,4.9c0,0.2,0,0.3,0,0.5H671
			c0.2,2,1.6,3.2,3.3,3.2c1.3,0,2.2-0.5,2.9-1.3l0.9,0.8c-0.9,1-2.1,1.8-3.9,1.8C671.6,450,669.5,448,669.5,445.1z M677,444.6
			c-0.1-1.7-1.1-3.2-3-3.2c-1.6,0-2.9,1.4-3,3.2H677z"/>
		<path fill="#762264" d="M680.3,445.1L680.3,445.1c0-3.1,2.2-4.9,4.5-4.9c1.7,0,2.9,0.9,3.6,2v-5.6h1.4v13.2h-1.4v-1.9
			c-0.8,1.1-1.9,2.1-3.6,2.1C682.5,450,680.3,448.2,680.3,445.1z M688.4,445.1L688.4,445.1c0-2.2-1.6-3.6-3.4-3.6
			c-1.8,0-3.3,1.3-3.3,3.6l0,0c0,2.2,1.5,3.6,3.3,3.6C686.7,448.7,688.4,447.2,688.4,445.1z"/>
		<path fill="#762264" d="M697.9,443.5L697.9,443.5c0-3.6,2.7-6.6,6.4-6.6c2.3,0,3.7,0.8,4.9,2l-1,1c-1.1-1-2.3-1.7-4-1.7
			c-2.8,0-4.9,2.3-4.9,5.2l0,0c0,2.9,2.1,5.2,4.9,5.2c1.7,0,2.9-0.7,4.1-1.8l0.9,0.9c-1.3,1.3-2.8,2.2-5.1,2.2
			C700.6,450,697.9,447.1,697.9,443.5z"/>
		<path fill="#762264" d="M710.9,445.1L710.9,445.1c0-2.7,1.9-4.9,4.5-4.9c2.8,0,4.4,2.2,4.4,4.9c0,0.2,0,0.3,0,0.5h-7.4
			c0.2,2,1.6,3.2,3.3,3.2c1.3,0,2.2-0.5,2.9-1.3l0.9,0.8c-0.9,1-2.1,1.8-3.9,1.8C713,450,710.9,448,710.9,445.1z M718.3,444.6
			c-0.1-1.7-1.1-3.2-3-3.2c-1.6,0-2.9,1.4-3,3.2H718.3z"/>
		<path fill="#762264" d="M722.7,447.3v-5.6h-1.3v-1.2h1.3v-2.8h1.4v2.8h3v1.2h-3v5.5c0,1.1,0.6,1.6,1.6,1.6c0.5,0,0.9-0.1,1.4-0.3
			v1.2c-0.5,0.3-1,0.4-1.7,0.4C723.8,449.9,722.7,449.2,722.7,447.3z"/>
		<path fill="#762264" d="M728.8,447L728.8,447c0-2,1.6-3.1,4-3.1c1.2,0,2,0.2,2.9,0.4V444c0-1.7-1-2.6-2.8-2.6
			c-1.1,0-2,0.3-2.8,0.7l-0.4-1.1c1-0.5,2-0.8,3.4-0.8c1.3,0,2.3,0.3,3,1c0.6,0.6,1,1.5,1,2.7v5.7h-1.3v-1.4
			c-0.7,0.9-1.7,1.6-3.4,1.6C730.5,450,728.8,449,728.8,447z M735.7,446.3v-0.9c-0.7-0.2-1.6-0.4-2.8-0.4c-1.8,0-2.7,0.8-2.7,1.9
			l0,0c0,1.2,1.1,1.9,2.4,1.9C734.3,448.9,735.7,447.8,735.7,446.3z"/>
		<path fill="#762264" d="M740,440.4h1.4v1.9c0.8-1.1,1.9-2.1,3.6-2.1c2.2,0,4.5,1.8,4.5,4.8l0,0c0,3.1-2.2,4.9-4.5,4.9
			c-1.7,0-2.9-0.9-3.6-2v4.7H740V440.4z M748,445.1L748,445.1c0-2.2-1.5-3.7-3.3-3.7c-1.7,0-3.4,1.5-3.4,3.6l0,0
			c0,2.2,1.6,3.6,3.4,3.6C746.5,448.7,748,447.4,748,445.1z"/>
		<path fill="#762264" d="M752,436.5h1.4v5.5c0.6-1,1.6-1.8,3.2-1.8c2.3,0,3.6,1.5,3.6,3.7v5.8h-1.4v-5.5c0-1.7-0.9-2.8-2.6-2.8
			c-1.6,0-2.8,1.2-2.8,2.9v5.4H752V436.5z"/>
		<path fill="#762264" d="M763.2,436.8h1.6v1.5h-1.6V436.8z M763.3,440.4h1.4v9.4h-1.4V440.4z"/>
		<path fill="#762264" d="M768,436.5h1.4v13.2H768V436.5z"/>
		<path fill="#762264" d="M771.6,440.1L771.6,440.1c0-1.7,1.4-3.2,3.1-3.2c1.8,0,3.1,1.4,3.1,3.1l0,0c0,1.7-1.4,3.2-3.1,3.2
			S771.6,441.8,771.6,440.1z M777.5,440.1L777.5,440.1c0-1.6-1.2-2.8-2.8-2.8s-2.8,1.3-2.8,2.8l0,0c0,1.5,1.2,2.8,2.8,2.8
			S777.5,441.6,777.5,440.1z M773.5,438.4h1.4c0.7,0,1.2,0.3,1.2,1c0,0.5-0.3,0.9-0.7,1l0.9,1.2h-0.7l-0.8-1.1h-0.7v1.1h-0.6
			L773.5,438.4L773.5,438.4z M774.9,440c0.4,0,0.7-0.2,0.7-0.5s-0.2-0.5-0.7-0.5h-0.8v1H774.9z"/>
		<path fill="#762264" d="M785.6,437.1h4.4c4,0,6.7,2.7,6.7,6.3l0,0c0,3.6-2.8,6.3-6.7,6.3h-4.4V437.1z M787,438.4v10h3
			c3.2,0,5.2-2.2,5.2-5l0,0c0-2.8-2-5-5.2-5H787z"/>
		<path fill="#762264" d="M799,445.1L799,445.1c0-2.7,1.9-4.9,4.5-4.9c2.8,0,4.4,2.2,4.4,4.9c0,0.2,0,0.3,0,0.5h-7.4
			c0.2,2,1.6,3.2,3.3,3.2c1.3,0,2.2-0.5,2.9-1.3l0.9,0.8c-0.9,1-2.1,1.8-3.9,1.8C801.1,450,799,448,799,445.1z M806.4,444.6
			c-0.1-1.7-1.1-3.2-3-3.2c-1.6,0-2.9,1.4-3,3.2H806.4z"/>
		<path fill="#762264" d="M810.3,440.4h1.4v2.4c0.7-1.6,2-2.7,3.8-2.6v1.5h-0.1c-2,0-3.7,1.5-3.7,4.3v3.7h-1.4V440.4z"/>
		<path fill="#762264" d="M817.6,440.4h1.4v1.6c0.6-0.9,1.4-1.8,3-1.8c1.5,0,2.5,0.8,3,1.9c0.7-1,1.7-1.9,3.3-1.9
			c2.2,0,3.5,1.4,3.5,3.8v5.8h-1.4v-5.5c0-1.8-0.9-2.8-2.4-2.8c-1.4,0-2.6,1-2.6,2.9v5.4H824v-5.5c0-1.8-0.9-2.8-2.4-2.8
			s-2.6,1.2-2.6,2.9v5.3h-1.4V440.4z"/>
		<path fill="#762264" d="M834.1,447L834.1,447c0-2,1.6-3.1,4-3.1c1.2,0,2,0.2,2.9,0.4V444c0-1.7-1-2.6-2.8-2.6
			c-1.1,0-2,0.3-2.8,0.7L835,441c1-0.5,2-0.8,3.4-0.8c1.3,0,2.3,0.3,3,1c0.6,0.6,1,1.5,1,2.7v5.7H841v-1.4c-0.7,0.9-1.7,1.6-3.4,1.6
			C835.9,450,834.1,449,834.1,447z M841,446.3v-0.9c-0.7-0.2-1.6-0.4-2.8-0.4c-1.8,0-2.7,0.8-2.7,1.9l0,0c0,1.2,1.1,1.9,2.4,1.9
			C839.6,448.9,841,447.8,841,446.3z"/>
		<path fill="#762264" d="M845,443.5L845,443.5c0-3.6,2.7-6.6,6.4-6.6c2.3,0,3.7,0.8,4.9,2l-1,1c-1.1-1-2.3-1.7-4-1.7
			c-2.8,0-4.9,2.3-4.9,5.2l0,0c0,2.9,2.1,5.2,4.9,5.2c1.7,0,2.9-0.7,4.1-1.8l0.9,0.9c-1.3,1.3-2.8,2.2-5.1,2.2
			C847.7,450,845,447.1,845,443.5z"/>
		<path fill="#762264" d="M857.9,445.1L857.9,445.1c0-2.7,2.1-4.9,4.9-4.9c2.8,0,4.9,2.2,4.9,4.8l0,0c0,2.6-2.1,4.9-4.9,4.9
			C859.9,450,857.9,447.8,857.9,445.1z M866.2,445.1L866.2,445.1c0-2-1.5-3.7-3.5-3.7s-3.4,1.6-3.4,3.6l0,0c0,2,1.5,3.6,3.5,3.6
			C864.8,448.7,866.2,447.1,866.2,445.1z"/>
		<path fill="#762264" d="M870.2,440.4h1.4v1.6c0.6-1,1.6-1.8,3.2-1.8c2.3,0,3.6,1.5,3.6,3.7v5.8H877v-5.5c0-1.7-0.9-2.8-2.6-2.8
			c-1.6,0-2.8,1.2-2.8,2.9v5.4h-1.4V440.4z"/>
		<path fill="#762264" d="M881.8,447.3v-5.6h-1.3v-1.2h1.3v-2.8h1.4v2.8h3v1.2h-3v5.5c0,1.1,0.6,1.6,1.6,1.6c0.5,0,0.9-0.1,1.4-0.3
			v1.2c-0.5,0.3-1,0.4-1.7,0.4C882.9,449.9,881.8,449.2,881.8,447.3z"/>
		<path fill="#762264" d="M888.6,440.4h1.4v2.4c0.7-1.6,2-2.7,3.8-2.6v1.5h-0.1c-2,0-3.7,1.5-3.7,4.3v3.7h-1.4V440.4z"/>
		<path fill="#762264" d="M895,445.1L895,445.1c0-2.7,2.1-4.9,4.9-4.9c2.8,0,4.9,2.2,4.9,4.8l0,0c0,2.6-2.1,4.9-4.9,4.9
			C897,450,895,447.8,895,445.1z M903.3,445.1L903.3,445.1c0-2-1.5-3.7-3.5-3.7s-3.4,1.6-3.4,3.6l0,0c0,2,1.5,3.6,3.5,3.6
			C901.9,448.7,903.3,447.1,903.3,445.1z"/>
		<path fill="#762264" d="M907.4,436.5h1.4v13.2h-1.4V436.5z"/>
		<path fill="#762264" d="M912.7,437.9h-1.8v-0.8h4.4v0.8h-1.8v4.8h-0.8L912.7,437.9L912.7,437.9z M916.5,437.1h0.9l2,3.1l2-3.1h0.8
			v5.6h-0.8v-4.3l-2,3h-0.1l-2-3v4.3h-0.8L916.5,437.1L916.5,437.1z"/>
		<path fill="#762264" d="M930.2,437.1h9.1v1.3h-7.7v4.5h6.9v1.3h-6.9v5.5h-1.4L930.2,437.1L930.2,437.1z"/>
		<path fill="#762264" d="M941,445.1L941,445.1c0-2.7,2.1-4.9,4.9-4.9c2.8,0,4.9,2.2,4.9,4.8l0,0c0,2.6-2.1,4.9-4.9,4.9
			C943,450,941,447.8,941,445.1z M949.3,445.1L949.3,445.1c0-2-1.5-3.7-3.5-3.7s-3.4,1.6-3.4,3.6l0,0c0,2,1.5,3.6,3.5,3.6
			C947.9,448.7,949.3,447.1,949.3,445.1z"/>
		<path fill="#762264" d="M952.5,447L952.5,447c0-2,1.6-3.1,4-3.1c1.2,0,2,0.2,2.9,0.4V444c0-1.7-1-2.6-2.8-2.6
			c-1.1,0-2,0.3-2.8,0.7l-0.4-1.1c1-0.5,2-0.8,3.4-0.8c1.3,0,2.3,0.3,3,1c0.6,0.6,1,1.5,1,2.7v5.7h-1.3v-1.4
			c-0.7,0.9-1.7,1.6-3.4,1.6C954.3,450,952.5,449,952.5,447z M959.4,446.3v-0.9c-0.7-0.2-1.6-0.4-2.8-0.4c-1.8,0-2.7,0.8-2.7,1.9
			l0,0c0,1.2,1.1,1.9,2.4,1.9C958,448.9,959.4,447.8,959.4,446.3z"/>
		<path fill="#762264" d="M963.7,440.4h1.4v1.6c0.6-0.9,1.4-1.8,3-1.8c1.5,0,2.5,0.8,3,1.9c0.7-1,1.7-1.9,3.3-1.9
			c2.2,0,3.5,1.4,3.5,3.8v5.8h-1.4v-5.5c0-1.8-0.9-2.8-2.4-2.8c-1.4,0-2.6,1-2.6,2.9v5.4h-1.4v-5.5c0-1.8-0.9-2.8-2.4-2.8
			s-2.6,1.2-2.6,2.9v5.3h-1.4L963.7,440.4L963.7,440.4z"/>
	</g>
	<g enable-background="new    ">
		<path fill="#762264" d="M1.9,458.8h1.6L7,469.4l3.5-10.6h1.2l3.5,10.6l3.6-10.6h1.5l-4.5,12.8h-1.2l-3.5-10.3l-3.5,10.3H6.4
			L1.9,458.8z"/>
		<path fill="#762264" d="M20.7,468.8L20.7,468.8c0-2,1.6-3.1,4-3.1c1.2,0,2,0.2,2.9,0.4v-0.3c0-1.7-1-2.6-2.8-2.6
			c-1.1,0-2,0.3-2.8,0.7l-0.4-1.1c1-0.5,2-0.8,3.4-0.8c1.3,0,2.3,0.3,3,1c0.6,0.6,1,1.5,1,2.7v5.7h-1.3V470
			c-0.7,0.9-1.7,1.6-3.4,1.6C22.4,471.7,20.7,470.7,20.7,468.8z M27.6,468v-0.9c-0.7-0.2-1.6-0.4-2.8-0.4c-1.8,0-2.7,0.8-2.7,1.9
			l0,0c0,1.2,1.1,1.9,2.4,1.9C26.2,470.6,27.6,469.5,27.6,468z"/>
		<path fill="#762264" d="M31.1,470.3l0.7-1c1,0.8,2.1,1.2,3.2,1.2s1.9-0.6,1.9-1.5l0,0c0-0.9-1.1-1.3-2.3-1.6
			c-1.5-0.4-3.1-0.9-3.1-2.6l0,0c0-1.6,1.3-2.7,3.2-2.7c1.1,0,2.4,0.4,3.4,1l-0.6,1c-0.9-0.6-1.9-0.9-2.8-0.9
			c-1.1,0-1.8,0.6-1.8,1.4l0,0c0,0.9,1.2,1.2,2.4,1.6c1.4,0.4,3,1,3,2.7l0,0c0,1.8-1.5,2.8-3.3,2.8
			C33.6,471.7,32.1,471.1,31.1,470.3z"/>
		<path fill="#762264" d="M40.9,458.3h1.4v5.5c0.6-1,1.6-1.8,3.2-1.8c2.3,0,3.6,1.5,3.6,3.7v5.8h-1.4V466c0-1.7-0.9-2.8-2.6-2.8
			c-1.6,0-2.8,1.2-2.8,2.9v5.4h-1.4V458.3z"/>
		<path fill="#762264" d="M57.9,469v-5.6h-1.3v-1.2h1.3v-2.8h1.4v2.8h3v1.2h-3v5.5c0,1.1,0.6,1.6,1.6,1.6c0.5,0,0.9-0.1,1.4-0.3v1.2
			c-0.5,0.3-1,0.4-1.7,0.4C59.1,471.6,57.9,470.9,57.9,469z"/>
		<path fill="#762264" d="M64,462.1h1.5l2.5,7.5l2.5-7.5h1.2l2.5,7.5l2.5-7.5H78l-3.3,9.4h-1.2l-2.5-7.4l-2.5,7.4h-1.2L64,462.1z"/>
		<path fill="#762264" d="M80.4,458.5H82v1.5h-1.6V458.5z M80.5,462.1h1.4v9.4h-1.4V462.1z"/>
		<path fill="#762264" d="M84.5,466.8L84.5,466.8c0-2.7,2.1-4.9,4.8-4.9c1.8,0,2.9,0.7,3.7,1.7l-0.9,1c-0.7-0.8-1.6-1.4-2.8-1.4
			c-1.9,0-3.3,1.6-3.3,3.6l0,0c0,2,1.5,3.6,3.4,3.6c1.2,0,2.1-0.6,2.9-1.4l0.9,0.8c-0.9,1-2.1,1.8-3.8,1.8
			C86.6,471.7,84.5,469.5,84.5,466.8z"/>
		<path fill="#762264" d="M94.6,466.8L94.6,466.8c0-2.7,1.9-4.9,4.5-4.9c2.8,0,4.4,2.2,4.4,4.9c0,0.2,0,0.3,0,0.5H96
			c0.2,2,1.6,3.2,3.3,3.2c1.3,0,2.2-0.5,2.9-1.3l0.9,0.8c-0.9,1-2.1,1.8-3.9,1.8C96.7,471.7,94.6,469.7,94.6,466.8z M102,466.3
			c-0.1-1.7-1.1-3.2-3-3.2c-1.6,0-2.9,1.4-3,3.2H102z"/>
		<path fill="#762264" d="M110.8,466.8L110.8,466.8c0-3.1,2.2-4.9,4.5-4.9c1.7,0,2.9,0.9,3.6,2v-5.6h1.4v13.2h-1.4v-1.9
			c-0.8,1.1-1.9,2.1-3.6,2.1C113,471.7,110.8,469.9,110.8,466.8z M118.9,466.8L118.9,466.8c0-2.2-1.6-3.6-3.4-3.6s-3.3,1.3-3.3,3.6
			l0,0c0,2.2,1.5,3.6,3.3,3.6C117.2,470.4,118.9,469,118.9,466.8z"/>
		<path fill="#762264" d="M122.6,468.8L122.6,468.8c0-2,1.6-3.1,4-3.1c1.2,0,2,0.2,2.9,0.4v-0.3c0-1.7-1-2.6-2.8-2.6
			c-1.1,0-2,0.3-2.8,0.7l-0.4-1.1c1-0.5,2-0.8,3.4-0.8c1.3,0,2.3,0.3,3,1c0.6,0.6,1,1.5,1,2.7v5.7h-1.3V470
			c-0.7,0.9-1.7,1.6-3.4,1.6C124.4,471.7,122.6,470.7,122.6,468.8z M129.5,468v-0.9c-0.7-0.2-1.6-0.4-2.8-0.4
			c-1.8,0-2.7,0.8-2.7,1.9l0,0c0,1.2,1.1,1.9,2.4,1.9C128.1,470.6,129.5,469.5,129.5,468z"/>
		<path fill="#762264" d="M133.9,458.5h1.6v1.5h-1.6V458.5z M134,462.1h1.4v9.4H134V462.1z"/>
		<path fill="#762264" d="M138.7,458.3h1.4v13.2h-1.4V458.3z"/>
		<path fill="#762264" d="M150.4,462.1h1.5l-3.9,9.7c-0.8,1.9-1.7,2.6-3.1,2.6c-0.8,0-1.4-0.2-2-0.5l0.5-1.1
			c0.5,0.2,0.9,0.3,1.5,0.3c0.8,0,1.4-0.4,1.9-1.8l-4.3-9.3h1.5l3.4,7.8L150.4,462.1z"/>
		<path fill="#762264" d="M158.8,468.8L158.8,468.8c0-2,1.6-3.1,4-3.1c1.2,0,2,0.2,2.9,0.4v-0.3c0-1.7-1-2.6-2.8-2.6
			c-1.1,0-2,0.3-2.8,0.7l-0.4-1.1c1-0.5,2-0.8,3.4-0.8c1.3,0,2.3,0.3,3,1c0.6,0.6,1,1.5,1,2.7v5.7h-1.3V470
			c-0.7,0.9-1.7,1.6-3.4,1.6C160.5,471.7,158.8,470.7,158.8,468.8z M165.7,468v-0.9c-0.7-0.2-1.6-0.4-2.8-0.4
			c-1.8,0-2.7,0.8-2.7,1.9l0,0c0,1.2,1.1,1.9,2.4,1.9C164.3,470.6,165.7,469.5,165.7,468z"/>
		<path fill="#762264" d="M170,462.1h1.4v1.6c0.6-1,1.6-1.8,3.2-1.8c2.3,0,3.6,1.5,3.6,3.7v5.8h-1.4V466c0-1.7-0.9-2.8-2.6-2.8
			c-1.6,0-2.8,1.2-2.8,2.9v5.4H170V462.1z"/>
		<path fill="#762264" d="M180.6,466.8L180.6,466.8c0-3.1,2.2-4.9,4.5-4.9c1.7,0,2.9,0.9,3.6,2v-5.6h1.4v13.2h-1.4v-1.9
			c-0.8,1.1-1.9,2.1-3.6,2.1C182.8,471.7,180.6,469.9,180.6,466.8z M188.7,466.8L188.7,466.8c0-2.2-1.6-3.6-3.4-3.6
			c-1.8,0-3.3,1.3-3.3,3.6l0,0c0,2.2,1.5,3.6,3.3,3.6C187,470.4,188.7,469,188.7,466.8z"/>
		<path fill="#762264" d="M198.2,465.2L198.2,465.2c0-3.6,2.7-6.6,6.4-6.6c2.3,0,3.7,0.8,4.9,2l-1,1c-1.1-1-2.3-1.7-4-1.7
			c-2.8,0-4.9,2.3-4.9,5.2l0,0c0,2.9,2.1,5.2,4.9,5.2c1.7,0,2.9-0.7,4.1-1.8l0.9,0.9c-1.3,1.3-2.8,2.2-5.1,2.2
			C200.9,471.7,198.2,468.8,198.2,465.2z"/>
		<path fill="#762264" d="M211.2,466.8L211.2,466.8c0-2.7,1.9-4.9,4.5-4.9c2.8,0,4.4,2.2,4.4,4.9c0,0.2,0,0.3,0,0.5h-7.4
			c0.2,2,1.6,3.2,3.3,3.2c1.3,0,2.2-0.5,2.9-1.3l0.9,0.8c-0.9,1-2.1,1.8-3.9,1.8C213.3,471.7,211.2,469.7,211.2,466.8z M218.6,466.3
			c-0.1-1.7-1.1-3.2-3-3.2c-1.6,0-2.9,1.4-3,3.2H218.6z"/>
		<path fill="#762264" d="M223,469v-5.6h-1.3v-1.2h1.3v-2.8h1.4v2.8h3v1.2h-3v5.5c0,1.1,0.6,1.6,1.6,1.6c0.5,0,0.9-0.1,1.4-0.3v1.2
			c-0.5,0.3-1,0.4-1.7,0.4C224.1,471.6,223,470.9,223,469z"/>
		<path fill="#762264" d="M229.1,468.8L229.1,468.8c0-2,1.6-3.1,4-3.1c1.2,0,2,0.2,2.9,0.4v-0.3c0-1.7-1-2.6-2.8-2.6
			c-1.1,0-2,0.3-2.8,0.7l-0.4-1.1c1-0.5,2-0.8,3.4-0.8c1.3,0,2.3,0.3,3,1c0.6,0.6,1,1.5,1,2.7v5.7H236V470c-0.7,0.9-1.7,1.6-3.4,1.6
			C230.8,471.7,229.1,470.7,229.1,468.8z M236,468v-0.9c-0.7-0.2-1.6-0.4-2.8-0.4c-1.8,0-2.7,0.8-2.7,1.9l0,0c0,1.2,1.1,1.9,2.4,1.9
			C234.6,470.6,236,469.5,236,468z"/>
		<path fill="#762264" d="M240.3,462.1h1.4v1.9c0.8-1.1,1.9-2.1,3.6-2.1c2.2,0,4.5,1.8,4.5,4.8l0,0c0,3.1-2.2,4.9-4.5,4.9
			c-1.7,0-2.9-0.9-3.6-2v4.7h-1.4V462.1z M248.3,466.8L248.3,466.8c0-2.2-1.5-3.7-3.3-3.7c-1.7,0-3.4,1.5-3.4,3.6l0,0
			c0,2.2,1.6,3.6,3.4,3.6C246.8,470.4,248.3,469.1,248.3,466.8z"/>
		<path fill="#762264" d="M252.3,458.3h1.4v5.5c0.6-1,1.6-1.8,3.2-1.8c2.3,0,3.6,1.5,3.6,3.7v5.8h-1.4V466c0-1.7-0.9-2.8-2.6-2.8
			c-1.6,0-2.8,1.2-2.8,2.9v5.4h-1.4V458.3z"/>
		<path fill="#762264" d="M263.5,458.5h1.6v1.5h-1.6V458.5z M263.6,462.1h1.4v9.4h-1.4V462.1z"/>
		<path fill="#762264" d="M268.3,458.3h1.4v13.2h-1.4V458.3z"/>
		<path fill="#762264" d="M271.9,461.8L271.9,461.8c0-1.7,1.4-3.2,3.1-3.2c1.8,0,3.1,1.4,3.1,3.1l0,0c0,1.7-1.4,3.2-3.1,3.2
			C273.3,465,271.9,463.5,271.9,461.8z M277.8,461.8L277.8,461.8c0-1.6-1.2-2.8-2.8-2.8c-1.6,0-2.8,1.3-2.8,2.8l0,0
			c0,1.5,1.2,2.8,2.8,2.8C276.6,464.6,277.8,463.3,277.8,461.8z M273.8,460.1h1.4c0.7,0,1.2,0.3,1.2,1c0,0.5-0.3,0.9-0.7,1l0.9,1.2
			h-0.7l-0.8-1.1h-0.7v1.1h-0.6L273.8,460.1L273.8,460.1z M275.2,461.7c0.4,0,0.7-0.2,0.7-0.5s-0.2-0.5-0.7-0.5h-0.8v1H275.2z"/>
		<path fill="#762264" d="M285.9,458.8h4.4c4,0,6.7,2.7,6.7,6.3l0,0c0,3.6-2.8,6.3-6.7,6.3h-4.4V458.8z M287.3,460.1v10h3
			c3.2,0,5.2-2.2,5.2-5l0,0c0-2.8-2-5-5.2-5H287.3z"/>
		<path fill="#762264" d="M299.3,466.8L299.3,466.8c0-2.7,1.9-4.9,4.5-4.9c2.8,0,4.4,2.2,4.4,4.9c0,0.2,0,0.3,0,0.5h-7.4
			c0.2,2,1.6,3.2,3.3,3.2c1.3,0,2.2-0.5,2.9-1.3l0.9,0.8c-0.9,1-2.1,1.8-3.9,1.8C301.4,471.7,299.3,469.7,299.3,466.8z M306.7,466.3
			c-0.1-1.7-1.1-3.2-3-3.2c-1.6,0-2.9,1.4-3,3.2H306.7z"/>
		<path fill="#762264" d="M310.6,462.1h1.4v2.4c0.7-1.6,2-2.7,3.8-2.6v1.5h-0.1c-2,0-3.7,1.5-3.7,4.3v3.7h-1.4L310.6,462.1
			L310.6,462.1z"/>
		<path fill="#762264" d="M317.9,462.1h1.4v1.6c0.6-0.9,1.4-1.8,3-1.8c1.5,0,2.5,0.8,3,1.9c0.7-1,1.7-1.9,3.3-1.9
			c2.2,0,3.5,1.4,3.5,3.8v5.8h-1.4V466c0-1.8-0.9-2.8-2.4-2.8c-1.4,0-2.6,1-2.6,2.9v5.4h-1.4V466c0-1.8-0.9-2.8-2.4-2.8
			s-2.6,1.2-2.6,2.9v5.3h-1.4V462.1z"/>
		<path fill="#762264" d="M334.4,468.8L334.4,468.8c0-2,1.6-3.1,4-3.1c1.2,0,2,0.2,2.9,0.4v-0.3c0-1.7-1-2.6-2.8-2.6
			c-1.1,0-2,0.3-2.8,0.7l-0.4-1.1c1-0.5,2-0.8,3.4-0.8c1.3,0,2.3,0.3,3,1c0.6,0.6,1,1.5,1,2.7v5.7h-1.3V470
			c-0.7,0.9-1.7,1.6-3.4,1.6C336.2,471.7,334.4,470.7,334.4,468.8z M341.3,468v-0.9c-0.7-0.2-1.6-0.4-2.8-0.4
			c-1.8,0-2.7,0.8-2.7,1.9l0,0c0,1.2,1.1,1.9,2.4,1.9C339.9,470.6,341.3,469.5,341.3,468z"/>
		<path fill="#762264" d="M345.3,465.2L345.3,465.2c0-3.6,2.7-6.6,6.4-6.6c2.3,0,3.7,0.8,4.9,2l-1,1c-1.1-1-2.3-1.7-4-1.7
			c-2.8,0-4.9,2.3-4.9,5.2l0,0c0,2.9,2.1,5.2,4.9,5.2c1.7,0,2.9-0.7,4.1-1.8l0.9,0.9c-1.3,1.3-2.8,2.2-5.1,2.2
			C348,471.7,345.3,468.8,345.3,465.2z"/>
		<path fill="#762264" d="M358.2,466.8L358.2,466.8c0-2.7,2.1-4.9,4.9-4.9s4.9,2.2,4.9,4.8l0,0c0,2.6-2.1,4.9-4.9,4.9
			C360.2,471.7,358.2,469.5,358.2,466.8z M366.5,466.8L366.5,466.8c0-2-1.5-3.7-3.5-3.7s-3.4,1.6-3.4,3.6l0,0c0,2,1.5,3.6,3.5,3.6
			C365.1,470.5,366.5,468.8,366.5,466.8z"/>
		<path fill="#762264" d="M370.5,462.1h1.4v1.6c0.6-1,1.6-1.8,3.2-1.8c2.3,0,3.6,1.5,3.6,3.7v5.8h-1.4V466c0-1.7-0.9-2.8-2.6-2.8
			c-1.6,0-2.8,1.2-2.8,2.9v5.4h-1.4L370.5,462.1L370.5,462.1z"/>
		<path fill="#762264" d="M382.1,469v-5.6h-1.3v-1.2h1.3v-2.8h1.4v2.8h3v1.2h-3v5.5c0,1.1,0.6,1.6,1.6,1.6c0.5,0,0.9-0.1,1.4-0.3
			v1.2c-0.5,0.3-1,0.4-1.7,0.4C383.2,471.6,382.1,470.9,382.1,469z"/>
		<path fill="#762264" d="M388.9,462.1h1.4v2.4c0.7-1.6,2-2.7,3.8-2.6v1.5H394c-2,0-3.7,1.5-3.7,4.3v3.7h-1.4V462.1z"/>
		<path fill="#762264" d="M395.3,466.8L395.3,466.8c0-2.7,2.1-4.9,4.9-4.9s4.9,2.2,4.9,4.8l0,0c0,2.6-2.1,4.9-4.9,4.9
			C397.3,471.7,395.3,469.5,395.3,466.8z M403.6,466.8L403.6,466.8c0-2-1.5-3.7-3.5-3.7s-3.4,1.6-3.4,3.6l0,0c0,2,1.5,3.6,3.5,3.6
			C402.2,470.5,403.6,468.8,403.6,466.8z"/>
		<path fill="#762264" d="M407.7,458.3h1.4v13.2h-1.4V458.3z"/>
		<path fill="#762264" d="M413,459.6h-1.8v-0.8h4.4v0.8h-1.8v4.8H413V459.6z M416.8,458.8h0.9l2,3.1l2-3.1h0.8v5.6h-0.8v-4.3l-2,3
			h-0.1l-2-3v4.3h-0.8V458.8z"/>
		<path fill="#762264" d="M430.5,458.8h1.4l4.6,6.9l4.6-6.9h1.4v12.7h-1.4v-10.3l-4.6,6.8h-0.1l-4.6-6.8v10.2h-1.4v-12.6H430.5z"/>
		<path fill="#762264" d="M445.4,466.8L445.4,466.8c0-2.7,2.1-4.9,4.9-4.9s4.9,2.2,4.9,4.8l0,0c0,2.6-2.1,4.9-4.9,4.9
			C447.4,471.7,445.4,469.5,445.4,466.8z M453.7,466.8L453.7,466.8c0-2-1.5-3.7-3.5-3.7s-3.4,1.6-3.4,3.6l0,0c0,2,1.5,3.6,3.5,3.6
			C452.3,470.5,453.7,468.8,453.7,466.8z"/>
		<path fill="#762264" d="M457.7,458.5h1.6v1.5h-1.6V458.5z M457.8,462.1h1.4v9.4h-1.4V462.1z"/>
		<path fill="#762264" d="M461.6,470.3l0.7-1c1,0.8,2.1,1.2,3.2,1.2s1.9-0.6,1.9-1.5l0,0c0-0.9-1.1-1.3-2.3-1.6
			c-1.5-0.4-3.1-0.9-3.1-2.6l0,0c0-1.6,1.3-2.7,3.2-2.7c1.1,0,2.4,0.4,3.4,1l-0.6,1c-0.9-0.6-1.9-0.9-2.8-0.9
			c-1.1,0-1.8,0.6-1.8,1.4l0,0c0,0.9,1.2,1.2,2.4,1.6c1.4,0.4,3,1,3,2.7l0,0c0,1.8-1.5,2.8-3.3,2.8
			C464.2,471.7,462.7,471.1,461.6,470.3z"/>
		<path fill="#762264" d="M471.7,469v-5.6h-1.3v-1.2h1.3v-2.8h1.4v2.8h3v1.2h-3v5.5c0,1.1,0.6,1.6,1.6,1.6c0.5,0,0.9-0.1,1.4-0.3
			v1.2c-0.5,0.3-1,0.4-1.7,0.4C472.9,471.6,471.7,470.9,471.7,469z"/>
		<path fill="#762264" d="M478.4,467.9v-5.8h1.4v5.5c0,1.7,0.9,2.8,2.6,2.8c1.6,0,2.8-1.2,2.8-2.9v-5.4h1.4v9.4h-1.4v-1.6
			c-0.6,1-1.6,1.8-3.2,1.8C479.7,471.7,478.4,470.2,478.4,467.9z"/>
		<path fill="#762264" d="M489.7,462.1h1.4v2.4c0.7-1.6,2-2.7,3.8-2.6v1.5h-0.1c-2,0-3.7,1.5-3.7,4.3v3.7h-1.4L489.7,462.1
			L489.7,462.1z"/>
		<path fill="#762264" d="M497.1,458.5h1.6v1.5h-1.6V458.5z M497.2,462.1h1.4v9.4h-1.4V462.1z"/>
		<path fill="#762264" d="M501.3,470.6l6.2-7.3h-6v-1.2h7.9v0.9l-6.2,7.3h6.2v1.2h-8.1V470.6z"/>
		<path fill="#762264" d="M511,466.8L511,466.8c0-2.7,1.9-4.9,4.5-4.9c2.8,0,4.4,2.2,4.4,4.9c0,0.2,0,0.3,0,0.5h-7.4
			c0.2,2,1.6,3.2,3.3,3.2c1.3,0,2.2-0.5,3-1.3l0.9,0.8c-0.9,1-2.1,1.8-3.9,1.8C513.1,471.7,511,469.7,511,466.8z M518.5,466.3
			c-0.1-1.7-1.1-3.2-3-3.2c-1.6,0-2.9,1.4-3,3.2H518.5z"/>
		<path fill="#762264" d="M522.3,462.1h1.4v2.4c0.7-1.6,2-2.7,3.8-2.6v1.5h-0.1c-2,0-3.7,1.5-3.7,4.3v3.7h-1.4V462.1z"/>
		<path fill="#762264" d="M534.5,466.8L534.5,466.8c0-2.7,2.1-4.9,4.9-4.9c2.8,0,4.9,2.2,4.9,4.8l0,0c0,2.6-2.1,4.9-4.9,4.9
			C536.5,471.7,534.5,469.5,534.5,466.8z M542.8,466.8L542.8,466.8c0-2-1.5-3.7-3.5-3.7s-3.4,1.6-3.4,3.6l0,0c0,2,1.5,3.6,3.5,3.6
			C541.4,470.5,542.8,468.8,542.8,466.8z"/>
		<path fill="#762264" d="M546.8,462.1h1.4v1.6c0.6-1,1.6-1.8,3.2-1.8c2.3,0,3.6,1.5,3.6,3.7v5.8h-1.4V466c0-1.7-0.9-2.8-2.6-2.8
			c-1.6,0-2.8,1.2-2.8,2.9v5.4h-1.4V462.1z"/>
		<path fill="#762264" d="M557.3,466.8L557.3,466.8c0-2.7,2.1-4.9,4.8-4.9c1.8,0,2.9,0.7,3.7,1.7l-0.9,1c-0.7-0.8-1.6-1.4-2.8-1.4
			c-1.9,0-3.3,1.6-3.3,3.6l0,0c0,2,1.5,3.6,3.4,3.6c1.2,0,2.1-0.6,2.9-1.4l0.9,0.8c-0.9,1-2.1,1.8-3.8,1.8
			C559.4,471.7,557.3,469.5,557.3,466.8z"/>
		<path fill="#762264" d="M567.4,466.8L567.4,466.8c0-2.7,1.9-4.9,4.5-4.9c2.8,0,4.4,2.2,4.4,4.9c0,0.2,0,0.3,0,0.5h-7.4
			c0.2,2,1.6,3.2,3.3,3.2c1.3,0,2.2-0.5,2.9-1.3l0.9,0.8c-0.9,1-2.1,1.8-3.9,1.8C569.5,471.7,567.4,469.7,567.4,466.8z M574.9,466.3
			c-0.1-1.7-1.1-3.2-3-3.2c-1.6,0-2.9,1.4-3,3.2H574.9z"/>
		<path fill="#762264" d="M583.6,466.8L583.6,466.8c0-3.1,2.2-4.9,4.5-4.9c1.7,0,2.9,0.9,3.6,2v-5.6h1.4v13.2h-1.4v-1.9
			c-0.8,1.1-1.9,2.1-3.6,2.1C585.8,471.7,583.6,469.9,583.6,466.8z M591.7,466.8L591.7,466.8c0-2.2-1.6-3.6-3.4-3.6
			c-1.8,0-3.3,1.3-3.3,3.6l0,0c0,2.2,1.5,3.6,3.3,3.6S591.7,469,591.7,466.8z"/>
		<path fill="#762264" d="M595.5,468.8L595.5,468.8c0-2,1.6-3.1,4-3.1c1.2,0,2,0.2,2.9,0.4v-0.3c0-1.7-1-2.6-2.8-2.6
			c-1.1,0-2,0.3-2.8,0.7l-0.4-1.1c1-0.5,2-0.8,3.4-0.8c1.3,0,2.3,0.3,3,1c0.6,0.6,1,1.5,1,2.7v5.7h-1.3V470
			c-0.7,0.9-1.7,1.6-3.4,1.6C597.2,471.7,595.5,470.7,595.5,468.8z M602.4,468v-0.9c-0.7-0.2-1.6-0.4-2.8-0.4
			c-1.8,0-2.7,0.8-2.7,1.9l0,0c0,1.2,1.1,1.9,2.4,1.9C600.9,470.6,602.4,469.5,602.4,468z"/>
		<path fill="#762264" d="M606.7,458.5h1.6v1.5h-1.6V458.5z M606.8,462.1h1.4v9.4h-1.4V462.1z"/>
		<path fill="#762264" d="M611.5,458.3h1.4v13.2h-1.4V458.3z"/>
		<path fill="#762264" d="M623.2,462.1h1.5l-3.9,9.7c-0.8,1.9-1.7,2.6-3.1,2.6c-0.8,0-1.4-0.2-2-0.5l0.5-1.1
			c0.5,0.2,0.9,0.3,1.5,0.3c0.8,0,1.4-0.4,1.9-1.8l-4.3-9.3h1.5l3.4,7.8L623.2,462.1z"/>
		<path fill="#762264" d="M632.8,463.4h-1.3v-1.2h1.3v-0.8c0-1.1,0.3-1.9,0.8-2.4s1.2-0.7,2-0.7c0.7,0,1.1,0.1,1.5,0.2v1.2
			c-0.5-0.1-0.9-0.2-1.4-0.2c-1.1,0-1.6,0.7-1.6,2v0.8h3v1.2h-3v8.1h-1.4v-8.2H632.8z"/>
		<path fill="#762264" d="M638.2,466.8L638.2,466.8c0-2.7,2.1-4.9,4.9-4.9c2.8,0,4.9,2.2,4.9,4.8l0,0c0,2.6-2.1,4.9-4.9,4.9
			C640.2,471.7,638.2,469.5,638.2,466.8z M646.5,466.8L646.5,466.8c0-2-1.5-3.7-3.5-3.7s-3.4,1.6-3.4,3.6l0,0c0,2,1.5,3.6,3.5,3.6
			C645.1,470.5,646.5,468.8,646.5,466.8z"/>
		<path fill="#762264" d="M650.5,462.1h1.4v2.4c0.7-1.6,2-2.7,3.8-2.6v1.5h-0.1c-2,0-3.7,1.5-3.7,4.3v3.7h-1.4V462.1z"/>
		<path fill="#762264" d="M669.5,468.5h-6.7l-0.4-1l7.2-8.7h1.3v8.6h2v1.2h-2v3h-1.4L669.5,468.5L669.5,468.5z M669.5,467.3v-6.5
			l-5.3,6.5H669.5z"/>
		<path fill="#762264" d="M680,462.1h1.5l2.5,7.5l2.5-7.5h1.2l2.5,7.5l2.5-7.5h1.4l-3.3,9.4h-1.2l-2.5-7.4l-2.5,7.4h-1.2L680,462.1z
			"/>
		<path fill="#762264" d="M695.4,466.8L695.4,466.8c0-2.7,1.9-4.9,4.5-4.9c2.8,0,4.4,2.2,4.4,4.9c0,0.2,0,0.3,0,0.5h-7.4
			c0.2,2,1.6,3.2,3.3,3.2c1.3,0,2.2-0.5,2.9-1.3l0.9,0.8c-0.9,1-2.1,1.8-3.9,1.8C697.5,471.7,695.4,469.7,695.4,466.8z M702.8,466.3
			c-0.1-1.7-1.1-3.2-3-3.2c-1.6,0-2.9,1.4-3,3.2H702.8z"/>
		<path fill="#762264" d="M706.1,466.8L706.1,466.8c0-2.7,1.9-4.9,4.5-4.9c2.8,0,4.4,2.2,4.4,4.9c0,0.2,0,0.3,0,0.5h-7.4
			c0.2,2,1.6,3.2,3.3,3.2c1.3,0,2.2-0.5,2.9-1.3l0.9,0.8c-0.9,1-2.1,1.8-3.9,1.8C708.2,471.7,706.1,469.7,706.1,466.8z M713.5,466.3
			c-0.1-1.7-1.1-3.2-3-3.2c-1.6,0-2.9,1.4-3,3.2H713.5z"/>
		<path fill="#762264" d="M717.4,458.3h1.4v9.1l5-5.3h1.7l-3.9,4l4.1,5.3H724l-3.3-4.4l-1.9,1.9v2.4h-1.4L717.4,458.3L717.4,458.3z"
			/>
		<path fill="#762264" d="M726.9,470.3l0.7-1c1,0.8,2.1,1.2,3.2,1.2c1.1,0,1.9-0.6,1.9-1.5l0,0c0-0.9-1.1-1.3-2.3-1.6
			c-1.5-0.4-3.1-0.9-3.1-2.6l0,0c0-1.6,1.3-2.7,3.2-2.7c1.1,0,2.4,0.4,3.4,1l-0.6,1c-0.9-0.6-1.9-0.9-2.8-0.9
			c-1.1,0-1.8,0.6-1.8,1.4l0,0c0,0.9,1.2,1.2,2.4,1.6c1.4,0.4,3,1,3,2.7l0,0c0,1.8-1.5,2.8-3.3,2.8
			C729.4,471.7,727.9,471.1,726.9,470.3z"/>
		<path fill="#762264" d="M736.5,469.6h1.7v1.9h-1.7V469.6z"/>
	</g>
	<g enable-background="new    ">
		<path fill="#060E9F" d="M12.3,328.4V327l6.9-4.6l-6.9-4.6v-1.4H25v1.4H14.7l6.8,4.6v0.1l-6.8,4.6h10.2v1.4H12.3V328.4z"/>
		<path fill="#060E9F" d="M20.3,313.5L20.3,313.5c-2.7,0-4.9-1.9-4.9-4.5c0-2.8,2.2-4.4,4.9-4.4c0.2,0,0.3,0,0.5,0v7.4
			c2-0.2,3.2-1.6,3.2-3.3c0-1.3-0.5-2.2-1.3-3l0.8-0.9c1,0.9,1.8,2.1,1.8,3.9C25.2,311.4,23.2,313.5,20.3,313.5z M19.7,306.1
			c-1.7,0.1-3.2,1.1-3.2,3c0,1.6,1.4,2.9,3.2,3V306.1z"/>
		<path fill="#060E9F" d="M22.2,302.9L22.2,302.9c-2,0-3.1-1.6-3.1-4c0-1.2,0.2-2,0.4-2.9h-0.3c-1.7,0-2.6,1-2.6,2.8
			c0,1.1,0.3,2,0.7,2.8l-1.1,0.4c-0.5-1-0.8-2-0.8-3.4c0-1.3,0.3-2.3,1-3c0.6-0.6,1.5-1,2.7-1h5.7v1.3h-1.4c0.9,0.7,1.6,1.7,1.6,3.4
			C25.1,301.1,24.1,302.9,22.2,302.9z M21.5,296h-0.9c-0.2,0.7-0.4,1.6-0.4,2.8c0,1.8,0.8,2.7,1.9,2.7l0,0c1.2,0,1.9-1.1,1.9-2.4
			C24,297.4,23,296,21.5,296z"/>
		<path fill="#060E9F" d="M15.6,291.7v-1.4h1.6c-1-0.6-1.8-1.6-1.8-3.2c0-2.3,1.5-3.6,3.7-3.6h5.8v1.4h-5.5c-1.7,0-2.8,0.9-2.8,2.6
			c0,1.6,1.2,2.8,2.9,2.8h5.4v1.4L15.6,291.7L15.6,291.7z"/>
		<path fill="#060E9F" d="M11.7,275.1v-1.4h5.5c-1-0.6-1.8-1.6-1.8-3.2c0-2.3,1.5-3.6,3.7-3.6h5.8v1.4h-5.5c-1.7,0-2.8,0.9-2.8,2.6
			c0,1.6,1.2,2.8,2.9,2.8h5.4v1.4L11.7,275.1L11.7,275.1z"/>
		<path fill="#060E9F" d="M15.6,257.2v-1.5l9.7,3.9c1.9,0.8,2.6,1.7,2.6,3.1c0,0.8-0.2,1.4-0.5,2l-1.1-0.5c0.2-0.5,0.3-0.9,0.3-1.5
			c0-0.8-0.4-1.4-1.8-1.9l-9.3,4.3v-1.5l7.8-3.4L15.6,257.2z"/>
		<path fill="#060E9F" d="M20.3,254.5L20.3,254.5c-3.1,0-4.9-2.2-4.9-4.5c0-1.7,0.9-2.9,2-3.6h-5.6V245H25v1.4h-1.9
			c1.1,0.8,2.1,1.9,2.1,3.6C25.1,252.3,23.4,254.5,20.3,254.5z M20.3,246.4L20.3,246.4c-2.2,0-3.6,1.6-3.6,3.4
			c0,1.8,1.3,3.3,3.6,3.3l0,0c2.2,0,3.6-1.5,3.6-3.3C23.9,248.1,22.4,246.4,20.3,246.4z"/>
		<path fill="#060E9F" d="M15.6,242v-1.4H18c-1.6-0.7-2.7-2-2.6-3.8h1.5v0.1c0,2,1.5,3.7,4.3,3.7h3.7v1.4H15.6z"/>
		<path fill="#060E9F" d="M22.2,235.8L22.2,235.8c-2,0-3.1-1.6-3.1-4c0-1.2,0.2-2,0.4-2.9h-0.3c-1.7,0-2.6,1-2.6,2.8
			c0,1.1,0.3,2,0.7,2.8l-1.1,0.4c-0.5-1-0.8-2-0.8-3.4c0-1.3,0.3-2.3,1-3c0.6-0.6,1.5-1,2.7-1h5.7v1.3h-1.4c0.9,0.7,1.6,1.7,1.6,3.4
			C25.1,234.1,24.1,235.8,22.2,235.8z M21.5,228.9h-0.9c-0.2,0.7-0.4,1.6-0.4,2.8c0,1.8,0.8,2.7,1.9,2.7l0,0c1.2,0,1.9-1.1,1.9-2.4
			C24,230.3,23,228.9,21.5,228.9z"/>
		<path fill="#060E9F" d="M22.5,224.2h-5.6v1.3h-1.2v-1.3h-2.8v-1.4h2.8v-3h1.2v3h5.5c1.1,0,1.6-0.6,1.6-1.6c0-0.5-0.1-0.9-0.3-1.4
			h1.2c0.3,0.5,0.4,1,0.4,1.7C25.1,223.1,24.4,224.2,22.5,224.2z"/>
		<path fill="#060E9F" d="M12,217.4v-1.6h1.5v1.6H12z M15.6,217.3v-1.4H25v1.4H15.6z"/>
		<path fill="#060E9F" d="M20.3,213.2L20.3,213.2c-2.7,0-4.9-2.1-4.9-4.9c0-2.8,2.2-4.9,4.8-4.9l0,0c2.6,0,4.9,2.1,4.9,4.9
			C25.2,211.2,22.9,213.2,20.3,213.2z M20.3,204.9L20.3,204.9c-2,0-3.7,1.5-3.7,3.5s1.6,3.4,3.6,3.4l0,0c2,0,3.6-1.5,3.6-3.5
			C23.9,206.3,22.3,204.9,20.3,204.9z"/>
		<path fill="#060E9F" d="M15.6,200.9v-1.4h1.6c-1-0.6-1.8-1.6-1.8-3.2c0-2.3,1.5-3.6,3.7-3.6h5.8v1.4h-5.5c-1.7,0-2.8,0.9-2.8,2.6
			c0,1.6,1.2,2.8,2.9,2.8h5.4v1.4H15.6z"/>
		<path fill="#060E9F" d="M15.6,184.4V183H18c-1.6-0.7-2.7-2-2.6-3.8h1.5v0.1c0,2,1.5,3.7,4.3,3.7h3.7v1.4H15.6z"/>
		<path fill="#060E9F" d="M22.2,178.2L22.2,178.2c-2,0-3.1-1.6-3.1-4c0-1.2,0.2-2,0.4-2.9h-0.3c-1.7,0-2.6,1-2.6,2.8
			c0,1.1,0.3,2,0.7,2.8l-1.1,0.4c-0.5-1-0.8-2-0.8-3.4c0-1.3,0.3-2.3,1-3c0.6-0.6,1.5-1,2.7-1h5.7v1.3h-1.4c0.9,0.7,1.6,1.7,1.6,3.4
			C25.1,176.4,24.1,178.2,22.2,178.2z M21.5,171.3h-0.9c-0.2,0.7-0.4,1.6-0.4,2.8c0,1.8,0.8,2.7,1.9,2.7l0,0c1.2,0,1.9-1.1,1.9-2.4
			C24,172.7,23,171.3,21.5,171.3z"/>
		<path fill="#060E9F" d="M22.5,166.6h-5.6v1.3h-1.2v-1.3h-2.8v-1.4h2.8v-3h1.2v3h5.5c1.1,0,1.6-0.6,1.6-1.6c0-0.5-0.1-0.9-0.3-1.4
			h1.2c0.3,0.5,0.4,1,0.4,1.7C25.1,165.5,24.4,166.6,22.5,166.6z"/>
		<path fill="#060E9F" d="M20.3,160.6L20.3,160.6c-2.7,0-4.9-1.9-4.9-4.5c0-2.8,2.2-4.4,4.9-4.4c0.2,0,0.3,0,0.5,0v7.4
			c2-0.2,3.2-1.6,3.2-3.3c0-1.3-0.5-2.2-1.3-2.9l0.8-0.9c1,0.9,1.8,2.1,1.8,3.9C25.2,158.5,23.2,160.6,20.3,160.6z M19.7,153.2
			c-1.7,0.1-3.2,1.1-3.2,3c0,1.6,1.4,2.9,3.2,3V153.2z"/>
		<path fill="#060E9F" d="M19.7,144.2c-3.3,0-5.9-1.8-7.7-5l0.9-0.6c1.8,2.8,3.9,4.2,6.8,4.2s5.1-1.4,6.8-4.2l0.9,0.6
			C25.7,142.4,23.1,144.2,19.7,144.2z"/>
		<path fill="#060E9F" d="M12.2,131.1v-1.3L25,124v1.5l-3.3,1.5v6.9l3.3,1.5v1.5L12.2,131.1z M20.3,127.6l-6.4,2.9l6.4,2.9V127.6z"
			/>
		<path fill="#060E9F" d="M19.6,122.2h-7.4v-1.4h7.3c2.7,0,4.3-1.5,4.3-3.9c0-2.3-1.4-3.8-4.2-3.8h-7.4v-1.4h7.3
			c3.7,0,5.6,2.1,5.6,5.3C25.1,120,23.2,122.2,19.6,122.2z"/>
		<path fill="#060E9F" d="M26.6,109c-1.8-2.8-3.9-4.2-6.8-4.2s-5.1,1.4-6.8,4.2l-0.9-0.6c1.8-3.2,4.4-5,7.7-5s5.9,1.8,7.7,5
			L26.6,109z"/>
	</g>
	<g enable-background="new    ">
		<path fill="#060E9F" d="M2.9,4.7h3.6v20.6H2.9V4.7z"/>
		<path fill="#060E9F" d="M11.6,9.7h3.6v2.4c1-1.4,2.4-2.7,4.9-2.7c3.5,0,5.5,2.4,5.5,5.9v9.9H22v-8.8c0-2.4-1.2-3.8-3.3-3.8
			s-3.5,1.4-3.5,3.9v8.8h-3.6V9.7z"/>
		<path fill="#060E9F" d="M28.9,17.6L28.9,17.6c0-4.5,3.4-8.2,8.1-8.2c2.9,0,4.7,1.1,6.2,2.7L41,14.5c-1.1-1.1-2.2-1.9-4-1.9
			c-2.6,0-4.5,2.2-4.5,4.9v0.1c0,2.8,1.9,5,4.6,5c1.7,0,2.9-0.8,4-1.9l2.1,2.1c-1.5,1.7-3.3,2.9-6.4,2.9
			C32.4,25.6,28.9,22,28.9,17.6z"/>
		<path fill="#060E9F" d="M46.6,9.7h3.6v3.5c1-2.3,2.8-3.9,5.5-3.8v3.8h-0.2c-3.1,0-5.3,2-5.3,6.1v5.9h-3.6V9.7z"/>
		<path fill="#060E9F" d="M57.4,17.6L57.4,17.6c0-4.5,3.1-8.1,7.6-8.1c4.9,0,7.4,3.9,7.4,8.4c0,0.3,0,0.6-0.1,1H60.9
			c0.4,2.5,2.2,3.9,4.5,3.9c1.7,0,3-0.6,4.2-1.9l2.1,1.9c-1.5,1.8-3.5,2.9-6.4,2.9C60.8,25.6,57.4,22.4,57.4,17.6z M68.9,16.4
			c-0.2-2.3-1.6-4.1-3.9-4.1c-2.2,0-3.7,1.7-4,4.1H68.9z"/>
		<path fill="#060E9F" d="M75,20.8L75,20.8c0-3.4,2.6-5.1,6.4-5.1c1.7,0,3,0.3,4.2,0.6V16c0-2.2-1.4-3.4-3.9-3.4c-1.7,0-3,0.4-4.4,1
			l-0.9-2.8c1.7-0.8,3.4-1.3,5.9-1.3c2.3,0,4.1,0.6,5.1,1.7c1.1,1.1,1.7,2.8,1.7,4.8v9.2h-3.5v-1.9c-1.1,1.3-2.7,2.3-5.1,2.3
			C77.5,25.6,75,23.9,75,20.8z M85.6,19.7v-1.1c-0.9-0.4-2.1-0.6-3.5-0.6c-2.3,0-3.6,1-3.6,2.6v0.1c0,1.5,1.3,2.4,3,2.4
			C83.8,23,85.6,21.6,85.6,19.7z"/>
		<path fill="#060E9F" d="M92,23.2l1.6-2.4c1.7,1.3,3.5,1.9,5.1,1.9c1.5,0,2.4-0.6,2.4-1.7l0,0c0-1.2-1.6-1.6-3.5-2.2
			c-2.3-0.6-4.9-1.6-4.9-4.6v-0.1c0-2.9,2.4-4.7,5.5-4.7c1.9,0,4.1,0.7,5.7,1.8l-1.4,2.5c-1.5-0.9-3.1-1.5-4.4-1.5
			c-1.4,0-2.2,0.6-2.2,1.5v0.1c0,1.1,1.7,1.6,3.5,2.2c2.3,0.7,4.8,1.7,4.8,4.5v0.1c0,3.3-2.5,4.9-5.8,4.9
			C96.4,25.6,93.9,24.8,92,23.2z"/>
		<path fill="#060E9F" d="M107.1,17.6L107.1,17.6c0-4.5,3.1-8.1,7.6-8.1c4.9,0,7.4,3.9,7.4,8.4c0,0.3,0,0.6-0.1,1h-11.4
			c0.4,2.5,2.2,3.9,4.5,3.9c1.7,0,3-0.6,4.2-1.9l2.1,1.9c-1.5,1.8-3.5,2.9-6.4,2.9C110.6,25.6,107.1,22.4,107.1,17.6z M118.6,16.4
			c-0.2-2.3-1.6-4.1-3.9-4.1c-2.2,0-3.7,1.7-4,4.1H118.6z"/>
		<path fill="#060E9F" d="M125,17.5L125,17.5c0-5.2,3.5-8.1,7.2-8.1c2.6,0,4.2,1.3,5.3,2.7V3.8h3.6v21.5h-3.6v-2.6
			c-1.1,1.6-2.8,2.9-5.3,2.9C128.5,25.6,125,22.7,125,17.5z M137.5,17.5L137.5,17.5c0-3.1-2.1-5-4.5-5s-4.5,1.9-4.5,5v0.1
			c0,3,2.1,5,4.5,5C135.4,22.5,137.5,20.5,137.5,17.5z"/>
		<path fill="#060E9F" d="M154.3,3.8h3.6v8.3c1-1.4,2.4-2.7,4.9-2.7c3.5,0,5.5,2.4,5.5,5.9v9.9h-3.6v-8.8c0-2.4-1.2-3.8-3.3-3.8
			s-3.5,1.4-3.5,3.9v8.8h-3.6L154.3,3.8L154.3,3.8z"/>
		<path fill="#060E9F" d="M182.9,9.7h3.7l-6.2,16c-1.2,3.2-2.6,4.4-5.1,4.4c-1.5,0-2.6-0.4-3.7-0.9l1.2-2.6c0.6,0.4,1.4,0.6,2.1,0.6
			c1,0,1.6-0.4,2.2-1.8l-6.5-15.6h3.8l4.4,11.5L182.9,9.7z"/>
		<path fill="#060E9F" d="M188.1,17.5L188.1,17.5c0-5.2,3.5-8.1,7.2-8.1c2.6,0,4.2,1.3,5.3,2.7V3.8h3.6v21.5h-3.6v-2.6
			c-1.1,1.6-2.8,2.9-5.3,2.9C191.7,25.6,188.1,22.7,188.1,17.5z M200.7,17.5L200.7,17.5c0-3.1-2.1-5-4.5-5s-4.5,1.9-4.5,5v0.1
			c0,3,2.1,5,4.5,5C198.6,22.5,200.7,20.5,200.7,17.5z"/>
		<path fill="#060E9F" d="M208.7,9.7h3.6v3.5c1-2.3,2.8-3.9,5.5-3.8v3.8h-0.2c-3.1,0-5.3,2-5.3,6.1v5.9h-3.6V9.7z"/>
		<path fill="#060E9F" d="M219,20.8L219,20.8c0-3.4,2.6-5.1,6.4-5.1c1.7,0,3,0.3,4.2,0.6V16c0-2.2-1.4-3.4-3.9-3.4
			c-1.7,0-3,0.4-4.4,1l-0.9-2.8c1.7-0.8,3.4-1.3,5.9-1.3c2.3,0,4.1,0.6,5.1,1.7c1.1,1.1,1.7,2.8,1.7,4.8v9.2h-3.5v-1.9
			c-1.1,1.3-2.7,2.3-5.1,2.3C221.6,25.6,219,23.9,219,20.8z M229.7,19.7v-1.1c-0.9-0.4-2.1-0.6-3.5-0.6c-2.3,0-3.6,1-3.6,2.6v0.1
			c0,1.5,1.3,2.4,3,2.4C227.9,23,229.7,21.6,229.7,19.7z"/>
		<path fill="#060E9F" d="M237.9,21v-8.2h-2V9.7h2V5.5h3.6v4.3h4.2v3.1h-4.2v7.6c0,1.4,0.7,1.9,1.9,1.9c0.8,0,1.5-0.2,2.2-0.5v2.9
			c-0.9,0.5-1.9,0.8-3.2,0.8C239.8,25.5,237.9,24.4,237.9,21z"/>
		<path fill="#060E9F" d="M249.3,4h3.8v3.4h-3.8V4z M249.5,9.7h3.6v15.5h-3.6V9.7z"/>
		<path fill="#060E9F" d="M256.9,17.6L256.9,17.6c0-4.5,3.5-8.2,8.3-8.2s8.3,3.6,8.3,8.1v0.1c0,4.4-3.5,8.1-8.3,8.1
			C260.4,25.6,256.9,22,256.9,17.6z M269.9,17.6L269.9,17.6c0-2.8-2-5.1-4.8-5.1c-2.9,0-4.7,2.2-4.7,4.9v0.1c0,2.7,2,5,4.7,5
			C268,22.5,269.9,20.3,269.9,17.6z"/>
		<path fill="#060E9F" d="M277,9.7h3.6v2.4c1-1.4,2.4-2.7,4.9-2.7c3.5,0,5.5,2.4,5.5,5.9v9.9h-3.6v-8.8c0-2.4-1.2-3.8-3.3-3.8
			c-2.1,0-3.5,1.4-3.5,3.9v8.8H277V9.7z"/>
		<path fill="#060E9F" d="M303.1,20.8L303.1,20.8c0-3.4,2.6-5.1,6.4-5.1c1.7,0,3,0.3,4.2,0.6V16c0-2.2-1.4-3.4-3.9-3.4
			c-1.7,0-3,0.4-4.4,1l-0.9-2.8c1.7-0.8,3.4-1.3,5.9-1.3c2.3,0,4.1,0.6,5.1,1.7c1.1,1.1,1.7,2.8,1.7,4.8v9.2h-3.5v-1.9
			c-1.1,1.3-2.7,2.3-5.1,2.3C305.7,25.6,303.1,23.9,303.1,20.8z M313.7,19.7v-1.1c-0.9-0.4-2.1-0.6-3.5-0.6c-2.3,0-3.6,1-3.6,2.6
			v0.1c0,1.5,1.3,2.4,3,2.4C311.9,23,313.7,21.6,313.7,19.7z"/>
		<path fill="#060E9F" d="M322.2,12.8h-2v-3h2V8.7c0-1.7,0.4-3,1.3-3.8c0.8-0.8,2-1.2,3.5-1.2c1.2,0,2.1,0.2,2.9,0.4v3
			c-0.7-0.2-1.3-0.4-2.1-0.4c-1.4,0-2.1,0.7-2.1,2.4V10h4.1v2.9h-4.1v12.5h-3.6V12.8H322.2z"/>
		<path fill="#060E9F" d="M333.2,21v-8.2h-2V9.7h2V5.5h3.6v4.3h4.2v3.1h-4.2v7.6c0,1.4,0.7,1.9,1.9,1.9c0.8,0,1.5-0.2,2.2-0.5v2.9
			c-0.9,0.5-1.9,0.8-3.2,0.8C335,25.5,333.2,24.4,333.2,21z"/>
		<path fill="#060E9F" d="M343.2,17.6L343.2,17.6c0-4.5,3.1-8.1,7.6-8.1c4.9,0,7.4,3.9,7.4,8.4c0,0.3,0,0.6-0.1,1h-11.4
			c0.4,2.5,2.2,3.9,4.5,3.9c1.7,0,3-0.6,4.2-1.9l2.1,1.9c-1.5,1.8-3.5,2.9-6.4,2.9C346.7,25.6,343.2,22.4,343.2,17.6z M354.7,16.4
			c-0.2-2.3-1.6-4.1-3.9-4.1c-2.2,0-3.7,1.7-4,4.1H354.7z"/>
		<path fill="#060E9F" d="M361.8,9.7h3.6v3.5c1-2.3,2.8-3.9,5.5-3.8v3.8h-0.2c-3.1,0-5.3,2-5.3,6.1v5.9h-3.6V9.7z"/>
		<path fill="#060E9F" d="M382,22.4l7.1-6c2.8-2.4,3.9-3.7,3.9-5.6c0-2-1.4-3.2-3.3-3.2s-3.2,1-4.7,3.1l-2.6-2
			c2-2.7,3.9-4.3,7.6-4.3c4,0,6.8,2.5,6.8,6.1v0.1c0,3.2-1.7,5-5.4,8l-4.2,3.5h9.8v3.2h-15V22.4z"/>
		<path fill="#060E9F" d="M408.6,20.8L408.6,20.8c0-3.4,2.6-5.1,6.4-5.1c1.7,0,3,0.3,4.2,0.6V16c0-2.2-1.4-3.4-3.9-3.4
			c-1.7,0-3,0.4-4.4,1l-0.9-2.8c1.7-0.8,3.4-1.3,5.9-1.3c2.3,0,4.1,0.6,5.1,1.7c1.1,1.1,1.7,2.8,1.7,4.8v9.2h-3.5v-1.9
			c-1.1,1.3-2.7,2.3-5.1,2.3C411.2,25.6,408.6,23.9,408.6,20.8z M419.3,19.7v-1.1c-0.9-0.4-2.1-0.6-3.5-0.6c-2.3,0-3.6,1-3.6,2.6
			v0.1c0,1.5,1.3,2.4,3,2.4C417.5,23,419.3,21.6,419.3,19.7z"/>
		<path fill="#060E9F" d="M426.9,9.7h3.6v2.4c1-1.4,2.4-2.7,4.9-2.7c3.5,0,5.5,2.4,5.5,5.9v9.9h-3.6v-8.8c0-2.4-1.2-3.8-3.3-3.8
			c-2.1,0-3.5,1.4-3.5,3.9v8.8h-3.6V9.7z"/>
		<path fill="#060E9F" d="M444.4,17.5L444.4,17.5c0-5.2,3.5-8.1,7.2-8.1c2.6,0,4.2,1.3,5.3,2.7V3.8h3.6v21.5h-3.6v-2.6
			c-1.1,1.6-2.8,2.9-5.3,2.9C448,25.6,444.4,22.7,444.4,17.5z M457,17.5L457,17.5c0-3.1-2.1-5-4.5-5s-4.5,1.9-4.5,5v0.1
			c0,3,2.1,5,4.5,5C454.8,22.5,457,20.5,457,17.5z"/>
		<path fill="#060E9F" d="M483.6,20.6h-10.4l-0.7-2.6L484,4.5h3.1v13.2h2.9v3h-2.9v4.6h-3.5V20.6z M483.6,17.7V9.5l-6.8,8.1h6.8
			V17.7z"/>
		<path fill="#060E9F" d="M501.3,9.7h3.6l3.1,10.6l3.4-10.7h3.1l3.4,10.7l3.2-10.6h3.6l-5.1,15.7h-3.2l-3.5-10.6l-3.5,10.6h-3.2
			L501.3,9.7z"/>
		<path fill="#060E9F" d="M526.4,17.6L526.4,17.6c0-4.5,3.1-8.1,7.6-8.1c4.9,0,7.4,3.9,7.4,8.4c0,0.3,0,0.6-0.1,1h-11.4
			c0.4,2.5,2.2,3.9,4.5,3.9c1.7,0,3-0.6,4.2-1.9l2.1,1.9c-1.5,1.8-3.5,2.9-6.4,2.9C529.9,25.6,526.4,22.4,526.4,17.6z M537.9,16.4
			c-0.2-2.3-1.6-4.1-3.9-4.1c-2.2,0-3.7,1.7-4,4.1H537.9z"/>
		<path fill="#060E9F" d="M544.2,17.6L544.2,17.6c0-4.5,3.1-8.1,7.6-8.1c4.9,0,7.4,3.9,7.4,8.4c0,0.3,0,0.6-0.1,1h-11.4
			c0.4,2.5,2.2,3.9,4.5,3.9c1.7,0,3-0.6,4.2-1.9l2.1,1.9c-1.5,1.8-3.5,2.9-6.4,2.9C547.6,25.6,544.2,22.4,544.2,17.6z M555.7,16.4
			c-0.2-2.3-1.6-4.1-3.9-4.1c-2.2,0-3.7,1.7-4,4.1H555.7z"/>
		<path fill="#060E9F" d="M562.8,3.8h3.6v12.8l6.4-6.9h4.3l-6.2,6.3l6.4,9.2h-4.2l-4.6-6.7l-2.2,2.3v4.4h-3.6L562.8,3.8L562.8,3.8z"
			/>
		<path fill="#060E9F" d="M578.6,23.2l1.6-2.4c1.7,1.3,3.5,1.9,5.1,1.9c1.5,0,2.4-0.6,2.4-1.7l0,0c0-1.2-1.6-1.6-3.5-2.2
			c-2.3-0.6-4.9-1.6-4.9-4.6v-0.1c0-2.9,2.4-4.7,5.5-4.7c1.9,0,4.1,0.7,5.7,1.8l-1.4,2.5c-1.5-0.9-3.1-1.5-4.4-1.5
			c-1.4,0-2.2,0.6-2.2,1.5v0.1c0,1.1,1.7,1.6,3.5,2.2c2.3,0.7,4.8,1.7,4.8,4.5v0.1c0,3.3-2.5,4.9-5.8,4.9
			C583,25.6,580.6,24.8,578.6,23.2z"/>
	</g>
	<g enable-background="new    ">
		<path fill="#060E9F" d="M595,12.2L595,12.2c0-1.5,0.8-2.4,2.2-3c-1-0.5-1.8-1.3-1.8-2.7l0,0c0-1.8,1.8-3.2,4.2-3.2
			s4.2,1.4,4.2,3.2l0,0c0,1.3-0.7,2.1-1.8,2.7c1.3,0.6,2.2,1.5,2.2,2.9l0,0c0,2.1-2,3.5-4.6,3.5S595,14.3,595,12.2z M602.1,12.1
			L602.1,12.1c0-1.1-1.1-1.9-2.5-1.9s-2.5,0.7-2.5,1.8l0,0c0,1,0.9,1.8,2.5,1.8S602.1,13.1,602.1,12.1z M601.7,6.8L601.7,6.8
			c0-1-0.9-1.7-2.1-1.7c-1.3,0-2.1,0.8-2.1,1.7l0,0c0,1,0.9,1.8,2.1,1.8S601.7,7.8,601.7,6.8z"/>
	</g>
	<g enable-background="new    ">
		<path fill="#060E9F" d="M27.2,504.2h2.3l6.3,14.4h-2.6l-1.4-3.4H25l-1.5,3.4H21L27.2,504.2z M30.8,512.9l-2.5-5.7l-2.4,5.7H30.8z"
			/>
		<path fill="#060E9F" d="M38.1,510h-1.4v-2.1h1.4v-0.8c0-1.2,0.3-2.1,0.9-2.6s1.4-0.9,2.4-0.9c0.9,0,1.4,0.1,2,0.3v2.1
			c-0.5-0.2-0.9-0.3-1.4-0.3c-0.9,0-1.4,0.5-1.4,1.6v0.6h2.9v2h-2.8v8.6h-2.5V510H38.1z"/>
		<path fill="#060E9F" d="M45.8,515.6V510h-1.4v-2.1h1.4v-3h2.5v3h2.9v2.1h-2.9v5.3c0,1,0.5,1.3,1.3,1.3c0.6,0,1-0.1,1.5-0.4v2
			c-0.6,0.3-1.3,0.5-2.2,0.5C47,518.8,45.8,518,45.8,515.6z"/>
		<path fill="#060E9F" d="M52.7,513.3L52.7,513.3c0-3.1,2.2-5.6,5.3-5.6c3.4,0,5.2,2.7,5.2,5.8c0,0.2,0,0.4,0,0.7h-7.9
			c0.3,1.8,1.5,2.7,3.1,2.7c1.2,0,2.1-0.4,2.9-1.3l1.4,1.3c-1,1.2-2.4,2-4.4,2C55.1,518.8,52.7,516.6,52.7,513.3z M60.7,512.5
			c-0.2-1.6-1.1-2.8-2.7-2.8c-1.5,0-2.6,1.2-2.8,2.8H60.7z"/>
		<path fill="#060E9F" d="M65.6,507.8h2.5v2.4c0.7-1.6,1.9-2.7,3.8-2.6v2.6h-0.1c-2.2,0-3.7,1.4-3.7,4.3v4.1h-2.5
			C65.6,518.6,65.6,507.8,65.6,507.8z"/>
		<path fill="#060E9F" d="M79.6,516.6l4.9-4.2c2-1.7,2.7-2.6,2.7-3.8c0-1.4-1-2.2-2.3-2.2s-2.2,0.7-3.3,2.1l-1.8-1.4
			c1.4-1.9,2.7-3,5.3-3c2.8,0,4.7,1.7,4.7,4.3l0,0c0,2.2-1.2,3.5-3.7,5.5l-2.9,2.4H90v2.2H79.6V516.6z"/>
		<path fill="#060E9F" d="M98,515.5L98,515.5c0-2.4,1.8-3.5,4.4-3.5c1.2,0,2.1,0.2,2.9,0.4v-0.3c0-1.5-0.9-2.3-2.7-2.3
			c-1.2,0-2.1,0.3-3.1,0.7l-0.7-1.9c1.2-0.5,2.3-0.9,4.1-0.9c1.6,0,2.8,0.4,3.6,1.2c0.8,0.8,1.2,1.9,1.2,3.3v6.4h-2.4v-1.3
			c-0.7,0.9-1.9,1.6-3.5,1.6C99.8,518.8,98,517.7,98,515.5z M105.4,514.7V514c-0.6-0.2-1.5-0.4-2.4-0.4c-1.6,0-2.5,0.7-2.5,1.8l0,0
			c0,1,0.9,1.6,2.1,1.6C104.2,517,105.4,516.1,105.4,514.7z"/>
		<path fill="#060E9F" d="M110.7,507.8h2.5v1.7c0.7-1,1.7-1.9,3.4-1.9c2.4,0,3.8,1.6,3.8,4.1v6.9h-2.5v-6.1c0-1.7-0.8-2.6-2.3-2.6
			c-1.4,0-2.4,1-2.4,2.7v6.1h-2.5V507.8z"/>
		<path fill="#060E9F" d="M122.8,513.2L122.8,513.2c0-3.6,2.4-5.6,5-5.6c1.8,0,2.9,0.9,3.7,1.9v-5.8h2.5v14.9h-2.5v-1.8
			c-0.8,1.1-1.9,2-3.7,2C125.2,518.8,122.8,516.8,122.8,513.2z M131.5,513.2L131.5,513.2c0-2.1-1.5-3.5-3.1-3.5
			c-1.7,0-3.1,1.3-3.1,3.4l0,0c0,2.1,1.4,3.4,3.1,3.4C130,516.7,131.5,515.3,131.5,513.2z"/>
		<path fill="#060E9F" d="M149.9,515.4h-7.2l-0.5-1.8l7.9-9.4h2.1v9.1h2v2.1h-2v3.2h-2.4L149.9,515.4L149.9,515.4z M149.9,513.3
			v-5.6l-4.7,5.6H149.9z"/>
		<path fill="#060E9F" d="M162.2,507.8h2.5l2.2,7.4l2.4-7.4h2.1l2.4,7.4l2.2-7.4h2.5l-3.5,10.8h-2.2l-2.4-7.4l-2.4,7.4h-2.2
			L162.2,507.8z"/>
		<path fill="#060E9F" d="M179.5,513.3L179.5,513.3c0-3.1,2.2-5.6,5.3-5.6c3.4,0,5.2,2.7,5.2,5.8c0,0.2,0,0.4,0,0.7h-8
			c0.3,1.8,1.5,2.7,3.1,2.7c1.2,0,2.1-0.4,2.9-1.3l1.4,1.3c-1,1.2-2.4,2-4.4,2C181.9,518.8,179.5,516.6,179.5,513.3z M187.5,512.5
			c-0.2-1.6-1.1-2.8-2.7-2.8c-1.5,0-2.6,1.2-2.8,2.8H187.5z"/>
		<path fill="#060E9F" d="M191.8,513.3L191.8,513.3c0-3.1,2.2-5.6,5.3-5.6c3.4,0,5.2,2.7,5.2,5.8c0,0.2,0,0.4,0,0.7h-7.9
			c0.3,1.8,1.5,2.7,3.1,2.7c1.2,0,2.1-0.4,2.9-1.3l1.4,1.3c-1,1.2-2.4,2-4.4,2C194.2,518.8,191.8,516.6,191.8,513.3z M199.8,512.5
			c-0.2-1.6-1.1-2.8-2.7-2.8c-1.5,0-2.6,1.2-2.8,2.8H199.8z"/>
		<path fill="#060E9F" d="M204.7,503.7h2.5v8.9l4.5-4.8h3l-4.3,4.4l4.4,6.4h-2.9l-3.2-4.7l-1.5,1.6v3.1h-2.5V503.7z"/>
		<path fill="#060E9F" d="M215.7,517.2l1.1-1.7c1.2,0.9,2.4,1.3,3.5,1.3s1.7-0.4,1.7-1.2l0,0c0-0.8-1.1-1.1-2.4-1.5
			c-1.6-0.4-3.4-1.1-3.4-3.2l0,0c0-2,1.7-3.3,3.8-3.3c1.3,0,2.8,0.5,4,1.2l-1,1.8c-1-0.6-2.1-1-3-1c-1,0-1.5,0.4-1.5,1.1l0,0
			c0,0.8,1.2,1.1,2.4,1.5c1.6,0.5,3.3,1.2,3.3,3.1l0,0c0,2.3-1.8,3.4-4,3.4C218.7,518.8,217,518.2,215.7,517.2z"/>
		<path fill="#060E9F" d="M225.9,520.5c1.2-0.2,1.8-0.9,1.8-1.9h-1.1v-2.8h2.7v2.4c0,2.3-1.1,3.2-3.1,3.4L225.9,520.5z"/>
		<path fill="#060E9F" d="M238.4,503.8h2.6v2.3h-2.6V503.8z M238.5,507.8h2.5v10.8h-2.5V507.8z"/>
		<path fill="#060E9F" d="M244.2,507.8h2.5v1.7c0.7-1,1.7-1.9,3.4-1.9c2.4,0,3.8,1.6,3.8,4.1v6.9h-2.5v-6.1c0-1.7-0.8-2.6-2.3-2.6
			c-1.4,0-2.4,1-2.4,2.7v6.1h-2.5V507.8z"/>
		<path fill="#060E9F" d="M256.2,513.3L256.2,513.3c0-3.1,2.4-5.7,5.6-5.7c2,0,3.3,0.8,4.3,1.9l-1.5,1.7c-0.8-0.8-1.5-1.3-2.8-1.3
			c-1.8,0-3.1,1.5-3.1,3.4l0,0c0,1.9,1.3,3.4,3.2,3.4c1.2,0,2-0.5,2.8-1.3l1.5,1.5c-1.1,1.2-2.3,2-4.4,2
			C258.6,518.8,256.2,516.3,256.2,513.3z"/>
		<path fill="#060E9F" d="M268.4,507.8h2.5v2.4c0.7-1.6,1.9-2.7,3.8-2.6v2.6h-0.1c-2.2,0-3.7,1.4-3.7,4.3v4.1h-2.5L268.4,507.8
			L268.4,507.8z"/>
		<path fill="#060E9F" d="M275.9,513.3L275.9,513.3c0-3.1,2.2-5.6,5.3-5.6c3.4,0,5.2,2.7,5.2,5.8c0,0.2,0,0.4,0,0.7h-7.9
			c0.3,1.8,1.5,2.7,3.1,2.7c1.2,0,2.1-0.4,2.9-1.3l1.4,1.3c-1,1.2-2.4,2-4.4,2C278.3,518.8,275.9,516.6,275.9,513.3z M283.9,512.5
			c-0.2-1.6-1.1-2.8-2.7-2.8c-1.5,0-2.6,1.2-2.8,2.8H283.9z"/>
		<path fill="#060E9F" d="M288.1,515.5L288.1,515.5c0-2.4,1.8-3.5,4.4-3.5c1.2,0,2.1,0.2,2.9,0.4v-0.3c0-1.5-0.9-2.3-2.7-2.3
			c-1.2,0-2.1,0.3-3.1,0.7l-0.7-1.9c1.2-0.5,2.3-0.9,4.1-0.9c1.6,0,2.8,0.4,3.6,1.2c0.8,0.8,1.2,1.9,1.2,3.3v6.4h-2.4v-1.3
			c-0.7,0.9-1.9,1.6-3.5,1.6C289.9,518.8,288.1,517.7,288.1,515.5z M295.5,514.7V514c-0.6-0.2-1.5-0.4-2.4-0.4
			c-1.6,0-2.5,0.7-2.5,1.8l0,0c0,1,0.9,1.6,2.1,1.6C294.2,517,295.5,516.1,295.5,514.7z"/>
		<path fill="#060E9F" d="M299.9,517.2l1.1-1.7c1.2,0.9,2.4,1.3,3.5,1.3s1.7-0.4,1.7-1.2l0,0c0-0.8-1.1-1.1-2.4-1.5
			c-1.6-0.4-3.4-1.1-3.4-3.2l0,0c0-2,1.7-3.3,3.8-3.3c1.3,0,2.8,0.5,4,1.2l-1,1.8c-1-0.6-2.1-1-3-1c-1,0-1.5,0.4-1.5,1.1l0,0
			c0,0.8,1.2,1.1,2.4,1.5c1.6,0.5,3.3,1.2,3.3,3.1l0,0c0,2.3-1.8,3.4-4,3.4C302.9,518.8,301.2,518.2,299.9,517.2z"/>
		<path fill="#060E9F" d="M310.4,513.3L310.4,513.3c0-3.1,2.2-5.6,5.3-5.6c3.4,0,5.2,2.7,5.2,5.8c0,0.2,0,0.4,0,0.7H313
			c0.3,1.8,1.5,2.7,3.1,2.7c1.2,0,2.1-0.4,2.9-1.3l1.4,1.3c-1,1.2-2.4,2-4.4,2C312.8,518.8,310.4,516.6,310.4,513.3z M318.3,512.5
			c-0.2-1.6-1.1-2.8-2.7-2.8c-1.5,0-2.6,1.2-2.8,2.8H318.3z"/>
		<path fill="#060E9F" d="M322.7,513.2L322.7,513.2c0-3.6,2.4-5.6,5-5.6c1.8,0,2.9,0.9,3.7,1.9v-5.8h2.5v14.9h-2.5v-1.8
			c-0.8,1.1-1.9,2-3.7,2C325.2,518.8,322.7,516.8,322.7,513.2z M331.4,513.2L331.4,513.2c0-2.1-1.5-3.5-3.1-3.5
			c-1.7,0-3.1,1.3-3.1,3.4l0,0c0,2.1,1.4,3.4,3.1,3.4C329.9,516.7,331.4,515.3,331.4,513.2z"/>
		<path fill="#060E9F" d="M343,503.7h2.5v5.8c0.7-1,1.7-1.9,3.4-1.9c2.4,0,3.8,1.6,3.8,4.1v6.9h-2.5v-6.1c0-1.7-0.8-2.6-2.3-2.6
			c-1.4,0-2.4,1-2.4,2.7v6.1H343V503.7z"/>
		<path fill="#060E9F" d="M362.8,507.8h2.6l-4.3,11.1c-0.9,2.2-1.8,3-3.5,3c-1,0-1.8-0.2-2.5-0.7l0.8-1.8c0.4,0.2,0.9,0.4,1.4,0.4
			c0.7,0,1.1-0.3,1.5-1.2l-4.5-10.8h2.6l3,8L362.8,507.8z"/>
		<path fill="#060E9F" d="M366.4,513.2L366.4,513.2c0-3.6,2.4-5.6,5-5.6c1.8,0,2.9,0.9,3.7,1.9v-5.8h2.5v14.9h-2.5v-1.8
			c-0.8,1.1-1.9,2-3.7,2C368.9,518.8,366.4,516.8,366.4,513.2z M375.1,513.2L375.1,513.2c0-2.1-1.5-3.5-3.1-3.5
			c-1.7,0-3.1,1.3-3.1,3.4l0,0c0,2.1,1.4,3.4,3.1,3.4C373.7,516.7,375.1,515.3,375.1,513.2z"/>
		<path fill="#060E9F" d="M380.6,507.8h2.5v2.4c0.7-1.6,1.9-2.7,3.8-2.6v2.6h-0.1c-2.2,0-3.7,1.4-3.7,4.3v4.1h-2.5L380.6,507.8
			L380.6,507.8z"/>
		<path fill="#060E9F" d="M387.8,515.5L387.8,515.5c0-2.4,1.8-3.5,4.4-3.5c1.2,0,2.1,0.2,2.9,0.4v-0.3c0-1.5-0.9-2.3-2.7-2.3
			c-1.2,0-2.1,0.3-3.1,0.7l-0.7-1.9c1.2-0.5,2.3-0.9,4.1-0.9c1.6,0,2.8,0.4,3.6,1.2c0.8,0.8,1.2,1.9,1.2,3.3v6.4h-2.4v-1.3
			c-0.7,0.9-1.9,1.6-3.5,1.6C389.6,518.8,387.8,517.7,387.8,515.5z M395.2,514.7V514c-0.6-0.2-1.5-0.4-2.4-0.4
			c-1.6,0-2.5,0.7-2.5,1.8l0,0c0,1,0.9,1.6,2.1,1.6C394,517,395.2,516.1,395.2,514.7z"/>
		<path fill="#060E9F" d="M400.9,515.6V510h-1.4v-2.1h1.4v-3h2.5v3h2.9v2.1h-2.9v5.3c0,1,0.5,1.3,1.3,1.3c0.6,0,1-0.1,1.5-0.4v2
			c-0.6,0.3-1.3,0.5-2.2,0.5C402.2,518.8,400.9,518,400.9,515.6z"/>
		<path fill="#060E9F" d="M408.8,503.8h2.6v2.3h-2.6V503.8z M408.9,507.8h2.5v10.8h-2.5V507.8z"/>
		<path fill="#060E9F" d="M414,513.3L414,513.3c0-3.1,2.4-5.7,5.7-5.7c3.3,0,5.7,2.5,5.7,5.6l0,0c0,3.1-2.4,5.6-5.8,5.6
			C416.4,518.8,414,516.3,414,513.3z M423,513.3L423,513.3c0-1.9-1.4-3.5-3.3-3.5c-2,0-3.2,1.5-3.2,3.4l0,0c0,1.9,1.4,3.4,3.3,3.4
			C421.7,516.7,423,515.1,423,513.3z"/>
		<path fill="#060E9F" d="M428,507.8h2.5v1.7c0.7-1,1.7-1.9,3.4-1.9c2.4,0,3.8,1.6,3.8,4.1v6.9h-2.5v-6.1c0-1.7-0.8-2.6-2.3-2.6
			c-1.4,0-2.4,1-2.4,2.7v6.1H428V507.8z"/>
		<path fill="#060E9F" d="M446.8,503.8h2.6v2.3h-2.6V503.8z M446.9,507.8h2.5v10.8h-2.5V507.8z"/>
		<path fill="#060E9F" d="M452.5,507.8h2.5v1.7c0.7-1,1.7-1.9,3.4-1.9c2.4,0,3.8,1.6,3.8,4.1v6.9h-2.5v-6.1c0-1.7-0.8-2.6-2.3-2.6
			c-1.4,0-2.4,1-2.4,2.7v6.1h-2.5V507.8z"/>
		<path fill="#060E9F" d="M471.3,507.8h2.5v1.8c0.8-1.1,1.9-2,3.7-2c2.5,0,5,2,5,5.6l0,0c0,3.6-2.4,5.6-5,5.6
			c-1.8,0-2.9-0.9-3.7-1.9v4.9h-2.5V507.8z M479.9,513.2L479.9,513.2c0-2.1-1.4-3.5-3.1-3.5s-3.1,1.4-3.1,3.4l0,0
			c0,2.1,1.5,3.4,3.1,3.4C478.5,516.7,479.9,515.4,479.9,513.2z"/>
		<path fill="#060E9F" d="M484.2,515.5L484.2,515.5c0-2.4,1.8-3.5,4.4-3.5c1.2,0,2.1,0.2,2.9,0.4v-0.3c0-1.5-0.9-2.3-2.7-2.3
			c-1.2,0-2.1,0.3-3.1,0.7l-0.7-1.9c1.2-0.5,2.3-0.9,4.1-0.9c1.6,0,2.8,0.4,3.6,1.2c0.8,0.8,1.2,1.9,1.2,3.3v6.4h-2.4v-1.3
			c-0.7,0.9-1.9,1.6-3.5,1.6C486,518.8,484.2,517.7,484.2,515.5z M491.6,514.7V514c-0.6-0.2-1.5-0.4-2.4-0.4c-1.6,0-2.5,0.7-2.5,1.8
			l0,0c0,1,0.9,1.6,2.1,1.6C490.4,517,491.6,516.1,491.6,514.7z"/>
		<path fill="#060E9F" d="M497.3,515.6V510h-1.4v-2.1h1.4v-3h2.5v3h2.9v2.1h-2.9v5.3c0,1,0.5,1.3,1.3,1.3c0.6,0,1-0.1,1.5-0.4v2
			c-0.6,0.3-1.3,0.5-2.2,0.5C498.6,518.8,497.3,518,497.3,515.6z"/>
		<path fill="#060E9F" d="M505.2,503.8h2.6v2.3h-2.6V503.8z M505.3,507.8h2.5v10.8h-2.5V507.8z"/>
		<path fill="#060E9F" d="M510.4,513.3L510.4,513.3c0-3.1,2.2-5.6,5.3-5.6c3.4,0,5.2,2.7,5.2,5.8c0,0.2,0,0.4,0,0.7H513
			c0.3,1.8,1.5,2.7,3.1,2.7c1.2,0,2.1-0.4,2.9-1.3l1.4,1.3c-1,1.2-2.4,2-4.4,2C512.8,518.8,510.4,516.6,510.4,513.3z M518.4,512.5
			c-0.2-1.6-1.1-2.8-2.7-2.8c-1.5,0-2.6,1.2-2.8,2.8H518.4z"/>
		<path fill="#060E9F" d="M523.3,507.8h2.5v1.7c0.7-1,1.7-1.9,3.4-1.9c2.4,0,3.8,1.6,3.8,4.1v6.9h-2.5v-6.1c0-1.7-0.8-2.6-2.3-2.6
			c-1.4,0-2.4,1-2.4,2.7v6.1h-2.5V507.8z"/>
		<path fill="#060E9F" d="M536.4,515.6V510H535v-2.1h1.4v-3h2.5v3h2.9v2.1h-2.9v5.3c0,1,0.5,1.3,1.3,1.3c0.5,0,1-0.1,1.5-0.4v2
			c-0.6,0.3-1.3,0.5-2.2,0.5C537.7,518.8,536.4,518,536.4,515.6z"/>
		<path fill="#060E9F" d="M543.4,517.2l1.1-1.7c1.2,0.9,2.4,1.3,3.5,1.3s1.7-0.4,1.7-1.2l0,0c0-0.8-1.1-1.1-2.4-1.5
			c-1.6-0.4-3.4-1.1-3.4-3.2l0,0c0-2,1.7-3.3,3.8-3.3c1.3,0,2.8,0.5,4,1.2l-1,1.8c-1-0.6-2.1-1-3-1c-1,0-1.5,0.4-1.5,1.1l0,0
			c0,0.8,1.2,1.1,2.4,1.5c1.6,0.5,3.3,1.2,3.3,3.1l0,0c0,2.3-1.8,3.4-4,3.4C546.5,518.8,544.8,518.2,543.4,517.2z"/>
		<path fill="#060E9F" d="M560,513.3L560,513.3c0-3.1,2.4-5.7,5.6-5.7c2,0,3.3,0.8,4.3,1.9l-1.5,1.7c-0.8-0.8-1.5-1.3-2.8-1.3
			c-1.8,0-3.1,1.5-3.1,3.4l0,0c0,1.9,1.3,3.4,3.2,3.4c1.2,0,2-0.5,2.8-1.3l1.5,1.5c-1.1,1.2-2.3,2-4.4,2
			C562.4,518.8,560,516.3,560,513.3z"/>
		<path fill="#060E9F" d="M572.1,514.7v-6.8h2.5v6.1c0,1.7,0.8,2.6,2.3,2.6c1.4,0,2.4-1,2.4-2.6v-6.1h2.5v10.8h-2.5V517
			c-0.7,1-1.7,1.9-3.4,1.9C573.5,518.8,572.1,517.2,572.1,514.7z"/>
		<path fill="#060E9F" d="M584.9,507.8h2.5v2.4c0.7-1.6,1.9-2.7,3.8-2.6v2.6H591c-2.2,0-3.7,1.4-3.7,4.3v4.1h-2.5v-10.8H584.9z"/>
		<path fill="#060E9F" d="M593.3,507.8h2.5v2.4c0.7-1.6,1.9-2.7,3.8-2.6v2.6h-0.1c-2.2,0-3.7,1.4-3.7,4.3v4.1h-2.5V507.8z"/>
		<path fill="#060E9F" d="M600.7,513.3L600.7,513.3c0-3.1,2.2-5.6,5.3-5.6c3.4,0,5.2,2.7,5.2,5.8c0,0.2,0,0.4,0,0.7h-7.9
			c0.3,1.8,1.5,2.7,3.1,2.7c1.2,0,2.1-0.4,2.9-1.3l1.4,1.3c-1,1.2-2.4,2-4.4,2C603.1,518.8,600.7,516.6,600.7,513.3z M608.7,512.5
			c-0.2-1.6-1.1-2.8-2.7-2.8c-1.5,0-2.6,1.2-2.8,2.8H608.7z"/>
		<path fill="#060E9F" d="M613.6,507.8h2.5v1.7c0.7-1,1.7-1.9,3.4-1.9c2.4,0,3.8,1.6,3.8,4.1v6.9h-2.5v-6.1c0-1.7-0.8-2.6-2.3-2.6
			c-1.4,0-2.4,1-2.4,2.7v6.1h-2.5V507.8z"/>
		<path fill="#060E9F" d="M626.8,515.6V510h-1.4v-2.1h1.4v-3h2.5v3h2.9v2.1h-2.9v5.3c0,1,0.5,1.3,1.3,1.3c0.5,0,1-0.1,1.5-0.4v2
			c-0.6,0.3-1.3,0.5-2.2,0.5C628,518.8,626.8,518,626.8,515.6z"/>
		<path fill="#060E9F" d="M634.8,503.7h2.5v14.9h-2.5V503.7z"/>
		<path fill="#060E9F" d="M647.9,507.8h2.6l-4.3,11.1c-0.9,2.2-1.8,3-3.5,3c-1,0-1.8-0.2-2.5-0.7l0.8-1.8c0.4,0.2,0.9,0.4,1.4,0.4
			c0.7,0,1.1-0.3,1.5-1.2l-4.5-10.8h2.6l3,8L647.9,507.8z"/>
		<path fill="#060E9F" d="M658.7,507.8h2.5v2.4c0.7-1.6,1.9-2.7,3.8-2.6v2.6h-0.1c-2.2,0-3.7,1.4-3.7,4.3v4.1h-2.5V507.8z"/>
		<path fill="#060E9F" d="M666.1,513.3L666.1,513.3c0-3.1,2.2-5.6,5.3-5.6c3.4,0,5.2,2.7,5.2,5.8c0,0.2,0,0.4,0,0.7h-7.9
			c0.3,1.8,1.5,2.7,3.1,2.7c1.2,0,2.1-0.4,2.9-1.3l1.4,1.3c-1,1.2-2.4,2-4.4,2C668.6,518.8,666.1,516.6,666.1,513.3z M674.1,512.5
			c-0.2-1.6-1.1-2.8-2.7-2.8c-1.5,0-2.6,1.2-2.8,2.8H674.1z"/>
		<path fill="#060E9F" d="M678.4,513.3L678.4,513.3c0-3.1,2.4-5.7,5.6-5.7c2,0,3.3,0.8,4.3,1.9l-1.5,1.7c-0.8-0.8-1.5-1.3-2.8-1.3
			c-1.8,0-3.1,1.5-3.1,3.4l0,0c0,1.9,1.3,3.4,3.2,3.4c1.2,0,2-0.5,2.8-1.3l1.5,1.5c-1.1,1.2-2.3,2-4.4,2
			C680.8,518.8,678.4,516.3,678.4,513.3z"/>
		<path fill="#060E9F" d="M689.8,513.3L689.8,513.3c0-3.1,2.2-5.6,5.3-5.6c3.4,0,5.2,2.7,5.2,5.8c0,0.2,0,0.4,0,0.7h-7.9
			c0.3,1.8,1.5,2.7,3.1,2.7c1.2,0,2.1-0.4,2.9-1.3l1.4,1.3c-1,1.2-2.4,2-4.4,2C692.2,518.8,689.8,516.6,689.8,513.3z M697.7,512.5
			c-0.2-1.6-1.1-2.8-2.7-2.8c-1.5,0-2.6,1.2-2.8,2.8H697.7z"/>
		<path fill="#060E9F" d="M702.7,503.8h2.6v2.3h-2.6V503.8z M702.8,507.8h2.5v10.8h-2.5V507.8z"/>
		<path fill="#060E9F" d="M707.5,507.8h2.6l2.9,7.9l2.9-7.9h2.6l-4.4,10.8h-2.2L707.5,507.8z"/>
		<path fill="#060E9F" d="M720.6,503.8h2.6v2.3h-2.6V503.8z M720.8,507.8h2.5v10.8h-2.5V507.8z"/>
		<path fill="#060E9F" d="M726.4,507.8h2.5v1.7c0.7-1,1.7-1.9,3.4-1.9c2.4,0,3.8,1.6,3.8,4.1v6.9h-2.5v-6.1c0-1.7-0.8-2.6-2.3-2.6
			c-1.4,0-2.4,1-2.4,2.7v6.1h-2.5V507.8z"/>
		<path fill="#060E9F" d="M739,520.6l0.9-1.9c1.2,0.7,2.4,1.1,3.8,1.1c2.2,0,3.4-1.1,3.4-3.3v-0.8c-0.9,1.2-2,2-3.8,2
			c-2.5,0-4.9-1.9-4.9-5l0,0c0-3.2,2.4-5.1,4.9-5.1c1.8,0,2.9,0.8,3.8,1.8v-1.6h2.5v8.6c0,1.8-0.5,3.2-1.4,4.1c-1,1-2.5,1.4-4.4,1.4
			C742.1,521.9,740.4,521.4,739,520.6z M747.2,512.7L747.2,512.7c0-1.8-1.4-3-3.2-3s-3.1,1.2-3.1,3l0,0c0,1.8,1.4,3,3.1,3
			C745.8,515.6,747.2,514.4,747.2,512.7z"/>
		<path fill="#060E9F" d="M758.1,515.5L758.1,515.5c0-2.4,1.8-3.5,4.4-3.5c1.2,0,2.1,0.2,2.9,0.4v-0.3c0-1.5-0.9-2.3-2.7-2.3
			c-1.2,0-2.1,0.3-3.1,0.7l-0.7-1.9c1.2-0.5,2.3-0.9,4.1-0.9c1.6,0,2.8,0.4,3.6,1.2c0.8,0.8,1.2,1.9,1.2,3.3v6.4h-2.4v-1.3
			c-0.7,0.9-1.9,1.6-3.5,1.6C759.9,518.8,758.1,517.7,758.1,515.5z M765.5,514.7V514c-0.6-0.2-1.5-0.4-2.4-0.4
			c-1.6,0-2.5,0.7-2.5,1.8l0,0c0,1,0.9,1.6,2.1,1.6C764.3,517,765.5,516.1,765.5,514.7z"/>
		<path fill="#060E9F" d="M770.2,513.3L770.2,513.3c0-3.1,2.4-5.7,5.6-5.7c2,0,3.3,0.8,4.3,1.9l-1.5,1.7c-0.8-0.8-1.5-1.3-2.8-1.3
			c-1.8,0-3.1,1.5-3.1,3.4l0,0c0,1.9,1.3,3.4,3.2,3.4c1.2,0,2-0.5,2.8-1.3l1.5,1.5c-1.1,1.2-2.3,2-4.4,2
			C772.6,518.8,770.2,516.3,770.2,513.3z"/>
		<path fill="#060E9F" d="M782.4,507.8h2.5v1.7c0.7-1,1.7-1.9,3.4-1.9c2.4,0,3.8,1.6,3.8,4.1v6.9h-2.5v-6.1c0-1.7-0.8-2.6-2.3-2.6
			c-1.4,0-2.4,1-2.4,2.7v6.1h-2.5V507.8z"/>
		<path fill="#060E9F" d="M794.5,513.3L794.5,513.3c0-3.1,2.2-5.6,5.3-5.6c3.4,0,5.2,2.7,5.2,5.8c0,0.2,0,0.4,0,0.7h-7.9
			c0.3,1.8,1.5,2.7,3.1,2.7c1.2,0,2.1-0.4,2.9-1.3l1.4,1.3c-1,1.2-2.4,2-4.4,2C796.9,518.8,794.5,516.6,794.5,513.3z M802.4,512.5
			c-0.2-1.6-1.1-2.8-2.7-2.8c-1.5,0-2.6,1.2-2.8,2.8H802.4z"/>
	</g>
	<g enable-background="new    ">
		<path fill="#060E9F" d="M22.4,540.1v-5.7H21v-2.1h1.4v-3h2.5v3h2.9v2.1h-2.9v5.3c0,1,0.5,1.3,1.3,1.3c0.6,0,1-0.1,1.5-0.4v2
			c-0.6,0.3-1.3,0.5-2.2,0.5C23.7,543.2,22.4,542.4,22.4,540.1z"/>
		<path fill="#060E9F" d="M30.3,532.3h2.5v2.4c0.7-1.6,1.9-2.7,3.8-2.6v2.6h-0.1c-2.2,0-3.7,1.4-3.7,4.3v4.1h-2.5V532.3z"/>
		<path fill="#060E9F" d="M37.7,537.7L37.7,537.7c0-3.1,2.2-5.6,5.3-5.6c3.4,0,5.2,2.7,5.2,5.8c0,0.2,0,0.4,0,0.7h-7.9
			c0.3,1.8,1.5,2.7,3.1,2.7c1.2,0,2.1-0.4,2.9-1.3l1.4,1.3c-1,1.2-2.4,2-4.4,2C40.1,543.3,37.7,541,37.7,537.7z M45.7,536.9
			c-0.2-1.6-1.1-2.8-2.7-2.8c-1.5,0-2.6,1.2-2.8,2.8H45.7z"/>
		<path fill="#060E9F" d="M49.9,539.9L49.9,539.9c0-2.4,1.8-3.5,4.4-3.5c1.2,0,2.1,0.2,2.9,0.4v-0.3c0-1.5-0.9-2.3-2.7-2.3
			c-1.2,0-2.1,0.3-3.1,0.7l-0.7-1.9c1.2-0.5,2.3-0.9,4.1-0.9c1.6,0,2.8,0.4,3.6,1.2s1.2,1.9,1.2,3.3v6.4h-2.4v-1.3
			c-0.7,0.9-1.9,1.6-3.5,1.6C51.7,543.3,49.9,542.1,49.9,539.9z M57.3,539.2v-0.7c-0.6-0.2-1.5-0.4-2.4-0.4c-1.6,0-2.5,0.7-2.5,1.8
			l0,0c0,1,0.9,1.6,2.1,1.6C56,541.5,57.3,540.5,57.3,539.2z"/>
		<path fill="#060E9F" d="M63,540.1v-5.7h-1.4v-2.1H63v-3h2.5v3h2.9v2.1h-2.9v5.3c0,1,0.5,1.3,1.3,1.3c0.6,0,1-0.1,1.5-0.4v2
			c-0.6,0.3-1.3,0.5-2.2,0.5C64.3,543.2,63,542.4,63,540.1z"/>
		<path fill="#060E9F" d="M70.9,532.3h2.5v1.6c0.7-1,1.6-1.9,3.3-1.9c1.5,0,2.6,0.8,3.2,1.9c0.9-1.1,2-1.9,3.6-1.9
			c2.3,0,3.8,1.5,3.8,4.1v6.9h-2.5v-6.1c0-1.7-0.8-2.6-2.2-2.6c-1.3,0-2.3,0.9-2.3,2.7v6.1h-2.5V537c0-1.7-0.8-2.6-2.2-2.6
			s-2.3,1-2.3,2.7v6.1h-2.5L70.9,532.3L70.9,532.3z"/>
		<path fill="#060E9F" d="M89.6,537.7L89.6,537.7c0-3.1,2.2-5.6,5.3-5.6c3.4,0,5.2,2.7,5.2,5.8c0,0.2,0,0.4,0,0.7h-7.9
			c0.3,1.8,1.5,2.7,3.1,2.7c1.2,0,2.1-0.4,2.9-1.3l1.4,1.3c-1,1.2-2.4,2-4.4,2C92,543.3,89.6,541,89.6,537.7z M97.6,536.9
			c-0.2-1.6-1.1-2.8-2.7-2.8c-1.5,0-2.6,1.2-2.8,2.8H97.6z"/>
		<path fill="#060E9F" d="M102.5,532.3h2.5v1.7c0.7-1,1.7-1.9,3.4-1.9c2.4,0,3.8,1.6,3.8,4.1v6.9h-2.5V537c0-1.7-0.8-2.6-2.3-2.6
			c-1.4,0-2.4,1-2.4,2.7v6.1h-2.5V532.3z"/>
		<path fill="#060E9F" d="M115.6,540.1v-5.7h-1.4v-2.1h1.4v-3h2.5v3h2.9v2.1h-2.9v5.3c0,1,0.5,1.3,1.3,1.3c0.6,0,1-0.1,1.5-0.4v2
			c-0.6,0.3-1.3,0.5-2.2,0.5C116.9,543.2,115.6,542.4,115.6,540.1z"/>
		<path fill="#060E9F" d="M129.3,537.2c0-3.8,1.9-6.7,5.6-8.7l1.1,1.6c-2.9,1.9-4.3,4-4.3,7.1s1.4,5.1,4.3,7.1l-1.1,1.6
			C131.3,543.9,129.3,541,129.3,537.2z"/>
		<path fill="#060E9F" d="M138.6,532.3h2.5v2.4c0.7-1.6,1.9-2.7,3.8-2.6v2.6h-0.1c-2.2,0-3.7,1.4-3.7,4.3v4.1h-2.5V532.3z"/>
		<path fill="#060E9F" d="M146,537.7L146,537.7c0-3.1,2.2-5.6,5.3-5.6c3.4,0,5.2,2.7,5.2,5.8c0,0.2,0,0.4,0,0.7h-7.9
			c0.3,1.8,1.5,2.7,3.1,2.7c1.2,0,2.1-0.4,2.9-1.3l1.4,1.3c-1,1.2-2.4,2-4.4,2C148.5,543.3,146,541,146,537.7z M154,536.9
			c-0.2-1.6-1.1-2.8-2.7-2.8c-1.5,0-2.6,1.2-2.8,2.8H154z"/>
		<path fill="#060E9F" d="M159.1,528.2h2.5V543h-2.5V528.2z"/>
		<path fill="#060E9F" d="M164.1,539.9L164.1,539.9c0-2.4,1.8-3.5,4.4-3.5c1.2,0,2.1,0.2,2.9,0.4v-0.3c0-1.5-0.9-2.3-2.7-2.3
			c-1.2,0-2.1,0.3-3.1,0.7L165,533c1.2-0.5,2.3-0.9,4.1-0.9c1.6,0,2.8,0.4,3.6,1.2s1.2,1.9,1.2,3.3v6.4h-2.4v-1.3
			c-0.7,0.9-1.9,1.6-3.5,1.6C165.8,543.3,164.1,542.1,164.1,539.9z M171.4,539.2v-0.7c-0.6-0.2-1.5-0.4-2.4-0.4
			c-1.6,0-2.5,0.7-2.5,1.8l0,0c0,1,0.9,1.6,2.1,1.6C170.2,541.5,171.4,540.5,171.4,539.2z"/>
		<path fill="#060E9F" d="M177.1,540.1v-5.7h-1.4v-2.1h1.4v-3h2.5v3h2.9v2.1h-2.9v5.3c0,1,0.5,1.3,1.3,1.3c0.6,0,1-0.1,1.5-0.4v2
			c-0.6,0.3-1.3,0.5-2.2,0.5C178.4,543.2,177.1,542.4,177.1,540.1z"/>
		<path fill="#060E9F" d="M185,528.3h2.6v2.3H185V528.3z M185.1,532.3h2.5V543h-2.5V532.3z"/>
		<path fill="#060E9F" d="M189.8,532.3h2.6l2.9,7.9l2.9-7.9h2.6l-4.4,10.8h-2.2L189.8,532.3z"/>
		<path fill="#060E9F" d="M201.7,537.7L201.7,537.7c0-3.1,2.2-5.6,5.3-5.6c3.4,0,5.2,2.7,5.2,5.8c0,0.2,0,0.4,0,0.7h-7.9
			c0.3,1.8,1.5,2.7,3.1,2.7c1.2,0,2.1-0.4,2.9-1.3l1.4,1.3c-1,1.2-2.4,2-4.4,2C204.1,543.3,201.7,541,201.7,537.7z M209.7,536.9
			c-0.2-1.6-1.1-2.8-2.7-2.8c-1.5,0-2.6,1.2-2.8,2.8H209.7z"/>
		<path fill="#060E9F" d="M221.2,540.1v-5.7h-1.4v-2.1h1.4v-3h2.5v3h2.9v2.1h-2.9v5.3c0,1,0.5,1.3,1.3,1.3c0.6,0,1-0.1,1.5-0.4v2
			c-0.6,0.3-1.3,0.5-2.2,0.5C222.5,543.2,221.2,542.4,221.2,540.1z"/>
		<path fill="#060E9F" d="M228.2,537.7L228.2,537.7c0-3.1,2.4-5.7,5.7-5.7s5.7,2.5,5.7,5.6l0,0c0,3.1-2.4,5.6-5.8,5.6
			C230.6,543.3,228.2,540.8,228.2,537.7z M237.2,537.7L237.2,537.7c0-1.9-1.4-3.5-3.3-3.5c-2,0-3.2,1.5-3.2,3.4l0,0
			c0,1.9,1.4,3.4,3.3,3.4C235.9,541.1,237.2,539.6,237.2,537.7z"/>
		<path fill="#060E9F" d="M250.8,541.4v1.7h-2.5v-14.9h2.5v5.9c0.8-1.1,1.9-2,3.7-2c2.5,0,5,2,5,5.6l0,0c0,3.6-2.4,5.6-5,5.6
			C252.6,543.3,251.5,542.4,250.8,541.4z M256.9,537.7L256.9,537.7c0-2.1-1.4-3.5-3.1-3.5s-3.1,1.4-3.1,3.4l0,0
			c0,2.1,1.5,3.4,3.1,3.4C255.5,541.1,256.9,539.8,256.9,537.7z"/>
		<path fill="#060E9F" d="M261.2,539.9L261.2,539.9c0-2.4,1.8-3.5,4.4-3.5c1.2,0,2.1,0.2,2.9,0.4v-0.3c0-1.5-0.9-2.3-2.7-2.3
			c-1.2,0-2.1,0.3-3.1,0.7L262,533c1.2-0.5,2.3-0.9,4.1-0.9c1.6,0,2.8,0.4,3.6,1.2c0.8,0.8,1.2,1.9,1.2,3.3v6.4h-2.4v-1.3
			c-0.7,0.9-1.9,1.6-3.5,1.6C263,543.3,261.2,542.1,261.2,539.9z M268.6,539.2v-0.7c-0.6-0.2-1.5-0.4-2.4-0.4
			c-1.6,0-2.5,0.7-2.5,1.8l0,0c0,1,0.9,1.6,2.1,1.6C267.4,541.5,268.6,540.5,268.6,539.2z"/>
		<path fill="#060E9F" d="M273,541.6l1.1-1.7c1.2,0.9,2.4,1.3,3.5,1.3s1.7-0.4,1.7-1.2l0,0c0-0.8-1.1-1.1-2.4-1.5
			c-1.6-0.4-3.4-1.1-3.4-3.2l0,0c0-2,1.7-3.3,3.8-3.3c1.3,0,2.8,0.5,4,1.2l-1,1.8c-1-0.6-2.1-1-3-1c-1,0-1.5,0.4-1.5,1.1l0,0
			c0,0.8,1.2,1.1,2.4,1.5c1.6,0.5,3.3,1.2,3.3,3.1l0,0c0,2.3-1.8,3.4-4,3.4C276.1,543.2,274.4,542.7,273,541.6z"/>
		<path fill="#060E9F" d="M283.5,537.7L283.5,537.7c0-3.1,2.2-5.6,5.3-5.6c3.4,0,5.2,2.7,5.2,5.8c0,0.2,0,0.4,0,0.7h-8
			c0.3,1.8,1.5,2.7,3.1,2.7c1.2,0,2.1-0.4,2.9-1.3l1.4,1.3c-1,1.2-2.4,2-4.4,2C285.9,543.3,283.5,541,283.5,537.7z M291.5,536.9
			c-0.2-1.6-1.1-2.8-2.7-2.8c-1.5,0-2.6,1.2-2.8,2.8H291.5z"/>
		<path fill="#060E9F" d="M296.6,528.2h2.5V543h-2.5V528.2z"/>
		<path fill="#060E9F" d="M302.3,528.3h2.6v2.3h-2.6V528.3z M302.4,532.3h2.5V543h-2.5V532.3z"/>
		<path fill="#060E9F" d="M308.1,532.3h2.5v1.7c0.7-1,1.7-1.9,3.4-1.9c2.4,0,3.8,1.6,3.8,4.1v6.9h-2.5V537c0-1.7-0.8-2.6-2.3-2.6
			c-1.4,0-2.4,1-2.4,2.7v6.1h-2.5V532.3z"/>
		<path fill="#060E9F" d="M320.1,537.7L320.1,537.7c0-3.1,2.2-5.6,5.3-5.6c3.4,0,5.2,2.7,5.2,5.8c0,0.2,0,0.4,0,0.7h-7.9
			c0.3,1.8,1.5,2.7,3.1,2.7c1.2,0,2.1-0.4,2.9-1.3l1.4,1.3c-1,1.2-2.4,2-4.4,2C322.5,543.3,320.1,541,320.1,537.7z M328.1,536.9
			c-0.2-1.6-1.1-2.8-2.7-2.8c-1.5,0-2.6,1.2-2.8,2.8H328.1z"/>
		<path fill="#060E9F" d="M331.8,544.3c2.9-1.9,4.3-4,4.3-7.1s-1.4-5.2-4.3-7.1l1.1-1.6c3.7,2,5.6,4.9,5.6,8.7
			c0,3.9-1.9,6.7-5.6,8.7L331.8,544.3z"/>
	</g>
	<rect x="742.9" y="108.4" fill="#762264" width="162" height="284.7"/>
	<line fill="none" stroke="#060E9F" stroke-miterlimit="10" x1="381.3" y1="403.5" x2="381.3" y2="393"/>
	<line fill="none" stroke="#060E9F" stroke-miterlimit="10" x1="673.9" y1="403.5" x2="673.9" y2="393"/>
	<line fill="none" stroke="#060E9F" stroke-miterlimit="10" x1="90.5" y1="147.7" x2="104.3" y2="147.7"/>
	<line fill="none" stroke="#060E9F" stroke-miterlimit="10" x1="90.5" y1="226.9" x2="104.3" y2="226.9"/>
	<line fill="none" stroke="#060E9F" stroke-miterlimit="10" x1="78.8" y1="346.4" x2="104.3" y2="330.1"/>
	<line fill="none" stroke="#060E9F" stroke-miterlimit="10" x1="78.8" y1="357.7" x2="109.3" y2="338.3"/>
	<g enable-background="new    ">
		<path fill="#060E9F" d="M56,63.4L53.7,64l-0.5-1.8l3.4-1.1h1.5v12.8H56V63.4z"/>
		<path fill="#060E9F" d="M67.4,71.1H61l-0.4-1.6l7-8.3h1.9v8.1h1.8v1.8h-1.8v2.8h-2.1V71.1z M67.4,69.2v-5l-4.2,5H67.4z"/>
		<path fill="#060E9F" d="M73.1,72.2l1.4-1.6c1,0.9,2.1,1.5,3.3,1.5c1.5,0,2.5-0.9,2.5-2.2l0,0c0-1.3-1.1-2.1-2.6-2.1
			c-0.9,0-1.7,0.3-2.3,0.6l-1.4-1l0.4-6.2H82v2h-5.7l-0.2,3c0.6-0.2,1.2-0.4,2-0.4c2.5,0,4.4,1.3,4.4,4l0,0c0,2.6-1.9,4.3-4.7,4.3
			C75.8,74.1,74.3,73.3,73.1,72.2z"/>
	</g>
	<g enable-background="new    ">
		<path fill="#060E9F" d="M54.1,144.9l-2.3,0.6l-0.5-1.8l3.4-1.1h1.5v12.8H54L54.1,144.9L54.1,144.9z"/>
		<path fill="#060E9F" d="M65.5,152.5h-6.4l-0.4-1.6l7-8.3h1.9v8.1h1.8v1.8h-1.8v2.8h-2.1V152.5z M65.5,150.7v-5l-4.2,5H65.5z"/>
		<path fill="#060E9F" d="M71.5,149.1L71.5,149.1c0-3.7,2.2-6.6,5.5-6.6s5.5,2.9,5.5,6.5l0,0c0,3.6-2.2,6.6-5.5,6.6
			C73.6,155.6,71.5,152.7,71.5,149.1z M80.2,149.1L80.2,149.1c0-2.5-1.3-4.6-3.2-4.6c-2,0-3.2,2-3.2,4.5l0,0c0,2.5,1.3,4.5,3.2,4.5
			S80.2,151.6,80.2,149.1z"/>
	</g>
	<g enable-background="new    ">
		<path fill="#060E9F" d="M57.2,224.1l-2.3,0.6l-0.5-1.8l3.4-1.1h1.5v12.8h-2.2L57.2,224.1L57.2,224.1z"/>
		<path fill="#060E9F" d="M61.9,232.6l1.6-1.4c0.9,1.1,1.9,1.7,3.3,1.7c1.2,0,2.2-0.8,2.2-1.9l0,0c0-1.2-1.1-2-2.9-2h-1l-0.4-1.4
			l3.4-3.6h-5.5v-1.9H71v1.7l-3.5,3.6c1.9,0.2,3.7,1.2,3.7,3.5l0,0c0,2.3-1.8,4-4.4,4C64.6,234.8,63,233.9,61.9,232.6z"/>
		<path fill="#060E9F" d="M73.1,232.9l1.4-1.6c1,0.9,2.1,1.5,3.3,1.5c1.5,0,2.5-0.9,2.5-2.2l0,0c0-1.3-1.1-2.1-2.6-2.1
			c-0.9,0-1.7,0.3-2.3,0.6l-1.3-0.9l0.4-6.2h7.6v2h-5.7l-0.2,3c0.6-0.2,1.2-0.4,2-0.4c2.5,0,4.4,1.3,4.4,4l0,0
			c0,2.6-1.9,4.3-4.7,4.3C75.8,234.8,74.3,234,73.1,232.9z"/>
	</g>
	<g enable-background="new    ">
		<path fill="#060E9F" d="M55.3,305.6l-2.3,0.6l-0.5-1.8l3.4-1.1h1.5V316h-2.2L55.3,305.6L55.3,305.6z"/>
		<path fill="#060E9F" d="M60,314l1.6-1.4c0.9,1.1,1.9,1.7,3.3,1.7c1.2,0,2.2-0.8,2.2-1.9l0,0c0-1.2-1.1-2-2.9-2h-1l-0.4-1.4
			l3.4-3.6h-5.5v-1.9h8.4v1.7l-3.5,3.6c1.9,0.2,3.7,1.2,3.7,3.5l0,0c0,2.3-1.8,4-4.4,4C62.7,316.3,61.1,315.3,60,314z"/>
		<path fill="#060E9F" d="M71.5,309.8L71.5,309.8c0-3.7,2.2-6.6,5.5-6.6s5.5,2.9,5.5,6.5l0,0c0,3.6-2.2,6.6-5.5,6.6
			C73.6,316.3,71.5,313.4,71.5,309.8z M80.2,309.8L80.2,309.8c0-2.5-1.3-4.6-3.2-4.6c-2,0-3.2,2-3.2,4.5l0,0c0,2.5,1.3,4.5,3.2,4.5
			S80.2,312.2,80.2,309.8z"/>
	</g>
	<g enable-background="new    ">
		<path fill="#060E9F" d="M71.5,389L71.5,389c0-3.7,2.2-6.6,5.5-6.6s5.5,2.9,5.5,6.5l0,0c0,3.6-2.2,6.6-5.5,6.6
			C73.6,395.5,71.5,392.6,71.5,389z M80.2,389L80.2,389c0-2.5-1.3-4.6-3.2-4.6c-2,0-3.2,2-3.2,4.5l0,0c0,2.5,1.3,4.5,3.2,4.5
			S80.2,391.4,80.2,389z"/>
	</g>
	<g enable-background="new    ">
		<path fill="#060E9F" d="M498.1,85.3l-2.3,0.6l-0.5-1.8l3.4-1.1h1.5v12.8H498V85.3H498.1z"/>
		<path fill="#060E9F" d="M509.5,92.9h-6.4l-0.4-1.6l7-8.3h1.9v8.1h1.8v1.8h-1.8v2.8h-2.1L509.5,92.9L509.5,92.9z M509.5,91.1v-5
			l-4.2,5H509.5z"/>
		<path fill="#060E9F" d="M515.2,93.8l1.6-1.4c0.9,1.1,1.9,1.7,3.3,1.7c1.2,0,2.2-0.8,2.2-1.9l0,0c0-1.2-1.1-2-2.9-2h-1l-0.4-1.4
			l3.4-3.6h-5.5v-1.9h8.4V85l-3.5,3.6c1.9,0.2,3.7,1.2,3.7,3.5l0,0c0,2.3-1.8,4-4.4,4C517.8,96,516.3,95.1,515.2,93.8z"/>
		<path fill="#060E9F" d="M526.8,93.3h2.4v2.5h-2.4V93.3z"/>
		<path fill="#060E9F" d="M531.3,92.3L531.3,92.3c0-1.6,0.9-2.5,2.3-3.1c-1.1-0.6-1.8-1.4-1.8-2.8l0,0c0-1.9,1.9-3.4,4.4-3.4
			s4.4,1.5,4.4,3.4l0,0c0,1.4-0.8,2.3-1.8,2.8c1.4,0.6,2.3,1.5,2.3,3l0,0c0,2.3-2.1,3.7-4.8,3.7S531.3,94.5,531.3,92.3z M538.8,92.2
			L538.8,92.2c0-1.2-1.2-2-2.7-2s-2.6,0.8-2.6,1.9l0,0c0,1,1,1.9,2.6,1.9S538.8,93.3,538.8,92.2z M538.4,86.6L538.4,86.6
			c0-1-0.9-1.8-2.3-1.8s-2.3,0.8-2.3,1.8l0,0c0,1.1,1,1.9,2.3,1.9S538.4,87.7,538.4,86.6z"/>
		<path fill="#060E9F" d="M542.8,94l4.4-3.7c1.7-1.5,2.4-2.3,2.4-3.4c0-1.2-0.9-2-2-2s-2,0.6-2.9,1.9l-1.6-1.2
			c1.2-1.7,2.4-2.6,4.7-2.6c2.5,0,4.2,1.5,4.2,3.8l0,0c0,2-1,3.1-3.3,4.9l-2.6,2.2h6v2h-9.2V94H542.8z"/>
	</g>
	<g enable-background="new    ">
		<path fill="#060E9F" d="M198.6,186.3l-2.3,0.6l-0.5-1.8l3.4-1.1h1.5v12.8h-2.2v-10.5H198.6z"/>
		<path fill="#060E9F" d="M203.4,194.8l1.6-1.4c0.9,1.1,1.9,1.7,3.3,1.7c1.2,0,2.2-0.8,2.2-1.9l0,0c0-1.2-1.1-2-2.9-2h-1l-0.4-1.4
			l3.4-3.6h-5.5v-1.9h8.4v1.7l-3.5,3.6c1.9,0.2,3.7,1.2,3.7,3.5l0,0c0,2.3-1.8,4-4.4,4C206,197,204.4,196.1,203.4,194.8z"/>
		<path fill="#060E9F" d="M214.5,195.1l1.4-1.6c1,0.9,2.1,1.5,3.3,1.5c1.5,0,2.5-0.9,2.5-2.2l0,0c0-1.3-1.1-2.1-2.6-2.1
			c-0.9,0-1.7,0.3-2.3,0.6l-1.3-0.9l0.4-6.2h7.6v2h-5.7l-0.2,3c0.6-0.2,1.2-0.4,2-0.4c2.5,0,4.4,1.3,4.4,4l0,0
			c0,2.6-1.9,4.3-4.7,4.3C217.2,197,215.7,196.2,214.5,195.1z"/>
		<path fill="#060E9F" d="M226.2,194.3h2.4v2.5h-2.4V194.3z"/>
		<path fill="#060E9F" d="M232.4,195.7c-1-1-1.5-2.3-1.5-4.8l0,0c0-3.9,1.8-6.9,5.4-6.9c1.6,0,2.8,0.5,3.9,1.4L239,187
			c-0.9-0.7-1.6-1.1-2.8-1.1c-2.2,0-3,2.3-3,4c0.7-0.8,1.7-1.3,3-1.3c2.4,0,4.4,1.4,4.4,4l0,0c0,2.5-2,4.3-4.7,4.3
			C234.4,197,233.2,196.5,232.4,195.7z M238.4,192.8L238.4,192.8c0-1.3-1-2.2-2.6-2.2s-2.6,1-2.6,2.2l0,0c0,1.3,1,2.3,2.6,2.3
			S238.4,194.1,238.4,192.8z"/>
		<path fill="#060E9F" d="M244.3,195.7c-1-1-1.5-2.3-1.5-4.8l0,0c0-3.9,1.8-6.9,5.4-6.9c1.6,0,2.8,0.5,3.9,1.4l-1.2,1.7
			c-0.9-0.7-1.6-1.1-2.8-1.1c-2.2,0-3,2.3-3,4c0.7-0.8,1.7-1.3,3-1.3c2.4,0,4.4,1.4,4.4,4l0,0c0,2.5-2,4.3-4.7,4.3
			C246.2,197,245.1,196.5,244.3,195.7z M250.3,192.8L250.3,192.8c0-1.3-1-2.2-2.6-2.2s-2.6,1-2.6,2.2l0,0c0,1.3,1,2.3,2.6,2.3
			S250.3,194.1,250.3,192.8z"/>
	</g>
	<g enable-background="new    ">
		<path fill="#060E9F" d="M197,407.7h5.7c1.4,0,2.6,0.4,3.3,1.1c0.6,0.6,0.9,1.2,0.9,2.1l0,0c0,1.5-0.9,2.3-1.8,2.8
			c1.5,0.5,2.5,1.4,2.5,3.1l0,0c0,2.3-1.9,3.5-4.7,3.5H197V407.7z M204.7,411.2c0-1-0.8-1.6-2.2-1.6h-3.2v3.4h3
			C203.7,413,204.7,412.4,204.7,411.2L204.7,411.2z M202.8,414.9h-3.5v3.5h3.7c1.5,0,2.4-0.6,2.4-1.7l0,0
			C205.4,415.5,204.5,414.9,202.8,414.9z"/>
		<path fill="#060E9F" d="M209.2,417.6L209.2,417.6c0-2.1,1.6-3.1,3.9-3.1c1.1,0,1.8,0.2,2.6,0.4v-0.2c0-1.4-0.8-2.1-2.4-2.1
			c-1.1,0-1.9,0.2-2.7,0.6l-0.6-1.7c1-0.5,2.1-0.8,3.6-0.8c1.4,0,2.5,0.4,3.2,1.1s1,1.7,1,3v5.7h-2.1v-1.2c-0.7,0.8-1.6,1.4-3.1,1.4
			C210.8,420.5,209.2,419.5,209.2,417.6z M215.8,416.9v-0.7c-0.6-0.2-1.3-0.4-2.2-0.4c-1.4,0-2.2,0.6-2.2,1.6l0,0
			c0,0.9,0.8,1.4,1.9,1.4C214.7,418.9,215.8,418.1,215.8,416.9z"/>
		<path fill="#060E9F" d="M219.7,419.1l1-1.5c1,0.8,2.2,1.2,3.1,1.2c0.9,0,1.5-0.4,1.5-1l0,0c0-0.7-1-1-2.1-1.3c-1.4-0.4-3-1-3-2.8
			l0,0c0-1.8,1.5-2.9,3.4-2.9c1.2,0,2.5,0.4,3.5,1.1l-0.9,1.6c-0.9-0.6-1.9-0.9-2.7-0.9c-0.9,0-1.3,0.4-1.3,0.9l0,0
			c0,0.7,1,1,2.2,1.4c1.4,0.4,3,1.1,3,2.8l0,0c0,2-1.6,3-3.5,3C222.4,420.5,220.9,420,219.7,419.1z"/>
		<path fill="#060E9F" d="M229,415.6L229,415.6c0-2.8,1.9-5,4.7-5c3,0,4.6,2.4,4.6,5.1c0,0.2,0,0.4,0,0.6h-7
			c0.2,1.6,1.3,2.4,2.8,2.4c1.1,0,1.8-0.4,2.6-1.1l1.3,1.1c-0.9,1.1-2.2,1.8-3.9,1.8C231.2,420.5,229,418.5,229,415.6z M236.1,414.9
			c-0.1-1.4-1-2.5-2.4-2.5c-1.3,0-2.3,1-2.5,2.5H236.1z"/>
		<path fill="#060E9F" d="M240.6,407.1h2.2v13.2h-2.2V407.1z"/>
		<path fill="#060E9F" d="M245.7,407.2h2.4v2.1h-2.4V407.2z M245.8,410.8h2.2v9.6h-2.2V410.8z"/>
		<path fill="#060E9F" d="M250.8,410.8h2.2v1.5c0.6-0.9,1.5-1.7,3-1.7c2.2,0,3.4,1.4,3.4,3.7v6.1h-2.2V415c0-1.5-0.7-2.3-2-2.3
			c-1.3,0-2.2,0.9-2.2,2.4v5.4h-2.2L250.8,410.8L250.8,410.8z"/>
		<path fill="#060E9F" d="M261.5,415.6L261.5,415.6c0-2.8,1.9-5,4.7-5c3,0,4.6,2.4,4.6,5.1c0,0.2,0,0.4,0,0.6h-7
			c0.2,1.6,1.3,2.4,2.8,2.4c1.1,0,1.8-0.4,2.6-1.1l1.3,1.1c-0.9,1.1-2.2,1.8-3.9,1.8C263.7,420.5,261.5,418.5,261.5,415.6z
			 M268.6,414.9c-0.1-1.4-1-2.5-2.4-2.5c-1.3,0-2.3,1-2.5,2.5H268.6z"/>
	</g>
	<g enable-background="new    ">
		<path fill="#060E9F" d="M495.8,407.7h4.7c4,0,6.7,2.7,6.7,6.3l0,0c0,3.6-2.8,6.3-6.7,6.3h-4.7V407.7z M498,409.7v8.6h2.5
			c2.7,0,4.4-1.8,4.4-4.3l0,0c0-2.5-1.7-4.3-4.4-4.3L498,409.7L498,409.7z"/>
		<path fill="#060E9F" d="M509,417.6L509,417.6c0-2.1,1.6-3.1,3.9-3.1c1.1,0,1.8,0.2,2.6,0.4v-0.2c0-1.4-0.8-2.1-2.4-2.1
			c-1.1,0-1.9,0.2-2.7,0.6l-0.6-1.7c1-0.5,2.1-0.8,3.6-0.8c1.4,0,2.5,0.4,3.2,1.1s1,1.7,1,3v5.7h-2.1v-1.2c-0.7,0.8-1.6,1.4-3.1,1.4
			C510.6,420.5,509,419.5,509,417.6z M515.6,416.9v-0.7c-0.6-0.2-1.3-0.4-2.2-0.4c-1.4,0-2.2,0.6-2.2,1.6l0,0c0,0.9,0.8,1.4,1.9,1.4
			C514.5,418.9,515.6,418.1,515.6,416.9z"/>
		<path fill="#060E9F" d="M526.5,410.8h2.3l-3.8,9.8c-0.8,2-1.6,2.7-3.1,2.7c-0.9,0-1.6-0.2-2.3-0.6l0.7-1.6
			c0.4,0.2,0.8,0.4,1.3,0.4c0.6,0,1-0.3,1.4-1.1l-4-9.6h2.4l2.7,7.1L526.5,410.8z"/>
		<path fill="#060E9F" d="M538,409.8l-2.3,0.6l-0.5-1.8l3.4-1.1h1.5v12.8H538V409.8z"/>
		<path fill="#060E9F" d="M549.4,417.5H543l-0.4-1.6l7-8.3h1.9v8.1h1.8v1.8h-1.8v2.8h-2.1V417.5z M549.4,415.7v-5l-4.2,5H549.4z"/>
	</g>
	<g enable-background="new    ">
		<path fill="#060E9F" d="M792.2,407.7h4.7c4,0,6.7,2.7,6.7,6.3l0,0c0,3.6-2.8,6.3-6.7,6.3h-4.7V407.7z M794.4,409.7v8.6h2.5
			c2.7,0,4.4-1.8,4.4-4.3l0,0c0-2.5-1.7-4.3-4.4-4.3L794.4,409.7L794.4,409.7z"/>
		<path fill="#060E9F" d="M805.5,417.6L805.5,417.6c0-2.1,1.6-3.1,3.9-3.1c1.1,0,1.8,0.2,2.6,0.4v-0.2c0-1.4-0.8-2.1-2.4-2.1
			c-1.1,0-1.9,0.2-2.7,0.6l-0.6-1.7c1-0.5,2.1-0.8,3.6-0.8c1.4,0,2.5,0.4,3.2,1.1s1,1.7,1,3v5.7H812v-1.2c-0.7,0.8-1.6,1.4-3.1,1.4
			C807.1,420.5,805.5,419.5,805.5,417.6z M812,416.9v-0.7c-0.6-0.2-1.3-0.4-2.2-0.4c-1.4,0-2.2,0.6-2.2,1.6l0,0
			c0,0.9,0.8,1.4,1.9,1.4C810.9,418.9,812,418.1,812,416.9z"/>
		<path fill="#060E9F" d="M823,410.8h2.3l-3.8,9.8c-0.8,2-1.6,2.7-3.1,2.7c-0.9,0-1.6-0.2-2.3-0.6l0.7-1.6c0.4,0.2,0.8,0.4,1.3,0.4
			c0.6,0,1-0.3,1.4-1.1l-4-9.6h2.4l2.7,7.1L823,410.8z"/>
		<path fill="#060E9F" d="M832.1,418.6l4.4-3.7c1.7-1.5,2.4-2.3,2.4-3.4c0-1.2-0.9-2-2-2s-2,0.6-2.9,1.9l-1.6-1.2
			c1.2-1.7,2.4-2.6,4.7-2.6c2.5,0,4.2,1.5,4.2,3.8l0,0c0,2-1,3.1-3.3,4.9l-2.6,2.2h6v2h-9.2v-1.9H832.1z"/>
		<path fill="#060E9F" d="M843.2,416.9L843.2,416.9c0-1.6,0.9-2.5,2.3-3.1c-1.1-0.6-1.8-1.4-1.8-2.8l0,0c0-1.9,1.9-3.4,4.4-3.4
			s4.4,1.5,4.4,3.4l0,0c0,1.4-0.8,2.3-1.8,2.8c1.4,0.6,2.3,1.5,2.3,3l0,0c0,2.3-2.1,3.7-4.8,3.7S843.2,419.1,843.2,416.9z
			 M850.7,416.7L850.7,416.7c0-1.2-1.2-2-2.7-2s-2.6,0.8-2.6,1.9l0,0c0,1,1,1.9,2.6,1.9S850.7,417.8,850.7,416.7z M850.3,411.2
			L850.3,411.2c0-1-0.9-1.8-2.3-1.8s-2.3,0.8-2.3,1.8l0,0c0,1.1,1,1.9,2.3,1.9S850.3,412.2,850.3,411.2z"/>
	</g>
	<g enable-background="new    ">
		<path fill="#060E9F" d="M792.3,92.1l-2.3,0.6l-0.5-1.8l3.4-1.1h1.5v12.8h-2.2L792.3,92.1L792.3,92.1z"/>
		<path fill="#060E9F" d="M803.7,99.7h-6.4l-0.4-1.6l7-8.3h1.9v8.1h1.8v1.8h-1.8v2.8h-2.1V99.7z M803.7,97.9v-5l-4.2,5H803.7z"/>
		<path fill="#060E9F" d="M809.4,100.6l1.6-1.4c0.9,1.1,1.9,1.7,3.3,1.7c1.2,0,2.2-0.8,2.2-1.9l0,0c0-1.2-1.1-2-2.9-2h-1l-0.4-1.4
			l3.4-3.6h-5.5v-1.9h8.4v1.7l-3.5,3.6c1.9,0.2,3.7,1.2,3.7,3.5l0,0c0,2.3-1.8,4-4.4,4C812,102.8,810.5,101.9,809.4,100.6z"/>
		<path fill="#060E9F" d="M821,100.1h2.4v2.5H821V100.1z"/>
		<path fill="#060E9F" d="M832.1,99.7h-6.4l-0.4-1.6l7-8.3h1.9v8.1h1.8v1.8h-1.8v2.8h-2.1V99.7z M832.1,97.9v-5l-4.2,5H832.1z"/>
		<path fill="#060E9F" d="M839.9,92.1l-2.3,0.6l-0.5-1.8l3.4-1.1h1.5v12.8h-2.2L839.9,92.1L839.9,92.1z"/>
	</g>
	
		<linearGradient id="SVGID_1_" gradientUnits="userSpaceOnUse" x1="161.2436" y1="158.7706" x2="160.4896" y2="20.2924" gradientTransform="matrix(2.263 0 0 2.263 3.051758e-05 25.9893)">
		<stop  offset="0" style="stop-color:#FFFFFF"/>
		<stop  offset="1" style="stop-color:#22ABE3"/>
	</linearGradient>
	<rect x="284.5" y="106.8" opacity="0.55" fill="url(#SVGID_1_)" enable-background="new    " width="159.3" height="283.6"/>
	<g enable-background="new    ">
		<path fill="#060E9F" d="M906,77.9h2.2v1.5c0.6-0.9,1.5-1.7,3-1.7c2.2,0,3.4,1.4,3.4,3.7v6.1h-2.2v-5.4c0-1.5-0.7-2.3-2-2.3
			s-2.2,0.9-2.2,2.4v5.4H906V77.9z"/>
		<path fill="#060E9F" d="M917.2,77.8h8.7v2h-8.7V77.8z M917.2,82.4h8.7v2h-8.7V82.4z"/>
		<path fill="#060E9F" d="M934.8,84.6h-6.4L928,83l7-8.3h1.9v8.1h1.8v1.8h-1.8v2.8h-2.1V84.6z M934.8,82.8v-5l-4.2,5H934.8z"/>
		<path fill="#060E9F" d="M940.5,85.8l1.4-1.6c1,0.9,2.1,1.5,3.3,1.5c1.5,0,2.5-0.9,2.5-2.2l0,0c0-1.3-1.1-2.1-2.6-2.1
			c-0.9,0-1.7,0.3-2.3,0.6l-1.3-0.9l0.4-6.2h7.6v2h-5.7l-0.2,3c0.6-0.2,1.2-0.4,2-0.4c2.5,0,4.4,1.3,4.4,4l0,0
			c0,2.6-1.9,4.3-4.7,4.3C943.2,87.7,941.7,86.9,940.5,85.8z"/>
	</g>
	<g>
		<g>
			<line fill="none" stroke="#060E9F" stroke-miterlimit="10" x1="673.9" y1="68.5" x2="673.9" y2="70.8"/>
			<line fill="none" stroke="#060E9F" stroke-miterlimit="10" stroke-dasharray="2,2" x1="673.9" y1="75.3" x2="673.9" y2="371.8"/>
			<line fill="none" stroke="#060E9F" stroke-miterlimit="10" x1="673.9" y1="374" x2="673.9" y2="376.3"/>
		</g>
	</g>
	<g>
		<g>
			<line fill="none" stroke="#060E9F" stroke-miterlimit="10" x1="381.3" y1="184.2" x2="381.3" y2="186.4"/>
			
				<line fill="none" stroke="#060E9F" stroke-miterlimit="10" stroke-dasharray="2.0203,2.0203" x1="381.3" y1="191" x2="381.3" y2="371.5"/>
			<line fill="none" stroke="#060E9F" stroke-miterlimit="10" x1="381.3" y1="374" x2="381.3" y2="376.3"/>
		</g>
	</g>
	<g>
		<g>
			<line fill="none" stroke="#060E9F" stroke-miterlimit="10" x1="381.3" y1="68.5" x2="381.3" y2="70.8"/>
			
				<line fill="none" stroke="#060E9F" stroke-miterlimit="10" stroke-dasharray="2.2356,2.2356" x1="381.3" y1="75.8" x2="381.3" y2="103.6"/>
			<line fill="none" stroke="#060E9F" stroke-miterlimit="10" x1="381.3" y1="106.1" x2="381.3" y2="108.4"/>
		</g>
	</g>
	<rect x="155" y="209.3" fill="#762264" width="162" height="183.8"/>
	
		<polyline fill="none" stroke="#060E9F" stroke-width="2" stroke-linecap="round" stroke-linejoin="round" stroke-miterlimit="10" points="
		358,158.1 381.8,139.8 404.4,158.1 	"/>
	
		<polyline fill="none" stroke="#060E9F" stroke-width="2" stroke-linecap="round" stroke-linejoin="round" stroke-miterlimit="10" points="
		358,174 381.8,155.7 404.4,174 	"/>
	
		<polyline fill="none" stroke="#060E9F" stroke-width="2" stroke-linecap="round" stroke-linejoin="round" stroke-miterlimit="10" points="
		358,189.8 381.8,171.5 404.4,189.8 	"/>
	<g enable-background="new    ">
		<path fill="#060E9F" d="M342.9,118h1.9v11h-1.9V118z"/>
		<path fill="#060E9F" d="M347.7,118h1.8l5.9,7.6V118h1.9v11h-1.6l-6.1-7.8v7.8h-1.9L347.7,118L347.7,118z"/>
		<path fill="#060E9F" d="M359.7,123.6L359.7,123.6c0-3.2,2.3-5.7,5.7-5.7c2,0,3.3,0.7,4.3,1.7l-1.2,1.4c-0.9-0.8-1.8-1.4-3.1-1.4
			c-2.1,0-3.6,1.7-3.6,3.9l0,0c0,2.2,1.5,3.9,3.6,3.9c1.4,0,2.2-0.5,3.2-1.4l1.2,1.3c-1.2,1.2-2.4,2-4.5,2
			C362.1,129.3,359.7,126.8,359.7,123.6z"/>
		<path fill="#060E9F" d="M371.8,118h4.9c1.4,0,2.5,0.4,3.2,1.1c0.6,0.6,0.9,1.4,0.9,2.4l0,0c0,1.8-1.1,2.9-2.6,3.3l3,4.2h-2.3
			l-2.7-3.8h-2.4v3.8h-1.9v-11H371.8z M376.6,123.5c1.4,0,2.3-0.7,2.3-1.8l0,0c0-1.2-0.9-1.8-2.3-1.8h-2.8v3.7L376.6,123.5
			L376.6,123.5z"/>
		<path fill="#060E9F" d="M383.2,118h8.2v1.7h-6.2v2.9h5.5v1.7h-5.5v3h6.3v1.7h-8.3V118z"/>
		<path fill="#060E9F" d="M397.7,118h1.8l4.9,11.1h-2l-1.1-2.7h-5.2l-1.1,2.7h-2L397.7,118z M400.4,124.7l-1.9-4.4l-1.9,4.4H400.4z"
			/>
		<path fill="#060E9F" d="M405.3,127.5l1.2-1.4c1.1,0.9,2.1,1.4,3.5,1.4c1.2,0,2-0.6,2-1.4l0,0c0-0.8-0.4-1.2-2.5-1.7
			c-2.3-0.6-3.7-1.3-3.7-3.3l0,0c0-1.9,1.6-3.2,3.8-3.2c1.6,0,2.9,0.5,4,1.4l-1,1.5c-1-0.7-2-1.1-3-1.1c-1.1,0-1.8,0.6-1.8,1.3l0,0
			c0,0.9,0.5,1.2,2.6,1.7c2.3,0.6,3.5,1.4,3.5,3.2l0,0c0,2.1-1.6,3.3-3.9,3.3C408.2,129.2,406.6,128.6,405.3,127.5z"/>
		<path fill="#060E9F" d="M416.1,118h8.2v1.7H418v2.9h5.5v1.7H418v3h6.3v1.7H416v-11H416.1z"/>
	</g>
	<rect x="456.7" y="106.8" fill="#762264" width="162" height="285.4"/>
	<polyline fill="none" stroke="#060E9F" stroke-width="1.5" stroke-miterlimit="10" points="90.5,68.5 90.5,393 960.6,393 	"/>
	<rect x="1.1" y="507.6" fill="#060E9F" width="6.1" height="6.1"/>
</g>
<g id="Toggle_Button_-_Acne">
</g>
</svg>
