<?xml version="1.0" encoding="utf-8"?>
<!-- Generator: Adobe Illustrator 17.1.0, SVG Export Plug-In . SVG Version: 6.00 Build 0)  -->
<!DOCTYPE svg PUBLIC "-//W3C//DTD SVG 1.1//EN" "http://www.w3.org/Graphics/SVG/1.1/DTD/svg11.dtd">
<svg version="1.1" id="Layer_1" xmlns="http://www.w3.org/2000/svg" xmlns:xlink="http://www.w3.org/1999/xlink" x="0px" y="0px"
	 width="1024px" height="615.7px" viewBox="0 0 1024 615.7" enable-background="new 0 0 1024 615.7" xml:space="preserve">
<g id="background">
</g>
<g id="Wire_Frame_Template">
</g>
<g id="Modal_Popup_state_1_-_SPF_30">
</g>
<g id="Modal_Popup_state_2_-_SPF_30">
</g>
<g id="Charts">
	<g>
		<polyline fill="none" stroke="#060E9F" stroke-width="1.2" points="789.6,39.5 1.4,39.5 1.4,80.6 		"/>
	</g>
	<rect x="2.5" y="549.8" fill="none" width="1021.5" height="65.1"/>
	<g enable-background="new    ">
		<path fill="#762264" d="M4.2,550.4h9.1v1.3H5.6v4.5h6.9v1.3H5.6v5.5H4.2V550.4z"/>
		<path fill="#762264" d="M15,558.4L15,558.4c0-2.7,2.1-4.9,4.9-4.9c2.8,0,4.9,2.2,4.9,4.8v0c0,2.6-2.1,4.9-4.9,4.9
			C17,563.2,15,561,15,558.4z M23.3,558.4L23.3,558.4c0-2-1.5-3.7-3.5-3.7c-2,0-3.4,1.6-3.4,3.6v0c0,2,1.5,3.6,3.5,3.6
			C21.9,562,23.3,560.4,23.3,558.4z"/>
		<path fill="#762264" d="M27.2,553.7h1.4v2.4c0.7-1.6,2-2.7,3.8-2.6v1.5h-0.1c-2,0-3.7,1.5-3.7,4.3v3.7h-1.4V553.7z"/>
		<path fill="#762264" d="M35,560.5v-5.6h-1.3v-1.2H35v-2.8h1.4v2.8h3v1.2h-3v5.5c0,1.1,0.6,1.6,1.6,1.6c0.5,0,0.9-0.1,1.4-0.3v1.2
			c-0.5,0.3-1,0.4-1.7,0.4C36.2,563.2,35,562.4,35,560.5z"/>
		<path fill="#762264" d="M48.8,553.7h1.5l-3.9,9.7c-0.8,1.9-1.7,2.6-3.1,2.6c-0.8,0-1.4-0.2-2-0.5l0.5-1.1c0.5,0.2,0.9,0.3,1.5,0.3
			c0.8,0,1.4-0.4,1.9-1.8l-4.2-9.3h1.5l3.4,7.8L48.8,553.7z"/>
		<path fill="#762264" d="M51.9,556.8h5v1.5h-5V556.8z"/>
		<path fill="#762264" d="M60.2,554.9h-1.3v-1.2h1.3v-0.8c0-1.1,0.3-1.9,0.8-2.4c0.5-0.5,1.2-0.7,2-0.7c0.7,0,1.1,0.1,1.5,0.2v1.2
			c-0.5-0.1-0.9-0.2-1.4-0.2c-1.1,0-1.6,0.7-1.6,2v0.8h3v1.2h-2.9v8.1h-1.4V554.9z M66.3,550.1h1.6v1.5h-1.6V550.1z M66.4,553.7h1.4
			v9.3h-1.4V553.7z"/>
		<path fill="#762264" d="M70.1,553.7h1.5l3.1,7.8l3.2-7.8h1.5l-4.1,9.4h-1.2L70.1,553.7z"/>
		<path fill="#762264" d="M80.5,558.4L80.5,558.4c0-2.7,1.9-4.9,4.5-4.9c2.8,0,4.4,2.2,4.4,4.9c0,0.2,0,0.3,0,0.5h-7.4
			c0.2,2,1.6,3.2,3.3,3.2c1.3,0,2.2-0.5,2.9-1.3l0.9,0.8c-0.9,1-2.1,1.8-3.9,1.8C82.6,563.2,80.5,561.3,80.5,558.4z M88,557.8
			c-0.1-1.7-1.1-3.2-3-3.2c-1.6,0-2.9,1.4-3,3.2H88z"/>
		<path fill="#762264" d="M96.5,561.8l0.7-1c1,0.8,2.1,1.2,3.2,1.2c1.1,0,1.9-0.6,1.9-1.5v0c0-0.9-1.1-1.3-2.3-1.6
			c-1.5-0.4-3.1-0.9-3.1-2.6v0c0-1.6,1.3-2.7,3.2-2.7c1.1,0,2.4,0.4,3.4,1l-0.6,1c-0.9-0.6-1.9-0.9-2.8-0.9c-1.1,0-1.8,0.6-1.8,1.4
			v0c0,0.9,1.2,1.2,2.4,1.6c1.4,0.4,3,1,3,2.7v0c0,1.8-1.5,2.8-3.3,2.8C99,563.2,97.5,562.7,96.5,561.8z"/>
		<path fill="#762264" d="M106.1,559.5v-5.8h1.4v5.5c0,1.7,0.9,2.8,2.6,2.8c1.6,0,2.8-1.2,2.8-2.9v-5.4h1.4v9.3h-1.4v-1.6
			c-0.6,1-1.6,1.8-3.2,1.8C107.4,563.2,106.1,561.7,106.1,559.5z"/>
		<path fill="#762264" d="M118.8,561.2v1.8h-1.4v-13.2h1.4v5.7c0.8-1.1,1.9-2.1,3.6-2.1c2.2,0,4.5,1.8,4.5,4.8v0
			c0,3.1-2.2,4.9-4.5,4.9C120.6,563.2,119.5,562.3,118.8,561.2z M125.4,558.4L125.4,558.4c0-2.2-1.5-3.7-3.3-3.7
			c-1.7,0-3.4,1.5-3.4,3.6v0c0,2.2,1.6,3.6,3.4,3.6C123.9,562,125.4,560.6,125.4,558.4z"/>
		<path fill="#762264" d="M127.8,565.9v-1.1c0.2,0,0.5,0.1,0.7,0.1c0.6,0,1.1-0.4,1.1-1.2v-9.9h1.4v9.9c0,1.6-0.9,2.4-2.3,2.4
			C128.3,566,128.1,565.9,127.8,565.9z M129.4,550.1h1.6v1.5h-1.6V550.1z"/>
		<path fill="#762264" d="M133.6,558.4L133.6,558.4c0-2.7,1.9-4.9,4.5-4.9c2.8,0,4.4,2.2,4.4,4.9c0,0.2,0,0.3,0,0.5H135
			c0.2,2,1.6,3.2,3.3,3.2c1.3,0,2.2-0.5,2.9-1.3l0.9,0.8c-0.9,1-2.1,1.8-3.9,1.8C135.7,563.2,133.6,561.3,133.6,558.4z M141,557.8
			c-0.1-1.7-1.1-3.2-3-3.2c-1.6,0-2.9,1.4-3,3.2H141z"/>
		<path fill="#762264" d="M144.3,558.4L144.3,558.4c0-2.7,2.1-4.9,4.8-4.9c1.8,0,2.9,0.7,3.7,1.7l-0.9,1c-0.7-0.8-1.6-1.4-2.8-1.4
			c-1.9,0-3.3,1.6-3.3,3.6v0c0,2,1.5,3.6,3.4,3.6c1.2,0,2.1-0.6,2.9-1.4l0.9,0.8c-0.9,1-2.1,1.8-3.8,1.8
			C146.3,563.2,144.3,561,144.3,558.4z"/>
		<path fill="#762264" d="M155.7,560.5v-5.6h-1.3v-1.2h1.3v-2.8h1.4v2.8h3v1.2h-3v5.5c0,1.1,0.6,1.6,1.6,1.6c0.5,0,0.9-0.1,1.4-0.3
			v1.2c-0.5,0.3-1,0.4-1.7,0.4C156.8,563.2,155.7,562.4,155.7,560.5z"/>
		<path fill="#762264" d="M161.7,561.8l0.7-1c1,0.8,2.1,1.2,3.2,1.2c1.1,0,1.9-0.6,1.9-1.5v0c0-0.9-1.1-1.3-2.3-1.6
			c-1.5-0.4-3.1-0.9-3.1-2.6v0c0-1.6,1.3-2.7,3.2-2.7c1.1,0,2.4,0.4,3.4,1l-0.6,1c-0.9-0.6-1.9-0.9-2.8-0.9c-1.1,0-1.8,0.6-1.8,1.4
			v0c0,0.9,1.2,1.2,2.4,1.6c1.4,0.4,3,1,3,2.7v0c0,1.8-1.5,2.8-3.3,2.8C164.2,563.2,162.7,562.7,161.7,561.8z"/>
		<path fill="#762264" d="M176.2,560.3L176.2,560.3c0-2,1.6-3.1,4-3.1c1.2,0,2,0.2,2.9,0.4v-0.3c0-1.7-1-2.5-2.8-2.5
			c-1.1,0-2,0.3-2.8,0.7l-0.4-1.1c1-0.5,2-0.8,3.4-0.8c1.3,0,2.3,0.3,3,1c0.6,0.6,1,1.5,1,2.7v5.7h-1.3v-1.4
			c-0.7,0.8-1.7,1.6-3.4,1.6C177.9,563.2,176.2,562.2,176.2,560.3z M183.1,559.6v-0.9c-0.7-0.2-1.6-0.4-2.7-0.4
			c-1.8,0-2.7,0.8-2.7,1.9v0c0,1.2,1.1,1.9,2.4,1.9C181.7,562.1,183.1,561.1,183.1,559.6z"/>
		<path fill="#762264" d="M187.3,564.6l0.6-1.1c1.1,0.8,2.3,1.2,3.6,1.2c2.1,0,3.4-1.1,3.4-3.3v-1.1c-0.8,1.1-2,2-3.7,2
			c-2.2,0-4.4-1.7-4.4-4.4v0c0-2.7,2.2-4.4,4.4-4.4c1.8,0,2.9,0.9,3.7,1.9v-1.7h1.4v7.7c0,1.4-0.4,2.5-1.2,3.3
			c-0.8,0.8-2.1,1.2-3.6,1.2C190,565.9,188.5,565.5,187.3,564.6z M194.9,557.9L194.9,557.9c0-2-1.7-3.2-3.4-3.2s-3.2,1.2-3.2,3.1v0
			c0,1.9,1.5,3.2,3.2,3.2C193.3,561.1,194.9,559.8,194.9,557.9z"/>
		<path fill="#762264" d="M198.8,558.4L198.8,558.4c0-2.7,1.9-4.9,4.5-4.9c2.8,0,4.4,2.2,4.4,4.9c0,0.2,0,0.3,0,0.5h-7.4
			c0.2,2,1.6,3.2,3.3,3.2c1.3,0,2.2-0.5,2.9-1.3l0.9,0.8c-0.9,1-2.1,1.8-3.9,1.8C200.9,563.2,198.8,561.3,198.8,558.4z M206.2,557.8
			c-0.1-1.7-1.1-3.2-3-3.2c-1.6,0-2.9,1.4-3,3.2H206.2z"/>
		<path fill="#762264" d="M209.5,558.4L209.5,558.4c0-3.1,2.2-4.9,4.5-4.9c1.7,0,2.9,0.9,3.6,2v-5.6h1.4V563h-1.4v-1.9
			c-0.8,1.1-1.9,2.1-3.6,2.1C211.8,563.2,209.5,561.4,209.5,558.4z M217.6,558.3L217.6,558.3c0-2.2-1.6-3.6-3.4-3.6
			c-1.8,0-3.3,1.3-3.3,3.6v0c0,2.2,1.5,3.6,3.3,3.6C216,562,217.6,560.5,217.6,558.3z"/>
		<path fill="#762264" d="M229.2,551.7l-2.4,0.7l-0.3-1.2l3.1-1.1h1V563h-1.4V551.7z"/>
		<path fill="#762264" d="M233.3,561.9l4.6-4.1c1.9-1.7,2.6-2.7,2.6-4c0-1.5-1.2-2.4-2.5-2.4c-1.4,0-2.4,0.8-3.4,2.2l-1-0.8
			c1.1-1.7,2.3-2.7,4.6-2.7c2.3,0,3.9,1.5,3.9,3.6v0c0,1.8-1,3-3.2,4.9l-3.4,3h6.7v1.3h-8.8V561.9z"/>
		<path fill="#762264" d="M257.2,553.7h1.5l-3.9,9.7c-0.8,1.9-1.7,2.6-3.1,2.6c-0.8,0-1.4-0.2-2-0.5l0.5-1.1
			c0.5,0.2,0.9,0.3,1.5,0.3c0.8,0,1.4-0.4,1.9-1.8l-4.2-9.3h1.5l3.4,7.8L257.2,553.7z"/>
		<path fill="#762264" d="M266.8,560.5v-5.6h-1.3v-1.2h1.3v-2.8h1.4v2.8h3v1.2h-3v5.5c0,1.1,0.6,1.6,1.6,1.6c0.5,0,0.9-0.1,1.4-0.3
			v1.2c-0.5,0.3-1,0.4-1.7,0.4C268,563.2,266.8,562.4,266.8,560.5z"/>
		<path fill="#762264" d="M272.8,558.4L272.8,558.4c0-2.7,2.1-4.9,4.9-4.9c2.8,0,4.9,2.2,4.9,4.8v0c0,2.6-2.1,4.9-4.9,4.9
			C274.8,563.2,272.8,561,272.8,558.4z M281.1,558.4L281.1,558.4c0-2-1.5-3.7-3.5-3.7c-2,0-3.4,1.6-3.4,3.6v0c0,2,1.5,3.6,3.5,3.6
			C279.7,562,281.1,560.4,281.1,558.4z"/>
		<path fill="#762264" d="M296.7,560h-6.7l-0.4-1l7.2-8.7h1.3v8.6h2v1.2h-2v3h-1.4V560z M296.7,558.8v-6.5l-5.3,6.5H296.7z"/>
		<path fill="#762264" d="M302,561.2l0.9-1c1.1,1.1,2.3,1.7,3.6,1.7c1.8,0,3.1-1.2,3.1-2.8v0c0-1.6-1.3-2.7-3.1-2.7
			c-1.1,0-1.9,0.3-2.7,0.7l-1-0.6l0.4-6.2h7.3v1.3h-6l-0.3,4c0.7-0.3,1.4-0.6,2.5-0.6c2.5,0,4.4,1.4,4.4,3.9v0
			c0,2.5-1.9,4.2-4.5,4.2C304.7,563.2,303.1,562.4,302,561.2z"/>
		<path fill="#762264" d="M326.1,553.7h1.5l-3.9,9.7c-0.8,1.9-1.7,2.6-3.1,2.6c-0.8,0-1.4-0.2-2-0.5l0.5-1.1
			c0.5,0.2,0.9,0.3,1.5,0.3c0.8,0,1.4-0.4,1.9-1.8l-4.2-9.3h1.5l3.4,7.8L326.1,553.7z"/>
		<path fill="#762264" d="M334.6,558.4L334.6,558.4c0-2.7,2.1-4.9,4.8-4.9c1.8,0,2.9,0.7,3.7,1.7l-0.9,1c-0.7-0.8-1.6-1.4-2.8-1.4
			c-1.9,0-3.3,1.6-3.3,3.6v0c0,2,1.5,3.6,3.4,3.6c1.2,0,2.1-0.6,2.9-1.4l0.9,0.8c-0.9,1-2.1,1.8-3.8,1.8
			C336.7,563.2,334.6,561,334.6,558.4z"/>
		<path fill="#762264" d="M345.4,559.5v-5.8h1.4v5.5c0,1.7,0.9,2.8,2.6,2.8c1.6,0,2.8-1.2,2.8-2.9v-5.4h1.4v9.3h-1.4v-1.6
			c-0.6,1-1.6,1.8-3.2,1.8C346.7,563.2,345.4,561.7,345.4,559.5z"/>
		<path fill="#762264" d="M356.7,553.7h1.4v2.4c0.7-1.6,2-2.7,3.8-2.6v1.5h-0.1c-2,0-3.7,1.5-3.7,4.3v3.7h-1.4V553.7z"/>
		<path fill="#762264" d="M364,553.7h1.4v2.4c0.7-1.6,2-2.7,3.8-2.6v1.5h-0.1c-2,0-3.7,1.5-3.7,4.3v3.7H364V553.7z"/>
		<path fill="#762264" d="M370.3,558.4L370.3,558.4c0-2.7,1.9-4.9,4.5-4.9c2.8,0,4.4,2.2,4.4,4.9c0,0.2,0,0.3,0,0.5h-7.4
			c0.2,2,1.6,3.2,3.3,3.2c1.3,0,2.2-0.5,2.9-1.3l0.9,0.8c-0.9,1-2.1,1.8-3.9,1.8C372.4,563.2,370.3,561.3,370.3,558.4z M377.8,557.8
			c-0.1-1.7-1.1-3.2-3-3.2c-1.6,0-2.9,1.4-3,3.2H377.8z"/>
		<path fill="#762264" d="M381.6,553.7h1.4v1.6c0.6-1,1.6-1.8,3.2-1.8c2.3,0,3.6,1.5,3.6,3.7v5.8h-1.4v-5.5c0-1.7-0.9-2.8-2.6-2.8
			c-1.6,0-2.8,1.2-2.8,2.9v5.4h-1.4V553.7z"/>
		<path fill="#762264" d="M393.2,560.5v-5.6h-1.3v-1.2h1.3v-2.8h1.4v2.8h3v1.2h-3v5.5c0,1.1,0.6,1.6,1.6,1.6c0.5,0,0.9-0.1,1.4-0.3
			v1.2c-0.5,0.3-1,0.4-1.7,0.4C394.4,563.2,393.2,562.4,393.2,560.5z"/>
		<path fill="#762264" d="M400.2,549.8h1.4V563h-1.4V549.8z"/>
		<path fill="#762264" d="M411.8,553.7h1.5l-3.9,9.7c-0.8,1.9-1.7,2.6-3.1,2.6c-0.8,0-1.4-0.2-2-0.5l0.5-1.1
			c0.5,0.2,0.9,0.3,1.5,0.3c0.8,0,1.4-0.4,1.9-1.8l-4.2-9.3h1.5l3.4,7.8L411.8,553.7z"/>
		<path fill="#762264" d="M420.9,553.7h1.4v2.4c0.7-1.6,2-2.7,3.8-2.6v1.5H426c-2,0-3.7,1.5-3.7,4.3v3.7h-1.4V553.7z"/>
		<path fill="#762264" d="M427.3,558.4L427.3,558.4c0-2.7,1.9-4.9,4.5-4.9c2.8,0,4.4,2.2,4.4,4.9c0,0.2,0,0.3,0,0.5h-7.4
			c0.2,2,1.6,3.2,3.3,3.2c1.3,0,2.2-0.5,2.9-1.3l0.9,0.8c-0.9,1-2.1,1.8-3.9,1.8C429.4,563.2,427.3,561.3,427.3,558.4z M434.7,557.8
			c-0.1-1.7-1.1-3.2-3-3.2c-1.6,0-2.9,1.4-3,3.2H434.7z"/>
		<path fill="#762264" d="M438,558.4L438,558.4c0-2.7,2.1-4.9,4.8-4.9c1.8,0,2.9,0.7,3.7,1.7l-0.9,1c-0.7-0.8-1.6-1.4-2.8-1.4
			c-1.9,0-3.3,1.6-3.3,3.6v0c0,2,1.5,3.6,3.4,3.6c1.2,0,2.1-0.6,2.9-1.4l0.9,0.8c-0.9,1-2.1,1.8-3.8,1.8
			C440,563.2,438,561,438,558.4z"/>
		<path fill="#762264" d="M448,558.4L448,558.4c0-2.7,1.9-4.9,4.5-4.9c2.8,0,4.4,2.2,4.4,4.9c0,0.2,0,0.3,0,0.5h-7.4
			c0.2,2,1.6,3.2,3.3,3.2c1.3,0,2.2-0.5,2.9-1.3l0.9,0.8c-0.9,1-2.1,1.8-3.9,1.8C450.1,563.2,448,561.3,448,558.4z M455.5,557.8
			c-0.1-1.7-1.1-3.2-3-3.2c-1.6,0-2.9,1.4-3,3.2H455.5z"/>
		<path fill="#762264" d="M459.3,550.1h1.6v1.5h-1.6V550.1z M459.4,553.7h1.4v9.3h-1.4V553.7z"/>
		<path fill="#762264" d="M463.1,553.7h1.5l3.1,7.8l3.2-7.8h1.5l-4.1,9.4h-1.2L463.1,553.7z"/>
		<path fill="#762264" d="M474.7,550.1h1.6v1.5h-1.6V550.1z M474.8,553.7h1.4v9.3h-1.4V553.7z"/>
		<path fill="#762264" d="M479.4,553.7h1.4v1.6c0.6-1,1.6-1.8,3.2-1.8c2.3,0,3.6,1.5,3.6,3.7v5.8h-1.4v-5.5c0-1.7-0.9-2.8-2.6-2.8
			c-1.6,0-2.8,1.2-2.8,2.9v5.4h-1.4V553.7z"/>
		<path fill="#762264" d="M490.5,564.6l0.6-1.1c1.1,0.8,2.3,1.2,3.6,1.2c2.1,0,3.4-1.1,3.4-3.3v-1.1c-0.8,1.1-2,2-3.7,2
			c-2.2,0-4.4-1.7-4.4-4.4v0c0-2.7,2.2-4.4,4.4-4.4c1.8,0,2.9,0.9,3.7,1.9v-1.7h1.4v7.7c0,1.4-0.4,2.5-1.2,3.3
			c-0.8,0.8-2.1,1.2-3.6,1.2C493.1,565.9,491.7,565.5,490.5,564.6z M498.1,557.9L498.1,557.9c0-2-1.7-3.2-3.4-3.2s-3.2,1.2-3.2,3.1
			v0c0,1.9,1.5,3.2,3.2,3.2C496.5,561.1,498.1,559.8,498.1,557.9z"/>
		<path fill="#762264" d="M507.3,560.3L507.3,560.3c0-2,1.6-3.1,4-3.1c1.2,0,2,0.2,2.9,0.4v-0.3c0-1.7-1-2.5-2.8-2.5
			c-1.1,0-2,0.3-2.8,0.7l-0.4-1.1c1-0.5,2-0.8,3.4-0.8c1.3,0,2.3,0.3,3,1c0.6,0.6,1,1.5,1,2.7v5.7h-1.3v-1.4
			c-0.7,0.8-1.7,1.6-3.4,1.6C509,563.2,507.3,562.2,507.3,560.3z M514.2,559.6v-0.9c-0.7-0.2-1.6-0.4-2.7-0.4
			c-1.8,0-2.7,0.8-2.7,1.9v0c0,1.2,1.1,1.9,2.4,1.9C512.8,562.1,514.2,561.1,514.2,559.6z"/>
		<path fill="#762264" d="M517.9,558.4L517.9,558.4c0-2.7,2.1-4.9,4.8-4.9c1.8,0,2.9,0.7,3.7,1.7l-0.9,1c-0.7-0.8-1.6-1.4-2.8-1.4
			c-1.9,0-3.3,1.6-3.3,3.6v0c0,2,1.5,3.6,3.4,3.6c1.2,0,2.1-0.6,2.9-1.4l0.9,0.8c-0.9,1-2.1,1.8-3.8,1.8
			C519.9,563.2,517.9,561,517.9,558.4z"/>
		<path fill="#762264" d="M528.8,553.7h1.4v1.6c0.6-1,1.6-1.8,3.2-1.8c2.3,0,3.6,1.5,3.6,3.7v5.8h-1.4v-5.5c0-1.7-0.9-2.8-2.6-2.8
			c-1.6,0-2.8,1.2-2.8,2.9v5.4h-1.4V553.7z"/>
		<path fill="#762264" d="M539.3,558.4L539.3,558.4c0-2.7,1.9-4.9,4.5-4.9c2.8,0,4.4,2.2,4.4,4.9c0,0.2,0,0.3,0,0.5h-7.4
			c0.2,2,1.6,3.2,3.3,3.2c1.3,0,2.2-0.5,2.9-1.3l0.9,0.8c-0.9,1-2.1,1.8-3.9,1.8C541.4,563.2,539.3,561.3,539.3,558.4z M546.8,557.8
			c-0.1-1.7-1.1-3.2-3-3.2c-1.6,0-2.9,1.4-3,3.2H546.8z"/>
		<path fill="#762264" d="M556.5,560.5v-5.6h-1.3v-1.2h1.3v-2.8h1.4v2.8h3v1.2h-3v5.5c0,1.1,0.6,1.6,1.6,1.6c0.5,0,0.9-0.1,1.4-0.3
			v1.2c-0.5,0.3-1,0.4-1.7,0.4C557.7,563.2,556.5,562.4,556.5,560.5z"/>
		<path fill="#762264" d="M563.4,553.7h1.4v2.4c0.7-1.6,2-2.7,3.8-2.6v1.5h-0.1c-2,0-3.7,1.5-3.7,4.3v3.7h-1.4V553.7z"/>
		<path fill="#762264" d="M569.7,558.4L569.7,558.4c0-2.7,1.9-4.9,4.5-4.9c2.8,0,4.4,2.2,4.4,4.9c0,0.2,0,0.3,0,0.5h-7.4
			c0.2,2,1.6,3.2,3.3,3.2c1.3,0,2.2-0.5,2.9-1.3l0.9,0.8c-0.9,1-2.1,1.8-3.9,1.8C571.8,563.2,569.7,561.3,569.7,558.4z M577.1,557.8
			c-0.1-1.7-1.1-3.2-3-3.2c-1.6,0-2.9,1.4-3,3.2H577.1z"/>
		<path fill="#762264" d="M580.3,560.3L580.3,560.3c0-2,1.6-3.1,4-3.1c1.2,0,2,0.2,2.9,0.4v-0.3c0-1.7-1-2.5-2.8-2.5
			c-1.1,0-2,0.3-2.8,0.7l-0.4-1.1c1-0.5,2-0.8,3.4-0.8c1.3,0,2.3,0.3,3,1c0.6,0.6,1,1.5,1,2.7v5.7h-1.3v-1.4
			c-0.7,0.8-1.7,1.6-3.4,1.6C582,563.2,580.3,562.2,580.3,560.3z M587.2,559.6v-0.9c-0.7-0.2-1.6-0.4-2.7-0.4
			c-1.8,0-2.7,0.8-2.7,1.9v0c0,1.2,1.1,1.9,2.4,1.9C585.8,562.1,587.2,561.1,587.2,559.6z"/>
		<path fill="#762264" d="M591.8,560.5v-5.6h-1.3v-1.2h1.3v-2.8h1.4v2.8h3v1.2h-3v5.5c0,1.1,0.6,1.6,1.6,1.6c0.5,0,0.9-0.1,1.4-0.3
			v1.2c-0.5,0.3-1,0.4-1.7,0.4C593,563.2,591.8,562.4,591.8,560.5z"/>
		<path fill="#762264" d="M598.7,553.7h1.4v1.6c0.6-0.9,1.4-1.8,3-1.8c1.5,0,2.5,0.8,3,1.9c0.7-1,1.7-1.9,3.3-1.9
			c2.2,0,3.5,1.4,3.5,3.8v5.8h-1.4v-5.5c0-1.8-0.9-2.8-2.4-2.8c-1.4,0-2.6,1-2.6,2.9v5.4h-1.4v-5.5c0-1.8-0.9-2.8-2.4-2.8
			c-1.5,0-2.6,1.2-2.6,2.9v5.3h-1.4V553.7z"/>
		<path fill="#762264" d="M615.3,558.4L615.3,558.4c0-2.7,1.9-4.9,4.5-4.9c2.8,0,4.4,2.2,4.4,4.9c0,0.2,0,0.3,0,0.5h-7.4
			c0.2,2,1.6,3.2,3.3,3.2c1.3,0,2.2-0.5,2.9-1.3l0.9,0.8c-0.9,1-2.1,1.8-3.9,1.8C617.4,563.2,615.3,561.3,615.3,558.4z M622.7,557.8
			c-0.1-1.7-1.1-3.2-3-3.2c-1.6,0-2.9,1.4-3,3.2H622.7z"/>
		<path fill="#762264" d="M626.6,553.7h1.4v1.6c0.6-1,1.6-1.8,3.2-1.8c2.3,0,3.6,1.5,3.6,3.7v5.8h-1.4v-5.5c0-1.7-0.9-2.8-2.6-2.8
			c-1.6,0-2.8,1.2-2.8,2.9v5.4h-1.4V553.7z"/>
		<path fill="#762264" d="M638.2,560.5v-5.6h-1.3v-1.2h1.3v-2.8h1.4v2.8h3v1.2h-3v5.5c0,1.1,0.6,1.6,1.6,1.6c0.5,0,0.9-0.1,1.4-0.3
			v1.2c-0.5,0.3-1,0.4-1.7,0.4C639.3,563.2,638.2,562.4,638.2,560.5z"/>
		<path fill="#762264" d="M650.3,559.5v-5.8h1.4v5.5c0,1.7,0.9,2.8,2.6,2.8c1.6,0,2.8-1.2,2.8-2.9v-5.4h1.4v9.3h-1.4v-1.6
			c-0.6,1-1.6,1.8-3.2,1.8C651.6,563.2,650.3,561.7,650.3,559.5z"/>
		<path fill="#762264" d="M660.8,561.8l0.7-1c1,0.8,2.1,1.2,3.2,1.2c1.1,0,1.9-0.6,1.9-1.5v0c0-0.9-1.1-1.3-2.3-1.6
			c-1.5-0.4-3.1-0.9-3.1-2.6v0c0-1.6,1.3-2.7,3.2-2.7c1.1,0,2.4,0.4,3.4,1l-0.6,1c-0.9-0.6-1.9-0.9-2.8-0.9c-1.1,0-1.8,0.6-1.8,1.4
			v0c0,0.9,1.2,1.2,2.4,1.6c1.4,0.4,3,1,3,2.7v0c0,1.8-1.5,2.8-3.3,2.8C663.3,563.2,661.8,562.7,660.8,561.8z"/>
		<path fill="#762264" d="M670,558.4L670,558.4c0-2.7,1.9-4.9,4.5-4.9c2.8,0,4.4,2.2,4.4,4.9c0,0.2,0,0.3,0,0.5h-7.4
			c0.2,2,1.6,3.2,3.3,3.2c1.3,0,2.2-0.5,2.9-1.3l0.9,0.8c-0.9,1-2.1,1.8-3.9,1.8C672.1,563.2,670,561.3,670,558.4z M677.4,557.8
			c-0.1-1.7-1.1-3.2-3-3.2c-1.6,0-2.9,1.4-3,3.2H677.4z"/>
		<path fill="#762264" d="M680.7,558.4L680.7,558.4c0-3.1,2.2-4.9,4.5-4.9c1.7,0,2.9,0.9,3.6,2v-5.6h1.4V563h-1.4v-1.9
			c-0.8,1.1-1.9,2.1-3.6,2.1C682.9,563.2,680.7,561.4,680.7,558.4z M688.8,558.3L688.8,558.3c0-2.2-1.6-3.6-3.4-3.6
			c-1.8,0-3.3,1.3-3.3,3.6v0c0,2.2,1.5,3.6,3.3,3.6C687.2,562,688.8,560.5,688.8,558.3z"/>
		<path fill="#762264" d="M698.4,556.7L698.4,556.7c0-3.6,2.7-6.6,6.4-6.6c2.3,0,3.7,0.8,4.9,2l-1,1c-1.1-1-2.3-1.7-4-1.7
			c-2.8,0-4.9,2.3-4.9,5.2v0c0,2.9,2.1,5.2,4.9,5.2c1.7,0,2.9-0.7,4.1-1.8l0.9,0.9c-1.3,1.3-2.8,2.2-5.1,2.2
			C701.1,563.2,698.4,560.4,698.4,556.7z"/>
		<path fill="#762264" d="M711.3,558.4L711.3,558.4c0-2.7,1.9-4.9,4.5-4.9c2.8,0,4.4,2.2,4.4,4.9c0,0.2,0,0.3,0,0.5h-7.4
			c0.2,2,1.6,3.2,3.3,3.2c1.3,0,2.2-0.5,2.9-1.3l0.9,0.8c-0.9,1-2.1,1.8-3.9,1.8C713.4,563.2,711.3,561.3,711.3,558.4z M718.7,557.8
			c-0.1-1.7-1.1-3.2-3-3.2c-1.6,0-2.9,1.4-3,3.2H718.7z"/>
		<path fill="#762264" d="M723,560.5v-5.6h-1.3v-1.2h1.3v-2.8h1.4v2.8h3v1.2h-3v5.5c0,1.1,0.6,1.6,1.6,1.6c0.5,0,0.9-0.1,1.4-0.3
			v1.2c-0.5,0.3-1,0.4-1.7,0.4C724.2,563.2,723,562.4,723,560.5z"/>
		<path fill="#762264" d="M729.2,560.3L729.2,560.3c0-2,1.6-3.1,4-3.1c1.2,0,2,0.2,2.9,0.4v-0.3c0-1.7-1-2.5-2.8-2.5
			c-1.1,0-2,0.3-2.8,0.7l-0.4-1.1c1-0.5,2-0.8,3.4-0.8c1.3,0,2.3,0.3,3,1c0.6,0.6,1,1.5,1,2.7v5.7H736v-1.4
			c-0.7,0.8-1.7,1.6-3.4,1.6C730.9,563.2,729.2,562.2,729.2,560.3z M736,559.6v-0.9c-0.7-0.2-1.6-0.4-2.7-0.4
			c-1.8,0-2.7,0.8-2.7,1.9v0c0,1.2,1.1,1.9,2.4,1.9C734.6,562.1,736,561.1,736,559.6z"/>
		<path fill="#762264" d="M740.3,553.7h1.4v1.9c0.8-1.1,1.9-2.1,3.6-2.1c2.2,0,4.5,1.8,4.5,4.8v0c0,3.1-2.2,4.9-4.5,4.9
			c-1.7,0-2.9-0.9-3.6-2v4.7h-1.4V553.7z M748.3,558.4L748.3,558.4c0-2.2-1.5-3.7-3.3-3.7c-1.7,0-3.4,1.5-3.4,3.6v0
			c0,2.2,1.6,3.6,3.4,3.6C746.9,562,748.3,560.6,748.3,558.4z"/>
		<path fill="#762264" d="M752.3,549.8h1.4v5.5c0.6-1,1.6-1.8,3.2-1.8c2.3,0,3.6,1.5,3.6,3.7v5.8h-1.4v-5.5c0-1.7-0.9-2.8-2.6-2.8
			c-1.6,0-2.8,1.2-2.8,2.9v5.4h-1.4V549.8z"/>
		<path fill="#762264" d="M763.5,550.1h1.6v1.5h-1.6V550.1z M763.6,553.7h1.4v9.3h-1.4V553.7z"/>
		<path fill="#762264" d="M768.4,549.8h1.4V563h-1.4V549.8z"/>
		<path fill="#762264" d="M771.9,553.4L771.9,553.4c0-1.7,1.4-3.2,3.1-3.2c1.8,0,3.1,1.4,3.1,3.1v0c0,1.7-1.4,3.2-3.1,3.2
			C773.3,556.5,771.9,555.1,771.9,553.4z M777.9,553.3L777.9,553.3c0-1.6-1.2-2.8-2.8-2.8c-1.6,0-2.8,1.3-2.8,2.8v0
			c0,1.5,1.2,2.8,2.8,2.8C776.7,556.2,777.9,554.9,777.9,553.3z M773.9,551.7h1.4c0.7,0,1.2,0.3,1.2,1c0,0.5-0.3,0.8-0.7,1l0.9,1.2
			h-0.7l-0.8-1.1h-0.7v1.1h-0.6V551.7z M775.2,553.3c0.4,0,0.7-0.2,0.7-0.5c0-0.3-0.2-0.5-0.7-0.5h-0.8v1H775.2z"/>
		<path fill="#762264" d="M785.9,550.4h4.4c4,0,6.7,2.7,6.7,6.3v0c0,3.6-2.7,6.3-6.7,6.3h-4.4V550.4z M787.4,551.7v10h3
			c3.2,0,5.2-2.2,5.2-5v0c0-2.8-2-5-5.2-5H787.4z"/>
		<path fill="#762264" d="M799.3,558.4L799.3,558.4c0-2.7,1.9-4.9,4.5-4.9c2.8,0,4.4,2.2,4.4,4.9c0,0.2,0,0.3,0,0.5h-7.4
			c0.2,2,1.6,3.2,3.3,3.2c1.3,0,2.2-0.5,2.9-1.3l0.9,0.8c-0.9,1-2.1,1.8-3.9,1.8C801.4,563.2,799.3,561.3,799.3,558.4z M806.7,557.8
			c-0.1-1.7-1.1-3.2-3-3.2c-1.6,0-2.9,1.4-3,3.2H806.7z"/>
		<path fill="#762264" d="M810.5,553.7h1.4v2.4c0.7-1.6,2-2.7,3.8-2.6v1.5h-0.1c-2,0-3.7,1.5-3.7,4.3v3.7h-1.4V553.7z"/>
		<path fill="#762264" d="M817.9,553.7h1.4v1.6c0.6-0.9,1.4-1.8,3-1.8c1.5,0,2.5,0.8,3,1.9c0.7-1,1.7-1.9,3.3-1.9
			c2.2,0,3.5,1.4,3.5,3.8v5.8h-1.4v-5.5c0-1.8-0.9-2.8-2.4-2.8c-1.4,0-2.6,1-2.6,2.9v5.4h-1.4v-5.5c0-1.8-0.9-2.8-2.4-2.8
			c-1.5,0-2.6,1.2-2.6,2.9v5.3h-1.4V553.7z"/>
		<path fill="#762264" d="M834.3,560.3L834.3,560.3c0-2,1.6-3.1,4-3.1c1.2,0,2,0.2,2.9,0.4v-0.3c0-1.7-1-2.5-2.8-2.5
			c-1.1,0-2,0.3-2.8,0.7l-0.4-1.1c1-0.5,2-0.8,3.4-0.8c1.3,0,2.3,0.3,3,1c0.6,0.6,1,1.5,1,2.7v5.7h-1.3v-1.4
			c-0.7,0.8-1.7,1.6-3.4,1.6C836.1,563.2,834.3,562.2,834.3,560.3z M841.2,559.6v-0.9c-0.7-0.2-1.6-0.4-2.7-0.4
			c-1.8,0-2.7,0.8-2.7,1.9v0c0,1.2,1.1,1.9,2.4,1.9C839.8,562.1,841.2,561.1,841.2,559.6z"/>
		<path fill="#762264" d="M845.2,556.7L845.2,556.7c0-3.6,2.7-6.6,6.4-6.6c2.3,0,3.7,0.8,4.9,2l-1,1c-1.1-1-2.3-1.7-4-1.7
			c-2.8,0-4.9,2.3-4.9,5.2v0c0,2.9,2.1,5.2,4.9,5.2c1.7,0,2.9-0.7,4.1-1.8l0.9,0.9c-1.3,1.3-2.8,2.2-5.1,2.2
			C847.9,563.2,845.2,560.4,845.2,556.7z"/>
		<path fill="#762264" d="M858.1,558.4L858.1,558.4c0-2.7,2.1-4.9,4.9-4.9c2.8,0,4.9,2.2,4.9,4.8v0c0,2.6-2.1,4.9-4.9,4.9
			C860.1,563.2,858.1,561,858.1,558.4z M866.4,558.4L866.4,558.4c0-2-1.5-3.7-3.5-3.7c-2,0-3.4,1.6-3.4,3.6v0c0,2,1.5,3.6,3.5,3.6
			C865,562,866.4,560.4,866.4,558.4z"/>
		<path fill="#762264" d="M870.4,553.7h1.4v1.6c0.6-1,1.6-1.8,3.2-1.8c2.3,0,3.6,1.5,3.6,3.7v5.8h-1.4v-5.5c0-1.7-0.9-2.8-2.6-2.8
			c-1.6,0-2.8,1.2-2.8,2.9v5.4h-1.4V553.7z"/>
		<path fill="#762264" d="M882,560.5v-5.6h-1.3v-1.2h1.3v-2.8h1.4v2.8h3v1.2h-3v5.5c0,1.1,0.6,1.6,1.6,1.6c0.5,0,0.9-0.1,1.4-0.3
			v1.2c-0.5,0.3-1,0.4-1.7,0.4C883.1,563.2,882,562.4,882,560.5z"/>
		<path fill="#762264" d="M888.8,553.7h1.4v2.4c0.7-1.6,2-2.7,3.8-2.6v1.5h-0.1c-2,0-3.7,1.5-3.7,4.3v3.7h-1.4V553.7z"/>
		<path fill="#762264" d="M895.1,558.4L895.1,558.4c0-2.7,2.1-4.9,4.9-4.9c2.8,0,4.9,2.2,4.9,4.8v0c0,2.6-2.1,4.9-4.9,4.9
			C897.2,563.2,895.1,561,895.1,558.4z M903.5,558.4L903.5,558.4c0-2-1.5-3.7-3.5-3.7c-2,0-3.4,1.6-3.4,3.6v0c0,2,1.5,3.6,3.5,3.6
			C902.1,562,903.5,560.4,903.5,558.4z"/>
		<path fill="#762264" d="M907.5,549.8h1.4V563h-1.4V549.8z"/>
		<path fill="#762264" d="M912.9,551.1h-1.8v-0.8h4.4v0.8h-1.8v4.8h-0.8V551.1z M916.7,550.4h0.8l2,3.1l2-3.1h0.8v5.6h-0.8v-4.3
			l-2,3h-0.1l-2-3v4.3h-0.8V550.4z"/>
		<path fill="#762264" d="M930.3,550.4h9.1v1.3h-7.7v4.5h6.9v1.3h-6.9v5.5h-1.4V550.4z"/>
		<path fill="#762264" d="M941.1,558.4L941.1,558.4c0-2.7,2.1-4.9,4.9-4.9c2.8,0,4.9,2.2,4.9,4.8v0c0,2.6-2.1,4.9-4.9,4.9
			C943.1,563.2,941.1,561,941.1,558.4z M949.4,558.4L949.4,558.4c0-2-1.5-3.7-3.5-3.7c-2,0-3.4,1.6-3.4,3.6v0c0,2,1.5,3.6,3.5,3.6
			C948,562,949.4,560.4,949.4,558.4z"/>
		<path fill="#762264" d="M952.6,560.3L952.6,560.3c0-2,1.6-3.1,4-3.1c1.2,0,2,0.2,2.9,0.4v-0.3c0-1.7-1-2.5-2.8-2.5
			c-1.1,0-2,0.3-2.8,0.7l-0.4-1.1c1-0.5,2-0.8,3.4-0.8c1.3,0,2.3,0.3,3,1c0.6,0.6,1,1.5,1,2.7v5.7h-1.3v-1.4
			c-0.7,0.8-1.7,1.6-3.4,1.6C954.4,563.2,952.6,562.2,952.6,560.3z M959.5,559.6v-0.9c-0.7-0.2-1.6-0.4-2.7-0.4
			c-1.8,0-2.7,0.8-2.7,1.9v0c0,1.2,1.1,1.9,2.4,1.9C958.1,562.1,959.5,561.1,959.5,559.6z"/>
		<path fill="#762264" d="M963.8,553.7h1.4v1.6c0.6-0.9,1.4-1.8,3-1.8c1.5,0,2.5,0.8,3,1.9c0.7-1,1.7-1.9,3.3-1.9
			c2.2,0,3.5,1.4,3.5,3.8v5.8h-1.4v-5.5c0-1.8-0.9-2.8-2.4-2.8c-1.4,0-2.6,1-2.6,2.9v5.4h-1.4v-5.5c0-1.8-0.9-2.8-2.4-2.8
			c-1.5,0-2.6,1.2-2.6,2.9v5.3h-1.4V553.7z"/>
	</g>
	<g enable-background="new    ">
		<path fill="#762264" d="M3.2,572.1h1.6l3.6,10.5l3.5-10.6H13l3.5,10.6l3.6-10.5h1.5l-4.5,12.7h-1.2l-3.5-10.3l-3.5,10.3H7.7
			L3.2,572.1z"/>
		<path fill="#762264" d="M22,582L22,582c0-2,1.6-3.1,4-3.1c1.2,0,2,0.2,2.9,0.4V579c0-1.7-1-2.5-2.8-2.5c-1.1,0-2,0.3-2.8,0.7
			l-0.4-1.1c1-0.5,2-0.8,3.4-0.8c1.3,0,2.3,0.3,3,1c0.6,0.6,1,1.5,1,2.7v5.7h-1.3v-1.4c-0.7,0.8-1.7,1.6-3.4,1.6
			C23.7,584.9,22,583.9,22,582z M28.9,581.3v-0.9c-0.7-0.2-1.6-0.4-2.7-0.4c-1.8,0-2.7,0.8-2.7,1.9v0c0,1.2,1.1,1.9,2.4,1.9
			C27.5,583.8,28.9,582.8,28.9,581.3z"/>
		<path fill="#762264" d="M32.4,583.5l0.7-1c1,0.8,2.1,1.2,3.2,1.2c1.1,0,1.9-0.6,1.9-1.5v0c0-0.9-1.1-1.3-2.3-1.6
			c-1.5-0.4-3.1-0.9-3.1-2.6v0c0-1.6,1.3-2.7,3.2-2.7c1.1,0,2.4,0.4,3.4,1l-0.6,1c-0.9-0.6-1.9-0.9-2.8-0.9c-1.1,0-1.8,0.6-1.8,1.4
			v0c0,0.9,1.2,1.2,2.4,1.6c1.4,0.4,3,1,3,2.7v0c0,1.8-1.5,2.8-3.3,2.8C34.9,584.9,33.4,584.4,32.4,583.5z"/>
		<path fill="#762264" d="M42.2,571.5h1.4v5.5c0.6-1,1.6-1.8,3.2-1.8c2.3,0,3.6,1.5,3.6,3.7v5.8H49v-5.5c0-1.7-0.9-2.8-2.6-2.8
			c-1.6,0-2.8,1.2-2.8,2.9v5.4h-1.4V571.5z"/>
		<path fill="#762264" d="M59.2,582.2v-5.6h-1.3v-1.2h1.3v-2.8h1.4v2.8h3v1.2h-3v5.5c0,1.1,0.6,1.6,1.6,1.6c0.5,0,0.9-0.1,1.4-0.3
			v1.2c-0.5,0.3-1,0.4-1.7,0.4C60.4,584.9,59.2,584.1,59.2,582.2z"/>
		<path fill="#762264" d="M65.2,575.4h1.5l2.5,7.5l2.5-7.5h1.2l2.5,7.5l2.5-7.5h1.4l-3.3,9.4h-1.2l-2.5-7.4l-2.5,7.4h-1.2
			L65.2,575.4z"/>
		<path fill="#762264" d="M81.6,571.8h1.6v1.5h-1.6V571.8z M81.7,575.4h1.4v9.3h-1.4V575.4z"/>
		<path fill="#762264" d="M85.8,580.1L85.8,580.1c0-2.7,2.1-4.9,4.8-4.9c1.8,0,2.9,0.7,3.7,1.7l-0.9,1c-0.7-0.8-1.6-1.4-2.8-1.4
			c-1.9,0-3.3,1.6-3.3,3.6v0c0,2,1.5,3.6,3.4,3.6c1.2,0,2.1-0.6,2.9-1.4l0.9,0.8c-0.9,1-2.1,1.8-3.8,1.8
			C87.8,584.9,85.8,582.7,85.8,580.1z"/>
		<path fill="#762264" d="M95.8,580.1L95.8,580.1c0-2.7,1.9-4.9,4.5-4.9c2.8,0,4.4,2.2,4.4,4.9c0,0.2,0,0.3,0,0.5h-7.4
			c0.2,2,1.6,3.2,3.3,3.2c1.3,0,2.2-0.5,2.9-1.3l0.9,0.8c-0.9,1-2.1,1.8-3.9,1.8C97.9,584.9,95.8,583,95.8,580.1z M103.3,579.5
			c-0.1-1.7-1.1-3.2-3-3.2c-1.6,0-2.9,1.4-3,3.2H103.3z"/>
		<path fill="#762264" d="M112,580.1L112,580.1c0-3.1,2.2-4.9,4.5-4.9c1.7,0,2.9,0.9,3.6,2v-5.6h1.4v13.2H120v-1.9
			c-0.8,1.1-1.9,2.1-3.6,2.1C114.2,584.9,112,583.1,112,580.1z M120.1,580L120.1,580c0-2.2-1.6-3.6-3.4-3.6c-1.8,0-3.3,1.3-3.3,3.6
			v0c0,2.2,1.5,3.6,3.3,3.6C118.5,583.7,120.1,582.2,120.1,580z"/>
		<path fill="#762264" d="M123.8,582L123.8,582c0-2,1.6-3.1,4-3.1c1.2,0,2,0.2,2.9,0.4V579c0-1.7-1-2.5-2.8-2.5
			c-1.1,0-2,0.3-2.8,0.7l-0.4-1.1c1-0.5,2-0.8,3.4-0.8c1.3,0,2.3,0.3,3,1c0.6,0.6,1,1.5,1,2.7v5.7h-1.3v-1.4
			c-0.7,0.8-1.7,1.6-3.4,1.6C125.6,584.9,123.8,583.9,123.8,582z M130.7,581.3v-0.9c-0.7-0.2-1.6-0.4-2.7-0.4
			c-1.8,0-2.7,0.8-2.7,1.9v0c0,1.2,1.1,1.9,2.4,1.9C129.3,583.8,130.7,582.8,130.7,581.3z"/>
		<path fill="#762264" d="M135,571.8h1.6v1.5H135V571.8z M135.1,575.4h1.4v9.3h-1.4V575.4z"/>
		<path fill="#762264" d="M139.9,571.5h1.4v13.2h-1.4V571.5z"/>
		<path fill="#762264" d="M151.5,575.4h1.5l-3.9,9.7c-0.8,1.9-1.7,2.6-3.1,2.6c-0.8,0-1.4-0.2-2-0.5l0.5-1.1
			c0.5,0.2,0.9,0.3,1.5,0.3c0.8,0,1.4-0.4,1.9-1.8l-4.2-9.3h1.5l3.4,7.8L151.5,575.4z"/>
		<path fill="#762264" d="M159.9,582L159.9,582c0-2,1.6-3.1,4-3.1c1.2,0,2,0.2,2.9,0.4V579c0-1.7-1-2.5-2.8-2.5
			c-1.1,0-2,0.3-2.8,0.7l-0.4-1.1c1-0.5,2-0.8,3.4-0.8c1.3,0,2.3,0.3,3,1c0.6,0.6,1,1.5,1,2.7v5.7h-1.3v-1.4
			c-0.7,0.8-1.7,1.6-3.4,1.6C161.7,584.9,159.9,583.9,159.9,582z M166.8,581.3v-0.9c-0.7-0.2-1.6-0.4-2.7-0.4
			c-1.8,0-2.7,0.8-2.7,1.9v0c0,1.2,1.1,1.9,2.4,1.9C165.4,583.8,166.8,582.8,166.8,581.3z"/>
		<path fill="#762264" d="M171.1,575.4h1.4v1.6c0.6-1,1.6-1.8,3.2-1.8c2.3,0,3.6,1.5,3.6,3.7v5.8h-1.4v-5.5c0-1.7-0.9-2.8-2.6-2.8
			c-1.6,0-2.8,1.2-2.8,2.9v5.4h-1.4V575.4z"/>
		<path fill="#762264" d="M181.7,580.1L181.7,580.1c0-3.1,2.2-4.9,4.5-4.9c1.7,0,2.9,0.9,3.6,2v-5.6h1.4v13.2h-1.4v-1.9
			c-0.8,1.1-1.9,2.1-3.6,2.1C183.9,584.9,181.7,583.1,181.7,580.1z M189.8,580L189.8,580c0-2.2-1.6-3.6-3.4-3.6
			c-1.8,0-3.3,1.3-3.3,3.6v0c0,2.2,1.5,3.6,3.3,3.6C188.1,583.7,189.8,582.2,189.8,580z"/>
		<path fill="#762264" d="M199.3,578.4L199.3,578.4c0-3.6,2.7-6.6,6.4-6.6c2.3,0,3.7,0.8,4.9,2l-1,1c-1.1-1-2.3-1.7-4-1.7
			c-2.8,0-4.9,2.3-4.9,5.2v0c0,2.9,2.1,5.2,4.9,5.2c1.7,0,2.9-0.7,4.1-1.8l0.9,0.9c-1.3,1.3-2.8,2.2-5.1,2.2
			C202,584.9,199.3,582,199.3,578.4z"/>
		<path fill="#762264" d="M212.2,580.1L212.2,580.1c0-2.7,1.9-4.9,4.5-4.9c2.8,0,4.4,2.2,4.4,4.9c0,0.2,0,0.3,0,0.5h-7.4
			c0.2,2,1.6,3.2,3.3,3.2c1.3,0,2.2-0.5,2.9-1.3l0.9,0.8c-0.9,1-2.1,1.8-3.9,1.8C214.3,584.9,212.2,583,212.2,580.1z M219.7,579.5
			c-0.1-1.7-1.1-3.2-3-3.2c-1.6,0-2.9,1.4-3,3.2H219.7z"/>
		<path fill="#762264" d="M224,582.2v-5.6h-1.3v-1.2h1.3v-2.8h1.4v2.8h3v1.2h-3v5.5c0,1.1,0.6,1.6,1.6,1.6c0.5,0,0.9-0.1,1.4-0.3
			v1.2c-0.5,0.3-1,0.4-1.7,0.4C225.2,584.9,224,584.1,224,582.2z"/>
		<path fill="#762264" d="M230.1,582L230.1,582c0-2,1.6-3.1,4-3.1c1.2,0,2,0.2,2.9,0.4V579c0-1.7-1-2.5-2.8-2.5
			c-1.1,0-2,0.3-2.8,0.7L231,576c1-0.5,2-0.8,3.4-0.8c1.3,0,2.3,0.3,3,1c0.6,0.6,1,1.5,1,2.7v5.7H237v-1.4c-0.7,0.8-1.7,1.6-3.4,1.6
			C231.9,584.9,230.1,583.9,230.1,582z M237,581.3v-0.9c-0.7-0.2-1.6-0.4-2.7-0.4c-1.8,0-2.7,0.8-2.7,1.9v0c0,1.2,1.1,1.9,2.4,1.9
			C235.6,583.8,237,582.8,237,581.3z"/>
		<path fill="#762264" d="M241.3,575.4h1.4v1.9c0.8-1.1,1.9-2.1,3.6-2.1c2.2,0,4.5,1.8,4.5,4.8v0c0,3.1-2.2,4.9-4.5,4.9
			c-1.7,0-2.9-0.9-3.6-2v4.7h-1.4V575.4z M249.3,580.1L249.3,580.1c0-2.2-1.5-3.7-3.3-3.7c-1.7,0-3.4,1.5-3.4,3.6v0
			c0,2.2,1.6,3.6,3.4,3.6C247.8,583.7,249.3,582.3,249.3,580.1z"/>
		<path fill="#762264" d="M253.3,571.5h1.4v5.5c0.6-1,1.6-1.8,3.2-1.8c2.3,0,3.6,1.5,3.6,3.7v5.8h-1.4v-5.5c0-1.7-0.9-2.8-2.6-2.8
			c-1.6,0-2.8,1.2-2.8,2.9v5.4h-1.4V571.5z"/>
		<path fill="#762264" d="M264.5,571.8h1.6v1.5h-1.6V571.8z M264.6,575.4h1.4v9.3h-1.4V575.4z"/>
		<path fill="#762264" d="M269.3,571.5h1.4v13.2h-1.4V571.5z"/>
		<path fill="#762264" d="M272.9,575.1L272.9,575.1c0-1.7,1.4-3.2,3.1-3.2c1.8,0,3.1,1.4,3.1,3.1v0c0,1.7-1.4,3.2-3.1,3.2
			C274.3,578.2,272.9,576.8,272.9,575.1z M278.8,575L278.8,575c0-1.6-1.2-2.8-2.8-2.8c-1.6,0-2.8,1.3-2.8,2.8v0
			c0,1.5,1.2,2.8,2.8,2.8C277.6,577.9,278.8,576.6,278.8,575z M274.8,573.4h1.4c0.7,0,1.2,0.3,1.2,1c0,0.5-0.3,0.8-0.7,1l0.8,1.2
			h-0.7l-0.8-1.1h-0.7v1.1h-0.6V573.4z M276.2,575c0.4,0,0.7-0.2,0.7-0.5c0-0.3-0.2-0.5-0.7-0.5h-0.8v1H276.2z"/>
		<path fill="#762264" d="M286.9,572.1h4.4c4,0,6.7,2.7,6.7,6.3v0c0,3.6-2.7,6.3-6.7,6.3h-4.4V572.1z M288.3,573.4v10h3
			c3.2,0,5.2-2.2,5.2-5v0c0-2.8-2-5-5.2-5H288.3z"/>
		<path fill="#762264" d="M300.2,580.1L300.2,580.1c0-2.7,1.9-4.9,4.5-4.9c2.8,0,4.4,2.2,4.4,4.9c0,0.2,0,0.3,0,0.5h-7.4
			c0.2,2,1.6,3.2,3.3,3.2c1.3,0,2.2-0.5,2.9-1.3l0.9,0.8c-0.9,1-2.1,1.8-3.9,1.8C302.3,584.9,300.2,583,300.2,580.1z M307.7,579.5
			c-0.1-1.7-1.1-3.2-3-3.2c-1.6,0-2.9,1.4-3,3.2H307.7z"/>
		<path fill="#762264" d="M311.5,575.4h1.4v2.4c0.7-1.6,2-2.7,3.8-2.6v1.5h-0.1c-2,0-3.7,1.5-3.7,4.3v3.7h-1.4V575.4z"/>
		<path fill="#762264" d="M318.8,575.4h1.4v1.6c0.6-0.9,1.4-1.8,3-1.8c1.5,0,2.5,0.8,3,1.9c0.7-1,1.7-1.9,3.3-1.9
			c2.2,0,3.5,1.4,3.5,3.8v5.8h-1.4v-5.5c0-1.8-0.9-2.8-2.4-2.8c-1.4,0-2.6,1-2.6,2.9v5.4h-1.4v-5.5c0-1.8-0.9-2.8-2.4-2.8
			c-1.5,0-2.6,1.2-2.6,2.9v5.3h-1.4V575.4z"/>
		<path fill="#762264" d="M335.3,582L335.3,582c0-2,1.6-3.1,4-3.1c1.2,0,2,0.2,2.9,0.4V579c0-1.7-1-2.5-2.8-2.5
			c-1.1,0-2,0.3-2.8,0.7l-0.4-1.1c1-0.5,2-0.8,3.4-0.8c1.3,0,2.3,0.3,3,1c0.6,0.6,1,1.5,1,2.7v5.7h-1.3v-1.4
			c-0.7,0.8-1.7,1.6-3.4,1.6C337.1,584.9,335.3,583.9,335.3,582z M342.2,581.3v-0.9c-0.7-0.2-1.6-0.4-2.7-0.4
			c-1.8,0-2.7,0.8-2.7,1.9v0c0,1.2,1.1,1.9,2.4,1.9C340.8,583.8,342.2,582.8,342.2,581.3z"/>
		<path fill="#762264" d="M346.2,578.4L346.2,578.4c0-3.6,2.7-6.6,6.4-6.6c2.3,0,3.7,0.8,4.9,2l-1,1c-1.1-1-2.3-1.7-4-1.7
			c-2.8,0-4.9,2.3-4.9,5.2v0c0,2.9,2.1,5.2,4.9,5.2c1.7,0,2.9-0.7,4.1-1.8l0.9,0.9c-1.3,1.3-2.8,2.2-5.1,2.2
			C348.9,584.9,346.2,582,346.2,578.4z"/>
		<path fill="#762264" d="M359.1,580.1L359.1,580.1c0-2.7,2.1-4.9,4.9-4.9c2.8,0,4.9,2.2,4.9,4.8v0c0,2.6-2.1,4.9-4.9,4.9
			C361.1,584.9,359.1,582.7,359.1,580.1z M367.4,580.1L367.4,580.1c0-2-1.5-3.7-3.5-3.7c-2,0-3.4,1.6-3.4,3.6v0c0,2,1.5,3.6,3.5,3.6
			C366,583.7,367.4,582,367.4,580.1z"/>
		<path fill="#762264" d="M371.3,575.4h1.4v1.6c0.6-1,1.6-1.8,3.2-1.8c2.3,0,3.6,1.5,3.6,3.7v5.8h-1.4v-5.5c0-1.7-0.9-2.8-2.6-2.8
			c-1.6,0-2.8,1.2-2.8,2.9v5.4h-1.4V575.4z"/>
		<path fill="#762264" d="M383,582.2v-5.6h-1.3v-1.2h1.3v-2.8h1.4v2.8h3v1.2h-3v5.5c0,1.1,0.6,1.6,1.6,1.6c0.5,0,0.9-0.1,1.4-0.3
			v1.2c-0.5,0.3-1,0.4-1.7,0.4C384.1,584.9,383,584.1,383,582.2z"/>
		<path fill="#762264" d="M389.8,575.4h1.4v2.4c0.7-1.6,2-2.7,3.8-2.6v1.5h-0.1c-2,0-3.7,1.5-3.7,4.3v3.7h-1.4V575.4z"/>
		<path fill="#762264" d="M396.1,580.1L396.1,580.1c0-2.7,2.1-4.9,4.9-4.9c2.8,0,4.9,2.2,4.9,4.8v0c0,2.6-2.1,4.9-4.9,4.9
			C398.2,584.9,396.1,582.7,396.1,580.1z M404.4,580.1L404.4,580.1c0-2-1.5-3.7-3.5-3.7c-2,0-3.4,1.6-3.4,3.6v0c0,2,1.5,3.6,3.5,3.6
			C403,583.7,404.4,582,404.4,580.1z"/>
		<path fill="#762264" d="M408.5,571.5h1.4v13.2h-1.4V571.5z"/>
		<path fill="#762264" d="M413.8,572.8H412v-0.8h4.4v0.8h-1.8v4.8h-0.8V572.8z M417.6,572.1h0.8l2,3.1l2-3.1h0.8v5.6h-0.8v-4.3l-2,3
			h-0.1l-2-3v4.3h-0.8V572.1z"/>
		<path fill="#762264" d="M431.3,572.1h1.4l4.6,6.9l4.6-6.9h1.4v12.7h-1.4v-10.3l-4.6,6.8h-0.1l-4.6-6.8v10.2h-1.4V572.1z"/>
		<path fill="#762264" d="M446.1,580.1L446.1,580.1c0-2.7,2.1-4.9,4.9-4.9c2.8,0,4.9,2.2,4.9,4.8v0c0,2.6-2.1,4.9-4.9,4.9
			C448.2,584.9,446.1,582.7,446.1,580.1z M454.5,580.1L454.5,580.1c0-2-1.5-3.7-3.5-3.7c-2,0-3.4,1.6-3.4,3.6v0c0,2,1.5,3.6,3.5,3.6
			C453,583.7,454.5,582,454.5,580.1z"/>
		<path fill="#762264" d="M458.4,571.8h1.6v1.5h-1.6V571.8z M458.5,575.4h1.4v9.3h-1.4V575.4z"/>
		<path fill="#762264" d="M462.4,583.5l0.7-1c1,0.8,2.1,1.2,3.2,1.2c1.1,0,1.9-0.6,1.9-1.5v0c0-0.9-1.1-1.3-2.3-1.6
			c-1.5-0.4-3.1-0.9-3.1-2.6v0c0-1.6,1.3-2.7,3.2-2.7c1.1,0,2.4,0.4,3.4,1l-0.6,1c-0.9-0.6-1.9-0.9-2.8-0.9c-1.1,0-1.8,0.6-1.8,1.4
			v0c0,0.9,1.2,1.2,2.4,1.6c1.4,0.4,3,1,3,2.7v0c0,1.8-1.5,2.8-3.3,2.8C464.9,584.9,463.4,584.4,462.4,583.5z"/>
		<path fill="#762264" d="M472.5,582.2v-5.6h-1.3v-1.2h1.3v-2.8h1.4v2.8h3v1.2h-3v5.5c0,1.1,0.6,1.6,1.6,1.6c0.5,0,0.9-0.1,1.4-0.3
			v1.2c-0.5,0.3-1,0.4-1.7,0.4C473.6,584.9,472.5,584.1,472.5,582.2z"/>
		<path fill="#762264" d="M479.1,581.2v-5.8h1.4v5.5c0,1.7,0.9,2.8,2.6,2.8c1.6,0,2.8-1.2,2.8-2.9v-5.4h1.4v9.3h-1.4v-1.6
			c-0.6,1-1.6,1.8-3.2,1.8C480.5,584.9,479.1,583.4,479.1,581.2z"/>
		<path fill="#762264" d="M490.4,575.4h1.4v2.4c0.7-1.6,2-2.7,3.8-2.6v1.5h-0.1c-2,0-3.7,1.5-3.7,4.3v3.7h-1.4V575.4z"/>
		<path fill="#762264" d="M497.8,571.8h1.6v1.5h-1.6V571.8z M497.9,575.4h1.4v9.3h-1.4V575.4z"/>
		<path fill="#762264" d="M502,583.8l6.2-7.3h-6v-1.2h7.9v0.9l-6.2,7.3h6.2v1.2H502V583.8z"/>
		<path fill="#762264" d="M511.7,580.1L511.7,580.1c0-2.7,1.9-4.9,4.5-4.9c2.8,0,4.4,2.2,4.4,4.9c0,0.2,0,0.3,0,0.5h-7.4
			c0.2,2,1.6,3.2,3.3,3.2c1.3,0,2.2-0.5,2.9-1.3l0.9,0.8c-0.9,1-2.1,1.8-3.9,1.8C513.8,584.9,511.7,583,511.7,580.1z M519.1,579.5
			c-0.1-1.7-1.1-3.2-3-3.2c-1.6,0-2.9,1.4-3,3.2H519.1z"/>
		<path fill="#762264" d="M523,575.4h1.4v2.4c0.7-1.6,2-2.7,3.8-2.6v1.5h-0.1c-2,0-3.7,1.5-3.7,4.3v3.7H523V575.4z"/>
		<path fill="#762264" d="M535.1,580.1L535.1,580.1c0-2.7,2.1-4.9,4.9-4.9c2.8,0,4.9,2.2,4.9,4.8v0c0,2.6-2.1,4.9-4.9,4.9
			C537.2,584.9,535.1,582.7,535.1,580.1z M543.5,580.1L543.5,580.1c0-2-1.5-3.7-3.5-3.7c-2,0-3.4,1.6-3.4,3.6v0c0,2,1.5,3.6,3.5,3.6
			C542.1,583.7,543.5,582,543.5,580.1z"/>
		<path fill="#762264" d="M547.4,575.4h1.4v1.6c0.6-1,1.6-1.8,3.2-1.8c2.3,0,3.6,1.5,3.6,3.7v5.8h-1.4v-5.5c0-1.7-0.9-2.8-2.6-2.8
			c-1.6,0-2.8,1.2-2.8,2.9v5.4h-1.4V575.4z"/>
		<path fill="#762264" d="M558,580.1L558,580.1c0-2.7,2.1-4.9,4.8-4.9c1.8,0,2.9,0.7,3.7,1.7l-0.9,1c-0.7-0.8-1.6-1.4-2.8-1.4
			c-1.9,0-3.3,1.6-3.3,3.6v0c0,2,1.5,3.6,3.4,3.6c1.2,0,2.1-0.6,2.9-1.4l0.9,0.8c-0.9,1-2.1,1.8-3.8,1.8
			C560,584.9,558,582.7,558,580.1z"/>
		<path fill="#762264" d="M568,580.1L568,580.1c0-2.7,1.9-4.9,4.5-4.9c2.8,0,4.4,2.2,4.4,4.9c0,0.2,0,0.3,0,0.5h-7.4
			c0.2,2,1.6,3.2,3.3,3.2c1.3,0,2.2-0.5,2.9-1.3l0.9,0.8c-0.9,1-2.1,1.8-3.9,1.8C570.1,584.9,568,583,568,580.1z M575.4,579.5
			c-0.1-1.7-1.1-3.2-3-3.2c-1.6,0-2.9,1.4-3,3.2H575.4z"/>
		<path fill="#762264" d="M584.2,580.1L584.2,580.1c0-3.1,2.2-4.9,4.5-4.9c1.7,0,2.9,0.9,3.6,2v-5.6h1.4v13.2h-1.4v-1.9
			c-0.8,1.1-1.9,2.1-3.6,2.1C586.4,584.9,584.2,583.1,584.2,580.1z M592.3,580L592.3,580c0-2.2-1.6-3.6-3.4-3.6
			c-1.8,0-3.3,1.3-3.3,3.6v0c0,2.2,1.5,3.6,3.3,3.6C590.6,583.7,592.3,582.2,592.3,580z"/>
		<path fill="#762264" d="M596,582L596,582c0-2,1.6-3.1,4-3.1c1.2,0,2,0.2,2.9,0.4V579c0-1.7-1-2.5-2.8-2.5c-1.1,0-2,0.3-2.8,0.7
			l-0.4-1.1c1-0.5,2-0.8,3.4-0.8c1.3,0,2.3,0.3,3,1c0.6,0.6,1,1.5,1,2.7v5.7h-1.3v-1.4c-0.7,0.8-1.7,1.6-3.4,1.6
			C597.8,584.9,596,583.9,596,582z M602.9,581.3v-0.9c-0.7-0.2-1.6-0.4-2.7-0.4c-1.8,0-2.7,0.8-2.7,1.9v0c0,1.2,1.1,1.9,2.4,1.9
			C601.5,583.8,602.9,582.8,602.9,581.3z"/>
		<path fill="#762264" d="M607.2,571.8h1.6v1.5h-1.6V571.8z M607.3,575.4h1.4v9.3h-1.4V575.4z"/>
		<path fill="#762264" d="M612.1,571.5h1.4v13.2h-1.4V571.5z"/>
		<path fill="#762264" d="M623.7,575.4h1.5l-3.9,9.7c-0.8,1.9-1.7,2.6-3.1,2.6c-0.8,0-1.4-0.2-2-0.5l0.5-1.1
			c0.5,0.2,0.9,0.3,1.5,0.3c0.8,0,1.4-0.4,1.9-1.8l-4.2-9.3h1.5l3.4,7.8L623.7,575.4z"/>
		<path fill="#762264" d="M633.3,576.6h-1.3v-1.2h1.3v-0.8c0-1.1,0.3-1.9,0.8-2.4c0.5-0.5,1.2-0.7,2-0.7c0.7,0,1.1,0.1,1.5,0.2v1.2
			c-0.5-0.1-0.9-0.2-1.4-0.2c-1.1,0-1.6,0.7-1.6,2v0.8h3v1.2h-2.9v8.1h-1.4V576.6z"/>
		<path fill="#762264" d="M638.7,580.1L638.7,580.1c0-2.7,2.1-4.9,4.9-4.9c2.8,0,4.9,2.2,4.9,4.8v0c0,2.6-2.1,4.9-4.9,4.9
			C640.7,584.9,638.7,582.7,638.7,580.1z M647,580.1L647,580.1c0-2-1.5-3.7-3.5-3.7c-2,0-3.4,1.6-3.4,3.6v0c0,2,1.5,3.6,3.5,3.6
			C645.6,583.7,647,582,647,580.1z"/>
		<path fill="#762264" d="M650.9,575.4h1.4v2.4c0.7-1.6,2-2.7,3.8-2.6v1.5H656c-2,0-3.7,1.5-3.7,4.3v3.7h-1.4V575.4z"/>
		<path fill="#762264" d="M670,581.7h-6.7l-0.4-1l7.2-8.7h1.3v8.6h2v1.2h-2v3H670V581.7z M670,580.5V574l-5.3,6.5H670z"/>
		<path fill="#762264" d="M680.5,575.4h1.5l2.5,7.5l2.5-7.5h1.2l2.5,7.5l2.5-7.5h1.4l-3.3,9.4H690l-2.5-7.4l-2.5,7.4h-1.2
			L680.5,575.4z"/>
		<path fill="#762264" d="M695.8,580.1L695.8,580.1c0-2.7,1.9-4.9,4.5-4.9c2.8,0,4.4,2.2,4.4,4.9c0,0.2,0,0.3,0,0.5h-7.4
			c0.2,2,1.6,3.2,3.3,3.2c1.3,0,2.2-0.5,2.9-1.3l0.9,0.8c-0.9,1-2.1,1.8-3.9,1.8C697.9,584.9,695.8,583,695.8,580.1z M703.2,579.5
			c-0.1-1.7-1.1-3.2-3-3.2c-1.6,0-2.9,1.4-3,3.2H703.2z"/>
		<path fill="#762264" d="M706.5,580.1L706.5,580.1c0-2.7,1.9-4.9,4.5-4.9c2.8,0,4.4,2.2,4.4,4.9c0,0.2,0,0.3,0,0.5h-7.4
			c0.2,2,1.6,3.2,3.3,3.2c1.3,0,2.2-0.5,2.9-1.3l0.9,0.8c-0.9,1-2.1,1.8-3.9,1.8C708.6,584.9,706.5,583,706.5,580.1z M713.9,579.5
			c-0.1-1.7-1.1-3.2-3-3.2c-1.6,0-2.9,1.4-3,3.2H713.9z"/>
		<path fill="#762264" d="M717.8,571.5h1.4v9.1l5-5.3h1.7l-3.9,4l4,5.3h-1.7l-3.3-4.4l-1.9,1.9v2.4h-1.4V571.5z"/>
		<path fill="#762264" d="M727.3,583.5l0.7-1c1,0.8,2.1,1.2,3.2,1.2c1.1,0,1.9-0.6,1.9-1.5v0c0-0.9-1.1-1.3-2.3-1.6
			c-1.5-0.4-3.1-0.9-3.1-2.6v0c0-1.6,1.3-2.7,3.2-2.7c1.1,0,2.4,0.4,3.4,1l-0.6,1c-0.9-0.6-1.9-0.9-2.8-0.9c-1.1,0-1.8,0.6-1.8,1.4
			v0c0,0.9,1.2,1.2,2.4,1.6c1.4,0.4,3,1,3,2.7v0c0,1.8-1.5,2.8-3.3,2.8C729.8,584.9,728.3,584.4,727.3,583.5z"/>
		<path fill="#762264" d="M736.9,582.8h1.7v1.9h-1.7V582.8z"/>
		<path fill="#762264" d="M750.5,573.4h-4.2v-1.3h9.9v1.3h-4.2v11.3h-1.4V573.4z"/>
		<path fill="#762264" d="M758.9,572.1h9.1v1.3h-7.7v4.3h6.9v1.3h-6.9v4.4h7.8v1.3h-9.2V572.1z"/>
		<path fill="#762264" d="M770,572.1h1.6l3.6,10.5l3.5-10.6h1.2l3.5,10.6l3.6-10.5h1.5l-4.5,12.7h-1.2l-3.5-10.3l-3.5,10.3h-1.2
			L770,572.1z"/>
		<path fill="#762264" d="M791,572.1h1.4v11.3h7.1v1.3H791V572.1z"/>
		<path fill="#762264" d="M806.6,575.4h1.5l2.5,7.5l2.5-7.5h1.2l2.5,7.5l2.5-7.5h1.4l-3.3,9.4h-1.2l-2.5-7.4l-2.5,7.4h-1.2
			L806.6,575.4z"/>
		<path fill="#762264" d="M821.9,582L821.9,582c0-2,1.6-3.1,4-3.1c1.2,0,2,0.2,2.9,0.4V579c0-1.7-1-2.5-2.8-2.5
			c-1.1,0-2,0.3-2.8,0.7l-0.4-1.1c1-0.5,2-0.8,3.4-0.8c1.3,0,2.3,0.3,3,1c0.6,0.6,1,1.5,1,2.7v5.7h-1.3v-1.4
			c-0.7,0.8-1.7,1.6-3.4,1.6C823.6,584.9,821.9,583.9,821.9,582z M828.8,581.3v-0.9c-0.7-0.2-1.6-0.4-2.7-0.4
			c-1.8,0-2.7,0.8-2.7,1.9v0c0,1.2,1.1,1.9,2.4,1.9C827.4,583.8,828.8,582.8,828.8,581.3z"/>
		<path fill="#762264" d="M832.3,583.5l0.7-1c1,0.8,2.1,1.2,3.2,1.2c1.1,0,1.9-0.6,1.9-1.5v0c0-0.9-1.1-1.3-2.3-1.6
			c-1.5-0.4-3.1-0.9-3.1-2.6v0c0-1.6,1.3-2.7,3.2-2.7c1.1,0,2.4,0.4,3.4,1l-0.6,1c-0.9-0.6-1.9-0.9-2.8-0.9c-1.1,0-1.8,0.6-1.8,1.4
			v0c0,0.9,1.2,1.2,2.4,1.6c1.4,0.4,3,1,3,2.7v0c0,1.8-1.5,2.8-3.3,2.8C834.8,584.9,833.3,584.4,832.3,583.5z"/>
		<path fill="#762264" d="M846.8,582L846.8,582c0-2,1.6-3.1,4-3.1c1.2,0,2,0.2,2.9,0.4V579c0-1.7-1-2.5-2.8-2.5
			c-1.1,0-2,0.3-2.8,0.7l-0.4-1.1c1-0.5,2-0.8,3.4-0.8c1.3,0,2.3,0.3,3,1c0.6,0.6,1,1.5,1,2.7v5.7h-1.3v-1.4
			c-0.7,0.8-1.7,1.6-3.4,1.6C848.5,584.9,846.8,583.9,846.8,582z M853.7,581.3v-0.9c-0.7-0.2-1.6-0.4-2.7-0.4
			c-1.8,0-2.7,0.8-2.7,1.9v0c0,1.2,1.1,1.9,2.4,1.9C852.2,583.8,853.7,582.8,853.7,581.3z"/>
		<path fill="#762264" d="M857.2,583.5l0.7-1c1,0.8,2.1,1.2,3.2,1.2c1.1,0,1.9-0.6,1.9-1.5v0c0-0.9-1.1-1.3-2.3-1.6
			c-1.5-0.4-3.1-0.9-3.1-2.6v0c0-1.6,1.3-2.7,3.2-2.7c1.1,0,2.4,0.4,3.4,1l-0.6,1c-0.9-0.6-1.9-0.9-2.8-0.9c-1.1,0-1.8,0.6-1.8,1.4
			v0c0,0.9,1.2,1.2,2.4,1.6c1.4,0.4,3,1,3,2.7v0c0,1.8-1.5,2.8-3.3,2.8C859.7,584.9,858.2,584.4,857.2,583.5z"/>
		<path fill="#762264" d="M866,583.5l0.7-1c1,0.8,2.1,1.2,3.2,1.2c1.1,0,1.9-0.6,1.9-1.5v0c0-0.9-1.1-1.3-2.3-1.6
			c-1.5-0.4-3.1-0.9-3.1-2.6v0c0-1.6,1.3-2.7,3.2-2.7c1.1,0,2.4,0.4,3.4,1l-0.6,1c-0.9-0.6-1.9-0.9-2.8-0.9c-1.1,0-1.8,0.6-1.8,1.4
			v0c0,0.9,1.2,1.2,2.4,1.6c1.4,0.4,3,1,3,2.7v0c0,1.8-1.5,2.8-3.3,2.8C868.5,584.9,867,584.4,866,583.5z"/>
		<path fill="#762264" d="M875.2,580.1L875.2,580.1c0-2.7,1.9-4.9,4.5-4.9c2.8,0,4.4,2.2,4.4,4.9c0,0.2,0,0.3,0,0.5h-7.4
			c0.2,2,1.6,3.2,3.3,3.2c1.3,0,2.2-0.5,2.9-1.3l0.9,0.8c-0.9,1-2.1,1.8-3.9,1.8C877.3,584.9,875.2,583,875.2,580.1z M882.6,579.5
			c-0.1-1.7-1.1-3.2-3-3.2c-1.6,0-2.9,1.4-3,3.2H882.6z"/>
		<path fill="#762264" d="M885.7,583.5l0.7-1c1,0.8,2.1,1.2,3.2,1.2c1.1,0,1.9-0.6,1.9-1.5v0c0-0.9-1.1-1.3-2.3-1.6
			c-1.5-0.4-3.1-0.9-3.1-2.6v0c0-1.6,1.3-2.7,3.2-2.7c1.1,0,2.4,0.4,3.4,1l-0.6,1c-0.9-0.6-1.9-0.9-2.8-0.9c-1.1,0-1.8,0.6-1.8,1.4
			v0c0,0.9,1.2,1.2,2.4,1.6c1.4,0.4,3,1,3,2.7v0c0,1.8-1.5,2.8-3.3,2.8C888.2,584.9,886.7,584.4,885.7,583.5z"/>
		<path fill="#762264" d="M894.5,583.5l0.7-1c1,0.8,2.1,1.2,3.2,1.2c1.1,0,1.9-0.6,1.9-1.5v0c0-0.9-1.1-1.3-2.3-1.6
			c-1.5-0.4-3.1-0.9-3.1-2.6v0c0-1.6,1.3-2.7,3.2-2.7c1.1,0,2.4,0.4,3.4,1l-0.6,1c-0.9-0.6-1.9-0.9-2.8-0.9c-1.1,0-1.8,0.6-1.8,1.4
			v0c0,0.9,1.2,1.2,2.4,1.6c1.4,0.4,3,1,3,2.7v0c0,1.8-1.5,2.8-3.3,2.8C897,584.9,895.6,584.4,894.5,583.5z"/>
		<path fill="#762264" d="M903.7,580.1L903.7,580.1c0-2.7,1.9-4.9,4.5-4.9c2.8,0,4.4,2.2,4.4,4.9c0,0.2,0,0.3,0,0.5h-7.4
			c0.2,2,1.6,3.2,3.3,3.2c1.3,0,2.2-0.5,2.9-1.3l0.9,0.8c-0.9,1-2.1,1.8-3.9,1.8C905.8,584.9,903.7,583,903.7,580.1z M911.2,579.5
			c-0.1-1.7-1.1-3.2-3-3.2c-1.6,0-2.9,1.4-3,3.2H911.2z"/>
		<path fill="#762264" d="M914.5,580.1L914.5,580.1c0-3.1,2.2-4.9,4.5-4.9c1.7,0,2.9,0.9,3.6,2v-5.6h1.4v13.2h-1.4v-1.9
			c-0.8,1.1-1.9,2.1-3.6,2.1C916.7,584.9,914.5,583.1,914.5,580.1z M922.6,580L922.6,580c0-2.2-1.6-3.6-3.4-3.6
			c-1.8,0-3.3,1.3-3.3,3.6v0c0,2.2,1.5,3.6,3.3,3.6C920.9,583.7,922.6,582.2,922.6,580z"/>
		<path fill="#762264" d="M931.7,582L931.7,582c0-2,1.6-3.1,4-3.1c1.2,0,2,0.2,2.9,0.4V579c0-1.7-1-2.5-2.8-2.5
			c-1.1,0-2,0.3-2.8,0.7l-0.4-1.1c1-0.5,2-0.8,3.4-0.8c1.3,0,2.3,0.3,3,1c0.6,0.6,1,1.5,1,2.7v5.7h-1.3v-1.4
			c-0.7,0.8-1.7,1.6-3.4,1.6C933.5,584.9,931.7,583.9,931.7,582z M938.6,581.3v-0.9c-0.7-0.2-1.6-0.4-2.7-0.4
			c-1.8,0-2.7,0.8-2.7,1.9v0c0,1.2,1.1,1.9,2.4,1.9C937.2,583.8,938.6,582.8,938.6,581.3z"/>
		<path fill="#762264" d="M943.3,582.2v-5.6H942v-1.2h1.3v-2.8h1.4v2.8h3v1.2h-3v5.5c0,1.1,0.6,1.6,1.6,1.6c0.5,0,0.9-0.1,1.4-0.3
			v1.2c-0.5,0.3-1,0.4-1.7,0.4C944.4,584.9,943.3,584.1,943.3,582.2z"/>
	</g>
	<g enable-background="new    ">
		<path fill="#762264" d="M5.3,604.6v1.8H4v-13.2h1.4v5.7c0.8-1.1,1.9-2.1,3.6-2.1c2.2,0,4.5,1.8,4.5,4.8v0c0,3.1-2.2,4.9-4.5,4.9
			C7.2,606.6,6.1,605.7,5.3,604.6z M12,601.8L12,601.8c0-2.2-1.5-3.7-3.3-3.7c-1.7,0-3.4,1.5-3.4,3.6v0c0,2.2,1.6,3.6,3.4,3.6
			C10.5,605.4,12,604,12,601.8z"/>
		<path fill="#762264" d="M15.3,603.7L15.3,603.7c0-2,1.6-3.1,4-3.1c1.2,0,2,0.2,2.9,0.4v-0.3c0-1.7-1-2.5-2.8-2.5
			c-1.1,0-2,0.3-2.8,0.7l-0.4-1.1c1-0.5,2-0.8,3.4-0.8c1.3,0,2.3,0.3,3,1c0.6,0.6,1,1.5,1,2.7v5.7h-1.3V605
			c-0.7,0.8-1.7,1.6-3.4,1.6C17,606.6,15.3,605.6,15.3,603.7z M22.1,603v-0.9c-0.7-0.2-1.6-0.4-2.7-0.4c-1.8,0-2.7,0.8-2.7,1.9v0
			c0,1.2,1.1,1.9,2.4,1.9C20.7,605.5,22.1,604.5,22.1,603z"/>
		<path fill="#762264" d="M25.6,605.2l0.7-1c1,0.8,2.1,1.2,3.2,1.2c1.1,0,1.9-0.6,1.9-1.5v0c0-0.9-1.1-1.3-2.3-1.6
			c-1.5-0.4-3.1-0.9-3.1-2.6v0c0-1.6,1.3-2.7,3.2-2.7c1.1,0,2.4,0.4,3.4,1l-0.6,1c-0.9-0.6-1.9-0.9-2.8-0.9c-1.1,0-1.8,0.6-1.8,1.4
			v0c0,0.9,1.2,1.2,2.4,1.6c1.4,0.4,3,1,3,2.7v0c0,1.8-1.5,2.8-3.3,2.8C28.2,606.6,26.7,606.1,25.6,605.2z"/>
		<path fill="#762264" d="M34.8,601.8L34.8,601.8c0-2.7,1.9-4.9,4.5-4.9c2.8,0,4.4,2.2,4.4,4.9c0,0.2,0,0.3,0,0.5h-7.4
			c0.2,2,1.6,3.2,3.3,3.2c1.3,0,2.2-0.5,2.9-1.3l0.9,0.8c-0.9,1-2.1,1.8-3.9,1.8C36.9,606.6,34.8,604.6,34.8,601.8z M42.3,601.2
			c-0.1-1.7-1.1-3.2-3-3.2c-1.6,0-2.9,1.4-3,3.2H42.3z"/>
		<path fill="#762264" d="M46.3,593.2h1.4v13.2h-1.4V593.2z"/>
		<path fill="#762264" d="M50.9,593.5h1.6v1.5h-1.6V593.5z M51,597.1h1.4v9.3H51V597.1z"/>
		<path fill="#762264" d="M55.6,597.1H57v1.6c0.6-1,1.6-1.8,3.2-1.8c2.3,0,3.6,1.5,3.6,3.7v5.8h-1.4v-5.5c0-1.7-0.9-2.8-2.6-2.8
			c-1.6,0-2.8,1.2-2.8,2.9v5.4h-1.4V597.1z"/>
		<path fill="#762264" d="M66.2,601.8L66.2,601.8c0-2.7,1.9-4.9,4.5-4.9c2.8,0,4.4,2.2,4.4,4.9c0,0.2,0,0.3,0,0.5h-7.4
			c0.2,2,1.6,3.2,3.3,3.2c1.3,0,2.2-0.5,2.9-1.3l0.9,0.8c-0.9,1-2.1,1.8-3.9,1.8C68.3,606.6,66.2,604.6,66.2,601.8z M73.6,601.2
			c-0.1-1.7-1.1-3.2-3-3.2c-1.6,0-2.9,1.4-3,3.2H73.6z"/>
		<path fill="#762264" d="M82.2,603.7L82.2,603.7c0-2,1.6-3.1,4-3.1c1.2,0,2,0.2,2.9,0.4v-0.3c0-1.7-1-2.5-2.8-2.5
			c-1.1,0-2,0.3-2.8,0.7l-0.4-1.1c1-0.5,2-0.8,3.4-0.8c1.3,0,2.3,0.3,3,1c0.6,0.6,1,1.5,1,2.7v5.7h-1.3V605
			c-0.7,0.8-1.7,1.6-3.4,1.6C84,606.6,82.2,605.6,82.2,603.7z M89.1,603v-0.9c-0.7-0.2-1.6-0.4-2.7-0.4c-1.8,0-2.7,0.8-2.7,1.9v0
			c0,1.2,1.1,1.9,2.4,1.9C87.7,605.5,89.1,604.5,89.1,603z"/>
		<path fill="#762264" d="M93.4,597.1h1.4v1.6c0.6-1,1.6-1.8,3.2-1.8c2.3,0,3.6,1.5,3.6,3.7v5.8h-1.4v-5.5c0-1.7-0.9-2.8-2.6-2.8
			c-1.6,0-2.8,1.2-2.8,2.9v5.4h-1.4V597.1z"/>
		<path fill="#762264" d="M104,601.8L104,601.8c0-3.1,2.2-4.9,4.5-4.9c1.7,0,2.9,0.9,3.6,2v-5.6h1.4v13.2H112v-1.9
			c-0.8,1.1-1.9,2.1-3.6,2.1C106.2,606.6,104,604.8,104,601.8z M112.1,601.7L112.1,601.7c0-2.2-1.6-3.6-3.4-3.6
			c-1.8,0-3.3,1.3-3.3,3.6v0c0,2.2,1.5,3.6,3.3,3.6C110.4,605.4,112.1,603.9,112.1,601.7z"/>
		<path fill="#762264" d="M121.4,601.8L121.4,601.8c0-3.1,2.2-4.9,4.5-4.9c1.7,0,2.9,0.9,3.6,2v-5.6h1.4v13.2h-1.4v-1.9
			c-0.8,1.1-1.9,2.1-3.6,2.1C123.6,606.6,121.4,604.8,121.4,601.8z M129.5,601.7L129.5,601.7c0-2.2-1.6-3.6-3.4-3.6
			c-1.8,0-3.3,1.3-3.3,3.6v0c0,2.2,1.5,3.6,3.3,3.6C127.9,605.4,129.5,603.9,129.5,601.7z"/>
		<path fill="#762264" d="M133.2,603.7L133.2,603.7c0-2,1.6-3.1,4-3.1c1.2,0,2,0.2,2.9,0.4v-0.3c0-1.7-1-2.5-2.8-2.5
			c-1.1,0-2,0.3-2.8,0.7l-0.4-1.1c1-0.5,2-0.8,3.4-0.8c1.3,0,2.3,0.3,3,1c0.6,0.6,1,1.5,1,2.7v5.7h-1.3V605
			c-0.7,0.8-1.7,1.6-3.4,1.6C135,606.6,133.2,605.6,133.2,603.7z M140.1,603v-0.9c-0.7-0.2-1.6-0.4-2.7-0.4c-1.8,0-2.7,0.8-2.7,1.9
			v0c0,1.2,1.1,1.9,2.4,1.9C138.7,605.5,140.1,604.5,140.1,603z"/>
		<path fill="#762264" d="M151,597.1h1.5l-3.9,9.7c-0.8,1.9-1.7,2.6-3.1,2.6c-0.8,0-1.4-0.2-2-0.5l0.5-1.1c0.5,0.2,0.9,0.3,1.5,0.3
			c0.8,0,1.4-0.4,1.9-1.8l-4.2-9.3h1.5l3.4,7.8L151,597.1z"/>
		<path fill="#762264" d="M153.6,605.2l0.7-1c1,0.8,2.1,1.2,3.2,1.2c1.1,0,1.9-0.6,1.9-1.5v0c0-0.9-1.1-1.3-2.3-1.6
			c-1.5-0.4-3.1-0.9-3.1-2.6v0c0-1.6,1.3-2.7,3.2-2.7c1.1,0,2.4,0.4,3.4,1l-0.6,1c-0.9-0.6-1.9-0.9-2.8-0.9c-1.1,0-1.8,0.6-1.8,1.4
			v0c0,0.9,1.2,1.2,2.4,1.6c1.4,0.4,3,1,3,2.7v0c0,1.8-1.5,2.8-3.3,2.8C156.1,606.6,154.6,606.1,153.6,605.2z"/>
		<path fill="#762264" d="M175.4,595h-7v-1.3h8.6v1.1l-5.8,11.6h-1.6L175.4,595z"/>
		<path fill="#762264" d="M177,608c0.9-0.3,1.3-0.8,1.2-1.6h-0.7v-1.9h1.7v1.6c0,1.5-0.6,2.2-2,2.5L177,608z"/>
		<path fill="#762264" d="M189.3,595.1l-2.4,0.7l-0.3-1.2l3.1-1.1h1v12.7h-1.4V595.1z"/>
		<path fill="#762264" d="M200.4,603.4h-6.7l-0.4-1l7.2-8.7h1.3v8.6h2v1.2h-2v3h-1.4V603.4z M200.4,602.2v-6.5l-5.3,6.5H200.4z"/>
		<path fill="#762264" d="M205.5,608c0.9-0.3,1.3-0.8,1.2-1.6h-0.7v-1.9h1.7v1.6c0,1.5-0.6,2.2-2,2.5L205.5,608z"/>
		<path fill="#762264" d="M215.4,603.7L215.4,603.7c0-2,1.6-3.1,4-3.1c1.2,0,2,0.2,2.9,0.4v-0.3c0-1.7-1-2.5-2.8-2.5
			c-1.1,0-2,0.3-2.8,0.7l-0.4-1.1c1-0.5,2-0.8,3.4-0.8c1.3,0,2.3,0.3,3,1c0.6,0.6,1,1.5,1,2.7v5.7h-1.3V605
			c-0.7,0.8-1.7,1.6-3.4,1.6C217.1,606.6,215.4,605.6,215.4,603.7z M222.3,603v-0.9c-0.7-0.2-1.6-0.4-2.7-0.4
			c-1.8,0-2.7,0.8-2.7,1.9v0c0,1.2,1.1,1.9,2.4,1.9C220.9,605.5,222.3,604.5,222.3,603z"/>
		<path fill="#762264" d="M226.5,597.1h1.4v1.6c0.6-1,1.6-1.8,3.2-1.8c2.3,0,3.6,1.5,3.6,3.7v5.8h-1.4v-5.5c0-1.7-0.9-2.8-2.6-2.8
			c-1.6,0-2.8,1.2-2.8,2.9v5.4h-1.4V597.1z"/>
		<path fill="#762264" d="M237.1,601.8L237.1,601.8c0-3.1,2.2-4.9,4.5-4.9c1.7,0,2.9,0.9,3.6,2v-5.6h1.4v13.2h-1.4v-1.9
			c-0.8,1.1-1.9,2.1-3.6,2.1C239.4,606.6,237.1,604.8,237.1,601.8z M245.2,601.7L245.2,601.7c0-2.2-1.6-3.6-3.4-3.6
			c-1.8,0-3.3,1.3-3.3,3.6v0c0,2.2,1.5,3.6,3.3,3.6C243.6,605.4,245.2,603.9,245.2,601.7z"/>
		<path fill="#762264" d="M254.4,605.3l4.6-4.1c1.9-1.7,2.6-2.7,2.6-4c0-1.5-1.2-2.4-2.5-2.4c-1.4,0-2.4,0.8-3.4,2.2l-1-0.8
			c1.1-1.7,2.3-2.7,4.6-2.7c2.3,0,3.9,1.5,3.9,3.6v0c0,1.8-1,3-3.2,4.9l-3.4,3h6.7v1.3h-8.8V605.3z"/>
		<path fill="#762264" d="M265.3,603L265.3,603c0-1.5,1.1-2.6,2.6-3.1c-1.2-0.5-2.2-1.4-2.2-2.9v0c0-2,2-3.3,4.3-3.3
			s4.3,1.4,4.3,3.3v0c0,1.5-1,2.4-2.2,2.9c1.5,0.6,2.6,1.6,2.6,3.1v0c0,2.2-2.1,3.6-4.8,3.6C267.4,606.6,265.3,605.1,265.3,603z
			 M273.4,603L273.4,603c0-1.4-1.5-2.4-3.3-2.4s-3.3,1-3.3,2.4v0c0,1.3,1.2,2.4,3.3,2.4C272.2,605.3,273.4,604.3,273.4,603z
			 M273,597L273,597c0-1.3-1.2-2.2-2.9-2.2s-2.9,0.9-2.9,2.2v0c0,1.4,1.3,2.3,2.9,2.3S273,598.4,273,597z"/>
		<path fill="#762264" d="M277.2,604.5h1.7v1.9h-1.7V604.5z"/>
	</g>
	<rect x="515.1" y="143.6" fill="#762264" width="104.9" height="325.9"/>
	<rect x="702.6" y="154.9" fill="#762264" width="104.9" height="314.4"/>
	<g>
		<path fill="#060E9F" d="M735.6,117.9h1.4v1.1l0,0c0.7-0.9,1.4-1.4,2.7-1.4c2.5,0,3.6,2.5,3.6,5.4s-1.1,5.4-3.8,5.4
			c-0.9,0-1.8-0.5-2.5-1.1l0,0v4.7h-1.4V117.9z M739.5,119c-1.6,0-2.5,1.1-2.5,4.1c0,2.9,0.9,4.1,2.5,4.1s2.5-1.4,2.5-4.1
			S741,119,739.5,119z"/>
		<path fill="#060E9F" d="M754.2,128.3l-9.5-4.3v-1.1l9.5-4.3v1.4l-7.7,3.4l7.7,3.4V128.3z"/>
		<path fill="#060E9F" d="M760.3,128.3c-2.9,0-4.5-2.7-4.5-7s1.6-7,4.5-7s4.5,2.7,4.5,7S763.2,128.3,760.3,128.3z M760.3,115.8
			c-1.8,0-2.9,1.8-2.9,5.6s1.1,5.6,2.9,5.6s2.9-1.8,2.9-5.6C763.2,117.7,762.1,115.8,760.3,115.8z"/>
		<path fill="#060E9F" d="M768.6,126.2v1.8h-1.4v-1.8H768.6z"/>
		<path fill="#060E9F" d="M775.9,128.3c-2.9,0-4.5-2.7-4.5-7s1.6-7,4.5-7s4.5,2.7,4.5,7S778.8,128.3,775.9,128.3z M775.9,115.8
			c-1.8,0-2.9,1.8-2.9,5.6s1.1,5.6,2.9,5.6c1.8,0,2.9-1.8,2.9-5.6C778.8,117.7,777.7,115.8,775.9,115.8z"/>
		<path fill="#060E9F" d="M783.5,124.4c0,1.8,1.1,2.7,2.5,2.7c1.8,0,2.7-1.1,2.7-3.6c0-2.3-0.9-3.4-2.5-3.4s-2.3,1.1-2.5,2.5
			l-1.4-0.2l0.7-7.7h6.3v1.1h-5.2l-0.5,4.1l0,0c0.7-0.9,1.4-1.1,2.5-1.1c2.7,0,4.1,2,4.1,4.5c0,2.9-1.4,5-4.5,5
			c-2.3,0-4.1-1.4-4.1-4.1h1.8v0.2H783.5z"/>
	</g>
	<rect x="142.2" y="128.5" fill="#762264" width="104.9" height="340.8"/>
	<polyline fill="none" stroke="#979A9B" points="198.7,136.6 181.5,136.6 190.1,136.6 190.1,120.1 181.5,120.1 198.7,120.1 	"/>
	<rect x="327.5" y="118.1" fill="#762264" width="104.9" height="351.4"/>
	<polyline fill="none" stroke="#979A9B" points="387.1,124.7 370,124.7 378.5,124.7 378.5,108.2 370,108.2 387.1,108.2 	"/>
	<polyline fill="none" stroke="#979A9B" points="575.6,152.2 558.4,152.2 567,152.2 567,134.8 558.4,134.8 575.6,134.8 	"/>
	<polyline fill="none" stroke="#979A9B" points="764.1,163.3 746.9,163.3 755.5,163.3 755.5,146.8 746.9,146.8 764.1,146.8 	"/>
	<g>
		<g>
			<rect x="95.6" y="469.5" fill="none" stroke="#060E9F" stroke-miterlimit="10" width="754.6" height="2"/>
		</g>
		<g>
			<rect x="283.2" y="470.4" fill="#060E9F" width="2" height="12.9"/>
		</g>
		<g>
			<rect x="471.9" y="470.4" fill="#060E9F" width="2" height="12.9"/>
		</g>
		<g>
			<rect x="660.6" y="470.4" fill="#060E9F" width="2" height="12.9"/>
		</g>
		<line fill="none" stroke="#005596" stroke-width="0.918" x1="850.2" y1="470.4" x2="850.2" y2="483.3"/>
		<g>
			
				<rect x="-107.3" y="274.8" transform="matrix(-3.258785e-05 -1 1 -3.258785e-05 -180.3749 371.2327)" fill="none" stroke="#060E9F" stroke-miterlimit="10" width="405.4" height="2"/>
		</g>
		<g>
			<path fill="#060E9F" d="M75.7,477.7c-3.4,0-5-2.9-5-7.5s1.8-7.5,5-7.5s5,2.9,5,7.5S79.1,477.7,75.7,477.7z M75.7,463.9
				c-2,0-3.4,2-3.4,6.1s1.4,6.1,3.4,6.1s3.4-2,3.4-6.1S77.7,463.9,75.7,463.9z"/>
		</g>
		<g>
			<rect x="87.7" y="412.4" fill="#060E9F" width="8.1" height="2"/>
		</g>
		<g>
			<path fill="#060E9F" d="M71.2,420.5v-1.4l5.6-6.1c1.4-1.6,1.6-2.5,1.6-3.4c0-1.4-0.9-2.5-2.7-2.5c-2,0-2.7,1.8-2.7,3.4h-1.8
				c0-2.9,1.6-4.7,4.5-4.7c2.5,0,4.3,1.6,4.3,3.8c0,1.8-0.7,2.9-2.7,5.2l-4.1,4.5h6.6v1.4h-8.6C71.2,420.7,71.2,420.5,71.2,420.5z"
				/>
		</g>
		<g>
			<rect x="87.7" y="355.4" fill="#060E9F" width="8.1" height="2"/>
		</g>
		<g>
			<path fill="#060E9F" d="M70.7,360.2v-1.4l5.6-10.2h2v9.9h2v1.4h-2v3.4h-1.6v-3.4h-6.1L70.7,360.2L70.7,360.2z M76.8,358.8v-7.9
				l0,0l-4.3,7.9H76.8z"/>
		</g>
		<g>
			<rect x="87.7" y="298.5" fill="#060E9F" width="8.1" height="2"/>
		</g>
		<g>
			<path fill="#060E9F" d="M78.6,295.7c-0.2-1.4-0.7-2.7-2.7-2.7c-2.3,0-3.4,2.3-3.4,5.9l0,0c0.7-1.4,1.6-2,3.4-2
				c2.3,0,4.5,1.6,4.5,4.7c0,2.9-1.6,5-4.7,5s-5-2.5-5-6.8c0-5,1.6-8.4,5.2-8.4c2.5,0,4.1,1.8,4.1,4.3H78.6L78.6,295.7z M75.9,305.2
				c2,0,2.9-1.6,2.9-3.4s-0.9-3.4-2.9-3.4s-2.9,1.8-2.9,3.4C73,303.7,73.9,305.2,75.9,305.2z"/>
		</g>
		<g>
			<rect x="87.7" y="241.5" fill="#060E9F" width="8.1" height="2"/>
		</g>
		<g>
			<path fill="#060E9F" d="M70.7,245.1c0-1.8,0.9-3.2,2.7-3.6l0,0c-1.4-0.5-2-1.6-2-2.9c0-2.5,1.8-3.8,4.1-3.8s4.3,1.4,4.3,3.6
				c0,1.6-0.9,2.7-2.3,3.2l0,0c1.8,0.5,2.9,1.8,2.9,3.8c0,2.7-2,4.5-4.7,4.5C73.2,249.9,70.7,248.5,70.7,245.1z M75.7,248.5
				c1.8,0,3.2-1.4,3.2-3.2c0-1.8-1.4-3.2-3.2-3.2c-1.8,0-3.2,1.4-3.2,3.2C72.5,247.2,73.9,248.5,75.7,248.5z M78.2,238.3
				c0-1.6-1.1-2.5-2.5-2.5s-2.5,0.9-2.5,2.5s1.1,2.5,2.5,2.5S78.2,239.9,78.2,238.3z"/>
		</g>
		<g>
			<rect x="87.7" y="184.6" fill="#060E9F" width="8.1" height="2"/>
		</g>
		<g>
			<path fill="#060E9F" d="M61.7,178h3.8v14.5H64v-13.3h-2.3V178z"/>
			<path fill="#060E9F" d="M75.7,192.7c-3.4,0-5-2.9-5-7.5c0-4.5,1.8-7.7,5-7.7s5,2.9,5,7.7C80.7,189.7,79.1,192.7,75.7,192.7z
				 M75.7,179.1c-2,0-3.4,2-3.4,6.1s1.4,6.1,3.4,6.1s3.4-2,3.4-6.1C79.1,181.2,77.7,179.1,75.7,179.1z"/>
		</g>
		<g>
			<rect x="87.7" y="127.6" fill="#060E9F" width="8.1" height="2"/>
		</g>
		<g>
			<path fill="#060E9F" d="M61.7,120.8h3.8v14.7H64v-13.3h-2.3V120.8z"/>
			<path fill="#060E9F" d="M71.2,135.5v-1.3l5.6-6.1c1.4-1.6,1.6-2.5,1.6-3.4c0-1.4-0.9-2.5-2.7-2.5c-2,0-2.7,1.8-2.7,3.4h-1.8
				c0-2.9,1.6-4.7,4.5-4.7c2.5,0,4.3,1.6,4.3,3.8c0,1.8-0.7,2.9-2.7,5.2l-4.1,4.5h6.6v1.4h-8.6C71.2,135.8,71.2,135.5,71.2,135.5z"
				/>
		</g>
		<g>
			<rect x="87.7" y="70.6" fill="#060E9F" width="8.1" height="2"/>
		</g>
		<g>
			<path fill="#060E9F" d="M61.7,63.9h3.8v14.7H64V65.2h-2.3V63.9z"/>
			<path fill="#060E9F" d="M70.7,75.4V74l5.6-10.2h2v9.9h2v1.4h-2v3.4h-1.6v-3.3h-6.1L70.7,75.4L70.7,75.4z M76.8,74v-8.1l0,0
				L72.3,74H76.8z"/>
		</g>
		<g enable-background="new    ">
			<path fill="#060E9F" d="M158.4,482h5.7c1.4,0,2.6,0.4,3.3,1.1c0.6,0.6,0.9,1.2,0.9,2.1v0c0,1.5-0.9,2.3-1.8,2.8
				c1.5,0.5,2.5,1.4,2.5,3.1v0c0,2.3-1.9,3.5-4.7,3.5h-5.9V482z M166,485.6c0-1-0.8-1.6-2.2-1.6h-3.2v3.4h3
				C165.1,487.4,166,486.8,166,485.6L166,485.6z M164.1,489.2h-3.5v3.5h3.7c1.5,0,2.4-0.6,2.4-1.7v0
				C166.7,489.9,165.9,489.2,164.1,489.2z"/>
			<path fill="#060E9F" d="M170.6,491.9L170.6,491.9c0-2.1,1.6-3.1,3.9-3.1c1.1,0,1.8,0.2,2.6,0.4V489c0-1.4-0.8-2.1-2.4-2.1
				c-1.1,0-1.9,0.2-2.7,0.6l-0.6-1.7c1-0.5,2.1-0.8,3.6-0.8c1.4,0,2.5,0.4,3.2,1.1c0.7,0.7,1,1.7,1,2.9v5.7h-2.1v-1.2
				c-0.7,0.8-1.6,1.4-3.1,1.4C172.2,494.9,170.6,493.9,170.6,491.9z M177.1,491.3v-0.7c-0.6-0.2-1.3-0.4-2.2-0.4
				c-1.4,0-2.2,0.6-2.2,1.6v0c0,0.9,0.8,1.4,1.9,1.4C176,493.3,177.1,492.5,177.1,491.3z"/>
			<path fill="#060E9F" d="M181.1,493.4l1-1.5c1,0.8,2.2,1.2,3.1,1.2c0.9,0,1.5-0.4,1.5-1v0c0-0.7-1-1-2.1-1.3c-1.4-0.4-3-1-3-2.8v0
				c0-1.8,1.5-2.9,3.4-2.9c1.2,0,2.5,0.4,3.5,1.1l-0.9,1.6c-0.9-0.6-1.9-0.9-2.7-0.9c-0.9,0-1.3,0.4-1.3,0.9v0c0,0.7,1,1,2.2,1.4
				c1.4,0.4,3,1.1,3,2.8v0c0,2-1.6,3-3.5,3C183.8,494.9,182.3,494.4,181.1,493.4z"/>
			<path fill="#060E9F" d="M190.4,490L190.4,490c0-2.8,1.9-5,4.7-5c3,0,4.6,2.4,4.6,5.1c0,0.2,0,0.4,0,0.6h-7
				c0.2,1.6,1.3,2.4,2.7,2.4c1.1,0,1.8-0.4,2.6-1.1l1.3,1.1c-0.9,1.1-2.2,1.8-3.9,1.8C192.5,494.9,190.4,492.9,190.4,490z
				 M197.4,489.2c-0.1-1.4-1-2.5-2.4-2.5c-1.3,0-2.3,1-2.5,2.5H197.4z"/>
			<path fill="#060E9F" d="M201.9,481.5h2.2v13.2h-2.2V481.5z"/>
			<path fill="#060E9F" d="M207,481.6h2.4v2.1H207V481.6z M207.1,485.1h2.2v9.5h-2.2V485.1z"/>
			<path fill="#060E9F" d="M212.2,485.1h2.2v1.5c0.6-0.9,1.5-1.7,3-1.7c2.2,0,3.4,1.4,3.4,3.7v6.1h-2.2v-5.4c0-1.5-0.7-2.3-2-2.3
				c-1.3,0-2.2,0.9-2.2,2.4v5.4h-2.2V485.1z"/>
			<path fill="#060E9F" d="M222.8,490L222.8,490c0-2.8,1.9-5,4.7-5c3,0,4.6,2.4,4.6,5.1c0,0.2,0,0.4,0,0.6h-7
				c0.2,1.6,1.3,2.4,2.7,2.4c1.1,0,1.8-0.4,2.6-1.1l1.3,1.1c-0.9,1.1-2.2,1.8-3.9,1.8C225,494.9,222.8,492.9,222.8,490z
				 M229.9,489.2c-0.1-1.4-1-2.5-2.4-2.5c-1.3,0-2.3,1-2.5,2.5H229.9z"/>
		</g>
		<g enable-background="new    ">
			<path fill="#060E9F" d="M352.8,482h4.7c4,0,6.7,2.7,6.7,6.3v0c0,3.6-2.7,6.3-6.7,6.3h-4.7V482z M355,484.1v8.6h2.5
				c2.7,0,4.4-1.8,4.4-4.3v0c0-2.5-1.7-4.3-4.4-4.3H355z"/>
			<path fill="#060E9F" d="M366,491.9L366,491.9c0-2.1,1.6-3.1,3.9-3.1c1.1,0,1.8,0.2,2.6,0.4V489c0-1.4-0.8-2.1-2.4-2.1
				c-1.1,0-1.9,0.2-2.7,0.6l-0.6-1.7c1-0.5,2.1-0.8,3.6-0.8c1.4,0,2.5,0.4,3.2,1.1c0.7,0.7,1,1.7,1,2.9v5.7h-2.1v-1.2
				c-0.7,0.8-1.6,1.4-3.1,1.4C367.6,494.9,366,493.9,366,491.9z M372.6,491.3v-0.7c-0.6-0.2-1.3-0.4-2.2-0.4c-1.4,0-2.2,0.6-2.2,1.6
				v0c0,0.9,0.8,1.4,1.9,1.4C371.5,493.3,372.6,492.5,372.6,491.3z"/>
			<path fill="#060E9F" d="M383.5,485.1h2.3L382,495c-0.8,2-1.6,2.7-3.1,2.7c-0.9,0-1.6-0.2-2.3-0.6l0.7-1.6
				c0.4,0.2,0.8,0.4,1.3,0.4c0.6,0,1-0.3,1.4-1.1l-4-9.6h2.4l2.7,7.1L383.5,485.1z"/>
			<path fill="#060E9F" d="M399.3,484H393v-2h8.9v1.7l-5.7,11h-2.5L399.3,484z"/>
		</g>
		<g enable-background="new    ">
			<path fill="#060E9F" d="M540.4,482h4.7c4,0,6.7,2.7,6.7,6.3v0c0,3.6-2.7,6.3-6.7,6.3h-4.7V482z M542.6,484.1v8.6h2.5
				c2.7,0,4.4-1.8,4.4-4.3v0c0-2.5-1.7-4.3-4.4-4.3H542.6z"/>
			<path fill="#060E9F" d="M553.6,491.9L553.6,491.9c0-2.1,1.6-3.1,3.9-3.1c1.1,0,1.8,0.2,2.6,0.4V489c0-1.4-0.8-2.1-2.4-2.1
				c-1.1,0-1.9,0.2-2.7,0.6l-0.6-1.7c1-0.5,2.1-0.8,3.6-0.8c1.4,0,2.5,0.4,3.2,1.1c0.7,0.7,1,1.7,1,2.9v5.7h-2.1v-1.2
				c-0.7,0.8-1.6,1.4-3.1,1.4C555.2,494.9,553.6,493.9,553.6,491.9z M560.2,491.3v-0.7c-0.6-0.2-1.3-0.4-2.2-0.4
				c-1.4,0-2.2,0.6-2.2,1.6v0c0,0.9,0.8,1.4,1.9,1.4C559.1,493.3,560.2,492.5,560.2,491.3z"/>
			<path fill="#060E9F" d="M571.1,485.1h2.3l-3.8,9.8c-0.8,2-1.6,2.7-3.1,2.7c-0.9,0-1.6-0.2-2.3-0.6l0.7-1.6
				c0.4,0.2,0.8,0.4,1.3,0.4c0.6,0,1-0.3,1.4-1.1l-4-9.6h2.4l2.7,7.1L571.1,485.1z"/>
			<path fill="#060E9F" d="M582.5,484.2l-2.3,0.6l-0.5-1.8l3.4-1.1h1.5v12.7h-2.2V484.2z"/>
			<path fill="#060E9F" d="M593.9,491.8h-6.4l-0.4-1.6l7-8.3h1.9v8.1h1.8v1.8h-1.8v2.8h-2.1V491.8z M593.9,490v-5l-4.2,5H593.9z"/>
		</g>
		<g enable-background="new    ">
			<path fill="#060E9F" d="M727.9,482h4.7c4,0,6.7,2.7,6.7,6.3v0c0,3.6-2.7,6.3-6.7,6.3h-4.7V482z M730.2,484.1v8.6h2.5
				c2.7,0,4.4-1.8,4.4-4.3v0c0-2.5-1.7-4.3-4.4-4.3H730.2z"/>
			<path fill="#060E9F" d="M741.2,491.9L741.2,491.9c0-2.1,1.6-3.1,3.9-3.1c1.1,0,1.8,0.2,2.6,0.4V489c0-1.4-0.8-2.1-2.4-2.1
				c-1.1,0-1.9,0.2-2.7,0.6l-0.6-1.7c1-0.5,2.1-0.8,3.6-0.8c1.4,0,2.5,0.4,3.2,1.1c0.7,0.7,1,1.7,1,2.9v5.7h-2.1v-1.2
				c-0.7,0.8-1.6,1.4-3.1,1.4C742.8,494.9,741.2,493.9,741.2,491.9z M747.7,491.3v-0.7c-0.6-0.2-1.3-0.4-2.2-0.4
				c-1.4,0-2.2,0.6-2.2,1.6v0c0,0.9,0.8,1.4,1.9,1.4C746.6,493.3,747.7,492.5,747.7,491.3z"/>
			<path fill="#060E9F" d="M758.7,485.1h2.3l-3.8,9.8c-0.8,2-1.6,2.7-3.1,2.7c-0.9,0-1.6-0.2-2.3-0.6l0.7-1.6
				c0.4,0.2,0.8,0.4,1.3,0.4c0.6,0,1-0.3,1.4-1.1l-4-9.6h2.4l2.7,7.1L758.7,485.1z"/>
			<path fill="#060E9F" d="M767.8,492.9l4.4-3.7c1.7-1.5,2.4-2.3,2.4-3.4c0-1.2-0.9-2-2-2s-2,0.6-2.9,1.9l-1.6-1.2
				c1.2-1.7,2.4-2.6,4.7-2.6c2.5,0,4.2,1.5,4.2,3.8v0c0,2-1,3.1-3.3,4.9l-2.6,2.2h6v2h-9.1V492.9z"/>
			<path fill="#060E9F" d="M778.9,491.2L778.9,491.2c0-1.6,0.8-2.5,2.3-3.1c-1.1-0.6-1.8-1.4-1.8-2.8v0c0-1.9,1.9-3.4,4.4-3.4
				c2.5,0,4.4,1.5,4.4,3.4v0c0,1.4-0.8,2.3-1.8,2.8c1.4,0.6,2.3,1.5,2.3,3v0c0,2.3-2.1,3.7-4.8,3.7S778.9,493.4,778.9,491.2z
				 M786.3,491.1L786.3,491.1c0-1.2-1.2-2-2.7-2c-1.5,0-2.6,0.8-2.6,1.9v0c0,1,1,1.9,2.6,1.9C785.3,493,786.3,492.2,786.3,491.1z
				 M785.9,485.5L785.9,485.5c0-1-0.9-1.8-2.3-1.8c-1.4,0-2.3,0.8-2.3,1.8v0c0,1.1,1,1.9,2.3,1.9S785.9,486.6,785.9,485.5z"/>
		</g>
	</g>
	<g enable-background="new    ">
		<path fill="#060E9F" d="M13.6,370.6v-1.4l6.9-4.6l-6.9-4.6v-1.4h12.7v1.4H16l6.8,4.6v0.1l-6.8,4.6h10.2v1.4H13.6z"/>
		<path fill="#060E9F" d="M21.6,355.7L21.6,355.7c-2.7,0-4.9-1.9-4.9-4.5c0-2.8,2.2-4.4,4.9-4.4c0.2,0,0.3,0,0.5,0v7.4
			c2-0.2,3.2-1.6,3.2-3.3c0-1.3-0.5-2.2-1.3-2.9l0.8-0.9c1,0.9,1.8,2.1,1.8,3.9C26.5,353.6,24.5,355.7,21.6,355.7z M21.1,348.3
			c-1.7,0.1-3.2,1.1-3.2,3c0,1.6,1.4,2.9,3.2,3V348.3z"/>
		<path fill="#060E9F" d="M23.5,345.1L23.5,345.1c-2,0-3.1-1.6-3.1-4c0-1.2,0.2-2,0.4-2.9h-0.3c-1.7,0-2.5,1-2.5,2.8
			c0,1.1,0.3,2,0.7,2.8l-1.1,0.4c-0.5-1-0.8-2-0.8-3.4c0-1.3,0.3-2.3,1-3c0.6-0.6,1.5-1,2.7-1h5.7v1.3h-1.4c0.8,0.7,1.6,1.7,1.6,3.4
			C26.5,343.4,25.5,345.1,23.5,345.1z M22.8,338.3h-0.9c-0.2,0.7-0.4,1.6-0.4,2.7c0,1.8,0.8,2.7,1.9,2.7h0c1.2,0,1.9-1.1,1.9-2.4
			C25.3,339.7,24.3,338.3,22.8,338.3z"/>
		<path fill="#060E9F" d="M16.9,334v-1.4h1.6c-1-0.6-1.8-1.6-1.8-3.2c0-2.3,1.5-3.6,3.7-3.6h5.8v1.4h-5.5c-1.7,0-2.8,0.9-2.8,2.6
			c0,1.6,1.2,2.8,2.9,2.8h5.4v1.4H16.9z"/>
		<path fill="#060E9F" d="M14.9,313.8v4.2h-1.3v-9.9h1.3v4.2h11.3v1.4H14.9z"/>
		<path fill="#060E9F" d="M13.6,305.5v-9.1h1.3v7.7h4.3v-6.9h1.3v6.9H25v-7.8h1.3v9.2H13.6z"/>
		<path fill="#060E9F" d="M13.6,294.3v-1.6l10.5-3.6l-10.6-3.5v-1.2l10.6-3.5l-10.5-3.6v-1.5l12.7,4.5v1.2l-10.3,3.5l10.3,3.5v1.2
			L13.6,294.3z"/>
		<path fill="#060E9F" d="M13.6,273.3v-9.1h1.3v7.7h4.3V265h1.3v6.9H25v-7.8h1.3v9.2H13.6z"/>
		<path fill="#060E9F" d="M13.6,261.2v-1.4h11.3v-7.1h1.3v8.6H13.6z"/>
		<path fill="#060E9F" d="M16.9,245.8v-1.5l7.8-3.1l-7.8-3.2v-1.5l9.4,4.1v1.2L16.9,245.8z"/>
		<path fill="#060E9F" d="M23.5,235.4L23.5,235.4c-2,0-3.1-1.6-3.1-4c0-1.2,0.2-2,0.4-2.9h-0.3c-1.7,0-2.5,1-2.5,2.8
			c0,1.1,0.3,2,0.7,2.8l-1.1,0.4c-0.5-1-0.8-2-0.8-3.4c0-1.3,0.3-2.3,1-3c0.6-0.6,1.5-1,2.7-1h5.7v1.3h-1.4c0.8,0.7,1.6,1.7,1.6,3.4
			C26.5,233.6,25.5,235.4,23.5,235.4z M22.8,228.5h-0.9c-0.2,0.7-0.4,1.6-0.4,2.7c0,1.8,0.8,2.7,1.9,2.7h0c1.2,0,1.9-1.1,1.9-2.4
			C25.3,229.9,24.3,228.5,22.8,228.5z"/>
		<path fill="#060E9F" d="M13.1,224.1v-1.4h13.2v1.4H13.1z"/>
		<path fill="#060E9F" d="M22.7,219.6h-5.8v-1.4h5.5c1.7,0,2.8-0.9,2.8-2.6c0-1.6-1.2-2.8-2.9-2.8h-5.4v-1.4h9.3v1.4h-1.6
			c1,0.6,1.8,1.6,1.8,3.2C26.5,218.3,24.9,219.6,22.7,219.6z"/>
		<path fill="#060E9F" d="M21.6,208.9L21.6,208.9c-2.7,0-4.9-1.9-4.9-4.5c0-2.8,2.2-4.4,4.9-4.4c0.2,0,0.3,0,0.5,0v7.4
			c2-0.2,3.2-1.6,3.2-3.3c0-1.3-0.5-2.2-1.3-2.9l0.8-0.9c1,0.9,1.8,2.1,1.8,3.9C26.5,206.8,24.5,208.9,21.6,208.9z M21.1,201.5
			c-1.7,0.1-3.2,1.1-3.2,3c0,1.6,1.4,2.9,3.2,3V201.5z"/>
	</g>
	<g enable-background="new    ">
		<path fill="#060E9F" d="M4,5.5h3.8l6.3,9.7l6.3-9.7h3.8v20.6h-3.6V11.3L14.1,21H14l-6.4-9.6v14.7H4V5.5z"/>
		<path fill="#060E9F" d="M28.2,18.4L28.2,18.4c0-4.5,3.1-8.1,7.6-8.1c4.9,0,7.4,3.9,7.4,8.3c0,0.3,0,0.6-0.1,1H31.8
			c0.4,2.5,2.2,3.9,4.5,3.9c1.7,0,3-0.6,4.2-1.9l2.1,1.9c-1.5,1.8-3.5,2.9-6.3,2.9C31.7,26.4,28.2,23.2,28.2,18.4z M39.7,17.2
			c-0.2-2.3-1.6-4.1-3.9-4.1c-2.2,0-3.7,1.7-4,4.1H39.7z"/>
		<path fill="#060E9F" d="M45.8,21.6L45.8,21.6c0-3.4,2.6-5.1,6.4-5.1c1.7,0,3,0.3,4.2,0.6v-0.4c0-2.2-1.4-3.4-3.8-3.4
			c-1.7,0-3,0.4-4.4,1l-0.9-2.8c1.7-0.8,3.4-1.3,5.8-1.3c2.3,0,4.1,0.6,5.1,1.7c1.1,1.1,1.7,2.8,1.7,4.8v9.2h-3.5v-1.9
			c-1.1,1.3-2.7,2.3-5.1,2.3C48.4,26.4,45.8,24.7,45.8,21.6z M56.4,20.5v-1.1c-0.9-0.4-2.1-0.6-3.5-0.6c-2.3,0-3.6,1-3.6,2.6v0.1
			c0,1.5,1.3,2.3,3,2.3C54.6,23.8,56.4,22.5,56.4,20.5z"/>
		<path fill="#060E9F" d="M64.1,10.6h3.6V13c1-1.4,2.4-2.7,4.8-2.7c3.5,0,5.5,2.3,5.5,5.9v9.9h-3.6v-8.8c0-2.4-1.2-3.8-3.3-3.8
			c-2.1,0-3.5,1.4-3.5,3.8v8.8h-3.6V10.6z"/>
		<path fill="#060E9F" d="M96.6,8.9h-6.5V5.5h16.7v3.3h-6.5v17.2h-3.6V8.9z"/>
		<path fill="#060E9F" d="M110.6,5.5h15.2v3.2h-11.6v5.3h10.3v3.2h-10.3v5.5h11.8v3.2h-15.4V5.5z"/>
		<path fill="#060E9F" d="M128.7,5.5h3.9l4.9,15.2l5.1-15.3h3.1l5.1,15.3l4.9-15.2h3.8l-7.1,20.7H149L144,11.5l-5.1,14.8h-3.1
			L128.7,5.5z"/>
		<path fill="#060E9F" d="M163,5.5h3.6v17.3h10.8v3.3H163V5.5z"/>
		<path fill="#060E9F" d="M188.1,10.6h3.8l4.2,11.4l4.2-11.4h3.7l-6.3,15.6h-3.2L188.1,10.6z"/>
		<path fill="#060E9F" d="M205.3,21.6L205.3,21.6c0-3.4,2.6-5.1,6.4-5.1c1.7,0,3,0.3,4.2,0.6v-0.4c0-2.2-1.4-3.4-3.8-3.4
			c-1.7,0-3,0.4-4.4,1l-0.9-2.8c1.7-0.8,3.4-1.3,5.8-1.3c2.3,0,4.1,0.6,5.1,1.7c1.1,1.1,1.7,2.8,1.7,4.8v9.2h-3.5v-1.9
			c-1.1,1.3-2.7,2.3-5.1,2.3C207.9,26.4,205.3,24.7,205.3,21.6z M216,20.5v-1.1c-0.9-0.4-2.1-0.6-3.5-0.6c-2.3,0-3.6,1-3.6,2.6v0.1
			c0,1.5,1.3,2.3,3,2.3C214.2,23.8,216,22.5,216,20.5z"/>
		<path fill="#060E9F" d="M223.8,4.6h3.6v21.4h-3.6V4.6z"/>
		<path fill="#060E9F" d="M231.8,20.4v-9.9h3.6v8.8c0,2.4,1.2,3.8,3.3,3.8c2.1,0,3.5-1.4,3.5-3.8v-8.8h3.6v15.5h-3.6v-2.4
			c-1,1.5-2.4,2.7-4.8,2.7C233.9,26.4,231.8,24.1,231.8,20.4z"/>
		<path fill="#060E9F" d="M249.4,18.4L249.4,18.4c0-4.5,3.1-8.1,7.6-8.1c4.9,0,7.4,3.9,7.4,8.3c0,0.3,0,0.6-0.1,1h-11.4
			c0.4,2.5,2.2,3.9,4.5,3.9c1.7,0,3-0.6,4.2-1.9l2.1,1.9c-1.5,1.8-3.5,2.9-6.3,2.9C252.8,26.4,249.4,23.2,249.4,18.4z M260.9,17.2
			c-0.2-2.3-1.6-4.1-3.9-4.1c-2.2,0-3.7,1.7-4,4.1H260.9z"/>
		<path fill="#060E9F" d="M266.7,24.1l1.6-2.4c1.7,1.3,3.5,1.9,5.1,1.9c1.5,0,2.4-0.6,2.4-1.7v-0.1c0-1.2-1.6-1.6-3.5-2.2
			c-2.3-0.6-4.8-1.6-4.8-4.6V15c0-2.9,2.4-4.7,5.5-4.7c1.9,0,4.1,0.7,5.7,1.8l-1.4,2.5c-1.5-0.9-3.1-1.5-4.4-1.5
			c-1.4,0-2.2,0.6-2.2,1.5v0.1c0,1.1,1.7,1.6,3.5,2.2c2.3,0.7,4.8,1.7,4.8,4.5v0.1c0,3.3-2.5,4.9-5.8,4.9
			C271.1,26.4,268.6,25.6,266.7,24.1z"/>
		<path fill="#060E9F" d="M291.1,17.7c0-5.6,2.8-9.6,8.1-12.6l1.6,2.4c-4.2,2.8-6.1,5.8-6.1,10.2c0,4.4,2,7.4,6.1,10.2l-1.6,2.4
			C293.9,27.3,291.1,23.2,291.1,17.7z"/>
		<path fill="#060E9F" d="M303.6,29l1.3-2.7c1.7,1,3.4,1.6,5.5,1.6c3.2,0,4.9-1.6,4.9-4.8V22c-1.3,1.7-2.9,2.8-5.5,2.8
			c-3.6,0-7-2.7-7-7.3v-0.1c0-4.6,3.4-7.3,7-7.3c2.6,0,4.2,1.2,5.4,2.6v-2.3h3.6v12.3c0,2.6-0.7,4.6-2,5.8c-1.4,1.4-3.6,2.1-6.4,2.1
			C307.9,30.8,305.5,30.2,303.6,29z M315.3,17.6L315.3,17.6c0-2.6-2.1-4.3-4.6-4.3s-4.4,1.7-4.4,4.3v0.1c0,2.5,2,4.3,4.4,4.3
			C313.2,21.8,315.3,20.1,315.3,17.6z"/>
		<path fill="#060E9F" d="M333.6,2.6h3.1l-13.3,27.2h-3.1L333.6,2.6z"/>
		<path fill="#060E9F" d="M337.1,10.6h3.6v2.3c1-1.4,2.3-2.7,4.7-2.7c2.2,0,3.8,1.1,4.6,2.7c1.2-1.6,2.9-2.7,5.2-2.7
			c3.4,0,5.4,2.1,5.4,5.9v9.9h-3.6v-8.8c0-2.5-1.1-3.8-3.1-3.8c-1.9,0-3.3,1.4-3.3,3.8v8.8h-3.6v-8.8c0-2.4-1.2-3.8-3.1-3.8
			c-2,0-3.3,1.5-3.3,3.8v8.8h-3.6V10.6z"/>
	</g>
	<g enable-background="new    ">
		<path fill="#060E9F" d="M366.7,14.6l4.1-3.5c1.6-1.4,2.2-2.2,2.2-3.2c0-1.2-0.8-1.9-1.9-1.9s-1.9,0.6-2.8,1.8l-1.5-1.2
			c1.1-1.6,2.3-2.5,4.4-2.5c2.3,0,4,1.4,4,3.6v0c0,1.9-1,2.9-3.1,4.6l-2.5,2.1h5.7v1.9h-8.7V14.6z"/>
	</g>
	<g enable-background="new    ">
		<path fill="#060E9F" d="M388.9,2.6h3.1l-13.3,27.2h-3.1L388.9,2.6z"/>
		<path fill="#060E9F" d="M393.9,4.6h3.6V13c1-1.4,2.4-2.7,4.8-2.7c3.5,0,5.5,2.3,5.5,5.9v9.9h-3.6v-8.8c0-2.4-1.2-3.8-3.3-3.8
			c-2.1,0-3.5,1.4-3.5,3.8v8.8h-3.6V4.6z"/>
		<path fill="#060E9F" d="M411.3,27.8c4.2-2.8,6.1-5.8,6.1-10.2c0-4.4-2-7.4-6.1-10.2l1.6-2.4c5.3,2.9,8.1,7,8.1,12.6
			c0,5.6-2.8,9.6-8.1,12.6L411.3,27.8z"/>
	</g>
	<g enable-background="new    ">
		<path fill="#060E9F" d="M423.7,13L423.7,13c0-1.5,0.8-2.4,2.2-2.9c-1-0.5-1.7-1.3-1.7-2.7v0c0-1.8,1.8-3.2,4.2-3.2
			c2.4,0,4.2,1.4,4.2,3.2v0c0,1.3-0.7,2.1-1.7,2.7c1.3,0.6,2.2,1.5,2.2,2.9v0c0,2.1-2,3.5-4.6,3.5C425.6,16.5,423.7,15.1,423.7,13z
			 M430.8,12.9L430.8,12.9c0-1.1-1.1-1.9-2.5-1.9c-1.4,0-2.5,0.7-2.5,1.8v0c0,1,0.9,1.8,2.5,1.8C429.8,14.7,430.8,13.9,430.8,12.9z
			 M430.4,7.6L430.4,7.6c0-1-0.9-1.7-2.1-1.7c-1.3,0-2.1,0.8-2.1,1.7v0c0,1,0.9,1.8,2.1,1.8C429.5,9.4,430.4,8.6,430.4,7.6z"/>
	</g>
	<g enable-background="new    ">
		<path fill="#060E9F" d="M422,507.8h-4v-2.1h10.3v2.1h-4v10.6H422V507.8z"/>
		<path fill="#060E9F" d="M430,505.3h2.4v2.1H430V505.3z M430.1,508.9h2.2v9.5h-2.2V508.9z"/>
		<path fill="#060E9F" d="M435.1,508.9h2.2v1.4c0.6-0.8,1.4-1.6,2.9-1.6c1.4,0,2.4,0.7,2.9,1.7c0.8-1,1.8-1.7,3.2-1.7
			c2.1,0,3.3,1.3,3.3,3.7v6.1h-2.2V513c0-1.5-0.7-2.3-1.9-2.3c-1.2,0-2,0.8-2,2.4v5.4h-2.2V513c0-1.5-0.7-2.3-1.9-2.3s-2,0.9-2,2.4
			v5.4h-2.2V508.9z"/>
		<path fill="#060E9F" d="M451.8,513.7L451.8,513.7c0-2.8,1.9-5,4.7-5c3,0,4.6,2.4,4.6,5.1c0,0.2,0,0.4,0,0.6h-7
			c0.2,1.6,1.3,2.4,2.7,2.4c1.1,0,1.8-0.4,2.6-1.1l1.3,1.1c-0.9,1.1-2.2,1.8-3.9,1.8C453.9,518.6,451.8,516.6,451.8,513.7z
			 M458.9,513c-0.1-1.4-1-2.5-2.4-2.5c-1.3,0-2.3,1-2.5,2.5H458.9z"/>
		<path fill="#060E9F" d="M468.9,505.8h5c3,0,4.8,1.7,4.8,4.2v0c0,2.8-2.3,4.3-5.1,4.3h-2.5v4.1h-2.2V505.8z M473.7,512.4
			c1.7,0,2.7-0.9,2.7-2.3v0c0-1.5-1.1-2.3-2.7-2.3h-2.6v4.6H473.7z"/>
		<path fill="#060E9F" d="M480.1,513.7L480.1,513.7c0-2.8,2.2-5,5.1-5s5.1,2.2,5.1,5v0c0,2.7-2.2,5-5.1,5
			C482.3,518.6,480.1,516.4,480.1,513.7z M488.1,513.7L488.1,513.7c0-1.7-1.2-3.1-2.9-3.1c-1.8,0-2.9,1.4-2.9,3v0
			c0,1.7,1.2,3.1,2.9,3.1C487,516.7,488.1,515.4,488.1,513.7z"/>
		<path fill="#060E9F" d="M492.6,505.3h2.4v2.1h-2.4V505.3z M492.7,508.9h2.2v9.5h-2.2V508.9z"/>
		<path fill="#060E9F" d="M497.7,508.9h2.2v1.5c0.6-0.9,1.5-1.7,3-1.7c2.2,0,3.4,1.4,3.4,3.7v6.1h-2.2V513c0-1.5-0.7-2.3-2-2.3
			c-1.3,0-2.2,0.9-2.2,2.4v5.4h-2.2V508.9z"/>
		<path fill="#060E9F" d="M509.4,515.8v-5h-1.2v-1.9h1.2v-2.6h2.2v2.6h2.6v1.9h-2.6v4.7c0,0.8,0.4,1.2,1.2,1.2
			c0.5,0,0.9-0.1,1.4-0.3v1.8c-0.5,0.3-1.1,0.5-2,0.5C510.5,518.6,509.4,517.9,509.4,515.8z"/>
	</g>
</g>
<g id="Toggle_Button_-_Acne">
</g>
</svg>
