<?xml version="1.0" encoding="utf-8"?>
<!-- Generator: Adobe Illustrator 17.1.0, SVG Export Plug-In . SVG Version: 6.00 Build 0)  -->
<!DOCTYPE svg PUBLIC "-//W3C//DTD SVG 1.1//EN" "http://www.w3.org/Graphics/SVG/1.1/DTD/svg11.dtd">
<svg version="1.1" id="Layer_1" xmlns="http://www.w3.org/2000/svg" xmlns:xlink="http://www.w3.org/1999/xlink" x="0px" y="0px"
	 width="1024px" height="512px" viewBox="0 0 1024 512" enable-background="new 0 0 1024 512" xml:space="preserve">
<g id="background">
</g>
<g id="Wire_Frame_Template">
</g>
<g id="Modal_Popup_state_1_-Moisturizer">
</g>
<g id="Modal_Popup_state_2_-_Moistuirizer">
</g>
<g id="Modal_popup_state_2_-_Wash">
</g>
<g id="Charts">
	<line fill="none" stroke="#00AEEF" x1="951.6" y1="387.2" x2="96.6" y2="387.2"/>
	<line fill="none" stroke="#00AEEF" x1="96.6" y1="67.3" x2="96.6" y2="387.2"/>
	<line fill="none" stroke="#00AEEF" x1="109.3" y1="323.7" x2="96.6" y2="323.7"/>
	<line fill="none" stroke="#00AEEF" x1="109.3" y1="259.5" x2="96.6" y2="259.5"/>
	<line fill="none" stroke="#00AEEF" x1="109.3" y1="195.2" x2="96.6" y2="195.2"/>
	<line fill="none" stroke="#00AEEF" x1="109.3" y1="129.6" x2="96.6" y2="129.6"/>
	<line fill="none" stroke="#00AEEF" x1="238" y1="378.7" x2="238" y2="400.9"/>
	<line fill="none" stroke="#00AEEF" x1="524.2" y1="378.7" x2="524.2" y2="400.9"/>
	<line fill="none" stroke="#00AEEF" x1="813.6" y1="378.7" x2="813.6" y2="400.9"/>
	<line fill="none" stroke="#00AEEF" stroke-dasharray="4" x1="524.2" y1="172.6" x2="524.2" y2="364"/>
	<line fill="none" stroke="#00AEEF" stroke-dasharray="4" x1="524.2" y1="71.8" x2="524.2" y2="133.7"/>
	<line fill="none" stroke="#00AEEF" stroke-dasharray="4" x1="813.6" y1="182.7" x2="813.6" y2="364"/>
	<line fill="none" stroke="#00AEEF" stroke-dasharray="4" x1="238" y1="144.8" x2="238" y2="364"/>
	<line fill="none" stroke="#00AEEF" stroke-dasharray="4" x1="238" y1="71.8" x2="238" y2="108.9"/>
	<g enable-background="new    ">
		<path fill="#00AEEF" d="M26.6,317.3v-1.5l10.1-3.5l-10.1-3.3v-1.1l10.1-3.3l-10.1-3.5v-1.4l12.2,4.3v1.2l-9.8,3.3l9.8,3.3v1.1
			L26.6,317.3z"/>
		<path fill="#00AEEF" d="M36.1,299.4L36.1,299.4c-1.9,0-2.9-1.6-2.9-3.8c0-1.1,0.2-2,0.4-2.7h-0.3c-1.6,0-2.4,1-2.4,2.7
			c0,1.1,0.3,1.9,0.7,2.7l-1.1,0.4c-0.4-1-0.7-2-0.7-3.2c0-1.3,0.3-2.2,1-2.9c0.6-0.6,1.5-0.9,2.6-0.9h5.5v1.3h-1.3
			c0.8,0.6,1.5,1.7,1.5,3.2C38.9,297.7,37.9,299.4,36.1,299.4z M35.4,292.8h-0.9c-0.2,0.7-0.4,1.5-0.4,2.6c0,1.7,0.7,2.6,1.8,2.6h0
			c1.1,0,1.8-1,1.8-2.2C37.8,294.1,36.8,292.8,35.4,292.8z"/>
		<path fill="#00AEEF" d="M36.3,288.3h-5.4v1.2h-1.2v-1.2H27V287h2.7v-2.8h1.2v2.8h5.2c1.1,0,1.5-0.6,1.5-1.5c0-0.4-0.1-0.8-0.3-1.3
			h1.1c0.2,0.5,0.4,1,0.4,1.6C38.8,287.2,38.1,288.3,36.3,288.3z"/>
		<path fill="#00AEEF" d="M34.2,282.6L34.2,282.6c-2.6,0-4.7-1.8-4.7-4.3c0-2.6,2.1-4.2,4.7-4.2c0.2,0,0.3,0,0.4,0v7.1
			c1.9-0.2,3-1.6,3-3.1c0-1.2-0.5-2.1-1.3-2.8l0.7-0.8c1,0.9,1.7,2,1.7,3.7C38.9,280.6,37,282.6,34.2,282.6z M33.7,275.5
			c-1.6,0.1-3,1.1-3,2.9c0,1.6,1.3,2.7,3,2.9V275.5z"/>
		<path fill="#00AEEF" d="M29.7,271.8v-1.3h2.3c-1.5-0.7-2.6-2-2.5-3.6H31v0.1c0,2,1.4,3.5,4.1,3.5h3.6v1.3H29.7z"/>
		<path fill="#00AEEF" d="M26.1,259.5v-1.3h12.6v1.3H26.1z"/>
		<path fill="#00AEEF" d="M34.2,255.6L34.2,255.6c-2.6,0-4.7-2-4.7-4.7c0-2.7,2.1-4.7,4.6-4.7h0c2.5,0,4.7,2,4.7,4.7
			C38.9,253.6,36.8,255.6,34.2,255.6z M34.2,247.6L34.2,247.6c-2,0-3.5,1.4-3.5,3.3c0,1.9,1.6,3.3,3.5,3.3h0c1.9,0,3.5-1.4,3.5-3.3
			C37.7,249,36.1,247.6,34.2,247.6z"/>
		<path fill="#00AEEF" d="M37.5,244.6l-1-0.7c0.7-1,1.1-2,1.1-3.1c0-1.1-0.6-1.8-1.4-1.8h0c-0.9,0-1.2,1.1-1.6,2.2
			c-0.4,1.4-0.9,3-2.5,3h0c-1.5,0-2.6-1.3-2.6-3c0-1.1,0.4-2.3,1-3.2l1,0.6c-0.5,0.8-0.9,1.8-0.9,2.6c0,1.1,0.6,1.7,1.3,1.7h0
			c0.8,0,1.2-1.1,1.5-2.3c0.4-1.4,1-2.9,2.6-2.9h0c1.7,0,2.7,1.4,2.7,3.2C38.8,242.2,38.3,243.6,37.5,244.6z"/>
		<path fill="#00AEEF" d="M37.5,236.2l-1-0.7c0.7-1,1.1-2,1.1-3.1c0-1.1-0.6-1.8-1.4-1.8h0c-0.9,0-1.2,1.1-1.6,2.2
			c-0.4,1.4-0.9,3-2.5,3h0c-1.5,0-2.6-1.3-2.6-3c0-1.1,0.4-2.3,1-3.2l1,0.6c-0.5,0.8-0.9,1.8-0.9,2.6c0,1.1,0.6,1.7,1.3,1.7h0
			c0.8,0,1.2-1.1,1.5-2.3c0.4-1.4,1-2.9,2.6-2.9h0c1.7,0,2.7,1.4,2.7,3.2C38.8,233.8,38.3,235.2,37.5,236.2z"/>
		<path fill="#00AEEF" d="M33.7,221.9c-3.2,0-5.7-1.7-7.4-4.8l0.9-0.6c1.7,2.6,3.8,4,6.5,4c2.8,0,4.8-1.4,6.5-4l0.9,0.6
			C39.4,220.2,36.9,221.9,33.7,221.9z"/>
		<path fill="#00AEEF" d="M40.2,214.8l-1-0.6c0.7-1,1.1-2.2,1.1-3.4c0-2-1.1-3.2-3.2-3.2h-1.1c1,0.8,1.9,1.9,1.9,3.5
			c0,2.1-1.6,4.2-4.2,4.2h0c-2.6,0-4.2-2.1-4.2-4.2c0-1.7,0.8-2.8,1.8-3.5h-1.6v-1.3h7.4c1.4,0,2.4,0.4,3.2,1.1
			c0.8,0.8,1.2,2,1.2,3.4C41.5,212.2,41.1,213.6,40.2,214.8z M33.8,207.4L33.8,207.4c-1.9,0-3.1,1.6-3.1,3.3c0,1.7,1.2,3.1,3,3.1h0
			c1.8,0,3-1.4,3-3.1C36.8,209,35.6,207.4,33.8,207.4z"/>
		<path fill="#00AEEF" d="M24.9,197v-1.2l16,8v1.2L24.9,197z"/>
		<path fill="#00AEEF" d="M29.7,195.2v-1.3h1.5c-0.9-0.6-1.7-1.4-1.7-2.9c0-1.5,0.8-2.4,1.8-2.9c-1-0.6-1.8-1.6-1.8-3.1
			c0-2.1,1.4-3.3,3.6-3.3h5.5v1.3h-5.2c-1.7,0-2.7,0.9-2.7,2.3c0,1.3,1,2.5,2.8,2.5h5.2v1.3h-5.3c-1.7,0-2.7,0.9-2.7,2.3
			c0,1.4,1.2,2.5,2.8,2.5h5.1v1.3H29.7z"/>
		<path fill="#00AEEF" d="M32.3,179.8l-2.3-2.6c-1-1.1-1.5-1.5-2.2-1.5c-0.8,0-1.4,0.7-1.4,1.4c0,0.8,0.4,1.3,1.2,1.9l-0.4,0.6
			c-0.9-0.6-1.5-1.3-1.5-2.5c0-1.3,0.8-2.2,2-2.2h0c1,0,1.7,0.5,2.7,1.8l1.7,1.9v-3.7h0.7v4.9H32.3z"/>
		<path fill="#00AEEF" d="M24.9,166.6v-1.2l16,8v1.2L24.9,166.6z"/>
		<path fill="#00AEEF" d="M26.1,164v-1.3h5.2c-1-0.6-1.7-1.5-1.7-3.1c0-2.2,1.5-3.4,3.6-3.4h5.5v1.3h-5.2c-1.7,0-2.7,0.9-2.7,2.5
			c0,1.5,1.1,2.7,2.8,2.7h5.1v1.3H26.1z"/>
		<path fill="#00AEEF" d="M40.2,153.8c-1.7-2.6-3.8-4-6.5-4c-2.8,0-4.8,1.4-6.5,4l-0.9-0.6c1.7-3.1,4.2-4.8,7.4-4.8
			c3.2,0,5.7,1.7,7.4,4.8L40.2,153.8z"/>
	</g>
	<g enable-background="new    ">
		<path fill="#00AEEF" d="M75.2,384.4L75.2,384.4c0-3.9,2.4-7,5.9-7c3.5,0,5.9,3.1,5.9,6.9v0c0,3.9-2.4,7-5.9,7
			S75.2,388.2,75.2,384.4z M84.5,384.4L84.5,384.4c0-2.7-1.4-4.9-3.5-4.9s-3.4,2.1-3.4,4.8v0c0,2.7,1.4,4.8,3.5,4.8
			C83.2,389.2,84.5,387,84.5,384.4z"/>
	</g>
	<g enable-background="new    ">
		<path fill="#00AEEF" d="M77.2,326.2l4.6-4c1.9-1.6,2.5-2.4,2.5-3.6c0-1.3-0.9-2.1-2.2-2.1s-2.1,0.7-3.1,2l-1.7-1.3
			c1.3-1.8,2.6-2.8,5-2.8c2.6,0,4.5,1.6,4.5,4v0c0,2.1-1.1,3.3-3.5,5.2l-2.8,2.3h6.4v2.1h-9.8V326.2z"/>
	</g>
	<g enable-background="new    ">
		<path fill="#00AEEF" d="M82.8,262H76l-0.4-1.7l7.5-8.9h2v8.6H87v1.9h-1.9v3h-2.3V262z M82.8,260v-5.3l-4.4,5.3H82.8z"/>
	</g>
	<g enable-background="new    ">
		<path fill="#00AEEF" d="M78.1,199.5c-1-1-1.6-2.4-1.6-5.2v0c0-4.1,2-7.3,5.8-7.3c1.8,0,3,0.6,4.1,1.5l-1.3,1.8
			c-0.9-0.7-1.7-1.2-2.9-1.2c-2.4,0-3.2,2.4-3.2,4.3c0.8-0.8,1.8-1.4,3.2-1.4c2.6,0,4.7,1.5,4.7,4.2v0c0,2.7-2.2,4.6-5,4.6
			C80.2,200.9,79,200.4,78.1,199.5z M84.5,196.4L84.5,196.4c0-1.4-1.1-2.4-2.8-2.4c-1.7,0-2.7,1.1-2.7,2.4v0c0,1.4,1.1,2.4,2.8,2.4
			S84.5,197.8,84.5,196.4z"/>
	</g>
	<g enable-background="new    ">
		<path fill="#00AEEF" d="M76.8,132.7L76.8,132.7c0-1.7,0.9-2.7,2.4-3.3c-1.1-0.6-2-1.5-2-3v0c0-2.1,2-3.6,4.7-3.6s4.7,1.6,4.7,3.6
			v0c0,1.5-0.8,2.4-2,3c1.5,0.7,2.4,1.6,2.4,3.2v0c0,2.4-2.2,3.9-5.1,3.9S76.8,135,76.8,132.7z M84.8,132.6L84.8,132.6
			c0-1.3-1.2-2.1-2.8-2.1s-2.8,0.8-2.8,2v0c0,1.1,1,2,2.8,2S84.8,133.7,84.8,132.6z M84.4,126.6L84.4,126.6c0-1.1-1-1.9-2.4-1.9
			s-2.4,0.8-2.4,1.9v0c0,1.2,1,2,2.4,2S84.4,127.8,84.4,126.6z"/>
	</g>
	<g enable-background="new    ">
		<path fill="#00AEEF" d="M69.9,60.9l-2.4,0.7l-0.5-1.9l3.6-1.2h1.6v13.6h-2.4V60.9z"/>
		<path fill="#00AEEF" d="M75.2,65.4L75.2,65.4c0-3.9,2.4-7,5.9-7c3.5,0,5.9,3.1,5.9,6.9v0c0,3.9-2.4,7-5.9,7S75.2,69.2,75.2,65.4z
			 M84.5,65.4L84.5,65.4c0-2.7-1.4-4.9-3.5-4.9s-3.4,2.1-3.4,4.8v0c0,2.7,1.4,4.8,3.5,4.8C83.2,70.2,84.5,68,84.5,65.4z"/>
	</g>
	<g enable-background="new    ">
		<path fill="#00AEEF" d="M198.6,407.8h6.1c1.5,0,2.8,0.4,3.5,1.2c0.6,0.6,0.9,1.3,0.9,2.2v0c0,1.6-0.9,2.5-1.9,3
			c1.6,0.5,2.7,1.4,2.7,3.3v0c0,2.4-2,3.7-5,3.7h-6.2V407.8z M206.7,411.6c0-1.1-0.8-1.7-2.4-1.7H201v3.6h3.2
			C205.7,413.5,206.7,412.9,206.7,411.6L206.7,411.6z M204.7,415.5H201v3.7h3.9c1.6,0,2.6-0.6,2.6-1.9v0
			C207.5,416.2,206.6,415.5,204.7,415.5z"/>
		<path fill="#00AEEF" d="M211.6,418.4L211.6,418.4c0-2.2,1.7-3.3,4.2-3.3c1.1,0,1.9,0.2,2.7,0.4v-0.3c0-1.4-0.9-2.2-2.5-2.2
			c-1.1,0-2,0.2-2.9,0.6l-0.6-1.8c1.1-0.5,2.2-0.8,3.8-0.8c1.5,0,2.7,0.4,3.4,1.1c0.8,0.7,1.1,1.8,1.1,3.1v6h-2.3V420
			c-0.7,0.8-1.8,1.5-3.3,1.5C213.3,421.5,211.6,420.4,211.6,418.4z M218.6,417.6v-0.7c-0.6-0.2-1.4-0.4-2.3-0.4
			c-1.5,0-2.4,0.6-2.4,1.7v0c0,1,0.9,1.5,2,1.5C217.4,419.8,218.6,418.9,218.6,417.6z"/>
		<path fill="#00AEEF" d="M222.8,420l1-1.6c1.1,0.8,2.3,1.3,3.3,1.3c1,0,1.6-0.4,1.6-1.1v0c0-0.8-1.1-1.1-2.3-1.4
			c-1.5-0.4-3.2-1-3.2-3v0c0-1.9,1.6-3.1,3.6-3.1c1.3,0,2.7,0.4,3.7,1.2l-0.9,1.7c-1-0.6-2-1-2.9-1c-0.9,0-1.4,0.4-1.4,1v0
			c0,0.8,1.1,1.1,2.3,1.4c1.5,0.5,3.2,1.1,3.2,3v0c0,2.1-1.7,3.2-3.8,3.2C225.7,421.5,224,421,222.8,420z"/>
		<path fill="#00AEEF" d="M232.7,416.2L232.7,416.2c0-3,2.1-5.3,5-5.3c3.2,0,4.9,2.5,4.9,5.5c0,0.2,0,0.4,0,0.7H235
			c0.3,1.7,1.4,2.6,2.9,2.6c1.1,0,1.9-0.4,2.8-1.2l1.4,1.2c-1,1.2-2.3,1.9-4.2,1.9C235,421.5,232.7,419.4,232.7,416.2z M240.3,415.5
			c-0.2-1.5-1-2.7-2.6-2.7c-1.4,0-2.4,1.1-2.6,2.7H240.3z"/>
		<path fill="#00AEEF" d="M245.1,407.2h2.3v14.1h-2.3V407.2z"/>
		<path fill="#00AEEF" d="M250.5,407.3h2.5v2.2h-2.5V407.3z M250.6,411.1h2.3v10.2h-2.3V411.1z"/>
		<path fill="#00AEEF" d="M256,411.1h2.3v1.6c0.7-0.9,1.6-1.8,3.2-1.8c2.3,0,3.6,1.5,3.6,3.9v6.5h-2.3v-5.8c0-1.6-0.8-2.5-2.2-2.5
			c-1.4,0-2.3,0.9-2.3,2.5v5.7H256V411.1z"/>
		<path fill="#00AEEF" d="M267.4,416.2L267.4,416.2c0-3,2.1-5.3,5-5.3c3.2,0,4.9,2.5,4.9,5.5c0,0.2,0,0.4,0,0.7h-7.5
			c0.3,1.7,1.4,2.6,2.9,2.6c1.1,0,1.9-0.4,2.8-1.2l1.4,1.2c-1,1.2-2.3,1.9-4.2,1.9C269.6,421.5,267.4,419.4,267.4,416.2z
			 M274.9,415.5c-0.2-1.5-1-2.7-2.6-2.7c-1.4,0-2.4,1.1-2.6,2.7H274.9z"/>
	</g>
	<g enable-background="new    ">
		<path fill="#00AEEF" d="M204.2,436.3c0-3.6,1.8-6.3,5.3-8.3l1,1.6c-2.7,1.8-4,3.8-4,6.7c0,2.9,1.3,4.9,4,6.7l-1,1.6
			C206,442.7,204.2,440,204.2,436.3z"/>
		<path fill="#00AEEF" d="M213.2,428.4h2.2l7.2,9.3v-9.3h2.3v13.5h-2l-7.4-9.6v9.6h-2.3V428.4z"/>
		<path fill="#00AEEF" d="M228.2,431.6h9.3v2.2h-9.3V431.6z M228.2,436.4h9.3v2.2h-9.3V436.4z"/>
		<path fill="#00AEEF" d="M239.8,440l1.5-1.7c1.1,1,2.2,1.6,3.5,1.6c1.6,0,2.7-0.9,2.7-2.3v0c0-1.4-1.2-2.2-2.8-2.2
			c-1,0-1.8,0.3-2.5,0.6l-1.4-0.9l0.4-6.6h8.1v2.1h-6l-0.2,3.2c0.6-0.2,1.2-0.4,2.1-0.4c2.6,0,4.7,1.4,4.7,4.2v0c0,2.8-2,4.6-5,4.6
			C242.7,442.1,241.1,441.3,239.8,440z"/>
		<path fill="#00AEEF" d="M253.7,440.7c-1-1-1.6-2.4-1.6-5.2v0c0-4.1,2-7.3,5.8-7.3c1.8,0,3,0.6,4.1,1.5l-1.3,1.8
			c-0.9-0.7-1.7-1.2-2.9-1.2c-2.4,0-3.2,2.4-3.2,4.3c0.8-0.8,1.8-1.4,3.2-1.4c2.6,0,4.7,1.5,4.7,4.2v0c0,2.7-2.2,4.6-5,4.6
			C255.8,442.1,254.6,441.6,253.7,440.7z M260.1,437.6L260.1,437.6c0-1.4-1.1-2.4-2.8-2.4c-1.7,0-2.7,1.1-2.7,2.4v0
			c0,1.4,1.1,2.4,2.8,2.4S260.1,439,260.1,437.6z"/>
		<path fill="#00AEEF" d="M264.5,443c2.7-1.8,4-3.8,4-6.7c0-2.9-1.3-4.9-4-6.7l1-1.6c3.5,1.9,5.3,4.6,5.3,8.3c0,3.6-1.8,6.3-5.3,8.3
			L264.5,443z"/>
	</g>
	<g enable-background="new    ">
		<path fill="#00AEEF" d="M484.3,407.8h2.6l3.2,10l3.3-10h2l3.3,10l3.2-10h2.5l-4.7,13.6h-2.1l-3.3-9.7l-3.3,9.7h-2L484.3,407.8z"/>
		<path fill="#00AEEF" d="M504.8,416.2L504.8,416.2c0-3,2.1-5.3,5-5.3c3.2,0,4.9,2.5,4.9,5.5c0,0.2,0,0.4,0,0.7h-7.5
			c0.3,1.7,1.4,2.6,2.9,2.6c1.1,0,1.9-0.4,2.8-1.2l1.4,1.2c-1,1.2-2.3,1.9-4.2,1.9C507.1,421.5,504.8,419.4,504.8,416.2z
			 M512.4,415.5c-0.2-1.5-1-2.7-2.6-2.7c-1.4,0-2.4,1.1-2.6,2.7H512.4z"/>
		<path fill="#00AEEF" d="M516.5,416.2L516.5,416.2c0-3,2.1-5.3,5-5.3c3.2,0,4.9,2.5,4.9,5.5c0,0.2,0,0.4,0,0.7h-7.5
			c0.3,1.7,1.4,2.6,2.9,2.6c1.1,0,1.9-0.4,2.8-1.2l1.4,1.2c-1,1.2-2.3,1.9-4.2,1.9C518.7,421.5,516.5,419.4,516.5,416.2z M524,415.5
			c-0.2-1.5-1-2.7-2.6-2.7c-1.4,0-2.4,1.1-2.6,2.7H524z"/>
		<path fill="#00AEEF" d="M528.7,407.2h2.3v8.4l4.2-4.5h2.8l-4,4.1l4.2,6h-2.7l-3-4.4l-1.4,1.5v2.9h-2.3V407.2z"/>
		<path fill="#00AEEF" d="M545.2,419.4l4.6-4c1.9-1.6,2.5-2.4,2.5-3.6c0-1.3-0.9-2.1-2.2-2.1s-2.1,0.7-3.1,2l-1.7-1.3
			c1.3-1.8,2.6-2.8,5-2.8c2.6,0,4.5,1.6,4.5,4v0c0,2.1-1.1,3.3-3.5,5.2l-2.8,2.3h6.4v2.1h-9.8V419.4z"/>
	</g>
	<g enable-background="new    ">
		<path fill="#00AEEF" d="M491.3,436.3c0-3.6,1.8-6.3,5.3-8.3l1,1.6c-2.7,1.8-4,3.8-4,6.7c0,2.9,1.3,4.9,4,6.7l-1,1.6
			C493.1,442.7,491.3,440,491.3,436.3z"/>
		<path fill="#00AEEF" d="M500.1,431.7h2.3v1.6c0.7-0.9,1.6-1.8,3.2-1.8c2.3,0,3.6,1.5,3.6,3.9v6.5h-2.3v-5.8c0-1.6-0.8-2.5-2.2-2.5
			c-1.4,0-2.3,0.9-2.3,2.5v5.7h-2.3V431.7z"/>
		<path fill="#00AEEF" d="M512,431.6h9.3v2.2H512V431.6z M512,436.4h9.3v2.2H512V436.4z"/>
		<path fill="#00AEEF" d="M523.7,440l1.5-1.7c1.1,1,2.2,1.6,3.5,1.6c1.6,0,2.7-0.9,2.7-2.3v0c0-1.4-1.2-2.2-2.8-2.2
			c-1,0-1.8,0.3-2.5,0.6l-1.4-0.9l0.4-6.6h8.1v2.1h-6l-0.2,3.2c0.6-0.2,1.2-0.4,2.1-0.4c2.6,0,4.7,1.4,4.7,4.2v0c0,2.8-2,4.6-5,4.6
			C526.6,442.1,525,441.3,523.7,440z"/>
		<path fill="#00AEEF" d="M538.2,430.7l-2.4,0.7l-0.5-1.9l3.6-1.2h1.6v13.6h-2.4V430.7z"/>
		<path fill="#00AEEF" d="M543.4,443c2.7-1.8,4-3.8,4-6.7c0-2.9-1.3-4.9-4-6.7l1-1.6c3.5,1.9,5.3,4.6,5.3,8.3c0,3.6-1.8,6.3-5.3,8.3
			L543.4,443z"/>
	</g>
	<g enable-background="new    ">
		<path fill="#00AEEF" d="M778.2,407.8h2.6l3.2,10l3.3-10h2l3.3,10l3.2-10h2.5l-4.7,13.6h-2.1l-3.3-9.7l-3.3,9.7h-2L778.2,407.8z"/>
		<path fill="#00AEEF" d="M798.7,416.2L798.7,416.2c0-3,2.1-5.3,5-5.3c3.2,0,4.9,2.5,4.9,5.5c0,0.2,0,0.4,0,0.7H801
			c0.3,1.7,1.4,2.6,2.9,2.6c1.1,0,1.9-0.4,2.8-1.2l1.4,1.2c-1,1.2-2.3,1.9-4.2,1.9C801,421.5,798.7,419.4,798.7,416.2z M806.2,415.5
			c-0.2-1.5-1-2.7-2.6-2.7c-1.4,0-2.4,1.1-2.6,2.7H806.2z"/>
		<path fill="#00AEEF" d="M810.3,416.2L810.3,416.2c0-3,2.1-5.3,5-5.3c3.2,0,4.9,2.5,4.9,5.5c0,0.2,0,0.4,0,0.7h-7.5
			c0.3,1.7,1.4,2.6,2.9,2.6c1.1,0,1.9-0.4,2.8-1.2l1.4,1.2c-1,1.2-2.3,1.9-4.2,1.9C812.6,421.5,810.3,419.4,810.3,416.2z
			 M817.9,415.5c-0.2-1.5-1-2.7-2.6-2.7c-1.4,0-2.4,1.1-2.6,2.7H817.9z"/>
		<path fill="#00AEEF" d="M822.6,407.2h2.3v8.4l4.2-4.5h2.8l-4,4.1l4.2,6h-2.7l-3-4.4l-1.4,1.5v2.9h-2.3V407.2z"/>
		<path fill="#00AEEF" d="M846,418.3h-6.8l-0.4-1.7l7.5-8.9h2v8.6h1.9v1.9h-1.9v3H846V418.3z M846,416.3V411l-4.4,5.3H846z"/>
	</g>
	<g enable-background="new    ">
		<path fill="#00AEEF" d="M783.6,436.3c0-3.6,1.8-6.3,5.3-8.3l1,1.6c-2.7,1.8-4,3.8-4,6.7c0,2.9,1.3,4.9,4,6.7l-1,1.6
			C785.4,442.7,783.6,440,783.6,436.3z"/>
		<path fill="#00AEEF" d="M792.3,431.7h2.3v1.6c0.7-0.9,1.6-1.8,3.2-1.8c2.3,0,3.6,1.5,3.6,3.9v6.5h-2.3v-5.8c0-1.6-0.8-2.5-2.2-2.5
			c-1.3,0-2.3,0.9-2.3,2.5v5.7h-2.3V431.7z"/>
		<path fill="#00AEEF" d="M804.3,431.6h9.3v2.2h-9.3V431.6z M804.3,436.4h9.3v2.2h-9.3V436.4z"/>
		<path fill="#00AEEF" d="M816,440l1.5-1.7c1.1,1,2.2,1.6,3.5,1.6c1.6,0,2.7-0.9,2.7-2.3v0c0-1.4-1.2-2.2-2.8-2.2
			c-1,0-1.8,0.3-2.5,0.6l-1.4-0.9l0.4-6.6h8.1v2.1h-6l-0.2,3.2c0.6-0.2,1.2-0.4,2.1-0.4c2.6,0,4.7,1.4,4.7,4.2v0c0,2.8-2,4.6-5,4.6
			C818.8,442.1,817.2,441.3,816,440z"/>
		<path fill="#00AEEF" d="M827.8,439.7l1.7-1.5c1,1.1,2,1.8,3.5,1.8c1.3,0,2.3-0.8,2.3-2v0c0-1.3-1.2-2.1-3.1-2.1h-1.1l-0.4-1.5
			l3.6-3.9h-5.8v-2.1h8.9v1.8l-3.8,3.9c2,0.3,4,1.3,4,3.8v0c0,2.5-1.9,4.3-4.7,4.3C830.6,442.1,828.9,441.1,827.8,439.7z"/>
		<path fill="#00AEEF" d="M839.8,443c2.7-1.8,4-3.8,4-6.7c0-2.9-1.3-4.9-4-6.7l1-1.6c3.5,1.9,5.3,4.6,5.3,8.3c0,3.6-1.8,6.3-5.3,8.3
			L839.8,443z"/>
	</g>
	<g enable-background="new    ">
		<path fill="#0075C9" d="M110.4,73.1h2.4v11.3h7.1v2.2h-9.5V73.1z"/>
		<path fill="#0075C9" d="M121.3,81.5L121.3,81.5c0-3,2.3-5.4,5.4-5.4c3.1,0,5.4,2.4,5.4,5.3v0c0,2.9-2.3,5.3-5.5,5.3
			C123.6,86.8,121.3,84.4,121.3,81.5z M129.8,81.5L129.8,81.5c0-1.8-1.3-3.3-3.1-3.3c-1.9,0-3.1,1.5-3.1,3.2v0
			c0,1.8,1.3,3.3,3.1,3.3C128.6,84.7,129.8,83.3,129.8,81.5z"/>
		<path fill="#0075C9" d="M133.2,76.4h2.4l2,7l2.3-7h2l2.3,7l2.1-7h2.4l-3.3,10.3h-2.1l-2.3-7l-2.3,7h-2.1L133.2,76.4z"/>
		<path fill="#0075C9" d="M149.6,81.5L149.6,81.5c0-3,2.1-5.3,5-5.3c3.2,0,4.9,2.5,4.9,5.5c0,0.2,0,0.4,0,0.7H152
			c0.3,1.7,1.4,2.6,2.9,2.6c1.1,0,1.9-0.4,2.8-1.2l1.4,1.2c-1,1.2-2.3,1.9-4.2,1.9C151.9,86.8,149.6,84.6,149.6,81.5z M157.2,80.8
			c-0.2-1.5-1-2.7-2.6-2.7c-1.4,0-2.4,1.1-2.6,2.7H157.2z"/>
		<path fill="#0075C9" d="M161.8,76.4h2.3v2.3c0.6-1.5,1.8-2.6,3.6-2.5v2.5h-0.1c-2,0-3.5,1.3-3.5,4v3.9h-2.3V76.4z"/>
		<path fill="#0075C9" d="M175.9,73.1h2.4v11.3h7.1v2.2h-9.5V73.1z"/>
		<path fill="#0075C9" d="M186.8,81.5L186.8,81.5c0-3,2.1-5.3,5-5.3c3.2,0,4.9,2.5,4.9,5.5c0,0.2,0,0.4,0,0.7h-7.5
			c0.3,1.7,1.4,2.6,2.9,2.6c1.1,0,1.9-0.4,2.8-1.2l1.4,1.2c-1,1.2-2.3,1.9-4.2,1.9C189.1,86.8,186.8,84.6,186.8,81.5z M194.3,80.8
			c-0.2-1.5-1-2.7-2.6-2.7c-1.4,0-2.4,1.1-2.6,2.7H194.3z"/>
		<path fill="#0075C9" d="M199,88.5l0.9-1.8c1.1,0.7,2.2,1.1,3.6,1.1c2.1,0,3.2-1.1,3.2-3.1v-0.8c-0.8,1.1-1.9,1.9-3.6,1.9
			c-2.4,0-4.6-1.8-4.6-4.8v0c0-3,2.3-4.8,4.6-4.8c1.7,0,2.8,0.8,3.6,1.7v-1.5h2.3v8.1c0,1.7-0.4,3-1.3,3.8c-0.9,0.9-2.4,1.4-4.2,1.4
			C201.8,89.7,200.3,89.3,199,88.5z M206.7,81L206.7,81c0-1.7-1.4-2.8-3-2.8s-2.9,1.1-2.9,2.8v0c0,1.7,1.3,2.8,2.9,2.8
			C205.3,83.8,206.7,82.6,206.7,81z"/>
	</g>
	<g enable-background="new    ">
		<path fill="#0075C9" d="M224.5,118.1h-6.8V116h9.5v1.8l-6.1,11.7h-2.7L224.5,118.1z"/>
		<path fill="#0075C9" d="M227.5,126.9h2.6v2.7h-2.6V126.9z"/>
		<path fill="#0075C9" d="M232.3,125.9L232.3,125.9c0-1.7,0.9-2.7,2.4-3.3c-1.1-0.6-2-1.5-2-3v0c0-2.1,2-3.6,4.7-3.6
			s4.7,1.6,4.7,3.6v0c0,1.5-0.8,2.4-2,3c1.5,0.7,2.4,1.6,2.4,3.2v0c0,2.4-2.2,3.9-5.1,3.9C234.5,129.7,232.3,128.2,232.3,125.9z
			 M240.3,125.7L240.3,125.7c0-1.3-1.2-2.1-2.8-2.1c-1.6,0-2.8,0.8-2.8,2v0c0,1.1,1,2,2.8,2S240.3,126.8,240.3,125.7z M239.9,119.8
			L239.9,119.8c0-1.1-1-1.9-2.4-1.9c-1.4,0-2.4,0.8-2.4,1.9v0c0,1.2,1,2,2.4,2S239.9,120.9,239.9,119.8z"/>
		<path fill="#0075C9" d="M251.5,126.5h-6.8l-0.4-1.7l7.5-8.9h2v8.6h1.9v1.9h-1.9v3h-2.3V126.5z M251.5,124.6v-5.3l-4.4,5.3H251.5z"
			/>
	</g>
	<g enable-background="new    ">
		<path fill="#0075C9" d="M792.9,164.1c-1-1-1.6-2.4-1.6-5.2v0c0-4.1,2-7.3,5.8-7.3c1.8,0,3,0.6,4.1,1.5l-1.3,1.8
			c-0.9-0.7-1.7-1.2-2.9-1.2c-2.4,0-3.2,2.4-3.2,4.3c0.8-0.8,1.8-1.4,3.2-1.4c2.6,0,4.7,1.5,4.7,4.2v0c0,2.7-2.2,4.6-5,4.6
			C795,165.5,793.9,165,792.9,164.1z M799.3,161L799.3,161c0-1.4-1.1-2.4-2.8-2.4s-2.7,1.1-2.7,2.4v0c0,1.4,1.1,2.4,2.8,2.4
			C798.3,163.4,799.3,162.4,799.3,161z"/>
		<path fill="#0075C9" d="M804.2,162.6h2.6v2.7h-2.6V162.6z"/>
		<path fill="#0075C9" d="M809,163.4l4.6-4c1.9-1.6,2.5-2.4,2.5-3.6c0-1.3-0.9-2.1-2.2-2.1s-2.1,0.7-3.1,2l-1.7-1.3
			c1.3-1.8,2.6-2.8,5-2.8c2.6,0,4.5,1.6,4.5,4v0c0,2.1-1.1,3.3-3.5,5.2l-2.8,2.3h6.4v2.1H809V163.4z"/>
		<path fill="#0075C9" d="M820.8,163.4l1.5-1.7c1.1,1,2.2,1.6,3.5,1.6c1.6,0,2.7-0.9,2.7-2.3v0c0-1.4-1.2-2.2-2.8-2.2
			c-1,0-1.8,0.3-2.5,0.6l-1.4-0.9l0.4-6.6h8.1v2.1h-6l-0.2,3.2c0.6-0.2,1.2-0.4,2.1-0.4c2.6,0,4.7,1.4,4.7,4.2v0c0,2.8-2,4.6-5,4.6
			C823.7,165.5,822.1,164.7,820.8,163.4z"/>
		<path fill="#0075C9" d="M835.3,155.4l-2.4,0.2v-1.4l2.3,0.2l-0.2-2.6h1.5l-0.2,2.6l2.3-0.2v1.4l-2.3-0.2l0.2,5.3h-1.4L835.3,155.4
			z"/>
	</g>
	<circle fill="#82BC00" cx="815" cy="186.1" r="9.1"/>
	<line fill="none" stroke="#82BC00" stroke-width="2" stroke-miterlimit="10" x1="234.6" y1="148.8" x2="516.5" y2="172.6"/>
	<line fill="none" stroke="#82BC00" stroke-width="2" stroke-miterlimit="10" x1="524.2" y1="172.6" x2="808.8" y2="186.1"/>
	<circle fill="#82BC00" cx="523" cy="173.6" r="9.1"/>
	<circle fill="#82BC00" cx="234.6" cy="148.8" r="9.1"/>
	<line fill="none" stroke="#00AEEF" stroke-dasharray="4" x1="813.6" y1="71.8" x2="813.6" y2="148.8"/>
</g>
<g id="Toggle_Button_-_Acne">
</g>
<g enable-background="new    ">
	<path fill="#0075C9" d="M1.6,468.2h8.1v1.2H2.9v4H9v1.2H2.9v4.9H1.6V468.2z"/>
	<path fill="#0075C9" d="M12,468h1.4v1.4H12V468z M12.1,471.2h1.2v8.3h-1.2V471.2z"/>
	<path fill="#0075C9" d="M16.7,472.3h-1.1v-1.1h1.1v-0.7c0-1,0.3-1.7,0.7-2.1c0.4-0.4,1-0.6,1.8-0.6c0.6,0,1,0.1,1.4,0.2v1.1
		c-0.5-0.1-0.8-0.2-1.2-0.2c-1,0-1.5,0.6-1.5,1.8v0.7h2.6v1.1h-2.6v7.2h-1.2V472.3z"/>
	<path fill="#0075C9" d="M22.6,477.3v-5h-1.2v-1.1h1.2v-2.5h1.2v2.5h2.6v1.1h-2.6v4.9c0,1,0.6,1.4,1.4,1.4c0.4,0,0.8-0.1,1.2-0.3
		v1.1c-0.4,0.2-0.9,0.4-1.5,0.4C23.6,479.7,22.6,479,22.6,477.3z"/>
	<path fill="#0075C9" d="M34.9,471.2h1.3l-3.5,8.6c-0.7,1.7-1.5,2.4-2.8,2.4c-0.7,0-1.2-0.1-1.8-0.4l0.4-1c0.4,0.2,0.8,0.3,1.3,0.3
		c0.7,0,1.2-0.4,1.7-1.6l-3.8-8.3h1.4l3,7L34.9,471.2z"/>
	<path fill="#0075C9" d="M37.6,474h4.5v1.3h-4.5V474z"/>
	<path fill="#0075C9" d="M43.8,478.4l0.6-0.9c0.9,0.7,1.9,1.1,2.9,1.1c1,0,1.7-0.5,1.7-1.3v0c0-0.8-1-1.2-2.1-1.5
		c-1.3-0.4-2.8-0.8-2.8-2.4v0c0-1.4,1.2-2.4,2.8-2.4c1,0,2.1,0.4,3,0.9l-0.6,0.9c-0.8-0.5-1.7-0.8-2.5-0.8c-1,0-1.6,0.5-1.6,1.2v0
		c0,0.8,1,1.1,2.1,1.4c1.3,0.4,2.7,0.9,2.7,2.4v0c0,1.6-1.3,2.5-3,2.5C46.1,479.7,44.8,479.2,43.8,478.4z"/>
	<path fill="#0075C9" d="M52.6,468H54v1.4h-1.4V468z M52.7,471.2h1.2v8.3h-1.2V471.2z"/>
	<path fill="#0075C9" d="M60.1,474.4l2.5-3.3h1.4l-3.2,4.1l3.3,4.3h-1.4l-2.6-3.4l-2.6,3.4h-1.4l3.3-4.2l-3.1-4.1h1.4L60.1,474.4z"
		/>
	<path fill="#0075C9" d="M70.2,478.4l0.6-0.9c0.9,0.7,1.9,1.1,2.9,1.1c1,0,1.7-0.5,1.7-1.3v0c0-0.8-1-1.2-2.1-1.5
		c-1.3-0.4-2.8-0.8-2.8-2.4v0c0-1.4,1.2-2.4,2.8-2.4c1,0,2.1,0.4,3,0.9l-0.6,0.9c-0.8-0.5-1.7-0.8-2.5-0.8c-1,0-1.6,0.5-1.6,1.2v0
		c0,0.8,1,1.1,2.1,1.4c1.3,0.4,2.7,0.9,2.7,2.4v0c0,1.6-1.3,2.5-3,2.5C72.5,479.7,71.2,479.2,70.2,478.4z"/>
	<path fill="#0075C9" d="M78.8,476.3v-5.2h1.2v4.9c0,1.5,0.8,2.5,2.3,2.5c1.4,0,2.5-1,2.5-2.6v-4.8h1.2v8.3h-1.2v-1.5
		c-0.6,0.9-1.4,1.6-2.9,1.6C80,479.7,78.8,478.3,78.8,476.3z"/>
	<path fill="#0075C9" d="M90.1,477.9v1.6h-1.2v-11.8h1.2v5.1c0.7-1,1.7-1.9,3.2-1.9c2,0,4,1.6,4,4.3v0c0,2.7-2,4.3-4,4.3
		C91.8,479.7,90.8,478.8,90.1,477.9z M96,475.4L96,475.4c0-2-1.4-3.3-2.9-3.3c-1.5,0-3,1.3-3,3.2v0c0,1.9,1.5,3.2,3,3.2
		C94.7,478.6,96,477.4,96,475.4z"/>
	<path fill="#0075C9" d="M98.1,482.1v-1c0.2,0,0.4,0,0.6,0c0.6,0,1-0.3,1-1.1v-8.8h1.2v8.8c0,1.5-0.8,2.1-2,2.1
		C98.6,482.1,98.4,482.1,98.1,482.1z M99.6,468h1.4v1.4h-1.4V468z"/>
	<path fill="#0075C9" d="M103.3,475.4L103.3,475.4c0-2.4,1.7-4.4,4-4.4c2.5,0,3.9,2,3.9,4.4c0,0.2,0,0.3,0,0.4h-6.6
		c0.2,1.8,1.5,2.8,2.9,2.8c1.1,0,2-0.5,2.6-1.2l0.8,0.7c-0.8,0.9-1.9,1.6-3.4,1.6C105.2,479.7,103.3,477.9,103.3,475.4z M110,474.9
		c-0.1-1.5-1-2.8-2.7-2.8c-1.5,0-2.5,1.2-2.7,2.8H110z"/>
	<path fill="#0075C9" d="M112.9,475.4L112.9,475.4c0-2.4,1.8-4.4,4.3-4.4c1.6,0,2.6,0.7,3.3,1.5l-0.8,0.9c-0.7-0.7-1.4-1.3-2.5-1.3
		c-1.7,0-3,1.4-3,3.2v0c0,1.8,1.3,3.2,3.1,3.2c1.1,0,1.9-0.5,2.5-1.2l0.8,0.7c-0.8,0.9-1.8,1.6-3.4,1.6
		C114.7,479.7,112.9,477.7,112.9,475.4z"/>
	<path fill="#0075C9" d="M123,477.3v-5h-1.2v-1.1h1.2v-2.5h1.2v2.5h2.6v1.1h-2.6v4.9c0,1,0.6,1.4,1.4,1.4c0.4,0,0.8-0.1,1.2-0.3v1.1
		c-0.4,0.2-0.9,0.4-1.5,0.4C124.1,479.7,123,479,123,477.3z"/>
	<path fill="#0075C9" d="M128.4,478.4l0.6-0.9c0.9,0.7,1.9,1.1,2.9,1.1c1,0,1.7-0.5,1.7-1.3v0c0-0.8-1-1.2-2.1-1.5
		c-1.3-0.4-2.8-0.8-2.8-2.4v0c0-1.4,1.2-2.4,2.8-2.4c1,0,2.1,0.4,3,0.9l-0.6,0.9c-0.8-0.5-1.7-0.8-2.5-0.8c-1,0-1.6,0.5-1.6,1.2v0
		c0,0.8,1,1.1,2.1,1.4c1.3,0.4,2.7,0.9,2.7,2.4v0c0,1.6-1.3,2.5-3,2.5C130.7,479.7,129.4,479.2,128.4,478.4z"/>
	<path fill="#0075C9" d="M141.4,477.7l0.9-0.8c0.9,1.1,1.9,1.7,3.3,1.7c1.4,0,2.5-0.9,2.5-2.2v0c0-1.4-1.3-2.2-3.2-2.2h-0.7
		l-0.3-0.8l3.6-4H142v-1.1h7.2v0.9l-3.5,3.9c2,0.2,3.7,1.1,3.7,3.2v0c0,2-1.7,3.4-3.8,3.4C143.7,479.7,142.3,478.9,141.4,477.7z"/>
	<path fill="#0075C9" d="M157.2,477.3v-5H156v-1.1h1.2v-2.5h1.2v2.5h2.6v1.1h-2.6v4.9c0,1,0.6,1.4,1.4,1.4c0.4,0,0.8-0.1,1.2-0.3
		v1.1c-0.4,0.2-0.9,0.4-1.5,0.4C158.2,479.7,157.2,479,157.2,477.3z"/>
	<path fill="#0075C9" d="M162.5,475.4L162.5,475.4c0-2.4,1.8-4.4,4.4-4.4c2.5,0,4.3,2,4.3,4.3v0c0,2.4-1.9,4.4-4.4,4.4
		C164.3,479.7,162.5,477.7,162.5,475.4z M169.9,475.4L169.9,475.4c0-1.8-1.3-3.3-3.1-3.3c-1.8,0-3,1.5-3,3.2v0
		c0,1.8,1.3,3.2,3.1,3.2C168.7,478.6,169.9,477.1,169.9,475.4z"/>
	<path fill="#0075C9" d="M177.7,477.7l0.9-0.8c0.9,1.1,1.9,1.7,3.3,1.7c1.4,0,2.5-0.9,2.5-2.2v0c0-1.4-1.3-2.2-3.2-2.2h-0.7
		l-0.3-0.8l3.6-4h-5.5v-1.1h7.2v0.9l-3.5,3.9c2,0.2,3.7,1.1,3.7,3.2v0c0,2-1.7,3.4-3.8,3.4C180,479.7,178.6,478.9,177.7,477.7z"/>
	<path fill="#0075C9" d="M189.2,478.6c-0.9-0.9-1.4-2.1-1.4-4.4v0c0-3.4,1.7-6.1,4.7-6.1c1.4,0,2.4,0.5,3.3,1.3l-0.7,1
		c-0.8-0.7-1.6-1.1-2.7-1.1c-2.2,0-3.3,2.3-3.3,4.8v0.2c0.7-1.1,1.8-1.7,3.2-1.7c2.1,0,3.9,1.4,3.9,3.5v0c0,2.2-1.8,3.8-4,3.8
		C190.9,479.7,189.9,479.3,189.2,478.6z M194.9,476L194.9,476c0-1.4-1.1-2.5-2.8-2.5c-1.7,0-2.8,1.2-2.8,2.5v0
		c0,1.4,1.2,2.5,2.9,2.5C193.8,478.6,194.9,477.4,194.9,476z"/>
	<path fill="#0075C9" d="M203.4,471.2h1.2v1.4c0.5-0.8,1.3-1.6,2.7-1.6c1.4,0,2.2,0.7,2.7,1.7c0.6-0.9,1.5-1.7,2.9-1.7
		c1.9,0,3.1,1.3,3.1,3.4v5.2h-1.2v-4.9c0-1.6-0.8-2.5-2.2-2.5c-1.3,0-2.3,0.9-2.3,2.6v4.8h-1.2v-4.9c0-1.6-0.8-2.5-2.1-2.5
		c-1.3,0-2.3,1.1-2.3,2.6v4.8h-1.2V471.2z"/>
	<path fill="#0075C9" d="M218.3,475.4L218.3,475.4c0-2.4,1.8-4.4,4.4-4.4c2.5,0,4.3,2,4.3,4.3v0c0,2.4-1.9,4.4-4.4,4.4
		C220.1,479.7,218.3,477.7,218.3,475.4z M225.7,475.4L225.7,475.4c0-1.8-1.3-3.3-3.1-3.3c-1.8,0-3,1.5-3,3.2v0
		c0,1.8,1.3,3.2,3.1,3.2C224.4,478.6,225.7,477.1,225.7,475.4z"/>
	<path fill="#0075C9" d="M229.2,471.2h1.2v1.5c0.5-0.9,1.4-1.6,2.9-1.6c2,0,3.2,1.4,3.2,3.3v5.2h-1.2v-4.9c0-1.5-0.8-2.5-2.3-2.5
		c-1.4,0-2.5,1-2.5,2.6v4.8h-1.2V471.2z"/>
	<path fill="#0075C9" d="M239.6,477.3v-5h-1.2v-1.1h1.2v-2.5h1.2v2.5h2.6v1.1h-2.6v4.9c0,1,0.6,1.4,1.4,1.4c0.4,0,0.8-0.1,1.2-0.3
		v1.1c-0.4,0.2-0.9,0.4-1.5,0.4C240.6,479.7,239.6,479,239.6,477.3z"/>
	<path fill="#0075C9" d="M245.7,467.7h1.2v4.9c0.5-0.9,1.4-1.6,2.9-1.6c2,0,3.2,1.4,3.2,3.3v5.2h-1.2v-4.9c0-1.5-0.8-2.5-2.3-2.5
		c-1.4,0-2.5,1-2.5,2.6v4.8h-1.2V467.7z"/>
	<path fill="#0075C9" d="M254.9,478.4l0.6-0.9c0.9,0.7,1.9,1.1,2.9,1.1c1,0,1.7-0.5,1.7-1.3v0c0-0.8-1-1.2-2.1-1.5
		c-1.3-0.4-2.8-0.8-2.8-2.4v0c0-1.4,1.2-2.4,2.8-2.4c1,0,2.1,0.4,3,0.9l-0.6,0.9c-0.8-0.5-1.7-0.8-2.5-0.8c-1,0-1.6,0.5-1.6,1.2v0
		c0,0.8,1,1.1,2.1,1.4c1.3,0.4,2.7,0.9,2.7,2.4v0c0,1.6-1.3,2.5-3,2.5C257.2,479.7,255.9,479.2,254.9,478.4z"/>
	<path fill="#0075C9" d="M268,475.4L268,475.4c0-2.4,1.8-4.4,4.4-4.4c2.5,0,4.3,2,4.3,4.3v0c0,2.4-1.9,4.4-4.4,4.4
		C269.8,479.7,268,477.7,268,475.4z M275.4,475.4L275.4,475.4c0-1.8-1.3-3.3-3.1-3.3c-1.8,0-3,1.5-3,3.2v0c0,1.8,1.3,3.2,3.1,3.2
		C274.1,478.6,275.4,477.1,275.4,475.4z"/>
	<path fill="#0075C9" d="M279.4,472.3h-1.1v-1.1h1.1v-0.7c0-1,0.3-1.7,0.7-2.1c0.4-0.4,1-0.6,1.8-0.6c0.6,0,1,0.1,1.4,0.2v1.1
		c-0.5-0.1-0.8-0.2-1.2-0.2c-1,0-1.5,0.6-1.5,1.8v0.7h2.6v1.1h-2.6v7.2h-1.2V472.3z"/>
	<path fill="#0075C9" d="M289,477.1L289,477.1c0-1.8,1.5-2.7,3.6-2.7c1.1,0,1.8,0.1,2.6,0.4v-0.3c0-1.5-0.9-2.3-2.5-2.3
		c-1,0-1.8,0.3-2.5,0.6l-0.4-1c0.9-0.4,1.8-0.7,3-0.7c1.2,0,2.1,0.3,2.7,0.9c0.6,0.6,0.9,1.4,0.9,2.4v5.1h-1.2v-1.3
		c-0.6,0.8-1.5,1.4-3,1.4C290.6,479.7,289,478.8,289,477.1z M295.2,476.4v-0.8c-0.6-0.2-1.4-0.4-2.5-0.4c-1.6,0-2.4,0.7-2.4,1.7v0
		c0,1,1,1.7,2.1,1.7C293.9,478.7,295.2,477.8,295.2,476.4z"/>
	<path fill="#0075C9" d="M298.9,481l0.6-1c1,0.7,2,1.1,3.2,1.1c1.8,0,3-1,3-3v-1c-0.7,1-1.7,1.8-3.3,1.8c-2,0-3.9-1.5-3.9-3.9v0
		c0-2.4,1.9-3.9,3.9-3.9c1.6,0,2.6,0.8,3.3,1.7v-1.5h1.2v6.9c0,1.3-0.4,2.3-1.1,3c-0.7,0.7-1.9,1.1-3.2,1.1
		C301.3,482.1,300,481.7,298.9,481z M305.8,474.9L305.8,474.9c0-1.7-1.5-2.9-3.1-2.9s-2.9,1.1-2.9,2.8v0c0,1.7,1.3,2.8,2.9,2.8
		C304.3,477.8,305.8,476.6,305.8,474.9z"/>
	<path fill="#0075C9" d="M309.2,475.4L309.2,475.4c0-2.4,1.7-4.4,4-4.4c2.5,0,3.9,2,3.9,4.4c0,0.2,0,0.3,0,0.4h-6.6
		c0.2,1.8,1.5,2.8,2.9,2.8c1.1,0,2-0.5,2.6-1.2l0.8,0.7c-0.8,0.9-1.9,1.6-3.4,1.6C311.1,479.7,309.2,477.9,309.2,475.4z
		 M315.8,474.9c-0.1-1.5-1-2.8-2.7-2.8c-1.5,0-2.5,1.2-2.7,2.8H315.8z"/>
	<path fill="#0075C9" d="M323.5,477.1L323.5,477.1c0-1.8,1.5-2.7,3.6-2.7c1.1,0,1.8,0.1,2.6,0.4v-0.3c0-1.5-0.9-2.3-2.5-2.3
		c-1,0-1.8,0.3-2.5,0.6l-0.4-1c0.9-0.4,1.8-0.7,3-0.7c1.2,0,2.1,0.3,2.7,0.9c0.6,0.6,0.9,1.4,0.9,2.4v5.1h-1.2v-1.3
		c-0.6,0.8-1.5,1.4-3,1.4C325.1,479.7,323.5,478.8,323.5,477.1z M329.6,476.4v-0.8c-0.6-0.2-1.4-0.4-2.5-0.4c-1.6,0-2.4,0.7-2.4,1.7
		v0c0,1,1,1.7,2.1,1.7C328.4,478.7,329.6,477.8,329.6,476.4z"/>
	<path fill="#0075C9" d="M333.5,471.2h1.2v1.5c0.5-0.9,1.4-1.6,2.9-1.6c2,0,3.2,1.4,3.2,3.3v5.2h-1.2v-4.9c0-1.5-0.8-2.5-2.3-2.5
		c-1.4,0-2.5,1-2.5,2.6v4.8h-1.2V471.2z"/>
	<path fill="#0075C9" d="M342.9,475.4L342.9,475.4c0-2.8,2-4.4,4-4.4c1.5,0,2.5,0.8,3.2,1.8v-5h1.2v11.8h-1.2v-1.7
		c-0.7,1-1.7,1.9-3.2,1.9C344.9,479.7,342.9,478.1,342.9,475.4z M350.1,475.3L350.1,475.3c0-2-1.5-3.2-3-3.2c-1.6,0-2.9,1.2-2.9,3.2
		v0c0,2,1.4,3.2,2.9,3.2C348.7,478.6,350.1,477.3,350.1,475.3z"/>
	<path fill="#0075C9" d="M358.2,471.2h1.3l2.2,6.7l2.2-6.7h1l2.3,6.7l2.2-6.7h1.3l-2.9,8.4h-1.1l-2.2-6.6l-2.3,6.6h-1.1L358.2,471.2
		z"/>
	<path fill="#0075C9" d="M372.9,468h1.4v1.4h-1.4V468z M373,471.2h1.2v8.3H373V471.2z"/>
	<path fill="#0075C9" d="M377.5,477.3v-5h-1.2v-1.1h1.2v-2.5h1.2v2.5h2.6v1.1h-2.6v4.9c0,1,0.6,1.4,1.4,1.4c0.4,0,0.8-0.1,1.2-0.3
		v1.1c-0.4,0.2-0.9,0.4-1.5,0.4C378.5,479.7,377.5,479,377.5,477.3z"/>
	<path fill="#0075C9" d="M383.6,467.7h1.2v4.9c0.5-0.9,1.4-1.6,2.9-1.6c2,0,3.2,1.4,3.2,3.3v5.2h-1.2v-4.9c0-1.5-0.8-2.5-2.3-2.5
		c-1.4,0-2.5,1-2.5,2.6v4.8h-1.2V467.7z"/>
	<path fill="#0075C9" d="M397.8,477.1L397.8,477.1c0-1.8,1.5-2.7,3.6-2.7c1.1,0,1.8,0.1,2.6,0.4v-0.3c0-1.5-0.9-2.3-2.5-2.3
		c-1,0-1.8,0.3-2.5,0.6l-0.4-1c0.9-0.4,1.8-0.7,3-0.7c1.2,0,2.1,0.3,2.7,0.9c0.6,0.6,0.9,1.4,0.9,2.4v5.1h-1.2v-1.3
		c-0.6,0.8-1.5,1.4-3,1.4C399.3,479.7,397.8,478.8,397.8,477.1z M403.9,476.4v-0.8c-0.6-0.2-1.4-0.4-2.5-0.4c-1.6,0-2.4,0.7-2.4,1.7
		v0c0,1,1,1.7,2.1,1.7C402.6,478.7,403.9,477.8,403.9,476.4z"/>
	<path fill="#0075C9" d="M412.6,467.7h1.2v4.9c0.5-0.9,1.4-1.6,2.9-1.6c2,0,3.2,1.4,3.2,3.3v5.2h-1.2v-4.9c0-1.5-0.8-2.5-2.3-2.5
		c-1.4,0-2.5,1-2.5,2.6v4.8h-1.2V467.7z"/>
	<path fill="#0075C9" d="M422.5,468h1.4v1.4h-1.4V468z M422.6,471.2h1.2v8.3h-1.2V471.2z"/>
	<path fill="#0075C9" d="M426.1,478.4l0.6-0.9c0.9,0.7,1.9,1.1,2.9,1.1c1,0,1.7-0.5,1.7-1.3v0c0-0.8-1-1.2-2.1-1.5
		c-1.3-0.4-2.8-0.8-2.8-2.4v0c0-1.4,1.2-2.4,2.8-2.4c1,0,2.1,0.4,3,0.9l-0.6,0.9c-0.8-0.5-1.7-0.8-2.5-0.8c-1,0-1.6,0.5-1.6,1.2v0
		c0,0.8,1,1.1,2.1,1.4c1.3,0.4,2.7,0.9,2.7,2.4v0c0,1.6-1.3,2.5-3,2.5C428.3,479.7,427,479.2,426.1,478.4z"/>
	<path fill="#0075C9" d="M435.1,477.3v-5h-1.2v-1.1h1.2v-2.5h1.2v2.5h2.6v1.1h-2.6v4.9c0,1,0.6,1.4,1.4,1.4c0.4,0,0.8-0.1,1.2-0.3
		v1.1c-0.4,0.2-0.9,0.4-1.5,0.4C436.1,479.7,435.1,479,435.1,477.3z"/>
	<path fill="#0075C9" d="M440.4,475.4L440.4,475.4c0-2.4,1.8-4.4,4.4-4.4c2.5,0,4.3,2,4.3,4.3v0c0,2.4-1.9,4.4-4.4,4.4
		C442.2,479.7,440.4,477.7,440.4,475.4z M447.8,475.4L447.8,475.4c0-1.8-1.3-3.3-3.1-3.3c-1.8,0-3,1.5-3,3.2v0
		c0,1.8,1.3,3.2,3.1,3.2C446.6,478.6,447.8,477.1,447.8,475.4z"/>
	<path fill="#0075C9" d="M451.3,471.2h1.2v2.2c0.6-1.4,1.8-2.4,3.4-2.3v1.3h-0.1c-1.8,0-3.3,1.3-3.3,3.8v3.3h-1.2V471.2z"/>
	<path fill="#0075C9" d="M464.1,471.2h1.3l-3.5,8.6c-0.7,1.7-1.5,2.4-2.8,2.4c-0.7,0-1.2-0.1-1.8-0.4l0.4-1c0.4,0.2,0.8,0.3,1.3,0.3
		c0.7,0,1.2-0.4,1.7-1.6l-3.8-8.3h1.4l3,7L464.1,471.2z"/>
	<path fill="#0075C9" d="M471.7,475.4L471.7,475.4c0-2.4,1.8-4.4,4.4-4.4c2.5,0,4.3,2,4.3,4.3v0c0,2.4-1.9,4.4-4.4,4.4
		C473.5,479.7,471.7,477.7,471.7,475.4z M479.1,475.4L479.1,475.4c0-1.8-1.3-3.3-3.1-3.3c-1.8,0-3,1.5-3,3.2v0
		c0,1.8,1.3,3.2,3.1,3.2C477.9,478.6,479.1,477.1,479.1,475.4z"/>
	<path fill="#0075C9" d="M483.1,472.3H482v-1.1h1.1v-0.7c0-1,0.3-1.7,0.7-2.1c0.4-0.4,1-0.6,1.8-0.6c0.6,0,1,0.1,1.4,0.2v1.1
		c-0.5-0.1-0.8-0.2-1.2-0.2c-1,0-1.5,0.6-1.5,1.8v0.7h2.6v1.1h-2.6v7.2h-1.2V472.3z"/>
	<path fill="#0075C9" d="M492.8,477.1L492.8,477.1c0-1.8,1.5-2.7,3.6-2.7c1.1,0,1.8,0.1,2.6,0.4v-0.3c0-1.5-0.9-2.3-2.5-2.3
		c-1,0-1.8,0.3-2.5,0.6l-0.4-1c0.9-0.4,1.8-0.7,3-0.7c1.2,0,2.1,0.3,2.7,0.9c0.6,0.6,0.9,1.4,0.9,2.4v5.1h-1.2v-1.3
		c-0.6,0.8-1.5,1.4-3,1.4C494.4,479.7,492.8,478.8,492.8,477.1z M498.9,476.4v-0.8c-0.6-0.2-1.4-0.4-2.5-0.4c-1.6,0-2.4,0.7-2.4,1.7
		v0c0,1,1,1.7,2.1,1.7C497.7,478.7,498.9,477.8,498.9,476.4z"/>
	<path fill="#0075C9" d="M503.1,477.3v-5H502v-1.1h1.2v-2.5h1.2v2.5h2.6v1.1h-2.6v4.9c0,1,0.6,1.4,1.4,1.4c0.4,0,0.8-0.1,1.2-0.3
		v1.1c-0.4,0.2-0.9,0.4-1.5,0.4C504.1,479.7,503.1,479,503.1,477.3z"/>
	<path fill="#0075C9" d="M508.4,475.4L508.4,475.4c0-2.4,1.8-4.4,4.4-4.4c2.5,0,4.3,2,4.3,4.3v0c0,2.4-1.9,4.4-4.4,4.4
		C510.3,479.7,508.4,477.7,508.4,475.4z M515.9,475.4L515.9,475.4c0-1.8-1.3-3.3-3.1-3.3c-1.8,0-3,1.5-3,3.2v0
		c0,1.8,1.3,3.2,3.1,3.2C514.6,478.6,515.9,477.1,515.9,475.4z"/>
	<path fill="#0075C9" d="M519.4,471.2h1.2v1.7c0.7-1,1.7-1.9,3.2-1.9c2,0,4,1.6,4,4.3v0c0,2.7-2,4.3-4,4.3c-1.5,0-2.5-0.8-3.2-1.8
		v4.2h-1.2V471.2z M526.5,475.4L526.5,475.4c0-2-1.4-3.3-2.9-3.3c-1.5,0-3,1.3-3,3.2v0c0,1.9,1.5,3.2,3,3.2
		C525.2,478.6,526.5,477.4,526.5,475.4z"/>
	<path fill="#0075C9" d="M530.1,468h1.4v1.4h-1.4V468z M530.2,471.2h1.2v8.3h-1.2V471.2z"/>
	<path fill="#0075C9" d="M533.8,475.4L533.8,475.4c0-2.4,1.8-4.4,4.3-4.4c1.6,0,2.6,0.7,3.3,1.5l-0.8,0.9c-0.7-0.7-1.4-1.3-2.5-1.3
		c-1.7,0-3,1.4-3,3.2v0c0,1.8,1.3,3.2,3.1,3.2c1.1,0,1.9-0.5,2.5-1.2l0.8,0.7c-0.8,0.9-1.8,1.6-3.4,1.6
		C535.7,479.7,533.8,477.7,533.8,475.4z"/>
	<path fill="#0075C9" d="M547.9,475.4L547.9,475.4c0-2.8,2-4.4,4-4.4c1.5,0,2.5,0.8,3.2,1.8v-5h1.2v11.8h-1.2v-1.7
		c-0.7,1-1.7,1.9-3.2,1.9C549.9,479.7,547.9,478.1,547.9,475.4z M555.1,475.3L555.1,475.3c0-2-1.5-3.2-3-3.2c-1.6,0-2.9,1.2-2.9,3.2
		v0c0,2,1.4,3.2,2.9,3.2C553.7,478.6,555.1,477.3,555.1,475.3z"/>
	<path fill="#0075C9" d="M558.6,475.4L558.6,475.4c0-2.4,1.7-4.4,4-4.4c2.5,0,3.9,2,3.9,4.4c0,0.2,0,0.3,0,0.4h-6.6
		c0.2,1.8,1.5,2.8,2.9,2.8c1.1,0,2-0.5,2.6-1.2l0.8,0.7c-0.8,0.9-1.9,1.6-3.4,1.6C560.5,479.7,558.6,477.9,558.6,475.4z
		 M565.2,474.9c-0.1-1.5-1-2.8-2.7-2.8c-1.5,0-2.5,1.2-2.7,2.8H565.2z"/>
	<path fill="#0075C9" d="M568.7,471.2h1.2v2.2c0.6-1.4,1.8-2.4,3.4-2.3v1.3h-0.1c-1.8,0-3.3,1.3-3.3,3.8v3.3h-1.2V471.2z"/>
	<path fill="#0075C9" d="M575.2,471.2h1.2v1.4c0.5-0.8,1.3-1.6,2.7-1.6c1.4,0,2.2,0.7,2.7,1.7c0.6-0.9,1.5-1.7,2.9-1.7
		c1.9,0,3.1,1.3,3.1,3.4v5.2h-1.2v-4.9c0-1.6-0.8-2.5-2.2-2.5c-1.3,0-2.3,0.9-2.3,2.6v4.8h-1.2v-4.9c0-1.6-0.8-2.5-2.1-2.5
		c-1.3,0-2.3,1.1-2.3,2.6v4.8h-1.2V471.2z"/>
	<path fill="#0075C9" d="M589.9,477.1L589.9,477.1c0-1.8,1.5-2.7,3.6-2.7c1.1,0,1.8,0.1,2.6,0.4v-0.3c0-1.5-0.9-2.3-2.5-2.3
		c-1,0-1.8,0.3-2.5,0.6l-0.4-1c0.9-0.4,1.8-0.7,3-0.7c1.2,0,2.1,0.3,2.7,0.9c0.6,0.6,0.9,1.4,0.9,2.4v5.1H596v-1.3
		c-0.6,0.8-1.5,1.4-3,1.4C591.5,479.7,589.9,478.8,589.9,477.1z M596.1,476.4v-0.8c-0.6-0.2-1.4-0.4-2.5-0.4c-1.6,0-2.4,0.7-2.4,1.7
		v0c0,1,1,1.7,2.1,1.7C594.8,478.7,596.1,477.8,596.1,476.4z"/>
	<path fill="#0075C9" d="M600.2,477.3v-5h-1.2v-1.1h1.2v-2.5h1.2v2.5h2.6v1.1h-2.6v4.9c0,1,0.6,1.4,1.4,1.4c0.4,0,0.8-0.1,1.2-0.3
		v1.1c-0.4,0.2-0.9,0.4-1.5,0.4C601.3,479.7,600.2,479,600.2,477.3z"/>
	<path fill="#0075C9" d="M606.4,468h1.4v1.4h-1.4V468z M606.4,471.2h1.2v8.3h-1.2V471.2z"/>
	<path fill="#0075C9" d="M611,477.3v-5h-1.2v-1.1h1.2v-2.5h1.2v2.5h2.6v1.1h-2.6v4.9c0,1,0.6,1.4,1.4,1.4c0.4,0,0.8-0.1,1.2-0.3v1.1
		c-0.4,0.2-0.9,0.4-1.5,0.4C612,479.7,611,479,611,477.3z"/>
	<path fill="#0075C9" d="M617.1,468h1.4v1.4h-1.4V468z M617.2,471.2h1.2v8.3h-1.2V471.2z"/>
	<path fill="#0075C9" d="M620.6,478.4l0.6-0.9c0.9,0.7,1.9,1.1,2.9,1.1c1,0,1.7-0.5,1.7-1.3v0c0-0.8-1-1.2-2.1-1.5
		c-1.3-0.4-2.8-0.8-2.8-2.4v0c0-1.4,1.2-2.4,2.8-2.4c1,0,2.1,0.4,3,0.9l-0.6,0.9c-0.8-0.5-1.7-0.8-2.5-0.8c-1,0-1.6,0.5-1.6,1.2v0
		c0,0.8,1,1.1,2.1,1.4c1.3,0.4,2.7,0.9,2.7,2.4v0c0,1.6-1.3,2.5-3,2.5C622.9,479.7,621.6,479.2,620.6,478.4z"/>
	<path fill="#0075C9" d="M634.1,476.3v-5.2h1.2v4.9c0,1.5,0.8,2.5,2.3,2.5c1.4,0,2.5-1,2.5-2.6v-4.8h1.2v8.3h-1.2v-1.5
		c-0.6,0.9-1.4,1.6-2.9,1.6C635.3,479.7,634.1,478.3,634.1,476.3z"/>
	<path fill="#0075C9" d="M643.4,478.4l0.6-0.9c0.9,0.7,1.9,1.1,2.9,1.1c1,0,1.7-0.5,1.7-1.3v0c0-0.8-1-1.2-2.1-1.5
		c-1.3-0.4-2.8-0.8-2.8-2.4v0c0-1.4,1.2-2.4,2.8-2.4c1,0,2.1,0.4,3,0.9l-0.6,0.9c-0.8-0.5-1.7-0.8-2.5-0.8c-1,0-1.6,0.5-1.6,1.2v0
		c0,0.8,1,1.1,2.1,1.4c1.3,0.4,2.7,0.9,2.7,2.4v0c0,1.6-1.3,2.5-3,2.5C645.7,479.7,644.4,479.2,643.4,478.4z"/>
	<path fill="#0075C9" d="M651.7,475.4L651.7,475.4c0-2.4,1.7-4.4,4-4.4c2.5,0,3.9,2,3.9,4.4c0,0.2,0,0.3,0,0.4h-6.6
		c0.2,1.8,1.5,2.8,2.9,2.8c1.1,0,2-0.5,2.6-1.2l0.8,0.7c-0.8,0.9-1.9,1.6-3.4,1.6C653.5,479.7,651.7,477.9,651.7,475.4z
		 M658.3,474.9c-0.1-1.5-1-2.8-2.7-2.8c-1.5,0-2.5,1.2-2.7,2.8H658.3z"/>
	<path fill="#0075C9" d="M661.2,475.4L661.2,475.4c0-2.8,2-4.4,4-4.4c1.5,0,2.5,0.8,3.2,1.8v-5h1.2v11.8h-1.2v-1.7
		c-0.7,1-1.7,1.9-3.2,1.9C663.2,479.7,661.2,478.1,661.2,475.4z M668.5,475.3L668.5,475.3c0-2-1.5-3.2-3-3.2c-1.6,0-2.9,1.2-2.9,3.2
		v0c0,2,1.4,3.2,2.9,3.2C667,478.6,668.5,477.3,668.5,475.3z"/>
	<path fill="#0075C9" d="M677,473.9L677,473.9c0-3.2,2.4-5.9,5.7-5.9c2,0,3.3,0.7,4.4,1.8l-0.9,0.9c-1-0.9-2-1.5-3.5-1.5
		c-2.5,0-4.4,2-4.4,4.6v0c0,2.6,1.9,4.7,4.4,4.7c1.5,0,2.6-0.6,3.6-1.6l0.8,0.8c-1.2,1.2-2.5,2-4.5,2
		C679.4,479.7,677,477.1,677,473.9z"/>
	<path fill="#0075C9" d="M688.5,475.4L688.5,475.4c0-2.4,1.7-4.4,4-4.4c2.5,0,3.9,2,3.9,4.4c0,0.2,0,0.3,0,0.4h-6.6
		c0.2,1.8,1.5,2.8,2.9,2.8c1.1,0,2-0.5,2.6-1.2l0.8,0.7c-0.8,0.9-1.9,1.6-3.4,1.6C690.4,479.7,688.5,477.9,688.5,475.4z
		 M695.1,474.9c-0.1-1.5-1-2.8-2.7-2.8c-1.5,0-2.5,1.2-2.7,2.8H695.1z"/>
	<path fill="#0075C9" d="M699,477.3v-5h-1.2v-1.1h1.2v-2.5h1.2v2.5h2.6v1.1h-2.6v4.9c0,1,0.6,1.4,1.4,1.4c0.4,0,0.8-0.1,1.2-0.3v1.1
		c-0.4,0.2-0.9,0.4-1.5,0.4C700,479.7,699,479,699,477.3z"/>
	<path fill="#0075C9" d="M704.5,477.1L704.5,477.1c0-1.8,1.5-2.7,3.6-2.7c1.1,0,1.8,0.1,2.6,0.4v-0.3c0-1.5-0.9-2.3-2.5-2.3
		c-1,0-1.8,0.3-2.5,0.6l-0.4-1c0.9-0.4,1.8-0.7,3-0.7c1.2,0,2.1,0.3,2.7,0.9c0.6,0.6,0.9,1.4,0.9,2.4v5.1h-1.2v-1.3
		c-0.6,0.8-1.5,1.4-3,1.4C706,479.7,704.5,478.8,704.5,477.1z M710.6,476.4v-0.8c-0.6-0.2-1.4-0.4-2.5-0.4c-1.6,0-2.4,0.7-2.4,1.7v0
		c0,1,1,1.7,2.1,1.7C709.4,478.7,710.6,477.8,710.6,476.4z"/>
	<path fill="#0075C9" d="M714.4,471.2h1.2v1.7c0.7-1,1.7-1.9,3.2-1.9c2,0,4,1.6,4,4.3v0c0,2.7-2,4.3-4,4.3c-1.5,0-2.5-0.8-3.2-1.8
		v4.2h-1.2V471.2z M721.6,475.4L721.6,475.4c0-2-1.4-3.3-2.9-3.3c-1.5,0-3,1.3-3,3.2v0c0,1.9,1.5,3.2,3,3.2
		C720.3,478.6,721.6,477.4,721.6,475.4z"/>
	<path fill="#0075C9" d="M725.2,467.7h1.2v4.9c0.5-0.9,1.4-1.6,2.9-1.6c2,0,3.2,1.4,3.2,3.3v5.2h-1.2v-4.9c0-1.5-0.8-2.5-2.3-2.5
		c-1.4,0-2.5,1-2.5,2.6v4.8h-1.2V467.7z"/>
	<path fill="#0075C9" d="M735.1,468h1.4v1.4h-1.4V468z M735.2,471.2h1.2v8.3h-1.2V471.2z"/>
	<path fill="#0075C9" d="M739.5,467.7h1.2v11.8h-1.2V467.7z"/>
	<path fill="#0075C9" d="M742.6,470.9L742.6,470.9c0-1.5,1.2-2.8,2.8-2.8c1.6,0,2.8,1.3,2.8,2.8v0c0,1.5-1.2,2.8-2.8,2.8
		C743.9,473.7,742.6,472.4,742.6,470.9z M747.9,470.9L747.9,470.9c0-1.4-1.1-2.5-2.5-2.5c-1.4,0-2.5,1.1-2.5,2.5v0
		c0,1.4,1.1,2.5,2.5,2.5C746.9,473.4,747.9,472.3,747.9,470.9z M744.4,469.4h1.3c0.6,0,1.1,0.3,1.1,0.9c0,0.5-0.3,0.8-0.7,0.9
		l0.8,1.1h-0.7l-0.7-1h-0.6v1h-0.5V469.4z M745.6,470.8c0.4,0,0.6-0.2,0.6-0.5c0-0.3-0.2-0.5-0.6-0.5h-0.7v0.9H745.6z"/>
	<path fill="#0075C9" d="M755.1,468.2h4.9c1.4,0,2.5,0.4,3.2,1.1c0.5,0.5,0.9,1.3,0.9,2.2v0c0,1.9-1.3,3-3.1,3.3l3.5,4.6h-1.6
		l-3.3-4.4h-3.2v4.4h-1.3V468.2z M759.9,474c1.7,0,2.9-0.9,2.9-2.3v0c0-1.4-1.1-2.2-2.9-2.2h-3.5v4.6H759.9z"/>
	<path fill="#0075C9" d="M765.9,475.4L765.9,475.4c0-2.4,1.7-4.4,4-4.4c2.5,0,3.9,2,3.9,4.4c0,0.2,0,0.3,0,0.4h-6.6
		c0.2,1.8,1.5,2.8,2.9,2.8c1.1,0,2-0.5,2.6-1.2l0.8,0.7c-0.8,0.9-1.9,1.6-3.4,1.6C767.8,479.7,765.9,477.9,765.9,475.4z
		 M772.5,474.9c-0.1-1.5-1-2.8-2.7-2.8c-1.5,0-2.5,1.2-2.7,2.8H772.5z"/>
	<path fill="#0075C9" d="M775.3,478.4l0.6-0.9c0.9,0.7,1.9,1.1,2.9,1.1c1,0,1.7-0.5,1.7-1.3v0c0-0.8-1-1.2-2.1-1.5
		c-1.3-0.4-2.8-0.8-2.8-2.4v0c0-1.4,1.2-2.4,2.8-2.4c1,0,2.1,0.4,3,0.9l-0.6,0.9c-0.8-0.5-1.7-0.8-2.5-0.8c-1,0-1.6,0.5-1.6,1.2v0
		c0,0.8,1,1.1,2.1,1.4c1.3,0.4,2.7,0.9,2.7,2.4v0c0,1.6-1.3,2.5-3,2.5C777.5,479.7,776.2,479.2,775.3,478.4z"/>
	<path fill="#0075C9" d="M784.3,477.3v-5h-1.2v-1.1h1.2v-2.5h1.2v2.5h2.6v1.1h-2.6v4.9c0,1,0.6,1.4,1.4,1.4c0.4,0,0.8-0.1,1.2-0.3
		v1.1c-0.4,0.2-0.9,0.4-1.5,0.4C785.3,479.7,784.3,479,784.3,477.3z"/>
	<path fill="#0075C9" d="M789.6,475.4L789.6,475.4c0-2.4,1.8-4.4,4.4-4.4c2.5,0,4.3,2,4.3,4.3v0c0,2.4-1.9,4.4-4.4,4.4
		C791.4,479.7,789.6,477.7,789.6,475.4z M797,475.4L797,475.4c0-1.8-1.3-3.3-3.1-3.3c-1.8,0-3,1.5-3,3.2v0c0,1.8,1.3,3.2,3.1,3.2
		C795.8,478.6,797,477.1,797,475.4z"/>
	<path fill="#0075C9" d="M800.6,471.2h1.2v2.2c0.6-1.4,1.8-2.4,3.4-2.3v1.3h-0.1c-1.8,0-3.3,1.3-3.3,3.8v3.3h-1.2V471.2z"/>
	<path fill="#0075C9" d="M806.1,477.1L806.1,477.1c0-1.8,1.5-2.7,3.6-2.7c1.1,0,1.8,0.1,2.6,0.4v-0.3c0-1.5-0.9-2.3-2.5-2.3
		c-1,0-1.8,0.3-2.5,0.6l-0.4-1c0.9-0.4,1.8-0.7,3-0.7c1.2,0,2.1,0.3,2.7,0.9c0.6,0.6,0.9,1.4,0.9,2.4v5.1h-1.2v-1.3
		c-0.6,0.8-1.5,1.4-3,1.4C807.6,479.7,806.1,478.8,806.1,477.1z M812.2,476.4v-0.8c-0.6-0.2-1.4-0.4-2.5-0.4c-1.6,0-2.4,0.7-2.4,1.7
		v0c0,1,1,1.7,2.1,1.7C810.9,478.7,812.2,477.8,812.2,476.4z"/>
	<path fill="#0075C9" d="M816.2,468.2h3.9c3.5,0,6,2.4,6,5.6v0c0,3.2-2.5,5.6-6,5.6h-3.9V468.2z M817.5,469.4v8.9h2.6
		c2.9,0,4.7-1.9,4.7-4.4v0c0-2.5-1.8-4.5-4.7-4.5H817.5z"/>
	<path fill="#0075C9" d="M828.1,475.4L828.1,475.4c0-2.4,1.7-4.4,4-4.4c2.5,0,3.9,2,3.9,4.4c0,0.2,0,0.3,0,0.4h-6.6
		c0.2,1.8,1.5,2.8,2.9,2.8c1.1,0,2-0.5,2.6-1.2l0.8,0.7c-0.8,0.9-1.9,1.6-3.4,1.6C830,479.7,828.1,477.9,828.1,475.4z M834.8,474.9
		c-0.1-1.5-1-2.8-2.7-2.8c-1.5,0-2.5,1.2-2.7,2.8H834.8z"/>
	<path fill="#0075C9" d="M838.2,471.2h1.2v2.2c0.6-1.4,1.8-2.4,3.4-2.3v1.3h-0.1c-1.8,0-3.3,1.3-3.3,3.8v3.3h-1.2V471.2z"/>
	<path fill="#0075C9" d="M844.7,471.2h1.2v1.4c0.5-0.8,1.3-1.6,2.7-1.6c1.4,0,2.2,0.7,2.7,1.7c0.6-0.9,1.5-1.7,2.9-1.7
		c1.9,0,3.1,1.3,3.1,3.4v5.2h-1.2v-4.9c0-1.6-0.8-2.5-2.2-2.5c-1.3,0-2.3,0.9-2.3,2.6v4.8h-1.2v-4.9c0-1.6-0.8-2.5-2.1-2.5
		c-1.3,0-2.3,1.1-2.3,2.6v4.8h-1.2V471.2z"/>
	<path fill="#0075C9" d="M859.1,470.9L859.1,470.9c0-1.5,1.2-2.8,2.8-2.8c1.6,0,2.8,1.3,2.8,2.8v0c0,1.5-1.2,2.8-2.8,2.8
		C860.4,473.7,859.1,472.4,859.1,470.9z M864.4,470.9L864.4,470.9c0-1.4-1.1-2.5-2.5-2.5c-1.4,0-2.5,1.1-2.5,2.5v0
		c0,1.4,1.1,2.5,2.5,2.5C863.4,473.4,864.4,472.3,864.4,470.9z M860.9,469.4h1.3c0.6,0,1.1,0.3,1.1,0.9c0,0.5-0.3,0.8-0.7,0.9
		l0.8,1.1h-0.7l-0.7-1h-0.6v1h-0.5V469.4z M862.1,470.8c0.4,0,0.6-0.2,0.6-0.5c0-0.3-0.2-0.5-0.6-0.5h-0.7v0.9H862.1z"/>
	<path fill="#0075C9" d="M870.9,477.9l0.8-0.9c1.2,1.1,2.3,1.6,3.9,1.6c1.5,0,2.5-0.8,2.5-1.9v0c0-1-0.6-1.6-2.9-2.1
		c-2.6-0.6-3.8-1.4-3.8-3.3v0c0-1.8,1.6-3.1,3.7-3.1c1.6,0,2.8,0.5,4,1.4l-0.7,1c-1-0.9-2.1-1.2-3.3-1.2c-1.5,0-2.4,0.8-2.4,1.8v0
		c0,1.1,0.6,1.7,3.1,2.2c2.5,0.5,3.7,1.5,3.7,3.2v0c0,1.9-1.6,3.2-3.9,3.2C873.7,479.7,872.2,479.1,870.9,477.9z"/>
	<path fill="#0075C9" d="M881.8,467.7h1.2v8.1l4.5-4.7h1.5l-3.5,3.6l3.6,4.8h-1.5l-3-3.9l-1.7,1.7v2.2h-1.2V467.7z"/>
	<path fill="#0075C9" d="M891,468h1.4v1.4H891V468z M891,471.2h1.2v8.3H891V471.2z"/>
	<path fill="#0075C9" d="M895.2,471.2h1.2v1.5c0.5-0.9,1.4-1.6,2.9-1.6c2,0,3.2,1.4,3.2,3.3v5.2h-1.2v-4.9c0-1.5-0.8-2.5-2.3-2.5
		c-1.4,0-2.5,1-2.5,2.6v4.8h-1.2V471.2z"/>
	<path fill="#0075C9" d="M910.2,468.2h4.9c1.4,0,2.5,0.4,3.2,1.1c0.5,0.5,0.9,1.3,0.9,2.2v0c0,1.9-1.3,3-3.1,3.3l3.5,4.6h-1.6
		l-3.3-4.4h-3.2v4.4h-1.3V468.2z M914.9,474c1.7,0,2.9-0.9,2.9-2.3v0c0-1.4-1.1-2.2-2.9-2.2h-3.5v4.6H914.9z"/>
	<path fill="#0075C9" d="M920.9,475.4L920.9,475.4c0-2.4,1.7-4.4,4-4.4c2.5,0,3.9,2,3.9,4.4c0,0.2,0,0.3,0,0.4h-6.6
		c0.2,1.8,1.5,2.8,2.9,2.8c1.1,0,2-0.5,2.6-1.2l0.8,0.7c-0.8,0.9-1.9,1.6-3.4,1.6C922.8,479.7,920.9,477.9,920.9,475.4z
		 M927.6,474.9c-0.1-1.5-1-2.8-2.7-2.8c-1.5,0-2.5,1.2-2.7,2.8H927.6z"/>
	<path fill="#0075C9" d="M930.3,478.4l0.6-0.9c0.9,0.7,1.9,1.1,2.9,1.1c1,0,1.7-0.5,1.7-1.3v0c0-0.8-1-1.2-2.1-1.5
		c-1.3-0.4-2.8-0.8-2.8-2.4v0c0-1.4,1.2-2.4,2.8-2.4c1,0,2.1,0.4,3,0.9l-0.6,0.9c-0.8-0.5-1.7-0.8-2.5-0.8c-1,0-1.6,0.5-1.6,1.2v0
		c0,0.8,1,1.1,2.1,1.4c1.3,0.4,2.7,0.9,2.7,2.4v0c0,1.6-1.3,2.5-3,2.5C932.6,479.7,931.3,479.2,930.3,478.4z"/>
	<path fill="#0075C9" d="M939.3,477.3v-5h-1.2v-1.1h1.2v-2.5h1.2v2.5h2.6v1.1h-2.6v4.9c0,1,0.6,1.4,1.4,1.4c0.4,0,0.8-0.1,1.2-0.3
		v1.1c-0.4,0.2-0.9,0.4-1.5,0.4C940.3,479.7,939.3,479,939.3,477.3z"/>
	<path fill="#0075C9" d="M944.6,475.4L944.6,475.4c0-2.4,1.8-4.4,4.4-4.4c2.5,0,4.3,2,4.3,4.3v0c0,2.4-1.9,4.4-4.4,4.4
		C946.5,479.7,944.6,477.7,944.6,475.4z M952.1,475.4L952.1,475.4c0-1.8-1.3-3.3-3.1-3.3c-1.8,0-3,1.5-3,3.2v0
		c0,1.8,1.3,3.2,3.1,3.2C950.8,478.6,952.1,477.1,952.1,475.4z"/>
	<path fill="#0075C9" d="M955.6,471.2h1.2v2.2c0.6-1.4,1.8-2.4,3.4-2.3v1.3h-0.1c-1.8,0-3.3,1.3-3.3,3.8v3.3h-1.2V471.2z"/>
	<path fill="#0075C9" d="M962.2,468h1.4v1.4h-1.4V468z M962.2,471.2h1.2v8.3h-1.2V471.2z"/>
	<path fill="#0075C9" d="M966.4,471.2h1.2v1.5c0.5-0.9,1.4-1.6,2.9-1.6c2,0,3.2,1.4,3.2,3.3v5.2h-1.2v-4.9c0-1.5-0.8-2.5-2.3-2.5
		c-1.4,0-2.5,1-2.5,2.6v4.8h-1.2V471.2z"/>
	<path fill="#0075C9" d="M976.2,481l0.6-1c1,0.7,2,1.1,3.2,1.1c1.8,0,3-1,3-3v-1c-0.7,1-1.7,1.8-3.3,1.8c-2,0-3.9-1.5-3.9-3.9v0
		c0-2.4,1.9-3.9,3.9-3.9c1.6,0,2.6,0.8,3.3,1.7v-1.5h1.2v6.9c0,1.3-0.4,2.3-1.1,3c-0.7,0.7-1.9,1.1-3.2,1.1
		C978.6,482.1,977.3,481.7,976.2,481z M983,474.9L983,474.9c0-1.7-1.5-2.9-3.1-2.9c-1.6,0-2.9,1.1-2.9,2.8v0c0,1.7,1.3,2.8,2.9,2.8
		C981.6,477.8,983,476.6,983,474.9z"/>
	<path fill="#0075C9" d="M1.6,487.6h4.8c1.3,0,2.3,0.4,3,1c0.5,0.5,0.7,1.1,0.7,1.8v0c0,1.5-0.9,2.2-1.8,2.6
		c1.3,0.4,2.4,1.2,2.4,2.7v0c0,1.9-1.6,3.1-4.1,3.1h-5V487.6z M8.8,490.6c0-1.1-0.9-1.8-2.5-1.8H2.9v3.9h3.3
		C7.7,492.6,8.8,491.9,8.8,490.6L8.8,490.6z M6.4,493.7H2.9v4h3.8c1.7,0,2.8-0.8,2.8-2v0C9.4,494.5,8.4,493.7,6.4,493.7z"/>
	<path fill="#0075C9" d="M12.5,494.7L12.5,494.7c0-2.4,1.8-4.4,4.4-4.4c2.5,0,4.3,2,4.3,4.3v0c0,2.4-1.9,4.4-4.4,4.4
		C14.3,499.1,12.5,497.1,12.5,494.7z M19.9,494.7L19.9,494.7c0-1.8-1.3-3.3-3.1-3.3c-1.8,0-3,1.5-3,3.2v0c0,1.8,1.3,3.2,3.1,3.2
		C18.7,498,19.9,496.5,19.9,494.7z"/>
	<path fill="#0075C9" d="M23,494.7L23,494.7c0-2.8,2-4.4,4-4.4c1.5,0,2.5,0.8,3.2,1.8v-5h1.2v11.8h-1.2v-1.7c-0.7,1-1.7,1.9-3.2,1.9
		C25,499,23,497.5,23,494.7z M30.2,494.7L30.2,494.7c0-2-1.5-3.2-3-3.2c-1.6,0-2.9,1.2-2.9,3.2v0c0,2,1.4,3.2,2.9,3.2
		C28.7,497.9,30.2,496.6,30.2,494.7z"/>
	<path fill="#0075C9" d="M40.4,490.5h1.3l-3.5,8.6c-0.7,1.7-1.5,2.4-2.8,2.4c-0.7,0-1.2-0.1-1.8-0.4l0.4-1c0.4,0.2,0.8,0.3,1.3,0.3
		c0.7,0,1.2-0.4,1.7-1.6l-3.8-8.3h1.4l3,7L40.4,490.5z"/>
	<path fill="#0075C9" d="M47.9,487.6h1.4l3.2,9.4l3.1-9.4h1l3.1,9.4l3.2-9.4h1.3l-4,11.4h-1.1l-3.1-9.2L53,499h-1.1L47.9,487.6z"/>
	<path fill="#0075C9" d="M64.7,496.5L64.7,496.5c0-1.8,1.5-2.7,3.6-2.7c1.1,0,1.8,0.1,2.6,0.4v-0.3c0-1.5-0.9-2.3-2.5-2.3
		c-1,0-1.8,0.3-2.5,0.6l-0.4-1c0.9-0.4,1.8-0.7,3-0.7c1.2,0,2.1,0.3,2.7,0.9c0.6,0.6,0.9,1.4,0.9,2.4v5.1h-1.2v-1.3
		c-0.6,0.8-1.5,1.4-3,1.4C66.2,499,64.7,498.2,64.7,496.5z M70.8,495.8V495c-0.6-0.2-1.4-0.4-2.5-0.4c-1.6,0-2.4,0.7-2.4,1.7v0
		c0,1,1,1.7,2.1,1.7C69.5,498.1,70.8,497.1,70.8,495.8z"/>
	<path fill="#0075C9" d="M73.9,497.8l0.6-0.9c0.9,0.7,1.9,1.1,2.9,1.1c1,0,1.7-0.5,1.7-1.3v0c0-0.8-1-1.2-2.1-1.5
		c-1.3-0.4-2.8-0.8-2.8-2.4v0c0-1.4,1.2-2.4,2.8-2.4c1,0,2.1,0.4,3,0.9l-0.6,0.9c-0.8-0.5-1.7-0.8-2.5-0.8c-1,0-1.6,0.5-1.6,1.2v0
		c0,0.8,1,1.1,2.1,1.4c1.3,0.4,2.7,0.9,2.7,2.4v0c0,1.6-1.3,2.5-3,2.5C76.2,499,74.9,498.6,73.9,497.8z"/>
	<path fill="#0075C9" d="M82.7,487.1h1.2v4.9c0.5-0.9,1.4-1.6,2.9-1.6c2,0,3.2,1.4,3.2,3.3v5.2h-1.2V494c0-1.5-0.8-2.5-2.3-2.5
		c-1.4,0-2.5,1-2.5,2.6v4.8h-1.2V487.1z"/>
	<path fill="#0075C9" d="M96.8,496.5L96.8,496.5c0-1.8,1.5-2.7,3.6-2.7c1.1,0,1.8,0.1,2.6,0.4v-0.3c0-1.5-0.9-2.3-2.5-2.3
		c-1,0-1.8,0.3-2.5,0.6l-0.4-1c0.9-0.4,1.8-0.7,3-0.7c1.2,0,2.1,0.3,2.7,0.9c0.6,0.6,0.9,1.4,0.9,2.4v5.1h-1.2v-1.3
		c-0.6,0.8-1.5,1.4-3,1.4C98.4,499,96.8,498.2,96.8,496.5z M103,495.8V495c-0.6-0.2-1.4-0.4-2.5-0.4c-1.6,0-2.4,0.7-2.4,1.7v0
		c0,1,1,1.7,2.1,1.7C101.7,498.1,103,497.1,103,495.8z"/>
	<path fill="#0075C9" d="M106.8,490.5h1.2v1.5c0.5-0.9,1.4-1.6,2.9-1.6c2,0,3.2,1.4,3.2,3.3v5.2h-1.2V494c0-1.5-0.8-2.5-2.3-2.5
		c-1.4,0-2.5,1-2.5,2.6v4.8h-1.2V490.5z"/>
	<path fill="#0075C9" d="M116.2,494.7L116.2,494.7c0-2.8,2-4.4,4-4.4c1.5,0,2.5,0.8,3.2,1.8v-5h1.2v11.8h-1.2v-1.7
		c-0.7,1-1.7,1.9-3.2,1.9C118.2,499,116.2,497.5,116.2,494.7z M123.5,494.7L123.5,494.7c0-2-1.5-3.2-3-3.2c-1.6,0-2.9,1.2-2.9,3.2v0
		c0,2,1.4,3.2,2.9,3.2C122,497.9,123.5,496.6,123.5,494.7z"/>
	<path fill="#0075C9" d="M132.5,487.6h1.3l4.1,6.2l4.1-6.2h1.3v11.3H142v-9.1l-4.1,6h-0.1l-4.1-6v9.1h-1.2V487.6z"/>
	<path fill="#0075C9" d="M145.8,494.7L145.8,494.7c0-2.4,1.8-4.4,4.4-4.4c2.5,0,4.3,2,4.3,4.3v0c0,2.4-1.9,4.4-4.4,4.4
		C147.6,499.1,145.8,497.1,145.8,494.7z M153.2,494.7L153.2,494.7c0-1.8-1.3-3.3-3.1-3.3c-1.8,0-3,1.5-3,3.2v0
		c0,1.8,1.3,3.2,3.1,3.2C151.9,498,153.2,496.5,153.2,494.7z"/>
	<path fill="#0075C9" d="M156.7,487.3h1.4v1.4h-1.4V487.3z M156.8,490.5h1.2v8.3h-1.2V490.5z"/>
	<path fill="#0075C9" d="M160.3,497.8l0.6-0.9c0.9,0.7,1.9,1.1,2.9,1.1c1,0,1.7-0.5,1.7-1.3v0c0-0.8-1-1.2-2.1-1.5
		c-1.3-0.4-2.8-0.8-2.8-2.4v0c0-1.4,1.2-2.4,2.8-2.4c1,0,2.1,0.4,3,0.9l-0.6,0.9c-0.8-0.5-1.7-0.8-2.5-0.8c-1,0-1.6,0.5-1.6,1.2v0
		c0,0.8,1,1.1,2.1,1.4c1.3,0.4,2.7,0.9,2.7,2.4v0c0,1.6-1.3,2.5-3,2.5C162.5,499,161.2,498.6,160.3,497.8z"/>
	<path fill="#0075C9" d="M169.3,496.7v-5h-1.2v-1.1h1.2V488h1.2v2.5h2.6v1.1h-2.6v4.9c0,1,0.6,1.4,1.4,1.4c0.4,0,0.8-0.1,1.2-0.3
		v1.1c-0.4,0.2-0.9,0.4-1.5,0.4C170.3,499,169.3,498.4,169.3,496.7z"/>
	<path fill="#0075C9" d="M175.2,495.7v-5.2h1.2v4.9c0,1.5,0.8,2.5,2.3,2.5c1.4,0,2.5-1,2.5-2.6v-4.8h1.2v8.3h-1.2v-1.5
		c-0.6,0.9-1.4,1.6-2.9,1.6C176.4,499,175.2,497.7,175.2,495.7z"/>
	<path fill="#0075C9" d="M185.3,490.5h1.2v2.2c0.6-1.4,1.8-2.4,3.4-2.3v1.3h-0.1c-1.8,0-3.3,1.3-3.3,3.8v3.3h-1.2V490.5z"/>
	<path fill="#0075C9" d="M191.8,487.3h1.4v1.4h-1.4V487.3z M191.9,490.5h1.2v8.3h-1.2V490.5z"/>
	<path fill="#0075C9" d="M195.6,498.1l5.5-6.5h-5.3v-1h7v0.8l-5.5,6.5h5.5v1h-7.2V498.1z"/>
	<path fill="#0075C9" d="M204.3,494.7L204.3,494.7c0-2.4,1.7-4.4,4-4.4c2.5,0,3.9,2,3.9,4.4c0,0.2,0,0.3,0,0.4h-6.6
		c0.2,1.8,1.5,2.8,2.9,2.8c1.1,0,2-0.5,2.6-1.2l0.8,0.7c-0.8,0.9-1.9,1.6-3.4,1.6C206.1,499.1,204.3,497.3,204.3,494.7z
		 M210.9,494.2c-0.1-1.5-1-2.8-2.7-2.8c-1.5,0-2.5,1.2-2.7,2.8H210.9z"/>
	<path fill="#0075C9" d="M214.3,490.5h1.2v2.2c0.6-1.4,1.8-2.4,3.4-2.3v1.3h-0.1c-1.8,0-3.3,1.3-3.3,3.8v3.3h-1.2V490.5z"/>
	<path fill="#0075C9" d="M226.2,491.6H225v-1.1h1.1v-0.7c0-1,0.3-1.7,0.7-2.1c0.4-0.4,1-0.6,1.8-0.6c0.6,0,1,0.1,1.4,0.2v1.1
		c-0.5-0.1-0.8-0.2-1.2-0.2c-1,0-1.5,0.6-1.5,1.8v0.7h2.6v1.1h-2.6v7.2h-1.2V491.6z"/>
	<path fill="#0075C9" d="M231,494.7L231,494.7c0-2.4,1.8-4.4,4.4-4.4c2.5,0,4.3,2,4.3,4.3v0c0,2.4-1.9,4.4-4.4,4.4
		C232.8,499.1,231,497.1,231,494.7z M238.4,494.7L238.4,494.7c0-1.8-1.3-3.3-3.1-3.3c-1.8,0-3,1.5-3,3.2v0c0,1.8,1.3,3.2,3.1,3.2
		C237.1,498,238.4,496.5,238.4,494.7z"/>
	<path fill="#0075C9" d="M241.9,490.5h1.2v2.2c0.6-1.4,1.8-2.4,3.4-2.3v1.3h-0.1c-1.8,0-3.3,1.3-3.3,3.8v3.3h-1.2V490.5z"/>
	<path fill="#0075C9" d="M258.9,496.2h-6l-0.3-0.9l6.4-7.8h1.1v7.6h1.7v1.1h-1.7v2.7h-1.2V496.2z M258.9,495.1v-5.8l-4.7,5.8H258.9z
		"/>
	<path fill="#0075C9" d="M268.2,490.5h1.3l2.2,6.7l2.2-6.7h1l2.3,6.7l2.2-6.7h1.3l-2.9,8.4h-1.1l-2.2-6.6l-2.3,6.6h-1.1L268.2,490.5
		z"/>
	<path fill="#0075C9" d="M281.9,494.7L281.9,494.7c0-2.4,1.7-4.4,4-4.4c2.5,0,3.9,2,3.9,4.4c0,0.2,0,0.3,0,0.4h-6.6
		c0.2,1.8,1.5,2.8,2.9,2.8c1.1,0,2-0.5,2.6-1.2l0.8,0.7c-0.8,0.9-1.9,1.6-3.4,1.6C283.8,499.1,281.9,497.3,281.9,494.7z
		 M288.5,494.2c-0.1-1.5-1-2.8-2.7-2.8c-1.5,0-2.5,1.2-2.7,2.8H288.5z"/>
	<path fill="#0075C9" d="M291.5,494.7L291.5,494.7c0-2.4,1.7-4.4,4-4.4c2.5,0,3.9,2,3.9,4.4c0,0.2,0,0.3,0,0.4h-6.6
		c0.2,1.8,1.5,2.8,2.9,2.8c1.1,0,2-0.5,2.6-1.2l0.8,0.7c-0.8,0.9-1.9,1.6-3.4,1.6C293.3,499.1,291.5,497.3,291.5,494.7z
		 M298.1,494.2c-0.1-1.5-1-2.8-2.7-2.8c-1.5,0-2.5,1.2-2.7,2.8H298.1z"/>
	<path fill="#0075C9" d="M301.5,487.1h1.2v8.1l4.5-4.7h1.5l-3.5,3.6l3.6,4.8h-1.5l-3-3.9l-1.7,1.7v2.2h-1.2V487.1z"/>
	<path fill="#0075C9" d="M310,497.8l0.6-0.9c0.9,0.7,1.9,1.1,2.9,1.1c1,0,1.7-0.5,1.7-1.3v0c0-0.8-1-1.2-2.1-1.5
		c-1.3-0.4-2.8-0.8-2.8-2.4v0c0-1.4,1.2-2.4,2.8-2.4c1,0,2.1,0.4,3,0.9l-0.6,0.9c-0.8-0.5-1.7-0.8-2.5-0.8c-1,0-1.6,0.5-1.6,1.2v0
		c0,0.8,1,1.1,2.1,1.4c1.3,0.4,2.7,0.9,2.7,2.4v0c0,1.6-1.3,2.5-3,2.5C312.3,499,311,498.6,310,497.8z"/>
	<path fill="#0075C9" d="M318.6,497.2h1.5v1.7h-1.5V497.2z"/>
	<path fill="#0075C9" d="M331.9,487.5h1.2l5.1,11.4h-1.4l-1.3-3h-6.1l-1.3,3h-1.3L331.9,487.5z M335.1,494.7l-2.6-5.7l-2.6,5.7
		H335.1z"/>
	<path fill="#0075C9" d="M344.4,497.8l0.6-0.9c0.9,0.7,1.9,1.1,2.9,1.1c1,0,1.7-0.5,1.7-1.3v0c0-0.8-1-1.2-2.1-1.5
		c-1.3-0.4-2.8-0.8-2.8-2.4v0c0-1.4,1.2-2.4,2.8-2.4c1,0,2.1,0.4,3,0.9l-0.6,0.9c-0.8-0.5-1.7-0.8-2.5-0.8c-1,0-1.6,0.5-1.6,1.2v0
		c0,0.8,1,1.1,2.1,1.4c1.3,0.4,2.7,0.9,2.7,2.4v0c0,1.6-1.3,2.5-3,2.5C346.7,499,345.4,498.6,344.4,497.8z"/>
	<path fill="#0075C9" d="M353.2,487.3h1.4v1.4h-1.4V487.3z M353.3,490.5h1.2v8.3h-1.2V490.5z"/>
	<path fill="#0075C9" d="M357.4,490.5h1.2v1.5c0.5-0.9,1.4-1.6,2.9-1.6c2,0,3.2,1.4,3.2,3.3v5.2h-1.2V494c0-1.5-0.8-2.5-2.3-2.5
		c-1.4,0-2.5,1-2.5,2.6v4.8h-1.2V490.5z"/>
	<path fill="#0075C9" d="M367.2,500.3l0.6-1c1,0.7,2,1.1,3.2,1.1c1.8,0,3-1,3-3v-1c-0.7,1-1.7,1.8-3.3,1.8c-2,0-3.9-1.5-3.9-3.9v0
		c0-2.4,1.9-3.9,3.9-3.9c1.6,0,2.6,0.8,3.3,1.7v-1.5h1.2v6.9c0,1.3-0.4,2.3-1.1,3c-0.7,0.7-1.9,1.1-3.2,1.1
		C369.7,501.5,368.4,501.1,367.2,500.3z M374.1,494.3L374.1,494.3c0-1.7-1.5-2.9-3.1-2.9s-2.9,1.1-2.9,2.8v0c0,1.7,1.3,2.8,2.9,2.8
		C372.6,497.1,374.1,496,374.1,494.3z"/>
	<path fill="#0075C9" d="M378.2,487.1h1.2v11.8h-1.2V487.1z"/>
	<path fill="#0075C9" d="M381.8,494.7L381.8,494.7c0-2.4,1.7-4.4,4-4.4c2.5,0,3.9,2,3.9,4.4c0,0.2,0,0.3,0,0.4H383
		c0.2,1.8,1.5,2.8,2.9,2.8c1.1,0,2-0.5,2.6-1.2l0.8,0.7c-0.8,0.9-1.9,1.6-3.4,1.6C383.7,499.1,381.8,497.3,381.8,494.7z
		 M388.4,494.2c-0.1-1.5-1-2.8-2.7-2.8c-1.5,0-2.5,1.2-2.7,2.8H388.4z"/>
	<path fill="#0075C9" d="M396.7,490.5h1.2v1.4c0.5-0.8,1.3-1.6,2.7-1.6c1.4,0,2.2,0.7,2.7,1.7c0.6-0.9,1.5-1.7,2.9-1.7
		c1.9,0,3.1,1.3,3.1,3.4v5.2h-1.2V494c0-1.6-0.8-2.5-2.2-2.5c-1.3,0-2.3,0.9-2.3,2.6v4.8h-1.2V494c0-1.6-0.8-2.5-2.1-2.5
		c-1.3,0-2.3,1.1-2.3,2.6v4.8h-1.2V490.5z"/>
	<path fill="#0075C9" d="M411.5,494.7L411.5,494.7c0-2.4,1.7-4.4,4-4.4c2.5,0,3.9,2,3.9,4.4c0,0.2,0,0.3,0,0.4h-6.6
		c0.2,1.8,1.5,2.8,2.9,2.8c1.1,0,2-0.5,2.6-1.2l0.8,0.7c-0.8,0.9-1.9,1.6-3.4,1.6C413.4,499.1,411.5,497.3,411.5,494.7z
		 M418.2,494.2c-0.1-1.5-1-2.8-2.7-2.8c-1.5,0-2.5,1.2-2.7,2.8H418.2z"/>
	<path fill="#0075C9" d="M421,496.5L421,496.5c0-1.8,1.5-2.7,3.6-2.7c1.1,0,1.8,0.1,2.6,0.4v-0.3c0-1.5-0.9-2.3-2.5-2.3
		c-1,0-1.8,0.3-2.5,0.6l-0.4-1c0.9-0.4,1.8-0.7,3-0.7c1.2,0,2.1,0.3,2.7,0.9c0.6,0.6,0.9,1.4,0.9,2.4v5.1h-1.2v-1.3
		c-0.6,0.8-1.5,1.4-3,1.4C422.5,499,421,498.2,421,496.5z M427.1,495.8V495c-0.6-0.2-1.4-0.4-2.5-0.4c-1.6,0-2.4,0.7-2.4,1.7v0
		c0,1,1,1.7,2.1,1.7C425.9,498.1,427.1,497.1,427.1,495.8z"/>
	<path fill="#0075C9" d="M430.2,497.8l0.6-0.9c0.9,0.7,1.9,1.1,2.9,1.1c1,0,1.7-0.5,1.7-1.3v0c0-0.8-1-1.2-2.1-1.5
		c-1.3-0.4-2.8-0.8-2.8-2.4v0c0-1.4,1.2-2.4,2.8-2.4c1,0,2.1,0.4,3,0.9l-0.6,0.9c-0.8-0.5-1.7-0.8-2.5-0.8c-1,0-1.6,0.5-1.6,1.2v0
		c0,0.8,1,1.1,2.1,1.4c1.3,0.4,2.7,0.9,2.7,2.4v0c0,1.6-1.3,2.5-3,2.5C432.5,499,431.2,498.6,430.2,497.8z"/>
	<path fill="#0075C9" d="M438.8,495.7v-5.2h1.2v4.9c0,1.5,0.8,2.5,2.3,2.5c1.4,0,2.5-1,2.5-2.6v-4.8h1.2v8.3h-1.2v-1.5
		c-0.6,0.9-1.4,1.6-2.9,1.6C440,499,438.8,497.7,438.8,495.7z"/>
	<path fill="#0075C9" d="M448.9,490.5h1.2v2.2c0.6-1.4,1.8-2.4,3.4-2.3v1.3h-0.1c-1.8,0-3.3,1.3-3.3,3.8v3.3h-1.2V490.5z"/>
	<path fill="#0075C9" d="M454.6,494.7L454.6,494.7c0-2.4,1.7-4.4,4-4.4c2.5,0,3.9,2,3.9,4.4c0,0.2,0,0.3,0,0.4h-6.6
		c0.2,1.8,1.5,2.8,2.9,2.8c1.1,0,2-0.5,2.6-1.2l0.8,0.7c-0.8,0.9-1.9,1.6-3.4,1.6C456.4,499.1,454.6,497.3,454.6,494.7z
		 M461.2,494.2c-0.1-1.5-1-2.8-2.7-2.8c-1.5,0-2.5,1.2-2.7,2.8H461.2z"/>
	<path fill="#0075C9" d="M464.6,490.5h1.2v1.4c0.5-0.8,1.3-1.6,2.7-1.6c1.4,0,2.2,0.7,2.7,1.7c0.6-0.9,1.5-1.7,2.9-1.7
		c1.9,0,3.1,1.3,3.1,3.4v5.2H476V494c0-1.6-0.8-2.5-2.2-2.5c-1.3,0-2.3,0.9-2.3,2.6v4.8h-1.2V494c0-1.6-0.8-2.5-2.1-2.5
		c-1.3,0-2.3,1.1-2.3,2.6v4.8h-1.2V490.5z"/>
	<path fill="#0075C9" d="M479.5,494.7L479.5,494.7c0-2.4,1.7-4.4,4-4.4c2.5,0,3.9,2,3.9,4.4c0,0.2,0,0.3,0,0.4h-6.6
		c0.2,1.8,1.5,2.8,2.9,2.8c1.1,0,2-0.5,2.6-1.2l0.8,0.7c-0.8,0.9-1.9,1.6-3.4,1.6C481.3,499.1,479.5,497.3,479.5,494.7z
		 M486.1,494.2c-0.1-1.5-1-2.8-2.7-2.8c-1.5,0-2.5,1.2-2.7,2.8H486.1z"/>
	<path fill="#0075C9" d="M489.5,490.5h1.2v1.5c0.5-0.9,1.4-1.6,2.9-1.6c2,0,3.2,1.4,3.2,3.3v5.2h-1.2V494c0-1.5-0.8-2.5-2.3-2.5
		c-1.4,0-2.5,1-2.5,2.6v4.8h-1.2V490.5z"/>
	<path fill="#0075C9" d="M499.9,496.7v-5h-1.2v-1.1h1.2V488h1.2v2.5h2.6v1.1h-2.6v4.9c0,1,0.6,1.4,1.4,1.4c0.4,0,0.8-0.1,1.2-0.3
		v1.1c-0.4,0.2-0.9,0.4-1.5,0.4C500.9,499,499.9,498.4,499.9,496.7z"/>
	<path fill="#0075C9" d="M510.1,490.5h1.3l2.2,6.7l2.2-6.7h1l2.3,6.7l2.2-6.7h1.3l-2.9,8.4h-1.1l-2.2-6.6l-2.3,6.6H513L510.1,490.5z
		"/>
	<path fill="#0075C9" d="M523.8,496.5L523.8,496.5c0-1.8,1.5-2.7,3.6-2.7c1.1,0,1.8,0.1,2.6,0.4v-0.3c0-1.5-0.9-2.3-2.5-2.3
		c-1,0-1.8,0.3-2.5,0.6l-0.4-1c0.9-0.4,1.8-0.7,3-0.7c1.2,0,2.1,0.3,2.7,0.9c0.6,0.6,0.9,1.4,0.9,2.4v5.1h-1.2v-1.3
		c-0.6,0.8-1.5,1.4-3,1.4C525.3,499,523.8,498.2,523.8,496.5z M529.9,495.8V495c-0.6-0.2-1.4-0.4-2.5-0.4c-1.6,0-2.4,0.7-2.4,1.7v0
		c0,1,1,1.7,2.1,1.7C528.7,498.1,529.9,497.1,529.9,495.8z"/>
	<path fill="#0075C9" d="M533.1,497.8l0.6-0.9c0.9,0.7,1.9,1.1,2.9,1.1c1,0,1.7-0.5,1.7-1.3v0c0-0.8-1-1.2-2.1-1.5
		c-1.3-0.4-2.8-0.8-2.8-2.4v0c0-1.4,1.2-2.4,2.8-2.4c1,0,2.1,0.4,3,0.9l-0.6,0.9c-0.8-0.5-1.7-0.8-2.5-0.8c-1,0-1.6,0.5-1.6,1.2v0
		c0,0.8,1,1.1,2.1,1.4c1.3,0.4,2.7,0.9,2.7,2.4v0c0,1.6-1.3,2.5-3,2.5C535.3,499,534,498.6,533.1,497.8z"/>
	<path fill="#0075C9" d="M547.1,496.7v-5h-1.2v-1.1h1.2V488h1.2v2.5h2.6v1.1h-2.6v4.9c0,1,0.6,1.4,1.4,1.4c0.4,0,0.8-0.1,1.2-0.3
		v1.1c-0.4,0.2-0.9,0.4-1.5,0.4C548.1,499,547.1,498.4,547.1,496.7z"/>
	<path fill="#0075C9" d="M552.5,496.5L552.5,496.5c0-1.8,1.5-2.7,3.6-2.7c1.1,0,1.8,0.1,2.6,0.4v-0.3c0-1.5-0.9-2.3-2.5-2.3
		c-1,0-1.8,0.3-2.5,0.6l-0.4-1c0.9-0.4,1.8-0.7,3-0.7c1.2,0,2.1,0.3,2.7,0.9c0.6,0.6,0.9,1.4,0.9,2.4v5.1h-1.2v-1.3
		c-0.6,0.8-1.5,1.4-3,1.4C554.1,499,552.5,498.2,552.5,496.5z M558.7,495.8V495c-0.6-0.2-1.4-0.4-2.5-0.4c-1.6,0-2.4,0.7-2.4,1.7v0
		c0,1,1,1.7,2.1,1.7C557.4,498.1,558.7,497.1,558.7,495.8z"/>
	<path fill="#0075C9" d="M562.5,487.1h1.2v8.1l4.5-4.7h1.5l-3.5,3.6l3.6,4.8h-1.5l-3-3.9l-1.7,1.7v2.2h-1.2V487.1z"/>
	<path fill="#0075C9" d="M570.7,494.7L570.7,494.7c0-2.4,1.7-4.4,4-4.4c2.5,0,3.9,2,3.9,4.4c0,0.2,0,0.3,0,0.4H572
		c0.2,1.8,1.5,2.8,2.9,2.8c1.1,0,2-0.5,2.6-1.2l0.8,0.7c-0.8,0.9-1.9,1.6-3.4,1.6C572.6,499.1,570.7,497.3,570.7,494.7z
		 M577.4,494.2c-0.1-1.5-1-2.8-2.7-2.8c-1.5,0-2.5,1.2-2.7,2.8H577.4z"/>
	<path fill="#0075C9" d="M580.8,490.5h1.2v1.5c0.5-0.9,1.4-1.6,2.9-1.6c2,0,3.2,1.4,3.2,3.3v5.2h-1.2V494c0-1.5-0.8-2.5-2.3-2.5
		c-1.4,0-2.5,1-2.5,2.6v4.8h-1.2V490.5z"/>
	<path fill="#0075C9" d="M595.1,494.7L595.1,494.7c0-2.4,1.8-4.4,4.4-4.4c2.5,0,4.3,2,4.3,4.3v0c0,2.4-1.9,4.4-4.4,4.4
		C596.9,499.1,595.1,497.1,595.1,494.7z M602.5,494.7L602.5,494.7c0-1.8-1.3-3.3-3.1-3.3c-1.8,0-3,1.5-3,3.2v0
		c0,1.8,1.3,3.2,3.1,3.2C601.2,498,602.5,496.5,602.5,494.7z"/>
	<path fill="#0075C9" d="M606,490.5h1.2v1.5c0.5-0.9,1.4-1.6,2.9-1.6c2,0,3.2,1.4,3.2,3.3v5.2h-1.2V494c0-1.5-0.8-2.5-2.3-2.5
		c-1.4,0-2.5,1-2.5,2.6v4.8H606V490.5z"/>
	<path fill="#0075C9" d="M621.2,496.7v-5h-1.2v-1.1h1.2V488h1.2v2.5h2.6v1.1h-2.6v4.9c0,1,0.6,1.4,1.4,1.4c0.4,0,0.8-0.1,1.2-0.3
		v1.1c-0.4,0.2-0.9,0.4-1.5,0.4C622.3,499,621.2,498.4,621.2,496.7z"/>
	<path fill="#0075C9" d="M627.3,487.1h1.2v4.9c0.5-0.9,1.4-1.6,2.9-1.6c2,0,3.2,1.4,3.2,3.3v5.2h-1.2V494c0-1.5-0.8-2.5-2.3-2.5
		c-1.4,0-2.5,1-2.5,2.6v4.8h-1.2V487.1z"/>
	<path fill="#0075C9" d="M636.7,494.7L636.7,494.7c0-2.4,1.7-4.4,4-4.4c2.5,0,3.9,2,3.9,4.4c0,0.2,0,0.3,0,0.4H638
		c0.2,1.8,1.5,2.8,2.9,2.8c1.1,0,2-0.5,2.6-1.2l0.8,0.7c-0.8,0.9-1.9,1.6-3.4,1.6C638.6,499.1,636.7,497.3,636.7,494.7z
		 M643.4,494.2c-0.1-1.5-1-2.8-2.7-2.8c-1.5,0-2.5,1.2-2.7,2.8H643.4z"/>
	<path fill="#0075C9" d="M651.8,487.1h1.2v11.8h-1.2V487.1z"/>
	<path fill="#0075C9" d="M655.4,494.7L655.4,494.7c0-2.4,1.7-4.4,4-4.4c2.5,0,3.9,2,3.9,4.4c0,0.2,0,0.3,0,0.4h-6.6
		c0.2,1.8,1.5,2.8,2.9,2.8c1.1,0,2-0.5,2.6-1.2l0.8,0.7c-0.8,0.9-1.9,1.6-3.4,1.6C657.2,499.1,655.4,497.3,655.4,494.7z M662,494.2
		c-0.1-1.5-1-2.8-2.7-2.8c-1.5,0-2.5,1.2-2.7,2.8H662z"/>
	<path fill="#0075C9" d="M665.3,500.3l0.6-1c1,0.7,2,1.1,3.2,1.1c1.8,0,3-1,3-3v-1c-0.7,1-1.7,1.8-3.3,1.8c-2,0-3.9-1.5-3.9-3.9v0
		c0-2.4,1.9-3.9,3.9-3.9c1.6,0,2.6,0.8,3.3,1.7v-1.5h1.2v6.9c0,1.3-0.4,2.3-1.1,3c-0.7,0.7-1.9,1.1-3.2,1.1
		C667.8,501.5,666.5,501.1,665.3,500.3z M672.2,494.3L672.2,494.3c0-1.7-1.5-2.9-3.1-2.9c-1.6,0-2.9,1.1-2.9,2.8v0
		c0,1.7,1.3,2.8,2.9,2.8C670.7,497.1,672.2,496,672.2,494.3z"/>
	<path fill="#0075C9" d="M680.4,496.5L680.4,496.5c0-1.8,1.5-2.7,3.6-2.7c1.1,0,1.8,0.1,2.6,0.4v-0.3c0-1.5-0.9-2.3-2.5-2.3
		c-1,0-1.8,0.3-2.5,0.6l-0.4-1c0.9-0.4,1.8-0.7,3-0.7c1.2,0,2.1,0.3,2.7,0.9c0.6,0.6,0.9,1.4,0.9,2.4v5.1h-1.2v-1.3
		c-0.6,0.8-1.5,1.4-3,1.4C681.9,499,680.4,498.2,680.4,496.5z M686.5,495.8V495c-0.6-0.2-1.4-0.4-2.5-0.4c-1.6,0-2.4,0.7-2.4,1.7v0
		c0,1,1,1.7,2.1,1.7C685.3,498.1,686.5,497.1,686.5,495.8z"/>
	<path fill="#0075C9" d="M690.7,496.7v-5h-1.2v-1.1h1.2V488h1.2v2.5h2.6v1.1h-2.6v4.9c0,1,0.6,1.4,1.4,1.4c0.4,0,0.8-0.1,1.2-0.3
		v1.1c-0.4,0.2-0.9,0.4-1.5,0.4C691.7,499,690.7,498.4,690.7,496.7z"/>
	<path fill="#0075C9" d="M701.1,494.7L701.1,494.7c0-2.4,1.7-4.4,4-4.4c2.5,0,3.9,2,3.9,4.4c0,0.2,0,0.3,0,0.4h-6.6
		c0.2,1.8,1.5,2.8,2.9,2.8c1.1,0,2-0.5,2.6-1.2l0.8,0.7c-0.8,0.9-1.9,1.6-3.4,1.6C703,499.1,701.1,497.3,701.1,494.7z M707.7,494.2
		c-0.1-1.5-1-2.8-2.7-2.8c-1.5,0-2.5,1.2-2.7,2.8H707.7z"/>
	<path fill="#0075C9" d="M710.5,496.5L710.5,496.5c0-1.8,1.5-2.7,3.6-2.7c1.1,0,1.8,0.1,2.6,0.4v-0.3c0-1.5-0.9-2.3-2.5-2.3
		c-1,0-1.8,0.3-2.5,0.6l-0.4-1c0.9-0.4,1.8-0.7,3-0.7c1.2,0,2.1,0.3,2.7,0.9c0.6,0.6,0.9,1.4,0.9,2.4v5.1h-1.2v-1.3
		c-0.6,0.8-1.5,1.4-3,1.4C712.1,499,710.5,498.2,710.5,496.5z M716.7,495.8V495c-0.6-0.2-1.4-0.4-2.5-0.4c-1.6,0-2.4,0.7-2.4,1.7v0
		c0,1,1,1.7,2.1,1.7C715.4,498.1,716.7,497.1,716.7,495.8z"/>
	<path fill="#0075C9" d="M720,494.7L720,494.7c0-2.4,1.8-4.4,4.3-4.4c1.6,0,2.6,0.7,3.3,1.5l-0.8,0.9c-0.7-0.7-1.4-1.3-2.5-1.3
		c-1.7,0-3,1.4-3,3.2v0c0,1.8,1.3,3.2,3.1,3.2c1.1,0,1.9-0.5,2.5-1.2l0.8,0.7c-0.8,0.9-1.8,1.6-3.4,1.6
		C721.8,499.1,720,497.1,720,494.7z"/>
	<path fill="#0075C9" d="M729.7,487.1h1.2v4.9c0.5-0.9,1.4-1.6,2.9-1.6c2,0,3.2,1.4,3.2,3.3v5.2h-1.2V494c0-1.5-0.8-2.5-2.3-2.5
		c-1.4,0-2.5,1-2.5,2.6v4.8h-1.2V487.1z"/>
	<path fill="#0075C9" d="M743.7,490.5h1.4l2.8,6.9l2.8-6.9h1.3l-3.6,8.4h-1.1L743.7,490.5z"/>
	<path fill="#0075C9" d="M754,487.3h1.4v1.4H754V487.3z M754.1,490.5h1.2v8.3h-1.2V490.5z"/>
	<path fill="#0075C9" d="M757.5,497.8l0.6-0.9c0.9,0.7,1.9,1.1,2.9,1.1c1,0,1.7-0.5,1.7-1.3v0c0-0.8-1-1.2-2.1-1.5
		c-1.3-0.4-2.8-0.8-2.8-2.4v0c0-1.4,1.2-2.4,2.8-2.4c1,0,2.1,0.4,3,0.9l-0.6,0.9c-0.8-0.5-1.7-0.8-2.5-0.8c-1,0-1.6,0.5-1.6,1.2v0
		c0,0.8,1,1.1,2.1,1.4c1.3,0.4,2.7,0.9,2.7,2.4v0c0,1.6-1.3,2.5-3,2.5C759.8,499,758.5,498.6,757.5,497.8z"/>
	<path fill="#0075C9" d="M766.3,487.3h1.4v1.4h-1.4V487.3z M766.4,490.5h1.2v8.3h-1.2V490.5z"/>
	<path fill="#0075C9" d="M770.9,496.7v-5h-1.2v-1.1h1.2V488h1.2v2.5h2.6v1.1h-2.6v4.9c0,1,0.6,1.4,1.4,1.4c0.4,0,0.8-0.1,1.2-0.3
		v1.1c-0.4,0.2-0.9,0.4-1.5,0.4C772,499,770.9,498.4,770.9,496.7z"/>
	<path fill="#0075C9" d="M782.3,496.7v-5h-1.2v-1.1h1.2V488h1.2v2.5h2.6v1.1h-2.6v4.9c0,1,0.6,1.4,1.4,1.4c0.4,0,0.8-0.1,1.2-0.3
		v1.1c-0.4,0.2-0.9,0.4-1.5,0.4C783.3,499,782.3,498.4,782.3,496.7z"/>
	<path fill="#0075C9" d="M787.6,494.7L787.6,494.7c0-2.4,1.8-4.4,4.4-4.4c2.5,0,4.3,2,4.3,4.3v0c0,2.4-1.9,4.4-4.4,4.4
		C789.4,499.1,787.6,497.1,787.6,494.7z M795,494.7L795,494.7c0-1.8-1.3-3.3-3.1-3.3c-1.8,0-3,1.5-3,3.2v0c0,1.8,1.3,3.2,3.1,3.2
		C793.8,498,795,496.5,795,494.7z"/>
	<path fill="#0075C9" d="M802.8,496.5L802.8,496.5c0-1.8,1.5-2.7,3.6-2.7c1.1,0,1.8,0.1,2.6,0.4v-0.3c0-1.5-0.9-2.3-2.5-2.3
		c-1,0-1.8,0.3-2.5,0.6l-0.4-1c0.9-0.4,1.8-0.7,3-0.7c1.2,0,2.1,0.3,2.7,0.9c0.6,0.6,0.9,1.4,0.9,2.4v5.1h-1.2v-1.3
		c-0.6,0.8-1.5,1.4-3,1.4C804.3,499,802.8,498.2,802.8,496.5z M808.9,495.8V495c-0.6-0.2-1.4-0.4-2.5-0.4c-1.6,0-2.4,0.7-2.4,1.7v0
		c0,1,1,1.7,2.1,1.7C807.7,498.1,808.9,497.1,808.9,495.8z"/>
	<path fill="#0075C9" d="M812.1,497.8l0.6-0.9c0.9,0.7,1.9,1.1,2.9,1.1c1,0,1.7-0.5,1.7-1.3v0c0-0.8-1-1.2-2.1-1.5
		c-1.3-0.4-2.8-0.8-2.8-2.4v0c0-1.4,1.2-2.4,2.8-2.4c1,0,2.1,0.4,3,0.9l-0.6,0.9c-0.8-0.5-1.7-0.8-2.5-0.8c-1,0-1.6,0.5-1.6,1.2v0
		c0,0.8,1,1.1,2.1,1.4c1.3,0.4,2.7,0.9,2.7,2.4v0c0,1.6-1.3,2.5-3,2.5C814.3,499,813,498.6,812.1,497.8z"/>
	<path fill="#0075C9" d="M819.9,497.8l0.6-0.9c0.9,0.7,1.9,1.1,2.9,1.1c1,0,1.7-0.5,1.7-1.3v0c0-0.8-1-1.2-2.1-1.5
		c-1.3-0.4-2.8-0.8-2.8-2.4v0c0-1.4,1.2-2.4,2.8-2.4c1,0,2.1,0.4,3,0.9l-0.6,0.9c-0.8-0.5-1.7-0.8-2.5-0.8c-1,0-1.6,0.5-1.6,1.2v0
		c0,0.8,1,1.1,2.1,1.4c1.3,0.4,2.7,0.9,2.7,2.4v0c0,1.6-1.3,2.5-3,2.5C822.2,499,820.9,498.6,819.9,497.8z"/>
	<path fill="#0075C9" d="M828.1,494.7L828.1,494.7c0-2.4,1.7-4.4,4-4.4c2.5,0,3.9,2,3.9,4.4c0,0.2,0,0.3,0,0.4h-6.6
		c0.2,1.8,1.5,2.8,2.9,2.8c1.1,0,2-0.5,2.6-1.2l0.8,0.7c-0.8,0.9-1.9,1.6-3.4,1.6C830,499.1,828.1,497.3,828.1,494.7z M834.8,494.2
		c-0.1-1.5-1-2.8-2.7-2.8c-1.5,0-2.5,1.2-2.7,2.8H834.8z"/>
	<path fill="#0075C9" d="M837.5,497.8l0.6-0.9c0.9,0.7,1.9,1.1,2.9,1.1c1,0,1.7-0.5,1.7-1.3v0c0-0.8-1-1.2-2.1-1.5
		c-1.3-0.4-2.8-0.8-2.8-2.4v0c0-1.4,1.2-2.4,2.8-2.4c1,0,2.1,0.4,3,0.9l-0.6,0.9c-0.8-0.5-1.7-0.8-2.5-0.8c-1,0-1.6,0.5-1.6,1.2v0
		c0,0.8,1,1.1,2.1,1.4c1.3,0.4,2.7,0.9,2.7,2.4v0c0,1.6-1.3,2.5-3,2.5C839.8,499,838.4,498.6,837.5,497.8z"/>
	<path fill="#0075C9" d="M845.4,497.8l0.6-0.9c0.9,0.7,1.9,1.1,2.9,1.1c1,0,1.7-0.5,1.7-1.3v0c0-0.8-1-1.2-2.1-1.5
		c-1.3-0.4-2.8-0.8-2.8-2.4v0c0-1.4,1.2-2.4,2.8-2.4c1,0,2.1,0.4,3,0.9l-0.6,0.9c-0.8-0.5-1.7-0.8-2.5-0.8c-1,0-1.6,0.5-1.6,1.2v0
		c0,0.8,1,1.1,2.1,1.4c1.3,0.4,2.7,0.9,2.7,2.4v0c0,1.6-1.3,2.5-3,2.5C847.6,499,846.3,498.6,845.4,497.8z"/>
	<path fill="#0075C9" d="M862.2,488.8h-3.8v-1.2h8.9v1.2h-3.8v10.1h-1.3V488.8z"/>
	<path fill="#0075C9" d="M869.6,487.6h8.2v1.2h-6.9v3.9h6.2v1.2h-6.2v4h7v1.2h-8.2V487.6z"/>
	<path fill="#0075C9" d="M879.6,487.6h1.4l3.2,9.4l3.1-9.4h1l3.1,9.4l3.2-9.4h1.3l-4,11.4h-1.1l-3.1-9.2l-3.1,9.2h-1.1L879.6,487.6z
		"/>
	<path fill="#0075C9" d="M898.3,487.6h1.3v10.1h6.4v1.2h-7.6V487.6z"/>
	<path fill="#0075C9" d="M907.9,497.2h1.5v1.7h-1.5V497.2z"/>
</g>
<g enable-background="new    ">
	<path fill="#0075C9" d="M1.1,19.2l1.9-2.3c1.8,1.5,3.5,2.4,5.8,2.4c2,0,3.3-0.9,3.3-2.3v-0.1c0-1.3-0.7-2-4.1-2.8
		C4.1,13.2,1.9,12,1.9,8.7V8.6c0-3.1,2.6-5.3,6.3-5.3c2.7,0,4.8,0.8,6.7,2.3L13.1,8c-1.7-1.2-3.3-1.9-5-1.9c-1.9,0-3,1-3,2.2v0.1
		c0,1.4,0.8,2,4.4,2.9c3.9,0.9,5.9,2.3,5.9,5.4v0.1c0,3.4-2.7,5.5-6.6,5.5C6,22.2,3.3,21.2,1.1,19.2z"/>
	<path fill="#0075C9" d="M18.8,2.9h3.4v3h-3.4V2.9z M19,8h3.2v13.8H19V8z"/>
	<path fill="#0075C9" d="M26.2,24.5l1.2-2.4c1.5,0.9,3,1.5,4.9,1.5c2.8,0,4.4-1.5,4.4-4.2v-1.1c-1.2,1.5-2.6,2.5-4.9,2.5
		c-3.3,0-6.3-2.4-6.3-6.5v-0.1c0-4.1,3.1-6.5,6.3-6.5c2.3,0,3.8,1.1,4.8,2.4V8h3.2v11c0,2.3-0.6,4.1-1.8,5.2
		c-1.3,1.3-3.2,1.9-5.7,1.9C30.2,26.1,28,25.6,26.2,24.5z M36.8,14.3L36.8,14.3c0-2.3-1.9-3.9-4.1-3.9c-2.2,0-3.9,1.5-3.9,3.8v0.1
		c0,2.3,1.8,3.8,3.9,3.8C34.9,18.1,36.8,16.5,36.8,14.3z"/>
	<path fill="#0075C9" d="M43.9,8H47v2.1c0.9-1.3,2.2-2.4,4.3-2.4c3.1,0,4.9,2.1,4.9,5.3v8.8h-3.2V14c0-2.1-1.1-3.4-3-3.4
		c-1.8,0-3.1,1.3-3.1,3.4v7.8h-3.2V8z"/>
	<path fill="#0075C9" d="M60.2,2.9h3.4v3h-3.4V2.9z M60.3,8h3.2v13.8h-3.2V8z"/>
	<path fill="#0075C9" d="M68.3,10.8h-1.8V8.1h1.8v-1c0-1.5,0.4-2.7,1.1-3.4c0.7-0.7,1.8-1.1,3.1-1.1c1.1,0,1.9,0.2,2.6,0.4v2.7
		c-0.6-0.2-1.2-0.3-1.9-0.3c-1.2,0-1.8,0.7-1.8,2.1v0.8h3.7v2.6h-3.6v11.1h-3.2V10.8z M77.5,2.9h3.4v3h-3.4V2.9z M77.7,8h3.2v13.8
		h-3.2V8z"/>
	<path fill="#0075C9" d="M84.2,15L84.2,15c0-4,3-7.3,7.2-7.3c2.6,0,4.2,1,5.5,2.4l-2,2.1c-1-1-2-1.7-3.6-1.7c-2.3,0-4,2-4,4.4V15
		c0,2.5,1.7,4.4,4.1,4.4c1.5,0,2.6-0.7,3.6-1.7l1.9,1.9c-1.4,1.5-3,2.6-5.7,2.6C87.3,22.2,84.2,19,84.2,15z"/>
	<path fill="#0075C9" d="M99,17.9L99,17.9c0-3,2.3-4.5,5.7-4.5c1.5,0,2.6,0.2,3.7,0.6v-0.3c0-2-1.2-3-3.4-3c-1.5,0-2.7,0.3-4,0.9
		L100.2,9c1.5-0.7,3-1.1,5.2-1.1c2.1,0,3.6,0.5,4.6,1.5c1,1,1.5,2.5,1.5,4.3v8.2h-3.1v-1.7c-0.9,1.1-2.4,2-4.5,2
		C101.3,22.2,99,20.7,99,17.9z M108.5,16.9V16c-0.8-0.3-1.9-0.5-3.1-0.5c-2,0-3.3,0.9-3.3,2.3v0.1c0,1.3,1.2,2.1,2.7,2.1
		C106.9,19.9,108.5,18.7,108.5,16.9z"/>
	<path fill="#0075C9" d="M115.3,8h3.2v2.1c0.9-1.3,2.2-2.4,4.3-2.4c3.1,0,4.9,2.1,4.9,5.3v8.8h-3.2V14c0-2.1-1.1-3.4-3-3.4
		c-1.8,0-3.1,1.3-3.1,3.4v7.8h-3.2V8z"/>
	<path fill="#0075C9" d="M132.3,18.1v-7.3h-1.8V8h1.8V4.2h3.2V8h3.7v2.7h-3.7v6.8c0,1.2,0.6,1.7,1.7,1.7c0.7,0,1.3-0.2,2-0.5v2.6
		c-0.8,0.4-1.7,0.7-2.9,0.7C133.9,22.1,132.3,21.1,132.3,18.1z"/>
	<path fill="#0075C9" d="M142.6,2.8h3.2v19.1h-3.2V2.8z"/>
	<path fill="#0075C9" d="M159.5,8h3.3l-5.5,14.2c-1.1,2.8-2.3,3.9-4.6,3.9c-1.3,0-2.3-0.3-3.3-0.8l1.1-2.4c0.6,0.3,1.2,0.5,1.9,0.5
		c0.9,0,1.4-0.4,2-1.6L148.6,8h3.4l3.9,10.3L159.5,8z"/>
	<path fill="#0075C9" d="M173.4,2.9h3.4v3h-3.4V2.9z M173.5,8h3.2v13.8h-3.2V8z"/>
	<path fill="#0075C9" d="M180.9,8h3.2v2.1c0.9-1.2,2.1-2.4,4.2-2.4c2,0,3.4,1,4.1,2.4c1.1-1.5,2.6-2.4,4.7-2.4c3,0,4.8,1.9,4.8,5.3
		v8.8h-3.2V14c0-2.2-1-3.4-2.8-3.4c-1.7,0-3,1.2-3,3.4v7.8h-3.2V14c0-2.1-1-3.4-2.8-3.4s-3,1.3-3,3.4v7.8h-3.2V8z"/>
	<path fill="#0075C9" d="M205.8,8h3.2v2.3c1-1.4,2.5-2.6,4.7-2.6c3.3,0,6.4,2.6,6.4,7.2V15c0,4.6-3.1,7.2-6.4,7.2
		c-2.3,0-3.7-1.2-4.7-2.4v6.3h-3.2V8z M216.9,15L216.9,15c0-2.7-1.8-4.5-4-4.5c-2.1,0-4,1.8-4,4.4V15c0,2.6,1.9,4.4,4,4.4
		C215.1,19.4,216.9,17.7,216.9,15z"/>
	<path fill="#0075C9" d="M223.4,8h3.2v3.1c0.9-2.1,2.5-3.5,4.9-3.4v3.4h-0.2c-2.8,0-4.7,1.8-4.7,5.5v5.3h-3.2V8z"/>
	<path fill="#0075C9" d="M233,15L233,15c0-4,3.1-7.3,7.4-7.3c4.2,0,7.4,3.2,7.4,7.2V15c0,3.9-3.1,7.2-7.4,7.2
		C236.1,22.2,233,19,233,15z M244.6,15L244.6,15c0-2.5-1.8-4.5-4.2-4.5c-2.5,0-4.2,2-4.2,4.4V15c0,2.4,1.8,4.4,4.2,4.4
		C242.9,19.4,244.6,17.4,244.6,15z"/>
	<path fill="#0075C9" d="M248.9,8h3.4l3.7,10.2L259.7,8h3.3L257.4,22h-2.9L248.9,8z"/>
	<path fill="#0075C9" d="M264.2,15L264.2,15c0-4,2.8-7.3,6.8-7.3c4.4,0,6.6,3.5,6.6,7.4c0,0.3,0,0.6-0.1,0.9h-10.2
		c0.3,2.3,1.9,3.5,4,3.5c1.5,0,2.6-0.6,3.7-1.7l1.9,1.7c-1.3,1.6-3.1,2.6-5.7,2.6C267.3,22.2,264.2,19.3,264.2,15z M274.5,14
		c-0.2-2-1.4-3.6-3.5-3.6c-1.9,0-3.3,1.5-3.6,3.6H274.5z"/>
	<path fill="#0075C9" d="M280.1,15L280.1,15c0-4.6,3.1-7.2,6.4-7.2c2.3,0,3.7,1.1,4.7,2.4V2.8h3.2v19.1h-3.2v-2.3
		c-1,1.4-2.5,2.6-4.7,2.6C283.3,22.2,280.1,19.6,280.1,15z M291.3,15L291.3,15c0-2.7-1.9-4.5-4-4.5c-2.2,0-4,1.7-4,4.4V15
		c0,2.7,1.8,4.4,4,4.4C289.4,19.4,291.3,17.6,291.3,15z"/>
	<path fill="#0075C9" d="M305.1,20.1l1.4-2.1c1.5,1.1,3.1,1.7,4.5,1.7c1.4,0,2.1-0.6,2.1-1.5v-0.1c0-1.1-1.5-1.4-3.1-1.9
		c-2-0.6-4.3-1.4-4.3-4.1V12c0-2.6,2.2-4.2,4.9-4.2c1.7,0,3.6,0.6,5.1,1.6l-1.3,2.3c-1.3-0.8-2.8-1.3-3.9-1.3
		c-1.2,0-1.9,0.6-1.9,1.4v0.1c0,1,1.5,1.4,3.1,2c2,0.6,4.3,1.5,4.3,4v0.1c0,2.9-2.3,4.4-5.1,4.4C309.1,22.2,306.9,21.4,305.1,20.1z"
		/>
	<path fill="#0075C9" d="M319.4,2.8h3.2v11.4l5.7-6.1h3.9l-5.5,5.6l5.7,8.2h-3.7l-4.1-6l-2,2v4h-3.2V2.8z"/>
	<path fill="#0075C9" d="M334.7,2.9h3.4v3h-3.4V2.9z M334.9,8h3.2v13.8h-3.2V8z"/>
	<path fill="#0075C9" d="M342.2,8h3.2v2.1c0.9-1.3,2.2-2.4,4.3-2.4c3.1,0,4.9,2.1,4.9,5.3v8.8h-3.2V14c0-2.1-1.1-3.4-3-3.4
		c-1.8,0-3.1,1.3-3.1,3.4v7.8h-3.2V8z"/>
	<path fill="#0075C9" d="M369.5,19.7v2.1h-3.2V2.8h3.2v7.6c1-1.4,2.5-2.6,4.7-2.6c3.3,0,6.4,2.6,6.4,7.2V15c0,4.6-3.1,7.2-6.4,7.2
		C371.9,22.2,370.4,21,369.5,19.7z M377.4,15L377.4,15c0-2.7-1.8-4.5-4-4.5c-2.1,0-4,1.8-4,4.4V15c0,2.6,1.9,4.4,4,4.4
		C375.6,19.4,377.4,17.7,377.4,15z"/>
	<path fill="#0075C9" d="M383,17.9L383,17.9c0-3,2.3-4.5,5.7-4.5c1.5,0,2.6,0.2,3.7,0.6v-0.3c0-2-1.2-3-3.4-3c-1.5,0-2.7,0.3-4,0.9
		L384.2,9c1.5-0.7,3-1.1,5.2-1.1c2.1,0,3.6,0.5,4.6,1.5c1,1,1.5,2.5,1.5,4.3v8.2h-3.1v-1.7c-0.9,1.1-2.4,2-4.5,2
		C385.3,22.2,383,20.7,383,17.9z M392.5,16.9V16c-0.8-0.3-1.9-0.5-3.1-0.5c-2,0-3.3,0.9-3.3,2.3v0.1c0,1.3,1.2,2.1,2.7,2.1
		C390.9,19.9,392.5,18.7,392.5,16.9z"/>
	<path fill="#0075C9" d="M399.3,8h3.2v3.1c0.9-2.1,2.5-3.5,4.9-3.4v3.4h-0.2c-2.8,0-4.7,1.8-4.7,5.5v5.3h-3.2V8z"/>
	<path fill="#0075C9" d="M410.1,8h3.2v3.1c0.9-2.1,2.5-3.5,4.9-3.4v3.4H418c-2.8,0-4.7,1.8-4.7,5.5v5.3h-3.2V8z"/>
	<path fill="#0075C9" d="M421,2.9h3.4v3H421V2.9z M421.1,8h3.2v13.8h-3.2V8z"/>
	<path fill="#0075C9" d="M427.7,15L427.7,15c0-4,2.8-7.3,6.8-7.3c4.4,0,6.6,3.5,6.6,7.4c0,0.3,0,0.6-0.1,0.9h-10.2
		c0.3,2.3,1.9,3.5,4,3.5c1.5,0,2.6-0.6,3.7-1.7l1.9,1.7c-1.3,1.6-3.1,2.6-5.7,2.6C430.8,22.2,427.7,19.3,427.7,15z M437.9,14
		c-0.2-2-1.4-3.6-3.5-3.6c-1.9,0-3.3,1.5-3.6,3.6H437.9z"/>
	<path fill="#0075C9" d="M444.3,8h3.2v3.1c0.9-2.1,2.5-3.5,4.9-3.4v3.4h-0.2c-2.8,0-4.7,1.8-4.7,5.5v5.3h-3.2V8z"/>
	<path fill="#0075C9" d="M463.7,10.8h-1.8V8.1h1.8v-1c0-1.5,0.4-2.7,1.1-3.4c0.7-0.7,1.8-1.1,3.1-1.1c1.1,0,1.9,0.2,2.6,0.4v2.7
		c-0.6-0.2-1.2-0.3-1.9-0.3c-1.2,0-1.8,0.7-1.8,2.1v0.8h3.7v2.6h-3.6v11.1h-3.2V10.8z"/>
	<path fill="#0075C9" d="M472.7,16.9V8h3.2v7.9c0,2.1,1.1,3.4,3,3.4c1.8,0,3.1-1.3,3.1-3.4V8h3.2v13.8h-3.2v-2.1
		c-0.9,1.3-2.2,2.4-4.3,2.4C474.5,22.2,472.7,20.1,472.7,16.9z"/>
	<path fill="#0075C9" d="M489.1,8h3.2v2.1c0.9-1.3,2.2-2.4,4.3-2.4c3.1,0,4.9,2.1,4.9,5.3v8.8h-3.2V14c0-2.1-1.1-3.4-3-3.4
		c-1.8,0-3.1,1.3-3.1,3.4v7.8h-3.2V8z"/>
	<path fill="#0075C9" d="M504.6,15L504.6,15c0-4,3-7.3,7.2-7.3c2.6,0,4.2,1,5.5,2.4l-2,2.1c-1-1-2-1.7-3.6-1.7c-2.3,0-4,2-4,4.4V15
		c0,2.5,1.7,4.4,4.1,4.4c1.5,0,2.6-0.7,3.6-1.7l1.9,1.9c-1.4,1.5-3,2.6-5.7,2.6C507.6,22.2,504.6,19,504.6,15z"/>
	<path fill="#0075C9" d="M521,18.1v-7.3h-1.8V8h1.8V4.2h3.2V8h3.7v2.7h-3.7v6.8c0,1.2,0.6,1.7,1.7,1.7c0.7,0,1.3-0.2,2-0.5v2.6
		c-0.8,0.4-1.7,0.7-2.9,0.7C522.6,22.1,521,21.1,521,18.1z"/>
	<path fill="#0075C9" d="M531.1,2.9h3.4v3h-3.4V2.9z M531.3,8h3.2v13.8h-3.2V8z"/>
	<path fill="#0075C9" d="M537.8,15L537.8,15c0-4,3.1-7.3,7.4-7.3c4.2,0,7.4,3.2,7.4,7.2V15c0,3.9-3.1,7.2-7.4,7.2
		C540.9,22.2,537.8,19,537.8,15z M549.4,15L549.4,15c0-2.5-1.8-4.5-4.2-4.5c-2.5,0-4.2,2-4.2,4.4V15c0,2.4,1.8,4.4,4.2,4.4
		C547.8,19.4,549.4,17.4,549.4,15z"/>
	<path fill="#0075C9" d="M555.8,8h3.2v2.1c0.9-1.3,2.2-2.4,4.3-2.4c3.1,0,4.9,2.1,4.9,5.3v8.8h-3.2V14c0-2.1-1.1-3.4-3-3.4
		c-1.8,0-3.1,1.3-3.1,3.4v7.8h-3.2V8z"/>
	<path fill="#0075C9" d="M579.2,15L579.2,15c0-4,3.1-7.3,7.4-7.3c4.2,0,7.4,3.2,7.4,7.2V15c0,3.9-3.1,7.2-7.4,7.2
		C582.3,22.2,579.2,19,579.2,15z M590.8,15L590.8,15c0-2.5-1.8-4.5-4.2-4.5c-2.5,0-4.2,2-4.2,4.4V15c0,2.4,1.8,4.4,4.2,4.4
		C589.1,19.4,590.8,17.4,590.8,15z"/>
	<path fill="#0075C9" d="M595.1,8h3.4l3.7,10.2L605.9,8h3.3L603.6,22h-2.9L595.1,8z"/>
	<path fill="#0075C9" d="M610.4,15L610.4,15c0-4,2.8-7.3,6.8-7.3c4.4,0,6.6,3.5,6.6,7.4c0,0.3,0,0.6-0.1,0.9h-10.2
		c0.3,2.3,1.9,3.5,4,3.5c1.5,0,2.6-0.6,3.7-1.7l1.9,1.7c-1.3,1.6-3.1,2.6-5.7,2.6C613.5,22.2,610.4,19.3,610.4,15z M620.7,14
		c-0.2-2-1.4-3.6-3.5-3.6c-1.9,0-3.3,1.5-3.6,3.6H620.7z"/>
	<path fill="#0075C9" d="M627,8h3.2v3.1c0.9-2.1,2.5-3.5,4.9-3.4v3.4h-0.2c-2.8,0-4.7,1.8-4.7,5.5v5.3H627V8z"/>
	<path fill="#0075C9" d="M654.5,17.8h-9.3l-0.6-2.3l10.2-12.1h2.8v11.7h2.6v2.6h-2.6v4.1h-3.1V17.8z M654.5,15.1V7.9l-6,7.3H654.5z"
		/>
	<path fill="#0075C9" d="M670.3,8h3.3l2.8,9.5l3.1-9.5h2.7l3.1,9.5L688,8h3.2L686.7,22h-2.9l-3.1-9.5l-3.1,9.5h-2.8L670.3,8z"/>
	<path fill="#0075C9" d="M692.6,15L692.6,15c0-4,2.8-7.3,6.8-7.3c4.4,0,6.6,3.5,6.6,7.4c0,0.3,0,0.6-0.1,0.9h-10.2
		c0.3,2.3,1.9,3.5,4,3.5c1.5,0,2.6-0.6,3.7-1.7l1.9,1.7c-1.3,1.6-3.1,2.6-5.7,2.6C695.7,22.2,692.6,19.3,692.6,15z M702.9,14
		c-0.2-2-1.4-3.6-3.5-3.6c-1.9,0-3.3,1.5-3.6,3.6H702.9z"/>
	<path fill="#0075C9" d="M708.5,15L708.5,15c0-4,2.8-7.3,6.8-7.3c4.4,0,6.6,3.5,6.6,7.4c0,0.3,0,0.6-0.1,0.9h-10.2
		c0.3,2.3,1.9,3.5,4,3.5c1.5,0,2.6-0.6,3.7-1.7l1.9,1.7c-1.3,1.6-3.1,2.6-5.7,2.6C711.6,22.2,708.5,19.3,708.5,15z M718.7,14
		c-0.2-2-1.4-3.6-3.5-3.6c-1.9,0-3.3,1.5-3.6,3.6H718.7z"/>
	<path fill="#0075C9" d="M725.1,2.8h3.2v11.4L734,8h3.9l-5.5,5.6l5.7,8.2h-3.7l-4.1-6l-2,2v4h-3.2V2.8z"/>
	<path fill="#0075C9" d="M739.2,20.1l1.4-2.1c1.5,1.1,3.1,1.7,4.5,1.7c1.4,0,2.2-0.6,2.2-1.5v-0.1c0-1.1-1.5-1.4-3.1-1.9
		c-2-0.6-4.3-1.4-4.3-4.1V12c0-2.6,2.2-4.2,4.9-4.2c1.7,0,3.6,0.6,5.1,1.6l-1.3,2.3c-1.3-0.8-2.8-1.3-3.9-1.3
		c-1.2,0-1.9,0.6-1.9,1.4v0.1c0,1,1.5,1.4,3.1,2c2,0.6,4.3,1.5,4.3,4v0.1c0,2.9-2.3,4.4-5.1,4.4C743.1,22.2,740.9,21.4,739.2,20.1z"
		/>
</g>
<g enable-background="new    ">
	<path fill="#0075C9" d="M499.7,154c-1-1-1.6-2.4-1.6-5.2v0c0-4.1,2-7.3,5.8-7.3c1.8,0,3,0.6,4.1,1.5l-1.3,1.8
		c-0.9-0.7-1.7-1.2-2.9-1.2c-2.4,0-3.2,2.4-3.2,4.3c0.8-0.8,1.8-1.4,3.2-1.4c2.6,0,4.7,1.5,4.7,4.2v0c0,2.7-2.2,4.6-5,4.6
		C501.8,155.4,500.6,154.9,499.7,154z M506.1,150.9L506.1,150.9c0-1.4-1.1-2.4-2.8-2.4c-1.7,0-2.7,1.1-2.7,2.4v0
		c0,1.4,1.1,2.4,2.8,2.4S506.1,152.3,506.1,150.9z"/>
	<path fill="#0075C9" d="M511,152.5h2.6v2.7H511V152.5z"/>
	<path fill="#0075C9" d="M522.8,152.2H516l-0.4-1.7l7.5-8.9h2v8.6h1.9v1.9h-1.9v3h-2.3V152.2z M522.8,150.2v-5.3l-4.4,5.3H522.8z"/>
	<path fill="#0075C9" d="M531,144l-2.4,0.7l-0.5-1.9l3.6-1.2h1.6v13.6H531V144z"/>
	<path fill="#0075C9" d="M539,145.5l-1.9,1.4l-0.7-1.2l2.2-1l-2.2-1l0.7-1.2l1.9,1.4l-0.3-2.4h1.4l-0.3,2.4l1.9-1.4l0.7,1.2l-2.2,1
		l2.2,1l-0.7,1.2l-1.9-1.4l0.3,2.4h-1.4L539,145.5z"/>
</g>
<g enable-background="new    ">
	<path fill="#0075C9" d="M823.9,79.9l-1.9,1.4l-0.7-1.2l2.2-1l-2.2-1l0.7-1.2l1.9,1.4l-0.3-2.4h1.4l-0.3,2.4l1.9-1.4l0.7,1.2l-2.2,1
		l2.2,1l-0.7,1.2l-1.9-1.4l0.3,2.4h-1.4L823.9,79.9z"/>
	<path fill="#0075C9" d="M830.2,76.2h5.3c3.2,0,5.1,1.8,5.1,4.5v0c0,3-2.4,4.6-5.4,4.6h-2.7v4.3h-2.4V76.2z M835.3,83.2
		c1.8,0,2.9-1,2.9-2.4v0c0-1.6-1.1-2.4-2.9-2.4h-2.8v4.9H835.3z"/>
	<path fill="#0075C9" d="M842.8,79.4h9.3v2.2h-9.3V79.4z M842.8,84.2h9.3v2.2h-9.3V84.2z"/>
	<path fill="#0075C9" d="M854.8,87h2.6v2.7h-2.6V87z"/>
	<path fill="#0075C9" d="M859.4,83L859.4,83c0-3.9,2.4-7,5.9-7c3.5,0,5.9,3.1,5.9,6.9v0c0,3.9-2.4,7-5.9,7S859.4,86.8,859.4,83z
		 M868.8,83L868.8,83c0-2.7-1.4-4.9-3.5-4.9s-3.4,2.1-3.4,4.8v0c0,2.7,1.3,4.8,3.5,4.8S868.8,85.6,868.8,83z"/>
	<path fill="#0075C9" d="M875.6,78.5l-2.4,0.7l-0.5-1.9l3.6-1.2h1.6v13.6h-2.4V78.5z"/>
	<path fill="#0075C9" d="M880.7,87.5l1.7-1.5c1,1.1,2,1.8,3.5,1.8c1.3,0,2.3-0.8,2.3-2v0c0-1.3-1.2-2.1-3.1-2.1H884l-0.4-1.5
		l3.6-3.9h-5.8v-2.1h8.9v1.8l-3.8,3.9c2,0.3,4,1.3,4,3.8v0c0,2.5-1.9,4.3-4.7,4.3C883.5,89.9,881.8,88.9,880.7,87.5z"/>
	<path fill="#0075C9" d="M900.8,83.5c-0.8,0.9-1.8,1.4-3.2,1.4c-2.9,0-4.8-1.7-4.8-4.3v0c0-2.6,2-4.7,5-4.7c1.7,0,2.8,0.5,3.8,1.4
		c1,1,1.6,2.5,1.6,5.1v0c0,4.3-2.1,7.3-5.8,7.3c-1.9,0-3.2-0.7-4.3-1.6l1.3-1.8c1,0.8,1.9,1.3,3.1,1.3
		C899.9,87.7,900.8,85.3,900.8,83.5z M900.7,80.5L900.7,80.5c0-1.4-1.1-2.5-2.8-2.5c-1.7,0-2.7,1.1-2.7,2.5v0c0,1.4,1.1,2.4,2.8,2.4
		C899.7,82.9,900.7,81.8,900.7,80.5z"/>
	<path fill="#0075C9" d="M910.6,79.5h2.5l2.7,7.5l2.8-7.5h2.5l-4.2,10.3h-2.1L910.6,79.5z"/>
	<path fill="#0075C9" d="M921.9,88.3l1-1.6c1.1,0.8,2.3,1.3,3.3,1.3c1,0,1.6-0.4,1.6-1.1v0c0-0.8-1.1-1.1-2.3-1.4
		c-1.5-0.4-3.2-1-3.2-3v0c0-1.9,1.6-3.1,3.6-3.1c1.3,0,2.7,0.4,3.7,1.2l-0.9,1.7c-1-0.6-2-1-2.9-1c-0.9,0-1.4,0.4-1.4,1v0
		c0,0.8,1.1,1.1,2.3,1.4c1.5,0.5,3.2,1.1,3.2,3v0c0,2.1-1.7,3.2-3.8,3.2C924.7,89.9,923.1,89.3,921.9,88.3z"/>
	<path fill="#0075C9" d="M940.5,88.1v1.6h-2.3V75.6h2.3v5.6c0.8-1.1,1.8-1.9,3.5-1.9c2.4,0,4.7,1.9,4.7,5.3v0c0,3.4-2.3,5.3-4.7,5.3
		C942.2,89.9,941.2,89,940.5,88.1z M946.3,84.6L946.3,84.6c0-2-1.3-3.3-2.9-3.3c-1.6,0-3,1.3-3,3.3v0c0,1.9,1.4,3.3,3,3.3
		C945,87.9,946.3,86.6,946.3,84.6z"/>
	<path fill="#0075C9" d="M950.4,86.7L950.4,86.7c0-2.2,1.7-3.3,4.2-3.3c1.1,0,1.9,0.2,2.7,0.4v-0.3c0-1.4-0.9-2.2-2.5-2.2
		c-1.1,0-2,0.2-2.9,0.6l-0.6-1.8c1.1-0.5,2.2-0.8,3.8-0.8c1.5,0,2.7,0.4,3.4,1.1c0.8,0.7,1.1,1.8,1.1,3.1v6h-2.3v-1.3
		c-0.7,0.8-1.8,1.5-3.3,1.5C952.1,89.9,950.4,88.8,950.4,86.7z M957.4,86v-0.7c-0.6-0.2-1.4-0.4-2.3-0.4c-1.5,0-2.4,0.6-2.4,1.7v0
		c0,1,0.9,1.5,2,1.5C956.2,88.2,957.4,87.3,957.4,86z"/>
	<path fill="#0075C9" d="M961.6,88.3l1-1.6c1.1,0.8,2.3,1.3,3.3,1.3c1,0,1.6-0.4,1.6-1.1v0c0-0.8-1.1-1.1-2.3-1.4
		c-1.5-0.4-3.2-1-3.2-3v0c0-1.9,1.6-3.1,3.6-3.1c1.3,0,2.7,0.4,3.7,1.2l-0.9,1.7c-1-0.6-2-1-2.9-1c-0.9,0-1.4,0.4-1.4,1v0
		c0,0.8,1.1,1.1,2.3,1.4c1.5,0.5,3.2,1.1,3.2,3v0c0,2.1-1.7,3.2-3.8,3.2C964.5,89.9,962.9,89.3,961.6,88.3z"/>
	<path fill="#0075C9" d="M971.5,84.6L971.5,84.6c0-3,2.1-5.3,5-5.3c3.2,0,4.9,2.5,4.9,5.5c0,0.2,0,0.4,0,0.7h-7.5
		c0.3,1.7,1.4,2.6,2.9,2.6c1.1,0,1.9-0.4,2.8-1.2l1.4,1.2c-1,1.2-2.3,1.9-4.2,1.9C973.8,89.9,971.5,87.8,971.5,84.6z M979.1,83.9
		c-0.2-1.5-1-2.7-2.6-2.7c-1.4,0-2.4,1.1-2.6,2.7H979.1z"/>
	<path fill="#0075C9" d="M983.9,75.6h2.3v14.1h-2.3V75.6z"/>
	<path fill="#0075C9" d="M989.3,75.7h2.5v2.2h-2.5V75.7z M989.4,79.5h2.3v10.2h-2.3V79.5z"/>
	<path fill="#0075C9" d="M994.8,79.5h2.3V81c0.7-0.9,1.6-1.8,3.2-1.8c2.3,0,3.6,1.5,3.6,3.9v6.5h-2.3v-5.8c0-1.6-0.8-2.5-2.2-2.5
		c-1.4,0-2.3,0.9-2.3,2.5v5.7h-2.3V79.5z"/>
	<path fill="#0075C9" d="M1006.2,84.6L1006.2,84.6c0-3,2.1-5.3,5-5.3c3.2,0,4.9,2.5,4.9,5.5c0,0.2,0,0.4,0,0.7h-7.5
		c0.2,1.7,1.4,2.6,2.9,2.6c1.1,0,1.9-0.4,2.8-1.2l1.4,1.2c-1,1.2-2.3,1.9-4.2,1.9C1008.4,89.9,1006.2,87.8,1006.2,84.6z
		 M1013.7,83.9c-0.2-1.5-1-2.7-2.6-2.7c-1.4,0-2.4,1.1-2.6,2.7H1013.7z"/>
</g>
<g enable-background="new    ">
	<path fill="#0075C9" d="M823.6,100.3l-2.4,0.2v-1.4l2.3,0.2l-0.2-2.6h1.5l-0.2,2.6l2.3-0.2v1.4l-2.3-0.2l0.2,5.3h-1.4L823.6,100.3z
		"/>
	<path fill="#0075C9" d="M829.8,96.7h5.3c3.2,0,5.1,1.8,5.1,4.5v0c0,3-2.4,4.6-5.4,4.6h-2.7v4.3h-2.4V96.7z M834.9,103.8
		c1.8,0,2.9-1,2.9-2.4v0c0-1.6-1.1-2.4-2.9-2.4h-2.8v4.9H834.9z"/>
	<path fill="#0075C9" d="M842.4,100h9.3v2.2h-9.3V100z M842.4,104.8h9.3v2.2h-9.3V104.8z"/>
	<path fill="#0075C9" d="M854.5,107.6h2.6v2.7h-2.6V107.6z"/>
	<path fill="#0075C9" d="M859.1,103.5L859.1,103.5c0-3.9,2.4-7,5.9-7c3.5,0,5.9,3.1,5.9,6.9v0c0,3.9-2.4,7-5.9,7
		S859.1,107.4,859.1,103.5z M868.4,103.5L868.4,103.5c0-2.7-1.4-4.9-3.5-4.9s-3.4,2.1-3.4,4.8v0c0,2.7,1.3,4.8,3.5,4.8
		S868.4,106.2,868.4,103.5z"/>
	<path fill="#0075C9" d="M873,103.5L873,103.5c0-3.9,2.4-7,5.9-7c3.5,0,5.9,3.1,5.9,6.9v0c0,3.9-2.4,7-5.9,7S873,107.4,873,103.5z
		 M882.3,103.5L882.3,103.5c0-2.7-1.4-4.9-3.5-4.9s-3.4,2.1-3.4,4.8v0c0,2.7,1.4,4.8,3.5,4.8C881,108.3,882.3,106.2,882.3,103.5z"/>
	<path fill="#0075C9" d="M895,104c-0.8,0.9-1.8,1.4-3.2,1.4c-2.9,0-4.8-1.7-4.8-4.3v0c0-2.6,2-4.7,5-4.7c1.7,0,2.8,0.5,3.8,1.4
		c1,1,1.6,2.5,1.6,5.1v0c0,4.3-2.1,7.3-5.8,7.3c-1.9,0-3.2-0.7-4.3-1.6l1.3-1.8c1,0.8,1.9,1.3,3.1,1.3
		C894.1,108.3,895,105.8,895,104z M894.9,101.1L894.9,101.1c0-1.4-1.1-2.5-2.8-2.5c-1.7,0-2.7,1.1-2.7,2.5v0c0,1.4,1.1,2.4,2.8,2.4
		C893.9,103.5,894.9,102.4,894.9,101.1z"/>
	<path fill="#0075C9" d="M902,99.1l-2.4,0.7l-0.5-1.9l3.6-1.2h1.6v13.6H902V99.1z"/>
	<path fill="#0075C9" d="M912.5,100.1h2.5l2.7,7.5l2.8-7.5h2.5l-4.2,10.3h-2.1L912.5,100.1z"/>
	<path fill="#0075C9" d="M923.7,108.9l1-1.6c1.1,0.8,2.3,1.3,3.3,1.3c1,0,1.6-0.4,1.6-1.1v0c0-0.8-1.1-1.1-2.3-1.4
		c-1.5-0.4-3.2-1-3.2-3v0c0-1.9,1.6-3.1,3.6-3.1c1.3,0,2.7,0.4,3.7,1.2l-0.9,1.7c-1-0.6-2-1-2.9-1c-0.9,0-1.4,0.4-1.4,1v0
		c0,0.8,1.1,1.1,2.3,1.4c1.5,0.5,3.2,1.1,3.2,3v0c0,2.1-1.7,3.2-3.8,3.2C926.6,110.4,925,109.9,923.7,108.9z"/>
	<path fill="#0075C9" d="M942.3,108.7v1.6H940V96.2h2.3v5.6c0.8-1.1,1.8-1.9,3.5-1.9c2.4,0,4.7,1.9,4.7,5.3v0c0,3.4-2.3,5.3-4.7,5.3
		C944.1,110.4,943,109.6,942.3,108.7z M948.1,105.2L948.1,105.2c0-2-1.3-3.3-2.9-3.3c-1.6,0-3,1.3-3,3.3v0c0,1.9,1.4,3.3,3,3.3
		C946.8,108.4,948.1,107.2,948.1,105.2z"/>
	<path fill="#0075C9" d="M952.3,107.3L952.3,107.3c0-2.2,1.7-3.3,4.2-3.3c1.1,0,1.9,0.2,2.7,0.4v-0.3c0-1.4-0.9-2.2-2.5-2.2
		c-1.1,0-2,0.2-2.9,0.6l-0.6-1.8c1.1-0.5,2.2-0.8,3.8-0.8c1.5,0,2.7,0.4,3.4,1.1c0.8,0.7,1.1,1.8,1.1,3.1v6h-2.3V109
		c-0.7,0.8-1.8,1.5-3.3,1.5C954,110.4,952.3,109.4,952.3,107.3z M959.2,106.6v-0.7c-0.6-0.2-1.4-0.4-2.3-0.4c-1.5,0-2.4,0.6-2.4,1.7
		v0c0,1,0.9,1.5,2,1.5C958.1,108.8,959.2,107.9,959.2,106.6z"/>
	<path fill="#0075C9" d="M963.4,108.9l1-1.6c1.1,0.8,2.3,1.3,3.3,1.3c1,0,1.6-0.4,1.6-1.1v0c0-0.8-1.1-1.1-2.3-1.4
		c-1.5-0.4-3.2-1-3.2-3v0c0-1.9,1.6-3.1,3.6-3.1c1.3,0,2.7,0.4,3.7,1.2l-0.9,1.7c-1-0.6-2-1-2.9-1c-0.9,0-1.4,0.4-1.4,1v0
		c0,0.8,1.1,1.1,2.3,1.4c1.5,0.5,3.2,1.1,3.2,3v0c0,2.1-1.7,3.2-3.8,3.2C966.3,110.4,964.7,109.9,963.4,108.9z"/>
	<path fill="#0075C9" d="M973.4,105.2L973.4,105.2c0-3,2.1-5.3,5-5.3c3.2,0,4.9,2.5,4.9,5.5c0,0.2,0,0.4,0,0.7h-7.5
		c0.3,1.7,1.4,2.6,2.9,2.6c1.1,0,1.9-0.4,2.8-1.2l1.4,1.2c-1,1.2-2.3,1.9-4.2,1.9C975.6,110.5,973.4,108.3,973.4,105.2z
		 M980.9,104.4c-0.2-1.5-1-2.7-2.6-2.7c-1.4,0-2.4,1.1-2.6,2.7H980.9z"/>
	<path fill="#0075C9" d="M985.7,96.2h2.3v14.1h-2.3V96.2z"/>
	<path fill="#0075C9" d="M991.1,96.3h2.5v2.2h-2.5V96.3z M991.2,100.1h2.3v10.2h-2.3V100.1z"/>
	<path fill="#0075C9" d="M996.6,100.1h2.3v1.6c0.7-0.9,1.6-1.8,3.2-1.8c2.3,0,3.6,1.5,3.6,3.9v6.5h-2.3v-5.8c0-1.6-0.8-2.5-2.2-2.5
		c-1.4,0-2.3,0.9-2.3,2.5v5.7h-2.3V100.1z"/>
	<path fill="#0075C9" d="M1008,105.2L1008,105.2c0-3,2.1-5.3,5-5.3c3.2,0,4.9,2.5,4.9,5.5c0,0.2,0,0.4,0,0.7h-7.5
		c0.2,1.7,1.4,2.6,2.9,2.6c1.1,0,1.9-0.4,2.8-1.2l1.4,1.2c-1,1.2-2.3,1.9-4.2,1.9C1010.3,110.5,1008,108.3,1008,105.2z
		 M1015.6,104.4c-0.2-1.5-1-2.7-2.6-2.7c-1.4,0-2.4,1.1-2.6,2.7H1015.6z"/>
</g>
<g>
	<path fill="#0075C9" d="M757.2,4.6l-2,0.6l-0.4-1.6l3-1h1.4v11.3h-2V4.6z"/>
	<path fill="#0075C9" d="M767.3,11.4h-5.7l-0.4-1.4l6.2-7.4h1.7v7.2h1.6v1.6h-1.6v2.5h-1.9V11.4z M767.3,9.8V5.3l-3.7,4.4H767.3z"/>
</g>
</svg>
