<?xml version="1.0" encoding="utf-8"?>
<!-- Generator: Adobe Illustrator 17.1.0, SVG Export Plug-In . SVG Version: 6.00 Build 0)  -->
<!DOCTYPE svg PUBLIC "-//W3C//DTD SVG 1.0//EN" "http://www.w3.org/TR/2001/REC-SVG-20010904/DTD/svg10.dtd">
<svg version="1.0" id="Layer_1" xmlns="http://www.w3.org/2000/svg" xmlns:xlink="http://www.w3.org/1999/xlink" x="0px" y="0px"
	 width="54px" height="33px" viewBox="0 0 54 33" enable-background="new 0 0 54 33" xml:space="preserve">
<g>
	<circle fill="#82BC00" cx="52.8" cy="19.3" r="1.1"/>
	<circle fill="#82BC00" cx="47.1" cy="19.3" r="1.1"/>
	<circle fill="#82BC00" cx="47.1" cy="16.5" r="1.1"/>
	<circle fill="#82BC00" cx="47.1" cy="13.6" r="1.1"/>
	<circle fill="#82BC00" cx="44.1" cy="19.3" r="1.3"/>
	<circle fill="#82BC00" cx="41.1" cy="19.3" r="1.3"/>
	<circle fill="#82BC00" cx="38" cy="19.3" r="1.3"/>
	<circle fill="#82BC00" cx="38" cy="22.3" r="1.3"/>
	<circle fill="#82BC00" cx="34.9" cy="22.3" r="1.3"/>
	<circle fill="#82BC00" cx="34.9" cy="19.3" r="1.3"/>
	<g>
		<circle fill="#82BC00" cx="38" cy="16.5" r="1.3"/>
		<circle fill="#82BC00" cx="34.9" cy="16.5" r="1.3"/>
	</g>
	<g>
		<circle fill="#82BC00" cx="38" cy="13.6" r="1.3"/>
		<circle fill="#82BC00" cx="34.9" cy="13.6" r="1.3"/>
	</g>
	<circle fill="#82BC00" cx="31.7" cy="22.3" r="1.3"/>
	<circle fill="#82BC00" cx="31.6" cy="25.2" r="1.3"/>
	<circle fill="#82BC00" cx="28.6" cy="25.2" r="1.3"/>
	<circle fill="#82BC00" cx="31.7" cy="16.4" r="1.3"/>
	<circle fill="#82BC00" cx="31.7" cy="13.6" r="1.3"/>
	<circle fill="#82BC00" cx="28.6" cy="13.6" r="1.3"/>
	<circle fill="#82BC00" cx="34.9" cy="25.2" r="1.3"/>
	<circle fill="#82BC00" cx="38" cy="25.2" r="1.3"/>
	<circle fill="#82BC00" cx="41.1" cy="16.5" r="1.3"/>
	<circle fill="#82BC00" cx="41.1" cy="13.6" r="1.3"/>
	<circle fill="#82BC00" cx="41.1" cy="10.6" r="1.3"/>
	<circle fill="#82BC00" cx="41.1" cy="7.5" r="1.3"/>
	<circle fill="#82BC00" cx="41.1" cy="22.3" r="1.3"/>
	<circle fill="#82BC00" cx="41.1" cy="25.2" r="1.3"/>
	<circle fill="#82BC00" cx="41.1" cy="28.2" r="1.3"/>
	<circle fill="#82BC00" cx="41.1" cy="31.4" r="1.3"/>
	<circle fill="#82BC00" cx="44.1" cy="16.5" r="1.3"/>
	<circle fill="#82BC00" cx="44.1" cy="13.6" r="1.3"/>
	<circle fill="#82BC00" cx="44.1" cy="10.2" r="1.2"/>
	<circle fill="#82BC00" cx="44.1" cy="28.6" r="1.2"/>
	<circle fill="#82BC00" cx="44.1" cy="22.3" r="1.3"/>
	<circle fill="#82BC00" cx="44.1" cy="25.2" r="1.3"/>
	<circle fill="#82BC00" cx="47.1" cy="22.3" r="1.1"/>
	<circle fill="#82BC00" cx="47.1" cy="25.1" r="1.1"/>
	<circle fill="#82BC00" cx="49.9" cy="22.2" r="1.1"/>
	<circle fill="#82BC00" cx="49.9" cy="16.5" r="1.1"/>
	<circle fill="#82BC00" cx="49.9" cy="19.3" r="1"/>
</g>
<g>
	<circle fill="#0075C9" cx="1.3" cy="13.5" r="1.1"/>
	<circle fill="#0075C9" cx="7" cy="13.5" r="1.1"/>
	<circle fill="#0075C9" cx="7" cy="10.6" r="1.1"/>
	<circle fill="#0075C9" cx="7" cy="7.8" r="1.1"/>
	<circle fill="#0075C9" cx="10" cy="13.5" r="1.3"/>
	<circle fill="#0075C9" cx="12.9" cy="13.5" r="1.3"/>
	<circle fill="#0075C9" cx="16.1" cy="13.5" r="1.3"/>
	<circle fill="#0075C9" cx="16.1" cy="16.4" r="1.3"/>
	<circle fill="#0075C9" cx="19.2" cy="16.4" r="1.3"/>
	<circle fill="#0075C9" cx="19.2" cy="13.5" r="1.3"/>
	<g>
		<circle fill="#0075C9" cx="16.1" cy="10.6" r="1.3"/>
		<circle fill="#0075C9" cx="19.2" cy="10.6" r="1.3"/>
	</g>
	<g>
		<circle fill="#0075C9" cx="16.1" cy="7.8" r="1.3"/>
		<circle fill="#0075C9" cx="19.2" cy="7.8" r="1.3"/>
	</g>
	<circle fill="#0075C9" cx="22.4" cy="16.4" r="1.3"/>
	<circle fill="#0075C9" cx="22.4" cy="19.4" r="1.3"/>
	<circle fill="#0075C9" cx="25.5" cy="19.4" r="1.3"/>
	<circle fill="#0075C9" cx="22.4" cy="10.6" r="1.3"/>
	<circle fill="#0075C9" cx="22.4" cy="7.7" r="1.3"/>
	<circle fill="#0075C9" cx="25.5" cy="7.7" r="1.3"/>
	<circle fill="#0075C9" cx="19.2" cy="19.4" r="1.3"/>
	<circle fill="#0075C9" cx="16.1" cy="19.4" r="1.3"/>
	<circle fill="#0075C9" cx="12.9" cy="10.6" r="1.3"/>
	<circle fill="#0075C9" cx="13" cy="7.8" r="1.3"/>
	<circle fill="#0075C9" cx="12.9" cy="4.7" r="1.3"/>
	<circle fill="#0075C9" cx="12.9" cy="1.6" r="1.3"/>
	<circle fill="#0075C9" cx="12.9" cy="16.4" r="1.3"/>
	<circle fill="#0075C9" cx="12.9" cy="19.4" r="1.3"/>
	<circle fill="#0075C9" cx="12.9" cy="22.4" r="1.3"/>
	<circle fill="#0075C9" cx="12.9" cy="25.5" r="1.3"/>
	<circle fill="#0075C9" cx="10" cy="10.6" r="1.3"/>
	<circle fill="#0075C9" cx="10" cy="7.8" r="1.3"/>
	<circle fill="#0075C9" cx="10" cy="4.4" r="1.2"/>
	<circle fill="#0075C9" cx="10" cy="22.8" r="1.2"/>
	<circle fill="#0075C9" cx="10" cy="16.4" r="1.3"/>
	<circle fill="#0075C9" cx="10" cy="19.4" r="1.3"/>
	<circle fill="#0075C9" cx="7" cy="16.4" r="1.1"/>
	<circle fill="#0075C9" cx="7" cy="19.2" r="1.1"/>
	<circle fill="#0075C9" cx="4.2" cy="16.4" r="1.1"/>
	<circle fill="#0075C9" cx="4.2" cy="10.6" r="1.1"/>
	<circle fill="#0075C9" cx="4.2" cy="13.5" r="1"/>
</g>
</svg>
