<?xml version="1.0" encoding="utf-8"?>
<!-- Generator: Adobe Illustrator 17.1.0, SVG Export Plug-In . SVG Version: 6.00 Build 0)  -->
<!DOCTYPE svg PUBLIC "-//W3C//DTD SVG 1.1//EN" "http://www.w3.org/Graphics/SVG/1.1/DTD/svg11.dtd">
<svg version="1.1" id="Layer_2" xmlns="http://www.w3.org/2000/svg" xmlns:xlink="http://www.w3.org/1999/xlink" x="0px" y="0px"
	 width="1024px" height="550px" viewBox="0 0 1024 550" enable-background="new 0 0 1024 550" xml:space="preserve">
<g id="charts_1_">
	<polyline fill="none" stroke="#005596" stroke-width="1.772" points="143.3,226.8 260.3,219.6 377.1,231.1 493.7,246.5 
		610.6,232.3 	"/>
	<path fill="#005596" d="M140.3,225.6c0-1,0.8-1.8,1.8-1.8h2.5c1,0,1.8,0.8,1.8,1.8v2.5c0,1-0.8,1.8-1.8,1.8h-2.5
		c-1,0-1.8-0.8-1.8-1.8V225.6z"/>
	<path fill="#005596" d="M257.1,218.4c0-1,0.8-1.8,1.8-1.8h2.5c1,0,1.8,0.8,1.8,1.8v2.5c0,1-0.8,1.8-1.8,1.8h-2.5
		c-1,0-1.8-0.8-1.8-1.8V218.4z"/>
	<path fill="#005596" d="M374.1,229.9c0-1,0.8-1.8,1.8-1.8h2.5c1,0,1.8,0.8,1.8,1.8v2.5c0,1-0.8,1.8-1.8,1.8h-2.5
		c-1,0-1.8-0.8-1.8-1.8V229.9z"/>
	<path fill="#005596" d="M490.9,245c0-1,0.8-1.8,1.8-1.8h2.5c1,0,1.8,0.8,1.8,1.8v2.5c0,1-0.8,1.8-1.8,1.8h-2.5
		c-1,0-1.8-0.8-1.8-1.8V245z"/>
	<path fill="#005596" d="M607.9,231.1c0-1,0.8-1.8,1.8-1.8h2.5c1,0,1.8,0.8,1.8,1.8v2.5c0,1-0.8,1.8-1.8,1.8h-2.5
		c-1,0-1.8-0.8-1.8-1.8V231.1z"/>
	<polyline fill="none" stroke="#8DC63F" stroke-width="1.772" points="143.3,223.1 260.3,76.6 377.1,94.2 493.7,123.5 610.6,127.6 	
		"/>
	<path fill="#8DC63F" d="M140.3,221.7c0-1,0.8-1.8,1.8-1.8h2.5c1,0,1.8,0.8,1.8,1.8v2.5c0,1-0.8,1.8-1.8,1.8h-2.5
		c-1,0-1.8-0.8-1.8-1.8V221.7z"/>
	<path fill="#8DC63F" d="M257.1,75.2c0-1,0.8-1.8,1.8-1.8h2.5c1,0,1.8,0.8,1.8,1.8v2.5c0,1-0.8,1.8-1.8,1.8h-2.5
		c-1,0-1.8-0.8-1.8-1.8V75.2z"/>
	<path fill="#8DC63F" d="M374.1,92.8c0-1,0.8-1.8,1.8-1.8h2.5c1,0,1.8,0.8,1.8,1.8v2.5c0,1-0.8,1.8-1.8,1.8h-2.5
		c-1,0-1.8-0.8-1.8-1.8V92.8z"/>
	<path fill="#8DC63F" d="M490.9,121.9c0-1,0.8-1.8,1.8-1.8h2.5c1,0,1.8,0.8,1.8,1.8v2.5c0,1-0.8,1.8-1.8,1.8h-2.5
		c-1,0-1.8-0.8-1.8-1.8V121.9z"/>
	<path fill="#8DC63F" d="M607.9,126.4c0-1,0.8-1.8,1.8-1.8h2.5c1,0,1.8,0.8,1.8,1.8v2.5c0,1-0.8,1.8-1.8,1.8h-2.5
		c-1,0-1.8-0.8-1.8-1.8V126.4z"/>
	<g enable-background="new    ">
		<path fill="#060E9F" d="M262.4,61.4l-1.8,2.3v0l2.8-0.4v1.3l-2.8-0.3v0l1.8,2.2l-1.2,0.7l-1.1-2.6h0l-1.2,2.6l-1.1-0.7l1.8-2.3v0
			l-2.7,0.4v-1.3l2.7,0.4v0l-1.7-2.3l1.1-0.6l1.1,2.6h0l1.1-2.6L262.4,61.4z"/>
	</g>
	<g enable-background="new    ">
		<path fill="#060E9F" d="M379.2,79.7l-1.8,2.3v0l2.8-0.4V83l-2.8-0.3v0l1.8,2.2l-1.2,0.7L377,83h0l-1.2,2.6l-1.1-0.7l1.8-2.3v0
			l-2.7,0.4v-1.3l2.7,0.4v0l-1.7-2.3l1.1-0.6l1.1,2.6h0l1.1-2.6L379.2,79.7z"/>
	</g>
	<g enable-background="new    ">
		<path fill="#060E9F" d="M495.8,109l-1.8,2.3v0l2.8-0.4v1.3l-2.8-0.3v0l1.8,2.2l-1.2,0.7l-1.1-2.6h0l-1.2,2.6l-1.1-0.7l1.8-2.3v0
			l-2.7,0.4V111l2.7,0.4v0l-1.7-2.3l1.1-0.6l1.1,2.6h0l1.1-2.6L495.8,109z"/>
	</g>
	<g enable-background="new    ">
		<path fill="#060E9F" d="M612.7,113.2l-1.8,2.3v0l2.8-0.4v1.3l-2.8-0.3v0l1.8,2.2l-1.2,0.7l-1.1-2.6h0l-1.2,2.6l-1.1-0.7l1.8-2.3v0
			l-2.7,0.4v-1.3l2.7,0.4v0l-1.7-2.3l1.1-0.6l1.1,2.6h0l1.1-2.6L612.7,113.2z"/>
	</g>
	<g enable-background="new    ">
		<path fill="#060E9F" d="M689.3,282.5v-7.3h1.4v7.2c0,2.7,1.5,4.2,3.9,4.2c2.3,0,3.8-1.4,3.8-4.2v-7.3h1.4v7.2
			c0,3.7-2.1,5.6-5.3,5.6C691.4,288,689.3,286.1,689.3,282.5z"/>
		<path fill="#060E9F" d="M702.9,278.5h1.4v1.6c0.6-1,1.6-1.8,3.2-1.8c2.3,0,3.6,1.5,3.6,3.7v5.8h-1.4v-5.4c0-1.7-0.9-2.8-2.6-2.8
			c-1.6,0-2.8,1.2-2.8,2.9v5.3h-1.4V278.5z"/>
		<path fill="#060E9F" d="M714.5,285.3v-5.6h-1.3v-1.2h1.3v-2.8h1.4v2.8h3v1.2h-3v5.4c0,1.1,0.6,1.5,1.6,1.5c0.5,0,0.9-0.1,1.4-0.3
			v1.2c-0.5,0.3-1,0.4-1.7,0.4C715.7,287.9,714.5,287.2,714.5,285.3z"/>
		<path fill="#060E9F" d="M721.3,278.5h1.4v2.4c0.7-1.5,2-2.7,3.8-2.6v1.5h-0.1c-2,0-3.7,1.5-3.7,4.3v3.7h-1.4V278.5z"/>
		<path fill="#060E9F" d="M727.6,283.1L727.6,283.1c0-2.7,1.9-4.9,4.5-4.9c2.8,0,4.3,2.2,4.3,4.9c0,0.2,0,0.3,0,0.5H729
			c0.2,2,1.6,3.2,3.3,3.2c1.3,0,2.2-0.5,2.9-1.3l0.9,0.8c-0.9,1-2.1,1.7-3.8,1.7C729.7,288,727.6,286,727.6,283.1z M735,282.6
			c-0.1-1.7-1.1-3.2-3-3.2c-1.6,0-2.8,1.4-3,3.2H735z"/>
		<path fill="#060E9F" d="M738.2,285.1L738.2,285.1c0-2,1.6-3,4-3c1.2,0,2,0.2,2.9,0.4v-0.3c0-1.7-1-2.5-2.8-2.5
			c-1.1,0-2,0.3-2.8,0.7l-0.4-1.1c1-0.5,2-0.8,3.4-0.8c1.3,0,2.3,0.3,3,1c0.6,0.6,1,1.5,1,2.7v5.7H745v-1.4
			c-0.6,0.8-1.7,1.6-3.4,1.6C739.9,288,738.2,287,738.2,285.1z M745,284.3v-0.9c-0.7-0.2-1.6-0.4-2.7-0.4c-1.7,0-2.7,0.8-2.7,1.9v0
			c0,1.2,1.1,1.9,2.3,1.9C743.6,286.9,745,285.8,745,284.3z"/>
		<path fill="#060E9F" d="M749.7,285.3v-5.6h-1.3v-1.2h1.3v-2.8h1.4v2.8h3v1.2h-3v5.4c0,1.1,0.6,1.5,1.6,1.5c0.5,0,0.9-0.1,1.4-0.3
			v1.2c-0.5,0.3-1,0.4-1.7,0.4C750.8,287.9,749.7,287.2,749.7,285.3z"/>
		<path fill="#060E9F" d="M755.6,283.1L755.6,283.1c0-2.7,1.9-4.9,4.5-4.9c2.8,0,4.3,2.2,4.3,4.9c0,0.2,0,0.3,0,0.5H757
			c0.2,2,1.6,3.2,3.3,3.2c1.3,0,2.2-0.5,2.9-1.3l0.9,0.8c-0.9,1-2.1,1.7-3.8,1.7C757.7,288,755.6,286,755.6,283.1z M763,282.6
			c-0.1-1.7-1.1-3.2-3-3.2c-1.6,0-2.8,1.4-3,3.2H763z"/>
		<path fill="#060E9F" d="M766.3,283.1L766.3,283.1c0-3.1,2.2-4.9,4.4-4.9c1.7,0,2.8,0.9,3.6,2v-5.6h1.4v13.1h-1.4v-1.9
			c-0.8,1.1-1.9,2.1-3.6,2.1C768.5,288,766.3,286.2,766.3,283.1z M774.4,283.1L774.4,283.1c0-2.2-1.6-3.6-3.4-3.6
			c-1.8,0-3.3,1.3-3.3,3.6v0c0,2.2,1.5,3.6,3.3,3.6C772.7,286.7,774.4,285.3,774.4,283.1z"/>
	</g>
	<g enable-background="new    ">
		<path fill="#060E9F" d="M689.5,233.3h4.4c4,0,6.7,2.7,6.7,6.3v0c0,3.5-2.7,6.3-6.7,6.3h-4.4V233.3z M690.9,234.6v10h3
			c3.2,0,5.2-2.2,5.2-5v0c0-2.8-2-5-5.2-5H690.9z"/>
		<path fill="#060E9F" d="M702.7,243.2L702.7,243.2c0-2,1.6-3,4-3c1.2,0,2,0.2,2.9,0.4v-0.3c0-1.7-1-2.5-2.8-2.5
			c-1.1,0-2,0.3-2.8,0.7l-0.4-1.1c1-0.5,2-0.8,3.4-0.8c1.3,0,2.3,0.3,3,1c0.6,0.6,1,1.5,1,2.7v5.7h-1.3v-1.4
			c-0.6,0.8-1.7,1.6-3.4,1.6C704.4,246.1,702.7,245.1,702.7,243.2z M709.5,242.5v-0.9c-0.7-0.2-1.6-0.4-2.7-0.4
			c-1.7,0-2.7,0.8-2.7,1.9v0c0,1.2,1.1,1.9,2.3,1.9C708.1,245,709.5,243.9,709.5,242.5z"/>
		<path fill="#060E9F" d="M713.8,233h1.6v1.5h-1.6V233z M713.9,236.6h1.4v9.3h-1.4V236.6z"/>
		<path fill="#060E9F" d="M718.6,232.7h1.4v13.1h-1.4V232.7z"/>
		<path fill="#060E9F" d="M730.2,236.6h1.5l-3.9,9.6c-0.8,1.9-1.7,2.6-3.1,2.6c-0.8,0-1.4-0.2-2-0.5l0.5-1.1
			c0.5,0.2,0.9,0.3,1.5,0.3c0.8,0,1.3-0.4,1.9-1.7l-4.2-9.3h1.5l3.4,7.8L730.2,236.6z"/>
		<path fill="#060E9F" d="M739.5,233.3h9.1v1.3h-7.6v4.5h6.8v1.3h-6.8v5.5h-1.4V233.3z"/>
		<path fill="#060E9F" d="M749.9,243.2L749.9,243.2c0-2,1.6-3,4-3c1.2,0,2,0.2,2.9,0.4v-0.3c0-1.7-1-2.5-2.8-2.5
			c-1.1,0-2,0.3-2.8,0.7l-0.4-1.1c1-0.5,2-0.8,3.4-0.8c1.3,0,2.3,0.3,3,1c0.6,0.6,1,1.5,1,2.7v5.7h-1.3v-1.4
			c-0.6,0.8-1.7,1.6-3.4,1.6C751.7,246.1,749.9,245.1,749.9,243.2z M756.8,242.5v-0.9c-0.7-0.2-1.6-0.4-2.7-0.4
			c-1.7,0-2.7,0.8-2.7,1.9v0c0,1.2,1.1,1.9,2.3,1.9C755.4,245,756.8,243.9,756.8,242.5z"/>
		<path fill="#060E9F" d="M760.5,241.3L760.5,241.3c0-2.7,2.1-4.9,4.8-4.9c1.8,0,2.9,0.7,3.7,1.7l-0.9,1c-0.7-0.8-1.6-1.4-2.8-1.4
			c-1.9,0-3.3,1.6-3.3,3.6v0c0,2,1.5,3.6,3.4,3.6c1.2,0,2.1-0.6,2.8-1.4l0.9,0.8c-0.9,1-2.1,1.8-3.8,1.8
			C762.5,246.1,760.5,243.9,760.5,241.3z"/>
		<path fill="#060E9F" d="M771.4,233h1.6v1.5h-1.6V233z M771.5,236.6h1.4v9.3h-1.4V236.6z"/>
		<path fill="#060E9F" d="M775.4,243.2L775.4,243.2c0-2,1.6-3,4-3c1.2,0,2,0.2,2.9,0.4v-0.3c0-1.7-1-2.5-2.8-2.5
			c-1.1,0-2,0.3-2.8,0.7l-0.4-1.1c1-0.5,2-0.8,3.4-0.8c1.3,0,2.3,0.3,3,1c0.6,0.6,1,1.5,1,2.7v5.7h-1.3v-1.4
			c-0.6,0.8-1.7,1.6-3.4,1.6C777.1,246.1,775.4,245.1,775.4,243.2z M782.2,242.5v-0.9c-0.7-0.2-1.6-0.4-2.7-0.4
			c-1.7,0-2.7,0.8-2.7,1.9v0c0,1.2,1.1,1.9,2.3,1.9C780.8,245,782.2,243.9,782.2,242.5z"/>
		<path fill="#060E9F" d="M786.6,232.7h1.4v13.1h-1.4V232.7z"/>
		<path fill="#060E9F" d="M796.9,233.3h1.4l4.6,6.9l4.6-6.9h1.4v12.6h-1.4v-10.2l-4.6,6.8h-0.1l-4.6-6.7v10.2h-1.4V233.3z"/>
		<path fill="#060E9F" d="M811.7,241.3L811.7,241.3c0-2.7,2.1-4.9,4.9-4.9c2.8,0,4.8,2.2,4.8,4.8v0c0,2.6-2.1,4.9-4.9,4.9
			C813.7,246.1,811.7,243.9,811.7,241.3z M820,241.3L820,241.3c0-2-1.5-3.7-3.5-3.7c-2,0-3.4,1.6-3.4,3.6v0c0,2,1.5,3.6,3.4,3.6
			C818.6,244.9,820,243.2,820,241.3z"/>
		<path fill="#060E9F" d="M823.9,233h1.6v1.5h-1.6V233z M824,236.6h1.4v9.3H824V236.6z"/>
		<path fill="#060E9F" d="M827.8,244.7l0.7-1c1,0.8,2.1,1.2,3.2,1.2c1.1,0,1.9-0.6,1.9-1.5v0c0-0.9-1.1-1.3-2.3-1.6
			c-1.5-0.4-3.1-0.9-3.1-2.6v0c0-1.6,1.3-2.7,3.2-2.7c1.1,0,2.4,0.4,3.3,1l-0.6,1c-0.9-0.6-1.9-0.9-2.8-0.9c-1.1,0-1.8,0.6-1.8,1.4
			v0c0,0.9,1.2,1.2,2.4,1.6c1.4,0.4,3,1,3,2.7v0c0,1.8-1.5,2.8-3.3,2.8C830.4,246.1,828.9,245.5,827.8,244.7z"/>
		<path fill="#060E9F" d="M837.9,243.4v-5.6h-1.3v-1.2h1.3v-2.8h1.4v2.8h3v1.2h-3v5.4c0,1.1,0.6,1.5,1.6,1.5c0.5,0,0.9-0.1,1.4-0.3
			v1.2c-0.5,0.3-1,0.4-1.7,0.4C839,246,837.9,245.3,837.9,243.4z"/>
		<path fill="#060E9F" d="M844.5,242.4v-5.8h1.4v5.4c0,1.7,0.9,2.8,2.6,2.8c1.6,0,2.8-1.2,2.8-2.9v-5.3h1.4v9.3h-1.4v-1.6
			c-0.6,1-1.6,1.8-3.2,1.8C845.8,246.1,844.5,244.6,844.5,242.4z"/>
		<path fill="#060E9F" d="M855.8,236.6h1.4v2.4c0.7-1.5,2-2.7,3.8-2.6v1.5h-0.1c-2,0-3.7,1.5-3.7,4.3v3.7h-1.4V236.6z"/>
		<path fill="#060E9F" d="M863.1,233h1.6v1.5h-1.6V233z M863.2,236.6h1.4v9.3h-1.4V236.6z"/>
		<path fill="#060E9F" d="M867.2,245l6.2-7.3h-6v-1.2h7.8v0.9l-6.2,7.3h6.2v1.2h-8.1V245z"/>
		<path fill="#060E9F" d="M876.9,241.3L876.9,241.3c0-2.7,1.9-4.9,4.5-4.9c2.8,0,4.3,2.2,4.3,4.9c0,0.2,0,0.3,0,0.5h-7.4
			c0.2,2,1.6,3.2,3.3,3.2c1.3,0,2.2-0.5,2.9-1.3l0.9,0.8c-0.9,1-2.1,1.7-3.8,1.7C879,246.1,876.9,244.1,876.9,241.3z M884.3,240.7
			c-0.1-1.7-1.1-3.2-3-3.2c-1.6,0-2.8,1.4-3,3.2H884.3z"/>
		<path fill="#060E9F" d="M888.2,236.6h1.4v2.4c0.7-1.5,2-2.7,3.8-2.6v1.5h-0.1c-2,0-3.7,1.5-3.7,4.3v3.7h-1.4V236.6z"/>
	</g>
	<g enable-background="new    ">
		<path fill="#060E9F" d="M688.7,263l0.9-1c1.3,1.2,2.6,1.8,4.3,1.8c1.7,0,2.8-0.9,2.8-2.1v0c0-1.2-0.6-1.8-3.3-2.4
			c-2.9-0.6-4.2-1.6-4.2-3.6v0c0-2,1.7-3.4,4.1-3.4c1.8,0,3.2,0.5,4.4,1.5l-0.8,1.1c-1.2-1-2.3-1.4-3.6-1.4c-1.6,0-2.7,0.9-2.7,2v0
			c0,1.2,0.6,1.9,3.4,2.4c2.8,0.6,4.1,1.6,4.1,3.6v0c0,2.2-1.8,3.6-4.3,3.6C691.8,265.1,690.2,264.4,688.7,263z"/>
		<path fill="#060E9F" d="M701,252.3h4.7c2.8,0,4.7,1.5,4.7,4v0c0,2.7-2.3,4.1-5,4.1h-3.1v4.4H701V252.3z M705.6,259.1
			c2.1,0,3.5-1.1,3.5-2.8v0c0-1.8-1.4-2.7-3.4-2.7h-3.2v5.5H705.6z"/>
		<path fill="#060E9F" d="M713.1,252.3h9.1v1.3h-7.6v4.5h6.8v1.3h-6.8v5.5h-1.4V252.3z"/>
		<path fill="#060E9F" d="M724,263.1l0.9-1c1.1,1.1,2.3,1.7,3.6,1.7c1.8,0,3-1.2,3-2.8v0c0-1.6-1.3-2.6-3.1-2.6
			c-1.1,0-1.9,0.3-2.6,0.7l-1-0.6l0.4-6.1h7.3v1.3h-6l-0.3,4c0.7-0.3,1.4-0.6,2.5-0.6c2.4,0,4.4,1.4,4.4,3.9v0
			c0,2.5-1.9,4.1-4.5,4.1C726.7,265.1,725.2,264.2,724,263.1z"/>
		<path fill="#060E9F" d="M735.2,258.6L735.2,258.6c0-3.6,2.1-6.6,5.3-6.6c3.2,0,5.3,3,5.3,6.5v0c0,3.5-2.1,6.5-5.3,6.5
			C737.3,265.1,735.2,262.1,735.2,258.6z M744.4,258.6L744.4,258.6c0-2.8-1.5-5.3-3.9-5.3c-2.4,0-3.8,2.4-3.8,5.2v0
			c0,2.8,1.5,5.2,3.9,5.2C742.9,263.8,744.4,261.4,744.4,258.6z"/>
	</g>
	<path fill="#8DC63F" d="M681,242.6c0,2-1.6,3.5-3.5,3.5h-3.9c-2,0-3.5-1.6-3.5-3.5v-3.9c0-2,1.6-3.5,3.5-3.5h3.9
		c2,0,3.5,1.6,3.5,3.5V242.6z"/>
	<path fill="#005596" d="M681,283.8c0,2-1.6,3.5-3.5,3.5h-3.9c-2,0-3.5-1.6-3.5-3.5v-3.9c0-2,1.6-3.5,3.5-3.5h3.9
		c2,0,3.5,1.6,3.5,3.5V283.8z"/>
	<g enable-background="new    ">
		<path fill="#060E9F" d="M550.9,154l-1.9,2.1v0l2.6-0.3l-0.2,1.2l-2.4-0.3v0l1.4,2.1l-1.1,0.6l-0.8-2.4h0l-1.3,2.4l-0.9-0.6
			l1.8-2.1v0l-2.5,0.3l0.2-1.2l2.4,0.3v0l-1.4-2.1l1.1-0.6l0.8,2.4h0l1.3-2.4L550.9,154z"/>
		<path fill="#060E9F" d="M554.1,168.4l1.6-8.7c0.2-1,0.3-2.1,0.5-2.9h1.3l-0.2,1.5h0c0.7-1.1,1.8-1.7,3-1.7c1.8,0,2.5,1.5,2.5,3
			c0,2.9-2.1,5.6-4.8,5.6c-0.9,0-1.5-0.2-1.8-0.4h0l-0.7,3.5H554.1z M556.4,163.7c0.4,0.3,0.9,0.5,1.6,0.5c1.8,0,3.3-2.3,3.3-4.4
			c0-0.9-0.4-1.9-1.6-1.9c-1.1,0-2.5,1.3-2.9,3.6L556.4,163.7z"/>
	</g>
	<g enable-background="new    ">
		<path fill="#060E9F" d="M564.4,160.1l7.9-4.1v1.2l-6.6,3.3v0l6.6,3.3v1.2l-7.9-4.1V160.1z"/>
		<path fill="#060E9F" d="M581.4,159.5c0,3.7-1.4,5.8-3.8,5.8c-2.2,0-3.6-2-3.6-5.7c0-3.7,1.6-5.7,3.8-5.7
			C580.1,153.9,581.4,155.9,581.4,159.5z M575.5,159.6c0,2.9,0.9,4.5,2.2,4.5c1.5,0,2.3-1.8,2.3-4.6c0-2.7-0.7-4.5-2.2-4.5
			C576.4,155,575.5,156.6,575.5,159.6z"/>
		<path fill="#060E9F" d="M582.9,164.2c0-0.6,0.4-1.1,1-1.1s1,0.4,1,1.1c0,0.6-0.4,1.1-1,1.1C583.3,165.3,582.9,164.8,582.9,164.2z"
			/>
		<path fill="#060E9F" d="M593.7,159.5c0,3.7-1.4,5.8-3.8,5.8c-2.2,0-3.6-2-3.6-5.7c0-3.7,1.6-5.7,3.8-5.7
			C592.3,153.9,593.7,155.9,593.7,159.5z M587.7,159.6c0,2.9,0.9,4.5,2.2,4.5c1.5,0,2.3-1.8,2.3-4.6c0-2.7-0.7-4.5-2.2-4.5
			C588.6,155,587.7,156.6,587.7,159.6z"/>
		<path fill="#060E9F" d="M602.4,159.5c0,3.7-1.4,5.8-3.8,5.8c-2.2,0-3.6-2-3.6-5.7c0-3.7,1.6-5.7,3.8-5.7
			C601,153.9,602.4,155.9,602.4,159.5z M596.4,159.6c0,2.9,0.9,4.5,2.2,4.5c1.5,0,2.3-1.8,2.3-4.6c0-2.7-0.7-4.5-2.2-4.5
			C597.3,155,596.4,156.6,596.4,159.6z"/>
		<path fill="#060E9F" d="M611.1,159.5c0,3.7-1.4,5.8-3.8,5.8c-2.2,0-3.6-2-3.6-5.7c0-3.7,1.6-5.7,3.8-5.7
			C609.8,153.9,611.1,155.9,611.1,159.5z M605.1,159.6c0,2.9,0.9,4.5,2.2,4.5c1.5,0,2.3-1.8,2.3-4.6c0-2.7-0.7-4.5-2.2-4.5
			C606,155,605.1,156.6,605.1,159.6z"/>
		<path fill="#060E9F" d="M615.7,155.4L615.7,155.4l-2,1l-0.3-1.1l2.4-1.3h1.3v11h-1.4V155.4z"/>
	</g>
	<line fill="none" stroke="#060E9F" stroke-width="0.591" x1="669.2" y1="406.7" x2="84.9" y2="406.7"/>
	<g>
		<g enable-background="new    ">
			<path fill="#060E9F" d="M114.8,416h4.3c1.1,0,2,0.3,2.5,0.8c0.4,0.4,0.6,0.9,0.6,1.6v0c0,1.1-0.7,1.8-1.4,2.1
				c1.1,0.4,1.9,1,1.9,2.3v0c0,1.7-1.4,2.6-3.5,2.6h-4.4V416z M120.6,418.8c0-0.8-0.6-1.2-1.7-1.2h-2.4v2.5h2.3
				C119.8,420.1,120.6,419.7,120.6,418.8L120.6,418.8z M119.1,421.5h-2.7v2.6h2.8c1.1,0,1.8-0.5,1.8-1.3v0
				C121.1,422,120.5,421.5,119.1,421.5z"/>
			<path fill="#060E9F" d="M124,423.5L124,423.5c0-1.6,1.2-2.4,3-2.4c0.8,0,1.4,0.1,1.9,0.3v-0.2c0-1-0.6-1.6-1.8-1.6
				c-0.8,0-1.4,0.2-2.1,0.5l-0.4-1.3c0.8-0.4,1.6-0.6,2.7-0.6c1.1,0,1.9,0.3,2.4,0.8c0.5,0.5,0.8,1.3,0.8,2.2v4.3h-1.6v-0.9
				c-0.5,0.6-1.2,1.1-2.4,1.1C125.2,425.8,124,425,124,423.5z M129,423v-0.5c-0.4-0.2-1-0.3-1.6-0.3c-1.1,0-1.7,0.5-1.7,1.2v0
				c0,0.7,0.6,1.1,1.4,1.1C128.1,424.6,129,423.9,129,423z"/>
			<path fill="#060E9F" d="M131.9,424.7l0.7-1.1c0.8,0.6,1.6,0.9,2.4,0.9c0.7,0,1.1-0.3,1.1-0.8v0c0-0.6-0.8-0.8-1.6-1
				c-1.1-0.3-2.3-0.7-2.3-2.1v0c0-1.4,1.1-2.2,2.6-2.2c0.9,0,1.9,0.3,2.7,0.8l-0.7,1.2c-0.7-0.4-1.4-0.7-2-0.7c-0.6,0-1,0.3-1,0.7v0
				c0,0.5,0.8,0.8,1.6,1c1.1,0.3,2.2,0.8,2.2,2.1v0c0,1.5-1.2,2.3-2.7,2.3C134,425.8,132.8,425.4,131.9,424.7z"/>
			<path fill="#060E9F" d="M139,422L139,422c0-2.1,1.5-3.8,3.5-3.8c2.3,0,3.5,1.8,3.5,3.9c0,0.2,0,0.3,0,0.5h-5.3
				c0.2,1.2,1,1.8,2.1,1.8c0.8,0,1.4-0.3,2-0.9l1,0.9c-0.7,0.8-1.6,1.4-3,1.4C140.6,425.8,139,424.3,139,422z M144.3,421.5
				c-0.1-1.1-0.7-1.9-1.8-1.9c-1,0-1.7,0.8-1.9,1.9H144.3z"/>
			<path fill="#060E9F" d="M147.7,415.6h1.7v10h-1.7V415.6z"/>
			<path fill="#060E9F" d="M151.6,415.7h1.8v1.6h-1.8V415.7z M151.6,418.4h1.7v7.2h-1.7V418.4z"/>
			<path fill="#060E9F" d="M155.4,418.4h1.7v1.1c0.5-0.7,1.1-1.3,2.3-1.3c1.6,0,2.6,1.1,2.6,2.8v4.6h-1.7v-4.1
				c0-1.1-0.6-1.8-1.5-1.8c-1,0-1.6,0.7-1.6,1.8v4.1h-1.7V418.4z"/>
			<path fill="#060E9F" d="M163.5,422L163.5,422c0-2.1,1.5-3.8,3.5-3.8c2.3,0,3.5,1.8,3.5,3.9c0,0.2,0,0.3,0,0.5h-5.3
				c0.2,1.2,1,1.8,2.1,1.8c0.8,0,1.4-0.3,2-0.9l1,0.9c-0.7,0.8-1.6,1.4-3,1.4C165.1,425.8,163.5,424.3,163.5,422z M168.9,421.5
				c-0.1-1.1-0.7-1.9-1.8-1.9c-1,0-1.7,0.8-1.9,1.9H168.9z"/>
		</g>
	</g>
	<line fill="none" stroke="#060E9F" stroke-width="0.591" x1="201.7" y1="406.7" x2="201.7" y2="413.7"/>
	<g>
		<g enable-background="new    ">
			<path fill="#060E9F" d="M251.3,417.7l-1.7,0.5l-0.4-1.4l2.6-0.8h1.2v9.6h-1.7V417.7z"/>
			<path fill="#060E9F" d="M259.4,415.6h1.7v3.9c0.5-0.7,1.1-1.3,2.3-1.3c1.6,0,2.6,1.1,2.6,2.8v4.6h-1.7v-4.1
				c0-1.1-0.6-1.8-1.5-1.8c-1,0-1.6,0.7-1.6,1.8v4.1h-1.7V415.6z"/>
		</g>
	</g>
	<line fill="none" stroke="#060E9F" stroke-width="0.591" x1="318.7" y1="406.7" x2="318.7" y2="413.7"/>
	<g>
		<g enable-background="new    ">
			<path fill="#060E9F" d="M366.4,424.3l3.3-2.8c1.3-1.1,1.8-1.7,1.8-2.6c0-0.9-0.7-1.5-1.5-1.5s-1.5,0.5-2.2,1.4l-1.2-0.9
				c0.9-1.3,1.8-2,3.5-2c1.9,0,3.2,1.1,3.2,2.9v0c0,1.5-0.8,2.3-2.5,3.7l-2,1.6h4.6v1.5h-6.9V424.3z"/>
			<path fill="#060E9F" d="M379.3,415.6h1.7v3.9c0.5-0.7,1.1-1.3,2.3-1.3c1.6,0,2.6,1.1,2.6,2.8v4.6h-1.7v-4.1
				c0-1.1-0.6-1.8-1.5-1.8c-1,0-1.6,0.7-1.6,1.8v4.1h-1.7V415.6z"/>
		</g>
	</g>
	<g>
		<g enable-background="new    ">
			<path fill="#060E9F" d="M488.3,423.5h-4.8l-0.3-1.2l5.3-6.3h1.4v6.1h1.4v1.4h-1.4v2.1h-1.6V423.5z M488.3,422.1v-3.8l-3.1,3.8
				H488.3z"/>
			<path fill="#060E9F" d="M497.1,415.6h1.7v3.9c0.5-0.7,1.1-1.3,2.3-1.3c1.6,0,2.6,1.1,2.6,2.8v4.6h-1.7v-4.1
				c0-1.1-0.6-1.8-1.5-1.8c-1,0-1.6,0.7-1.6,1.8v4.1h-1.7V415.6z"/>
		</g>
	</g>
	<g>
		<g enable-background="new    ">
			<path fill="#060E9F" d="M600.2,423L600.2,423c0-1.2,0.6-1.9,1.7-2.4c-0.8-0.4-1.4-1.1-1.4-2.1v0c0-1.5,1.4-2.6,3.3-2.6
				s3.3,1.1,3.3,2.6v0c0,1.1-0.6,1.7-1.4,2.1c1.1,0.5,1.7,1.2,1.7,2.3v0c0,1.7-1.6,2.8-3.7,2.8S600.2,424.7,600.2,423z M605.8,422.9
				L605.8,422.9c0-0.9-0.9-1.5-2-1.5s-2,0.6-2,1.4v0c0,0.8,0.7,1.4,2,1.4S605.8,423.7,605.8,422.9z M605.5,418.7L605.5,418.7
				c0-0.8-0.7-1.4-1.7-1.4s-1.7,0.6-1.7,1.3v0c0,0.8,0.7,1.4,1.7,1.4S605.5,419.5,605.5,418.7z"/>
			<path fill="#060E9F" d="M613.3,415.6h1.7v3.9c0.5-0.7,1.1-1.3,2.3-1.3c1.6,0,2.6,1.1,2.6,2.8v4.6h-1.7v-4.1
				c0-1.1-0.6-1.8-1.5-1.8c-1,0-1.6,0.7-1.6,1.8v4.1h-1.7V415.6z"/>
		</g>
	</g>
	
		<line fill="none" stroke="#060E9F" stroke-width="0.354" stroke-dasharray="9.453,7.09" x1="84.9" y1="110.2" x2="652.8" y2="110.2"/>
	
		<line fill="none" stroke="#060E9F" stroke-width="0.354" stroke-dasharray="9.453,7.09" x1="84.9" y1="36.2" x2="652.8" y2="36.2"/>
	
		<line fill="none" stroke="#060E9F" stroke-width="0.354" stroke-dasharray="9.453,7.09" x1="84.9" y1="184.2" x2="652.6" y2="184.2"/>
	
		<line fill="none" stroke="#060E9F" stroke-width="0.354" stroke-dasharray="9.453,7.09" x1="84.9" y1="258.4" x2="652.6" y2="258.4"/>
	
		<line fill="none" stroke="#060E9F" stroke-width="0.354" stroke-dasharray="9.453,7.09" x1="84.9" y1="332.5" x2="652.6" y2="332.5"/>
	<g>
		<g enable-background="new    ">
			<path fill="#060E9F" d="M67.4,403.8L67.4,403.8c0-2.8,1.7-5,4.2-5c2.5,0,4.2,2.2,4.2,4.9v0c0,2.7-1.7,4.9-4.2,4.9
				S67.4,406.5,67.4,403.8z M74,403.8L74,403.8c0-1.9-1-3.5-2.4-3.5s-2.4,1.5-2.4,3.4v0c0,1.9,1,3.4,2.4,3.4S74,405.7,74,403.8z"/>
		</g>
	</g>
	<g>
		<g enable-background="new    ">
			<path fill="#060E9F" d="M60.3,327l-1.7,0.5l-0.4-1.4l2.6-0.8H62v9.6h-1.7V327z"/>
			<path fill="#060E9F" d="M64.1,330.1L64.1,330.1c0-2.8,1.7-5,4.2-5c2.5,0,4.2,2.2,4.2,4.9v0c0,2.7-1.7,4.9-4.2,4.9
				S64.1,332.9,64.1,330.1z M70.7,330.1L70.7,330.1c0-1.9-1-3.5-2.4-3.5s-2.4,1.5-2.4,3.4v0c0,1.9,1,3.4,2.4,3.4
				S70.7,332,70.7,330.1z"/>
		</g>
	</g>
	<g>
		<g enable-background="new    ">
			<path fill="#060E9F" d="M58.6,259.7l3.3-2.8c1.3-1.1,1.8-1.7,1.8-2.6c0-0.9-0.7-1.5-1.5-1.5s-1.5,0.5-2.2,1.4l-1.2-0.9
				c0.9-1.3,1.8-2,3.5-2c1.9,0,3.2,1.1,3.2,2.9v0c0,1.5-0.8,2.3-2.5,3.7l-2,1.6h4.6v1.5h-6.9V259.7z"/>
			<path fill="#060E9F" d="M67.1,256.3L67.1,256.3c0-2.8,1.7-5,4.2-5c2.5,0,4.2,2.2,4.2,4.9v0c0,2.7-1.7,4.9-4.2,4.9
				S67.1,259,67.1,256.3z M73.7,256.3L73.7,256.3c0-1.9-1-3.5-2.4-3.5s-2.4,1.5-2.4,3.4v0c0,1.9,1,3.4,2.4,3.4
				S73.7,258.1,73.7,256.3z"/>
		</g>
	</g>
	<g>
		<g enable-background="new    ">
			<path fill="#060E9F" d="M58.5,185.4l1.2-1.1c0.7,0.8,1.4,1.3,2.5,1.3c0.9,0,1.7-0.6,1.7-1.4v0c0-0.9-0.9-1.5-2.2-1.5h-0.8
				l-0.3-1.1l2.6-2.7H59v-1.5h6.3v1.3l-2.7,2.7c1.4,0.2,2.8,0.9,2.8,2.7v0c0,1.8-1.4,3-3.3,3C60.5,187.1,59.3,186.4,58.5,185.4z"/>
			<path fill="#060E9F" d="M67.1,182.2L67.1,182.2c0-2.8,1.7-5,4.2-5c2.5,0,4.2,2.2,4.2,4.9v0c0,2.7-1.7,4.9-4.2,4.9
				S67.1,184.9,67.1,182.2z M73.7,182.2L73.7,182.2c0-1.9-1-3.5-2.4-3.5s-2.4,1.5-2.4,3.4v0c0,1.9,1,3.4,2.4,3.4
				S73.7,184,73.7,182.2z"/>
		</g>
	</g>
	<g>
		<g enable-background="new    ">
			<path fill="#060E9F" d="M63.5,110.7h-4.8l-0.3-1.2l5.3-6.3h1.4v6.1h1.4v1.4h-1.4v2.1h-1.6V110.7z M63.5,109.3v-3.8l-3.1,3.8H63.5
				z"/>
			<path fill="#060E9F" d="M68,108.1L68,108.1c0-2.8,1.7-5,4.2-5c2.5,0,4.2,2.2,4.2,4.9v0c0,2.7-1.7,4.9-4.2,4.9S68,110.8,68,108.1z
				 M74.6,108.1L74.6,108.1c0-1.9-1-3.5-2.4-3.5s-2.4,1.5-2.4,3.4v0c0,1.9,1,3.4,2.4,3.4S74.6,109.9,74.6,108.1z"/>
		</g>
	</g>
	<g>
		<g enable-background="new    ">
			<path fill="#060E9F" d="M58.5,37.4l1-1.2c0.8,0.7,1.6,1.1,2.5,1.1c1.1,0,1.9-0.7,1.9-1.7v0c0-1-0.8-1.6-2-1.6
				c-0.7,0-1.3,0.2-1.8,0.4l-1-0.7l0.3-4.7h5.7v1.5h-4.3l-0.2,2.2c0.5-0.2,0.9-0.3,1.5-0.3c1.9,0,3.3,1,3.3,3v0c0,2-1.4,3.2-3.6,3.2
				C60.6,38.9,59.4,38.3,58.5,37.4z"/>
			<path fill="#060E9F" d="M67.2,34L67.2,34c0-2.8,1.7-5,4.2-5c2.5,0,4.2,2.2,4.2,4.9v0c0,2.7-1.7,4.9-4.2,4.9S67.2,36.7,67.2,34z
				 M73.8,34L73.8,34c0-1.9-1-3.5-2.4-3.5s-2.4,1.5-2.4,3.4v0c0,1.9,1,3.4,2.4,3.4S73.8,35.8,73.8,34z"/>
		</g>
	</g>
	<g>
		<g enable-background="new    ">
			<path fill="#060E9F" d="M38.9,294.3L38.9,294.3c-3.1,0-5.7-2.3-5.7-5.5c0-2,0.7-3.2,1.7-4.3l0.9,0.8c-0.9,0.9-1.5,2-1.5,3.4
				c0,2.4,2,4.2,4.5,4.2h0c2.5,0,4.5-1.8,4.5-4.2c0-1.5-0.6-2.5-1.6-3.5l0.8-0.8c1.2,1.1,1.9,2.4,1.9,4.4
				C44.5,292,42,294.3,38.9,294.3z"/>
			<path fill="#060E9F" d="M40.3,283.1L40.3,283.1c-2.3,0-4.2-1.8-4.2-4.2c0-2.4,1.9-4.2,4.2-4.2h0c2.3,0,4.2,1.8,4.2,4.2
				C44.5,281.4,42.6,283.1,40.3,283.1z M40.3,276L40.3,276c-1.8,0-3.2,1.3-3.2,3c0,1.8,1.4,3,3.1,3h0c1.7,0,3.1-1.3,3.1-3
				C43.4,277.2,42,276,40.3,276z"/>
			<path fill="#060E9F" d="M36.2,272.6v-1.2h2.1c-1.3-0.6-2.3-1.8-2.2-3.3h1.3v0.1c0,1.8,1.3,3.2,3.7,3.2h3.2v1.2H36.2z"/>
			<path fill="#060E9F" d="M36.2,266.2V265h1.4c-0.9-0.5-1.6-1.4-1.6-2.8c0-2,1.3-3.1,3.2-3.1h5v1.2h-4.7c-1.5,0-2.4,0.8-2.4,2.2
				c0,1.4,1,2.4,2.5,2.4h4.6v1.2H36.2z"/>
			<path fill="#060E9F" d="M40.3,257.1L40.3,257.1c-2.4,0-4.2-1.6-4.2-3.9c0-2.4,1.9-3.8,4.3-3.8c0.2,0,0.2,0,0.4,0v6.4
				c1.8-0.2,2.7-1.4,2.7-2.8c0-1.1-0.5-1.9-1.1-2.5l0.7-0.8c0.9,0.8,1.5,1.8,1.5,3.3C44.5,255.3,42.8,257.1,40.3,257.1z M39.8,250.7
				c-1.5,0.1-2.8,1-2.8,2.6c0,1.4,1.2,2.5,2.8,2.6V250.7z"/>
			<path fill="#060E9F" d="M40.3,247.8L40.3,247.8c-2.3,0-4.2-1.8-4.2-4.2c0-2.4,1.9-4.2,4.2-4.2h0c2.3,0,4.2,1.8,4.2,4.2
				C44.5,246.1,42.6,247.8,40.3,247.8z M40.3,240.7L40.3,240.7c-1.8,0-3.2,1.3-3.2,3c0,1.8,1.4,3,3.1,3h0c1.7,0,3.1-1.3,3.1-3
				C43.4,241.9,42,240.7,40.3,240.7z"/>
			<path fill="#060E9F" d="M36.2,237.3v-1.2h1.4c-0.8-0.5-1.5-1.2-1.5-2.6c0-1.3,0.7-2.2,1.6-2.6c-0.9-0.6-1.6-1.4-1.6-2.8
				c0-1.9,1.2-3,3.2-3h5v1.2h-4.7c-1.6,0-2.4,0.8-2.4,2.1c0,1.2,0.9,2.2,2.5,2.2h4.7v1.2h-4.8c-1.5,0-2.4,0.8-2.4,2.1
				s1.1,2.2,2.5,2.2h4.6v1.2H36.2z"/>
			<path fill="#060E9F" d="M40.3,222.9L40.3,222.9c-2.4,0-4.2-1.6-4.2-3.9c0-2.4,1.9-3.8,4.3-3.8c0.2,0,0.2,0,0.4,0v6.4
				c1.8-0.2,2.7-1.4,2.7-2.8c0-1.1-0.5-1.9-1.1-2.5l0.7-0.8c0.9,0.8,1.5,1.8,1.5,3.3C44.5,221.1,42.8,222.9,40.3,222.9z M39.8,216.5
				c-1.5,0.1-2.8,1-2.8,2.6c0,1.4,1.2,2.5,2.8,2.6V216.5z"/>
			<path fill="#060E9F" d="M42.2,212.7h-4.9v1.1h-1.1v-1.1h-2.4v-1.2h2.4V209h1.1v2.6H42c1,0,1.3-0.5,1.3-1.4c0-0.4-0.1-0.8-0.3-1.2
				h1c0.2,0.4,0.3,0.9,0.3,1.5C44.5,211.7,43.8,212.7,42.2,212.7z"/>
			<path fill="#060E9F" d="M36.2,206.8v-1.2h2.1c-1.3-0.6-2.3-1.8-2.2-3.3h1.3v0.1c0,1.8,1.3,3.2,3.7,3.2h3.2v1.2H36.2z"/>
			<path fill="#060E9F" d="M36.2,194.5v-1.3l8.3,3.4c1.7,0.7,2.3,1.5,2.3,2.7c0,0.7-0.1,1.2-0.4,1.7l-1-0.4c0.2-0.4,0.3-0.8,0.3-1.3
				c0-0.7-0.4-1.2-1.5-1.7l-8,3.7V200l6.7-2.9L36.2,194.5z"/>
			<path fill="#060E9F" d="M41.3,186.7h-5v-1.2H41c1.5,0,2.4-0.8,2.4-2.2c0-1.4-1-2.4-2.5-2.4h-4.6v-1.2h8.1v1.2h-1.4
				c0.9,0.5,1.6,1.4,1.6,2.8C44.5,185.6,43.2,186.7,41.3,186.7z"/>
			<path fill="#060E9F" d="M36.2,177v-1.2h1.4c-0.9-0.5-1.6-1.4-1.6-2.8c0-2,1.3-3.1,3.2-3.1h5v1.2h-4.7c-1.5,0-2.4,0.8-2.4,2.2
				c0,1.4,1,2.4,2.5,2.4h4.6v1.2H36.2z"/>
			<path fill="#060E9F" d="M33.1,167.3v-1.4h1.3v1.4H33.1z M36.2,167.2V166h8.1v1.2H36.2z"/>
			<path fill="#060E9F" d="M42.2,162.8h-4.9v1.1h-1.1v-1.1h-2.4v-1.2h2.4V159h1.1v2.6H42c1,0,1.3-0.5,1.3-1.4c0-0.4-0.1-0.8-0.3-1.2
				h1c0.2,0.4,0.3,0.9,0.3,1.5C44.5,161.8,43.8,162.8,42.2,162.8z"/>
			<path fill="#060E9F" d="M43.3,157.6l-0.9-0.6c0.7-0.9,1-1.8,1-2.8c0-1-0.5-1.7-1.3-1.7h0c-0.8,0-1.1,1-1.4,2
				c-0.4,1.3-0.8,2.7-2.3,2.7h0c-1.4,0-2.3-1.2-2.3-2.8c0-1,0.3-2.1,0.9-2.9l0.9,0.5c-0.5,0.8-0.8,1.6-0.8,2.4c0,1,0.5,1.6,1.2,1.6
				h0c0.8,0,1.1-1,1.4-2.1c0.4-1.2,0.9-2.6,2.3-2.6h0c1.5,0,2.4,1.3,2.4,2.9C44.5,155.4,44,156.7,43.3,157.6z"/>
		</g>
	</g>
	<polyline fill="none" stroke="#8DC63F" stroke-width="1.2" points="842.1,0 2.5,0 2.5,43.6 	"/>
</g>
<g id="Toggle_Button_1_">
</g>
<g enable-background="new    ">
	<path fill="#82BC00" d="M1.9,516.7h4.6c4.2,0,7.1,2.9,7.1,6.6v0c0,3.7-2.9,6.6-7.1,6.6H1.9V516.7z M3.4,518.1v10.5h3.1
		c3.4,0,5.5-2.3,5.5-5.2v0c0-2.9-2.1-5.3-5.5-5.3H3.4z"/>
	<path fill="#82BC00" d="M15.8,527.2L15.8,527.2c0-2.1,1.7-3.2,4.2-3.2c1.3,0,2.1,0.2,3,0.4V524c0-1.8-1.1-2.7-2.9-2.7
		c-1.2,0-2.1,0.3-3,0.7l-0.4-1.2c1.1-0.5,2.1-0.8,3.6-0.8c1.4,0,2.5,0.4,3.2,1.1c0.7,0.7,1,1.6,1,2.9v6H23v-1.5
		c-0.7,0.9-1.8,1.7-3.6,1.7C17.6,530.2,15.8,529.2,15.8,527.2z M23,526.4v-1c-0.7-0.2-1.7-0.4-2.9-0.4c-1.8,0-2.9,0.8-2.9,2v0
		c0,1.2,1.1,2,2.5,2C21.5,529,23,527.9,23,526.4z"/>
	<path fill="#82BC00" d="M27.5,516.4h1.7v1.6h-1.7V516.4z M27.6,520.2h1.5v9.8h-1.5V520.2z"/>
	<path fill="#82BC00" d="M32.6,516.1h1.5V530h-1.5V516.1z"/>
	<path fill="#82BC00" d="M44.8,520.2h1.6l-4.1,10.1c-0.8,2-1.8,2.8-3.3,2.8c-0.8,0-1.4-0.2-2.1-0.5l0.5-1.2c0.5,0.2,0.9,0.4,1.5,0.4
		c0.9,0,1.4-0.5,2-1.8l-4.5-9.8h1.6l3.6,8.2L44.8,520.2z"/>
	<path fill="#82BC00" d="M54.7,516.7h9.6v1.4h-8.1v4.7h7.2v1.4h-7.2v5.8h-1.5V516.7z"/>
	<path fill="#82BC00" d="M65.7,527.2L65.7,527.2c0-2.1,1.7-3.2,4.2-3.2c1.3,0,2.1,0.2,3,0.4V524c0-1.8-1.1-2.7-2.9-2.7
		c-1.2,0-2.1,0.3-3,0.7l-0.4-1.2c1.1-0.5,2.1-0.8,3.6-0.8c1.4,0,2.5,0.4,3.2,1.1c0.7,0.7,1,1.6,1,2.9v6h-1.4v-1.5
		c-0.7,0.9-1.8,1.7-3.6,1.7C67.5,530.2,65.7,529.2,65.7,527.2z M72.9,526.4v-1c-0.7-0.2-1.7-0.4-2.9-0.4c-1.8,0-2.9,0.8-2.9,2v0
		c0,1.2,1.1,2,2.5,2C71.4,529,72.9,527.9,72.9,526.4z"/>
	<path fill="#82BC00" d="M76.8,525.1L76.8,525.1c0-2.8,2.2-5.2,5-5.2c1.9,0,3,0.8,3.9,1.7l-1,1c-0.8-0.8-1.7-1.5-3-1.5
		c-2,0-3.5,1.7-3.5,3.8v0c0,2.1,1.6,3.8,3.6,3.8c1.3,0,2.2-0.6,3-1.5l0.9,0.9c-1,1.1-2.2,1.9-4,1.9C79,530.2,76.8,527.9,76.8,525.1z
		"/>
	<path fill="#82BC00" d="M88.3,516.4H90v1.6h-1.7V516.4z M88.4,520.2h1.5v9.8h-1.5V520.2z"/>
	<path fill="#82BC00" d="M92.5,527.2L92.5,527.2c0-2.1,1.7-3.2,4.2-3.2c1.3,0,2.1,0.2,3,0.4V524c0-1.8-1.1-2.7-2.9-2.7
		c-1.2,0-2.1,0.3-3,0.7l-0.4-1.2c1.1-0.5,2.1-0.8,3.6-0.8c1.4,0,2.5,0.4,3.2,1.1c0.7,0.7,1,1.6,1,2.9v6h-1.4v-1.5
		c-0.7,0.9-1.8,1.7-3.6,1.7C94.4,530.2,92.5,529.2,92.5,527.2z M99.7,526.4v-1c-0.7-0.2-1.7-0.4-2.9-0.4c-1.8,0-2.9,0.8-2.9,2v0
		c0,1.2,1.1,2,2.5,2C98.3,529,99.7,527.9,99.7,526.4z"/>
	<path fill="#82BC00" d="M104.4,516.1h1.5V530h-1.5V516.1z"/>
	<path fill="#82BC00" d="M115.2,516.7h1.5l4.8,7.3l4.8-7.3h1.5V530h-1.5v-10.8l-4.8,7.1h-0.1l-4.8-7.1V530h-1.5V516.7z"/>
	<path fill="#82BC00" d="M130.8,525.1L130.8,525.1c0-2.8,2.2-5.2,5.1-5.2c2.9,0,5.1,2.3,5.1,5.1v0c0,2.8-2.2,5.1-5.1,5.1
		C133,530.2,130.8,527.9,130.8,525.1z M139.6,525.1L139.6,525.1c0-2.1-1.6-3.9-3.6-3.9c-2.1,0-3.6,1.7-3.6,3.8v0
		c0,2.1,1.6,3.8,3.6,3.8C138.1,528.9,139.6,527.2,139.6,525.1z"/>
	<path fill="#82BC00" d="M143.8,516.4h1.7v1.6h-1.7V516.4z M143.8,520.2h1.5v9.8h-1.5V520.2z"/>
	<path fill="#82BC00" d="M147.9,528.7l0.7-1c1.1,0.8,2.2,1.3,3.4,1.3c1.2,0,2-0.6,2-1.6v0c0-1-1.2-1.4-2.5-1.7
		c-1.5-0.4-3.2-1-3.2-2.8v0c0-1.7,1.4-2.8,3.3-2.8c1.2,0,2.5,0.4,3.5,1.1l-0.7,1.1c-0.9-0.6-2-1-2.9-1c-1.2,0-1.9,0.6-1.9,1.4v0
		c0,0.9,1.2,1.3,2.5,1.7c1.5,0.5,3.2,1,3.2,2.8v0c0,1.9-1.5,2.9-3.5,2.9C150.6,530.2,149,529.6,147.9,528.7z"/>
	<path fill="#82BC00" d="M158.5,527.4v-5.9h-1.4v-1.3h1.4v-3h1.5v3h3.1v1.3H160v5.7c0,1.2,0.7,1.6,1.7,1.6c0.5,0,0.9-0.1,1.4-0.3
		v1.3c-0.5,0.3-1.1,0.4-1.8,0.4C159.7,530.2,158.5,529.4,158.5,527.4z"/>
	<path fill="#82BC00" d="M165.5,526.3v-6.1h1.5v5.7c0,1.8,1,3,2.7,3c1.7,0,2.9-1.2,2.9-3.1v-5.6h1.4v9.8h-1.4v-1.7
		c-0.7,1.1-1.7,1.9-3.4,1.9C166.9,530.2,165.5,528.6,165.5,526.3z"/>
	<path fill="#82BC00" d="M177.4,520.2h1.5v2.6c0.7-1.6,2.1-2.8,4-2.7v1.6h-0.1c-2.1,0-3.9,1.5-3.9,4.5v3.9h-1.5V520.2z"/>
	<path fill="#82BC00" d="M185.1,516.4h1.7v1.6h-1.7V516.4z M185.2,520.2h1.5v9.8h-1.5V520.2z"/>
	<path fill="#82BC00" d="M189.5,529.1l6.5-7.7h-6.3v-1.2h8.3v0.9l-6.5,7.7h6.5v1.2h-8.5V529.1z"/>
	<path fill="#82BC00" d="M199.7,525.1L199.7,525.1c0-2.9,2-5.1,4.7-5.1c2.9,0,4.6,2.3,4.6,5.2c0,0.2,0,0.3,0,0.5h-7.8
		c0.2,2.1,1.7,3.3,3.5,3.3c1.3,0,2.3-0.6,3.1-1.4l0.9,0.8c-1,1.1-2.2,1.8-4,1.8C201.9,530.2,199.7,528.2,199.7,525.1z M207.5,524.5
		c-0.2-1.8-1.2-3.3-3.1-3.3c-1.7,0-3,1.4-3.2,3.3H207.5z"/>
	<path fill="#82BC00" d="M211.6,520.2h1.5v2.6c0.7-1.6,2.1-2.8,4-2.7v1.6h-0.1c-2.1,0-3.9,1.5-3.9,4.5v3.9h-1.5V520.2z"/>
	<path fill="#82BC00" d="M224.3,528.1l0.9-1.1c1.4,1.3,2.7,1.9,4.6,1.9c1.8,0,3-0.9,3-2.3v0c0-1.2-0.7-1.9-3.5-2.5
		c-3.1-0.7-4.5-1.7-4.5-3.8v0c0-2.1,1.8-3.6,4.4-3.6c1.9,0,3.3,0.6,4.7,1.6l-0.9,1.2c-1.2-1-2.5-1.4-3.8-1.4c-1.7,0-2.8,1-2.8,2.1v0
		c0,1.3,0.7,2,3.6,2.6c3,0.6,4.3,1.7,4.3,3.8v0c0,2.3-1.9,3.8-4.5,3.8C227.7,530.2,225.9,529.5,224.3,528.1z"/>
	<path fill="#82BC00" d="M237.4,516.7h5c3,0,5,1.6,5,4.2v0c0,2.9-2.4,4.4-5.2,4.4h-3.2v4.7h-1.5V516.7z M242.2,523.9
		c2.2,0,3.6-1.2,3.6-2.9v0c0-1.9-1.4-2.9-3.6-2.9h-3.4v5.9H242.2z"/>
	<path fill="#82BC00" d="M250.1,516.7h9.6v1.4h-8.1v4.7h7.2v1.4h-7.2v5.8h-1.5V516.7z"/>
	<path fill="#82BC00" d="M261.7,528.1l1-1.1c1.2,1.1,2.4,1.8,3.8,1.8c1.9,0,3.2-1.3,3.2-2.9v0c0-1.7-1.4-2.8-3.3-2.8
		c-1.1,0-2,0.3-2.8,0.8l-1-0.7l0.4-6.5h7.7v1.4h-6.3l-0.3,4.3c0.8-0.3,1.5-0.6,2.6-0.6c2.6,0,4.6,1.5,4.6,4.1v0c0,2.6-2,4.4-4.7,4.4
		C264.5,530.2,262.9,529.3,261.7,528.1z"/>
	<path fill="#82BC00" d="M273.5,523.4L273.5,523.4c0-3.8,2.2-6.9,5.6-6.9s5.6,3.1,5.6,6.8v0c0,3.7-2.2,6.9-5.6,6.9
		C275.6,530.2,273.5,527.1,273.5,523.4z M283.1,523.4L283.1,523.4c0-2.9-1.6-5.5-4.1-5.5c-2.5,0-4,2.5-4,5.5v0
		c0,2.9,1.6,5.5,4.1,5.5C281.6,528.9,283.1,526.3,283.1,523.4z"/>
	<path fill="#82BC00" d="M292.4,528.7l0.7-1c1.1,0.8,2.2,1.3,3.4,1.3c1.2,0,2-0.6,2-1.6v0c0-1-1.2-1.4-2.5-1.7
		c-1.5-0.4-3.2-1-3.2-2.8v0c0-1.7,1.4-2.8,3.3-2.8c1.2,0,2.5,0.4,3.5,1.1l-0.7,1.1c-0.9-0.6-2-1-2.9-1c-1.2,0-1.9,0.6-1.9,1.4v0
		c0,0.9,1.2,1.3,2.5,1.7c1.5,0.5,3.2,1,3.2,2.8v0c0,1.9-1.5,2.9-3.5,2.9C295,530.2,293.5,529.6,292.4,528.7z"/>
	<path fill="#82BC00" d="M302.7,516.4h1.7v1.6h-1.7V516.4z M302.8,520.2h1.5v9.8h-1.5V520.2z"/>
	<path fill="#82BC00" d="M307.5,531.7l0.7-1.1c1.1,0.8,2.4,1.3,3.8,1.3c2.2,0,3.6-1.2,3.6-3.5v-1.2c-0.9,1.1-2.1,2.1-3.9,2.1
		c-2.4,0-4.6-1.8-4.6-4.6v0c0-2.9,2.3-4.6,4.6-4.6c1.8,0,3,0.9,3.8,2v-1.8h1.5v8.1c0,1.5-0.5,2.7-1.3,3.5c-0.9,0.9-2.2,1.3-3.7,1.3
		C310.4,533.1,308.9,532.6,307.5,531.7z M315.6,524.6L315.6,524.6c0-2.1-1.7-3.4-3.6-3.4c-1.9,0-3.4,1.3-3.4,3.3v0
		c0,2,1.6,3.3,3.4,3.3C313.9,527.9,315.6,526.6,315.6,524.6z"/>
	<path fill="#82BC00" d="M320.3,520.2h1.5v1.7c0.6-1.1,1.7-1.9,3.4-1.9c2.4,0,3.8,1.6,3.8,3.9v6.1h-1.5v-5.7c0-1.8-1-3-2.7-3
		c-1.7,0-2.9,1.2-2.9,3.1v5.6h-1.5V520.2z"/>
	<path fill="#82BC00" d="M332,516.4h1.7v1.6H332V516.4z M332.1,520.2h1.5v9.8h-1.5V520.2z"/>
	<path fill="#82BC00" d="M337.5,521.5h-1.3v-1.3h1.3v-0.9c0-1.1,0.3-2,0.9-2.5c0.5-0.5,1.2-0.8,2.1-0.8c0.7,0,1.1,0.1,1.6,0.2v1.3
		c-0.5-0.2-0.9-0.2-1.4-0.2c-1.1,0-1.7,0.7-1.7,2.1v0.8h3.1v1.3H339v8.5h-1.5V521.5z M344,516.4h1.7v1.6H344V516.4z M344.1,520.2
		h1.4v9.8h-1.4V520.2z"/>
	<path fill="#82BC00" d="M348.4,525.1L348.4,525.1c0-2.8,2.2-5.2,5-5.2c1.9,0,3,0.8,3.9,1.7l-1,1c-0.8-0.8-1.7-1.5-3-1.5
		c-2,0-3.5,1.7-3.5,3.8v0c0,2.1,1.6,3.8,3.6,3.8c1.3,0,2.2-0.6,3-1.5l0.9,0.9c-1,1.1-2.2,1.9-4,1.9
		C350.5,530.2,348.4,527.9,348.4,525.1z"/>
	<path fill="#82BC00" d="M359.1,527.2L359.1,527.2c0-2.1,1.7-3.2,4.2-3.2c1.3,0,2.1,0.2,3,0.4V524c0-1.8-1.1-2.7-2.9-2.7
		c-1.2,0-2.1,0.3-3,0.7l-0.4-1.2c1.1-0.5,2.1-0.8,3.6-0.8c1.4,0,2.5,0.4,3.2,1.1c0.7,0.7,1,1.6,1,2.9v6h-1.4v-1.5
		c-0.7,0.9-1.8,1.7-3.6,1.7C360.9,530.2,359.1,529.2,359.1,527.2z M366.3,526.4v-1c-0.7-0.2-1.7-0.4-2.9-0.4c-1.8,0-2.9,0.8-2.9,2v0
		c0,1.2,1.1,2,2.5,2C364.8,529,366.3,527.9,366.3,526.4z"/>
	<path fill="#82BC00" d="M370.8,520.2h1.5v1.7c0.6-1.1,1.7-1.9,3.4-1.9c2.4,0,3.8,1.6,3.8,3.9v6.1h-1.5v-5.7c0-1.8-1-3-2.7-3
		c-1.7,0-2.9,1.2-2.9,3.1v5.6h-1.5V520.2z"/>
	<path fill="#82BC00" d="M383,527.4v-5.9h-1.4v-1.3h1.4v-3h1.5v3h3.1v1.3h-3.1v5.7c0,1.2,0.7,1.6,1.7,1.6c0.5,0,0.9-0.1,1.4-0.3v1.3
		c-0.5,0.3-1.1,0.4-1.8,0.4C384.2,530.2,383,529.4,383,527.4z"/>
	<path fill="#82BC00" d="M390.3,516.1h1.5V530h-1.5V516.1z"/>
	<path fill="#82BC00" d="M402.5,520.2h1.6l-4.1,10.1c-0.8,2-1.8,2.8-3.3,2.8c-0.8,0-1.4-0.2-2.1-0.5l0.5-1.2
		c0.5,0.2,0.9,0.4,1.5,0.4c0.9,0,1.4-0.5,2-1.8l-4.5-9.8h1.6l3.6,8.2L402.5,520.2z"/>
	<path fill="#82BC00" d="M412.2,516.4h1.7v1.6h-1.7V516.4z M412.3,520.2h1.5v9.8h-1.5V520.2z"/>
	<path fill="#82BC00" d="M417.1,520.2h1.5v1.7c0.6-1,1.5-1.9,3.2-1.9c1.6,0,2.6,0.9,3.2,2c0.7-1.1,1.7-2,3.5-2c2.3,0,3.6,1.5,3.6,4
		v6.1h-1.5v-5.7c0-1.9-1-3-2.5-3c-1.5,0-2.7,1.1-2.7,3v5.7h-1.5v-5.8c0-1.8-1-2.9-2.5-2.9c-1.6,0-2.7,1.3-2.7,3.1v5.6h-1.5V520.2z"
		/>
	<path fill="#82BC00" d="M435.2,520.2h1.5v2c0.8-1.2,2-2.2,3.8-2.2c2.4,0,4.7,1.9,4.7,5.1v0c0,3.2-2.3,5.1-4.7,5.1
		c-1.8,0-3-1-3.8-2.1v4.9h-1.5V520.2z M443.6,525.1L443.6,525.1c0-2.4-1.6-3.8-3.5-3.8c-1.8,0-3.6,1.5-3.6,3.8v0
		c0,2.3,1.7,3.8,3.6,3.8C442,528.9,443.6,527.5,443.6,525.1z"/>
	<path fill="#82BC00" d="M447.8,520.2h1.5v2.6c0.7-1.6,2.1-2.8,4-2.7v1.6h-0.1c-2.1,0-3.9,1.5-3.9,4.5v3.9h-1.5V520.2z"/>
	<path fill="#82BC00" d="M454.5,525.1L454.5,525.1c0-2.8,2.2-5.2,5.1-5.2c2.9,0,5.1,2.3,5.1,5.1v0c0,2.8-2.2,5.1-5.1,5.1
		C456.6,530.2,454.5,527.9,454.5,525.1z M463.2,525.1L463.2,525.1c0-2.1-1.6-3.9-3.6-3.9c-2.1,0-3.6,1.7-3.6,3.8v0
		c0,2.1,1.6,3.8,3.6,3.8C461.7,528.9,463.2,527.2,463.2,525.1z"/>
	<path fill="#82BC00" d="M465.8,520.2h1.6l3.3,8.1l3.3-8.1h1.6l-4.3,9.9h-1.3L465.8,520.2z"/>
	<path fill="#82BC00" d="M476.8,525.1L476.8,525.1c0-2.9,2-5.1,4.7-5.1c2.9,0,4.6,2.3,4.6,5.2c0,0.2,0,0.3,0,0.5h-7.8
		c0.2,2.1,1.7,3.3,3.5,3.3c1.3,0,2.3-0.6,3.1-1.4l0.9,0.8c-1,1.1-2.2,1.8-4,1.8C479,530.2,476.8,528.2,476.8,525.1z M484.6,524.5
		c-0.2-1.8-1.2-3.3-3.1-3.3c-1.7,0-3,1.4-3.2,3.3H484.6z"/>
	<path fill="#82BC00" d="M487.8,528.7l0.7-1c1.1,0.8,2.2,1.3,3.4,1.3c1.2,0,2-0.6,2-1.6v0c0-1-1.2-1.4-2.5-1.7
		c-1.5-0.4-3.2-1-3.2-2.8v0c0-1.7,1.4-2.8,3.3-2.8c1.2,0,2.5,0.4,3.5,1.1l-0.7,1.1c-0.9-0.6-2-1-2.9-1c-1.2,0-1.9,0.6-1.9,1.4v0
		c0,0.9,1.2,1.3,2.5,1.7c1.5,0.5,3.2,1,3.2,2.8v0c0,1.9-1.5,2.9-3.5,2.9C490.5,530.2,488.9,529.6,487.8,528.7z"/>
	<path fill="#82BC00" d="M503,528.7l0.7-1c1.1,0.8,2.2,1.3,3.4,1.3c1.2,0,2-0.6,2-1.6v0c0-1-1.2-1.4-2.5-1.7c-1.5-0.4-3.2-1-3.2-2.8
		v0c0-1.7,1.4-2.8,3.3-2.8c1.2,0,2.5,0.4,3.5,1.1l-0.7,1.1c-0.9-0.6-2-1-2.9-1c-1.2,0-1.9,0.6-1.9,1.4v0c0,0.9,1.2,1.3,2.5,1.7
		c1.5,0.5,3.2,1,3.2,2.8v0c0,1.9-1.5,2.9-3.5,2.9C505.6,530.2,504.1,529.6,503,528.7z"/>
	<path fill="#82BC00" d="M513.2,516.1h1.5v9.6l5.3-5.5h1.8l-4.1,4.2l4.3,5.6h-1.7l-3.5-4.6l-2,2v2.6h-1.5V516.1z"/>
	<path fill="#82BC00" d="M524.1,516.4h1.7v1.6h-1.7V516.4z M524.2,520.2h1.5v9.8h-1.5V520.2z"/>
	<path fill="#82BC00" d="M529,520.2h1.5v1.7c0.6-1.1,1.7-1.9,3.4-1.9c2.4,0,3.8,1.6,3.8,3.9v6.1h-1.5v-5.7c0-1.8-1-3-2.7-3
		c-1.7,0-2.9,1.2-2.9,3.1v5.6H529V520.2z"/>
	<path fill="#82BC00" d="M546.5,516.1h1.5v5.8c0.6-1.1,1.7-1.9,3.4-1.9c2.4,0,3.8,1.6,3.8,3.9v6.1h-1.5v-5.7c0-1.8-1-3-2.7-3
		c-1.7,0-2.9,1.2-2.9,3.1v5.6h-1.5V516.1z"/>
	<path fill="#82BC00" d="M565.2,520.2h1.6l-4.1,10.1c-0.8,2-1.8,2.8-3.3,2.8c-0.8,0-1.4-0.2-2.1-0.5l0.5-1.2
		c0.5,0.2,0.9,0.4,1.5,0.4c0.9,0,1.4-0.5,2-1.8l-4.5-9.8h1.6l3.6,8.2L565.2,520.2z"/>
	<path fill="#82BC00" d="M568.1,525.1L568.1,525.1c0-3.2,2.3-5.1,4.7-5.1c1.8,0,3,1,3.8,2.1v-5.9h1.5V530h-1.5v-2
		c-0.8,1.2-2,2.2-3.8,2.2C570.4,530.2,568.1,528.3,568.1,525.1z M576.6,525.1L576.6,525.1c0-2.3-1.7-3.8-3.6-3.8
		c-1.9,0-3.5,1.4-3.5,3.8v0c0,2.3,1.6,3.8,3.5,3.8C574.8,528.9,576.6,527.4,576.6,525.1z"/>
	<path fill="#82BC00" d="M581.2,520.2h1.5v2.6c0.7-1.6,2.1-2.8,4-2.7v1.6h-0.1c-2.1,0-3.9,1.5-3.9,4.5v3.9h-1.5V520.2z"/>
	<path fill="#82BC00" d="M587.7,527.2L587.7,527.2c0-2.1,1.7-3.2,4.2-3.2c1.3,0,2.1,0.2,3,0.4V524c0-1.8-1.1-2.7-2.9-2.7
		c-1.2,0-2.1,0.3-3,0.7l-0.4-1.2c1.1-0.5,2.1-0.8,3.6-0.8c1.4,0,2.5,0.4,3.2,1.1c0.7,0.7,1,1.6,1,2.9v6h-1.4v-1.5
		c-0.7,0.9-1.8,1.7-3.6,1.7C589.6,530.2,587.7,529.2,587.7,527.2z M595,526.4v-1c-0.7-0.2-1.7-0.4-2.9-0.4c-1.8,0-2.9,0.8-2.9,2v0
		c0,1.2,1.1,2,2.5,2C593.5,529,595,527.9,595,526.4z"/>
	<path fill="#82BC00" d="M599.9,527.4v-5.9h-1.4v-1.3h1.4v-3h1.5v3h3.1v1.3h-3.1v5.7c0,1.2,0.7,1.6,1.7,1.6c0.5,0,0.9-0.1,1.4-0.3
		v1.3c-0.5,0.3-1.1,0.4-1.8,0.4C601.1,530.2,599.9,529.4,599.9,527.4z"/>
	<path fill="#82BC00" d="M607.1,516.4h1.7v1.6h-1.7V516.4z M607.2,520.2h1.5v9.8h-1.5V520.2z"/>
	<path fill="#82BC00" d="M611.4,525.1L611.4,525.1c0-2.8,2.2-5.2,5.1-5.2c2.9,0,5.1,2.3,5.1,5.1v0c0,2.8-2.2,5.1-5.1,5.1
		C613.6,530.2,611.4,527.9,611.4,525.1z M620.2,525.1L620.2,525.1c0-2.1-1.6-3.9-3.6-3.9c-2.1,0-3.6,1.7-3.6,3.8v0
		c0,2.1,1.6,3.8,3.6,3.8C618.7,528.9,620.2,527.2,620.2,525.1z"/>
	<path fill="#82BC00" d="M624.3,520.2h1.5v1.7c0.6-1.1,1.7-1.9,3.4-1.9c2.4,0,3.8,1.6,3.8,3.9v6.1h-1.5v-5.7c0-1.8-1-3-2.7-3
		c-1.7,0-2.9,1.2-2.9,3.1v5.6h-1.5V520.2z"/>
	<path fill="#82BC00" d="M641.1,525.1L641.1,525.1c0-3.2,2.3-5.1,4.7-5.1c1.8,0,3,1,3.8,2.1v-5.9h1.5V530h-1.5v-2
		c-0.8,1.2-2,2.2-3.8,2.2C643.5,530.2,641.1,528.3,641.1,525.1z M649.7,525.1L649.7,525.1c0-2.3-1.7-3.8-3.6-3.8
		c-1.9,0-3.5,1.4-3.5,3.8v0c0,2.3,1.6,3.8,3.5,3.8C647.9,528.9,649.7,527.4,649.7,525.1z"/>
	<path fill="#82BC00" d="M654.2,526.3v-6.1h1.5v5.7c0,1.8,1,3,2.7,3c1.7,0,2.9-1.2,2.9-3.1v-5.6h1.4v9.8h-1.4v-1.7
		c-0.7,1.1-1.7,1.9-3.4,1.9C655.6,530.2,654.2,528.6,654.2,526.3z"/>
	<path fill="#82BC00" d="M666,520.2h1.5v2.6c0.7-1.6,2.1-2.8,4-2.7v1.6h-0.1c-2.1,0-3.9,1.5-3.9,4.5v3.9H666V520.2z"/>
	<path fill="#82BC00" d="M673.8,516.4h1.7v1.6h-1.7V516.4z M673.9,520.2h1.5v9.8h-1.5V520.2z"/>
	<path fill="#82BC00" d="M678.7,520.2h1.5v1.7c0.6-1.1,1.7-1.9,3.4-1.9c2.4,0,3.8,1.6,3.8,3.9v6.1h-1.5v-5.7c0-1.8-1-3-2.7-3
		c-1.7,0-2.9,1.2-2.9,3.1v5.6h-1.5V520.2z"/>
	<path fill="#82BC00" d="M690.3,531.7l0.7-1.1c1.1,0.8,2.4,1.3,3.8,1.3c2.2,0,3.6-1.2,3.6-3.5v-1.2c-0.9,1.1-2.1,2.1-3.9,2.1
		c-2.4,0-4.6-1.8-4.6-4.6v0c0-2.9,2.3-4.6,4.6-4.6c1.8,0,3,0.9,3.8,2v-1.8h1.5v8.1c0,1.5-0.5,2.7-1.3,3.5c-0.9,0.9-2.2,1.3-3.7,1.3
		C693.1,533.1,691.6,532.6,690.3,531.7z M698.4,524.6L698.4,524.6c0-2.1-1.7-3.4-3.6-3.4c-1.9,0-3.4,1.3-3.4,3.3v0
		c0,2,1.6,3.3,3.4,3.3C696.6,527.9,698.4,526.6,698.4,524.6z"/>
	<path fill="#82BC00" d="M708.1,526.4L708.1,526.4c0-1.6,1.1-2.7,2.7-3.3c-1.2-0.6-2.3-1.5-2.3-3.1v0c0-2.1,2.1-3.5,4.5-3.5
		s4.5,1.5,4.5,3.5v0c0,1.5-1,2.5-2.3,3.1c1.6,0.6,2.7,1.7,2.7,3.2v0c0,2.3-2.2,3.8-5,3.8C710.3,530.2,708.1,528.7,708.1,526.4z
		 M716.6,526.4L716.6,526.4c0-1.5-1.5-2.6-3.5-2.6s-3.5,1-3.5,2.5v0c0,1.3,1.3,2.5,3.5,2.5S716.6,527.7,716.6,526.4z M716.1,520.2
		L716.1,520.2c0-1.3-1.3-2.3-3-2.3s-3,1-3,2.3v0c0,1.4,1.3,2.4,3,2.4C714.8,522.6,716.1,521.6,716.1,520.2z"/>
	<path fill="#82BC00" d="M726.4,516.1h1.5v5.8c0.6-1.1,1.7-1.9,3.4-1.9c2.4,0,3.8,1.6,3.8,3.9v6.1h-1.5v-5.7c0-1.8-1-3-2.7-3
		c-1.7,0-2.9,1.2-2.9,3.1v5.6h-1.5V516.1z"/>
	<path fill="#82BC00" d="M737.5,525.1L737.5,525.1c0-2.8,2.2-5.2,5.1-5.2c2.9,0,5.1,2.3,5.1,5.1v0c0,2.8-2.2,5.1-5.1,5.1
		C739.7,530.2,737.5,527.9,737.5,525.1z M746.2,525.1L746.2,525.1c0-2.1-1.6-3.9-3.6-3.9c-2.1,0-3.6,1.7-3.6,3.8v0
		c0,2.1,1.6,3.8,3.6,3.8C744.8,528.9,746.2,527.2,746.2,525.1z"/>
	<path fill="#82BC00" d="M750.2,526.3v-6.1h1.5v5.7c0,1.8,1,3,2.7,3c1.7,0,2.9-1.2,2.9-3.1v-5.6h1.4v9.8h-1.4v-1.7
		c-0.7,1.1-1.7,1.9-3.4,1.9C751.6,530.2,750.2,528.6,750.2,526.3z"/>
	<path fill="#82BC00" d="M762.1,520.2h1.5v2.6c0.7-1.6,2.1-2.8,4-2.7v1.6h-0.1c-2.1,0-3.9,1.5-3.9,4.5v3.9h-1.5V520.2z"/>
	<path fill="#82BC00" d="M769,528.7l0.7-1c1.1,0.8,2.2,1.3,3.4,1.3c1.2,0,2-0.6,2-1.6v0c0-1-1.2-1.4-2.5-1.7c-1.5-0.4-3.2-1-3.2-2.8
		v0c0-1.7,1.4-2.8,3.3-2.8c1.2,0,2.5,0.4,3.5,1.1l-0.7,1.1c-0.9-0.6-2-1-2.9-1c-1.2,0-1.9,0.6-1.9,1.4v0c0,0.9,1.2,1.3,2.5,1.7
		c1.5,0.5,3.2,1,3.2,2.8v0c0,1.9-1.5,2.9-3.5,2.9C771.6,530.2,770.1,529.6,769,528.7z"/>
	<path fill="#82BC00" d="M785.5,521.5h-1.3v-1.3h1.3v-0.9c0-1.1,0.3-2,0.9-2.5c0.5-0.5,1.2-0.8,2.1-0.8c0.7,0,1.1,0.1,1.6,0.2v1.3
		c-0.5-0.2-0.9-0.2-1.4-0.2c-1.1,0-1.7,0.7-1.7,2.1v0.8h3.1v1.3H787v8.5h-1.5V521.5z"/>
	<path fill="#82BC00" d="M791.1,525.1L791.1,525.1c0-2.8,2.2-5.2,5.1-5.2c2.9,0,5.1,2.3,5.1,5.1v0c0,2.8-2.2,5.1-5.1,5.1
		C793.3,530.2,791.1,527.9,791.1,525.1z M799.9,525.1L799.9,525.1c0-2.1-1.6-3.9-3.6-3.9c-2.1,0-3.6,1.7-3.6,3.8v0
		c0,2.1,1.6,3.8,3.6,3.8C798.4,528.9,799.9,527.2,799.9,525.1z"/>
	<path fill="#82BC00" d="M804.1,516.1h1.5V530h-1.5V516.1z"/>
	<path fill="#82BC00" d="M809.1,516.1h1.5V530h-1.5V516.1z"/>
	<path fill="#82BC00" d="M813.4,525.1L813.4,525.1c0-2.8,2.2-5.2,5.1-5.2c2.9,0,5.1,2.3,5.1,5.1v0c0,2.8-2.2,5.1-5.1,5.1
		C815.5,530.2,813.4,527.9,813.4,525.1z M822.1,525.1L822.1,525.1c0-2.1-1.6-3.9-3.6-3.9c-2.1,0-3.6,1.7-3.6,3.8v0
		c0,2.1,1.6,3.8,3.6,3.8C820.7,528.9,822.1,527.2,822.1,525.1z"/>
	<path fill="#82BC00" d="M825,520.2h1.6l2.6,7.9l2.6-7.9h1.2l2.7,7.9l2.6-7.9h1.5l-3.5,9.9H835l-2.6-7.8l-2.7,7.8h-1.3L825,520.2z"
		/>
	<path fill="#82BC00" d="M842.2,516.4h1.7v1.6h-1.7V516.4z M842.3,520.2h1.5v9.8h-1.5V520.2z"/>
	<path fill="#82BC00" d="M847.2,520.2h1.5v1.7c0.6-1.1,1.7-1.9,3.4-1.9c2.4,0,3.8,1.6,3.8,3.9v6.1h-1.5v-5.7c0-1.8-1-3-2.7-3
		c-1.7,0-2.9,1.2-2.9,3.1v5.6h-1.5V520.2z"/>
	<path fill="#82BC00" d="M858.7,531.7l0.7-1.1c1.1,0.8,2.4,1.3,3.8,1.3c2.2,0,3.6-1.2,3.6-3.5v-1.2c-0.9,1.1-2.1,2.1-3.9,2.1
		c-2.4,0-4.6-1.8-4.6-4.6v0c0-2.9,2.3-4.6,4.6-4.6c1.8,0,3,0.9,3.8,2v-1.8h1.5v8.1c0,1.5-0.5,2.7-1.3,3.5c-0.9,0.9-2.2,1.3-3.7,1.3
		C861.6,533.1,860.1,532.6,858.7,531.7z M866.8,524.6L866.8,524.6c0-2.1-1.7-3.4-3.6-3.4c-1.9,0-3.4,1.3-3.4,3.3v0
		c0,2,1.6,3.3,3.4,3.3C865.1,527.9,866.8,526.6,866.8,524.6z"/>
	<path fill="#82BC00" d="M876.4,527.2L876.4,527.2c0-2.1,1.7-3.2,4.2-3.2c1.3,0,2.1,0.2,3,0.4V524c0-1.8-1.1-2.7-2.9-2.7
		c-1.2,0-2.1,0.3-3,0.7l-0.4-1.2c1.1-0.5,2.1-0.8,3.6-0.8c1.4,0,2.5,0.4,3.2,1.1c0.7,0.7,1,1.6,1,2.9v6h-1.4v-1.5
		c-0.7,0.9-1.8,1.7-3.6,1.7C878.3,530.2,876.4,529.2,876.4,527.2z M883.7,526.4v-1c-0.7-0.2-1.7-0.4-2.9-0.4c-1.8,0-2.9,0.8-2.9,2v0
		c0,1.2,1.1,2,2.5,2C882.2,529,883.7,527.9,883.7,526.4z"/>
	<path fill="#82BC00" d="M888.2,520.2h1.5v2c0.8-1.2,2-2.2,3.8-2.2c2.4,0,4.7,1.9,4.7,5.1v0c0,3.2-2.3,5.1-4.7,5.1
		c-1.8,0-3-1-3.8-2.1v4.9h-1.5V520.2z M896.6,525.1L896.6,525.1c0-2.4-1.6-3.8-3.5-3.8c-1.8,0-3.6,1.5-3.6,3.8v0
		c0,2.3,1.7,3.8,3.6,3.8C895,528.9,896.6,527.5,896.6,525.1z"/>
	<path fill="#82BC00" d="M900.8,520.2h1.5v2c0.8-1.2,2-2.2,3.8-2.2c2.4,0,4.7,1.9,4.7,5.1v0c0,3.2-2.3,5.1-4.7,5.1
		c-1.8,0-3-1-3.8-2.1v4.9h-1.5V520.2z M909.2,525.1L909.2,525.1c0-2.4-1.6-3.8-3.5-3.8c-1.8,0-3.6,1.5-3.6,3.8v0
		c0,2.3,1.7,3.8,3.6,3.8C907.7,528.9,909.2,527.5,909.2,525.1z"/>
	<path fill="#82BC00" d="M913.5,516.1h1.5V530h-1.5V516.1z"/>
	<path fill="#82BC00" d="M918.4,516.4h1.7v1.6h-1.7V516.4z M918.5,520.2h1.5v9.8h-1.5V520.2z"/>
	<path fill="#82BC00" d="M922.8,525.1L922.8,525.1c0-2.8,2.2-5.2,5-5.2c1.9,0,3,0.8,3.9,1.7l-1,1c-0.8-0.8-1.7-1.5-3-1.5
		c-2,0-3.5,1.7-3.5,3.8v0c0,2.1,1.6,3.8,3.6,3.8c1.3,0,2.2-0.6,3-1.5l0.9,0.9c-1,1.1-2.2,1.9-4,1.9
		C925,530.2,922.8,527.9,922.8,525.1z"/>
	<path fill="#82BC00" d="M933.5,527.2L933.5,527.2c0-2.1,1.7-3.2,4.2-3.2c1.3,0,2.1,0.2,3,0.4V524c0-1.8-1.1-2.7-2.9-2.7
		c-1.2,0-2.1,0.3-3,0.7l-0.4-1.2c1.1-0.5,2.1-0.8,3.6-0.8c1.4,0,2.5,0.4,3.2,1.1c0.7,0.7,1,1.6,1,2.9v6h-1.4v-1.5
		c-0.7,0.9-1.8,1.7-3.6,1.7C935.4,530.2,933.5,529.2,933.5,527.2z M940.8,526.4v-1c-0.7-0.2-1.7-0.4-2.9-0.4c-1.8,0-2.9,0.8-2.9,2v0
		c0,1.2,1.1,2,2.5,2C939.3,529,940.8,527.9,940.8,526.4z"/>
	<path fill="#82BC00" d="M945.7,527.4v-5.9h-1.4v-1.3h1.4v-3h1.5v3h3.1v1.3h-3.1v5.7c0,1.2,0.7,1.6,1.7,1.6c0.5,0,0.9-0.1,1.4-0.3
		v1.3c-0.5,0.3-1.1,0.4-1.8,0.4C946.9,530.2,945.7,529.4,945.7,527.4z"/>
	<path fill="#82BC00" d="M952.9,516.4h1.7v1.6h-1.7V516.4z M953,520.2h1.5v9.8H953V520.2z"/>
	<path fill="#82BC00" d="M957.2,525.1L957.2,525.1c0-2.8,2.2-5.2,5.1-5.2c2.9,0,5.1,2.3,5.1,5.1v0c0,2.8-2.2,5.1-5.1,5.1
		C959.4,530.2,957.2,527.9,957.2,525.1z M966,525.1L966,525.1c0-2.1-1.6-3.9-3.6-3.9c-2.1,0-3.6,1.7-3.6,3.8v0
		c0,2.1,1.6,3.8,3.6,3.8C964.5,528.9,966,527.2,966,525.1z"/>
	<path fill="#82BC00" d="M970.1,520.2h1.5v1.7c0.6-1.1,1.7-1.9,3.4-1.9c2.4,0,3.8,1.6,3.8,3.9v6.1h-1.5v-5.7c0-1.8-1-3-2.7-3
		c-1.7,0-2.9,1.2-2.9,3.1v5.6h-1.5V520.2z"/>
	<path fill="#82BC00" d="M981.6,528h1.7v2h-1.7V528z"/>
</g>
<g enable-background="new    ">
	<path fill="#82BC00" d="M5.4,457.1H0.9v-1.4h10.4v1.4H6.9V469H5.4V457.1z"/>
	<path fill="#82BC00" d="M11.5,459.2h1.6l2.6,7.9l2.6-7.9h1.2l2.7,7.9l2.6-7.9h1.5l-3.5,9.9h-1.3l-2.6-7.8l-2.7,7.8H15L11.5,459.2z"
		/>
	<path fill="#82BC00" d="M27.6,464.1L27.6,464.1c0-2.9,2-5.1,4.7-5.1c2.9,0,4.6,2.3,4.6,5.2c0,0.2,0,0.3,0,0.5h-7.8
		c0.2,2.1,1.7,3.3,3.5,3.3c1.3,0,2.3-0.6,3.1-1.4l0.9,0.8c-1,1.1-2.2,1.8-4,1.8C29.8,469.2,27.6,467.2,27.6,464.1z M35.4,463.5
		c-0.2-1.8-1.2-3.3-3.1-3.3c-1.7,0-3,1.4-3.2,3.3H35.4z"/>
	<path fill="#82BC00" d="M39.5,459.2h1.5v1.7c0.6-1.1,1.7-1.9,3.4-1.9c2.4,0,3.8,1.6,3.8,3.9v6.1h-1.5v-5.7c0-1.8-1-3-2.7-3
		c-1.7,0-2.9,1.2-2.9,3.1v5.6h-1.5V459.2z"/>
	<path fill="#82BC00" d="M51.7,466.4v-5.9h-1.4v-1.3h1.4v-3h1.5v3h3.1v1.3h-3.1v5.7c0,1.2,0.7,1.6,1.7,1.6c0.5,0,0.9-0.1,1.4-0.3
		v1.3c-0.5,0.3-1.1,0.4-1.8,0.4C52.9,469.2,51.7,468.4,51.7,466.4z"/>
	<path fill="#82BC00" d="M66.2,459.2h1.6l-4.1,10.1c-0.8,2-1.8,2.8-3.3,2.8c-0.8,0-1.4-0.2-2.1-0.5l0.5-1.2c0.5,0.2,0.9,0.4,1.5,0.4
		c0.9,0,1.4-0.5,2-1.8l-4.5-9.8h1.6l3.6,8.2L66.2,459.2z"/>
	<path fill="#82BC00" d="M69.4,462.5h5.3v1.5h-5.3V462.5z"/>
	<path fill="#82BC00" d="M76.7,467.7l0.7-1c1.1,0.8,2.2,1.3,3.4,1.3c1.2,0,2-0.6,2-1.6v0c0-1-1.2-1.4-2.5-1.7
		c-1.5-0.4-3.2-1-3.2-2.8v0c0-1.7,1.4-2.8,3.3-2.8c1.2,0,2.5,0.4,3.5,1.1l-0.7,1.1c-0.9-0.6-2-1-2.9-1c-1.2,0-1.9,0.6-1.9,1.4v0
		c0,0.9,1.2,1.3,2.5,1.7c1.5,0.5,3.2,1,3.2,2.8v0c0,1.9-1.5,2.9-3.5,2.9C79.4,469.2,77.8,468.6,76.7,467.7z"/>
	<path fill="#82BC00" d="M86.4,464.1L86.4,464.1c0-2.9,2-5.1,4.7-5.1c2.9,0,4.6,2.3,4.6,5.2c0,0.2,0,0.3,0,0.5h-7.8
		c0.2,2.1,1.7,3.3,3.5,3.3c1.3,0,2.3-0.6,3.1-1.4l0.9,0.8c-1,1.1-2.2,1.8-4,1.8C88.6,469.2,86.4,467.2,86.4,464.1z M94.2,463.5
		c-0.2-1.8-1.2-3.3-3.1-3.3c-1.7,0-3,1.4-3.2,3.3H94.2z"/>
	<path fill="#82BC00" d="M96.8,459.2h1.6l3.3,8.1l3.3-8.1h1.6l-4.3,9.9h-1.3L96.8,459.2z"/>
	<path fill="#82BC00" d="M107.8,464.1L107.8,464.1c0-2.9,2-5.1,4.7-5.1c2.9,0,4.6,2.3,4.6,5.2c0,0.2,0,0.3,0,0.5h-7.8
		c0.2,2.1,1.7,3.3,3.5,3.3c1.3,0,2.3-0.6,3.1-1.4l0.9,0.8c-1,1.1-2.2,1.8-4,1.8C110,469.2,107.8,467.2,107.8,464.1z M115.6,463.5
		c-0.2-1.8-1.2-3.3-3.1-3.3c-1.7,0-3,1.4-3.2,3.3H115.6z"/>
	<path fill="#82BC00" d="M119.6,459.2h1.5v1.7c0.6-1.1,1.7-1.9,3.4-1.9c2.4,0,3.8,1.6,3.8,3.9v6.1h-1.5v-5.7c0-1.8-1-3-2.7-3
		c-1.7,0-2.9,1.2-2.9,3.1v5.6h-1.5V459.2z"/>
	<path fill="#82BC00" d="M136.2,459.2h1.6l2.6,7.9l2.6-7.9h1.2l2.7,7.9l2.6-7.9h1.5l-3.5,9.9h-1.3l-2.6-7.8l-2.7,7.8h-1.3
		L136.2,459.2z"/>
	<path fill="#82BC00" d="M152.3,464.1L152.3,464.1c0-2.8,2.2-5.2,5.1-5.2c2.9,0,5.1,2.3,5.1,5.1v0c0,2.8-2.2,5.1-5.1,5.1
		C154.4,469.2,152.3,466.9,152.3,464.1z M161,464.1L161,464.1c0-2.1-1.6-3.9-3.6-3.9c-2.1,0-3.6,1.7-3.6,3.8v0
		c0,2.1,1.6,3.8,3.6,3.8C159.6,467.9,161,466.2,161,464.1z"/>
	<path fill="#82BC00" d="M165.2,459.2h1.5v1.7c0.6-1,1.5-1.9,3.2-1.9c1.6,0,2.6,0.9,3.2,2c0.7-1.1,1.7-2,3.5-2c2.3,0,3.6,1.5,3.6,4
		v6.1h-1.5v-5.7c0-1.9-1-3-2.5-3c-1.5,0-2.7,1.1-2.7,3v5.7h-1.5v-5.8c0-1.8-1-2.9-2.5-2.9c-1.6,0-2.7,1.3-2.7,3.1v5.6h-1.5V459.2z"
		/>
	<path fill="#82BC00" d="M182.6,464.1L182.6,464.1c0-2.9,2-5.1,4.7-5.1c2.9,0,4.6,2.3,4.6,5.2c0,0.2,0,0.3,0,0.5h-7.8
		c0.2,2.1,1.7,3.3,3.5,3.3c1.3,0,2.3-0.6,3.1-1.4l0.9,0.8c-1,1.1-2.2,1.8-4,1.8C184.8,469.2,182.6,467.2,182.6,464.1z M190.5,463.5
		c-0.2-1.8-1.2-3.3-3.1-3.3c-1.7,0-3,1.4-3.2,3.3H190.5z"/>
	<path fill="#82BC00" d="M194.5,459.2h1.5v1.7c0.6-1.1,1.7-1.9,3.4-1.9c2.4,0,3.8,1.6,3.8,3.9v6.1h-1.5v-5.7c0-1.8-1-3-2.7-3
		c-1.7,0-2.9,1.2-2.9,3.1v5.6h-1.5V459.2z"/>
	<path fill="#82BC00" d="M211.2,466.2L211.2,466.2c0-2.1,1.7-3.2,4.2-3.2c1.3,0,2.1,0.2,3,0.4V463c0-1.8-1.1-2.7-2.9-2.7
		c-1.2,0-2.1,0.3-3,0.7l-0.4-1.2c1.1-0.5,2.1-0.8,3.6-0.8c1.4,0,2.5,0.4,3.2,1.1c0.7,0.7,1,1.6,1,2.9v6h-1.4v-1.5
		c-0.7,0.9-1.8,1.7-3.6,1.7C213,469.2,211.2,468.2,211.2,466.2z M218.4,465.4v-1c-0.7-0.2-1.7-0.4-2.9-0.4c-1.8,0-2.9,0.8-2.9,2v0
		c0,1.2,1.1,2,2.5,2C216.9,468,218.4,466.9,218.4,465.4z"/>
	<path fill="#82BC00" d="M222.8,470.7l0.7-1.1c1.1,0.8,2.4,1.3,3.8,1.3c2.2,0,3.6-1.2,3.6-3.5v-1.2c-0.9,1.1-2.1,2.1-3.9,2.1
		c-2.4,0-4.6-1.8-4.6-4.6v0c0-2.9,2.3-4.6,4.6-4.6c1.8,0,3,0.9,3.8,2v-1.8h1.5v8.1c0,1.5-0.5,2.7-1.3,3.5c-0.9,0.9-2.2,1.3-3.7,1.3
		C225.6,472.1,224.1,471.6,222.8,470.7z M230.8,463.6L230.8,463.6c0-2.1-1.7-3.4-3.6-3.4c-1.9,0-3.4,1.3-3.4,3.3v0
		c0,2,1.6,3.3,3.4,3.3C229.1,466.9,230.8,465.6,230.8,463.6z"/>
	<path fill="#82BC00" d="M234.9,464.1L234.9,464.1c0-2.9,2-5.1,4.7-5.1c2.9,0,4.6,2.3,4.6,5.2c0,0.2,0,0.3,0,0.5h-7.8
		c0.2,2.1,1.7,3.3,3.5,3.3c1.3,0,2.3-0.6,3.1-1.4l0.9,0.8c-1,1.1-2.2,1.8-4,1.8C237.1,469.2,234.9,467.2,234.9,464.1z M242.7,463.5
		c-0.2-1.8-1.2-3.3-3.1-3.3c-1.7,0-3,1.4-3.2,3.3H242.7z"/>
	<path fill="#82BC00" d="M246.2,464.1L246.2,464.1c0-3.2,2.3-5.1,4.7-5.1c1.8,0,3,1,3.8,2.1v-5.9h1.5V469h-1.5v-2
		c-0.8,1.2-2,2.2-3.8,2.2C248.5,469.2,246.2,467.3,246.2,464.1z M254.7,464.1L254.7,464.1c0-2.3-1.7-3.8-3.6-3.8
		c-1.9,0-3.5,1.4-3.5,3.8v0c0,2.3,1.6,3.8,3.5,3.8C253,467.9,254.7,466.4,254.7,464.1z"/>
	<path fill="#82BC00" d="M266.9,457.2l-2.5,0.8l-0.4-1.2l3.2-1.1h1.1V469h-1.5V457.2z"/>
	<path fill="#82BC00" d="M271.2,465.4L271.2,465.4c0-1.6,1.1-2.7,2.7-3.3c-1.2-0.6-2.3-1.5-2.3-3.1v0c0-2.1,2.1-3.5,4.5-3.5
		s4.5,1.5,4.5,3.5v0c0,1.5-1,2.5-2.3,3.1c1.6,0.6,2.7,1.7,2.7,3.2v0c0,2.3-2.2,3.8-5,3.8C273.4,469.2,271.2,467.7,271.2,465.4z
		 M279.7,465.4L279.7,465.4c0-1.5-1.5-2.6-3.5-2.6c-1.9,0-3.5,1-3.5,2.5v0c0,1.3,1.3,2.5,3.5,2.5
		C278.4,467.9,279.7,466.7,279.7,465.4z M279.3,459.2L279.3,459.2c0-1.3-1.3-2.3-3-2.3c-1.7,0-3,1-3,2.3v0c0,1.4,1.3,2.4,3,2.4
		C277.9,461.6,279.3,460.6,279.3,459.2z"/>
	<path fill="#82BC00" d="M296.9,459.2h1.6l-4.1,10.1c-0.8,2-1.8,2.8-3.3,2.8c-0.8,0-1.4-0.2-2.1-0.5l0.5-1.2
		c0.5,0.2,0.9,0.4,1.5,0.4c0.9,0,1.4-0.5,2-1.8l-4.5-9.8h1.6l3.6,8.2L296.9,459.2z"/>
	<path fill="#82BC00" d="M307,466.4v-5.9h-1.4v-1.3h1.4v-3h1.5v3h3.1v1.3h-3.1v5.7c0,1.2,0.7,1.6,1.7,1.6c0.5,0,0.9-0.1,1.4-0.3v1.3
		c-0.5,0.3-1.1,0.4-1.8,0.4C308.2,469.2,307,468.4,307,466.4z"/>
	<path fill="#82BC00" d="M313.3,464.1L313.3,464.1c0-2.8,2.2-5.2,5.1-5.2c2.9,0,5.1,2.3,5.1,5.1v0c0,2.8-2.2,5.1-5.1,5.1
		C315.4,469.2,313.3,466.9,313.3,464.1z M322,464.1L322,464.1c0-2.1-1.6-3.9-3.6-3.9c-2.1,0-3.6,1.7-3.6,3.8v0
		c0,2.1,1.6,3.8,3.6,3.8C320.5,467.9,322,466.2,322,464.1z"/>
	<path fill="#82BC00" d="M333,467.9c-1.1-1.1-1.7-2.4-1.7-5.1v0c0-4,2.1-7.2,5.5-7.2c1.6,0,2.8,0.6,3.9,1.5l-0.9,1.2
		c-1-0.8-1.9-1.3-3.1-1.3c-2.6,0-3.9,2.7-3.9,5.7v0.2c0.9-1.3,2.1-2.1,3.8-2.1c2.5,0,4.6,1.6,4.6,4.1v0c0,2.6-2.1,4.4-4.8,4.4
		C335.1,469.2,333.9,468.7,333,467.9z M339.8,464.9L339.8,464.9c0-1.7-1.3-2.9-3.2-2.9c-2,0-3.3,1.4-3.3,2.9v0c0,1.7,1.4,3,3.4,3
		C338.5,467.9,339.8,466.5,339.8,464.9z"/>
	<path fill="#82BC00" d="M343.5,467.1l1-1.1c1.2,1.1,2.4,1.8,3.8,1.8c1.9,0,3.2-1.3,3.2-2.9v0c0-1.7-1.4-2.8-3.3-2.8
		c-1.1,0-2,0.3-2.8,0.8l-1-0.7l0.4-6.5h7.7v1.4h-6.3l-0.3,4.3c0.8-0.3,1.5-0.6,2.6-0.6c2.6,0,4.6,1.5,4.6,4.1v0c0,2.6-2,4.4-4.7,4.4
		C346.4,469.2,344.7,468.3,343.5,467.1z"/>
	<path fill="#82BC00" d="M368.8,459.2h1.6l-4.1,10.1c-0.8,2-1.8,2.8-3.3,2.8c-0.8,0-1.4-0.2-2.1-0.5l0.5-1.2
		c0.5,0.2,0.9,0.4,1.5,0.4c0.9,0,1.4-0.5,2-1.8l-4.5-9.8h1.6l3.6,8.2L368.8,459.2z"/>
	<path fill="#82BC00" d="M377.6,459.2h1.6l2.6,7.9l2.6-7.9h1.2l2.7,7.9l2.6-7.9h1.5l-3.5,9.9h-1.3l-2.6-7.8l-2.7,7.8H381
		L377.6,459.2z"/>
	<path fill="#82BC00" d="M394.8,455.4h1.7v1.6h-1.7V455.4z M394.9,459.2h1.5v9.8h-1.5V459.2z"/>
	<path fill="#82BC00" d="M400.3,466.4v-5.9h-1.4v-1.3h1.4v-3h1.5v3h3.1v1.3h-3.1v5.7c0,1.2,0.7,1.6,1.7,1.6c0.5,0,0.9-0.1,1.4-0.3
		v1.3c-0.5,0.3-1.1,0.4-1.8,0.4C401.5,469.2,400.3,468.4,400.3,466.4z"/>
	<path fill="#82BC00" d="M407.4,455.1h1.5v5.8c0.6-1.1,1.7-1.9,3.4-1.9c2.4,0,3.8,1.6,3.8,3.9v6.1h-1.5v-5.7c0-1.8-1-3-2.7-3
		c-1.7,0-2.9,1.2-2.9,3.1v5.6h-1.5V455.1z"/>
	<path fill="#82BC00" d="M424.8,459.2h1.5v1.7c0.6-1,1.5-1.9,3.2-1.9c1.6,0,2.6,0.9,3.2,2c0.7-1.1,1.7-2,3.5-2c2.3,0,3.6,1.5,3.6,4
		v6.1h-1.5v-5.7c0-1.9-1-3-2.5-3c-1.5,0-2.7,1.1-2.7,3v5.7h-1.5v-5.8c0-1.8-1-2.9-2.5-2.9c-1.6,0-2.7,1.3-2.7,3.1v5.6h-1.5V459.2z"
		/>
	<path fill="#82BC00" d="M442.9,455.4h1.7v1.6h-1.7V455.4z M443,459.2h1.5v9.8H443V459.2z"/>
	<path fill="#82BC00" d="M448,455.1h1.5V469H448V455.1z"/>
	<path fill="#82BC00" d="M452.3,464.1L452.3,464.1c0-3.2,2.3-5.1,4.7-5.1c1.8,0,3,1,3.8,2.1v-5.9h1.5V469h-1.5v-2
		c-0.8,1.2-2,2.2-3.8,2.2C454.7,469.2,452.3,467.3,452.3,464.1z M460.8,464.1L460.8,464.1c0-2.3-1.7-3.8-3.6-3.8
		c-1.9,0-3.5,1.4-3.5,3.8v0c0,2.3,1.6,3.8,3.5,3.8C459.1,467.9,460.8,466.4,460.8,464.1z"/>
	<path fill="#82BC00" d="M471.7,466.4v-5.9h-1.4v-1.3h1.4v-3h1.5v3h3.1v1.3h-3.1v5.7c0,1.2,0.7,1.6,1.7,1.6c0.5,0,0.9-0.1,1.4-0.3
		v1.3c-0.5,0.3-1.1,0.4-1.8,0.4C472.9,469.2,471.7,468.4,471.7,466.4z"/>
	<path fill="#82BC00" d="M478,464.1L478,464.1c0-2.8,2.2-5.2,5.1-5.2c2.9,0,5.1,2.3,5.1,5.1v0c0,2.8-2.2,5.1-5.1,5.1
		C480.1,469.2,478,466.9,478,464.1z M486.7,464.1L486.7,464.1c0-2.1-1.6-3.9-3.6-3.9c-2.1,0-3.6,1.7-3.6,3.8v0
		c0,2.1,1.6,3.8,3.6,3.8C485.3,467.9,486.7,466.2,486.7,464.1z"/>
	<path fill="#82BC00" d="M496.6,459.2h1.5v1.7c0.6-1,1.5-1.9,3.2-1.9c1.6,0,2.6,0.9,3.2,2c0.7-1.1,1.7-2,3.5-2c2.3,0,3.6,1.5,3.6,4
		v6.1H510v-5.7c0-1.9-1-3-2.5-3c-1.5,0-2.7,1.1-2.7,3v5.7h-1.5v-5.8c0-1.8-1-2.9-2.5-2.9c-1.6,0-2.7,1.3-2.7,3.1v5.6h-1.5V459.2z"/>
	<path fill="#82BC00" d="M514,464.1L514,464.1c0-2.8,2.2-5.2,5.1-5.2c2.9,0,5.1,2.3,5.1,5.1v0c0,2.8-2.2,5.1-5.1,5.1
		C516.2,469.2,514,466.9,514,464.1z M522.8,464.1L522.8,464.1c0-2.1-1.6-3.9-3.6-3.9c-2.1,0-3.6,1.7-3.6,3.8v0
		c0,2.1,1.6,3.8,3.6,3.8C521.3,467.9,522.8,466.2,522.8,464.1z"/>
	<path fill="#82BC00" d="M526.3,464.1L526.3,464.1c0-3.2,2.3-5.1,4.7-5.1c1.8,0,3,1,3.8,2.1v-5.9h1.5V469h-1.5v-2
		c-0.8,1.2-2,2.2-3.8,2.2C528.7,469.2,526.3,467.3,526.3,464.1z M534.9,464.1L534.9,464.1c0-2.3-1.7-3.8-3.6-3.8
		c-1.9,0-3.5,1.4-3.5,3.8v0c0,2.3,1.6,3.8,3.5,3.8C533.1,467.9,534.9,466.4,534.9,464.1z"/>
	<path fill="#82BC00" d="M538.9,464.1L538.9,464.1c0-2.9,2-5.1,4.7-5.1c2.9,0,4.6,2.3,4.6,5.2c0,0.2,0,0.3,0,0.5h-7.8
		c0.2,2.1,1.7,3.3,3.5,3.3c1.3,0,2.3-0.6,3.1-1.4l0.9,0.8c-1,1.1-2.2,1.8-4,1.8C541.1,469.2,538.9,467.2,538.9,464.1z M546.7,463.5
		c-0.2-1.8-1.2-3.3-3.1-3.3c-1.7,0-3,1.4-3.2,3.3H546.7z"/>
	<path fill="#82BC00" d="M550.8,459.2h1.5v2.6c0.7-1.6,2.1-2.8,4-2.7v1.6h-0.1c-2.1,0-3.9,1.5-3.9,4.5v3.9h-1.5V459.2z"/>
	<path fill="#82BC00" d="M557.3,466.2L557.3,466.2c0-2.1,1.7-3.2,4.2-3.2c1.3,0,2.1,0.2,3,0.4V463c0-1.8-1.1-2.7-2.9-2.7
		c-1.2,0-2.1,0.3-3,0.7l-0.4-1.2c1.1-0.5,2.1-0.8,3.6-0.8c1.4,0,2.5,0.4,3.2,1.1c0.7,0.7,1,1.6,1,2.9v6h-1.4v-1.5
		c-0.7,0.9-1.8,1.7-3.6,1.7C559.1,469.2,557.3,468.2,557.3,466.2z M564.5,465.4v-1c-0.7-0.2-1.7-0.4-2.9-0.4c-1.8,0-2.9,0.8-2.9,2v0
		c0,1.2,1.1,2,2.5,2C563,468,564.5,466.9,564.5,465.4z"/>
	<path fill="#82BC00" d="M569.4,466.4v-5.9h-1.4v-1.3h1.4v-3h1.5v3h3.1v1.3h-3.1v5.7c0,1.2,0.7,1.6,1.7,1.6c0.5,0,0.9-0.1,1.4-0.3
		v1.3c-0.5,0.3-1.1,0.4-1.8,0.4C570.6,469.2,569.4,468.4,569.4,466.4z"/>
	<path fill="#82BC00" d="M575.7,464.1L575.7,464.1c0-2.9,2-5.1,4.7-5.1c2.9,0,4.6,2.3,4.6,5.2c0,0.2,0,0.3,0,0.5h-7.8
		c0.2,2.1,1.7,3.3,3.5,3.3c1.3,0,2.3-0.6,3.1-1.4l0.9,0.8c-1,1.1-2.2,1.8-4,1.8C577.9,469.2,575.7,467.2,575.7,464.1z M583.5,463.5
		c-0.2-1.8-1.2-3.3-3.1-3.3c-1.7,0-3,1.4-3.2,3.3H583.5z"/>
	<path fill="#82BC00" d="M592.7,464.1L592.7,464.1c0-3.2,2.3-5.1,4.7-5.1c1.8,0,3,1,3.8,2.1v-5.9h1.5V469h-1.5v-2
		c-0.8,1.2-2,2.2-3.8,2.2C595,469.2,592.7,467.3,592.7,464.1z M601.2,464.1L601.2,464.1c0-2.3-1.7-3.8-3.6-3.8
		c-1.9,0-3.5,1.4-3.5,3.8v0c0,2.3,1.6,3.8,3.5,3.8C599.5,467.9,601.2,466.4,601.2,464.1z"/>
	<path fill="#82BC00" d="M605.9,459.2h1.5v2.6c0.7-1.6,2.1-2.8,4-2.7v1.6h-0.1c-2.1,0-3.9,1.5-3.9,4.5v3.9h-1.5V459.2z"/>
	<path fill="#82BC00" d="M620.9,459.2h1.6l-4.1,10.1c-0.8,2-1.8,2.8-3.3,2.8c-0.8,0-1.4-0.2-2.1-0.5l0.5-1.2
		c0.5,0.2,0.9,0.4,1.5,0.4c0.9,0,1.4-0.5,2-1.8l-4.5-9.8h1.6l3.6,8.2L620.9,459.2z"/>
	<path fill="#82BC00" d="M629.7,467.7l0.7-1c1.1,0.8,2.2,1.3,3.4,1.3c1.2,0,2-0.6,2-1.6v0c0-1-1.2-1.4-2.5-1.7
		c-1.5-0.4-3.2-1-3.2-2.8v0c0-1.7,1.4-2.8,3.3-2.8c1.2,0,2.5,0.4,3.5,1.1l-0.7,1.1c-0.9-0.6-2-1-2.9-1c-1.2,0-1.9,0.6-1.9,1.4v0
		c0,0.9,1.2,1.3,2.5,1.7c1.5,0.5,3.2,1,3.2,2.8v0c0,1.9-1.5,2.9-3.5,2.9C632.3,469.2,630.8,468.6,629.7,467.7z"/>
	<path fill="#82BC00" d="M639.9,455.1h1.5v9.6l5.3-5.5h1.8l-4.1,4.2l4.3,5.6h-1.7l-3.5-4.6l-2,2v2.6h-1.5V455.1z"/>
	<path fill="#82BC00" d="M650.8,455.4h1.7v1.6h-1.7V455.4z M650.9,459.2h1.5v9.8h-1.5V459.2z"/>
	<path fill="#82BC00" d="M655.8,459.2h1.5v1.7c0.6-1.1,1.7-1.9,3.4-1.9c2.4,0,3.8,1.6,3.8,3.9v6.1h-1.5v-5.7c0-1.8-1-3-2.7-3
		c-1.7,0-2.9,1.2-2.9,3.1v5.6h-1.5V459.2z"/>
	<path fill="#82BC00" d="M672.5,464.1L672.5,464.1c0-2.8,2.2-5.2,5.1-5.2c2.9,0,5.1,2.3,5.1,5.1v0c0,2.8-2.2,5.1-5.1,5.1
		C674.7,469.2,672.5,466.9,672.5,464.1z M681.3,464.1L681.3,464.1c0-2.1-1.6-3.9-3.6-3.9c-2.1,0-3.6,1.7-3.6,3.8v0
		c0,2.1,1.6,3.8,3.6,3.8C679.8,467.9,681.3,466.2,681.3,464.1z"/>
	<path fill="#82BC00" d="M685.4,459.2h1.5v1.7c0.6-1.1,1.7-1.9,3.4-1.9c2.4,0,3.8,1.6,3.8,3.9v6.1h-1.5v-5.7c0-1.8-1-3-2.7-3
		c-1.7,0-2.9,1.2-2.9,3.1v5.6h-1.5V459.2z"/>
	<path fill="#82BC00" d="M703.3,466.4v-5.9H702v-1.3h1.4v-3h1.5v3h3.1v1.3h-3.1v5.7c0,1.2,0.7,1.6,1.7,1.6c0.5,0,0.9-0.1,1.4-0.3
		v1.3c-0.5,0.3-1.1,0.4-1.8,0.4C704.5,469.2,703.3,468.4,703.3,466.4z"/>
	<path fill="#82BC00" d="M710.5,455.1h1.5v5.8c0.6-1.1,1.7-1.9,3.4-1.9c2.4,0,3.8,1.6,3.8,3.9v6.1h-1.5v-5.7c0-1.8-1-3-2.7-3
		c-1.7,0-2.9,1.2-2.9,3.1v5.6h-1.5V455.1z"/>
	<path fill="#82BC00" d="M721.6,464.1L721.6,464.1c0-2.9,2-5.1,4.7-5.1c2.9,0,4.6,2.3,4.6,5.2c0,0.2,0,0.3,0,0.5h-7.8
		c0.2,2.1,1.7,3.3,3.5,3.3c1.3,0,2.3-0.6,3.1-1.4l0.9,0.8c-1,1.1-2.2,1.8-4,1.8C723.8,469.2,721.6,467.2,721.6,464.1z M729.4,463.5
		c-0.2-1.8-1.2-3.3-3.1-3.3c-1.7,0-3,1.4-3.2,3.3H729.4z"/>
	<path fill="#82BC00" d="M733.5,455.4h1.7v1.6h-1.7V455.4z M733.6,459.2h1.5v9.8h-1.5V459.2z"/>
	<path fill="#82BC00" d="M738.5,459.2h1.5v2.6c0.7-1.6,2.1-2.8,4-2.7v1.6h-0.1c-2.1,0-3.9,1.5-3.9,4.5v3.9h-1.5V459.2z"/>
	<path fill="#82BC00" d="M752,455.1h1.5V469H752V455.1z"/>
	<path fill="#82BC00" d="M756.2,464.1L756.2,464.1c0-2.9,2-5.1,4.7-5.1c2.9,0,4.6,2.3,4.6,5.2c0,0.2,0,0.3,0,0.5h-7.8
		c0.2,2.1,1.7,3.3,3.5,3.3c1.3,0,2.3-0.6,3.1-1.4l0.9,0.8c-1,1.1-2.2,1.8-4,1.8C758.4,469.2,756.2,467.2,756.2,464.1z M764.1,463.5
		c-0.2-1.8-1.2-3.3-3.1-3.3c-1.7,0-3,1.4-3.2,3.3H764.1z"/>
	<path fill="#82BC00" d="M768,470.7l0.7-1.1c1.1,0.8,2.4,1.3,3.8,1.3c2.2,0,3.6-1.2,3.6-3.5v-1.2c-0.9,1.1-2.1,2.1-3.9,2.1
		c-2.4,0-4.6-1.8-4.6-4.6v0c0-2.9,2.3-4.6,4.6-4.6c1.8,0,3,0.9,3.8,2v-1.8h1.5v8.1c0,1.5-0.5,2.7-1.3,3.5c-0.9,0.9-2.2,1.3-3.7,1.3
		C770.8,472.1,769.3,471.6,768,470.7z M776,463.6L776,463.6c0-2.1-1.7-3.4-3.6-3.4c-1.9,0-3.4,1.3-3.4,3.3v0c0,2,1.6,3.3,3.4,3.3
		C774.3,466.9,776,465.6,776,463.6z"/>
	<path fill="#82BC00" d="M779.9,467.7l0.7-1c1.1,0.8,2.2,1.3,3.4,1.3c1.2,0,2-0.6,2-1.6v0c0-1-1.2-1.4-2.5-1.7
		c-1.5-0.4-3.2-1-3.2-2.8v0c0-1.7,1.4-2.8,3.3-2.8c1.2,0,2.5,0.4,3.5,1.1l-0.7,1.1c-0.9-0.6-2-1-2.9-1c-1.2,0-1.9,0.6-1.9,1.4v0
		c0,0.9,1.2,1.3,2.5,1.7c1.5,0.5,3.2,1,3.2,2.8v0c0,1.9-1.5,2.9-3.5,2.9C782.6,469.2,781,468.6,779.9,467.7z"/>
	<path fill="#82BC00" d="M795.1,466.2L795.1,466.2c0-2.1,1.7-3.2,4.2-3.2c1.3,0,2.1,0.2,3,0.4V463c0-1.8-1.1-2.7-2.9-2.7
		c-1.2,0-2.1,0.3-3,0.7l-0.4-1.2c1.1-0.5,2.1-0.8,3.6-0.8c1.4,0,2.5,0.4,3.2,1.1c0.7,0.7,1,1.6,1,2.9v6h-1.4v-1.5
		c-0.7,0.9-1.8,1.7-3.6,1.7C797,469.2,795.1,468.2,795.1,466.2z M802.4,465.4v-1c-0.7-0.2-1.7-0.4-2.9-0.4c-1.8,0-2.9,0.8-2.9,2v0
		c0,1.2,1.1,2,2.5,2C800.9,468,802.4,466.9,802.4,465.4z"/>
	<path fill="#82BC00" d="M806.9,459.2h1.5v2c0.8-1.2,2-2.2,3.8-2.2c2.4,0,4.7,1.9,4.7,5.1v0c0,3.2-2.3,5.1-4.7,5.1
		c-1.8,0-3-1-3.8-2.1v4.9h-1.5V459.2z M815.3,464.1L815.3,464.1c0-2.4-1.6-3.8-3.5-3.8c-1.8,0-3.6,1.5-3.6,3.8v0
		c0,2.3,1.7,3.8,3.6,3.8C813.7,467.9,815.3,466.5,815.3,464.1z"/>
	<path fill="#82BC00" d="M819.5,459.2h1.5v2c0.8-1.2,2-2.2,3.8-2.2c2.4,0,4.7,1.9,4.7,5.1v0c0,3.2-2.3,5.1-4.7,5.1
		c-1.8,0-3-1-3.8-2.1v4.9h-1.5V459.2z M827.9,464.1L827.9,464.1c0-2.4-1.6-3.8-3.5-3.8c-1.8,0-3.6,1.5-3.6,3.8v0
		c0,2.3,1.7,3.8,3.6,3.8C826.4,467.9,827.9,466.5,827.9,464.1z"/>
	<path fill="#82BC00" d="M832.2,455.1h1.5V469h-1.5V455.1z"/>
	<path fill="#82BC00" d="M837.1,455.4h1.7v1.6h-1.7V455.4z M837.2,459.2h1.5v9.8h-1.5V459.2z"/>
	<path fill="#82BC00" d="M841.5,464.1L841.5,464.1c0-2.9,2-5.1,4.7-5.1c2.9,0,4.6,2.3,4.6,5.2c0,0.2,0,0.3,0,0.5H843
		c0.2,2.1,1.7,3.3,3.5,3.3c1.3,0,2.3-0.6,3.1-1.4l0.9,0.8c-1,1.1-2.2,1.8-4,1.8C843.7,469.2,841.5,467.2,841.5,464.1z M849.3,463.5
		c-0.2-1.8-1.2-3.3-3.1-3.3c-1.7,0-3,1.4-3.2,3.3H849.3z"/>
	<path fill="#82BC00" d="M852.8,464.1L852.8,464.1c0-3.2,2.3-5.1,4.7-5.1c1.8,0,3,1,3.8,2.1v-5.9h1.5V469h-1.5v-2
		c-0.8,1.2-2,2.2-3.8,2.2C855.1,469.2,852.8,467.3,852.8,464.1z M861.3,464.1L861.3,464.1c0-2.3-1.7-3.8-3.6-3.8
		c-1.9,0-3.5,1.4-3.5,3.8v0c0,2.3,1.6,3.8,3.5,3.8C859.6,467.9,861.3,466.4,861.3,464.1z"/>
	<path fill="#82BC00" d="M871.3,462.4L871.3,462.4c0-3.8,2.8-6.9,6.7-6.9c2.4,0,3.9,0.9,5.2,2.1l-1,1.1c-1.1-1.1-2.4-1.8-4.2-1.8
		c-2.9,0-5.1,2.4-5.1,5.5v0c0,3.1,2.2,5.5,5.1,5.5c1.8,0,3-0.7,4.3-1.9l1,1c-1.4,1.4-2.9,2.3-5.3,2.3
		C874.2,469.2,871.3,466.2,871.3,462.4z"/>
	<path fill="#82BC00" d="M884.9,464.1L884.9,464.1c0-2.9,2-5.1,4.7-5.1c2.9,0,4.6,2.3,4.6,5.2c0,0.2,0,0.3,0,0.5h-7.8
		c0.2,2.1,1.7,3.3,3.5,3.3c1.3,0,2.3-0.6,3.1-1.4l0.9,0.8c-1,1.1-2.2,1.8-4,1.8C887.1,469.2,884.9,467.2,884.9,464.1z M892.7,463.5
		c-0.2-1.8-1.2-3.3-3.1-3.3c-1.7,0-3,1.4-3.2,3.3H892.7z"/>
	<path fill="#82BC00" d="M897.3,466.4v-5.9h-1.4v-1.3h1.4v-3h1.5v3h3.1v1.3h-3.1v5.7c0,1.2,0.7,1.6,1.7,1.6c0.5,0,0.9-0.1,1.4-0.3
		v1.3c-0.5,0.3-1.1,0.4-1.8,0.4C898.5,469.2,897.3,468.4,897.3,466.4z"/>
	<path fill="#82BC00" d="M903.7,466.2L903.7,466.2c0-2.1,1.7-3.2,4.2-3.2c1.3,0,2.1,0.2,3,0.4V463c0-1.8-1.1-2.7-2.9-2.7
		c-1.2,0-2.1,0.3-3,0.7l-0.4-1.2c1.1-0.5,2.1-0.8,3.6-0.8c1.4,0,2.5,0.4,3.2,1.1c0.7,0.7,1,1.6,1,2.9v6h-1.4v-1.5
		c-0.7,0.9-1.8,1.7-3.6,1.7C905.5,469.2,903.7,468.2,903.7,466.2z M910.9,465.4v-1c-0.7-0.2-1.7-0.4-2.9-0.4c-1.8,0-2.9,0.8-2.9,2v0
		c0,1.2,1.1,2,2.5,2C909.4,468,910.9,466.9,910.9,465.4z"/>
	<path fill="#82BC00" d="M915.4,459.2h1.5v2c0.8-1.2,2-2.2,3.8-2.2c2.4,0,4.7,1.9,4.7,5.1v0c0,3.2-2.3,5.1-4.7,5.1
		c-1.8,0-3-1-3.8-2.1v4.9h-1.5V459.2z M923.8,464.1L923.8,464.1c0-2.4-1.6-3.8-3.5-3.8c-1.8,0-3.6,1.5-3.6,3.8v0
		c0,2.3,1.7,3.8,3.6,3.8C922.3,467.9,923.8,466.5,923.8,464.1z"/>
	<path fill="#82BC00" d="M928,455.1h1.5v5.8c0.6-1.1,1.7-1.9,3.4-1.9c2.4,0,3.8,1.6,3.8,3.9v6.1h-1.5v-5.7c0-1.8-1-3-2.7-3
		c-1.7,0-2.9,1.2-2.9,3.1v5.6H928V455.1z"/>
	<path fill="#82BC00" d="M939.8,455.4h1.7v1.6h-1.7V455.4z M939.9,459.2h1.5v9.8h-1.5V459.2z"/>
	<path fill="#82BC00" d="M944.9,455.1h1.5V469h-1.5V455.1z"/>
	<path fill="#82BC00" d="M948.6,458.9L948.6,458.9c0-1.8,1.5-3.3,3.3-3.3c1.9,0,3.3,1.5,3.3,3.3v0c0,1.8-1.5,3.3-3.3,3.3
		C950.1,462.2,948.6,460.7,948.6,458.9z M954.9,458.8L954.9,458.8c0-1.6-1.3-3-2.9-3c-1.7,0-2.9,1.3-2.9,3v0c0,1.6,1.3,2.9,2.9,2.9
		C953.6,461.8,954.9,460.5,954.9,458.8z M950.6,457.1h1.5c0.7,0,1.3,0.4,1.3,1.1c0,0.6-0.3,0.9-0.8,1l0.9,1.3h-0.8l-0.8-1.2h-0.7
		v1.2h-0.6V457.1z M952.1,458.8c0.4,0,0.7-0.2,0.7-0.6c0-0.4-0.2-0.6-0.7-0.6h-0.8v1.1H952.1z"/>
	<path fill="#82BC00" d="M963.3,455.7h4.6c4.2,0,7.1,2.9,7.1,6.6v0c0,3.7-2.9,6.6-7.1,6.6h-4.6V455.7z M964.8,457.1v10.5h3.1
		c3.4,0,5.5-2.3,5.5-5.2v0c0-2.9-2.1-5.3-5.5-5.3H964.8z"/>
	<path fill="#82BC00" d="M977.2,466.2L977.2,466.2c0-2.1,1.7-3.2,4.2-3.2c1.3,0,2.1,0.2,3,0.4V463c0-1.8-1.1-2.7-2.9-2.7
		c-1.2,0-2.1,0.3-3,0.7l-0.4-1.2c1.1-0.5,2.1-0.8,3.6-0.8c1.4,0,2.5,0.4,3.2,1.1c0.7,0.7,1,1.6,1,2.9v6h-1.4v-1.5
		c-0.7,0.9-1.8,1.7-3.6,1.7C979.1,469.2,977.2,468.2,977.2,466.2z M984.4,465.4v-1c-0.7-0.2-1.7-0.4-2.9-0.4c-1.8,0-2.9,0.8-2.9,2v0
		c0,1.2,1.1,2,2.5,2C983,468,984.4,466.9,984.4,465.4z"/>
	<path fill="#82BC00" d="M989,455.4h1.7v1.6H989V455.4z M989.1,459.2h1.5v9.8h-1.5V459.2z"/>
	<path fill="#82BC00" d="M994.1,455.1h1.5V469h-1.5V455.1z"/>
	<path fill="#82BC00" d="M1006.3,459.2h1.6l-4.1,10.1c-0.8,2-1.8,2.8-3.3,2.8c-0.8,0-1.4-0.2-2.1-0.5l0.5-1.2
		c0.5,0.2,0.9,0.4,1.5,0.4c0.9,0,1.4-0.5,2-1.8l-4.5-9.8h1.6l3.6,8.2L1006.3,459.2z"/>
</g>
<g enable-background="new    ">
	<path fill="#82BC00" d="M1.9,478.5h9.6v1.4H3.4v4.7h7.2v1.4H3.4v5.8H1.9V478.5z"/>
	<path fill="#82BC00" d="M12.9,489L12.9,489c0-2.1,1.7-3.2,4.2-3.2c1.3,0,2.1,0.2,3,0.4v-0.3c0-1.8-1.1-2.7-2.9-2.7
		c-1.2,0-2.1,0.3-3,0.7l-0.4-1.2c1.1-0.5,2.1-0.8,3.6-0.8c1.4,0,2.5,0.4,3.2,1.1c0.7,0.7,1,1.6,1,2.9v6h-1.4v-1.5
		c-0.7,0.9-1.8,1.7-3.6,1.7C14.7,492,12.9,491,12.9,489z M20.1,488.2v-1c-0.7-0.2-1.7-0.4-2.9-0.4c-1.8,0-2.9,0.8-2.9,2v0
		c0,1.2,1.1,2,2.5,2C18.6,490.8,20.1,489.7,20.1,488.2z"/>
	<path fill="#82BC00" d="M24,486.9L24,486.9c0-2.8,2.2-5.2,5-5.2c1.9,0,3,0.8,3.9,1.7l-1,1c-0.8-0.8-1.7-1.5-3-1.5
		c-2,0-3.5,1.7-3.5,3.8v0c0,2.1,1.6,3.8,3.6,3.8c1.3,0,2.2-0.6,3-1.5l0.9,0.9c-1,1.1-2.2,1.9-4,1.9C26.2,492,24,489.7,24,486.9z"/>
	<path fill="#82BC00" d="M35.5,478.2h1.7v1.6h-1.7V478.2z M35.6,482h1.5v9.8h-1.5V482z"/>
	<path fill="#82BC00" d="M39.7,489L39.7,489c0-2.1,1.7-3.2,4.2-3.2c1.3,0,2.1,0.2,3,0.4v-0.3c0-1.8-1.1-2.7-2.9-2.7
		c-1.2,0-2.1,0.3-3,0.7l-0.4-1.2c1.1-0.5,2.1-0.8,3.6-0.8c1.4,0,2.5,0.4,3.2,1.1c0.7,0.7,1,1.6,1,2.9v6h-1.4v-1.5
		c-0.7,0.9-1.8,1.7-3.6,1.7C41.6,492,39.7,491,39.7,489z M47,488.2v-1c-0.7-0.2-1.7-0.4-2.9-0.4c-1.8,0-2.9,0.8-2.9,2v0
		c0,1.2,1.1,2,2.5,2C45.5,490.8,47,489.7,47,488.2z"/>
	<path fill="#82BC00" d="M51.6,477.9h1.5v13.9h-1.5V477.9z"/>
	<path fill="#82BC00" d="M62.4,478.5h1.5l4.8,7.3l4.8-7.3h1.5v13.3h-1.5V481l-4.8,7.1h-0.1l-4.8-7.1v10.8h-1.5V478.5z"/>
	<path fill="#82BC00" d="M78.1,486.9L78.1,486.9c0-2.8,2.2-5.2,5.1-5.2c2.9,0,5.1,2.3,5.1,5.1v0c0,2.8-2.2,5.1-5.1,5.1
		C80.2,492,78.1,489.7,78.1,486.9z M86.8,486.9L86.8,486.9c0-2.1-1.6-3.9-3.6-3.9c-2.1,0-3.6,1.7-3.6,3.8v0c0,2.1,1.6,3.8,3.6,3.8
		C85.3,490.7,86.8,489,86.8,486.9z"/>
	<path fill="#82BC00" d="M91,478.2h1.7v1.6H91V478.2z M91.1,482h1.5v9.8h-1.5V482z"/>
	<path fill="#82BC00" d="M95.1,490.5l0.7-1c1.1,0.8,2.2,1.3,3.4,1.3c1.2,0,2-0.6,2-1.6v0c0-1-1.2-1.4-2.5-1.7
		c-1.5-0.4-3.2-1-3.2-2.8v0c0-1.7,1.4-2.8,3.3-2.8c1.2,0,2.5,0.4,3.5,1.1l-0.7,1.1c-0.9-0.6-2-1-2.9-1c-1.2,0-1.9,0.6-1.9,1.4v0
		c0,0.9,1.2,1.3,2.5,1.7c1.5,0.5,3.2,1,3.2,2.8v0c0,1.9-1.5,2.9-3.5,2.9C97.8,492,96.2,491.4,95.1,490.5z"/>
	<path fill="#82BC00" d="M105.7,489.2v-5.9h-1.4V482h1.4v-3h1.5v3h3.1v1.3h-3.1v5.7c0,1.2,0.7,1.6,1.7,1.6c0.5,0,0.9-0.1,1.4-0.3
		v1.3c-0.5,0.3-1.1,0.4-1.8,0.4C106.9,492,105.7,491.2,105.7,489.2z"/>
	<path fill="#82BC00" d="M112.7,488.1V482h1.5v5.7c0,1.8,1,3,2.7,3c1.7,0,2.9-1.2,2.9-3.1V482h1.4v9.8h-1.4v-1.7
		c-0.7,1.1-1.7,1.9-3.4,1.9C114.1,492,112.7,490.4,112.7,488.1z"/>
	<path fill="#82BC00" d="M124.6,482h1.5v2.6c0.7-1.6,2.1-2.8,4-2.7v1.6h-0.1c-2.1,0-3.9,1.5-3.9,4.5v3.9h-1.5V482z"/>
	<path fill="#82BC00" d="M132.3,478.2h1.7v1.6h-1.7V478.2z M132.4,482h1.5v9.8h-1.5V482z"/>
	<path fill="#82BC00" d="M136.7,490.9l6.5-7.7h-6.3V482h8.3v0.9l-6.5,7.7h6.5v1.2h-8.5V490.9z"/>
	<path fill="#82BC00" d="M146.9,486.9L146.9,486.9c0-2.9,2-5.1,4.7-5.1c2.9,0,4.6,2.3,4.6,5.2c0,0.2,0,0.3,0,0.5h-7.8
		c0.2,2.1,1.7,3.3,3.5,3.3c1.3,0,2.3-0.6,3.1-1.4l0.9,0.8c-1,1.1-2.2,1.8-4,1.8C149.1,492,146.9,490,146.9,486.9z M154.8,486.3
		c-0.2-1.8-1.2-3.3-3.1-3.3c-1.7,0-3,1.4-3.2,3.3H154.8z"/>
	<path fill="#82BC00" d="M158.8,482h1.5v2.6c0.7-1.6,2.1-2.8,4-2.7v1.6h-0.1c-2.1,0-3.9,1.5-3.9,4.5v3.9h-1.5V482z"/>
	<path fill="#82BC00" d="M171.6,489.9l0.9-1.1c1.4,1.3,2.7,1.9,4.6,1.9c1.8,0,3-0.9,3-2.3v0c0-1.2-0.7-1.9-3.5-2.5
		c-3.1-0.7-4.5-1.7-4.5-3.8v0c0-2.1,1.8-3.6,4.4-3.6c1.9,0,3.3,0.6,4.7,1.6l-0.9,1.2c-1.2-1-2.5-1.4-3.8-1.4c-1.7,0-2.8,1-2.8,2.1v0
		c0,1.3,0.7,2,3.6,2.6c3,0.6,4.3,1.7,4.3,3.8v0c0,2.3-1.9,3.8-4.5,3.8C174.9,492,173.2,491.3,171.6,489.9z"/>
	<path fill="#82BC00" d="M184.6,478.5h5c3,0,5,1.6,5,4.2v0c0,2.9-2.4,4.4-5.2,4.4h-3.2v4.7h-1.5V478.5z M189.4,485.7
		c2.2,0,3.6-1.2,3.6-2.9v0c0-1.9-1.4-2.9-3.6-2.9h-3.4v5.9H189.4z"/>
	<path fill="#82BC00" d="M197.3,478.5h9.6v1.4h-8.1v4.7h7.2v1.4h-7.2v5.8h-1.5V478.5z"/>
	<path fill="#82BC00" d="M214.6,489.9l1-1.1c1.2,1.1,2.4,1.8,3.8,1.8c1.9,0,3.2-1.3,3.2-2.9v0c0-1.7-1.4-2.8-3.3-2.8
		c-1.1,0-2,0.3-2.8,0.8l-1-0.7l0.4-6.5h7.7v1.4h-6.3l-0.3,4.3c0.8-0.3,1.5-0.6,2.6-0.6c2.6,0,4.6,1.5,4.6,4.1v0c0,2.6-2,4.4-4.7,4.4
		C217.4,492,215.8,491.1,214.6,489.9z"/>
	<path fill="#82BC00" d="M226.4,485.2L226.4,485.2c0-3.8,2.2-6.9,5.6-6.9s5.6,3.1,5.6,6.8v0c0,3.7-2.2,6.9-5.6,6.9
		C228.5,492,226.4,488.9,226.4,485.2z M236.1,485.2L236.1,485.2c0-2.9-1.6-5.5-4.1-5.5c-2.5,0-4,2.5-4,5.5v0c0,2.9,1.6,5.5,4.1,5.5
		C234.5,490.7,236.1,488.1,236.1,485.2z"/>
	<path fill="#82BC00" d="M239.9,489.8h1.7v2h-1.7V489.8z"/>
	<path fill="#82BC00" d="M250.1,485.2L250.1,485.2c0-3.8,2.8-6.9,6.7-6.9c2.4,0,3.9,0.9,5.2,2.1l-1,1.1c-1.1-1.1-2.4-1.8-4.2-1.8
		c-2.9,0-5.1,2.4-5.1,5.5v0c0,3.1,2.2,5.5,5.1,5.5c1.8,0,3-0.7,4.3-1.9l1,1c-1.4,1.4-2.9,2.3-5.3,2.3
		C252.9,492,250.1,489,250.1,485.2z"/>
	<path fill="#82BC00" d="M263.6,486.9L263.6,486.9c0-2.8,2.2-5.2,5.1-5.2c2.9,0,5.1,2.3,5.1,5.1v0c0,2.8-2.2,5.1-5.1,5.1
		C265.8,492,263.6,489.7,263.6,486.9z M272.4,486.9L272.4,486.9c0-2.1-1.6-3.9-3.6-3.9c-2.1,0-3.6,1.7-3.6,3.8v0
		c0,2.1,1.6,3.8,3.6,3.8C270.9,490.7,272.4,489,272.4,486.9z"/>
	<path fill="#82BC00" d="M276.5,482h1.5v2.6c0.7-1.6,2.1-2.8,4-2.7v1.6h-0.1c-2.1,0-3.9,1.5-3.9,4.5v3.9h-1.5V482z"/>
	<path fill="#82BC00" d="M284.2,482h1.5v1.7c0.6-1.1,1.7-1.9,3.4-1.9c2.4,0,3.8,1.6,3.8,3.9v6.1h-1.5v-5.7c0-1.8-1-3-2.7-3
		c-1.7,0-2.9,1.2-2.9,3.1v5.6h-1.5V482z"/>
	<path fill="#82BC00" d="M295.3,486.9L295.3,486.9c0-2.9,2-5.1,4.7-5.1c2.9,0,4.6,2.3,4.6,5.2c0,0.2,0,0.3,0,0.5h-7.8
		c0.2,2.1,1.7,3.3,3.5,3.3c1.3,0,2.3-0.6,3.1-1.4l0.9,0.8c-1,1.1-2.2,1.8-4,1.8C297.5,492,295.3,490,295.3,486.9z M303.1,486.3
		c-0.2-1.8-1.2-3.3-3.1-3.3c-1.7,0-3,1.4-3.2,3.3H303.1z"/>
	<path fill="#82BC00" d="M306.5,486.9L306.5,486.9c0-2.8,2.2-5.2,5.1-5.2c2.9,0,5.1,2.3,5.1,5.1v0c0,2.8-2.2,5.1-5.1,5.1
		C308.7,492,306.5,489.7,306.5,486.9z M315.3,486.9L315.3,486.9c0-2.1-1.6-3.9-3.6-3.9c-2.1,0-3.6,1.7-3.6,3.8v0
		c0,2.1,1.6,3.8,3.6,3.8C313.8,490.7,315.3,489,315.3,486.9z"/>
	<path fill="#82BC00" d="M319.4,482h1.5v1.7c0.6-1,1.5-1.9,3.2-1.9c1.6,0,2.6,0.9,3.2,2c0.7-1.1,1.7-2,3.5-2c2.3,0,3.6,1.5,3.6,4
		v6.1h-1.5v-5.7c0-1.9-1-3-2.5-3c-1.5,0-2.7,1.1-2.7,3v5.7h-1.5V486c0-1.8-1-2.9-2.5-2.9c-1.6,0-2.7,1.3-2.7,3.1v5.6h-1.5V482z"/>
	<path fill="#82BC00" d="M336.9,486.9L336.9,486.9c0-2.9,2-5.1,4.7-5.1c2.9,0,4.6,2.3,4.6,5.2c0,0.2,0,0.3,0,0.5h-7.8
		c0.2,2.1,1.7,3.3,3.5,3.3c1.3,0,2.3-0.6,3.1-1.4l0.9,0.8c-1,1.1-2.2,1.8-4,1.8C339.1,492,336.9,490,336.9,486.9z M344.7,486.3
		c-0.2-1.8-1.2-3.3-3.1-3.3c-1.7,0-3,1.4-3.2,3.3H344.7z"/>
	<path fill="#82BC00" d="M349.3,489.2v-5.9h-1.4V482h1.4v-3h1.5v3h3.1v1.3h-3.1v5.7c0,1.2,0.7,1.6,1.7,1.6c0.5,0,0.9-0.1,1.4-0.3
		v1.3c-0.5,0.3-1.1,0.4-1.8,0.4C350.5,492,349.3,491.2,349.3,489.2z"/>
	<path fill="#82BC00" d="M356.4,482h1.5v2.6c0.7-1.6,2.1-2.8,4-2.7v1.6h-0.1c-2.1,0-3.9,1.5-3.9,4.5v3.9h-1.5V482z"/>
	<path fill="#82BC00" d="M371.5,482h1.6l-4.1,10.1c-0.8,2-1.8,2.8-3.3,2.8c-0.8,0-1.4-0.2-2.1-0.5l0.5-1.2c0.5,0.2,0.9,0.4,1.5,0.4
		c0.9,0,1.4-0.5,2-1.8l-4.5-9.8h1.6l3.6,8.2L371.5,482z"/>
	<path fill="#82BC00" d="M381,482h1.5v1.7c0.6-1,1.5-1.9,3.2-1.9c1.6,0,2.6,0.9,3.2,2c0.7-1.1,1.7-2,3.5-2c2.3,0,3.6,1.5,3.6,4v6.1
		h-1.5v-5.7c0-1.9-1-3-2.5-3c-1.5,0-2.7,1.1-2.7,3v5.7h-1.5V486c0-1.8-1-2.9-2.5-2.9c-1.6,0-2.7,1.3-2.7,3.1v5.6H381V482z"/>
	<path fill="#82BC00" d="M398.5,486.9L398.5,486.9c0-2.9,2-5.1,4.7-5.1c2.9,0,4.6,2.3,4.6,5.2c0,0.2,0,0.3,0,0.5H400
		c0.2,2.1,1.7,3.3,3.5,3.3c1.3,0,2.3-0.6,3.1-1.4l0.9,0.8c-1,1.1-2.2,1.8-4,1.8C400.7,492,398.5,490,398.5,486.9z M406.3,486.3
		c-0.2-1.8-1.2-3.3-3.1-3.3c-1.7,0-3,1.4-3.2,3.3H406.3z"/>
	<path fill="#82BC00" d="M409.6,489L409.6,489c0-2.1,1.7-3.2,4.2-3.2c1.3,0,2.1,0.2,3,0.4v-0.3c0-1.8-1.1-2.7-2.9-2.7
		c-1.2,0-2.1,0.3-3,0.7l-0.4-1.2c1.1-0.5,2.1-0.8,3.6-0.8c1.4,0,2.5,0.4,3.2,1.1c0.7,0.7,1,1.6,1,2.9v6h-1.4v-1.5
		c-0.7,0.9-1.8,1.7-3.6,1.7C411.5,492,409.6,491,409.6,489z M416.9,488.2v-1c-0.7-0.2-1.7-0.4-2.9-0.4c-1.8,0-2.9,0.8-2.9,2v0
		c0,1.2,1.1,2,2.5,2C415.4,490.8,416.9,489.7,416.9,488.2z"/>
	<path fill="#82BC00" d="M420.5,490.5l0.7-1c1.1,0.8,2.2,1.3,3.4,1.3c1.2,0,2-0.6,2-1.6v0c0-1-1.2-1.4-2.5-1.7
		c-1.5-0.4-3.2-1-3.2-2.8v0c0-1.7,1.4-2.8,3.3-2.8c1.2,0,2.5,0.4,3.5,1.1l-0.7,1.1c-0.9-0.6-2-1-2.9-1c-1.2,0-1.9,0.6-1.9,1.4v0
		c0,0.9,1.2,1.3,2.5,1.7c1.5,0.5,3.2,1,3.2,2.8v0c0,1.9-1.5,2.9-3.5,2.9C423.2,492,421.6,491.4,420.5,490.5z"/>
	<path fill="#82BC00" d="M430.7,488.1V482h1.5v5.7c0,1.8,1,3,2.7,3c1.7,0,2.9-1.2,2.9-3.1V482h1.4v9.8h-1.4v-1.7
		c-0.7,1.1-1.7,1.9-3.4,1.9C432.1,492,430.7,490.4,430.7,488.1z"/>
	<path fill="#82BC00" d="M442.5,482h1.5v2.6c0.7-1.6,2.1-2.8,4-2.7v1.6h-0.1c-2.1,0-3.9,1.5-3.9,4.5v3.9h-1.5V482z"/>
	<path fill="#82BC00" d="M449.2,486.9L449.2,486.9c0-2.9,2-5.1,4.7-5.1c2.9,0,4.6,2.3,4.6,5.2c0,0.2,0,0.3,0,0.5h-7.8
		c0.2,2.1,1.7,3.3,3.5,3.3c1.3,0,2.3-0.6,3.1-1.4l0.9,0.8c-1,1.1-2.2,1.8-4,1.8C451.4,492,449.2,490,449.2,486.9z M457,486.3
		c-0.2-1.8-1.2-3.3-3.1-3.3c-1.7,0-3,1.4-3.2,3.3H457z"/>
	<path fill="#82BC00" d="M461,482h1.5v1.7c0.6-1,1.5-1.9,3.2-1.9c1.6,0,2.6,0.9,3.2,2c0.7-1.1,1.7-2,3.5-2c2.3,0,3.6,1.5,3.6,4v6.1
		h-1.5v-5.7c0-1.9-1-3-2.5-3c-1.5,0-2.7,1.1-2.7,3v5.7h-1.5V486c0-1.8-1-2.9-2.5-2.9c-1.6,0-2.7,1.3-2.7,3.1v5.6H461V482z"/>
	<path fill="#82BC00" d="M478.5,486.9L478.5,486.9c0-2.9,2-5.1,4.7-5.1c2.9,0,4.6,2.3,4.6,5.2c0,0.2,0,0.3,0,0.5H480
		c0.2,2.1,1.7,3.3,3.5,3.3c1.3,0,2.3-0.6,3.1-1.4l0.9,0.8c-1,1.1-2.2,1.8-4,1.8C480.7,492,478.5,490,478.5,486.9z M486.3,486.3
		c-0.2-1.8-1.2-3.3-3.1-3.3c-1.7,0-3,1.4-3.2,3.3H486.3z"/>
	<path fill="#82BC00" d="M490.4,482h1.5v1.7c0.6-1.1,1.7-1.9,3.4-1.9c2.4,0,3.8,1.6,3.8,3.9v6.1h-1.5v-5.7c0-1.8-1-3-2.7-3
		c-1.7,0-2.9,1.2-2.9,3.1v5.6h-1.5V482z"/>
	<path fill="#82BC00" d="M502.6,489.2v-5.9h-1.4V482h1.4v-3h1.5v3h3.1v1.3H504v5.7c0,1.2,0.7,1.6,1.7,1.6c0.5,0,0.9-0.1,1.4-0.3v1.3
		c-0.5,0.3-1.1,0.4-1.8,0.4C503.8,492,502.6,491.2,502.6,489.2z"/>
	<path fill="#82BC00" d="M508.9,490.5l0.7-1c1.1,0.8,2.2,1.3,3.4,1.3c1.2,0,2-0.6,2-1.6v0c0-1-1.2-1.4-2.5-1.7
		c-1.5-0.4-3.2-1-3.2-2.8v0c0-1.7,1.4-2.8,3.3-2.8c1.2,0,2.5,0.4,3.5,1.1l-0.7,1.1c-0.9-0.6-2-1-2.9-1c-1.2,0-1.9,0.6-1.9,1.4v0
		c0,0.9,1.2,1.3,2.5,1.7c1.5,0.5,3.2,1,3.2,2.8v0c0,1.9-1.5,2.9-3.5,2.9C511.6,492,510,491.4,508.9,490.5z"/>
	<path fill="#82BC00" d="M524.1,482h1.6l2.6,7.9l2.6-7.9h1.2l2.7,7.9l2.6-7.9h1.5l-3.5,9.9h-1.3l-2.6-7.8l-2.7,7.8h-1.3L524.1,482z"
		/>
	<path fill="#82BC00" d="M540.2,486.9L540.2,486.9c0-2.9,2-5.1,4.7-5.1c2.9,0,4.6,2.3,4.6,5.2c0,0.2,0,0.3,0,0.5h-7.8
		c0.2,2.1,1.7,3.3,3.5,3.3c1.3,0,2.3-0.6,3.1-1.4l0.9,0.8c-1,1.1-2.2,1.8-4,1.8C542.4,492,540.2,490,540.2,486.9z M548,486.3
		c-0.2-1.8-1.2-3.3-3.1-3.3c-1.7,0-3,1.4-3.2,3.3H548z"/>
	<path fill="#82BC00" d="M552,482h1.5v2.6c0.7-1.6,2.1-2.8,4-2.7v1.6h-0.1c-2.1,0-3.9,1.5-3.9,4.5v3.9H552V482z"/>
	<path fill="#82BC00" d="M558.7,486.9L558.7,486.9c0-2.9,2-5.1,4.7-5.1c2.9,0,4.6,2.3,4.6,5.2c0,0.2,0,0.3,0,0.5h-7.8
		c0.2,2.1,1.7,3.3,3.5,3.3c1.3,0,2.3-0.6,3.1-1.4l0.9,0.8c-1,1.1-2.2,1.8-4,1.8C560.9,492,558.7,490,558.7,486.9z M566.5,486.3
		c-0.2-1.8-1.2-3.3-3.1-3.3c-1.7,0-3,1.4-3.2,3.3H566.5z"/>
	<path fill="#82BC00" d="M576.8,489.2v-5.9h-1.4V482h1.4v-3h1.5v3h3.1v1.3h-3.1v5.7c0,1.2,0.7,1.6,1.7,1.6c0.5,0,0.9-0.1,1.4-0.3
		v1.3c-0.5,0.3-1.1,0.4-1.8,0.4C578,492,576.8,491.2,576.8,489.2z"/>
	<path fill="#82BC00" d="M583.2,489L583.2,489c0-2.1,1.7-3.2,4.2-3.2c1.3,0,2.1,0.2,3,0.4v-0.3c0-1.8-1.1-2.7-2.9-2.7
		c-1.2,0-2.1,0.3-3,0.7l-0.4-1.2c1.1-0.5,2.1-0.8,3.6-0.8c1.4,0,2.5,0.4,3.2,1.1c0.7,0.7,1,1.6,1,2.9v6h-1.4v-1.5
		c-0.7,0.9-1.8,1.7-3.6,1.7C585,492,583.2,491,583.2,489z M590.4,488.2v-1c-0.7-0.2-1.7-0.4-2.9-0.4c-1.8,0-2.9,0.8-2.9,2v0
		c0,1.2,1.1,2,2.5,2C589,490.8,590.4,489.7,590.4,488.2z"/>
	<path fill="#82BC00" d="M594.9,477.9h1.5v9.6l5.3-5.5h1.8l-4.1,4.2l4.3,5.6h-1.7l-3.5-4.6l-2,2v2.6h-1.5V477.9z"/>
	<path fill="#82BC00" d="M604.7,486.9L604.7,486.9c0-2.9,2-5.1,4.7-5.1c2.9,0,4.6,2.3,4.6,5.2c0,0.2,0,0.3,0,0.5h-7.8
		c0.2,2.1,1.7,3.3,3.5,3.3c1.3,0,2.3-0.6,3.1-1.4l0.9,0.8c-1,1.1-2.2,1.8-4,1.8C606.9,492,604.7,490,604.7,486.9z M612.5,486.3
		c-0.2-1.8-1.2-3.3-3.1-3.3c-1.7,0-3,1.4-3.2,3.3H612.5z"/>
	<path fill="#82BC00" d="M616.5,482h1.5v1.7c0.6-1.1,1.7-1.9,3.4-1.9c2.4,0,3.8,1.6,3.8,3.9v6.1h-1.5v-5.7c0-1.8-1-3-2.7-3
		c-1.7,0-2.9,1.2-2.9,3.1v5.6h-1.5V482z"/>
	<path fill="#82BC00" d="M633.2,489L633.2,489c0-2.1,1.7-3.2,4.2-3.2c1.3,0,2.1,0.2,3,0.4v-0.3c0-1.8-1.1-2.7-2.9-2.7
		c-1.2,0-2.1,0.3-3,0.7l-0.4-1.2c1.1-0.5,2.1-0.8,3.6-0.8c1.4,0,2.5,0.4,3.2,1.1c0.7,0.7,1,1.6,1,2.9v6h-1.4v-1.5
		c-0.7,0.9-1.8,1.7-3.6,1.7C635,492,633.2,491,633.2,489z M640.4,488.2v-1c-0.7-0.2-1.7-0.4-2.9-0.4c-1.8,0-2.9,0.8-2.9,2v0
		c0,1.2,1.1,2,2.5,2C638.9,490.8,640.4,489.7,640.4,488.2z"/>
	<path fill="#82BC00" d="M645.3,489.2v-5.9H644V482h1.4v-3h1.5v3h3.1v1.3h-3.1v5.7c0,1.2,0.7,1.6,1.7,1.6c0.5,0,0.9-0.1,1.4-0.3v1.3
		c-0.5,0.3-1.1,0.4-1.8,0.4C646.5,492,645.3,491.2,645.3,489.2z"/>
	<path fill="#82BC00" d="M659.7,489.9v1.9h-1.5v-13.9h1.5v6c0.8-1.2,2-2.2,3.8-2.2c2.4,0,4.7,1.9,4.7,5.1v0c0,3.2-2.3,5.1-4.7,5.1
		C661.6,492,660.4,491,659.7,489.9z M666.6,486.9L666.6,486.9c0-2.4-1.6-3.8-3.5-3.8c-1.8,0-3.6,1.5-3.6,3.8v0
		c0,2.3,1.7,3.8,3.6,3.8C665.1,490.7,666.6,489.3,666.6,486.9z"/>
	<path fill="#82BC00" d="M670.1,489L670.1,489c0-2.1,1.7-3.2,4.2-3.2c1.3,0,2.1,0.2,3,0.4v-0.3c0-1.8-1.1-2.7-2.9-2.7
		c-1.2,0-2.1,0.3-3,0.7l-0.4-1.2c1.1-0.5,2.1-0.8,3.6-0.8c1.4,0,2.5,0.4,3.2,1.1c0.7,0.7,1,1.6,1,2.9v6h-1.4v-1.5
		c-0.7,0.9-1.8,1.7-3.6,1.7C671.9,492,670.1,491,670.1,489z M677.3,488.2v-1c-0.7-0.2-1.7-0.4-2.9-0.4c-1.8,0-2.9,0.8-2.9,2v0
		c0,1.2,1.1,2,2.5,2C675.8,490.8,677.3,489.7,677.3,488.2z"/>
	<path fill="#82BC00" d="M681,490.5l0.7-1c1.1,0.8,2.2,1.3,3.4,1.3c1.2,0,2-0.6,2-1.6v0c0-1-1.2-1.4-2.5-1.7c-1.5-0.4-3.2-1-3.2-2.8
		v0c0-1.7,1.4-2.8,3.3-2.8c1.2,0,2.5,0.4,3.5,1.1l-0.7,1.1c-0.9-0.6-2-1-2.9-1c-1.2,0-1.9,0.6-1.9,1.4v0c0,0.9,1.2,1.3,2.5,1.7
		c1.5,0.5,3.2,1,3.2,2.8v0c0,1.9-1.5,2.9-3.5,2.9C683.7,492,682.1,491.4,681,490.5z"/>
	<path fill="#82BC00" d="M690.7,486.9L690.7,486.9c0-2.9,2-5.1,4.7-5.1c2.9,0,4.6,2.3,4.6,5.2c0,0.2,0,0.3,0,0.5h-7.8
		c0.2,2.1,1.7,3.3,3.5,3.3c1.3,0,2.3-0.6,3.1-1.4l0.9,0.8c-1,1.1-2.2,1.8-4,1.8C692.9,492,690.7,490,690.7,486.9z M698.5,486.3
		c-0.2-1.8-1.2-3.3-3.1-3.3c-1.7,0-3,1.4-3.2,3.3H698.5z"/>
	<path fill="#82BC00" d="M702.7,477.9h1.5v13.9h-1.5V477.9z"/>
	<path fill="#82BC00" d="M707.6,478.2h1.7v1.6h-1.7V478.2z M707.7,482h1.5v9.8h-1.5V482z"/>
	<path fill="#82BC00" d="M712.5,482h1.5v1.7c0.6-1.1,1.7-1.9,3.4-1.9c2.4,0,3.8,1.6,3.8,3.9v6.1h-1.5v-5.7c0-1.8-1-3-2.7-3
		c-1.7,0-2.9,1.2-2.9,3.1v5.6h-1.5V482z"/>
	<path fill="#82BC00" d="M723.6,486.9L723.6,486.9c0-2.9,2-5.1,4.7-5.1c2.9,0,4.6,2.3,4.6,5.2c0,0.2,0,0.3,0,0.5h-7.8
		c0.2,2.1,1.7,3.3,3.5,3.3c1.3,0,2.3-0.6,3.1-1.4l0.9,0.8c-1,1.1-2.2,1.8-4,1.8C725.8,492,723.6,490,723.6,486.9z M731.4,486.3
		c-0.2-1.8-1.2-3.3-3.1-3.3c-1.7,0-3,1.4-3.2,3.3H731.4z"/>
	<path fill="#82BC00" d="M740.4,489L740.4,489c0-2.1,1.7-3.2,4.2-3.2c1.3,0,2.1,0.2,3,0.4v-0.3c0-1.8-1.1-2.7-2.9-2.7
		c-1.2,0-2.1,0.3-3,0.7l-0.4-1.2c1.1-0.5,2.1-0.8,3.6-0.8c1.4,0,2.5,0.4,3.2,1.1c0.7,0.7,1,1.6,1,2.9v6h-1.4v-1.5
		c-0.7,0.9-1.8,1.7-3.6,1.7C742.3,492,740.4,491,740.4,489z M747.7,488.2v-1c-0.7-0.2-1.7-0.4-2.9-0.4c-1.8,0-2.9,0.8-2.9,2v0
		c0,1.2,1.1,2,2.5,2C746.2,490.8,747.7,489.7,747.7,488.2z"/>
	<path fill="#82BC00" d="M752.2,482h1.5v1.7c0.6-1.1,1.7-1.9,3.4-1.9c2.4,0,3.8,1.6,3.8,3.9v6.1h-1.5v-5.7c0-1.8-1-3-2.7-3
		c-1.7,0-2.9,1.2-2.9,3.1v5.6h-1.5V482z"/>
	<path fill="#82BC00" d="M763.3,486.9L763.3,486.9c0-3.2,2.3-5.1,4.7-5.1c1.8,0,3,1,3.8,2.1v-5.9h1.5v13.9h-1.5v-2
		c-0.8,1.2-2,2.2-3.8,2.2C765.7,492,763.3,490.1,763.3,486.9z M771.8,486.9L771.8,486.9c0-2.3-1.7-3.8-3.6-3.8
		c-1.9,0-3.5,1.4-3.5,3.8v0c0,2.3,1.6,3.8,3.5,3.8C770.1,490.7,771.8,489.2,771.8,486.9z"/>
	<path fill="#82BC00" d="M782.2,477.9h1.5v5.8c0.6-1.1,1.7-1.9,3.4-1.9c2.4,0,3.8,1.6,3.8,3.9v6.1h-1.5v-5.7c0-1.8-1-3-2.7-3
		c-1.7,0-2.9,1.2-2.9,3.1v5.6h-1.5V477.9z"/>
	<path fill="#82BC00" d="M793.3,486.9L793.3,486.9c0-2.8,2.2-5.2,5.1-5.2c2.9,0,5.1,2.3,5.1,5.1v0c0,2.8-2.2,5.1-5.1,5.1
		C795.4,492,793.3,489.7,793.3,486.9z M802,486.9L802,486.9c0-2.1-1.6-3.9-3.6-3.9c-2.1,0-3.6,1.7-3.6,3.8v0c0,2.1,1.6,3.8,3.6,3.8
		C800.6,490.7,802,489,802,486.9z"/>
	<path fill="#82BC00" d="M806,488.1V482h1.5v5.7c0,1.8,1,3,2.7,3c1.7,0,2.9-1.2,2.9-3.1V482h1.4v9.8h-1.4v-1.7
		c-0.7,1.1-1.7,1.9-3.4,1.9C807.4,492,806,490.4,806,488.1z"/>
	<path fill="#82BC00" d="M817.9,482h1.5v2.6c0.7-1.6,2.1-2.8,4-2.7v1.6h-0.1c-2.1,0-3.9,1.5-3.9,4.5v3.9h-1.5V482z"/>
	<path fill="#82BC00" d="M824.8,490.5l0.7-1c1.1,0.8,2.2,1.3,3.4,1.3c1.2,0,2-0.6,2-1.6v0c0-1-1.2-1.4-2.5-1.7
		c-1.5-0.4-3.2-1-3.2-2.8v0c0-1.7,1.4-2.8,3.3-2.8c1.2,0,2.5,0.4,3.5,1.1l-0.7,1.1c-0.9-0.6-2-1-2.9-1c-1.2,0-1.9,0.6-1.9,1.4v0
		c0,0.9,1.2,1.3,2.5,1.7c1.5,0.5,3.2,1,3.2,2.8v0c0,1.9-1.5,2.9-3.5,2.9C827.4,492,825.9,491.4,824.8,490.5z"/>
	<path fill="#82BC00" d="M842.5,480l-2.5,0.8l-0.4-1.2l3.2-1.1h1.1v13.4h-1.5V480z"/>
	<path fill="#82BC00" d="M846.8,493.5c0.9-0.3,1.3-0.8,1.3-1.7h-0.7v-2h1.7v1.7c0,1.5-0.7,2.3-2.1,2.6L846.8,493.5z"/>
	<path fill="#82BC00" d="M857.2,490.6l4.8-4.3c2-1.8,2.8-2.8,2.8-4.2c0-1.6-1.2-2.5-2.7-2.5c-1.5,0-2.5,0.8-3.6,2.3l-1.1-0.8
		c1.2-1.8,2.5-2.8,4.8-2.8c2.4,0,4.1,1.6,4.1,3.8v0c0,1.9-1,3.1-3.4,5.2l-3.6,3.2h7v1.4h-9.3V490.6z"/>
	<path fill="#82BC00" d="M868.5,493.5c0.9-0.3,1.3-0.8,1.3-1.7h-0.7v-2h1.7v1.7c0,1.5-0.7,2.3-2.1,2.6L868.5,493.5z"/>
	<path fill="#82BC00" d="M886.2,488.6h-7l-0.4-1.1l7.5-9.1h1.3v9h2.1v1.3h-2.1v3.2h-1.5V488.6z M886.2,487.4v-6.9l-5.6,6.9H886.2z"
		/>
	<path fill="#82BC00" d="M891.6,493.5c0.9-0.3,1.3-0.8,1.3-1.7h-0.7v-2h1.7v1.7c0,1.5-0.7,2.3-2.1,2.6L891.6,493.5z"/>
	<path fill="#82BC00" d="M902,489L902,489c0-2.1,1.7-3.2,4.2-3.2c1.3,0,2.1,0.2,3,0.4v-0.3c0-1.8-1.1-2.7-2.9-2.7
		c-1.2,0-2.1,0.3-3,0.7l-0.4-1.2c1.1-0.5,2.1-0.8,3.6-0.8c1.4,0,2.5,0.4,3.2,1.1c0.7,0.7,1,1.6,1,2.9v6h-1.4v-1.5
		c-0.7,0.9-1.8,1.7-3.6,1.7C903.8,492,902,491,902,489z M909.2,488.2v-1c-0.7-0.2-1.7-0.4-2.9-0.4c-1.8,0-2.9,0.8-2.9,2v0
		c0,1.2,1.1,2,2.5,2C907.8,490.8,909.2,489.7,909.2,488.2z"/>
	<path fill="#82BC00" d="M913.7,482h1.5v1.7c0.6-1.1,1.7-1.9,3.4-1.9c2.4,0,3.8,1.6,3.8,3.9v6.1h-1.5v-5.7c0-1.8-1-3-2.7-3
		c-1.7,0-2.9,1.2-2.9,3.1v5.6h-1.5V482z"/>
	<path fill="#82BC00" d="M924.9,486.9L924.9,486.9c0-3.2,2.3-5.1,4.7-5.1c1.8,0,3,1,3.8,2.1v-5.9h1.5v13.9h-1.5v-2
		c-0.8,1.2-2,2.2-3.8,2.2C927.2,492,924.9,490.1,924.9,486.9z M933.4,486.9L933.4,486.9c0-2.3-1.7-3.8-3.6-3.8
		c-1.9,0-3.5,1.4-3.5,3.8v0c0,2.3,1.6,3.8,3.5,3.8C931.7,490.7,933.4,489.2,933.4,486.9z"/>
	<path fill="#82BC00" d="M943.1,488.2L943.1,488.2c0-1.6,1.1-2.7,2.7-3.3c-1.2-0.6-2.3-1.5-2.3-3.1v0c0-2.1,2.1-3.5,4.5-3.5
		s4.5,1.5,4.5,3.5v0c0,1.5-1,2.5-2.3,3.1c1.6,0.6,2.7,1.7,2.7,3.2v0c0,2.3-2.2,3.8-5,3.8C945.3,492,943.1,490.5,943.1,488.2z
		 M951.6,488.2L951.6,488.2c0-1.5-1.5-2.6-3.5-2.6s-3.5,1-3.5,2.5v0c0,1.3,1.3,2.5,3.5,2.5S951.6,489.5,951.6,488.2z M951.1,482
		L951.1,482c0-1.3-1.3-2.3-3-2.3c-1.7,0-3,1-3,2.3v0c0,1.4,1.3,2.4,3,2.4C949.8,484.4,951.1,483.4,951.1,482z"/>
	<path fill="#82BC00" d="M955.6,489.8h1.7v2h-1.7V489.8z"/>
</g>
</svg>
