<?xml version="1.0" encoding="utf-8"?>
<!-- Generator: Adobe Illustrator 17.1.0, SVG Export Plug-In . SVG Version: 6.00 Build 0)  -->
<!DOCTYPE svg PUBLIC "-//W3C//DTD SVG 1.0//EN" "http://www.w3.org/TR/2001/REC-SVG-20010904/DTD/svg10.dtd">
<svg version="1.0" id="Layer_1" xmlns="http://www.w3.org/2000/svg" xmlns:xlink="http://www.w3.org/1999/xlink" x="0px" y="0px"
	 width="125px" height="55px" viewBox="0 0 125 55" enable-background="new 0 0 125 55" xml:space="preserve">
<g>
	
		<linearGradient id="SVGID_1_" gradientUnits="userSpaceOnUse" x1="-5318.7773" y1="4234.6724" x2="-5286.0742" y2="4240.1226" gradientTransform="matrix(1 0 0 1 5325.5 -4197.4043)">
		<stop  offset="9.550560e-02" style="stop-color:#DBE13C"/>
		<stop  offset="0.8371" style="stop-color:#7DC242"/>
	</linearGradient>
	<path fill="url(#SVGID_1_)" d="M6.5,27.8C2.6,31,0.7,34.3,1,37.4c1.1,9.3,22.2,14.5,49.5,13.1C30.1,45.6,13.7,36.8,6.5,27.8z"/>
	
		<linearGradient id="SVGID_2_" gradientUnits="userSpaceOnUse" x1="-5226.6338" y1="4216.5669" x2="-5204.104" y2="4218.7471" gradientTransform="matrix(1 0 0 1 5325.5 -4197.4043)">
		<stop  offset="9.550560e-02" style="stop-color:#DBE13C"/>
		<stop  offset="0.8371" style="stop-color:#7DC242"/>
	</linearGradient>
	<path fill="url(#SVGID_2_)" d="M124,21.6c-1-8.2-17.7-13.3-40.4-13.3c17.5,5.9,30.6,14.4,35.2,22.9C122.4,28,124.3,24.7,124,21.6z"
		/>
	
		<linearGradient id="SVGID_3_" gradientUnits="userSpaceOnUse" x1="-5314.4072" y1="4212.6909" x2="-5254.814" y2="4207.2407" gradientTransform="matrix(1 0 0 1 5325.5 -4197.4043)">
		<stop  offset="9.550560e-02" style="stop-color:#DBE13C"/>
		<stop  offset="0.8371" style="stop-color:#7DC242"/>
	</linearGradient>
	<path fill="url(#SVGID_3_)" d="M83.5,8.3C78,6.4,72.2,4.9,66,3.6C33.5-2.7,5.2,2.9,2.7,16.2C2,20,3.4,23.9,6.5,27.8
		C15.8,20,36,12.9,60.1,9.8C68.3,8.7,76.2,8.2,83.5,8.3z"/>
	
		<linearGradient id="SVGID_4_" gradientUnits="userSpaceOnUse" x1="-5269.3901" y1="4244.7773" x2="-5210.7041" y2="4239.145" gradientTransform="matrix(1 0 0 1 5325.5 -4197.4043)">
		<stop  offset="9.550560e-02" style="stop-color:#DBE13C"/>
		<stop  offset="0.8371" style="stop-color:#7DC242"/>
	</linearGradient>
	<path fill="url(#SVGID_4_)" d="M50.5,50.5c2.1,0.5,4.2,1,6.4,1.4c32.5,6.4,60.8,0.7,63.3-12.6c0.5-2.7-0.1-5.4-1.6-8.2
		c-9.2,7.8-29.6,15-53.8,18.1C60,49.9,55.2,50.3,50.5,50.5z"/>
	
		<linearGradient id="SVGID_5_" gradientUnits="userSpaceOnUse" x1="-5391.5732" y1="3250.8801" x2="-5267.7178" y2="3250.8801" gradientTransform="matrix(0.9922 -0.1245 0.1186 0.9448 4965.0215 -3705.4658)">
		<stop  offset="0.15" style="stop-color:#00ADEE"/>
		<stop  offset="0.75" style="stop-color:#005596"/>
	</linearGradient>
	<path fill="url(#SVGID_5_)" d="M83.5,8.3c-7.3,0-15.2,0.5-23.4,1.5C36,12.9,15.8,20,6.5,27.8c7.2,9.1,23.6,17.8,44.1,22.8
		c4.6-0.2,9.4-0.7,14.4-1.3c24.2-3.1,44.5-10.3,53.8-18.1C114.1,22.7,101,14.1,83.5,8.3z"/>
	<g>
		<path fill="#FFFFFF" d="M31.6,35.7c-4.7,0-7.4-3.3-7.4-7.4c0-4.2,3.1-7.6,8-7.6c1.5,0,2.8,0.3,3.8,0.8l0,2.7c-1.3-0.8-2.5-1-3.6-1
			c-3.4,0-4.9,2.4-4.9,4.9c0,2.8,1.8,5,4.6,5c1.3,0,2.5-0.4,3.6-1l0.8,2.1C34.9,35.3,33.3,35.7,31.6,35.7z"/>
		<path fill="#FFFFFF" d="M39.7,31.1c0.1,1.4,1.4,2.3,2.8,2.3c1,0,2.8-0.4,3.8-1l0.7,1.9c-1.3,0.9-3.8,1.4-5,1.4
			c-3.7,0-5.2-2.7-5.2-5.4c0-3,1.7-5.5,4.9-5.5c2.8,0,4.5,2.1,4.5,5.4c0,0.2,0,0.5,0,0.9L39.7,31.1z M41.5,27
			c-1.2,0-1.9,1.1-1.9,2.1l3.7,0C43.3,28.1,42.8,27,41.5,27z"/>
		<path fill="#FFFFFF" d="M50.9,35.7c-1.9,0-2.6-1.1-2.6-2.5v-6h-1.9V25h1.9v-2.4l2.9-0.9V25h3.2l-0.9,2.2h-2.4v4.8
			c0,0.8,0.3,1.2,1,1.2c0.6,0,1.3-0.3,1.7-0.5l0.8,1.9C53.5,35.4,51.9,35.7,50.9,35.7z"/>
		<path fill="#FFFFFF" d="M62,35.5l-0.5-0.9c-0.7,0.6-1.6,1.1-2.9,1.1c-2,0-3.5-1.3-3.5-3.4c0-2.2,1.8-3.4,4.4-3.5l1.7-0.1
			c0,0,0-0.1,0-0.2c0-1.1-0.9-1.6-1.9-1.6c-1,0-1.9,0.3-2.6,0.7L55.9,26c1.4-0.9,2.8-1.2,4.2-1.2c2.8,0,4.3,1.1,4.3,3.9v4.4
			c0,1,0,1.8,0.2,2.4H62z M61.3,30.8l-1.3,0c-1.3,0-1.9,0.5-1.9,1.3c0,0.8,0.6,1.3,1.6,1.3c0.8,0,1.3-0.3,1.6-0.5V30.8z"/>
		<path fill="#FFFFFF" d="M70.1,35.7c-0.4,0-0.9-0.1-1.4-0.2v5.2h-3V25.5c1.2-0.4,2.5-0.7,4.2-0.7c3.8,0,5.7,2.1,5.7,5.3
			C75.7,33.3,73.4,35.7,70.1,35.7z M69.7,27.3c-0.4,0-0.7,0-1,0.1v5.8c0.4,0.1,0.7,0.2,1.2,0.2c1.8,0,2.7-1.3,2.7-3.1
			C72.6,28.2,71.3,27.3,69.7,27.3z"/>
		<path fill="#FFFFFF" d="M83.4,35.5v-6c0-1.1-0.2-2.1-1.5-2.1c-0.8,0-1.6,0.4-2.3,1v7.2h-3V19.8h3v6.3c0.9-0.8,2.1-1.4,3.4-1.4
			c1.6,0,3.4,0.7,3.4,3.9v6.9H83.4z"/>
		<path fill="#FFFFFF" d="M89.3,23.3c-0.9,0-1.5-0.7-1.5-1.5c0-0.8,0.7-1.5,1.5-1.5c0.9,0,1.5,0.6,1.5,1.5
			C90.8,22.7,90.2,23.3,89.3,23.3z M87.8,35.5V25.1h3v10.5L87.8,35.5z"/>
		<path fill="#FFFFFF" d="M94.8,35.7c-1.9,0-2.6-1.1-2.6-2.4V19.8h3V32c0,0.7,0.1,1,0.6,1c0.2,0,0.4,0,0.8-0.1l0.4,2.2
			C96.2,35.6,95.5,35.7,94.8,35.7z"/>
		<path fill="#FFFFFF" d="M97.1,20c0.5,0,1,0.4,1,1c0,0.6-0.4,1-1,1c-0.5,0-1-0.4-1-1C96.1,20.4,96.5,20,97.1,20L97.1,20z M97,20.1
			c-0.4,0-0.8,0.4-0.8,0.8c0,0.5,0.4,0.8,0.8,0.8c0.4,0,0.8-0.4,0.8-0.8C97.8,20.5,97.5,20.1,97,20.1L97,20.1z M96.9,21.5h-0.2v-1.1
			c0.1,0,0.2,0,0.3,0c0.2,0,0.3,0,0.3,0.1c0.1,0,0.1,0.1,0.1,0.2c0,0.1-0.1,0.2-0.2,0.3v0c0.1,0,0.2,0.1,0.2,0.3
			c0,0.2,0,0.2,0.1,0.3h-0.2c0,0-0.1-0.1-0.1-0.3c0-0.1-0.1-0.2-0.2-0.2h-0.1V21.5z M96.9,20.9H97c0.1,0,0.3-0.1,0.3-0.2
			c0-0.1-0.1-0.2-0.3-0.2c-0.1,0-0.1,0-0.1,0V20.9z"/>
	</g>
</g>
</svg>
